<?xml version="1.0" encoding="utf-8"?>
<!-- Generator: Adobe Illustrator 16.0.0, SVG Export Plug-In . SVG Version: 6.00 Build 0)  -->
<!DOCTYPE svg PUBLIC "-//W3C//DTD SVG 1.1//EN" "http://www.w3.org/Graphics/SVG/1.1/DTD/svg11.dtd">
<svg version="1.1" id="Layer_1" xmlns="http://www.w3.org/2000/svg" xmlns:xlink="http://www.w3.org/1999/xlink" x="0px" y="0px"
	 width="181px" height="252px" viewBox="0 0 181 252" enable-background="new 0 0 181 252" xml:space="preserve">
<g id="g5444" transform="matrix(0.99999718,0,0,1.000002,2.9940799,-5.5506344)">
	<path id="rect6355-6-85-3-72-9" fill="#FFFFFF" stroke="#000000" stroke-width="0.9967" d="M7.117,7.225h160.777
		c4.696,0,8.504,3.807,8.504,8.504v231.644c0,4.695-3.808,8.504-8.504,8.504H7.117c-4.696,0-8.504-3.809-8.504-8.504V15.729
		C-1.387,11.032,2.421,7.225,7.117,7.225z"/>
	<path id="path147-0-8-1-6-13-2-06-7" d="M128.731,33.628
		c-7.819,0.17-11.325,8.974-5.534,15.811c0.84,0.997,0.927,1.569-0.612,0.612c-3.898-2.607-11.375-0.894-11.758,7.077
		c-0.473,9.822,13.25,12.651,15.827,2.208c0.136-1.102,1.031-1.077,0.815,0.487c-0.235,4.245-1.561,8.213-3.383,12.082
		c3.071,0,6.504,0,9.296,0c-1.822-3.869-3.147-7.837-3.383-12.082c-0.216-1.564,0.68-1.589,0.815-0.487
		c2.577,10.443,16.3,7.614,15.827-2.208c-0.383-7.971-7.859-9.685-11.758-7.077c-1.539,0.957-1.452,0.386-0.612-0.612
		c5.791-6.837,2.285-15.641-5.534-15.811c0,0,0,0-0.009,0H128.731z"/>

		<path id="path147-0-8-1-6-75-2-83-35-3" d="
		M46.274,33.628c-7.819,0.17-11.326,8.974-5.535,15.811c0.84,0.997,0.927,1.569-0.611,0.612c-3.899-2.607-11.376-0.894-11.759,7.077
		c-0.473,9.822,13.251,12.651,15.827,2.208c0.137-1.102,1.032-1.077,0.816,0.487c-0.235,4.245-1.562,8.213-3.384,12.082
		c3.071,0,6.504,0,9.297,0c-1.822-3.869-3.148-7.837-3.383-12.082c-0.217-1.564,0.68-1.589,0.815-0.487
		c2.576,10.443,16.3,7.614,15.827-2.208c-0.383-7.971-7.859-9.685-11.759-7.077c-1.538,0.957-1.451,0.386-0.611-0.612
		c5.791-6.837,2.285-15.641-5.535-15.811c0,0,0,0-0.008,0H46.274z"/>
	<path id="path147-0-8-1-6-7-5-5-7-77-6" d="
		M128.731,230.135c-7.819-0.17-11.325-8.973-5.534-15.811c0.84-0.996,0.927-1.568-0.612-0.611
		c-3.898,2.607-11.375,0.895-11.758-7.078c-0.473-9.82,13.25-12.65,15.827-2.207c0.136,1.102,1.031,1.076,0.815-0.488
		c-0.235-4.244-1.561-8.213-3.383-12.082c3.071,0,6.504,0,9.296,0c-1.822,3.869-3.147,7.838-3.383,12.082
		c-0.216,1.564,0.68,1.59,0.815,0.488c2.577-10.443,16.3-7.613,15.827,2.207c-0.383,7.973-7.859,9.686-11.758,7.078
		c-1.539-0.957-1.452-0.385-0.612,0.611c5.791,6.838,2.285,15.641-5.534,15.811c0,0,0,0-0.009,0H128.731z"/>

		<path id="path147-0-8-1-6-75-6-1-2-08-0" d="
		M46.274,230.135c-7.819-0.17-11.326-8.973-5.535-15.811c0.84-0.996,0.927-1.568-0.611-0.611
		c-3.899,2.607-11.376,0.895-11.759-7.078c-0.473-9.82,13.251-12.65,15.827-2.207c0.137,1.102,1.032,1.076,0.816-0.488
		c-0.235-4.244-1.562-8.213-3.384-12.082c3.071,0,6.504,0,9.297,0c-1.822,3.869-3.148,7.838-3.383,12.082
		c-0.217,1.564,0.68,1.59,0.815,0.488c2.576-10.443,16.3-7.613,15.827,2.207c-0.383,7.973-7.859,9.686-11.759,7.078
		c-1.538-0.957-1.451-0.385-0.611,0.611c5.791,6.838,2.285,15.641-5.535,15.811c0,0,0,0-0.008,0H46.274z"/>
	<path id="path147-6-9-8-7-0-5-6-17-9" d="M162.688,216.025
		c3.128-0.07,4.531-3.738,2.215-6.588c-0.336-0.416-0.371-0.654,0.244-0.254c1.56,1.086,4.55,0.371,4.703-2.949
		c0.189-4.094-5.3-5.271-6.33-0.92c-0.055,0.459-0.413,0.447-0.326-0.203c0.094-1.77,0.624-3.422,1.353-5.035
		c-1.239,0-2.479,0-3.718,0c0.729,1.613,1.259,3.266,1.353,5.035c0.087,0.65-0.271,0.662-0.326,0.203
		c-1.03-4.352-6.52-3.174-6.331,0.92c0.153,3.32,3.144,4.035,4.703,2.949c0.615-0.4,0.581-0.162,0.245,0.254
		c-2.316,2.85-0.914,6.518,2.214,6.588c0.001,0,0,0,0,0H162.688z"/>
	<path id="path147-6-9-8-7-4-5-62-79-3" d="M12.324,47.076
		c-3.128,0.07-4.53,3.739-2.214,6.588c0.336,0.415,0.371,0.653-0.245,0.255c-1.559-1.087-4.55-0.372-4.703,2.949
		c-0.188,4.092,5.301,5.271,6.331,0.92c0.055-0.46,0.413-0.449,0.326,0.202c-0.094,1.77-0.624,3.423-1.353,5.034
		c1.239,0,2.479,0,3.718,0c-0.729-1.611-1.259-3.265-1.354-5.034c-0.086-0.651,0.272-0.662,0.327-0.202
		c1.03,4.352,6.52,3.172,6.33-0.92c-0.153-3.321-3.144-4.036-4.703-2.949c-0.615,0.398-0.581,0.16-0.245-0.255
		c2.317-2.849,0.914-6.518-2.214-6.588l0,0H12.324z"/>
	<path id="path19-0-7-3" d="M12.509,44.572v-2.324h2.095v-3.834H4.125v-2.705l11.339-17.449
		l1.853,0.01v17.439h3.208v2.705h-3.208l-0.061,3.834h1.756v2.328h-6.504L12.509,44.572z M14.604,24.648L7.404,35.709h7.199V24.648z
		"/>
	<path id="path19-4-4-9-1" d="M162.501,218.529v2.324h-2.095v3.834h10.479v2.705l-11.34,17.449
		l-1.853-0.01v-17.439h-3.207v-2.705h3.207l0.062-3.834h-1.756v-2.328h6.503L162.501,218.529z M160.406,238.453l7.199-11.061h-7.199
		V238.453z"/>
</g>
</svg>
