<?xml version="1.0" encoding="utf-8"?>
<!-- Generator: Adobe Illustrator 16.0.0, SVG Export Plug-In . SVG Version: 6.00 Build 0)  -->
<!DOCTYPE svg PUBLIC "-//W3C//DTD SVG 1.1//EN" "http://www.w3.org/Graphics/SVG/1.1/DTD/svg11.dtd">
<svg version="1.1" id="Layer_1" xmlns="http://www.w3.org/2000/svg" xmlns:xlink="http://www.w3.org/1999/xlink" x="0px" y="0px"
	 width="181px" height="252px" viewBox="0 0 181 252" enable-background="new 0 0 181 252" xml:space="preserve">
<g id="g5468" transform="matrix(0.99999718,0,0,1.000002,1.0020682,-5.5505123)">
	<path id="rect6355-6-85-3-2-3-6" fill="#FFFFFF" stroke="#000000" stroke-width="0.9967" d="M9.109,7.225h160.778
		c4.697,0,8.504,3.807,8.504,8.504v231.643c0,4.697-3.807,8.504-8.504,8.504H9.109c-4.696,0-8.504-3.807-8.504-8.504V15.729
		C0.605,11.031,4.412,7.225,9.109,7.225z"/>
	<path id="path147-0-8-1-6-13-2-5-7-1" d="M130.723,33.628
		c-7.82,0.17-11.326,8.974-5.535,15.811c0.84,0.997,0.928,1.569-0.611,0.612c-3.898-2.607-11.375-0.894-11.758,7.077
		c-0.473,9.822,13.25,12.651,15.826,2.208c0.137-1.102,1.031-1.076,0.816,0.487c-0.234,4.245-1.561,8.213-3.383,12.082
		c3.07,0,6.504,0,9.295,0c-1.82-3.869-3.146-7.837-3.383-12.082c-0.215-1.563,0.68-1.589,0.816-0.487
		c2.576,10.443,16.299,7.614,15.826-2.208c-0.383-7.971-7.859-9.685-11.758-7.077c-1.537,0.957-1.451,0.386-0.611-0.612
		c5.791-6.837,2.285-15.641-5.535-15.811c0,0,0,0-0.008,0H130.723z"/>

		<path id="path147-0-8-1-6-75-2-83-8-8-7" d="
		M48.266,33.628c-7.819,0.17-11.326,8.974-5.534,15.811c0.84,0.997,0.926,1.569-0.612,0.612c-3.898-2.607-11.375-0.894-11.758,7.077
		c-0.473,9.822,13.25,12.651,15.826,2.208c0.137-1.102,1.032-1.076,0.816,0.487c-0.235,4.245-1.561,8.213-3.383,12.082
		c3.071,0,6.503,0,9.296,0c-1.822-3.869-3.148-7.837-3.383-12.082c-0.216-1.563,0.68-1.589,0.815-0.487
		c2.577,10.443,16.3,7.614,15.827-2.208c-0.383-7.971-7.859-9.685-11.759-7.077c-1.538,0.957-1.451,0.386-0.611-0.612
		c5.791-6.837,2.285-15.641-5.534-15.811c0,0,0,0-0.009,0H48.266z"/>
	<path id="path147-0-8-1-6-7-5-5-7-8-7-8" d="
		M130.723,230.135c-7.82-0.17-11.326-8.975-5.535-15.811c0.84-0.998,0.928-1.57-0.611-0.611c-3.898,2.607-11.375,0.893-11.758-7.078
		c-0.473-9.822,13.25-12.652,15.826-2.209c0.137,1.104,1.031,1.078,0.816-0.486c-0.234-4.246-1.561-8.213-3.383-12.082
		c3.07,0,6.504,0,9.295,0c-1.82,3.869-3.146,7.836-3.383,12.082c-0.215,1.564,0.68,1.59,0.816,0.486
		c2.576-10.443,16.299-7.613,15.826,2.209c-0.383,7.971-7.859,9.686-11.758,7.078c-1.537-0.959-1.451-0.387-0.611,0.611
		c5.791,6.836,2.285,15.641-5.535,15.811c0,0,0,0-0.008,0H130.723z"/>

		<path id="path147-0-8-1-6-75-6-1-2-0-6-8" d="
		M48.266,230.135c-7.819-0.17-11.326-8.975-5.534-15.811c0.84-0.998,0.926-1.57-0.612-0.611c-3.898,2.607-11.375,0.893-11.758-7.078
		c-0.473-9.822,13.25-12.652,15.826-2.209c0.137,1.104,1.032,1.078,0.816-0.486c-0.235-4.246-1.561-8.213-3.383-12.082
		c3.071,0,6.503,0,9.296,0c-1.822,3.869-3.148,7.836-3.383,12.082c-0.216,1.564,0.68,1.59,0.815,0.486
		c2.577-10.443,16.3-7.613,15.827,2.209c-0.383,7.971-7.859,9.686-11.759,7.078c-1.538-0.959-1.451-0.387-0.611,0.611
		c5.791,6.836,2.285,15.641-5.534,15.811c0,0,0,0-0.009,0H48.266z"/>
	<path id="path147-0-8-1-6-7-5-7-3-0-9-6-4" d="
		M130.723,112.743c-7.82,0.17-11.326,8.974-5.535,15.811c0.84,0.997,0.928,1.569-0.611,0.611
		c-3.898-2.607-11.375-0.894-11.758,7.079c-0.473,9.82,13.25,12.65,15.826,2.207c0.137-1.102,1.031-1.076,0.816,0.488
		c-0.234,4.244-1.561,8.213-3.383,12.082c3.07,0,6.504,0,9.295,0c-1.82-3.869-3.146-7.838-3.383-12.082
		c-0.215-1.564,0.68-1.59,0.816-0.488c2.576,10.443,16.299,7.613,15.826-2.207c-0.383-7.972-7.859-9.686-11.758-7.079
		c-1.537,0.958-1.451,0.386-0.611-0.611c5.791-6.837,2.285-15.641-5.535-15.811c0,0,0,0-0.008,0H130.723z"/>

		<path id="path147-0-8-1-6-75-6-6-5-3-0-0-2" d="
		M48.266,112.743c-7.819,0.17-11.326,8.974-5.534,15.811c0.84,0.997,0.926,1.569-0.612,0.611
		c-3.898-2.607-11.375-0.894-11.758,7.079c-0.473,9.82,13.25,12.65,15.826,2.207c0.137-1.102,1.032-1.076,0.816,0.488
		c-0.235,4.244-1.561,8.213-3.383,12.082c3.071,0,6.503,0,9.296,0c-1.822-3.869-3.148-7.838-3.383-12.082
		c-0.216-1.564,0.68-1.59,0.815-0.488c2.577,10.443,16.3,7.613,15.827-2.207c-0.383-7.972-7.859-9.686-11.759-7.079
		c-1.538,0.958-1.451,0.386-0.611-0.611c5.791-6.837,2.285-15.641-5.534-15.811c0,0,0,0-0.009,0H48.266z"/>
	<path id="path147-6-9-8-7-0-5-6-4-2-8" d="M164.68,216.026
		c3.129-0.072,4.531-3.74,2.215-6.588c-0.336-0.416-0.371-0.654,0.244-0.256c1.559,1.086,4.551,0.373,4.703-2.949
		c0.189-4.092-5.301-5.271-6.33-0.92c-0.055,0.459-0.414,0.449-0.326-0.203c0.094-1.768,0.623-3.422,1.352-5.033
		c-1.238,0-2.479,0-3.717,0c0.729,1.611,1.258,3.266,1.354,5.033c0.086,0.652-0.273,0.662-0.328,0.203
		c-1.029-4.352-6.52-3.172-6.33,0.92c0.154,3.322,3.145,4.035,4.703,2.949c0.615-0.398,0.582-0.16,0.246,0.256
		c-2.318,2.848-0.914,6.516,2.213,6.588l0,0H164.68z"/>
	<path id="path147-6-9-8-7-4-5-62-0-2-9" d="M14.317,47.075
		c-3.128,0.07-4.531,3.739-2.215,6.588c0.336,0.415,0.371,0.653-0.244,0.255c-1.56-1.087-4.551-0.372-4.703,2.949
		c-0.189,4.092,5.3,5.271,6.33,0.92c0.055-0.459,0.413-0.449,0.326,0.203c-0.094,1.769-0.624,3.422-1.353,5.034
		c1.239,0,2.479,0,3.718,0c-0.729-1.612-1.259-3.266-1.353-5.034c-0.087-0.652,0.271-0.663,0.326-0.203
		c1.03,4.352,6.52,3.172,6.331-0.92c-0.153-3.321-3.145-4.036-4.704-2.949c-0.615,0.398-0.58,0.16-0.244-0.255
		c2.316-2.849,0.914-6.518-2.214-6.588c-0.001,0,0,0,0,0H14.317z"/>
	<path id="path23-8-1-4" d="M6.598,36.479c-0.323-2.215-0.315-7.94-0.051-9.634
		c0.815-5.189,2.795-7.563,6.11-8.339c3.221-0.755,7.744,0.086,8.736,4.423l-2.691,0.052c-1.456-2.933-5.141-2.149-7.216-0.873
		c-1.656,1.016-2.404,5.259-2.084,5.52c0,0,3.131-2.322,5.6-2.15c5.275,0.55,7.452,5.131,7.268,9.456
		c-0.168,5.204-1.815,9.365-7.407,9.642C9.546,44.368,7.11,41.467,6.598,36.479L6.598,36.479L6.598,36.479z M19.709,35.105
		c0.029-3.61-1.607-6.315-4.707-6.612c-3.096-0.299-6.22,2.728-6.004,6.407c0.216,3.696,1.645,6.805,5.4,6.788
		C18.438,41.671,19.691,37.674,19.709,35.105L19.709,35.105L19.709,35.105z"/>
	<path id="path23-6-8-9-6" d="M172.396,226.622c0.322,2.215,0.314,7.939,0.051,9.635
		c-0.816,5.188-2.795,7.562-6.111,8.338c-3.221,0.754-7.744-0.086-8.736-4.422l2.691-0.053c1.457,2.932,5.141,2.148,7.217,0.873
		c1.654-1.016,2.404-5.26,2.084-5.52c0,0-3.133,2.322-5.602,2.15c-5.275-0.551-7.451-5.131-7.266-9.457
		c0.168-5.203,1.814-9.363,7.406-9.641C169.447,218.731,171.883,221.633,172.396,226.622L172.396,226.622L172.396,226.622z
		 M159.283,227.995c-0.027,3.611,1.609,6.316,4.707,6.613c3.098,0.299,6.221-2.729,6.006-6.408c-0.217-3.695-1.645-6.805-5.4-6.787
		C160.557,221.428,159.303,225.426,159.283,227.995L159.283,227.995L159.283,227.995z"/>
</g>
</svg>
