<?xml version="1.0" encoding="utf-8"?>
<!-- Generator: Adobe Illustrator 16.0.0, SVG Export Plug-In . SVG Version: 6.00 Build 0)  -->
<!DOCTYPE svg PUBLIC "-//W3C//DTD SVG 1.1//EN" "http://www.w3.org/Graphics/SVG/1.1/DTD/svg11.dtd">
<svg version="1.1" id="Layer_1" xmlns="http://www.w3.org/2000/svg" xmlns:xlink="http://www.w3.org/1999/xlink" x="0px" y="0px"
	 width="181px" height="252px" viewBox="0 0 181 252" enable-background="new 0 0 181 252" xml:space="preserve">
<g id="g5495" transform="matrix(0.99999718,0,0,1.000002,-0.9898215,-5.5505123)">
	<path id="rect6355-6-85-3-3-4-3" fill="#FFFFFF" stroke="#000000" stroke-width="0.9967" d="M11.1,7.224h160.778
		c4.697,0,8.504,3.807,8.504,8.504v231.645c0,4.695-3.807,8.504-8.504,8.504H11.1c-4.696,0-8.503-3.809-8.503-8.504V15.728
		C2.597,11.031,6.404,7.224,11.1,7.224z"/>
	<path id="path147-0-8-1-6-13-2-2-3-8" d="M132.714,33.628
		c-7.819,0.17-11.326,8.974-5.535,15.811c0.84,0.997,0.927,1.569-0.611,0.612c-3.899-2.607-11.375-0.894-11.758,7.077
		c-0.474,9.822,13.25,12.651,15.826,2.208c0.137-1.102,1.032-1.076,0.816,0.487c-0.235,4.245-1.562,8.213-3.384,12.082
		c3.071,0,6.504,0,9.297,0c-1.822-3.869-3.148-7.837-3.383-12.082c-0.217-1.563,0.68-1.589,0.815-0.487
		c2.576,10.443,16.3,7.614,15.827-2.208c-0.383-7.971-7.859-9.685-11.759-7.077c-1.538,0.957-1.451,0.386-0.611-0.612
		c5.791-6.837,2.285-15.641-5.535-15.811c0,0,0,0-0.008,0H132.714z"/>

		<path id="path147-0-8-1-6-75-2-83-9-8-9" d="
		M50.258,33.628c-7.82,0.17-11.326,8.974-5.535,15.811c0.84,0.997,0.927,1.569-0.611,0.612c-3.899-2.607-11.375-0.894-11.759,7.077
		C31.88,66.95,45.604,69.779,48.18,59.336c0.137-1.102,1.031-1.076,0.815,0.487c-0.234,4.245-1.561,8.213-3.383,12.082
		c3.071,0,6.504,0,9.296,0c-1.822-3.869-3.147-7.837-3.383-12.082c-0.216-1.563,0.68-1.589,0.815-0.487
		c2.577,10.443,16.301,7.614,15.827-2.208c-0.383-7.971-7.859-9.685-11.758-7.077c-1.539,0.957-1.452,0.386-0.612-0.612
		c5.792-6.837,2.285-15.641-5.534-15.811c0,0,0,0-0.008,0H50.258z"/>
	<path id="path147-0-8-1-6-7-5-5-7-62-3-0" d="
		M132.714,230.134c-7.819-0.17-11.326-8.973-5.535-15.811c0.84-0.996,0.927-1.568-0.611-0.611
		c-3.899,2.607-11.375,0.895-11.758-7.078c-0.474-9.82,13.25-12.65,15.826-2.207c0.137,1.102,1.032,1.076,0.816-0.488
		c-0.235-4.244-1.562-8.213-3.384-12.082c3.071,0,6.504,0,9.297,0c-1.822,3.869-3.148,7.838-3.383,12.082
		c-0.217,1.564,0.68,1.59,0.815,0.488c2.576-10.443,16.3-7.613,15.827,2.207c-0.383,7.973-7.859,9.686-11.759,7.078
		c-1.538-0.957-1.451-0.385-0.611,0.611c5.791,6.838,2.285,15.641-5.535,15.811c0,0,0,0-0.008,0H132.714z"/>

		<path id="path147-0-8-1-6-75-6-1-2-41-4-5" d="
		M50.258,230.134c-7.82-0.17-11.326-8.973-5.535-15.811c0.84-0.996,0.927-1.568-0.611-0.611c-3.899,2.607-11.375,0.895-11.759-7.078
		c-0.473-9.82,13.251-12.65,15.827-2.207c0.137,1.102,1.031,1.076,0.815-0.488c-0.234-4.244-1.561-8.213-3.383-12.082
		c3.071,0,6.504,0,9.296,0c-1.822,3.869-3.147,7.838-3.383,12.082c-0.216,1.564,0.68,1.59,0.815,0.488
		c2.577-10.443,16.301-7.613,15.827,2.207c-0.383,7.973-7.859,9.686-11.758,7.078c-1.539-0.957-1.452-0.385-0.612,0.611
		c5.792,6.838,2.285,15.641-5.534,15.811c0,0,0,0-0.008,0H50.258z"/>
	<path id="path147-0-8-1-6-2-00-7-5-5-3" d="M91.487,73.185
		c-7.82,0.17-11.326,8.974-5.535,15.811c0.84,0.997,0.927,1.569-0.611,0.612c-3.899-2.607-11.376-0.894-11.759,7.077
		c-0.473,9.822,13.25,12.651,15.827,2.208c0.136-1.102,1.031-1.077,0.815,0.487c-0.235,4.245-1.561,8.213-3.383,12.082
		c3.071,0,6.504,0,9.296,0c-1.822-3.869-3.147-7.837-3.383-12.082c-0.216-1.564,0.68-1.589,0.815-0.487
		c2.577,10.443,16.3,7.614,15.827-2.208c-0.383-7.971-7.859-9.685-11.758-7.077c-1.539,0.957-1.452,0.385-0.611-0.612
		c5.791-6.837,2.284-15.641-5.535-15.811c0,0,0,0-0.008,0H91.487z"/>
	<path id="path147-0-8-1-6-7-5-7-3-0-4-4-6" d="
		M132.714,112.743c-7.819,0.17-11.326,8.974-5.535,15.811c0.84,0.997,0.927,1.569-0.611,0.611
		c-3.899-2.607-11.375-0.894-11.758,7.078c-0.474,9.821,13.25,12.651,15.826,2.208c0.137-1.103,1.032-1.077,0.816,0.487
		c-0.235,4.245-1.562,8.213-3.384,12.082c3.071,0,6.504,0,9.297,0c-1.822-3.869-3.148-7.837-3.383-12.082
		c-0.217-1.564,0.68-1.59,0.815-0.487c2.576,10.443,16.3,7.613,15.827-2.208c-0.383-7.972-7.859-9.686-11.759-7.078
		c-1.538,0.958-1.451,0.386-0.611-0.611c5.791-6.837,2.285-15.641-5.535-15.811c0,0,0,0-0.008,0H132.714z"/>

		<path id="path147-0-8-1-6-75-6-6-5-3-2-4-8" d="
		M50.258,112.743c-7.82,0.17-11.326,8.974-5.535,15.811c0.84,0.997,0.927,1.569-0.611,0.611c-3.899-2.607-11.375-0.894-11.759,7.078
		c-0.473,9.821,13.251,12.651,15.827,2.208c0.137-1.103,1.031-1.077,0.815,0.487c-0.234,4.245-1.561,8.213-3.383,12.082
		c3.071,0,6.504,0,9.296,0c-1.822-3.869-3.147-7.837-3.383-12.082c-0.216-1.564,0.68-1.59,0.815-0.487
		c2.577,10.443,16.301,7.613,15.827-2.208c-0.383-7.972-7.859-9.686-11.758-7.078c-1.539,0.958-1.452,0.386-0.612-0.611
		c5.792-6.837,2.285-15.641-5.534-15.811c0,0,0,0-0.008,0H50.258z"/>
	<path id="path147-0-8-1-6-2-0-8-6-42-9-6" d="
		M91.487,190.578c-7.82-0.17-11.326-8.975-5.535-15.811c0.84-0.998,0.927-1.57-0.611-0.611c-3.899,2.607-11.376,0.893-11.759-7.078
		c-0.473-9.822,13.251-12.652,15.827-2.207c0.136,1.102,1.031,1.076,0.815-0.488c-0.235-4.244-1.561-8.213-3.383-12.082
		c3.071,0,6.504,0,9.296,0c-1.822,3.869-3.147,7.838-3.383,12.082c-0.216,1.564,0.68,1.59,0.816,0.488
		c2.576-10.445,16.3-7.615,15.826,2.207c-0.383,7.971-7.859,9.686-11.758,7.078c-1.538-0.959-1.451-0.387-0.611,0.611
		c5.791,6.836,2.285,15.641-5.535,15.811c0,0,0,0-0.008,0H91.487z"/>
	<path id="path147-6-9-8-7-0-5-6-1-6-9" d="
		M166.671,216.025c3.129-0.07,4.531-3.738,2.215-6.588c-0.336-0.416-0.371-0.654,0.244-0.254c1.561,1.086,4.551,0.371,4.703-2.949
		c0.189-4.094-5.299-5.271-6.33-0.92c-0.055,0.459-0.412,0.447-0.326-0.203c0.094-1.77,0.623-3.422,1.354-5.035
		c-1.24,0-2.48,0-3.719,0c0.729,1.613,1.26,3.266,1.354,5.035c0.086,0.65-0.271,0.662-0.326,0.203
		c-1.031-4.352-6.52-3.174-6.332,0.92c0.154,3.32,3.145,4.035,4.703,2.949c0.617-0.4,0.582-0.162,0.246,0.254
		c-2.316,2.85-0.914,6.518,2.213,6.588l0,0H166.671z"/>
	<path id="path147-6-9-8-7-4-5-62-4-0-0" d="M16.308,47.075
		c-3.128,0.07-4.53,3.739-2.214,6.588c0.336,0.415,0.37,0.653-0.245,0.255c-1.56-1.087-4.55-0.372-4.703,2.949
		c-0.188,4.092,5.3,5.271,6.331,0.92c0.055-0.459,0.412-0.449,0.326,0.203c-0.094,1.769-0.624,3.422-1.354,5.034
		c1.24,0,2.479,0,3.719,0c-0.729-1.612-1.26-3.266-1.354-5.034c-0.086-0.652,0.272-0.663,0.326-0.203
		c1.031,4.352,6.521,3.172,6.331-0.92c-0.153-3.321-3.144-4.036-4.703-2.949c-0.615,0.398-0.581,0.16-0.245-0.255
		c2.316-2.849,0.914-6.518-2.213-6.588l0,0H16.308z"/>
	<path id="path27-3-3-2" d="M7.77,36.866c0.125-3.532,1.401-4.857,3.913-6.706
		c-2.004-1.447-2.849-3.581-2.677-5.396c0.413-4.397,3.804-6.596,7.505-6.502c3.703,0.099,6.892,3.038,7.14,6.233
		c0.217,2.777-0.607,4.118-2.576,5.579c2.336,1.975,3.828,3.271,3.772,6.751s-3.012,7.62-8.164,7.746
		C11.531,44.698,7.643,40.399,7.77,36.866L7.77,36.866L7.77,36.866z M22.154,36.879c0.221-3.198-2.604-5.355-5.791-5.387
		c-3.104-0.034-5.88,2.619-5.88,5.49c0,3.084,3.611,4.76,5.944,4.768C19.262,41.762,21.962,39.633,22.154,36.879L22.154,36.879z
		 M21.134,25.437c0.061-2.691-2.42-4.622-4.979-4.545c-2.276,0.07-4.684,1.808-4.687,4.06c0,2.818,2.74,4.226,5.08,4.28
		C18.67,29.28,21.087,27.472,21.134,25.437L21.134,25.437z"/>
	<path id="path27-0-0-5-0" d="M158.132,226.234c0.125,3.533,1.4,4.857,3.912,6.707
		c-2.004,1.447-2.848,3.58-2.676,5.396c0.412,4.396,3.803,6.594,7.504,6.5c3.703-0.098,6.891-3.037,7.141-6.232
		c0.215-2.777-0.609-4.119-2.576-5.58c2.336-1.975,3.828-3.271,3.771-6.75c-0.055-3.48-3.012-7.621-8.164-7.746
		C161.892,218.402,158.003,222.701,158.132,226.234L158.132,226.234L158.132,226.234z M172.515,226.22
		c0.221,3.199-2.604,5.357-5.791,5.389c-3.104,0.033-5.879-2.619-5.879-5.492c0-3.082,3.611-4.758,5.943-4.766
		C169.625,221.338,172.324,223.468,172.515,226.22L172.515,226.22L172.515,226.22z M171.496,237.664
		c0.061,2.689-2.42,4.621-4.979,4.543c-2.277-0.068-4.684-1.807-4.688-4.059c0-2.818,2.74-4.227,5.08-4.279
		C169.033,233.82,171.449,235.629,171.496,237.664L171.496,237.664z"/>
</g>
</svg>
