<?xml version="1.0" encoding="utf-8"?>
<!-- Generator: Adobe Illustrator 16.0.0, SVG Export Plug-In . SVG Version: 6.00 Build 0)  -->
<!DOCTYPE svg PUBLIC "-//W3C//DTD SVG 1.1//EN" "http://www.w3.org/Graphics/SVG/1.1/DTD/svg11.dtd">
<svg version="1.1" id="Layer_1" xmlns="http://www.w3.org/2000/svg" xmlns:xlink="http://www.w3.org/1999/xlink" x="0px" y="0px"
	 width="181px" height="252px" viewBox="0 0 181 252" enable-background="new 0 0 181 252" xml:space="preserve">
<g id="g5120" transform="matrix(0.99999712,0,0,1.000002,5.9820329,-5.5506344)">
	<path id="rect6355-6-85-9-3-2" fill="#FFFFFF" stroke="#000000" stroke-width="0.9967" d="M4.129,7.225h160.777
		c4.695,0,8.504,3.807,8.504,8.504v231.644c0,4.695-3.809,8.504-8.504,8.504H4.129c-4.696,0-8.504-3.809-8.504-8.504V15.729
		C-4.375,11.032-0.567,7.225,4.129,7.225z"/>
	<path id="path147-0-8-1-6-1-1-0-9-1-8" d="M84.515,112.743
		c-7.82,0.17-11.326,8.974-5.535,15.811c0.84,0.997,0.927,1.569-0.611,0.611c-3.899-2.607-11.376-0.894-11.759,7.079
		c-0.473,9.82,13.251,12.65,15.827,2.207c0.136-1.102,1.031-1.076,0.815,0.488c-0.234,4.244-1.561,8.213-3.383,12.082
		c3.071,0,6.504,0,9.296,0c-1.821-3.869-3.147-7.838-3.383-12.082c-0.216-1.564,0.68-1.59,0.816-0.488
		c2.576,10.443,16.3,7.613,15.826-2.207c-0.383-7.972-7.858-9.686-11.758-7.079c-1.538,0.958-1.452,0.386-0.612-0.611
		c5.792-6.837,2.285-15.641-5.534-15.811c0,0,0,0-0.008,0H84.515z"/>
	<path id="path147-6-9-8-7-0-5-0-8-3" d="M159.7,216.025
		c3.127-0.07,4.531-3.738,2.215-6.588c-0.338-0.416-0.371-0.654,0.244-0.254c1.559,1.086,4.549,0.371,4.703-2.949
		c0.189-4.094-5.301-5.271-6.33-0.92c-0.055,0.459-0.414,0.447-0.328-0.203c0.096-1.77,0.625-3.422,1.354-5.035
		c-1.238,0-2.479,0-3.717,0c0.729,1.613,1.258,3.266,1.352,5.035c0.088,0.65-0.271,0.662-0.326,0.203
		c-1.029-4.352-6.52-3.174-6.33,0.92c0.152,3.32,3.143,4.035,4.703,2.949c0.615-0.4,0.58-0.162,0.244,0.254
		c-2.316,2.85-0.914,6.518,2.215,6.588l0,0H159.7z"/>
	<path id="path41-6-3-5-1" d="M1.299,44.575v-2.25h2.144l4.568-24.065h2.6l5.032,24.065h1.731
		v2.25h-5.9v-2.25h1.593l-0.637-3.688H6.478l-0.46,3.688h1.593v2.25H1.299z M11.922,36.01L9.335,23.129L6.912,36.01H11.922z"/>
	<path id="path41-6-4-0-2-8" d="M151.661,218.525v2.25h2.143l4.568,24.066h2.6l5.033-24.066h1.73
		v-2.25h-5.9v2.25h1.592l-0.635,3.688h-5.953l-0.459-3.688h1.592v-2.25H151.661L151.661,218.525z M162.284,227.092l-2.588,12.879
		l-2.424-12.879H162.284L162.284,227.092z"/>
	<path id="path147-6-9-8-7-4-5-6-8-9" d="M9.336,47.076
		c-3.128,0.07-4.53,3.739-2.214,6.588c0.336,0.415,0.371,0.653-0.244,0.255c-1.56-1.087-4.551-0.372-4.704,2.949
		c-0.188,4.092,5.301,5.271,6.331,0.92c0.055-0.46,0.413-0.449,0.326,0.202c-0.094,1.77-0.624,3.423-1.353,5.034
		c1.239,0,2.479,0,3.718,0c-0.729-1.611-1.259-3.265-1.353-5.034c-0.087-0.651,0.271-0.662,0.326-0.202
		c1.03,4.352,6.52,3.172,6.33-0.92c-0.152-3.321-3.144-4.036-4.703-2.949c-0.615,0.398-0.58,0.16-0.244-0.255
		c2.316-2.849,0.914-6.518-2.214-6.588c-0.001,0,0,0,0,0H9.336z"/>
</g>
</svg>
