<?xml version="1.0" encoding="utf-8"?>
<!-- Generator: Adobe Illustrator 16.0.0, SVG Export Plug-In . SVG Version: 6.00 Build 0)  -->
<!DOCTYPE svg PUBLIC "-//W3C//DTD SVG 1.1//EN" "http://www.w3.org/Graphics/SVG/1.1/DTD/svg11.dtd">
<svg version="1.1" id="Layer_1" xmlns="http://www.w3.org/2000/svg" xmlns:xlink="http://www.w3.org/1999/xlink" x="0px" y="0px"
	 width="181px" height="252px" viewBox="0 0 181 252" enable-background="new 0 0 181 252" xml:space="preserve">
<g id="g5481" transform="matrix(0.99999718,0,0,1.000002,0.0059402,-5.5505123)">
	<path id="rect6355-6-85-3-1-8-1" fill="#FFFFFF" stroke="#000000" stroke-width="0.9967" d="M10.105,7.225h160.777
		c4.696,0,8.504,3.807,8.504,8.504v231.643c0,4.697-3.808,8.504-8.504,8.504H10.105c-4.697,0-8.504-3.807-8.504-8.504V15.729
		C1.601,11.032,5.408,7.225,10.105,7.225z"/>
	<path id="path147-0-8-1-6-13-2-0-1-5" d="M131.719,33.629
		c-7.819,0.17-11.326,8.974-5.535,15.811c0.84,0.997,0.927,1.569-0.611,0.612c-3.898-2.607-11.375-0.894-11.758,7.077
		c-0.473,9.822,13.25,12.651,15.826,2.208c0.137-1.102,1.032-1.076,0.816,0.487c-0.235,4.245-1.561,8.213-3.383,12.082
		c3.07,0,6.503,0,9.296,0c-1.822-3.869-3.148-7.837-3.383-12.082c-0.216-1.563,0.68-1.589,0.815-0.487
		c2.576,10.443,16.3,7.614,15.827-2.208c-0.383-7.971-7.859-9.685-11.759-7.077c-1.538,0.957-1.451,0.386-0.611-0.612
		c5.791-6.837,2.285-15.641-5.535-15.811c0,0,0,0-0.008,0H131.719z"/>

		<path id="path147-0-8-1-6-75-2-83-2-0-7" d="
		M49.263,33.629c-7.819,0.17-11.326,8.974-5.535,15.811c0.84,0.997,0.927,1.569-0.611,0.612c-3.899-2.607-11.375-0.894-11.759,7.077
		c-0.473,9.822,13.251,12.651,15.827,2.208c0.136-1.102,1.031-1.076,0.815,0.487c-0.234,4.245-1.561,8.213-3.383,12.082
		c3.071,0,6.504,0,9.297,0c-1.822-3.869-3.148-7.837-3.384-12.082c-0.216-1.563,0.68-1.589,0.816-0.487
		c2.576,10.443,16.3,7.614,15.826-2.208c-0.383-7.971-7.858-9.685-11.758-7.077c-1.538,0.957-1.452,0.386-0.612-0.612
		c5.792-6.837,2.285-15.641-5.534-15.811c0,0,0,0-0.008,0H49.263z"/>
	<path id="path147-0-8-1-6-7-5-5-7-7-7-6" d="
		M131.719,230.135c-7.819-0.17-11.326-8.975-5.535-15.811c0.84-0.998,0.927-1.57-0.611-0.611
		c-3.898,2.607-11.375,0.893-11.758-7.078c-0.473-9.822,13.25-12.652,15.826-2.209c0.137,1.104,1.032,1.078,0.816-0.486
		c-0.235-4.246-1.561-8.213-3.383-12.082c3.07,0,6.503,0,9.296,0c-1.822,3.869-3.148,7.836-3.383,12.082
		c-0.216,1.564,0.68,1.59,0.815,0.486c2.576-10.443,16.3-7.613,15.827,2.209c-0.383,7.971-7.859,9.686-11.759,7.078
		c-1.538-0.959-1.451-0.387-0.611,0.611c5.791,6.836,2.285,15.641-5.535,15.811c0,0,0,0-0.008,0H131.719z"/>

		<path id="path147-0-8-1-6-75-6-1-2-9-1-9" d="
		M49.263,230.135c-7.819-0.17-11.326-8.975-5.535-15.811c0.84-0.998,0.927-1.57-0.611-0.611c-3.899,2.607-11.375,0.893-11.759-7.078
		c-0.473-9.822,13.251-12.652,15.827-2.209c0.136,1.104,1.031,1.078,0.815-0.486c-0.234-4.246-1.561-8.213-3.383-12.082
		c3.071,0,6.504,0,9.297,0c-1.822,3.869-3.148,7.836-3.384,12.082c-0.216,1.564,0.68,1.59,0.816,0.486
		c2.576-10.443,16.3-7.613,15.826,2.209c-0.383,7.971-7.858,9.686-11.758,7.078c-1.538-0.959-1.452-0.387-0.612,0.611
		c5.792,6.836,2.285,15.641-5.534,15.811c0,0,0,0-0.008,0H49.263z"/>
	<path id="path147-0-8-1-6-2-00-7-2-3-4" d="M90.491,73.186
		c-7.819,0.17-11.326,8.974-5.535,15.811c0.84,0.997,0.927,1.569-0.611,0.612c-3.899-2.607-11.376-0.894-11.759,7.077
		c-0.473,9.822,13.25,12.651,15.827,2.208c0.136-1.102,1.032-1.077,0.815,0.487c-0.234,4.245-1.561,8.213-3.383,12.082
		c3.071,0,6.504,0,9.296,0c-1.821-3.869-3.147-7.837-3.383-12.082c-0.216-1.564,0.68-1.589,0.815-0.487
		c2.577,10.443,16.301,7.614,15.827-2.208c-0.383-7.971-7.859-9.685-11.758-7.077c-1.538,0.957-1.452,0.385-0.612-0.612
		c5.792-6.837,2.285-15.641-5.534-15.811c0,0,0,0-0.008,0H90.491z"/>
	<path id="path147-0-8-1-6-7-5-7-3-0-1-7-4" d="
		M131.719,112.744c-7.819,0.17-11.326,8.974-5.535,15.811c0.84,0.997,0.927,1.569-0.611,0.611
		c-3.898-2.607-11.375-0.894-11.758,7.078c-0.473,9.821,13.25,12.651,15.826,2.208c0.137-1.103,1.032-1.077,0.816,0.487
		c-0.235,4.245-1.561,8.213-3.383,12.082c3.07,0,6.503,0,9.296,0c-1.822-3.869-3.148-7.837-3.383-12.082
		c-0.216-1.564,0.68-1.59,0.815-0.487c2.576,10.443,16.3,7.613,15.827-2.208c-0.383-7.972-7.859-9.686-11.759-7.078
		c-1.538,0.958-1.451,0.386-0.611-0.611c5.791-6.837,2.285-15.641-5.535-15.811c0,0,0,0-0.008,0H131.719z"/>

		<path id="path147-0-8-1-6-75-6-6-5-3-9-6-0" d="
		M49.263,112.744c-7.819,0.17-11.326,8.974-5.535,15.811c0.84,0.997,0.927,1.569-0.611,0.611
		c-3.899-2.607-11.375-0.894-11.759,7.078c-0.473,9.821,13.251,12.651,15.827,2.208c0.136-1.103,1.031-1.077,0.815,0.487
		c-0.234,4.245-1.561,8.213-3.383,12.082c3.071,0,6.504,0,9.297,0c-1.822-3.869-3.148-7.837-3.384-12.082
		c-0.216-1.564,0.68-1.59,0.816-0.487c2.576,10.443,16.3,7.613,15.826-2.208c-0.383-7.972-7.858-9.686-11.758-7.078
		c-1.538,0.958-1.452,0.386-0.612-0.611c5.792-6.837,2.285-15.641-5.534-15.811c0,0,0,0-0.008,0H49.263z"/>
	<path id="path147-6-9-8-7-0-5-6-8-4-3" d="
		M165.676,216.026c3.128-0.072,4.53-3.74,2.214-6.588c-0.336-0.416-0.37-0.654,0.245-0.256c1.56,1.086,4.55,0.373,4.703-2.949
		c0.189-4.092-5.3-5.271-6.331-0.92c-0.055,0.459-0.412,0.449-0.326-0.203c0.095-1.768,0.624-3.422,1.354-5.033
		c-1.239,0-2.479,0-3.719,0c0.729,1.611,1.26,3.266,1.354,5.033c0.086,0.652-0.272,0.662-0.326,0.203
		c-1.03-4.352-6.521-3.172-6.331,0.92c0.153,3.322,3.144,4.035,4.703,2.949c0.615-0.398,0.581-0.16,0.245,0.256
		c-2.316,2.848-0.914,6.516,2.214,6.588c0.001,0,0,0,0,0H165.676z"/>
	<path id="path147-6-9-8-7-4-5-62-5-2-9" d="M15.312,47.076
		c-3.128,0.07-4.53,3.739-2.214,6.588c0.336,0.415,0.371,0.653-0.245,0.255c-1.56-1.087-4.55-0.372-4.703,2.949
		c-0.189,4.092,5.301,5.271,6.331,0.92c0.055-0.459,0.413-0.449,0.326,0.203c-0.094,1.769-0.624,3.422-1.353,5.034
		c1.239,0,2.479,0,3.718,0c-0.729-1.612-1.259-3.266-1.353-5.034c-0.087-0.652,0.271-0.663,0.326-0.203
		c1.03,4.352,6.52,3.172,6.33-0.92c-0.152-3.321-3.144-4.036-4.703-2.949c-0.615,0.398-0.58,0.16-0.244-0.255
		c2.316-2.849,0.913-6.518-2.214-6.588l0,0H15.312z"/>
	<path id="path25-6-8-8" d="M11.272,44.573c1.729-9.149,3.568-16.019,8.399-23.473H9.852v3.209
		H7.245v-6.05h14.363L23.38,21.1c-5.131,5.608-9.827,23.737-8.995,23.473H11.272L11.272,44.573z"/>
	<path id="path25-7-7-3-9" d="M169.714,218.528c-1.729,9.15-3.568,16.018-8.399,23.473h9.819
		v-3.209h2.607v6.049h-14.363l-1.771-2.84c5.131-5.607,9.827-23.738,8.995-23.473H169.714L169.714,218.528z"/>
</g>
</svg>
