<?xml version="1.0" encoding="utf-8"?>
<!-- Generator: Adobe Illustrator 16.0.0, SVG Export Plug-In . SVG Version: 6.00 Build 0)  -->
<!DOCTYPE svg PUBLIC "-//W3C//DTD SVG 1.1//EN" "http://www.w3.org/Graphics/SVG/1.1/DTD/svg11.dtd">
<svg version="1.1" id="Layer_1" xmlns="http://www.w3.org/2000/svg" xmlns:xlink="http://www.w3.org/1999/xlink" x="0px" y="0px"
	 width="181px" height="252px" viewBox="0 0 181 252" enable-background="new 0 0 181 252" xml:space="preserve">
<g id="g5431" transform="translate(3.9868881,-5.5524942)">
	<g id="layer1-33-1-4-5-7" transform="matrix(0.99553774,0,0,0.99680134,732.71268,-1457.4607)" >
		<path id="rect6355-6-85-2-7-5" fill="#FFFFFF" stroke="#000000" stroke-width="1.0006" d="M-729.845,1469.389h161.498
			c4.717,0,8.543,3.82,8.543,8.531v232.386c0,4.712-3.826,8.531-8.543,8.531h-161.498c-4.717,0-8.542-3.819-8.542-8.531V1477.92
			C-738.387,1473.208-734.563,1469.389-729.845,1469.389z"/>
	</g>
	<path id="path147-0-8-1-6-7-2-5-9-2" d="M86.51,33.631
		c-7.819,0.17-11.326,8.975-5.535,15.811c0.84,0.998,0.927,1.57-0.611,0.612c-3.899-2.607-11.375-0.894-11.758,7.077
		c-0.474,9.822,13.25,12.652,15.826,2.208c0.137-1.102,1.032-1.076,0.816,0.487c-0.235,4.245-1.562,8.213-3.384,12.082
		c3.071,0,6.504,0,9.297,0c-1.822-3.869-3.148-7.837-3.383-12.082c-0.217-1.563,0.68-1.589,0.814-0.487
		c2.576,10.444,16.301,7.614,15.828-2.208c-0.383-7.971-7.859-9.685-11.76-7.077c-1.537,0.958-1.451,0.386-0.611-0.612
		c5.791-6.836,2.285-15.641-5.535-15.811c0,0,0,0-0.008,0H86.51z"/>
	<path id="path147-0-8-1-6-1-4-3-4-3" d="M86.51,230.137
		c-7.819-0.17-11.326-8.974-5.535-15.811c0.84-0.997,0.927-1.569-0.611-0.611c-3.899,2.607-11.375,0.893-11.758-7.078
		c-0.474-9.821,13.25-12.651,15.826-2.208c0.137,1.103,1.032,1.077,0.816-0.487c-0.235-4.245-1.562-8.213-3.384-12.082
		c3.071,0,6.504,0,9.297,0c-1.822,3.869-3.148,7.837-3.383,12.082c-0.217,1.564,0.68,1.59,0.814,0.487
		c2.576-10.443,16.301-7.613,15.828,2.208c-0.383,7.971-7.859,9.686-11.76,7.078c-1.537-0.958-1.451-0.386-0.611,0.611
		c5.791,6.837,2.285,15.641-5.535,15.811c0,0,0,0-0.008,0H86.51z"/>
	<path id="path147-0-8-1-6-1-1-0-4-8-8" d="M86.51,112.746
		c-7.819,0.17-11.326,8.974-5.535,15.811c0.84,0.997,0.927,1.569-0.611,0.611c-3.899-2.607-11.375-0.894-11.758,7.078
		c-0.474,9.821,13.25,12.651,15.826,2.208c0.137-1.103,1.032-1.077,0.816,0.487c-0.235,4.245-1.562,8.213-3.384,12.082
		c3.071,0,6.504,0,9.297,0c-1.822-3.869-3.148-7.837-3.383-12.082c-0.217-1.564,0.68-1.59,0.814-0.487
		c2.576,10.443,16.301,7.613,15.828-2.208c-0.383-7.972-7.859-9.686-11.76-7.078c-1.537,0.958-1.451,0.386-0.611-0.611
		c5.791-6.837,2.285-15.641-5.535-15.811c0,0,0,0-0.008,0H86.51z"/>
	<path id="path147-6-9-8-7-0-5-5-1-4" d="M161.695,216.027
		c3.129-0.07,4.531-3.738,2.215-6.587c-0.336-0.416-0.371-0.654,0.244-0.255c1.561,1.086,4.55,0.372,4.704-2.949
		c0.189-4.093-5.302-5.271-6.331-0.92c-0.055,0.459-0.412,0.448-0.326-0.203c0.094-1.769,0.623-3.422,1.354-5.034
		c-1.24,0-2.48,0-3.719,0c0.729,1.612,1.258,3.266,1.354,5.034c0.086,0.651-0.273,0.662-0.326,0.203
		c-1.031-4.352-6.521-3.173-6.332,0.92c0.154,3.321,3.145,4.035,4.703,2.949c0.615-0.399,0.582-0.161,0.246,0.255
		c-2.316,2.849-0.914,6.517,2.213,6.587c0.002,0,0,0,0,0H161.695z"/>
	<path id="path147-6-9-8-7-4-5-8-2-3" d="M11.331,47.078
		c-3.128,0.07-4.53,3.739-2.214,6.588c0.336,0.415,0.371,0.654-0.244,0.255c-1.56-1.087-4.551-0.372-4.703,2.949
		c-0.189,4.092,5.3,5.271,6.33,0.92c0.055-0.459,0.413-0.449,0.326,0.203c-0.094,1.769-0.624,3.422-1.353,5.034
		c1.239,0,2.479,0,3.718,0c-0.729-1.612-1.259-3.266-1.353-5.034c-0.087-0.652,0.271-0.663,0.326-0.203
		c1.03,4.352,6.52,3.172,6.33-0.92c-0.152-3.321-3.144-4.036-4.703-2.949c-0.615,0.399-0.58,0.16-0.244-0.255
		c2.316-2.849,0.914-6.518-2.214-6.588c-0.001,0,0,0,0,0H11.331z"/>
	<path id="path17-9-7-6-4" d="M2.802,38.809l2.023-1.49c1.757,2.863,3.721,4.749,6.725,4.425
		c4.508-0.31,6.375-5.041,5.432-8.605c-0.912-3.198-4.645-4.756-7.611-3.051c-0.7,0.403-1.376,0.733-1.509,0.733
		c-0.311,0-1.016-1.403-0.919-1.831c1.991-2.912,6.827-8.015,6.827-8.015H6.214v3.417H3.314v-6.13h14.768v2.08
		c0,0-3.957,4.108-5.265,6.358c3.221,0.118,5.816,2.161,6.748,5.393c0.544,1.7,0.3,5.591-0.412,7.268
		c-1.188,2.796-4.436,5.063-7.403,5.194C6.766,44.89,4.122,41.394,2.802,38.809L2.802,38.809L2.802,38.809z"/>
	<path id="path17-5-0-1-5-7" d="M170.223,224.297l-2.023,1.489
		c-1.757-2.862-3.72-4.748-6.724-4.425c-4.508,0.311-6.377,5.041-5.434,8.606c0.912,3.198,4.645,4.756,7.613,3.051
		c0.699-0.404,1.375-0.734,1.508-0.734c0.311,0,1.016,1.403,0.92,1.832c-1.992,2.912-6.828,8.014-6.828,8.014h7.555v-3.416h2.901
		v6.13h-14.769v-2.08c0,0,3.957-4.108,5.264-6.359c-3.219-0.117-5.814-2.161-6.746-5.392c-0.545-1.701-0.301-5.592,0.41-7.269
		c1.189-2.795,4.436-5.063,7.404-5.193C166.259,218.216,168.903,221.711,170.223,224.297L170.223,224.297L170.223,224.297z"/>
</g>
</svg>
