<?xml version="1.0" encoding="utf-8"?>
<!-- Generator: Adobe Illustrator 16.0.0, SVG Export Plug-In . SVG Version: 6.00 Build 0)  -->
<!DOCTYPE svg PUBLIC "-//W3C//DTD SVG 1.1//EN" "http://www.w3.org/Graphics/SVG/1.1/DTD/svg11.dtd">
<svg version="1.1" id="Layer_1" xmlns="http://www.w3.org/2000/svg" xmlns:xlink="http://www.w3.org/1999/xlink" x="0px" y="0px"
	 width="181px" height="252px" viewBox="0 0 181 252" enable-background="new 0 0 181 252" xml:space="preserve">
<g id="g5510" transform="matrix(0.99999718,0,0,1.000002,-1.9858274,-5.5505123)">
	<path id="rect6355-6-85-3-78-4-6" fill="#FFFFFF" stroke="#000000" stroke-width="0.9967" d="M12.097,7.224h160.777
		c4.697,0,8.504,3.807,8.504,8.504v231.645c0,4.695-3.807,8.504-8.504,8.504H12.097c-4.696,0-8.504-3.809-8.504-8.504V15.728
		C3.593,11.031,7.401,7.224,12.097,7.224z"/>
	<path id="path147-0-8-1-6-13-2-9-8-8" d="M133.711,33.628
		c-7.82,0.17-11.326,8.974-5.535,15.811c0.84,0.997,0.927,1.569-0.611,0.612c-3.899-2.607-11.376-0.894-11.759,7.077
		c-0.473,9.822,13.251,12.651,15.827,2.208c0.137-1.102,1.031-1.076,0.815,0.487c-0.234,4.245-1.561,8.213-3.383,12.082
		c3.071,0,6.504,0,9.296,0c-1.822-3.869-3.147-7.837-3.383-12.082c-0.216-1.563,0.68-1.589,0.816-0.487
		c2.576,10.443,16.299,7.614,15.826-2.208c-0.383-7.971-7.859-9.685-11.758-7.077c-1.538,0.957-1.451,0.386-0.611-0.612
		c5.791-6.837,2.284-15.641-5.535-15.811c0,0,0,0-0.008,0H133.711z"/>

		<path id="path147-0-8-1-6-75-2-83-3-5-0" d="
		M51.254,33.628c-7.819,0.17-11.326,8.974-5.534,15.811c0.84,0.997,0.927,1.569-0.612,0.612c-3.898-2.607-11.375-0.894-11.758,7.077
		c-0.473,9.822,13.25,12.651,15.827,2.208c0.136-1.102,1.031-1.076,0.815,0.487c-0.235,4.245-1.561,8.213-3.383,12.082
		c3.071,0,6.504,0,9.296,0c-1.822-3.869-3.147-7.837-3.383-12.082c-0.216-1.563,0.68-1.589,0.815-0.487
		c2.577,10.443,16.3,7.614,15.827-2.208c-0.383-7.971-7.859-9.685-11.759-7.077c-1.538,0.957-1.451,0.386-0.611-0.612
		c5.791-6.837,2.285-15.641-5.534-15.811c0,0,0,0-0.009,0H51.254z"/>
	<path id="path147-0-8-1-6-7-5-5-7-63-0-4" d="
		M133.711,230.134c-7.82-0.17-11.326-8.973-5.535-15.811c0.84-0.996,0.927-1.568-0.611-0.611
		c-3.899,2.607-11.376,0.895-11.759-7.078c-0.473-9.82,13.251-12.65,15.827-2.207c0.137,1.102,1.031,1.076,0.815-0.488
		c-0.234-4.244-1.561-8.213-3.383-12.082c3.071,0,6.504,0,9.296,0c-1.822,3.869-3.147,7.838-3.383,12.082
		c-0.216,1.564,0.68,1.59,0.816,0.488c2.576-10.443,16.299-7.613,15.826,2.207c-0.383,7.973-7.859,9.686-11.758,7.078
		c-1.538-0.957-1.451-0.385-0.611,0.611c5.791,6.838,2.284,15.641-5.535,15.811c0,0,0,0-0.008,0H133.711z"/>

		<path id="path147-0-8-1-6-75-6-1-2-46-5-0" d="
		M51.254,230.134c-7.819-0.17-11.326-8.973-5.534-15.811c0.84-0.996,0.927-1.568-0.612-0.611
		c-3.898,2.607-11.375,0.895-11.758-7.078c-0.473-9.82,13.25-12.65,15.827-2.207c0.136,1.102,1.031,1.076,0.815-0.488
		c-0.235-4.244-1.561-8.213-3.383-12.082c3.071,0,6.504,0,9.296,0c-1.822,3.869-3.147,7.838-3.383,12.082
		c-0.216,1.564,0.68,1.59,0.815,0.488c2.577-10.443,16.3-7.613,15.827,2.207c-0.383,7.973-7.859,9.686-11.759,7.078
		c-1.538-0.957-1.451-0.385-0.611,0.611c5.791,6.838,2.285,15.641-5.534,15.811c0,0,0,0-0.009,0H51.254z"/>
	<path id="path147-0-8-1-6-1-1-0-5-61-2-0" d="
		M92.483,112.743c-7.819,0.17-11.326,8.974-5.535,15.811c0.84,0.997,0.927,1.569-0.611,0.611
		c-3.898-2.607-11.375-0.894-11.758,7.078c-0.473,9.821,13.25,12.651,15.826,2.208c0.137-1.103,1.031-1.077,0.816,0.487
		c-0.235,4.245-1.561,8.213-3.383,12.082c3.07,0,6.503,0,9.296,0c-1.822-3.869-3.147-7.837-3.383-12.082
		c-0.216-1.564,0.68-1.59,0.815-0.487c2.576,10.443,16.3,7.613,15.827-2.208c-0.383-7.972-7.859-9.686-11.759-7.078
		c-1.538,0.958-1.451,0.386-0.611-0.611c5.791-6.837,2.285-15.641-5.535-15.811c0,0,0,0-0.008,0H92.483z"/>
	<path id="path147-6-9-8-7-0-5-6-5-2-8" d="
		M167.667,216.025c3.127-0.07,4.531-3.738,2.215-6.588c-0.336-0.416-0.371-0.654,0.244-0.254c1.559,1.086,4.551,0.371,4.703-2.949
		c0.189-4.094-5.301-5.271-6.33-0.92c-0.055,0.459-0.414,0.447-0.328-0.203c0.096-1.77,0.625-3.422,1.354-5.035
		c-1.238,0-2.479,0-3.717,0c0.729,1.613,1.258,3.266,1.352,5.035c0.088,0.65-0.271,0.662-0.326,0.203
		c-1.029-4.352-6.52-3.174-6.33,0.92c0.152,3.32,3.143,4.035,4.703,2.949c0.615-0.4,0.58-0.162,0.244,0.254
		c-2.316,2.85-0.914,6.518,2.215,6.588l0,0H167.667z"/>

		<path id="path147-0-8-1-6-75-2-9-77-4-4-2" d="
		M51.254,86.371c-7.819,0.17-11.326,8.975-5.534,15.811c0.84,0.998,0.927,1.57-0.612,0.612c-3.898-2.607-11.375-0.894-11.758,7.077
		c-0.473,9.822,13.25,12.652,15.827,2.208c0.136-1.102,1.031-1.076,0.815,0.487c-0.234,4.245-1.561,8.213-3.383,12.082
		c3.071,0,6.504,0,9.296,0c-1.822-3.869-3.147-7.837-3.383-12.082c-0.216-1.563,0.68-1.589,0.815-0.487
		c2.577,10.444,16.301,7.614,15.827-2.208c-0.383-7.971-7.859-9.685-11.758-7.077c-1.538,0.958-1.452,0.386-0.612-0.612
		c5.791-6.836,2.285-15.641-5.534-15.811C51.261,86.371,51.261,86.371,51.254,86.371L51.254,86.371z"/>

		<path id="path147-0-8-1-6-75-2-8-0-6-4-4" d="
		M51.254,177.391c-7.819-0.17-11.326-8.974-5.534-15.811c0.84-0.997,0.927-1.569-0.612-0.611
		c-3.898,2.607-11.375,0.894-11.758-7.078c-0.473-9.821,13.25-12.651,15.827-2.208c0.136,1.103,1.031,1.077,0.815-0.487
		c-0.235-4.245-1.561-8.213-3.383-12.082c3.071,0,6.504,0,9.296,0c-1.822,3.869-3.147,7.837-3.383,12.082
		c-0.216,1.564,0.68,1.59,0.815,0.487c2.577-10.443,16.3-7.613,15.827,2.208c-0.383,7.972-7.859,9.686-11.759,7.078
		c-1.538-0.958-1.451-0.386-0.611,0.611c5.791,6.837,2.285,15.641-5.534,15.811c0,0,0,0-0.009,0H51.254z"/>

		<path id="path147-0-8-1-6-75-2-9-7-1-36-2-4" d="
		M133.711,86.371c-7.82,0.17-11.326,8.975-5.535,15.811c0.84,0.998,0.927,1.57-0.611,0.612c-3.899-2.607-11.376-0.894-11.759,7.077
		c-0.473,9.822,13.251,12.652,15.827,2.208c0.137-1.102,1.031-1.076,0.815,0.487c-0.234,4.245-1.561,8.213-3.383,12.082
		c3.071,0,6.504,0,9.296,0c-1.822-3.869-3.147-7.837-3.383-12.082c-0.216-1.563,0.68-1.589,0.816-0.487
		c2.576,10.444,16.299,7.614,15.826-2.208c-0.383-7.971-7.859-9.685-11.758-7.077c-1.538,0.958-1.451,0.386-0.611-0.612
		c5.791-6.836,2.284-15.641-5.535-15.811c0,0,0,0-0.008,0H133.711z"/>

		<path id="path147-0-8-1-6-75-2-8-5-1-55-5-4" d="
		M133.711,177.391c-7.82-0.17-11.326-8.974-5.535-15.811c0.84-0.997,0.927-1.569-0.611-0.611
		c-3.899,2.607-11.376,0.894-11.759-7.078c-0.473-9.821,13.251-12.651,15.827-2.208c0.137,1.103,1.031,1.077,0.815-0.487
		c-0.234-4.245-1.561-8.213-3.383-12.082c3.071,0,6.504,0,9.296,0c-1.822,3.869-3.147,7.837-3.383,12.082
		c-0.216,1.564,0.68,1.59,0.816,0.487c2.576-10.443,16.299-7.613,15.826,2.208c-0.383,7.972-7.859,9.686-11.758,7.078
		c-1.538-0.958-1.451-0.386-0.611,0.611c5.791,6.837,2.284,15.641-5.535,15.811c0,0,0,0-0.008,0H133.711z"/>
	<path id="path147-6-9-8-7-4-5-62-7-8-4" d="M17.305,47.075
		c-3.129,0.07-4.531,3.739-2.215,6.588c0.336,0.415,0.371,0.653-0.244,0.255c-1.56-1.087-4.551-0.372-4.703,2.949
		c-0.189,4.092,5.3,5.271,6.33,0.92c0.055-0.459,0.413-0.449,0.326,0.203c-0.094,1.769-0.623,3.422-1.353,5.034
		c1.239,0,2.479,0,3.718,0c-0.729-1.612-1.259-3.266-1.353-5.034c-0.087-0.652,0.271-0.663,0.326-0.203
		c1.03,4.352,6.521,3.172,6.331-0.92c-0.153-3.321-3.144-4.036-4.703-2.949c-0.615,0.398-0.581,0.16-0.245-0.255
		c2.316-2.849,0.914-6.518-2.214-6.588l0,0H17.305z"/>
	<path id="path29-2-3-4" d="M9.963,39.502l2.404-0.764c0.908,2.427,2.74,3.146,4.68,2.989
		c3.479-0.277,4.635-4.172,4.895-7.614c-1.355,1.439-3.393,2.17-5.127,2.097c-5.549-0.298-6.969-4.744-7.02-9.398
		c-0.152-3.924,1.469-6.766,4.247-8.071c1.473-0.661,4.843-0.661,6.323,0.122c3.4,1.796,4.66,4.898,4.432,12.306
		c0,6.094-1.291,13.191-7.815,13.346C13.215,45.036,10.351,42.099,9.963,39.502L9.963,39.502L9.963,39.502z M19.407,32.824
		c1.132-0.717,1.769-1.391,2.276-2.398c0.416-0.828,0.56-1.261,0.44-2.973c-0.309-4.418-2.62-6.926-5.976-6.429
		c-1.872,0.281-2.896,1.33-3.483,3.279c-1.085,3.605,0.291,7.823,2.867,8.794C16.692,33.538,18.483,33.412,19.407,32.824
		L19.407,32.824z"/>
	<path id="path29-6-1-3-7" d="M175.007,223.599l-2.404,0.762c-0.908-2.426-2.74-3.145-4.68-2.988
		c-3.48,0.277-4.635,4.172-4.896,7.615c1.357-1.439,3.393-2.172,5.129-2.098c5.547,0.299,6.969,4.744,7.02,9.398
		c0.15,3.924-1.469,6.766-4.248,8.07c-1.473,0.662-4.844,0.662-6.324-0.121c-3.398-1.797-4.66-4.898-4.432-12.307
		c0-6.094,1.293-13.189,7.816-13.346C171.755,218.064,174.619,221,175.007,223.599L175.007,223.599L175.007,223.599z
		 M165.564,230.275c-1.133,0.719-1.77,1.393-2.277,2.4c-0.416,0.826-0.561,1.26-0.439,2.973c0.309,4.418,2.619,6.926,5.975,6.428
		c1.873-0.281,2.896-1.33,3.484-3.279c1.084-3.605-0.293-7.822-2.869-8.795C168.279,229.562,166.486,229.689,165.564,230.275
		L165.564,230.275z"/>
</g>
</svg>
