<?xml version="1.0" encoding="utf-8"?>
<!-- Generator: Adobe Illustrator 16.0.0, SVG Export Plug-In . SVG Version: 6.00 Build 0)  -->
<!DOCTYPE svg PUBLIC "-//W3C//DTD SVG 1.1//EN" "http://www.w3.org/Graphics/SVG/1.1/DTD/svg11.dtd">
<svg version="1.1" id="Layer_1" xmlns="http://www.w3.org/2000/svg" xmlns:xlink="http://www.w3.org/1999/xlink" x="0px" y="0px"
	 width="181px" height="252px" viewBox="0 0 181 252" enable-background="new 0 0 181 252" xml:space="preserve">
<g id="g5455" transform="translate(1.9933614,-5.5523942)">
	<g id="layer1-33-1-41-1-2-6" transform="matrix(0.99553774,0,0,0.99680134,1261.1629,-1457.4608)" >
		<path id="rect6355-6-85-3-7-9-4" fill="#FFFFFF" stroke="#000000" stroke-width="1.0006" d="M-1258.661,1469.389h161.498
			c4.718,0,8.542,3.82,8.542,8.531v232.386c0,4.712-3.824,8.531-8.542,8.531h-161.498c-4.717,0-8.542-3.819-8.542-8.531V1477.92
			C-1267.204,1473.208-1263.379,1469.389-1258.661,1469.389z"/>
	</g>
	<path id="path147-0-8-1-6-13-2-8-2-5" d="M129.731,33.631
		c-7.818,0.169-11.326,8.974-5.533,15.811c0.84,0.997,0.926,1.569-0.613,0.611c-3.898-2.607-11.375-0.894-11.758,7.078
		c-0.473,9.821,13.25,12.651,15.828,2.207c0.135-1.102,1.031-1.076,0.814,0.487c-0.234,4.245-1.561,8.213-3.383,12.082
		c3.072,0,6.504,0,9.297,0c-1.822-3.869-3.148-7.837-3.383-12.082c-0.217-1.563,0.68-1.589,0.814-0.487
		c2.578,10.444,16.301,7.614,15.828-2.207c-0.383-7.972-7.859-9.686-11.76-7.078c-1.537,0.958-1.451,0.386-0.611-0.611
		c5.791-6.837,2.285-15.642-5.533-15.811c0-0.001,0,0-0.01,0H129.731z"/>

		<path id="path147-0-8-1-6-75-2-83-7-6-4" d="
		M47.276,33.631c-7.82,0.169-11.326,8.974-5.535,15.811c0.84,0.997,0.927,1.569-0.611,0.611c-3.899-2.607-11.376-0.894-11.759,7.078
		c-0.473,9.821,13.25,12.651,15.827,2.207c0.136-1.102,1.031-1.076,0.815,0.487c-0.235,4.245-1.561,8.213-3.383,12.082
		c3.071,0,6.504,0,9.296,0c-1.822-3.869-3.147-7.837-3.383-12.082c-0.216-1.563,0.68-1.589,0.815-0.487
		c2.577,10.444,16.3,7.614,15.827-2.207c-0.383-7.972-7.859-9.686-11.758-7.078c-1.539,0.958-1.452,0.386-0.612-0.611
		c5.792-6.837,2.285-15.642-5.534-15.811c0-0.001,0,0-0.008,0H47.276z"/>
	<path id="path147-0-8-1-6-7-5-5-7-6-8-5" d="
		M129.731,230.137c-7.818-0.17-11.326-8.974-5.533-15.811c0.84-0.997,0.926-1.569-0.613-0.611
		c-3.898,2.607-11.375,0.893-11.758-7.078c-0.473-9.821,13.25-12.651,15.828-2.208c0.135,1.103,1.031,1.077,0.814-0.487
		c-0.234-4.245-1.561-8.213-3.383-12.082c3.072,0,6.504,0,9.297,0c-1.822,3.869-3.148,7.837-3.383,12.082
		c-0.217,1.564,0.68,1.59,0.814,0.487c2.578-10.443,16.301-7.613,15.828,2.208c-0.383,7.971-7.859,9.686-11.76,7.078
		c-1.537-0.958-1.451-0.386-0.611,0.611c5.791,6.837,2.285,15.641-5.533,15.811c0,0,0,0-0.01,0H129.731z"/>

		<path id="path147-0-8-1-6-75-6-1-2-4-9-5" d="
		M47.276,230.137c-7.82-0.17-11.326-8.974-5.535-15.811c0.84-0.997,0.927-1.569-0.611-0.611c-3.899,2.607-11.376,0.893-11.759-7.078
		c-0.473-9.821,13.25-12.651,15.827-2.208c0.136,1.103,1.031,1.077,0.815-0.487c-0.235-4.245-1.561-8.213-3.383-12.082
		c3.071,0,6.504,0,9.296,0c-1.822,3.869-3.147,7.837-3.383,12.082c-0.216,1.564,0.68,1.59,0.815,0.487
		c2.577-10.443,16.3-7.613,15.827,2.208c-0.383,7.971-7.859,9.686-11.758,7.078c-1.539-0.958-1.452-0.386-0.612,0.611
		c5.792,6.837,2.285,15.641-5.534,15.811c0,0,0,0-0.008,0H47.276z"/>
	<path id="path147-0-8-1-6-1-1-0-5-6-4-0" d="
		M88.503,112.746c-7.819,0.17-11.325,8.974-5.534,15.811c0.84,0.997,0.926,1.569-0.612,0.611
		c-3.898-2.607-11.375-0.894-11.758,7.078c-0.473,9.821,13.25,12.651,15.827,2.208c0.136-1.103,1.031-1.077,0.815,0.487
		c-0.235,4.245-1.561,8.213-3.383,12.082c3.071,0,6.503,0,9.296,0c-1.822-3.869-3.148-7.837-3.383-12.082
		c-0.217-1.564,0.68-1.59,0.814-0.487c2.578,10.443,16.301,7.613,15.828-2.208c-0.383-7.972-7.859-9.686-11.758-7.078
		c-1.539,0.958-1.453,0.386-0.613-0.611c5.793-6.837,2.285-15.641-5.534-15.811C88.51,112.746,88.51,112.746,88.503,112.746
		L88.503,112.746z"/>
	<path id="path147-6-9-8-7-0-5-6-7-4-6" d="
		M163.688,216.027c3.129-0.07,4.531-3.738,2.215-6.587c-0.336-0.416-0.371-0.654,0.244-0.255c1.561,1.086,4.551,0.372,4.703-2.949
		c0.189-4.093-5.299-5.271-6.33-0.92c-0.055,0.459-0.412,0.448-0.326-0.203c0.094-1.769,0.625-3.422,1.354-5.034
		c-1.24,0-2.479,0-3.719,0c0.729,1.612,1.26,3.266,1.354,5.034c0.086,0.651-0.271,0.662-0.326,0.203
		c-1.031-4.352-6.52-3.173-6.332,0.92c0.154,3.321,3.145,4.035,4.705,2.949c0.615-0.399,0.58-0.161,0.244,0.255
		c-2.316,2.849-0.914,6.517,2.213,6.587c0.002,0,0,0,0,0H163.688z"/>
	<path id="path147-6-9-8-7-4-5-62-2-3-8" d="M13.324,47.078
		c-3.127,0.07-4.529,3.739-2.213,6.588c0.336,0.415,0.37,0.654-0.245,0.255c-1.56-1.086-4.55-0.372-4.703,2.949
		c-0.189,4.092,5.3,5.271,6.331,0.92c0.054-0.459,0.412-0.449,0.326,0.203c-0.095,1.769-0.625,3.422-1.354,5.034
		c1.239,0,2.479,0,3.719,0c-0.729-1.612-1.26-3.266-1.354-5.034c-0.087-0.652,0.271-0.662,0.326-0.203
		c1.03,4.352,6.52,3.172,6.331-0.92c-0.153-3.321-3.144-4.035-4.704-2.949c-0.615,0.399-0.58,0.16-0.244-0.255
		c2.316-2.849,0.914-6.517-2.214-6.588c-0.001,0,0,0,0,0H13.324z"/>
	<path id="path21-39-8-1" d="M5.041,37.765l2.576-0.025c0.491,1.589,1.579,3.203,3.056,3.651
		c4.171,0.999,6.855-1.379,7.739-4.12c1.071-3.325-0.024-7.994-2.896-9.651c-2.379-1.374-5.915-0.215-7.539,2.725l-1.805-1.126
		l0.969-10.956h11.787v2.59H9.376l-0.151,4.564c2.057-1.473,5.217-1.457,7.271-0.424c3.892,1.893,5.7,6.197,4.944,11.271
		c-1.048,5.046-3.36,7.905-8.575,8.313C7.065,44.63,5.016,40.563,5.041,37.765L5.041,37.765L5.041,37.765z"/>
	<path id="path21-3-4-1-8" d="M171.971,225.34l-2.576,0.024c-0.492-1.588-1.58-3.202-3.057-3.65
		c-4.172-0.999-6.855,1.379-7.738,4.12c-1.072,3.324,0.023,7.993,2.895,9.651c2.381,1.374,5.916,0.215,7.541-2.725l1.803,1.125
		l-0.969,10.957h-11.785v-2.59h9.551l0.15-4.564c-2.055,1.473-5.215,1.457-7.27,0.424c-3.893-1.894-5.701-6.198-4.945-11.271
		c1.049-5.047,3.361-7.905,8.576-8.314C169.948,218.475,171.995,222.543,171.971,225.34L171.971,225.34L171.971,225.34z"/>
</g>
</svg>
