<?xml version="1.0" encoding="utf-8"?>
<!-- Generator: Adobe Illustrator 16.0.0, SVG Export Plug-In . SVG Version: 6.00 Build 0)  -->
<!DOCTYPE svg PUBLIC "-//W3C//DTD SVG 1.1//EN" "http://www.w3.org/Graphics/SVG/1.1/DTD/svg11.dtd">
<svg version="1.1" id="Layer_1" xmlns="http://www.w3.org/2000/svg" xmlns:xlink="http://www.w3.org/1999/xlink" x="0px" y="0px"
	 width="181px" height="252px" viewBox="0 0 181 252" enable-background="new 0 0 181 252" xml:space="preserve">
<g id="g5421" transform="translate(4.9835822,-5.5524948)">
	<g id="layer1-33-1-8-0-7" transform="matrix(0.99553774,0,0,0.99680134,468.48764,-1457.4607)" >
		<path id="rect6355-6-85-4-0-5" fill="#FFFFFF" stroke="#000000" stroke-width="1.0006" d="M-465.437,1469.389h161.498
			c4.718,0,8.542,3.82,8.542,8.531v232.386c0,4.712-3.824,8.531-8.542,8.531h-161.498c-4.717,0-8.542-3.819-8.542-8.531V1477.92
			C-473.979,1473.208-470.155,1469.389-465.437,1469.389z"/>
	</g>
	<path id="path147-0-8-1-6-7-2-1-6-3" d="M85.513,33.631
		c-7.819,0.17-11.325,8.975-5.534,15.811c0.84,0.998,0.927,1.57-0.612,0.612c-3.898-2.607-11.375-0.894-11.758,7.077
		c-0.473,9.822,13.25,12.652,15.827,2.208c0.136-1.102,1.031-1.076,0.815,0.487c-0.235,4.245-1.561,8.213-3.383,12.082
		c3.071,0,6.503,0,9.296,0c-1.822-3.869-3.148-7.837-3.383-12.082c-0.217-1.563,0.68-1.589,0.814-0.487
		c2.578,10.444,16.301,7.614,15.828-2.208c-0.383-7.971-7.859-9.685-11.758-7.077c-1.539,0.958-1.453,0.386-0.613-0.612
		c5.791-6.836,2.285-15.641-5.534-15.811C85.52,33.631,85.52,33.631,85.513,33.631L85.513,33.631z"/>
	<path id="path147-0-8-1-6-1-4-5-4-2" d="M85.513,230.137
		c-7.819-0.17-11.325-8.973-5.534-15.811c0.84-0.996,0.927-1.568-0.612-0.611c-3.898,2.607-11.375,0.893-11.758-7.078
		c-0.473-9.82,13.25-12.65,15.827-2.207c0.136,1.102,1.031,1.076,0.815-0.488c-0.235-4.244-1.561-8.213-3.383-12.082
		c3.071,0,6.503,0,9.296,0c-1.822,3.869-3.148,7.838-3.383,12.082c-0.217,1.564,0.68,1.59,0.814,0.488
		c2.578-10.443,16.301-7.613,15.828,2.207c-0.383,7.971-7.859,9.686-11.758,7.078c-1.539-0.957-1.453-0.385-0.613,0.611
		c5.793,6.838,2.285,15.641-5.534,15.811C85.52,230.137,85.52,230.137,85.513,230.137L85.513,230.137z"/>
	<path id="path147-6-9-8-7-0-5-4-9-1" d="M160.698,216.028
		c3.129-0.07,4.531-3.738,2.215-6.588c-0.336-0.416-0.371-0.654,0.244-0.254c1.561,1.086,4.551,0.371,4.703-2.949
		c0.189-4.094-5.299-5.271-6.33-0.92c-0.055,0.459-0.412,0.447-0.326-0.203c0.094-1.77,0.625-3.422,1.354-5.035
		c-1.24,0-2.479,0-3.719,0c0.729,1.613,1.26,3.266,1.354,5.035c0.086,0.65-0.271,0.662-0.326,0.203
		c-1.031-4.352-6.52-3.174-6.332,0.92c0.154,3.32,3.145,4.035,4.703,2.949c0.617-0.4,0.582-0.162,0.246,0.254
		c-2.316,2.85-0.914,6.518,2.213,6.588c0.002,0,0,0,0,0H160.698z"/>
	<path id="path147-6-9-8-7-4-5-9-2-7" d="M10.335,47.078
		c-3.128,0.07-4.53,3.739-2.214,6.588c0.336,0.415,0.37,0.654-0.245,0.255c-1.56-1.087-4.55-0.372-4.703,2.949
		c-0.189,4.092,5.3,5.271,6.331,0.92c0.054-0.459,0.412-0.449,0.326,0.203c-0.095,1.769-0.625,3.422-1.354,5.034
		c1.239,0,2.479,0,3.719,0c-0.729-1.612-1.26-3.266-1.354-5.034c-0.086-0.652,0.271-0.663,0.326-0.203
		c1.03,4.352,6.52,3.172,6.331-0.92c-0.153-3.321-3.144-4.036-4.703-2.949c-0.616,0.399-0.581,0.16-0.245-0.255
		c2.316-2.849,0.914-6.518-2.214-6.588c-0.001,0,0,0,0,0H10.335z"/>
	<path id="path15-9-1-0-1" d="M2.456,44.521l0.128-1.623c0.405-5.015,1.481-6.706,7.585-11.941
		c2.963-2.537,3.935-3.789,4.071-5.242c0.388-3.426-2.64-4.495-4.612-4.511c-2.556-0.023-5.447,1.534-4.067,5.153l-2.867,0.859
		c-0.577-3.376,0.017-6.543,2.7-7.949c3.583-1.832,8.179-1.114,10.499,1.773c1.56,1.938,1.916,4.618,1.079,6.716
		c-2.443,5.359-10.734,7.717-11.419,13.918h9.163v-3.452h2.7v6.355L2.456,44.521L2.456,44.521z"/>
	<path id="path15-5-7-4-9-4" d="M168.177,218.585l-0.129,1.623
		c-0.404,5.014-1.48,6.705-7.584,11.941c-2.963,2.537-3.936,3.789-4.07,5.242c-0.389,3.426,2.639,4.494,4.611,4.51
		c2.557,0.023,5.447-1.533,4.066-5.152l2.869-0.859c0.576,3.375-0.018,6.543-2.701,7.949c-3.584,1.832-8.178,1.113-10.498-1.773
		c-1.561-1.938-1.916-4.617-1.08-6.717c2.443-5.357,10.734-7.717,11.42-13.918h-9.164v3.453h-2.701v-6.355L168.177,218.585
		L168.177,218.585z"/>
</g>
</svg>
