<?xml version="1.0" encoding="utf-8"?>
<!-- Generator: Adobe Illustrator 16.0.0, SVG Export Plug-In . SVG Version: 6.00 Build 0)  -->
<!DOCTYPE svg PUBLIC "-//W3C//DTD SVG 1.1//EN" "http://www.w3.org/Graphics/SVG/1.1/DTD/svg11.dtd">
<svg version="1.1" id="Layer_1" xmlns="http://www.w3.org/2000/svg" xmlns:xlink="http://www.w3.org/1999/xlink" x="0px" y="0px"
	 width="181px" height="252px" viewBox="0 0 181 252" enable-background="new 0 0 181 252" xml:space="preserve">
<g id="g5526" transform="matrix(0.99999718,0,0,1.000002,-2.9818333,-5.5506344)">
	<path id="rect6355-6-85-3-6-8-7" fill="#FFFFFF" stroke="#000000" stroke-width="0.9967" d="M13.093,7.225h160.777
		c4.697,0,8.504,3.807,8.504,8.504v231.644c0,4.695-3.807,8.504-8.504,8.504H13.093c-4.697,0-8.504-3.809-8.504-8.504V15.729
		C4.589,11.032,8.396,7.225,13.093,7.225z"/>
	<path id="path147-0-8-1-6-13-2-22-1-5" d="M134.706,33.628
		c-7.819,0.17-11.326,8.974-5.534,15.811c0.84,0.998,0.927,1.57-0.612,0.612c-3.898-2.607-11.375-0.894-11.758,7.077
		c-0.473,9.822,13.25,12.651,15.827,2.208c0.136-1.102,1.031-1.076,0.815,0.487c-0.235,4.245-1.561,8.213-3.383,12.082
		c3.071,0,6.504,0,9.296,0c-1.822-3.869-3.147-7.837-3.383-12.082c-0.216-1.563,0.68-1.589,0.815-0.487
		c2.577,10.443,16.3,7.614,15.827-2.208c-0.383-7.971-7.859-9.685-11.759-7.077c-1.538,0.958-1.451,0.386-0.611-0.612
		c5.791-6.837,2.285-15.641-5.534-15.811C134.713,33.628,134.713,33.628,134.706,33.628L134.706,33.628z"/>

		<path id="path147-0-8-1-6-75-2-83-21-1-8" d="
		M52.25,33.628c-7.819,0.17-11.326,8.974-5.534,15.811c0.84,0.998,0.926,1.57-0.612,0.612c-3.899-2.607-11.376-0.894-11.759,7.077
		c-0.473,9.822,13.251,12.651,15.827,2.208c0.137-1.102,1.032-1.076,0.815,0.487c-0.234,4.245-1.561,8.213-3.383,12.082
		c3.071,0,6.504,0,9.297,0c-1.822-3.869-3.148-7.837-3.383-12.082c-0.217-1.563,0.68-1.589,0.815-0.487
		c2.576,10.443,16.3,7.614,15.827-2.208c-0.383-7.971-7.859-9.685-11.759-7.077c-1.538,0.958-1.451,0.386-0.611-0.612
		c5.791-6.837,2.284-15.641-5.535-15.811c0,0,0,0-0.008,0H52.25z"/>
	<path id="path147-0-8-1-6-7-5-5-7-3-5-5" d="
		M134.706,230.135c-7.819-0.17-11.326-8.973-5.534-15.811c0.84-0.996,0.927-1.568-0.612-0.611
		c-3.898,2.607-11.375,0.895-11.758-7.078c-0.473-9.82,13.25-12.65,15.827-2.207c0.136,1.102,1.031,1.076,0.815-0.488
		c-0.235-4.244-1.561-8.213-3.383-12.082c3.071,0,6.504,0,9.296,0c-1.822,3.869-3.147,7.838-3.383,12.082
		c-0.216,1.564,0.68,1.59,0.815,0.488c2.577-10.443,16.3-7.613,15.827,2.207c-0.383,7.973-7.859,9.686-11.759,7.078
		c-1.538-0.957-1.451-0.385-0.611,0.611c5.791,6.838,2.285,15.641-5.534,15.811C134.713,230.135,134.713,230.135,134.706,230.135
		L134.706,230.135z"/>

		<path id="path147-0-8-1-6-75-6-1-2-7-9-3" d="
		M52.25,230.135c-7.819-0.17-11.326-8.973-5.534-15.811c0.84-0.996,0.926-1.568-0.612-0.611c-3.899,2.607-11.376,0.895-11.759-7.078
		c-0.473-9.82,13.251-12.65,15.827-2.207c0.137,1.102,1.032,1.076,0.815-0.488c-0.234-4.244-1.561-8.213-3.383-12.082
		c3.071,0,6.504,0,9.297,0c-1.822,3.869-3.148,7.838-3.383,12.082c-0.217,1.564,0.68,1.59,0.815,0.488
		c2.576-10.443,16.3-7.613,15.827,2.207c-0.383,7.973-7.859,9.686-11.759,7.078c-1.538-0.957-1.451-0.385-0.611,0.611
		c5.791,6.838,2.284,15.641-5.535,15.811c0,0,0,0-0.008,0H52.25z"/>
	<path id="path147-0-8-1-6-2-00-7-1-1-4" d="M93.479,60
		c-7.819,0.17-11.326,8.974-5.535,15.811c0.84,0.997,0.927,1.569-0.611,0.611c-3.899-2.607-11.376-0.893-11.759,7.078
		c-0.473,9.821,13.251,12.651,15.827,2.208c0.136-1.103,1.031-1.077,0.815,0.487c-0.234,4.245-1.561,8.213-3.383,12.082
		c3.071,0,6.504,0,9.297,0c-1.822-3.869-3.148-7.837-3.384-12.082c-0.216-1.564,0.68-1.59,0.815-0.487
		c2.577,10.443,16.301,7.613,15.827-2.208c-0.383-7.971-7.858-9.686-11.758-7.078c-1.538,0.958-1.452,0.386-0.612-0.611
		c5.791-6.837,2.285-15.641-5.534-15.811c0,0,0,0-0.008,0H93.479z"/>
	<path id="path147-0-8-1-6-2-0-8-6-8-1-8" d="
		M93.479,203.764c-7.819-0.17-11.326-8.975-5.535-15.811c0.84-0.998,0.927-1.57-0.611-0.611c-3.899,2.607-11.376,0.893-11.759-7.078
		c-0.473-9.822,13.251-12.65,15.827-2.207c0.136,1.102,1.032,1.076,0.815-0.488c-0.234-4.244-1.561-8.213-3.383-12.082
		c3.071,0,6.504,0,9.296,0c-1.821,3.869-3.147,7.838-3.383,12.082c-0.216,1.564,0.68,1.59,0.815,0.488
		c2.577-10.443,16.301-7.615,15.827,2.207c-0.383,7.971-7.858,9.686-11.758,7.078c-1.538-0.959-1.452-0.387-0.612,0.611
		c5.791,6.838,2.285,15.641-5.534,15.811c0,0,0,0-0.008,0H93.479z"/>
	<path id="path147-6-9-8-7-0-5-6-83-3-7" d="
		M168.664,216.025c3.128-0.07,4.53-3.738,2.214-6.588c-0.336-0.416-0.371-0.654,0.244-0.254c1.56,1.086,4.551,0.371,4.703-2.949
		c0.189-4.094-5.3-5.271-6.33-0.92c-0.055,0.459-0.413,0.447-0.326-0.203c0.094-1.77,0.624-3.422,1.353-5.035
		c-1.239,0-2.479,0-3.718,0c0.729,1.613,1.259,3.266,1.354,5.035c0.086,0.65-0.272,0.662-0.326,0.203
		c-1.031-4.352-6.521-3.174-6.331,0.92c0.153,3.32,3.144,4.035,4.703,2.949c0.615-0.4,0.581-0.162,0.245,0.254
		c-2.317,2.85-0.914,6.518,2.213,6.588c0.001,0,0,0,0,0H168.664z"/>

		<path id="path147-0-8-1-6-75-2-9-77-44-0-7" d="
		M52.25,86.371c-7.819,0.17-11.326,8.974-5.534,15.811c0.84,0.998,0.926,1.57-0.612,0.612c-3.899-2.607-11.376-0.894-11.759,7.077
		c-0.473,9.822,13.251,12.651,15.827,2.208c0.137-1.102,1.032-1.077,0.815,0.487c-0.234,4.245-1.561,8.213-3.383,12.082
		c3.071,0,6.504,0,9.297,0c-1.822-3.869-3.148-7.837-3.383-12.082c-0.217-1.564,0.68-1.589,0.815-0.487
		c2.576,10.443,16.3,7.614,15.827-2.208c-0.383-7.971-7.859-9.685-11.759-7.077c-1.538,0.958-1.451,0.386-0.611-0.612
		c5.791-6.837,2.284-15.641-5.535-15.811c0,0,0,0-0.008,0H52.25z"/>

		<path id="path147-0-8-1-6-75-2-8-0-3-9-3" d="
		M52.25,177.392c-7.819-0.17-11.326-8.975-5.534-15.811c0.84-0.998,0.926-1.57-0.612-0.611c-3.899,2.607-11.376,0.893-11.759-7.078
		c-0.473-9.822,13.251-12.652,15.827-2.209c0.137,1.104,1.032,1.078,0.815-0.486c-0.234-4.246-1.561-8.213-3.383-12.082
		c3.071,0,6.504,0,9.297,0c-1.822,3.869-3.148,7.836-3.383,12.082c-0.217,1.564,0.68,1.59,0.815,0.486
		c2.576-10.443,16.3-7.613,15.827,2.209c-0.383,7.971-7.859,9.686-11.759,7.078c-1.538-0.959-1.451-0.387-0.611,0.611
		c5.791,6.836,2.284,15.641-5.535,15.811c0,0,0,0-0.008,0H52.25z"/>

		<path id="path147-0-8-1-6-75-2-9-7-1-9-7-9" d="
		M134.706,86.371c-7.819,0.17-11.326,8.974-5.534,15.811c0.84,0.998,0.927,1.57-0.612,0.612c-3.898-2.607-11.375-0.894-11.758,7.077
		c-0.473,9.822,13.25,12.651,15.827,2.208c0.136-1.102,1.031-1.077,0.815,0.487c-0.235,4.245-1.561,8.213-3.383,12.082
		c3.071,0,6.504,0,9.296,0c-1.822-3.869-3.147-7.837-3.383-12.082c-0.216-1.564,0.68-1.589,0.815-0.487
		c2.577,10.443,16.3,7.614,15.827-2.208c-0.383-7.971-7.859-9.685-11.759-7.077c-1.538,0.958-1.451,0.386-0.611-0.612
		c5.791-6.837,2.285-15.641-5.534-15.811C134.713,86.371,134.713,86.371,134.706,86.371L134.706,86.371z"/>

		<path id="path147-0-8-1-6-75-2-8-5-1-52-2-8" d="
		M134.706,177.392c-7.819-0.17-11.326-8.975-5.534-15.811c0.84-0.998,0.927-1.57-0.612-0.611
		c-3.898,2.607-11.375,0.893-11.758-7.078c-0.473-9.822,13.25-12.652,15.827-2.209c0.136,1.104,1.031,1.078,0.815-0.486
		c-0.235-4.246-1.561-8.213-3.383-12.082c3.071,0,6.504,0,9.296,0c-1.822,3.869-3.147,7.836-3.383,12.082
		c-0.216,1.564,0.68,1.59,0.815,0.486c2.577-10.443,16.3-7.613,15.827,2.209c-0.383,7.971-7.859,9.686-11.759,7.078
		c-1.538-0.959-1.451-0.387-0.611,0.611c5.791,6.836,2.285,15.641-5.534,15.811C134.713,177.392,134.713,177.392,134.706,177.392
		L134.706,177.392z"/>
	<path id="path147-6-9-8-7-4-5-62-52-8-0" d="M18.3,47.076
		c-3.128,0.07-4.53,3.739-2.214,6.588c0.336,0.415,0.371,0.653-0.244,0.255c-1.56-1.087-4.551-0.372-4.704,2.949
		c-0.188,4.092,5.301,5.271,6.331,0.92c0.055-0.46,0.413-0.449,0.326,0.202c-0.094,1.77-0.624,3.423-1.353,5.034
		c1.239,0,2.479,0,3.718,0c-0.729-1.611-1.259-3.265-1.353-5.034c-0.087-0.651,0.271-0.662,0.326-0.202
		c1.03,4.352,6.52,3.172,6.33-0.92c-0.152-3.321-3.144-4.036-4.703-2.949c-0.615,0.398-0.58,0.16-0.244-0.255
		c2.316-2.849,0.914-6.518-2.214-6.588c-0.001,0,0,0,0,0H18.3z"/>
	<path id="path31-6-7-6" d="M10.322,44.575V18.26h2.547v26.314H10.322z"/>
	<path id="path33-9-3-6" d="M20.42,18.259c-2.452,0-4.423,2.243-4.423,5.029v16.259
		c0,2.785,1.972,5.027,4.423,5.027h1.432c2.452,0,4.428-2.242,4.428-5.027V23.288c0-2.786-1.977-5.029-4.428-5.029H20.42z
		 M21.161,20.747c1.448,0,2.612,1.112,2.612,2.503v16.474c0,1.392-1.164,2.514-2.612,2.514c-1.447,0-2.616-1.122-2.616-2.514V23.25
		C18.544,21.861,19.713,20.747,21.161,20.747L21.161,20.747z"/>
	<path id="path31-1-4-0-7" d="M176.641,218.525v26.316h-2.548v-26.316H176.641z"/>
	<path id="path33-5-7-4-0" d="M166.541,244.842c2.452,0,4.424-2.244,4.424-5.029v-16.258
		c0-2.787-1.972-5.029-4.424-5.029h-1.431c-2.453,0-4.428,2.242-4.428,5.029v16.258c0,2.785,1.976,5.029,4.428,5.029H166.541z
		 M165.801,242.353c-1.447,0-2.612-1.113-2.612-2.504v-16.473c0-1.391,1.165-2.514,2.612-2.514c1.448,0,2.616,1.123,2.616,2.514
		v16.473C168.417,241.24,167.249,242.353,165.801,242.353L165.801,242.353z"/>
</g>
</svg>
