<?xml version="1.0" encoding="utf-8"?>
<!-- Generator: Adobe Illustrator 16.0.0, SVG Export Plug-In . SVG Version: 6.00 Build 0)  -->
<!DOCTYPE svg PUBLIC "-//W3C//DTD SVG 1.1//EN" "http://www.w3.org/Graphics/SVG/1.1/DTD/svg11.dtd">
<svg version="1.1" id="Layer_1" xmlns="http://www.w3.org/2000/svg" xmlns:xlink="http://www.w3.org/1999/xlink" x="0px" y="0px"
	 width="181px" height="252px" viewBox="0 0 181 252" enable-background="new 0 0 181 252" xml:space="preserve">
<g id="g4922" transform="matrix(0.99999718,0,0,1.000002,-5.9698507,-5.5506344)">
	<path id="rect6355-6-85-3-64-3-5" fill="#FFFFFF" stroke="#000000" stroke-width="0.9967" d="M16.081,7.225h160.777
		c4.697,0,8.504,3.807,8.504,8.504v231.644c0,4.695-3.807,8.504-8.504,8.504H16.081c-4.697,0-8.504-3.809-8.504-8.504V15.729
		C7.577,11.032,11.384,7.225,16.081,7.225z"/>
	<path id="path147-6-9-8-7-0-5-6-9-6-3" d="
		M171.652,216.025c3.129-0.07,4.531-3.738,2.215-6.588c-0.336-0.416-0.371-0.654,0.244-0.254c1.56,1.086,4.551,0.371,4.703-2.949
		c0.189-4.094-5.3-5.271-6.33-0.92c-0.055,0.459-0.413,0.447-0.326-0.203c0.094-1.77,0.623-3.422,1.353-5.035
		c-1.239,0-2.479,0-3.718,0c0.729,1.613,1.259,3.266,1.353,5.035c0.087,0.65-0.271,0.662-0.326,0.203
		c-1.03-4.352-6.52-3.174-6.331,0.92c0.153,3.32,3.145,4.035,4.703,2.949c0.616-0.4,0.581-0.162,0.245,0.254
		c-2.316,2.85-0.913,6.518,2.214,6.588c0.001,0,0,0,0,0H171.652z"/>
	<path id="path147-6-9-8-7-4-5-62-08-0-2" d="
		M21.288,47.076c-3.128,0.07-4.53,3.739-2.214,6.588c0.336,0.415,0.371,0.653-0.244,0.255c-1.56-1.087-4.551-0.372-4.704,2.949
		c-0.188,4.092,5.301,5.271,6.331,0.92c0.055-0.46,0.413-0.449,0.326,0.202c-0.094,1.77-0.624,3.423-1.353,5.034
		c1.239,0,2.479,0,3.718,0c-0.729-1.611-1.259-3.265-1.353-5.034c-0.087-0.651,0.271-0.662,0.326-0.202
		c1.03,4.352,6.52,3.172,6.33-0.92c-0.152-3.321-3.144-4.036-4.703-2.949c-0.615,0.398-0.58,0.16-0.244-0.255
		c2.316-2.849,0.914-6.518-2.214-6.588l0,0H21.288z"/>
	<path id="path39-7-2-1" d="M21.924,41.676h2.644l-3.884-9.717l-2.968,4.104l0.021,5.612h2.084
		v2.895h-7.344v-2.895h2.419V20.78l-2.419,0.01v-2.53h7.451v2.616h-2.056L17.827,31.06l6.505-10.271h-2.296v-2.53h7.928v2.53h-2.092
		l-5.355,8.393l5.244,12.499h2.327l0.012,2.895h-8.151L21.924,41.676L21.924,41.676z"/>
	<path id="path39-3-8-1-1" d="M171.015,221.424h-2.645l3.885,9.717l2.967-4.104l-0.021-5.613
		h-2.084v-2.895h7.344v2.895h-2.419v20.896l2.419-0.01v2.531h-7.451v-2.615h2.056l0.045-10.186l-6.505,10.27h2.296v2.531h-7.928
		v-2.531h2.092l5.355-8.393l-5.244-12.498h-2.327l-0.012-2.895h8.151L171.015,221.424L171.015,221.424z"/>
	<g id="g5429-3-1-8" transform="matrix(1.0146544,0,0,1.0241582,3367.1174,-1472.4599)">
		<g id="layer1-6-4-4-1" >
			<g id="KC-7-1-9" transform="translate(-735.6996,-760.44497)">
				<g id="g4858-5-1-5-4" transform="translate(-1318.1979,540.76888)">
				</g>
				<g id="g3440-6-4-8" transform="matrix(0.15086704,-0.00311503,0.00311532,0.15083482,965.0168,1197.8387)">
					<g id="g3454-7-1-1" transform="translate(346.10401,401.33141)">

							<path id="path3450-5-0-3" fill="#E2CF00" d="
							M-23106.225,5941.305l-426.861-6.742l52.082,103.828c111.137-7.693,208.168,3.193,309.377,8.589L-23106.225,5941.305z
							 M-23405.176,6296.383c-0.459,0.591-17.865,4.707-16.18,8.668c43.201,97.714,61.758,176.878,78.586,276.735
							c9.699-7.55,25.125-6.922,25.125-6.922c-6.852-37.091,39.807-40.736,39.309-2.083c8.896,2.257,18.086,2.479,25.973,11.669
							c5.865-108.618,47.188-220.271,99.168-297.156c-57.867,21.531-143.248,76.417-143.248,76.417s-69.482-30.395-108.74-67.327
							L-23405.176,6296.383z M-23056.541,6315.164c-77.891,70.939-111.941,271.619-106.521,274.505
							c-98.396-5.319-130.48,102.608-46.336,162.91c-3.607,11.279-12.133,20.345-18.799,30.234
							c8.695,5.224,18.289,6.497,27.865,7.757c7.109,8.782,14.064,18.901,21.961,19.886c8.695-5.231,14.969-13.029,22.258-19.719
							c8.969-2.091,17.871-4.423,26.42-8.115c-7.283-10.619-15.955-21.381-15.982-31.18c75.293-50.776,66.572-122.125,0.426-159.926
							c22.4-119.39,53.053-195.318,87.916-249.04L-23056.541,6315.164z M-23584.551,6396.853
							c-9.803,4.533-15.309,14.42-22.51,22.116c-9.676,0.236-19.055,3.349-28.348,7.266c0,0,21.502,31.028,20.098,32.643
							c-72.748,45.524-73.58,114.243-5.6,160.919c9.662,98.021-76.635,251.043-80.738,246.458l-0.807,31.997
							c60.473-63.409,96.66-179.436,101.975-273.632c118.26-5.422,124.805-119.421,44.387-164.012
							c-6.137-5.86,21.104-31.824,21.104-31.824c-6.635-6.812-17.957-7.805-27.869-8.825
							C-23568.967,6412.347-23574.271,6404.771-23584.551,6396.853z M-23086.674,6486.124c15.934,37.488,77.869-6.509,88.047,13.476
							c8.357,11.381,27.051,12.917,26.426-5.985c-3.133-18.771-15.355-23.17-64.369-16.034c-18.596,2.708-26.234,4.383-25.945-4.057
							C-23075.014,6457.785-23086.441,6478.606-23086.674,6486.124z M-23031.135,6541.492
							c-13.697-0.295-17.129,53.197-17.264,69.276c-40.943,61.793,80.189,57.176,29.277-12.114
							c2.008-8.872-6.188-23.581-5.818-30.003C-23029.213,6568.019-23030.602,6543.804-23031.135,6541.492z M-23740.957,6607.62
							c-1.592,16.164,9.268,65.558,13.709,63.98c16.018-24.64,14.615-46.036,13.518-70.451
							C-23675.336,6530.868-23802.059,6557.426-23740.957,6607.62z M-23510.992,6623.799
							c-7.668,104.453-35.408,206.531-95.307,294.303c50.457-22.26,99.586-51.311,147.049-76.072l108.287,70.156
							c6.408-2.624,10.836-3.886,15.131-7.969c-49.018-74.963-62.463-181.685-82.5-278.378c-8.502,5.767-24.328,8.424-24.328,8.424
							c-1.811,33.354-37.055,43.448-43.311-0.237L-23510.992,6623.799z M-23777.408,6699.91
							c-11.717,0.504-21.115,29.276,11.938,34.257c23.32,3.794,53.51-7.113,68.258-1.473c16.707,27.907,33.053-12.328,10.098-19.414
							c-24.652-7.627-75.539,9.882-80.799-5.993C-23770.674,6701.844-23774.133,6699.775-23777.408,6699.91z M-23587.824,7156.974
							l-68.584,115.509l423.121,6.184l-52.998-112.621C-23285.316,7164.84-23471.521,7184.321-23587.824,7156.974z"/>

							<path id="path3446-6-3-4" fill="#D40000" d="
							M-23474.621,6049.706l8.07,15.383c99.428-14.282,177.52-15.217,279.623,6.704l9.689-15.648
							C-23270.465,6037.353-23365.756,6028.419-23474.621,6049.706z M-23385.881,6280.724l85.32,57.734
							c0,0,42.016-28.414,59.93-40.428l-10.395-15.962c-38.236,79.875-101.211,14.782-124.531-23.655
							C-23375.557,6258.413-23382.402,6272.97-23385.881,6280.724z M-23154.17,6312.591c5.99-0.009,9.264,2.372,12.148,8.532
							c3.264,6.958,4.592,5.292,2.582-3.348c-3.164-13.613,11.398-22.131,24.762-12.809c9.654,6.73,8.9,22.525-1.854,25.229
							c-8.689,2.185-8.953,4.449-1.363,4.233c13.627-0.383,16.869,17.853,6.998,26.531c-11.344,9.982-25.389,2.453-26.42-10.375
							c-0.518-3.633-1.283-3.599-2.525-1.576c-3.559,5.837-4.029,13.515-3.51,20.479l-19.85-12.889
							c7.234-3.397,11.641-5.449,16.93-10.713c0.689-0.688,1.205-1.195,1.205-1.499c0.004-0.55-2.242,0.137-6.346,0.482
							c-12.174,1.013-21.359-7.054-18.637-18.439C-23167.725,6316.743-23162.598,6312.601-23154.17,6312.591z M-23249.363,6626.345
							c22.391-24.575,49.887-40.076,87.59-37.047c6.961-104.758,45.248-197.25,105.215-280.051l-63.266-39.837l-26.02,14.976
							C-23206.857,6371.205-23249.596,6481.261-23249.363,6626.345z M-23724.432,6371.408c0,0-44.033,31.584-64.502,46.858
							l-5,289.154l5.561,2.024c0.389,0.627-0.396-4.294,2.219-6.478c2.137-1.789,5.508-3.806,7.5-4.485
							c5.615-1.907,5.939-5.617,0.803-8.947c-3.984-2.573-5.441-6.459-4.844-12.845c0.418-4.518,0.246-5.507-1.57-8.617
							c-2.27-3.853-2.359-8.684-0.268-13.647c0.973-2.307,0.896-2.928-0.689-6.108c-2.016-4.037-2.176-8.352-0.518-12.945
							c0.629-1.77,1.143-5.628,1.154-8.625c0.02-11.518,9.686-18.967,27.291-21.006c6.887-0.803,7.104-1.083,4.072-6.904
							c-17.107-32.847,23.186-48.944,26.062-43.682L-23724.432,6371.408z M-23177.688,6398.833
							c16.229,0.101,29.314,13.318,29.215,29.556c-0.105,16.232-13.346,29.316-29.578,29.221
							c-16.229-0.101-29.312-13.35-29.207-29.582C-23207.16,6411.796-23193.92,6398.731-23177.688,6398.833z M-23177.521,6404.083
							c-12.992-0.079-23.582,10.386-23.664,23.382c-0.078,13.002,10.383,23.617,23.375,23.696
							c12.994,0.079,23.609-10.411,23.693-23.407C-23154.041,6414.752-23164.521,6404.162-23177.521,6404.083z M-23177.062,6411.564
							c8.809,0.049,15.928,7.232,15.873,16.043c-0.055,8.818-7.258,15.933-16.072,15.877c-8.816-0.049-15.902-7.257-15.848-16.068
							C-23193.055,6418.599-23185.879,6411.509-23177.062,6411.564z M-23760.578,6411.588c1.199,0.006,2.465,0.215,3.744,0.646
							c7.279,2.483,9.703,8.981,5.609,15.01c-3.211,4.738-2.861,5.156,2.633,3.247c4.318-1.51,6.494-0.96,9.805,2.459
							c9.932,10.244-5.51,26.81-15.221,16.381c-4.812-5.163-5.309-3.682-2.084,5.084c1.045,2.841,2.779,7.257,2.779,7.257
							l-14.547-0.515c0,0,2.383-5.754,3.479-8.469c2.654-6.539,2.758-7.504-2.576-3.46c-12.027,9.107-25.121-7.176-14.014-17.415
							c2.258-2.083,5.818-2.105,10.719-0.057c3.58,1.49,4.035,0.513,1.395-2.942
							C-23774.59,6421.293-23768.941,6411.567-23760.578,6411.588z M-23459.555,6443.73c-6.717,38.625-2.676,93.107-3.402,122.159
							c15.713,3.333,15.67,14.085,17.818,27.494c7.719-2.515,24.25,9.155,26.566,8.21
							C-23416.014,6562.313-23434.094,6447.777-23459.555,6443.73z M-23198.596,6487.966c22.359,2.257,17.709,19.47,10.893,26.441
							c-3.238,3.581-2.686,5.229,0.828,3.203c9.58-5.523,17-1.236,19.846,8.672c4.855,16.929-17.545,30.961-27.092,15.662
							c-3.236-5.187-5.301-4.073-4.594,1.296c0.396,5.167,5.213,15.962,5.213,15.962l-21.934-2.425c0,0,6.945-11.033,8.188-14.017
							c2.57-6.193,1.318-7.881-3.48-2.948c-14.002,12.297-32.717-4.203-23.496-20.689c4.545-8.131,12.666-10.625,21.248-3.898
							c5.787,3.957,7.092,2.321,1.939-2.438C-23220.672,6503.896-23211.76,6486.638-23198.596,6487.966z M-23761.133,6490.085
							c0.254-0.007,0.496-0.002,0.752,0.009c1.881,0.07,3.84,0.636,5.787,1.782c5.395,3.184,6.77,9.274,3.236,14.474
							c-2.033,2.986-1.5,4.913,0.832,2.976c3.121-2.584,9.844-0.682,12.398,3.506c6.561,10.749-6.973,24.365-15.238,15.356
							c-3.65-3.982-5.076-4.169-4.695-1.595c1.113,4.833,4.107,13.101,4.107,13.101l-15.221-0.049c0,0,3.461-8.558,4.285-12.921
							c0.627-3.452-0.762-2.98-4.475,1.039c-3.602,3.908-6.818,4.253-11.252,1.184c-10.943-7.584-1.664-26.275,9.766-19.692
							c3.939,2.269,4.527,1.017,1.494-3.168C-23774.764,6498.623-23768.914,6490.304-23761.133,6490.085z M-22970.896,6499.666
							c-25.16,24.944-17.119,10.059-6.1,29.7c-0.227,12.797,7.035,22.967,0.699,43.034c-1.975,3.91-2.18,5.783-1.229,9.773
							c-2.266,22.275-20.127,21.622-37.568,24.719c2.887-0.13,26.592,45.917-19.465,48.531l-3.301,185.156l73.195-51.679
							l5.654-288.989L-22970.896,6499.666z M-23513.936,6586.235c-20.715,12.753-50.109,45.091-86.074,37.192
							c-6.76,115.408-46.504,204.051-102.152,279.786c18.438,11.431,38.709,25.1,57.627,33.987
							c16.305-7.995,25.443-11.283,41.553-23.986C-23535.916,6814.135-23513.039,6704.788-23513.936,6586.235z M-23344.658,6610.864
							c2.422,59.395,10.916,115.782,40.836,161.486l4.695-126.033c-10.945-2.855-19.803-10.157-22.594-30.38L-23344.658,6610.864z
							 M-23568.359,6641.263l20.605,0.906c0,0-4.873,9.23-7.002,14.396c-2.592,6.318-1.453,7.645,3.346,3.306
							c6.234-5.624,15.996-5.966,21.021-0.716c13.346,13.93-1.365,35.891-17.277,25.79c-6.814-4.313-7.998-2.934-2.643,3.094
							c10.445,10.103-0.969,24.103-13.418,23.909c-9.004-0.224-14.684-7.548-15.227-15.486c-0.242-4.986,2.367-9.939,6.742-12.289
							c4.566-2.435,1.367-4.157-3.592-1.617c-16.176,8.276-26.426-14.062-14.096-26.399c7.113-7.11,14.471-6.289,21.406,0.796
							c4.842,4.93,6.625,4.537,5.346-1.205C-23564.422,6649.272-23568.359,6641.263-23568.359,6641.263L-23568.359,6641.263z
							 M-23012.209,6670.108l14.77,0.331c-1.529,3.622-3.482,7.312-4.729,10.902c-1.357,3.904-0.438,4.429,3.557,0.706
							c10.318-6.627,21.043,0.435,18.607,11.22c-1.678,7.438-8.01,10.973-15.168,7.589c-6.311-3-4.289-1.732-0.758,2.703
							c4.205,5.271,2.982,11.301-2.801,15.19c-10.229,6.881-23.293-5.172-16.412-15.309c4.055-6.023,2.242-5.403-1.402-2.52
							c-5.449,3.82-13.459-1.909-13.459-9.634c-0.389-11.109,10.938-17.133,18.676-9.109c3.697,3.25,4.643,2.877,3.035-1.771
							C-23009.779,6677.036-23010.209,6673.437-23012.209,6670.108z M-23013.084,6750.855l15.486,0.143c0,0-0.242,1.184-2.719,5.621
							c-2.914,5.2-2.594,10.656,0.404,7.025c5.07-6.141,15.523-4.18,18.803,3.511c3.822,8.967-4.186,18.626-12.215,14.73
							c-5.217-2.536-5.584-2.025-2.193,3.103c3.303,4.999,1.674,11.009-3.936,14.434c-11.016,6.713-23.764-7.407-14.525-16.092
							c2.473-2.326,1.738-3.491-1.234-1.96c-12.143,6.273-20.658-10.124-10.082-19.413c4.504-3.953,7.877-3.605,15.037,1.575
							c2.23,1.601,2.697,0.005,1.154-3.997C-23011.744,6752.716-23013.084,6750.855-23013.084,6750.855z M-23587.975,6748.706
							c17.234,0.103,31.107,14.146,31,31.389s-14.148,31.139-31.383,31.036c-17.236-0.103-31.133-14.184-31.025-31.415
							C-23619.275,6762.473-23605.211,6748.603-23587.975,6748.706z M-23587.732,6754.273c-14.16-0.077-25.713,11.316-25.801,25.475
							c-0.09,14.159,11.328,25.723,25.482,25.8c14.16,0.09,25.713-11.329,25.801-25.487
							C-23562.16,6765.902-23573.578,6754.364-23587.732,6754.273z M-23587.643,6764.125c8.713,0.054,15.725,7.165,15.672,15.875
							c-0.053,8.723-7.15,15.758-15.865,15.704c-8.719-0.054-15.756-7.178-15.703-15.901
							C-23603.486,6771.093-23596.361,6764.071-23587.643,6764.125z M-23628.42,6838.928l17.826,9.18c0,0-8.664,6.75-12.123,10.256
							c-4.426,4.511-4.176,6.665,1.723,4.587c11.24-3.965,22.283,2.546,22.254,14.14c-0.039,15.45-18.469,22.516-27,10.632
							c-2.543-3.529-5.625-5.047-4.467-2.178c2.83,6.987,0.832,15.657-4.414,19.126c-4.203,2.783-11.803,3.461-15.582,1.411
							c-13.008-7.096-13.377-22.263-0.678-27.981c6.387-2.877,6.65-5.704,0.4-4.278c-13.012,2.956-20.238-12.871-10.68-23.446
							c10.15-11.22,26.254-8.522,27.697,8.424c0.25,3.014,2.35,0.883,3.355-3.711
							C-23628.934,6851.699-23628.42,6838.928-23628.42,6838.928z M-23461.064,6867.81c0,0-66.729,36.172-64.754,37.806
							c0.385,0.235,14.197,20.561,14.197,20.561c34.25-73.484,111.348-10.458,123.121,27.665c2.682,1.737,3.158,1.266,6.09,2.654
							c0.336-2.673,6.318-28.848,6.318-28.848L-23461.064,6867.81z M-23574.824,7139.403l-10.936,14.908
							c-3.705,1.491,163.793,33.423,296.971,7.246l-8.811-17.604c-108.547,25.308-278.941-2.65-277.223-4.562L-23574.824,7139.403z"
							/>

							<path id="path3444-9-5-7" fill="#131F67" d="
							M-23789.09,5916.677l-28.127,1362.22l852.891,17.613l28.127-1362.22L-23789.09,5916.677z M-23533.592,5932.486l428.242,7.194
							l-81.939,133.889c0.906-7.125-153.279-32.214-280.213-8.107L-23533.592,5932.486z M-23777.32,5930.626l232.867,4.809
							l75.615,142.237c0,0,4.428,8.878,1.484,18.009c-3.211,9.973-5.885,14.368-8.695,19.431
							c0.328-2.914-22.512-6.281-20.996,13.366c1.02,13.297,17.662,21.15,30.381,11.083c1.998-0.129,1.941,1.728,1.441,4.955
							c-1.312,7.584-9.883,31.543-15.451,33.027c-27.715-23.697-38.643,18.312-19.807,27.122c10.898,5.099,27.9,1.423,36.086-11.639
							c6.262-9.998,5.551-8.337,7.203,3.98c0.613,4.583,1.512,9.899,1.973,12.286c1.467,7.477-0.176,8.891-12.777,12.013
							c-10.156,3.716-20.422,5.672-30.863,7.707c-19.061,2.723-29.068,16.86-29.906,34.291c-0.18,3.771-0.082,5.518-0.916,6.625
							c-81.01,28.848-166.447,69.799-257.553,140.863L-23777.32,5930.626z M-23249.67,6276.065
							c-2.947-4.985-12.145-31.043-14.594-41.892c-5.896-52.446-5.939-114.57-12.389-163.412l9.797,1.302
							c0,0,3.406,14.18,6.588,52.347c1.58,18.922,2.83,58.211,4.096,76.292c1.926,26.863,13.15,69.981,20.434,80.96
							c11.873,17.902,36.703,6.991,28.91-14.132c-4.041-10.963-20.607-9.542-18.551,1.785c0.004,2.017,1.6-1.408,4.066-3.475
							c7.197-2.557,15.078,5.04,10.697,13.907c-5.439,11.324-20.738,5.786-25.555-8.727c-5.754-17.333,15.084-29.812,30.262-18.998
							c16.898,12.044,16.326,41.687,2.32,50.76C-23226.994,6310.777-23242.445,6293.517-23249.67,6276.065z M-23192.68,6299.058
							c-0.918-0.575,0.082-2.356,1.324-6.61c4.621-15.904,2.176-28.447-7.932-40.426c-5.629-6.672-7.773-7.867-4.727-8.992
							c6.449-2.389,20.381,8.171,24.055,18.349c3.635,10,4.379,20.269-1.246,31.368
							C-23185.018,6295.075-23190.959,6299.776-23192.68,6299.058z M-23174.947,6288.766c0.025-1.871,1.402-7.753,1.75-10.635
							c1.352-11.136-3.629-22.574-12.68-31.624c-7.596-7.598-8.293-8.377-0.957-8.352c18.92,0.075,30.354,30.907,21.312,45.792
							C-23167.816,6286.29-23174.771,6291.039-23174.947,6288.766z M-23158.717,6278.746c6.105-25.963-18.748-43.861-19.275-43.057
							c1.383-5.819,11.324-2.25,14.689,0.095c12.564,8.819,19.436,31.346,11.35,43.898c-0.881,1.543-1.945,2.419-3.34,3.231
							c-2.662,1.602-4.244,2.896-4.758,1.729C-23160.434,6283.755-23158.895,6279.988-23158.717,6278.746L-23158.717,6278.746z
							 M-23378.793,6189.573c2.688-2.53,3.48-2.59,8.504-0.57c15.74,6.318,28.646-4.807,25.145-16.847
							c-1.262-4.363-7.109-9.187-10.762-9.642c-5.961-0.742-6.148,2.408,0.242,4.949c7.859,3.121,8.482,11.542,1.436,15.183
							c-8.295,5.36-21.416-8.945-31.273-7.966c-4.723,1.312-7.824,5.642-5.25,11.068
							C-23388.732,6189.558-23381.713,6191.984-23378.793,6189.573z M-23396.352,6187.497c-5.449-2.667-7.543-2.665-6.373-8.646
							c0.777-3.935,6.957-30.416,9.848-40.641c8.658-30.62,1.473-47.837-21.1-55.188c-15.297-4.981-28.598-2.892-44.457,5.125
							l-2.639-8.76c66.107-15.849,178.24-9.714,177.832-9.059c2.029,8.898,2.695,17.769,3.379,26.64
							c0,0-20.816-10.753-31.715-14.411c-16.791-5.531-43.615-0.401-48.547,9.2c-2.791,5.449-1.477,9.143,10.006,3.267
							c18.789-9.625,56.58-1.215,69.732,9.671c3.029,2.509,2.865,3.037,2.871,5.907c-0.002,4.375,0.248,4.633-5.768,1.252
							c-31.561-16.961-58.848-15.635-68.695,5.58c-2.148-0.702-10.389-2.294-10.389-2.294l8.605,13.314l1.404,13.785
							c0,0,14.342,8.35,22.273,11.921c7.801,3.499,3.34-0.146-6.182-7.069c-6.988-5.082-1.312-6.551,3.328-4.565
							c9.578,2.411,23.594,5.507,40.094-4.501c5.129-3.112,16.652-0.086,16.801,1.377c0,0,1.295,12.05,2.307,37.162
							c0.482,11.882,1.623,27.413,2.32,33.793c2.109,19.274,2.807,20.382-7.117,10.954c-3.328-3.16-8.879-8.408-8.947-8.105
							c-1.406,5.938,13.293,16.717,16.695,20.378c5.16,5.562,9.105,19.608,6.973,20.392c-1.344,0.497-15.271-11.814-26.201-22.856
							c-4.1-4.137-10.211-9.7-10.395-9.514c-2.332,1.488,6.816,12.253,15.428,20.346c10.045,9.437,11.213,10.283,7.74,11.608
							c-6.404,2.434-12.059-0.881-27.227-13.958c-1.473-1.27-7.229-5.535-7.516-5.244c-1.441,1.848,12.514,15.62,15.717,16.849
							c5.963,2.272,7.57,8.109,2.791,10.292c-3.193,1.451-14.838-5.25-24.113-13.628c-1.66-1.501-6.307-4.094-6.627-3.766
							c-1.9,1.168,8.473,10.517,18.422,16.792c9.736,6.144,11.287,7.642,8.674,12.525c-2.453,5.038-23.852-7.181-34.43-19.531
							c-2.248-2.632-4.043-3.781-3.602-2.9c4.441,13.171,19.764,22.856,31.229,26.823c2.053,0.719,5.02,1.615,6.342,2.71
							c3.23,2.677,2.447,5.379-1.143,6.841c-12.385,3.196-31.488-12.111-45.047-28.025c-1.594-0.696-0.68,1.371-0.271,2.056
							c11.203,18.722,33.092,33.246,46.5,30.899c7.842-1.374,14.068,1.106,14.072,3.729c0.006,2.144-4.369,5.479-12.779,5.906
							c-19.023,0.96-48.279-20.442-65.096-47.277c-0.525-0.833-1.164-1.149-1.213-0.651c-0.586,5.602,9.926,19.587,18.045,27.631
							c24.119,23.901,47.213,32.286,65.627,19.479c10.393-7.719,20.633-24.848,5.52-30.957c-8.004-3.231-13.342,7.772-6.369,4.743
							c9.09-0.899,11.045,3.952,9.771,8.452c-2.469,7.712-10.186,8.792-16.373,5.396c-10.764-6.121-8.031-26.281,6.127-29.522
							c12.76-2.803,23.621,8.188,24.863,18.435c1.938,15.908-16.316,32.707-30.754,36.682
							c-49.248,13.555-86.072-55.259-86.264-56.805c-2.357-4.777-5.26-7.34-7.234-1.869c-2.168,7.939-13.701,31.11-19.609,30.843
							c2.014-8.214,10.047-21.931,8.416-34.121c-3.477,9.91-10.803,31.069-24.211,42.14c-3.482,3.038-13.582,6.496-6.518-1.367
							c8.57-11.537,19.805-27.331,17.857-42.417c-2.283,3.335-3.664,11.866-6.307,17.463c-6.617,14.011-20.789,30.516-29.977,33.044
							c-6.775,1.864-6.104-0.398,0.947-7.522c7.557-7.639,21.127-30.243,20.471-40.125c-0.287-4.361-14.367,37.393-39.436,48.387
							c-6.76,2.313-10.51-0.856-10.51-0.856c9.879-5.422,37.396-31.449,35.475-61.712c0,0-1.533,4.444-3.795,11.104
							c-9.74,28.645-29.771,47.196-45.115,48.453c-12.25,0.999-20.68-4.113-17.605-6.224c15.844,0.441,28.984-4.769,39.475-20.008
							c10.668-15.489,15.039-40.635,9.33-67.468c-5.16-24.198-5.949-45.879-7.449-69.072c17.242,6.292,34.633,10.602,51.674,4.342
							c-1.838,6.865-4.682,7.66-9.246,12.774c-3.311,3.744-2.227,4.67,10.59-3.991c3.727-2.521,5.096-4.573,5.744-3.864
							c1.055,1.147-0.77,8.215-4.734,22.293c-5.934,21.055-4.537,22.601,15.635,31.002c3.764,1.563,5.148,3.052,6.443,4.66
							c0.609,0.758,3.82,6.836,4.129,7.051c0.734,0.515,0.674-6.111,0.301-7.794c-1-4.471-3.334-7.857-5.412-9.221
							C-23386.949,6189.708-23392.693,6189.261-23396.352,6187.497L-23396.352,6187.497z M-23018.201,6471.525l0.658-21.973
							l21.037,15.587l-0.418,7.249L-23018.201,6471.525z M-23054.787,6475.549l7.609-406.541c0,0,16.613-10.549,24.912-15.776
							c4.789,16.226,4.037,50.783,1.799,66.137c-3.414,9.956-5.764,54.532-2.598,77.304c2.527,18.151,1.381,48.067-1.656,62.329
							c-1.182,5.577-0.9,31.817,0.613,56.124c1.148,18.572,0.361,35.421-2.076,45.024c-1.924,7.565-1.875,34.825-0.076,45.318
							c2.643,15.435,2.127,64.841,0.744,67.499C-23029.117,6476.882-23056.658,6476.869-23054.787,6475.549z M-23013.539,6050.789
							c0,0,16.271,11.248,24.117,16.859l-0.246,17.519l-23.527-16.062L-23013.539,6050.789z M-23260.453,6074.004l10.191,0.849
							c3.631,21.253,4.893,45.352,6.016,69.511c-0.252,37.21,3.529,76.534,11.729,102.432l-7.662,7.712
							c-12.17-29.729-12.219-76.238-14.412-107.759C-23255.111,6111.343-23260.164,6074.238-23260.453,6074.004L-23260.453,6074.004
							z M-23012.062,6075.423l21.881,15.484l-0.164,19.05l-22.057-15.299L-23012.062,6075.423z M-23245.758,6075.705l8.945,1.165
							c2.205,25.187,6.035,42.328,7.053,70.05c1.32,35.852,6.918,65.382,10.197,93.436l-6.754,2.092
							c-4.539,1.973-11.305-31.235-13.236-98.303C-23240.143,6123.84-23243.102,6100.964-23245.758,6075.705z M-23232.219,6076.933
							l10.666,2.136c3.418,63.724,9.664,123.624,16.795,158.028l-9.322,0.421c-10.533-49.172-10.115-105.806-18.133-160.584
							H-23232.219z M-23216.803,6079.508l9.805,1.909c8.824,145.739,16.164,144.013,18.33,149.778l-10.732,4.096
							C-23210.047,6193.248-23211.158,6134.256-23216.803,6079.508L-23216.803,6079.508z M-23175.09,6223.333
							c-1.785,4.869-5.762,4.332-10.127,4.747c-4.596-13.471-7.117-29.473-8.836-45.117c-3.781-34.373-4.736-66.545-8.713-100.473
							l11.709,1.449C-23191.445,6084.185-23185.191,6203.414-23175.09,6223.333z M-23424.92,6090.236
							c15.449,1.071,28.135,8.275,29.162,18.467c0.227,2.287-1.561,1.144-3.619-0.504c-13.092-10.474-28.164-13.965-46.576-7.764
							c-4.016,1.352-7.32,3.541-9.1,3.194c-1.572-1.057-2.02-3.544-0.752-5.56
							C-23451.398,6091.03-23432.57,6089.712-23424.92,6090.236z M-23461.211,6109.906c0.002,16.031-4.078,24.785-12.564,28.314
							c-10.238,4.258-23.049-5.578-16.51-16.158c4.951-7.996,13.113-5.387,14.506,3.151l13.48-28.441
							C-23462.299,6096.772-23461.16,6105.893-23461.211,6109.906z M-22990.301,6117.058l-0.482,16.515l-23.457-16.396l1.916-15.847
							L-22990.301,6117.058z M-23412.248,6106.188c11.625,4.887,15.807,10.65,16.188,13.18c-0.715,1.863-1.855,0.556-10.318-4.24
							c-13.014-8.354-30.164-10.029-45.465-0.079c-3.777,0.668-4.123-1.476-0.27-5.455
							C-23440.424,6100.828-23424.537,6101.029-23412.248,6106.188z M-23323.184,6104.937c10.318-0.109,22.592,2.761,32.896,8.202
							c4.557,2.408,8.658,3.934,11.602,6.65c2.371,1.301,2.449,6.751,0.682,7.126c-1.574,0.188-4.111-1.09-7.895-3.849
							c-24.41-16.58-42.25-14.97-56.756-5.376c-0.809,0.533-3.275,1.045-4.25,0.949c-2.719-0.258-2.836-1.379-1.67-2.835
							C-23341.801,6108.459-23331.83,6105.055-23323.184,6104.937L-23323.184,6104.937z M-23014.287,6122.884l23.492,17.156
							l-0.344,16.385l-24.984-18.147L-23014.287,6122.884z M-23444.738,6120.658l3.475,0.173
							c7.711,19.832,18.098,9.907,22.488,2.121l4.227,0.776C-23421.73,6149.928-23448.453,6135.589-23444.738,6120.658z
							 M-23450.723,6123.158c3.932,0.556,3.699,5.007,4.869,8.281c2.605,7.305-7.727,0.953-9.475-0.847
							C-23458.297,6127.332-23453.904,6123.421-23450.723,6123.158z M-23332.709,6124.824c9.949,15.852,16.07,6.717,22.072,0.026
							l2.773,0.955c-0.971,11.207-20.119,22.792-28.602-0.78L-23332.709,6124.824z M-23301.143,6127.246
							c1.102,0.042,3.293,0.877,5.303,1.741c5.572,2.384,5.244,4.047-1.037,6.686c-10.045,4.224-13.52,4.728-10.406-1.466
							C-23305.516,6131.378-23304.303,6127.61-23301.143,6127.246z M-23340.244,6128.828c2.469,1.891,4.072,3.966,4.291,7.283
							c0.154,2.342-7.562-0.51-7.467-4.231C-23343.129,6129.514-23341.807,6127.626-23340.244,6128.828z M-23409.145,6128.296
							c5.076,1.995,4.412,4.415,0.809,6.547c-6.463,3.432-9.184,2.674-4.941-2.839
							C-23411.318,6129.459-23410.879,6128.311-23409.145,6128.296z M-23016.338,6144.652l25.445,18.681l-0.574,16.665
							l-25.432-18.119C-23017.949,6154.714-23016.721,6149.935-23016.338,6144.652z M-23463.029,6161.232
							c1.223,0.057,1.625,4.111,1.789,10.038c0.275,9.849-10.02,23.341-20.242,27.853c-12.305,5.429-25.193-2.809-22.762-14.574
							c2.234-10.846,17.707-10.975,18.086-0.91c-1.561,2.617,0.506,4.872,1.371,4.662c4-0.986,13.549-9.234,17.564-18.596
							c1.555-3.647,2.537-7.413,3.621-8.25C-23463.395,6161.294-23463.201,6161.222-23463.029,6161.232z M-23017.502,6167.36
							l25.412,19.357l-0.227,16.558l-25.221-18.126c-0.855-7.401-0.307-12.656,0.041-17.788L-23017.502,6167.36z
							 M-23331.074,6187.113c-2.02,3.239-0.539,9.143,3.562,4.227c10.525-11.756,25.1,3.527,16.945,12.873
							c-7.41,8.489-16.248,5.524-34.885-2.036c-13.57-5.508-15.77-3.771-19.221-0.068c-2.838,3.051-1.559,9.336,2.039,9.335
							c11.045,2.75,20.598,5.4,32.025,8.026c24.156,5.474,39.602-25.474,17.672-37.419
							C-23318.178,6179.193-23329.225,6182.537-23331.074,6187.113z M-23438.229,6188.504c-9.637,8.291-2.338,30.75,11.555,33.029
							c2.906,0.477,7.264,0.447,12.234-0.879c9.803-2.611,20.66-8.158,21.17-11.504c2.316-15.225-20.686-2.008-23.732-0.263
							c-7.252,4.206-14.822,3.487-18.535-1.761c-8.369-11.824,7.34-24.863,16.412-10.427c2.285,3.644,1.582-2.464-0.914-6.657
							C-23423.555,6184.129-23432.967,6184.313-23438.229,6188.504z M-23016.309,6192.406l23.896,17.644l-0.471,15.94
							l-23.154-17.439L-23016.309,6192.406z M-23014.975,6215.786l22.623,16.992l0.053,16.577l-23.771-16.365
							C-23015.475,6227.035-23015.25,6221.432-23014.975,6215.786z M-23143.918,6222.644c20.182,0.746,30.955,30.819,20.055,43.016
							c-3.244,3.625-5.791,4.565-7.203,3.158c-0.301-0.303,0.279-3.629,0.561-7.397c0.906-12.011-1.48-20.298-10.092-29.617
							C-23147.051,6224.817-23149.506,6222.642-23143.918,6222.644z M-23392.635,6222.261c-3.848,1.286-7.936,3.952-11.045,3.211
							c-3.074-0.733-4.578,0.759-5.84,3.154c-4.814,9.162-3.441,12.187,5.824,7.118c4.4-2.4,5.9-1.478,17.492,0.962
							c8.283,1.739,13.943,1.698,21.297-0.047c9.141-2.169,14.572-2.247,19.117,0.37c4.553,2.61,7.625,6.144,7.805,3.322
							c-0.449-3.315-3.156-11.83-3.762-14.649c-0.291-1.359-2.58-0.218-4.719-0.104c-7.555,0.388-16.406-6.578-22.303-3.116
							c-4.721,2.779-5.355,3.518-11.674-0.367C-23385.146,6219.223-23388.479,6220.88-23392.635,6222.261z M-23149.486,6229.362
							c13.43,11.701,16.729,21.902,15.23,30.19c-0.801,6.034-1.393,12.703-7.391,16.221c-1.107,0.496-2.74,0.784-4.256,0.98
							c4.951-17.086-0.15-32.579-19.141-49.388C-23159.361,6224.695-23153.646,6225.749-23149.486,6229.362z M-23457.854,6222.962
							c0.605,0.012,1.271,0.127,1.943,0.362c2.363,0.833,2.605,7.046,0.695,8.953c-1.908,1.908-3.379,0.272-5.445-4.708
							C-23462.213,6224.851-23460.488,6222.92-23457.854,6222.962z M-23470.58,6227.536c4.994,0.002,6.789,4.609,7.574,8.273
							c0.662,3.118-0.447,12.369-3.033,9.079c-0.592-1.972-3.176-8.366-5.311-10.054
							C-23476.107,6231.069-23475.551,6227.534-23470.58,6227.536z M-23484.73,6231.852c0.734-0.01,1.664,0.104,2.795,0.317
							c7.766,1.462,13.479,13.996,11.521,20.992c-4.275,7.491-5.701,2.354-6.918-4.542c-1.006-2.866-4.107-7.393-6.018-9.733
							C-23487.307,6234.018-23487.895,6231.875-23484.73,6231.852z M-23016.094,6237.92l23.375,17.5l-0.344,18.206l-24.486-17.208
							C-23016.861,6250.061-23016.455,6243.963-23016.094,6237.92z M-23500.221,6235.306c11.623,0.038,21.262,13.98,17.332,26.934
							c-4.826,13.492-27.385,10.124-23.355-3.346c1.164-3.876,5.381-6.64,9.303-4.119c5.66,3.644,5.146-2.106,1.549-4.216
							c-5.555-3.256-13.322-1.514-15.176,4.807c-6.457,22.043,21.865,30.188,37.846,7.609c5.836-8.249,12.193-17.082,15.678-20.828
							c3.125-3.368,3.775-2.995,3.186,1.418c-2.402,20.553-17.287,45.993-44.188,44.028c-26.113-3.023-33.721-30.958-13.602-47.883
							C-23507.898,6236.993-23504.252,6235.292-23500.221,6235.306z M-23361.586,6239.294c-9.674,4.44-18.383,6.011-27.723,1.716
							c-6.908-3.177-6.867,0.117-3.895,2.884c8.602,7.631,24.588,4.592,31.498,0.537
							C-23359.465,6243.112-23358.656,6239.184-23361.586,6239.294z M-22993.152,6279.833l-0.266,16.557l-26.121-18.291
							c-0.34-3.971,0.23-9.983,1.232-16.183L-22993.152,6279.833z M-23018.799,6284.834l24.885,17.133l0.324,16.424l-24.193-15.704
							L-23018.799,6284.834z M-23017.514,6307.891l23.748,17.161l-0.02,17.921l-23.545-16.202L-23017.514,6307.891z
							 M-23605.486,6314.586l-15.67,44.257l9.643,0.781l6.281,11.888l6.943-11.905l10.176-0.561L-23605.486,6314.586z
							 M-23017.023,6332.688l22.895,16.441l0.008,16.55l-23.777-17.18L-23017.023,6332.688z M-23018.381,6352.927l23.451,17.686
							l0.107,17.589l-26.607-18.541L-23018.381,6352.927z M-23551.252,6351.873l-15.588,47.4l8.256-0.948l7.445,12.923l8.018-11.302
							l7.369,0.569L-23551.252,6351.873z M-23661.236,6353.148l-14.887,47.137l9.324,0.154l7.621,12.125l7.145-11.409l10.572-0.06
							L-23661.236,6353.148z M-23021.945,6375.087l27.539,20.179l-0.156,18.665l-26.707-18.701L-23021.945,6375.087z
							 M-22995.234,6419.985l-0.025,16.347l-23.166-17.218l-2.176-18.201L-22995.234,6419.985z M-23494.061,6412.497l-18.066,47.842
							l11.451,0.344l6.699,11.713l5.793-11.512l9.201,0.278L-23494.061,6412.497z M-23017.041,6427.152l21.5,15.401l-0.514,16.78
							l-21.18-14.826L-23017.041,6427.152z M-23434.438,6613.634l-12.176-12.203c-0.133-0.982,10.281-5.762,16.566-2.452
							c8.299,4.369,12.299,19.551,2.742,27.306c-7.598,6.177-18.898,0.684-19.105-0.066L-23434.438,6613.634z M-23445.088,6593.707
							c0.598-18.447-9.018-23.387-16.975-27.287c0,0,1.068-116.954,1.32-120.444c-0.006,0.512-1.805-12.706-2.02-13.488l0,0
							c0,0.013-1.922-0.552-1.914-0.533c0.086,11.861-1.645,133.372-1.852,134.158c-15.072,1.421-19.479,11.514-21.127,25.16
							c-11.715-1.127-19.486,5.78-19.746,6.944c-4.207-6.036-0.801-14.733-4.09-21.016c-11.145,36.142,8.621,58.309,26.301,56.651
							c2.111,34.964,40.426,42.064,39.992-0.3C-23398.635,6631.784-23413.508,6588.695-23445.088,6593.707L-23445.088,6593.707z
							 M-23660.559,6442.405l-17.811,46.868l11.832-1.108l4.119,8.802c19.244-16.266,28.26,9.655,19.098-12.609L-23660.559,6442.405
							z M-23022.268,6539.633c2.178-0.119,4.994,1.898,5.514,4.583c0.244,7.977-10.432,5.967-10.666,0.924
							C-23027.588,6541.559-23024.311,6539.736-23022.268,6539.633z M-23016.342,6591.612c4.701-3.696,12.01-1.402,12.006,4.313
							c0.004,5.063-5.832,6.612-10.32,3.675C-23018.133,6597.385-23018.266,6593.374-23016.342,6591.612z M-23015.975,6605.672
							c25.275,2.45,44.469-14.354,36.656-26.869c6.975-8.409,1.527-13.44,3.49-18.298c5.49-5.406,1.238-17.347-0.105-17.418
							c-0.775-15.928-5.35-18.058-12.055-26.673c-2.01-2.5,4.914-4.76,7.648-8.926c-8.137,1.975-12.383-2.197-16.656-7.734
							c-46.936,1.218-89.102,3.622-88.82,67.236c-7.305,26.849,3.627,51.122,36.506,44.374c7.293-6.253,2.766-15.627,1.979-20.106
							c-2.541-12.323,0.852-20.224,1.869-25.95c3.152-17.718,16.516-33.948,17.355-6.058c2.355-3.454,1.289-3.988,5.088-5.363
							c9.051-3.056,8.852,6.03,6.939,9.651c-1.227,1.865-3.008,1.664-4.828,1.417c-2.607-0.37-6.006-1.407-6.037-2.369
							c-0.768,2.88,4.58,8.376,3.951,11.075c-0.775,2.563-1.229,2.339,1.191,0.688c11.447-7.836,18.133,10.337,1.857,7.94
							C-23011.992,6586.746-23024.15,6599.068-23015.975,6605.672z M-23030.666,6508.294c8.904-0.271,11.031-0.31,10.52,4.352
							c1.512,8.647,3.584,12.679,14.834,12.014c11.342-1.238,14.939-1.872,3.416,4.73c-5.803,2.415-7.682,2.869-14.48,2.116
							c-6.861-0.761-6.324-1.445-10.287,0.818c-2.221,1.269-4.652,2.812-6.438,3.098c-2.656,0.425-7.326,1.347-7.326,1.347
							c-2.922,13.316-7.086,19.969-12.758,26.206c-8.021,8.748-12.025,10.22-2.402,9.755c3.547,0.295,1.748-1.525,3,12.92
							c0.438,5.06,1.26,10.931,1.973,12.912c2.357,6.623,2.627,9.897-6.883,10.162c-23.746,1.305-28.805-21.886-25.404-33.612
							c0.312-1.846,1.523-7.965,1.854-12.833c0.182-2.658-0.307-4.924-0.188-7.64c0.996-21.979,6.332-27.666,26.141-41.556
							C-23049.121,6508.886-23038.531,6508.22-23030.666,6508.294z M-23009.863,6509.905c10.947-0.001,21.41,5.48,16.066,8.784
							c-3.457,2.135-15.752,0.964-19.119-1.539C-23017.264,6513.918-23015.521,6509.909-23009.863,6509.905z M-23498.285,6518.499
							l-4.494,7.595c1.713,16.807,1.762,25.607-4.613,42.974l8.711,11.925l7.336-12.024l11.143,0.42L-23498.285,6518.499z
							 M-22986.498,6525.497c7.061,1.568,7.209,8.045,5.322,11.989c-4.143,8.676-30.744,12.369-30.744,12.369
							c-0.139-3.764,0.459-7.375-2.209-11.665c0,0,17.754-4.254,21.561-7.583
							C-22990.029,6528.382-22988.457,6525.532-22986.498,6525.497z M-22981.668,6545.535c2.568,0.084,3.902,1.971,4.518,5.776
							c0.283,2.035-0.518,3.75-2.207,5.935c-6.893,7.178-25.916,11.855-32.707,9.85c-0.473-0.642,0.854-8.32,1.416-11.742
							C-23001.555,6555.82-22986.064,6548.062-22981.668,6545.535L-22981.668,6545.535z M-23252.318,6585.013
							c-8.766-13.229-28.867-11.735-26.73-10.774c0.371-11.169-1.225-26.551-18.141-28.532
							c-17.07-1.648-26.322,20.723-20.035,30.411c-10.457-4.604-26.51,6.052-26.531,7.082c-1.348,0.017-14.104,31.737,22.459,34.136
							c3.018,15.158,8.574,22.568,20.141,29.015l-2.25,123.175l4.01,5.671l3.035-129.064c18.746-0.435,21.498-21.821,20.209-26.791
							c8.309,0.526,15.898-0.986,22.363-5.705l1.752,21.084c0,0,4.549-7.34,3.66-11.291
							c-5.652-121.123,40.801-251.066,99.98-334.693c3.148-3.5,4.166-7.734,5.691-7.734c14.158-7.256,23.115-12.153,23.115-12.153
							c22.861,11.579,63.553,39.224,63.553,39.224l-2.896,172.37c-0.602-1.707,77.025-7.058,75.822-4.99
							c0,0-6.736-2.794-6.744-7.333l6.312-403.362l-33.441-22.848c0,0-28.25,17.642-36.178,23.705l-4.049,237.465l-59.316-36.418
							c0,0,1.137-8.378,1.275-11.1c-0.287-32.423-15.973-43.621-46.449-34.635c-4.088,1.205-6.93,2.272-8.885,0.575
							c-11.979-37.545-15.688-135.62-15.676-135.62l88.445-143.028l144.986,2.198l-8.922,553.264l-0.74,290.083l-75.102,52.373
							l2.758-185.775c0,0-10.5-5.287-13.268-5.685c-1.045-0.11-2.438,2.2-0.576,3.439c2.682,1.788,9.32,4.353,9.32,4.353
							l-2.227,184.142c0,0-29.164,18.767-42.193,26.564c-24.318,12.672-48.242,24.721-73.293,35.215
							c-24.68,10.009-79.078,31.328-79.078,31.328c-4.367-15.553-49.873-52.627-102.414-28.173
							c-4.801,1.671-10.725,3.079-14.762,5.764c-19.887,3.206-26.861,24.264-30.283,44.802c-0.119,0.819,1.557,0.664,1.611,0.754
							c0.211,0.295,5.135-19.681,6.998-23.448c3.986-8.022,8.902-12.775,11.469-13.493c1.164-0.166,2.141,1.649,0.506,4.473
							c-3.254,5.623-6.055,17.639-6.926,23.07c-0.785,5.003-1.002,9.032-0.068,9.229c0.162,0.155,4.918-15.108,7.025-20.501
							c5.502-14.034,8.906-19.818,13.982-22.735c5.209-2.99,6.424-2.522,5.336,0.743c-7.961,14.767-11.35,25.988-13.176,41.855
							c-0.295,3.167,1.309,3.289,2.68-1.929c4.541-16.608,10.76-39.061,24.494-45.516c5.857-2.509,8.43-2.329,7.768-0.472
							c-16.607,20.114-21.125,42.753-21.086,50.087c0.014,2.44,1.012,1.98,3.199-3.272c5.9-20.044,14.379-37.026,24.201-45.231
							c3.797-3.184,8.338-3.988,12.129-4.377c11.469-1.179,11.764,3.062,1.695,8.658c-11.473,6.363-25.074,30.117-26.906,48.121
							c-0.627,6.22,1.566,6.948,3.293-1.335c7.463-35.715,38.682-58.776,63.082-47.286c10.975,5.17,12.842,12.074,3.262,8.817
							c-19.396-6.583-41.357,6.808-50.697,25.934c-8.445,17.286-8.463,26.465-3.264,49.962c3.432,21.666,10.412,49.41,7.488,70.515
							c-2.775,4.052-11.131-1.924-21.117-3.369c-6.016-1.25-13.387-1.693-19.744,0.591c-5.541,1.997-8.67,2.451-9.629-0.527
							c-0.305-0.955,4.357-5.511,6.443-8.047c3.338-4.053,1.49-4.749-3.188-0.369c-2.291,2.14-7.217,7.159-8.543,7.397
							c-2.912,0.521-2.961-2.742-0.455-10.997c8.867-32.095,6.686-32.684-7.242-39.508c-13.822-5.596-9.361-8.184-15.426-13.594
							c-4.418,3.31,5.291,19.112,16.564,22.758c9.227,2.972,8,7.701,3.668,20.381c-4.488,17.785-12.016,41.298-8.27,57.255
							c7.863,33.516,41.725,33.544,67.932,20.595l2.986,8.571c-22.1,8.419-137.797,13.616-176.648,8.338
							c-2.785-10.577-3.035-13.3-3.998-25.711c0,0,23.828,11.366,35.797,13.497c14.943,2.66,38.031,3.251,44.223-10.44
							c1.895-4.007,0.109-7.47-5.111-5.226c-9.604,4.113-25.916,6.962-39.029,5.882c-11.012-0.91-26.627-5.658-33.334-9.893
							c-3.186-2.013-5.838-5.861-3.207-10.585c2.248-0.459,5.145,2.078,6.873,3.012c19.676,10.445,30.545,12.629,43.596,9.042
							c9.9-2.716,23.369-13.058,20.16-16.133c-3.346,1.081-14.562,10.117-22.205,11.982c-15.729,3.834-32.279-2.879-48.316-13.743
							c-4.928-4.463-2.572-7.588,3.502-3.973c24.088,12.749,34.078,21.097,57.727,4.378c5.283-3.76,8.176-3.207,11.182-0.806
							c11.879,11.093,11.967,5.001,3.336-6.43c-1.963-2.607-3.713-6.222-4.84-10.063c-0.834-2.836-0.973-5.659-2.549-7.55
							c-2.684-3.216-7.6-4.848-13.197-7.454c-8.096-3.758-10.848-2.082-4.883,0.974c10.447,5.362,15.475,10.991,2.432,7.75
							c-11.789-5.579-31.715-3.006-43.111,4.559c-8.908,4.127-12.895,8.647-14.777-1.127c-3.943-20.399,0.879-47.875-4.236-83.445
							c-0.977-6.784-2.252-11.097-0.818-11.99c1.842-1.15,6.279,3.316,11.734,11.318c2.484,3.654,7.424,10.672,7.428,9.231
							c0.346-7.503-11.039-21.836-20.561-27.583c-5.229-3.155-8.535-17.32-2.541-14.099c4.627,2.371,28.514,24.257,32.986,31.986
							c2.074,3.583,3.939,1.358,1.754-2.846c-1.318-2.531-6.887-9.992-12.33-15.528c-9.652-9.833-10.803-9.402-8.869-11.335
							c3.818-3.828,11.736,1.368,25.754,14.591c3.564,4.701,8.324,8.984,7.779,6.672c1.533-3.571-12.451-19.247-20.848-23.542
							c-1.568-1.018-1.764-2.072-1.576-3.99c0.959-7.237,17.152,3.768,30.523,16.498c5.006,4.769,0.959-4.089-4.83-10.176
							c-4.551-4.785-11.918-10.766-16.959-12.867c-5-2.189-5.223-6.594-1.23-8.357c13.67-0.299,27.482,13.957,35.66,25.1
							c2.258,3.068,4.334,5.425,2.041-0.324c-7.432-17.349-23.422-27.364-34.598-29.554c-9.074-1.78-8.699-10.003-0.162-8.892
							c9.398,1.218,24.648,10.042,37.449,23.468c3.721,3.908,9.943,12.722,8.729,7.602c-0.002-1.391-3.908-6.921-8.43-12.249
							c-10.475-10.849-22.715-20.496-35.838-23.562c-6.131-1.871-24.492,1.277-24.535-1.897c-0.002-2.339,1.99-3.701,7.854-5.527
							c22.76-7.053,55.455,13.055,72.941,43.292c1.252,2.163,3.682,3.123,3.844,2.646c-8.232-24.584-34.928-47.274-56.447-51.511
							c-14.637-2.654-29.527,0.781-36.773,10.544c-8.156,10.97-5.363,25.947,6.561,24.992c6.254-0.453,5.836-4.001,5.717-4.118
							c-0.412-0.426-4.076,1.206-6.311,0.717c-8.104-1.773-6.951-16.466,4.93-14.767c13.662,1.951,15.148,23.589-0.248,27.823
							c-14.211,3.892-19.256-2.661-22.963-10.399c-5.432-11.327,1.02-29.273,11.143-36.005c28.33-18.81,63.316-1.828,82.885,17.819
							c9.68,9.721,16.658,21.181,20.941,33.482c1.102,2.855,3.602,2.616,2.52-0.327c-26.621-72.339-110.359-82.438-123.785-26.983
							c-19.652-32.267-37.393-34.858-64.889-21.519c-28.002,10.914-41.854,19.984-67.781,31.498l-57.57-32.456
							c-2.234-57.927,0.914-115.908,2.346-173.835c0.201-1.336-12.639,0.662-33.992,3.559
							c-56.834,10.129-51.35-20.101-58.715-21.783c-3.938-0.878-3.686,0.822-2.559-105.979c0.328-31.017,0.842-85.549,1.119-121.191
							c0.283-35.642,0.773-65.325,1.105-65.943c0.326-0.62,3.564-3.283,7.285-5.805c13.994-9.491,21.863-15.245,52.514-37.655
							c6.945-5.078,8.691-5.921,8.691-5.921c2.137,64.222-2.359,131.53-1.795,186.717l2.551,0.065l2.828-185.21
							c-5.176-1.472,120.547-71.613,189.105-93.79c1.285-0.416,4.438,1.065,4.438,1.065
							c38.082,48.698,141.188,36.319,150.674-21.809c16.299,35.89,89.705,106.501,125.617,23.961c0,0,11.896,24.167,22.494,25.966
							c23.834,3.666,26.559-0.052,79.682-24.482C-23210.5,6372.16-23245.654,6468.092-23252.318,6585.013L-23252.318,6585.013z
							 M-23283.809,6561.598c1.23,4.059,1.57,9.275,0.355,13.365c-1.604,3.185-3.891,3.093-3.891,3.093l-11.439-10.199
							l-11.613,10.33c0,0-6.824-7.164-2.797-16.823C-23305.625,6547.91-23288.986,6550.707-23283.809,6561.598z
							 M-22982.861,6566.208c7.471-0.313,3.436,8.182-7.709,13.768c-7,3.503-12.762,4.42-15.221,3.049
							c-1.275-4.06-0.045-7.708,0.836-9.326C-23000.199,6571.381-22987.186,6567.408-22982.861,6566.208L-22982.861,6566.208z
							 M-23464.521,6572.431c8.281-0.031,15.334,6.013,15.385,16.47c0.021,4.255-2.254,8.431-2.254,8.431l-13.613-10.478
							l-10.805,11.048c-1.812,0.588-8.117-7.614-3.492-16.312C-23475.93,6575.274-23470.188,6572.453-23464.521,6572.431z
							 M-23264.625,6581.357c11.521,5.517,13.207,21.83,1.76,27.864c-5.438,2.865-13.934,4.353-17.77-1.758l11.691-12.231
							l-12.902-11.323C-23282.344,6583.388-23271.662,6577.988-23264.625,6581.357z M-22985.246,6582.848
							c2.002,0.041,2.498,0.816,3.033,2.698c1.529,5.349-2.732,10.615-9.93,12.154c-6.65,1.43-6.035,2.214-9.051-3.765
							c-2.359-4.683-3.021-4.5,0.855-5.893C-22995.658,6586.634-22990.654,6584.974-22985.246,6582.848z M-23316.34,6583.994
							c0,0-8.432,8.221-12.121,11.653l12.162,13.223c0.566,1.586-14.502,8.042-22.146-2.322c-4.965-6.721-1.836-19.256,5.498-23.422
							C-23325.467,6578.862-23314.943,6582.746-23316.34,6583.994z M-23298.52,6582.896c7.336,0.044,13.234,6.02,13.191,13.358
							c-0.043,7.338-6.016,13.265-13.352,13.221c-7.334-0.05-13.258-6.045-13.215-13.384
							C-23311.852,6588.752-23305.855,6582.852-23298.52,6582.896z M-23480.527,6601.503l-12.17,12.23l12.598,14.282
							c0,0-10.23,1.458-13.838,0.7c-17.469-3.635-15.322-24.177-1.654-29.338
							C-23489.824,6597.492-23485.578,6598.25-23480.527,6601.503z M-23714.439,6600.908c0,0,1.795,26.477,3.75,35.545
							c-1.621,10.271-8.424,17.135-11.639,27.651c-1.697,4.668-7.83,10.876-8.854,4.217c-4.16-8.279,0.188-18.316-3.275-24.216
							c-2.629-5.554-1.092-8.607-2.186-14.345c-3.277-4.784-4.826-6.939-4.18-11.124c-0.328-18.69-5.066-15.083-13.395-13.726
							c-32.209,2.1-32.578,20.628-31.086,44.188c-5.021,21.946,3.504,16.9,3.146,20.863c-0.562,6.285,0.283,15.102,2.15,16.114
							c11.199,13.393,11.578,22.517,26.547,20.563c25.205,2.493,65.406-0.432,74.721-31.039
							C-23672.434,6632.287-23669.918,6591.08-23714.439,6600.908z M-23463.322,6601.839c7.08,0.045,12.785,5.821,12.74,12.903
							c-0.043,7.08-5.82,12.789-12.9,12.744s-12.785-5.814-12.742-12.906C-23476.186,6607.497-23470.41,6601.794-23463.322,6601.839
							z M-23703.439,6603.619c4.777,0.042,10.381,1.163,14.912,5.691c9.713,9.708,9.963,18.324,4.814,54.807
							c-1.451,10.274-5.256,18.806-10.137,22.46c-9.803,7.333-21.723,12.46-31.51,14.66c-5.16,1.158-9.625,1.091-13.105,0.994
							c-3.75-0.103-5.9-1.892-6.115-5.032c1.004-8.501-7.67-9.515-12.719-9.138c-8.979,0.181-9.916,1.097-4.229-3.122
							c6.492-4.822,21.217-4.582,23.957-1.629c5.865-5.632,11.865-6.178,19.211-6.886c-1.051-1.615-3.547-8.051-1.721-12.11
							c3.932-6.595,10.564-18.241,17.357-22.514c6.811-8.533,1.1-4.731-3.023-4.677c-2.348,0.04-2.135-0.727-2.484-2.314
							c-1.5-6.782-3.592-19.469-3.455-26.989C-23711.625,6604.189-23708.211,6603.578-23703.439,6603.619z M-23745.879,6612.108
							c2.541,2.354,2.441,5.575-0.33,7.908c-3.168,2.678-9.322,1.034-9.369-4.113
							C-23755.062,6610.705-23748.969,6609.364-23745.879,6612.108z M-23298.811,6639.661
							c-10.775,0.309-19.395-11.388-15.102-22.779c2.289-3.06,3.236-2.591,3.236-2.591l12.023,11.201l12.006-12.057
							C-23277.207,6625.314-23285.803,6639.057-23298.811,6639.661z M-23759,6612.318c-0.949,3.343,0.141,6.716,0.248,8.35
							c-2.16,1.472-11.297,3.939-16.219,6.24c-3.408,1.093-5.793-2.143-5.266-5.04c1.393-5.37,9.424-8.744,15.236-10.306
							C-23763.213,6611.168-23760.27,6611.065-23759,6612.318z M-23757.33,6627.84c3.285-0.324,2.176,6.784,0.869,10.411
							c-1.271,2.578-4.879,2.402-8.129,2.525c-5.732,0.21-13.088,6.67-16.172,5.545c-1.016-0.501-1.693-3.234-1.766-4.967
							C-23781.662,6631.852-23765.77,6628.677-23757.33,6627.84z M-23740.217,6638.119c-1.129,1.57-4.658,2.268-7.582,1.398
							c-4.787-1.414-5.383-8.342-1.113-10.631C-23741.4,6626.576-23737.062,6633.67-23740.217,6638.119z M-23264.373,6632.205
							l-6.736,9.811l-9.918-0.382l15.016,49.543l7.812-19.082c1.184-8.826,2.539-17.623,3.641-26.45L-23264.373,6632.205z
							 M-23475.543,6631.991l12.475,10.625l11.109-10.909c7.727,18.214-1.781,26.287-11.699,25.867
							C-23474.602,6657.107-23486.057,6646.49-23475.543,6631.991z M-23754.48,6644.904c4.033-0.675,2.088,10.158,1.52,10.449
							c-2.582,0.895-13.676,2.12-18.42,5.954c-10.082,7.567-14.219,2.728-9.436-6.491
							C-23776.348,6649.498-23760.248,6644.886-23754.48,6644.904z M-23741.865,6645.683c4.434-0.326,7.432,4.642,4.639,9.237
							c-3.736,3.337-10.119,0.702-9.994-4.113C-23747.178,6647.773-23744.629,6645.791-23741.865,6645.683z M-23748.957,6673.112
							c0.553,2.553-0.318,1.751-4.994,3.02c-2.572,0.705-6.633,2.328-10.871,4.365c-6.211,2.969-7.975,4.615-10.148,4.215
							c-1.727-0.415-3.713-1.214-4.213-2.982c-1.99-7.058,3.871-14.106,17.293-18.747c2.789-0.966,7.762-1.686,9.461-1.84
							C-23747.908,6661.249-23752.887,6668.1-23748.957,6673.112z M-23740.871,6662.709c6.443,0.044,7.473,8.613,2.627,10.017
							C-23749.586,6675.413-23748.363,6662.554-23740.871,6662.709z M-23749.459,6694.039c1.773,1.782,1.971,4.63-0.088,6.08
							c-3.756,1.756-18.008-0.106-18.02-4.114c0.002-2.643,4.791-3.441,9.23-3.438
							C-23753.895,6692.569-23750.879,6692.619-23749.459,6694.039z M-23104.715,6711.741l-12.098,15.491l14.979,39.87
							l15.414-47.575l-11.426,4.252L-23104.715,6711.741z M-23771.406,6738.608c0.215,121.835-6.014,400.884-6.014,400.884
							l34.166,24.272l37.023-25.47c1.443-87.841,2.344-148.435,3.672-229.767l52.855,30.475c0,0,1.592,2.397,1.115,13.387
							c-4.318,30.268,24.613,50.576,44.33,38.997c7.576-3.004,8.193-3.548,9.74-1.151c4.238,6.624,8.598,34.681,9.059,52.53
							c0.682,26.906,6.623,81.838,8.318,82.24l-90.041,144.929l-137.732-2.844l11.293-547.02
							C-23786.746,6728.519-23783.102,6734.043-23771.406,6738.608L-23771.406,6738.608z M-23266.27,6737.295l-6.734,9.836
							l-7.869-0.175l12.754,51.254l17.748-49.486l-9.184-1.34L-23266.27,6737.295z M-23710.342,7134.733
							c0,0-17.182,11.808-22.662,15.184c-2.865,1.016-4.248,1.189-4.867-1.554c-0.76-3.354,0.703-9.645,2.1-20.085
							c1.289-9.646,1.295-10.189-0.027-23.998c-1.381-14.429-1.572-15.027,0.184-33.994c1.955-21.162,2.674-41.731,1.254-54.505
							c-1.344-12.14-0.748-39.753,0.793-55.146c1.883-18.838,1.74-35.403-0.451-49.154c-3.902-24.495-4.457-32.914,0.514-51.195
							c1.857-6.84,2.787-10.475,2.668-21.995c-0.131-12.797-0.287-16.986-4.279-45.415c-2.305-16.37-2.455-18.611,0.545-44.367
							c0.605-5.197,0.85-8.681,2.867-10.296c2.361-1.885,26.539-2.79,26.539-2.79L-23710.342,7134.733z M-23765.709,6739.194
							l26.311,0.252c-2.199,8.198-2.787,14.457-3.113,20.405l-23.049-15.837L-23765.709,6739.194z M-23765.537,6749.729
							l22.816,15.58c-0.105,6.37-0.711,12.439,0.09,18.828l-23.127-16.041L-23765.537,6749.729z M-23765.994,6773.691l24.412,17.434
							c0.826,6.617,2.703,13.319,3.359,19.262l-27.678-19.575L-23765.994,6773.691z M-22965.627,6796.896l-8.768,487.345
							l-246.412-5.089l-74.998-151.663c0,0,1.076-13.797,3.152-20.796c2.51-8.47,3.174-10.315,6.453-10.651
							c8.674,4.73,18.574-1.108,21.703-7.694c3.848-8.101-3.352-20.652-14.742-23.568c-5.025-1.305-10.582,0.856-16.25,4.987
							c-3.295,2.638-4.021,2.926-4.617,0.562c-1.344-5.325,3.652-19.623,12.318-31.809c4.816-6.778,6.127-8.736,7.584-6.089
							c5.904,10.704,19.072,8.789,24.176,2.914c6.176-7.104,5.254-23.623-8.303-28.265c-26.529-9.107-39.346,17.444-39.014,17.388
							l-5.049-32.256c32.314-7.21,50.928-9.619,61.338-19.152c8.193-7.505,12.301-20.696,11.555-32.521
							c0,0,90.062-34.439,132.322-56.109C-23030.408,6847.13-22965.627,6796.896-22965.627,6796.896L-22965.627,6796.896z
							 M-23101.697,6797.601l-6.84,11.49l-9.375-0.181l17.945,49.452l15.533-50.922l-9.053,0.622L-23101.697,6797.601z
							 M-23765.334,6797.993l27.959,20.149c0.494,6.357,1.193,12.035,0.189,19.209l-29.447-20.37L-23765.334,6797.993z
							 M-23211.832,6803.405l-7.26,9.231l-8.119-1.027l14.951,48.922c5.137-13.94,9.949-32.92,15.035-46.887l-7.551,0.211
							L-23211.832,6803.405z M-23766.348,6822.968l28.951,20.043c-0.016,6.005,0.154,11.673-2.025,15.864l-27.328-18.341
							L-23766.348,6822.968z M-23157.537,6838.335l-7.406,13.565l-9.461-1.485l16.006,46.921l19.504-45.758l-11.498,0.382
							L-23157.537,6838.335z M-23766.758,6845.616l25.057,19.204c0.357,0.286-1.598,8.501-1.285,13.186l-23.898-15.425
							L-23766.758,6845.616z M-23766.553,6868.732l23.396,16.793c-0.076,6.181,0.225,12.003,1.092,17.293l-25.416-17.265
							L-23766.553,6868.732z M-23767.447,6892.281l27.029,20.092l1.131,15.727l-28.689-18.875L-23767.447,6892.281z
							 M-23541.754,6903.491c26.119,10.363,49.771,60.932,47.674,125.749c-1.459,44.993,10.811,109.512,10.576,108.761
							c0,0-7.66,0.866-9.787-0.873c-9.232-33.253-11.816-68.239-12.783-97.074c-0.785-24.039-1.684-47.637-3.094-53.166
							c-3.924-19.463-8.145-42.157-20.217-57.123c-9.412-11.308-20.367-13.468-27.191-1.13c-5.594,10.087,5.383,27.218,14.91,21.801
							c2.297-1.229,3.701-3.362,0.721-3.373c-9.799,1.251-16.074-12.394-9.764-18.699c11.119-11.124,29.633,14.532,20.514,28.265
							c-4.014,5.922-14.207,6.774-22.305,4.394c-17.928-9.132-22.025-30.66-15.676-44.664
							C-23563.33,6905.676-23553.053,6899.452-23541.754,6903.491L-23541.754,6903.491z M-23573.734,6909.267
							c2.135,0.145,0.594,4.058-1.51,10.172c-4.961,14.652,3.303,37.745,15.305,42.57c3.578,2.54,3.367,3.471,0.916,4.786
							c-7.992,4.272-22.053-9.331-25.527-24.246c-2.521-10.786-1.584-23.436,3.686-28.7c2.879-2.874,5.15-4.382,6.678-4.553
							C-23574.027,6909.273-23573.881,6909.263-23573.734,6909.267L-23573.734,6909.267z M-23768.176,6913.949l28.9,19.751
							c1.234,6.006,0.504,12.363-0.541,18.777l-28.898-21.041L-23768.176,6913.949z M-23591.406,6917.36
							c2.17-0.019,1.285,3.604,0.541,10.227c-1.713,15.364,2.826,26.647,13.5,36.173c4.504,4.013,5.734,5.265,3.715,7.283
							c-2.859,2.862-10.807-1.222-16.965-7.911c-11.287-12.27-14.639-35.034-5.484-43.075
							C-23594.092,6918.291-23592.549,6917.374-23591.406,6917.36L-23591.406,6917.36z M-23265.645,6926.755
							c12.521-0.222,22.986,4.85,23.838,20.178c1.234,22.43-19.885,34.245-34.176,21.079c-12.775-13.173,0.861-33.108,15.791-23.33
							c7.502,4.959-1.797,15.704-7.828,9.928c-2.727-2.61-3.979-1.056-2.068,1.93c5.773,9.007,17.646,1.869,16.973-5.984
							c-1.334-15.427-20.246-15.615-27.492-9.734c-9.914,8.039-18.748,20.02-25.334,28.733c-5.4,7.563-6.525,7.338-5.557-2.125
							C-23308.928,6942.398-23285.186,6927.11-23265.645,6926.755L-23265.645,6926.755z M-23606.625,6924.619
							c1.992-0.035,1.143,2.805,1.143,10.189c0.414,18.936,8.146,30.879,18.131,37.685c3.309,3.811-1.088,6.375-7.428,4.437
							c-14.439-4.774-28.635-36.309-16.037-49.488C-23609.049,6925.593-23607.67,6924.635-23606.625,6924.619z M-23620.883,6930.532
							c2.018-0.085,0.795,4.075,0.818,11.965c0.059,16.627,5.033,24.708,17.176,35.111c3.955,3.381,4.467,3.025,2.842,4.812
							c-4.336,4.791-18.527-2.406-24.432-12.478c-7.025-11.992-7.727-29.884-0.822-36.493
							C-23623.367,6931.606-23621.938,6930.574-23620.883,6930.532z M-23635.104,6938.242c1.672,0.047,0.678,3.023,0.785,10.207
							c0.266,17.416,4.055,26.104,14.932,34.382c6.828,5.198,8.543,3.716,6.385,5.669c-3.791,3.424-13.887,0.207-21.373-6.384
							c-11.229-9.878-13.945-33.742-4.492-41.702C-23637.18,6938.995-23635.977,6938.224-23635.104,6938.242z M-23768.174,6937.959
							l27.744,20.094l-1.131,16.451l-27.615-19.536L-23768.174,6937.959z M-23276.65,6979.01
							c-11.41-2.575-15.576-10.942-13.986-20.278c0.531-3.125,2.398-4.882,4.277-0.746c1.549,6.53,5.699,15.618,11.58,17.497
							C-23272.408,6976.228-23274.467,6979.51-23276.65,6979.01z M-23522.68,6954.471c12.254,32.797,11.283,68.355,12.738,101.991
							c1.922,44.708,9.203,74.95,11.674,80.071c0,0-12.623-0.122-13.223-1.967c0,0-10.682-59.455-8.285-88.7
							c0.803-32.768-4.979-61.701-8.607-74.723C-23532.266,6959.583-23532.602,6967.163-23522.68,6954.471L-23522.68,6954.471z
							 M-23768.826,6962.094l26.711,18.265c-0.508,6.058-0.684,12.111-0.732,18.179l-26.158-19.341L-23768.826,6962.094z
							 M-23404.654,6968.11c0,0.986,3.879,1.888,10.012,0.536c6.812-1.49,13.566-1.06,18.74,0.476
							c5.51,1.631,6.152-0.139,1.191-2.428c-2.42-1.112-6.26-3.619-12.078-3.638
							C-23392.605,6963.037-23404.654,6965.961-23404.654,6968.11z M-23294.945,6969.681c0.631,1.24,2.635,4.012,4.434,6.186
							c3.404,4.116,4.379,4.162,2.764,5.785c-3.732,3.729-11.283-1.953-11.967-8.996
							C-23300.322,6967.496-23297.693,6964.314-23294.945,6969.681z M-23537.451,6966.063
							c12.271,18.283,13.262,60.608,12.902,90.666c-0.322,27.062,7.811,76.843,8.549,76.644c-2.635,1.488-6.131,0.872-9.395-0.46
							c-3.164-4.313-4.916-16.234-8.027-48.476c-0.797-8.311-2.164-34.75-2.16-56.017c0.012-18.75-9.621-59.546-9.621-59.546
							S-23541.082,6966.064-23537.451,6966.063z M-23551.625,6970.284c10.998,25.957,12.346,51.536,12.223,82.548
							c-0.115,29.33,5.686,63.814,7.836,79.018c-3.898,0.324-8.012,0.568-9.609-1.222c-1.002-1.45-1.785-3.691-2.236-6.57
							c-4.719-25.46-5.398-53.062-6.422-76.41c-1.512-36.191-1.9-45.151-6.656-63.278c-2.697-10.271-3.721-10.078-1.486-12.004
							C-23556.275,6970.909-23553.078,6970.216-23551.625,6970.284L-23551.625,6970.284z M-23422.152,6978.875
							c0.072,11.975,1.711,7.128,5.977,5.308c3.188-0.2,5.748,1.585,11.621,3.881c7.48,2.924,6.785,3.845,12.131,1.351
							c3.299-1.538,5.912-2.04,7.453-0.731c6.082,5.158,14.137,2.492,18.717-1.498c3.545-1.76,7.357-0.682,10.322-0.343
							c4.277,0.48,3.213-2.273,3.854-7.671c0.57-4.805-1.258-5.26-6.258-3.745c-5.123,1.55-10.178,1.686-14.57,0.255
							c-11.223-3.684-19.531-1.617-25.143-0.848c-13.262,1.8-13.943,0.458-16.9-1.5c-2.209-1.461-5.842-4.141-7.119-4.092
							C-23423.344,6969.292-23423.014,6973.636-23422.152,6978.875L-23422.152,6978.875z M-23304.756,6975.8
							c1.275-0.618,1.814,1.1,3.521,3.423c2.848,3.864,3.666,5.677,1.203,5.993c-6.512,0.801-8.111,0.085-7.797-3.941
							C-23307.584,6978.055-23306.85,6976.806-23304.756,6975.8L-23304.756,6975.8z M-23565.34,6976.095
							c9.336,9.802,10.639,63.727,11.484,75.351c2.139,62.907,7.914,72.066,4.758,76.717c-3.609-0.138-4.893,1.176-7.18-2.032
							c-7.688-23.182-6.729-46.831-7.545-70.882c-1.213-31.848-4.014-49.139-8.164-64.991c-2.756-10.539-2.713-10.715,2.709-13.485
							C-23568.316,6976.287-23566.193,6976.052-23565.34,6976.095z M-23578.332,6983.4c3.203,7.703,9.227,42.545,9.52,72.516
							c0.236,23.8,4.957,70.424,6.004,70.699c-3.475,0.244-7.617-0.549-9.248-3.213c-9.453-46.065-5.221-90.432-16.289-136.783
							C-23587.584,6984.397-23583.707,6980.786-23578.332,6983.4L-23578.332,6983.4z M-23768.912,6985.129l27.668,20.712l0.244,17.2
							l-28.244-20.927L-23768.912,6985.129z M-23351.455,6991.575c-15.979,5.827-20.189,10.798-17.789,15.285
							c2.027,3.784,8.361,2.6,25.398-4.103c12.736-5.009,16.643-2.627,19.041,5.375c-0.363,11.751-11.781,12.881-18.176,11.13
							c-2.758-0.158-2.355,0.103,0.514,3.841c12.855,10.532,29.307-9.193,21.58-22.084
							C-23326.902,6989.275-23337.656,6985.741-23351.455,6991.575z M-23451.082,6994.284c-13.291,10.005-8.998,28.603,1.83,31.596
							c2.996,1.604,7.533,0.978,9.322-0.162c1.656-1.053,1.68-2.81-1.65-3.435c-10.072-1.89-15.658-9.427-10.619-16.845
							c4.889-7.194,13.641-5.61,30.377,2.018c14.473,6.583,20.914,4.781,22.793-2.741c0.826-3.321-0.033-6.461-7.035-6.872
							C-23425.531,6996.721-23438.199,6984.6-23451.082,6994.284z M-23276.566,7026.222c-0.758-5.339-9.529-0.058-15.457,9.264
							c-5.836,9.16-6.449,10.475-7.398,0.808c-1.412-14.405,13.729-25.332,23.041-25.506c11.23-1.058,18.459,5.363,18.604,12.598
							C-23257.51,7037.615-23274.48,7037.404-23276.566,7026.222L-23276.566,7026.222z M-23770,7007.548l29.32,21.037
							c0,0,0.775,10.965,0.016,16.841l-29.475-19.738L-23770,7007.548z M-23413.035,7021.785
							c-13.113,8.504-5.842,24.673,3.17,26.654c9.494,2.105,10.307-4.541,0.865-6.708c-5.027-2.089-6.23-6.943-4.176-10.631
							c4.68-7.312,12.941-2.35,17.76,0.063c10.684,5.354,16.236,7.352,19.721,3.871c6.184-6.194,1.014-17.553-7.064-13.75
							c-2.184,1.03-3.83,2.02-8.393,0.775C-23398.092,7020.463-23406.426,7018.736-23413.035,7021.785L-23413.035,7021.785z
							 M-23770.252,7031.831l28.842,20.635l-1.258,17.7l-27.049-20.725L-23770.252,7031.831z M-23770.148,7056.196l27.109,20.183
							c-0.562,7.473-0.432,10.459-0.23,15.23l-27.457-18.546L-23770.148,7056.196z M-23283.627,7070.012
							c22.025,2.617,14.182,27.817-1.076,20.649c-4.051-3.168-5.293-2.941-10.088,8.086c-6.135,14.097-7.533,12.905-6.389-3.508
							C-23300.262,7079.163-23292.678,7069.951-23283.627,7070.012z M-23457.557,7070.289c0.521,0.023,0.941,0.121,1.199,0.328
							c1.451,1.699-3.156,8.229-7.031,12.03c-2.836,1.775-9.525-3.319-7.83-5.699
							C-23469.244,7074.637-23461.123,7070.569-23457.557,7070.289z M-23428.385,7083.952l-3.953,0.475
							c-5.682-13.38-18.121-10.603-22.189,1.641l-5.434-0.732C-23454.152,7070.346-23434.371,7061.487-23428.385,7083.952z
							 M-23317.344,7089.279l-6.686,0.254c-5.689-14.519-14.121-16.842-21.602-2.772l-5.141-1.598
							C-23341.5,7067.173-23326.6,7066.014-23317.344,7089.279z M-23350.369,7072.161c3.416-0.132,2.943,1.426-0.715,6.218
							c-3.174,4.157-3.939,4.812-6.998,2.435C-23363.098,7076.93-23354.531,7072.353-23350.369,7072.161z M-23318.762,7073.244
							c0.656,0.051,1.414,0.13,2.277,0.363c6.846,1.836,9.934,5.162,6.469,9.275c-2.152,2.56-4.221,3.542-5.574,1.769
							C-23320.074,7076.908-23322.564,7072.938-23318.762,7073.244z M-23422.777,7075.622c0.662,2.871-1.637,4.847-4.102,2.418
							c-1-0.981-1.859-2.643-1.707-3.854c1.605-1.446,5.344-0.142,5.814,1.435H-23422.777z M-23770.885,7078.231l27.873,20.906
							c0.785,7.172,0.863,12.623,0.711,17.5l-28.725-19.899L-23770.885,7078.231z M-23358.619,7092.902
							c16.062,11.509,35.178,11.751,47.33,2.191c2.717-2.144,5.053-2.184,5.055-0.073c-1.865,7.788-22.854,17.406-38.973,11.371
							c-8.85-3.306-16.113-6.553-21.789-15.002C-23370.365,7085.883-23363.283,7089.532-23358.619,7092.902z M-23365.631,7098.207
							c23.393,21.041,42.451,15.72,57.02,5.653c2.127-0.487,2.119,1.422,2.518,4.983c0.512,4.562-3.309,6.721-13.689,9.604
							c-20.07,5.566-43.346-1.464-47.283-14.935C-23367.51,7100.874-23368.447,7097.428-23365.631,7098.207z M-23771.48,7102.14
							l28.275,20.27l-1.221,15.02l-27.555-19.471L-23771.48,7102.14z M-23771.498,7125.188l26.697,18.909l-0.34,12.447
							l-25.955-19.311L-23771.498,7125.188z M-23574.945,7135.089c114.977,28.521,197.098,17.801,277.738,5.306l68.295,141.094
							l-428.953-8.29C-23628.916,7228.407-23604.584,7179.272-23574.945,7135.089z"/>

							<path id="path3442-2-7-0" d="
							M-23539.215,5927.736c11.918,21.5,21.215,43.653,31.895,65.614l1.756,1.181l2.561,5.079l0.25,2.452l6.375,10.688l-0.084,2.268
							l26.906,52.64c23.262-8.143,213.178-19.74,282.85,7.093l10.586-17.122l2.449,0.032l18.68-31.26l-0.232-2.673l6.215-6.794
							l0.943-3.128l20.539-30.735l0.174-5.016l25.74-40.977L-23539.215,5927.736z M-23110.053,5942.579
							c0,0-13.492,24.686-20.391,34.632c-5.318-4.377-21.072-1.807-20.477,14.756c-25.383-10.215-32.174,20.171-12.541,27.449
							c-10.334,8.656-19.826-1.573-27.377-8.524c-7.568,1.708-23.307,6.915-31.814-9.545c0,0,3.656,2.073,7.297,4.323
							c20.793,6.789,23.064-21.41,7.594-26.35c-1.947-0.559-5.627-0.843-5.627-0.843c5.676-21.604-27.748-29.874-28.924-3.796
							c0,0-3.979-0.733-7.02-0.246c-17.871,2.88-14.338,29.22,3.889,28.338c2.516-0.125,4.744,0.37,4.744,0.37
							c-0.387,4.202-22.572,11.779-38.139-3.013c-7.643,5.576-19.697,12.515-34.936-2.093c10.225-0.206,20.08-2.911,20.203-14.489
							c0.08-7.54-6.555-14.403-16.316-14.965c-0.381-8.428-6.482-16.595-14.619-17.383c-9.947,0.376-15.201,8.296-15.439,16.762
							c-8.475,0.697-16.535,7.984-14.895,16.571c2.24,11.709,11.189,13.33,21.488,11.323c-12.887,19.792-32.975,8.916-39.098,2.392
							c-7.6,6.803-20.789,15.95-36.529,2.748c8.562-1.283,18.148-6.092,16.793-18.037c-1.068-9.403-11.539-12.407-16.121-12.009
							c0.115-6.199-4.354-16.526-15.428-15.693c-12.082,0.901-11.676,16.164-11.539,16.286c-9.936-1.027-17.41,10.539-14.721,18.08
							c3.27,9.171,10.441,12.145,23.795,9.968c-15.816,14.238-25.551,8.386-33.957,5.146c-7.66,7.7-17.719,10.027-27.834,2.852
							c22.928,1.567,20.111-39.083-7.408-24.934c-18.891-23.18-18.748-13.049-35.408-46.917L-23110.053,5942.579z
							 M-23324.756,5978.155c1.109-0.027,2.279,0.23,3.428,0.842c3.551,1.9,4.162,5.105,1.877,9.768
							c-0.805,1.64-1.955,3.513-1.812,5.26c24.311,47.137,80.461,27.454,86.156,5.907c0.359-1.364-0.248-2.881-0.938-4.369
							c-2.068-3.608-1.729-6.521,1.109-8.903c6.037-5.084,14.416,1.233,10.828,8.176c-0.943,1.827-1.941,3.835-1.303,6.32
							c13.639,32.781,42.072,35.815,66.238,23.449c-11.414,19.488-54.35,30.701-71.295-17.15
							c-29.404,38.087-74.785,36.423-94.488-7.679c-19.459,44.292-75.379,44.193-94.963,6.668
							c-19.4,42.062-62.154,31.544-73.773,4.729c39.309,29.702,66.223,0.097,71.215-12.658c0,0-0.9-1.523-2.145-2.794
							c-5.004-5.123-4.742-11.015,0.6-13.244c6.834-2.855,13.051,3.785,9.438,10.101c-1.006,1.768-1.883,2.142-1.275,3.697
							c11.824,29.204,72.803,38.877,86.031-1.473c0.469-2.311,0.271-4.464-0.744-6.242
							C-23333.381,5983.647-23329.574,5978.251-23324.756,5978.155z M-23503.619,5990.859c9.629,0.749,6.768,8.99,4.828,9.576
							L-23503.619,5990.859z M-23145.529,6003.432c0.061,0.159-6.172,10.625-6.172,10.625
							C-23154.777,6008.905-23153.824,6002.591-23145.529,6003.432z M-23179.244,6056.274c0,0-6.441,13.497-8.506,14.604
							c-113.656-31.636-273.607-9.475-277.588-6.738l-6.748-13.364C-23371.486,6032.827-23271.688,6039.167-23179.244,6056.274z
							 M-23376.445,6254.792c-11.91,42.331-38.707,46.114-71.074,50.623c-40.082,5.583-65.818-9.514-77.539-32.008
							c0,0-57.582,20.412-78.693,32.531c42.939,20.762,99.314,65.931,130.844,116.549c11.285,15.475,10.77,12.012,10.061,45.42
							c-1.541,72.446-1.924,99.381-1.924,99.381c17.83,3.048,18.559,15.372,17.297,29.171c14.486-6.042,28.139,2.003,27.801,15.55
							c-0.629,24.904-24.957,17.638-29.977,14.777c7.498,22.129-2.031,31.023-11.586,31.9c-11.781,1.084-25.15-4.844-20.697-29.887
							c-12.92,4.715-28.963-4.669-30.9-19.846l-0.098-25.63c32.932-58.996-5.857-108.316-42.891-125.037
							c0,0,11.023-21.639,24.816-27.492c1.398-0.395-7.988-14.793-24.326-12.033c-7.496,0.003-5.748-0.018-12.611-9.313
							c-13.553-18.379-20.082-19.753-34.059-0.678c-6.15,8.395-7.584,8.599-14.652,8.598c-7.789,0.004-19.85,5.349-22.51,10.289
							c-0.609,1.131,2.42,2.364,6.379,7.187c5.688,6.938,14.498,16.489,12.885,25.995c-31.025,11.883-83.199,65.766-30.986,137.217
							l-38.812-0.302l3.32-250.44l-27.303,14.469l-2.85,196.153l-7.645-2.706c1.885-62.545,2.23-125.085,1.553-187.658
							l-72.242,50.396l-2.896,294.153l7.535,1.749c4.791,40.191,84.729,13.812,89.293,17.383l-2.424,163.428l-3.643,8.029
							l62.438,35.818l58.547-28.844c0,0,7.846-1.241,10.805-2.723c24.277-12.167,42.117-8.954,54.795,9.881
							c7.816,11.616,9.152,13.338,9.152,13.338c5.561-32.947,35.113-44.525,63.35-35.294c20.773,6.776,48.898,28.193,57.115,53.813
							c0,0,1.49,3.862,3.01,5.613l1.189,0.543c-0.064-0.659-1.305-3.858-1.764-5.41c-27.926-67.928-110.305-79.959-124.18-25.222
							l-11.357-16.633l62.277-36.441l82.896,57.039c0,0-4.348,19.368-4.975,27.763l1.434,0.7
							c0.797-10.162,4.078-21.726,9.078-30.245c2.062-3.51,4.424-6.356,7.051-8.452c5.08-2.816,9.729-2.417,14.922-7.101
							l-12.08-9.429l0.334-29.439l23.945,35.049c7.799-1.634,38.186-10.021,55.898,0.333c2.008,0.661,28.436-6.291,44.035,30.709
							l79.441-31.093c0,0,5.084-2.727,5.15-3.472c-77.939-30.601-155.121-134.871-147.461-136.369c0,0-0.012-10.532,1.127-36.364
							c1.232-28.776,1.488-58.192,2.57-87.072c-26.549-9.083-19.459-30.496-19.459-30.496c-16.137,3.198-18.637,0.02-22.646-2.895
							l-2.211-27.324c9.805-8.003,15.598-8.648,27.469-5.786c0,0-5.539-11.968-0.076-21.609c4.584-7.618,16.463-12.24,25.756-6.618
							c11.99,8.535,7.754,25.813,5.971,28.204c12.754-5.401,28.076,1.231,31.611,13.808c2.658-36.92,6.727-78.237,14.807-110.317
							c14.875-57.903,38.516-118.38,67.543-165.718c4.756-7.911,10.775-15.809,15.656-23.206c4.525-6.589,6.699-10.868,6.699-10.868
							s-6.062,3.181-12.449,4.819c-9.178,2.289-16.1,4.504-17.16,5.525c-6.799,5.479-15.641,9.469-22.859,12.431
							c-25.43,9.298-42.084-5.699-52.1-28.278c-6.414,28.284-32.934,51.777-71.008,36.053
							c-21.449-11.961-28.115-19.457-47.773-49.91C-23372.125,6258.415-23376.445,6254.792-23376.445,6254.792z
							 M-23375.705,6259.453c13.762,28.675,34.83,49.226,55.547,57.694c37.033,12.991,62.121-10.374,69.512-32.164l6.941,12.332
							l-57.281,38.922l-84.068-55.926C-23383.6,6279.039-23375.592,6260.113-23375.705,6259.453z M-23119.393,6266.706
							l-25.598,14.372c0,0-17.357,26.762-23.211,36.856c-30.574,51.503-53.898,107.746-66.602,163.759
							c-5.094,20.503-10.826,58.024-12.85,76.075c-3.23,28.798-3.348,40.648-3.135,67.119l1.926,2.202c0,0-3.211,5.37-5.525,9.912
							c-6.295,12.324-7.92,19.345-7.848,33.785c0.154,33.255,19.699,65.482,47.969,79.038c1.592,0.767,3.707,1.758,3.707,1.758
							s-5.156,13.119-14.232,22.249c-6.045,6.096-7.32,6.373-5.293,9.475c2.82,4.306,12.15,8.204,23.83,8.268
							c4.133,0.022,4.107,0.009,11.574,8.495c14.574,16.548,19.064,16.299,33.014-1.822c4.143-5.389,6.467-6.656,12.361-6.673
							c8.67-0.023,24.629-6.698,24.633-9.973c-10.576-4.947-22.432-29.556-20.463-29.78c58.984-29.67,72.672-93.413,31.027-141.36
							l40.709,0.19l-3.766,255.352c8.074-5.118,26.33-16.133,26.33-16.133l3.508-198.693c2.783,0.588,5.598,2.657,11.02,3.654
							l-2.307,189.21c0,0,53.051-35.785,78.324-54.519l4.455-289.538l-5.951-0.123l-5.023,289.375l-70.135,49.049l3.26-179.847
							c0,0,5.477-0.708,7.521-0.944c20.279-2.414,30.18-28.014,17.105-45.134c-4.641-6.076-1.27-5.583,8.902-7.32
							c17.998-1.215,28.225-14.589,23.203-24.377c-2.152-4.198,0.752-3.689,2.734-7.593c1.307-3.077,1.15-6.93,0.678-9.987
							c-0.619-4.014,1.057-5.756,2.123-8.288c1.67-3.961,0.221-8.511-2.348-12.325c-2.713-4.02-1.854-8.256-1.824-10.885
							c0-5.886-2.105-6.77-8.213-12.573c-4.623-4.395-0.822-5.251,6.176-8.679c11.016-5.38,12.178-25.219-2.148-33.973
							c-7.654-4.685-21.762-4.603-52.412-0.406c-11.625,1.587-25.252,2.526-25.252,2.526s2.234-113.194,2.637-171.56
							L-23119.393,6266.706z M-23119.475,6270.706c0,0,61.289,37.577,60.777,38.584c-21.422,28.113-101.484,140.236-104.885,277.745
							c-56.842-8.33-81.088,35.752-83.859,35.531c-4.016-168.489,66.779-287.511,102.83-337.903L-23119.475,6270.706z
							 M-23159.066,6292.04l-0.283,4.122l-12.674,18.116l0.055-18.376L-23159.066,6292.04z M-23178.189,6298.048l-0.164,29.601
							l-25.586,18.728l-0.836-30.899L-23178.189,6298.048z M-23411.803,6300.001l12.754,9.215l-1.053,29.355l-18.756-35.865
							L-23411.803,6300.001z M-23057.662,6317.214l-0.336,21.247c-51.115,69.039-78.824,148.531-88.881,249.722l-12.088-0.654
							C-23153.686,6486.813-23117.861,6395.561-23057.662,6317.214z M-23394.062,6312.441l30.227,20.658l-2.018,33.463
							l-27.447-18.419l-2.455-6.903L-23394.062,6312.441z M-23208.617,6317.7l-0.77,31.137l-24.027,17.084l-0.465-30.941
							L-23208.617,6317.7z M-23495.613,6319.922c3.506,0.116,6.26,2.727,6.816,7.594c2.168,20.754,18.041,15.102,21.656,21.403
							c1.371,2.146-2.021,3.922-12.785,2.834c-19.725-1.887-33.801-18.171-23.482-28.49
							C-23500.764,6320.928-23498.018,6319.847-23495.613,6319.922z M-23359.324,6336.087l25.82,17.216l-0.787,34.386
							l-25.318-16.175L-23359.324,6336.087z M-23239.951,6338.654l1.393,30.461l-29.031,18.454l-0.396-30.238L-23239.951,6338.654z
							 M-23185.453,6339.906l-17.168,34.68l-97.357,67.054l-78.551-53.207l-14.07-34.099l91.633,62.529L-23185.453,6339.906z
							 M-23444.453,6348.458c25.496,0.217,44.5,27.685,50.707,51.532c4.547,15.784,5.172,21.442,5.174,46.344
							c0,25.369,0.699,29.764,5.383,33.445c2.881,2.266,3.742,1.689,4.203-2.79c1.035-9.948,12.814-3.56,12.809,6.94
							c-0.012,11.663-12.92,15.146-22.223,5.996c-4.953-4.875-5.023-4.833-6.791,4.506c-1.184,6.259-9.309,45.413,9.174,55.58
							c3.514,0.401,4.412-2.4,1.867-5.739c-5.107-6.699,5.527-14.084,13.979-9.712c10.213,5.281,8.824,21.897-2.316,27.584
							c-12.754,6.501-28.9-1.52-36.184-17.98c-5.34-12.077-4.979-28.664,1.199-53.185c2.844-11.301,4.146-18.506,4.914-27.202
							c0.25-2.859,0.652-5.967,0.889-6.91c0.666-2.642-0.645-2.795-5.213-0.607c-12.467,5.963-25.832,1.269-28.912-10.174
							c-3.686-13.68,11.756-27.415,20.934-18.621c3.484,3.334,2.982,6.567-1.301,8.571c-7.434,3.475-5.117,13.062,2.738,11.334
							c25.936-7.177,3.859-80.003-25.057-85.607c-19.121-3.708-34.633,17.838-20.986,29.822c5.338,4.693,10.912,2.35,9.859-4.146
							c-1.473-9.064,10.496-7.844,14.744,1.505c6.9,15.201-11.979,27.068-29.209,18.375
							C-23494.916,6388.128-23472.738,6348.443-23444.453,6348.458z M-23328.998,6356.596l25.355,17.8l-0.465,33.571l-25.232-15.674
							L-23328.998,6356.596z M-23272.406,6360.666l-0.516,30.82l-25.184,17.535l0.676-32.795L-23272.406,6360.666z
							 M-23205.982,6382.242l-13.42,35.105l-81.223,53.131l-65.215-42.804l-10.693-32.954l76.799,52.052L-23205.982,6382.242z
							 M-23725.832,6374.079l-3.723,179.041c-25.977,0.563-41.402,25.93-22.467,50.596c0,0-3.402,0.385-7.367,0.847
							c-17.611,2.048-29.562,11.106-27.469,22.44c0.645,3.465-0.148,6.938-1.18,8.649c-1.652,4.606-1.316,8.153,0.705,12.19
							c1.58,3.181,1.281,4.426,0.309,6.732c-2.094,4.964-1.701,8.828,0.561,12.693c2.83,2.891,1.986,5.162,1.504,9.678
							c-0.598,6.397,0.502,9,4.48,11.573c5.139,3.317,6.967,8.627,1.059,8.076c-2.93-0.275-13.465,9.47-13.465,9.47l4.957-287.328
							L-23725.832,6374.079z M-23585.598,6399.954c4.65,0.09,9.312,6.021,15.977,16.008c3.998,7.144,4.096,6.185,13.598,6.008
							c9.686,0.908,15.537,3.596,18.014,6.574c0.934,1.132-1.609,1.37-7.879,7.468c-6.49,6.32-7.43,8.874-11.807,16.009
							c-1.572,2.572-4.9,2.75-6.406,0.342c-1.217-1.947,2.133-8.136,8.316-15.379c8.684-8.045,6.916-8.91-5.482-7.87
							c-8.717,0.737-9.633,0.282-12.82-5.062c-9.441-19.773-14.678-19.218-24.506,0.094c-2.682,5.407-1.654,5.074-12.783,3.984
							c-8.762-0.857-10.975,1.316-6.121,6.024c7.598,6.51,10.305,21.555,9.881,21.363l-5.98,0.426c0,0-1.754-3.412-2.514-5.552
							c-1.531-4.336-5.746-10.897-10.367-16.094c-6.539-7.367-2.785-11.247,12.184-12.55c8.346-0.732,8.541-0.842,12.482-6.374
							C-23594.861,6405.629-23590.24,6399.871-23585.598,6399.954z M-23222.666,6425.283l-9.252,30.361l-69.311,46.506
							l-54.814-38.24l-6.777-28.872l63.016,41.76L-23222.666,6425.283z M-23458.711,6444.613c0,0,18.947,38.884,25.6,63.967
							c5.783,21.815,13.152,84.798,10.795,88.612c-4.715-6.76-20.789-5.588-21.008-5.529c1.504-7.333-4.133-22.28-17.75-25.501
							L-23458.711,6444.613z M-23234.227,6463.328l-7.443,29.925l-59.045,40.864l-47.328-33.78l-5.699-29.204l52.398,36.591
							L-23234.227,6463.328z M-23572.467,6458.018l7.496,2.778l0.301,54.341l58,10.876l1.135,9.323l-67.178-12.261
							C-23572.936,6499.896-23572.467,6458.018-23572.467,6458.018z M-23602.039,6459.032l0.322,63.192
							c-0.627-0.222-48.656,5.614-67.084,10.044l1.25-8.628c0,0,33.443-6.554,57.611-8.836c0.365-17.662,0.607-36.242,0.941-54.239
							L-23602.039,6459.032z M-23060.811,6481.834c0,0,7.904,0.903,24.916-1.736c43.838-6.744,55.604-3.403,60.91,10.184
							c5.672,21.01-17.23,21.043-21.039,7.702c-2.418-8.647-11.836-6.958-43.318-0.181c-26.92,5.804-43.791,0.367-43.146-14.805
							C-23081.834,6467.398-23064.027,6466.381-23060.811,6481.834z M-23419.57,6462.996c5.402,0.036,9.777,4.45,9.748,9.854
							c-0.035,5.404-4.449,9.757-9.852,9.722c-5.404-0.03-9.76-4.418-9.725-9.823S-23424.973,6462.967-23419.57,6462.996z
							 M-23561.521,6461.791l6.857,2.221c0,0,0.162,41.221,0.371,41.288c14.779,3.58,45.814,10.075,45.814,10.075l1.484,8.179
							c-12.984-3.328-54.428-10.999-54.428-10.999C-23562.348,6494.659-23561.521,6461.791-23561.521,6461.791z
							 M-23611.889,6461.528c0,0-0.652,32.878-1.566,50.528c0.232-0.153-35.406,4.926-53.523,8.295l1.533-6.568
							c14.338-2.928,29.926-5.836,45.705-8.811c-0.039-12.935,0.561-41.294,0.561-41.294L-23611.889,6461.528z M-23586.668,6469.123
							c4.338,0.026,7.861,3.601,7.836,7.938c-0.031,4.342-3.6,7.815-7.938,7.789c-4.344-0.026-7.818-3.543-7.793-7.886
							C-23594.535,6472.626-23591.012,6469.096-23586.668,6469.123z M-22996.051,6501.853c4.686,7.259,8.744,7.128,13.516,6.531
							c-1.205,0.323-6.893,3.53-6.596,4.637c0.148,0.553-2.564,9.556,1.268,10.001c14.471,1.703,6.82,16.609,8.514,18.958
							c3.824,4.548,6.635,7.438,3.828,12.957c-2.486,4.898-5.9,4.67-3.336,8.958c5.598,8.801-2.416,10.438-1.838,16.367
							c0.418,3.58,1.566,8.478,0.195,11.231c-4.139,8.291-18.254,12.772-33.846,13.102c-2.221,0.055-0.463-3.537-1.455-5.853
							c-3.801-2.519-1.605-6.576-0.256-9.235c1.35-3.538,1.363-3.537-0.992-5.394c-6.559-4.27-6.182-6.171-5.584-9.143
							c1.637-8.797,0.289-9.691-2.35-11.055c-3.369-1.745-2.828-5.457-1.211-10.203c1.113-3.277,0.391-4.12-1.154-7.148
							c-0.908-1.782-1.168-2.742-1.17-3.874c0.572-4.546-3.51-4.618-9.314-0.268c-5.02,8.253-6.916,19.183-10.096,26.045
							c-2.455,5.272-2.941,10.825-0.4,23.148c4.982,18.859,0.932,21.905-20.086,17.463c-15.785-4.227-20.117-21.258-15.281-41.899
							c0.783-3.334,0.652-6.58,0.387-9.216c-1.426-14.304,2.543-27.939,12.695-37.099c16.941-15.29,25.211-17.502,59.523-14.6
							c13.43,1.232,14.432,2.1,14.432,2.1S-22996.467,6501.895-22996.051,6501.853L-22996.051,6501.853z M-23243.605,6501.039
							l-4.598,28.985l-32.736,22.107c-14.941-12.313-26.752-8.556-37.705,4.07c-8.379-4.465-25.062-16.518-25.062-16.518
							l-3.635-33.062l46.229,33.511L-23243.605,6501.039z M-23586.627,6500.858c4.336,0.026,7.816,3.575,7.785,7.911
							c-0.025,4.343-3.549,7.841-7.887,7.815c-4.338-0.026-7.863-3.551-7.838-7.887
							C-23594.541,6504.355-23590.965,6500.832-23586.627,6500.858z M-23249.764,6537.596l-2.35,27.957l-11.65,8.388l-11.518-1.414
							l-2.365-17.402L-23249.764,6537.596z M-23587.445,6530.844c4.338,0.026,7.863,3.602,7.836,7.944
							c-0.025,4.336-3.6,7.809-7.938,7.782c-4.336-0.026-7.811-3.543-7.785-7.886
							C-23595.307,6534.348-23591.781,6530.817-23587.445,6530.844z M-23555.828,6532.375c4.338,0.026,7.812,3.55,7.787,7.886
							c-0.025,4.342-3.549,7.841-7.887,7.815s-7.838-3.575-7.811-7.912C-23563.713,6535.822-23560.164,6532.349-23555.828,6532.375z
							 M-23618.752,6532.574c4.336,0.026,7.836,3.575,7.811,7.912c-0.025,4.342-3.549,7.841-7.893,7.815
							c-4.338-0.026-7.863-3.57-7.838-7.912C-23626.646,6536.046-23623.096,6532.548-23618.752,6532.574z M-23034.562,6545.916
							c2.223-0.131,5.434,3.216,3.736,8.106c-2.244,5.567-0.793,7.506,2.672,12.129c2.932,3.911,2.391,4.437,1.887,6.892
							c-1.029,16.149,9.529,9.376,4.766,21.029c-1.035,2.533,0.189,6.212,0.58,9.235c-0.957-2.782-20.111-2.925-21.795-0.146
							c-2.715-0.467-5.793-18.528-2.996-20.841c0.357,0.001,2.289,3.132,3.281,4.891c2.479,4.419,3.037,4.267,2.338-0.799
							C-23042.861,6566.29-23040.533,6545.913-23034.562,6545.916z M-23524.201,6537.201c4.338,0.026,7.836,3.576,7.811,7.918
							c-0.025,4.336-3.574,7.816-7.912,7.783c-4.338-0.026-7.812-3.543-7.785-7.886
							C-23532.062,6540.68-23528.539,6537.174-23524.201,6537.201z M-23651.475,6536.026c4.338,0.026,7.812,3.575,7.785,7.911
							c-0.025,4.343-3.549,7.816-7.885,7.79c-4.338-0.026-7.871-3.551-7.838-7.887
							C-23659.387,6539.498-23655.812,6536-23651.475,6536.026z M-23343.459,6544.663l23.229,15.759
							c0.289,4.823-0.477,11.698,1.055,14.075c-15.332-1.751-23.285,6.846-23.291,6.846L-23343.459,6544.663z M-23511.641,6565.617
							l-1.994,8.266c-46.133-12.9-97.963-14.603-147.775-2.502l-3.664-8.806
							C-23614.729,6548.43-23561.555,6548.972-23511.641,6565.617z M-23731.234,6560.557c6.756,0.026,13.604,2.683,18.357,8.231
							c8.92,10.425,4.135,29.31-8.902,35.078c-19.502,8.628-39.229-11.096-30.611-30.818
							C-23748.814,6564.859-23739.922,6560.529-23731.234,6560.557z M-23253.215,6572.856l-0.473,8.316l-5.771-5.018
							L-23253.215,6572.856z M-23376.143,6570.691c8.516,0.056,15.377,7.025,15.328,15.545c-0.055,8.521-6.996,15.388-15.518,15.332
							c-8.516-0.049-15.377-7-15.33-15.52C-23391.607,6577.528-23384.664,6570.642-23376.143,6570.691z M-23730.875,6563.865
							c-2.078-0.011-5.553,0.764-7.145,2.179c-4.191,3.712-0.062,3.905,5.344,5.016c9.605,1.968,12.094,10.326,11.027,19.281
							c-0.965,8.135,1.773,8.065,4.043,5.083C-23708.367,6583.288-23715.668,6565.177-23730.875,6563.865z M-23283.48,6577.207
							c-0.199,0.097-0.432,0.244-0.432,0.244C-23283.799,6577.542-23283.656,6577.431-23283.48,6577.207z M-23588.295,6575.761
							c11.541,0.004,12.359,19.005,1.719,39.991c-3.199,6.319-4.744,5.49-7.912-4.209
							C-23602.295,6587.634-23600.244,6575.76-23588.295,6575.761z M-23561.619,6576.861c2.227-0.062,4.365,0.83,6.09,2.882
							c6.059,7.199,1.053,18.551-15.84,35.83c-4.105,4.201-6.219,5.789-7.699,5.796c-4.133-0.01-4.107-0.692,0.908-15.89
							c2.205-6.7,4.406-14.063,4.887-16.354C-23571.744,6581.805-23566.521,6577.013-23561.619,6576.861z M-23603.732,6592.972
							c1.021,5.281,2.854,12.626,4.039,16.34c1.193,3.704,1.963,7.234,1.74,7.812c-1.078,2.81-8.365-1.185-13.5-7.41
							c-10.33-12.512-14.332-23.297-12.025-28.996c3.303-4.534,11.564-6.405,15.262-2.302
							C-23604.387,6582.647-23603.99,6591.557-23603.732,6592.972z M-23530.484,6582.233c11.031,6.815-2.143,21.588-27.416,33.542
							c-10.811,5.112-9.996,2.727-1.666-7.636c3.188-3.967,7.48-10.44,9.598-14.405
							C-23545.297,6584.968-23540.617,6576.202-23530.484,6582.233z M-23641.932,6579.982c3.545,0.042,7.09,3.914,13.609,13.784
							c2.908,4.396,7.646,10.671,10.539,13.948c2.893,3.268,5.152,6.514,5.023,7.206c-1.287,6.801-35.672-15.545-37.984-24.696
							C-23651.496,6584.659-23647.025,6579.788-23641.932,6579.982z M-23143.904,6610.073c6.008,13.049,6.383,21.085,1.127,23.897
							c-7.465,4.006-16.828-2.522-16.83-11.714c0-3.098-2.953-13.94-5.717-21.001c-2.277-5.812-2.529-9.377-0.555-9.621
							C-23158.207,6593.025-23147.031,6603.933-23143.904,6610.073z M-23185.387,6599.411c-2.582,7.337-5.396,18.812-5.436,22.175
							c-0.014,1.314-0.873,4.003-1.871,5.955c-6.646,12.999-21.52,1.983-15.689-11.624c5.268-12.269,18.27-24.878,23.297-25.204
							C-23181.65,6590.493-23185.021,6598.338-23185.387,6599.411z M-23175.076,6592.531c2.523-0.194,4.514,5.347,7.574,14.677
							c4.137,12.605,3.75,22.358-1.068,26.406c-10.328,8.7-20.705-4.448-16.275-20.613
							C-23181.299,6600.083-23177.934,6592.757-23175.076,6592.531z M-23515.549,6587.795
							c8.793,186.18-89.449,327.261-96.32,331.026l-32.793,17.061l-56.24-32.163c60.609-79.615,97.754-171.536,102.646-279.081
							C-23543.842,6631.061-23514.891,6587.998-23515.549,6587.795z M-23203.086,6594.835c4.002-1.004,1.15,2.407-2.908,8.019
							c-4.34,5.985-10.146,22.381-14.537,24.933c-9.814,4.476-20.637-4.662-14.578-12.277
							C-23229.529,6608.488-23213.334,6597.418-23203.086,6594.835z M-23145.268,6597.288c1.523,0.025,4.354,1.095,8.457,3.203
							c20.041,10.308,29.758,23.559,20.963,29.623c-6.174,4.248-12.607,0.713-18.445-10.938c-1.986-3.963-5.635-9.855-8.08-13.123
							C-23146.812,6600.132-23147.812,6597.248-23145.268,6597.288z M-23031.578,6606.267c13.012,0.079,23.492,10.669,23.408,23.681
							c-0.078,13.021-10.693,23.523-23.705,23.444c-13.02-0.08-23.492-10.714-23.414-23.735
							C-23055.205,6616.64-23044.598,6606.188-23031.578,6606.267z M-23038.873,6612.236c-15.449,6.464-11.336,30.6,1.785,34.348
							c5.541,1.682,12.367-0.503,9.631-3.24c-17.314-5.832-17.164-18.688-9.949-27.948
							C-23036.246,6613.908-23037.715,6611.748-23038.873,6612.236z M-23677.293,6632.136c-0.873,13.573,1.742,29.394-5.055,44.008
							c-10.301,22.47-42.105,32.18-58.938,29.81c-3.484-1.513-7.557-2.963-11.049-1.568c-2.117,0.854-4.703,0.687-6.912-0.408
							c-2.135-1.043-4.234,0.229-6.311-0.573c-2.416-1.706-6.33-5.542-5.807-8.326c0.846-3.915,0.602-6.84-3.977-8.224
							c-6.354-1.927-7.57-5.403-5.486-15.475c0.453-2.165,0.965-3.153-0.438-4.131c-4.635-3.244-6.299-9.119-3.086-15.185
							c2.088-3.497,3.695-5.967,0.137-8.86c-1.367-3.265-1.094-4.486,2.078-8.555c3.359-3.85,3.941-4.293,1.906-7.686
							c-4.576-7.63,0.896-13.08,7.33-16.058c8.605-3.324,16.098-4.978,25.123-5.831c3.344,0.259,3.135,3.203,5.098,6.089
							c2.871,4.674-1.449,11.248,0.918,13.673c3.455,1.677,4.971,4.92,4.639,7.669c-0.254,6.392,0.09,8.599,1.77,11.314
							c1.857,3.009,2.467,8.471,0.598,12.137c-1.662,3.266-1.484,3.054,0.572,5.031c2.033,1.976,2.861,11.653,2.125,11.448
							l8.771-0.628c-0.932,0.967,3.67-17.979,13.953-32.471c-0.316-11.537-4.486-22.218-3.783-37.43
							C-23691.318,6594.608-23676.082,6613.322-23677.293,6632.136z M-23340.771,6613.183c3.074,2.513,18.488,7.155,19.059,6.674
							c-0.637,7.409,3.586,21.935,19.645,27.083c-0.229,20.692-2.375,116.244-2.375,116.244
							C-23326.174,6725.007-23339.115,6676.025-23340.771,6613.183L-23340.771,6613.183z M-23717.332,6608.778
							c0,0,0.803,2.773,1.484,8.11c1.158,10.897-0.363,12.357-3.1,4.867c-3.205-8.777-3.518-1.995-0.123,18.001
							c0.826,4.834,0.764,5.958-0.488,9.182c-0.783,2.032-2.207,6.744-3.316,10.438c-3.268,10.869-5.111,13.979-8.057,5.207
							c-1.502-4.469-2.82-5.191-1.615-8.631c1.52-4.33,1.242-7.598-1.541-11.878c-0.451-0.705-1.443-2.318-1.529-6.809
							c1.088-10.08-3.398-10.273-4.232-12.895c0.229-3.953-1.416-13.57,1.295-13.249c2.234,0.261,10.328,0.643,14.189-0.681
							C-23722.65,6609.844-23717.332,6608.778-23717.332,6608.778z M-23381.85,6616.958c8.361,0.059,15.086,6.874,15.033,15.243
							c-0.051,8.356-6.869,15.093-15.23,15.034c-8.363-0.046-15.113-6.849-15.061-15.217
							C-23397.057,6623.661-23390.213,6616.912-23381.85,6616.958z M-23615.738,6621.357l11.422,2.411
							c2.539,0.9-2.59,159.05-96.752,271.312l-0.252-26.467C-23656.328,6806.288-23623.275,6729.378-23615.738,6621.357z
							 M-23421.314,6628.698l1.318,37.831c-6.346-5.618-22.535-16.244-22.416-16.457l0.365-13.976
							C-23442.027,6636.122-23427.971,6637.461-23421.314,6628.698z M-23509.738,6627.39c2.742,1.233,5.098,3.949,7.424,5.932
							l-7.598,4.9L-23509.738,6627.39z M-23246.99,6634.726c49.219,15.708,97.998,16.298,146.434,6.552l3.113,9.307
							c-52.615,13.112-104.594,11.216-155.918-6.343L-23246.99,6634.726z M-23486.986,6636.85l2.316,16.345l-28.324,17.52
							l1.869-24.717l14.768-9.152L-23486.986,6636.85z M-23239.848,6655.52c4.518,0.03,8.16,3.734,8.131,8.247
							c-0.023,4.526-3.723,8.167-8.238,8.137c-4.523-0.03-8.141-3.733-8.111-8.247S-23244.363,6655.502-23239.848,6655.52z
							 M-23112.619,6658.83c4.523,0.03,8.16,3.721,8.137,8.247c-0.029,4.513-3.729,8.154-8.244,8.124
							c-4.516-0.03-8.135-3.721-8.104-8.246C-23120.809,6662.441-23117.135,6658.8-23112.619,6658.83z M-23351.463,6679.336
							c3.4,12.979,1.994,42.143-3.127,61.837c-1.539,5.911-2.836,26.998-2.836,26.998c-0.889,1.082,28.553-23.369,37.172,9.668
							c2.969,11.365-10.248,21.8-18.889,18.486c-1.678-0.641-1.051-6.229,0.637-9.482c5.023-9.72-8.619-15.109-16.643-6.577
							c-18.52,19.746-0.943,71.048,27.344,76.589c23.482,4.594,42.869-18.484,27.432-32.799c-6.754-6.259-17.928,1.943-13.057,9.833
							c5.209,8.427-4.762,11.546-12.102,3.682c-12.789-13.717,2.303-33.647,21.941-28.551c31.404,7.817,23.895,57.022-9.246,59.119
							c-25.34,1.601-42.146-9.771-52.441-29.543c-9.656-18.988-10.1-33.966-4.816-66.806c3.133-19.507,1.229-36.021-4.207-36.02
							c-2.984-0.011-5.336,1.382-5.879,4.873c-1.111,7.146-1.961,8.468-6.391,5.772c-5.633-3.429-8.576-14.136,0.883-21.134
							c9.697-7.183,21.838,4.585,21.293,6.559c0.236-0.362,1.232-2.212,2.693-10.564c4.734-27.199-3.943-56.218-15.484-51.829
							c-2.527,0.959-2.252,2.103,0.994,4.016c7.539,4.442,0.592,15.298-8.965,13.988c-13.531-1.847-16.219-20.842-4.104-28.962
							C-23370.232,6648.73-23355.23,6664.933-23351.463,6679.336z M-23443.578,6654.688c0,0,23.756,15.182,24.959,18.975
							c0.768,2.431,1.314,23.506,1.314,23.506l-41.215-27.01l-60.631,35.78c1.145-8.093,5.887-28.933,5.887-28.933l32.256-19.487
							C-23480.881,6658.735-23459.312,6673.619-23443.578,6654.688z M-23144.664,6662.265c4.523,0.03,8.16,3.734,8.137,8.247
							c-0.029,4.513-3.703,8.154-8.219,8.137c-4.516-0.03-8.16-3.708-8.131-8.222
							C-23152.854,6665.901-23149.18,6662.234-23144.664,6662.265z M-23208.383,6661.075c4.516,0.03,8.178,3.696,8.148,8.222
							c-0.023,4.513-3.748,8.178-8.264,8.148c-4.523-0.018-8.133-3.721-8.104-8.234
							C-23216.572,6664.687-23212.906,6661.045-23208.383,6661.075z M-23176.385,6663.582c4.518,0.03,8.178,3.734,8.148,8.247
							c-0.023,4.526-3.721,8.167-8.238,8.137c-4.521-0.03-8.158-3.734-8.129-8.247
							C-23184.58,6667.206-23180.906,6663.564-23176.385,6663.582z M-23256.844,6673.527c21.588,4.959,43.225,10.046,63.965,12.75
							l-0.469,63.826l-6.07-0.479l0.305-57.028c-20.045-1.855-38.895-6.556-56.586-11.523L-23256.844,6673.527z
							 M-23095.682,6678.929l-1.277,7.483c0,0-37.643,5.709-57.283,7.845c-0.584,12.833-1.432,55.752-1.432,55.752l-7.521,1.223
							l1.314-64.96C-23139.588,6684.306-23117.318,6682.262-23095.682,6678.929z M-23458.697,6675.035l43.551,30.105l4.564,31.058
							l-50.773-35.287c0,0-47.314,30.454-65.016,41.746l5.928-29.058L-23458.697,6675.035z M-23254.982,6685.02
							c17.701,4.133,35.393,8.405,53.139,10.302l-0.307,51.351l-8.131-2.343l0.211-41.681c-13.857-1.487-28.061-4.474-42.34-7.803
							L-23254.982,6685.02z M-23097.756,6689.797l-1.643,6.933c0,0-28.535,3.709-43.275,6.035
							c-1.301,0.277-1.756,45.176-1.756,45.176l-7.043,0.929l0.26-52.426L-23097.756,6689.797z M-23177.564,6693.889
							c4.521,0.03,8.133,3.733,8.104,8.247c-0.023,4.526-3.697,8.167-8.219,8.137c-4.516-0.03-8.152-3.708-8.123-8.221
							C-23185.781,6697.537-23182.082,6693.872-23177.564,6693.889z M-23460.025,6706.591l51.473,36.325
							c0,0,5.68,18.475,6.758,28.663l-59.27-40.026l-76.197,48.279l9.334-30.606L-23460.025,6706.591z M-23776.465,6701.13
							c3.1,0.102,6.148,2.238,7.658,7.036c2.125,6.745,6.312,8.816,17.443,8.831c21.865-0.711,44.969-10.5,65.426-2.366
							c9.936,3.897,13.201,18.744,4.73,22.426c-9.186,3.982-13.016,1.286-16.023-5.932c-2.852-3.106-6.49-2.701-26.131,0.257
							c-8.662,1.225-18.834,2.266-27.381,2.785c-21.857,1.319-33.762-5.805-36.209-18.853
							C-23788.514,6706.976-23781.621,6700.948-23776.465,6701.13z M-23178.662,6725.398c4.516,0.03,8.152,3.708,8.131,8.222
							c-0.031,4.526-3.73,8.192-8.246,8.162c-4.516-0.03-8.158-3.734-8.129-8.247
							C-23186.877,6729.022-23183.186,6725.381-23178.662,6725.398z M-23338.805,6732.08c5.881,0.033,10.617,4.834,10.586,10.712
							c-0.039,5.878-4.844,10.622-10.719,10.589c-5.883-0.046-10.594-4.846-10.561-10.725
							C-23349.459,6736.778-23344.68,6732.034-23338.805,6732.08z M-23460.576,6737.012c0,0,42.367,29.588,61.982,43.269
							l10.342,31.809l-72.186-49.093l-90.732,56.412l11.408-32.27L-23460.576,6737.012z M-23150.613,6753.288
							c3.68,10.583,10.58,18.728,17.893,26.996c0,0-4.328,7.813-19.17,7.039c-8.111-0.42-8.572,0.834-11.459,6.287
							c-4.691,6.882-8.49,11.355-11.477,13.569c-5.285,3.899-14.912-2.293-22.695-14.629c-2.842-4.497-4.033-5.558-12.861-5.563
							c-13.562-0.002-18.389-3.856-11.225-9.803c6.297-7.354,10.873-15.491,16.531-23.238l6.082,0.821
							c0.236,0.903-5.068,15.915-12.229,21.899c-3.648,3.958,1.314,5.527,10.07,3.862c5.562-1.554,6.971-0.868,10.891,7.672
							c8.199,16.315,12.652,15.635,23.111-0.521c3.689-7.232,3.564-7.955,13.238-5.657c10.418,1.277,13.588,0.028,9.379-3.7
							c-8.508-7.534-12.934-24.972-12.934-24.972L-23150.613,6753.288z M-23460.857,6768.513c0,0,76.645,52.498,76.469,51.394
							l14.809,37.009l-89.936-62.545l-112.898,70.152l17.418-35.964L-23460.857,6768.513z M-23458.543,6801.99l26.721,18.379
							l-0.74,32.073l-27.277-19.174L-23458.543,6801.99z M-23465.508,6802.769l-0.154,31.656l-24.588,13.969l-0.74-29.715
							L-23465.508,6802.769z M-23496.74,6822.53l-0.256,1.221l0.568,0.315l0.203,0.029l0.285,28.529l-28.336,18.797l0.766-32.212
							L-23496.74,6822.53z M-23425.207,6824.361l25.111,17.524l0.352,33.955l-27.264-18.656L-23425.207,6824.361z
							 M-23394.197,6845.725l25.174,18.283l0.199,33.901l-25.725-18.105L-23394.197,6845.725z M-23529.369,6843.059l-0.773,31.314
							l-25.777,17.232l-0.539-32.024L-23529.369,6843.059z M-23261.422,6889.026c-5.145,5.153-6.994,4.47-11.131-4.301
							c-4.297-9.104-10.932-13.451-20.674-13.475c-12.291-0.051-4.09-7.936,8.951-8.627
							C-23261.732,6862.102-23250.611,6877.453-23261.422,6889.026z M-23562.281,6864.442l0.027,31.432l-25.562,12.621
							l-0.471-14.916l13.492-22.505L-23562.281,6864.442z M-23595.76,6905.752l0.756,5.743l-4.711,1.711L-23595.76,6905.752z
							 M-23296.096,7138.496c-106.893,20.576-208.762,10.418-281.701-4.642l-34.639,56.496l-2.301-0.148l-8.928,14.621l0.891,1.712
							c0,0-28.898,52.783-40.953,69.375c136.797,1.498,437.029,7.041,437.029,7.041l-17.535-37.167l1.021-0.978l-17.277-38.792
							l-5.73-6.769c0,0-3.447-7.012-5.977-14.524c-2.334-6.914-12.543-25.912-12.543-25.912l-1.502,0.095L-23296.096,7138.496z
							 M-23574.086,7140.809c1.385,1.142,135.768,29.355,276.145,6.12l7.381,12.96c-122.965,25.643-299.486-4.92-292.443-7.392
							L-23574.086,7140.809z M-23572.285,7166.019c12.342-0.188,24.709,6.706,32.904,17.938c2.607,3.568,6.785,14.035,6.785,14.035
							s6.107-9.647,11.998-14.431c8.908-7.212,20.4-13.158,36.828-12.237c15.119,0.856,31.613,9.389,46.16,33.383
							c4.076-13.583,54.762-58.988,94.531-0.248c5.004-15.284,27.557-45.566,62.605-23.362c2.316,5.244,4.699,10.996,4.699,10.996
							c-20.645-15.105-55.385-5.974-64.021,16.758c-0.791,2.778,0.105,4.25,1.133,6.977c10.471,15.654-17.605,14.708-9.025,2.393
							c1.615-2.812,1.791-5.147-0.613-8.914c-6.391-10.006-25.955-22.712-40.514-22.697c-16.805,0.02-35.648,10.782-42.074,20.789
							c-2.373,3.694-2.973,7.424-1.025,10.726c1.398,3.329,0.844,6.074-1.666,8.044c-5.881,4.633-13.037-0.99-10.105-7.959
							c1.893-3.059,1.691-6.855-1.949-12.19c-7.312-10.733-24.652-22.23-39.943-22.23c-21.889,0.054-44.316,15.357-43.182,28.365
							c0.494,5.712-1.105,7.804-5.746,7.062c-5.646-0.926-6.174-6.285-2.086-10.549c0.621-1.391,1.648-4.745-0.125-7.26
							c-22.457-31.731-57.24-23.333-65.311-16.496C-23594.051,7171.866-23583.178,7166.186-23572.285,7166.019L-23572.285,7166.019z
							 M-23593.299,7187.293c8.666,0.242,17.871,6.994,20.725,12.173c2.182-2.167,21.99-11.127,31.248,2.454
							c-24.926-2.399-25.779,24.097-7.385,27.031c-8.938,25.38,28.742,27.713,26.854,3.652c28.092,4.74,25.355-31.059-1.25-27.829
							c14.104-9.836,23.492-6.38,39.961,5.567c5.762-7.189,28.795-13.553,34.156-0.66c-26.207-2.172-22.365,28.327-2.768,28.997
							c-6.264,20.947,32.137,29.49,26.838-2.101c24.438,2.225,21.576-30.922-1.928-28.664c1.857-5.992,25.717-8.092,36,3.613
							c9.844-8.622,20.637-14.442,39.652-1.432c-26.188-4.928-27.223,29.188-2.771,27.645c-2.742,22.55,31.754,23.642,26.529-2.575
							c26.418-6.547,12.549-34.965-6.906-27.616c8.801-10.047,23.283-4.918,29.031-2.726c18.303-20.104,33.527-2.658,33.527-2.658
							c-31.051-3.903-25.201,40.608,5.459,25.134c-0.221,9.124,3.539,17.116,15.889,18.661l14.09,30.774l-417.145-5.872
							l23.844-40.004c2.312,0.781,15.59,2.269,18.773-13.267c27.229,9.261,29.725-22.625,9.359-28.09
							C-23599.006,7187.833-23596.186,7187.208-23593.299,7187.293z M-23609.805,7198.509c2.633,4.429,0.291,7.238-4.398,7.254
							C-23614.203,7205.763-23611.062,7201.391-23609.805,7198.509z M-23266.799,7211.244l2.588,5.718
							C-23267.107,7215.726-23267.439,7214.467-23266.799,7211.244z"/>
					</g>
				</g>
			</g>
		</g>
		<g id="printing-marks-4-9-1-6" >
		</g>
	</g>
	<path id="path147-0-8-1-3-6-2-4-7" d="M137.701,229.804
		c7.819-0.17,11.326-8.975,5.534-15.811c-0.84-0.998-0.926-1.57,0.612-0.613c3.899,2.607,11.375,0.895,11.758-7.076
		c0.474-9.822-13.25-12.652-15.827-2.209c-0.136,1.102-1.031,1.076-0.815-0.486c0.235-4.246,1.562-8.213,3.384-12.082
		c-3.072,0-6.504,0-9.297,0c1.822,3.869,3.148,7.836,3.383,12.082c0.217,1.562-0.68,1.588-0.815,0.486
		c-2.577-10.443-16.3-7.613-15.827,2.209c0.383,7.971,7.859,9.684,11.759,7.076c1.538-0.957,1.451-0.385,0.611,0.613
		c-5.791,6.836-2.285,15.641,5.534,15.811c0,0,0,0,0.009,0H137.701z"/>
	<path id="path147-0-8-1-0-3-83-7-5-7" d="M55.245,33.297
		c7.819,0.17,11.325,8.974,5.534,15.811c-0.84,0.997-0.927,1.569,0.611,0.611c3.899-2.607,11.376-0.894,11.759,7.078
		c0.473,9.821-13.25,12.651-15.827,2.207c-0.136-1.102-1.031-1.076-0.815,0.488c0.234,4.245,1.561,8.213,3.383,12.082
		c-3.071,0-6.504,0-9.296,0c1.821-3.869,3.147-7.837,3.383-12.082c0.216-1.564-0.68-1.59-0.815-0.488
		c-2.577,10.444-16.301,7.614-15.827-2.207c0.383-7.972,7.859-9.686,11.759-7.078c1.537,0.958,1.451,0.386,0.611-0.611
		c-5.791-6.837-2.285-15.641,5.534-15.811C55.238,33.297,55.238,33.297,55.245,33.297L55.245,33.297z"/>
</g>
</svg>
