<?xml version="1.0" encoding="utf-8"?>
<!-- Generator: Adobe Illustrator 16.0.0, SVG Export Plug-In . SVG Version: 6.00 Build 0)  -->
<!DOCTYPE svg PUBLIC "-//W3C//DTD SVG 1.1//EN" "http://www.w3.org/Graphics/SVG/1.1/DTD/svg11.dtd">
<svg version="1.1" id="Layer_1" xmlns="http://www.w3.org/2000/svg" xmlns:xlink="http://www.w3.org/1999/xlink" x="0px" y="0px"
	 width="181px" height="252px" viewBox="0 0 181 252" enable-background="new 0 0 181 252" xml:space="preserve">
<g id="g6708" transform="matrix(0.99553491,0,0,0.99680337,8.5462702,-8.1397402)">
	<path id="rect6367-6" fill="#FFFFFF" stroke="#000000" stroke-width="1.0006" d="M1.572,9.846h161.498
		c4.717,0,8.542,3.82,8.542,8.531v232.387c0,4.71-3.825,8.531-8.542,8.531H1.572c-4.717,0-8.542-3.821-8.542-8.531V18.377
		C-6.97,13.665-3.145,9.846,1.572,9.846z"/>
	<path id="path6399-9" fill="#D40000" d="M6.803,65.824c-1.728-2.855-3.547-5.63-5.82-8
		c2.273-2.37,4.092-5.145,5.82-8c1.729,2.855,3.548,5.63,5.821,8C10.352,60.194,8.533,62.969,6.803,65.824z"/>
	<path id="path6403-1" fill="#D40000" d="M157.839,219.316c-1.728-2.855-3.547-5.629-5.82-8
		c2.273-2.369,4.092-5.145,5.82-8c1.729,2.855,3.548,5.631,5.821,8C161.387,213.686,159.569,216.461,157.839,219.316z"/>
	<path id="path6413-1" fill="#D40000" d="M82.321,153.77c-4.149-6.852-8.514-13.512-13.969-19.2
		c5.455-5.689,9.819-12.348,13.969-19.2c4.149,6.852,8.514,13.511,13.969,19.2C90.835,140.258,86.471,146.918,82.321,153.77z"/>
	<path id="path41-87-9-4-8" fill="#D40000" d="M-1.271,47.316v-2.257h2.153l4.589-24.143h2.611
		l5.055,24.143h1.739v2.257H8.95v-2.257h1.599l-0.639-3.7H3.931l-0.462,3.7h1.6v2.257H-1.271L-1.271,47.316z M9.4,38.723
		L6.801,25.801L4.367,38.723H9.4z"/>
	<path id="path41-8-5-6-1" fill="#D40000" d="M149.765,221.824v2.257h2.153l4.589,24.144h2.611
		l5.054-24.144h1.739v-2.257h-5.926v2.257h1.599l-0.639,3.701h-5.979l-0.462-3.701h1.6v-2.257H149.765z M160.436,230.417
		l-2.599,12.922l-2.434-12.922H160.436z"/>
</g>
</svg>
