<?xml version="1.0" encoding="utf-8"?>
<!-- Generator: Adobe Illustrator 16.0.0, SVG Export Plug-In . SVG Version: 6.00 Build 0)  -->
<!DOCTYPE svg PUBLIC "-//W3C//DTD SVG 1.1//EN" "http://www.w3.org/Graphics/SVG/1.1/DTD/svg11.dtd">
<svg version="1.1" id="Layer_1" xmlns="http://www.w3.org/2000/svg" xmlns:xlink="http://www.w3.org/1999/xlink" x="0px" y="0px"
	 width="181px" height="252px" viewBox="0 0 181 252" enable-background="new 0 0 181 252" xml:space="preserve">
<g id="g7120" transform="matrix(0.99553491,0,0,0.99680337,10.742907,-8.1397611)">
	<path id="rect7234-2" fill="#FFFFFF" stroke="#000000" stroke-width="1.0006" d="M-0.634,9.846h161.498
		c4.717,0,8.542,3.82,8.542,8.531v232.387c0,4.71-3.825,8.531-8.542,8.531H-0.634c-4.718,0-8.542-3.821-8.542-8.531V18.377
		C-9.176,13.665-5.353,9.846-0.634,9.846z"/>

		<path id="path6351-0" fill="#131F67" d="
		M14.819,29.308c0.068,63.498-0.047,141.366,0,210.524h130.603V29.308H14.819z M53.044,30.502c22.54,0.615,45.219-0.05,67.927,0.128
		c0,0-8.25,14.451-10.751,18.999c-0.547,1-0.602,1.709-0.308,2.123c0.457,0.642,0.419,1.727-0.092,2.355
		c-0.219,0.268-0.319,0.443-0.335,0.604c-0.017,0.161,0.128,0.336,0.243,0.627c0.403,1.385-0.639,2.344-1.729,2.789
		c-0.733,0.298-2.361,0.495-3.564,0.438c-7.535-0.36-22.313-6.764-28.402-7.263c-4.226-1.186-9.686-0.771-14.186-0.514
		c-0.849,0.051-0.701-1.941-0.701-1.941C60.435,42.269,55.801,36.541,53.044,30.502z M122.195,31.227h21.559v3.358l-9.125,9.239
		c-0.845,0.863-1.511,1.58-1.511,1.58l-0.053,8.335c-6.11-3.302-7.328-7.246-8.444-11.586c-10.213,7.578-10.691,24.16,0.459,32.697
		c0.091-3.708,2.901-10.995,7.881-11.536l0.069,28.885l-6.124-6.016l-13.315,0.174c2.194-3.582,2.244-6.427,0.824-9.784
		c-2.394-5.485-6.088-18.008-5.804-17.966c0,0,0.106-0.269,0.408-0.337c1.104-0.247,1.806-1.319,1.491-2.607
		c-0.061-0.414-0.058-0.316,0.223-0.855c1.084-1.859-0.208-3.878-0.208-3.878L122.195,31.227z M51.55,31.227l7.993,14.58
		c0,0-0.105,0.666-0.062,1.057c0.063,0.563,0.25,1.064,0.57,1.588c0.212,0.348,0.368,0.822,0.416,1.259
		c0.079,0.721,0.079,0.722,1.128,1.673c0.221,0.2,0.263,0.323,0.181,0.531c-0.347,0.883-0.144,2.687,0.543,4.842
		c0.867,2.722,1.092,2.686-0.524,6.326c-0.337,0.76-0.745,1.774-1.183,2.708c-1.994,4.12-2.302,5.236,1.121,7.433
		c0.963,0.618,1.246,1.154,1.004,2.387c-0.188,0.968-0.228,1.587,0.235,2.134c0.3,0.355,0.572,0.412,0.497,0.686
		c-0.052,0.186-0.276,0.991-0.201,1.669c0.202,1.826-1.895,4.515-3.809,5.458c-0.383,0.273-0.492-0.061-0.709-0.442
		c-1.982-3.492-6.918-2.077-7.245,2.088c-0.086,1.101-0.053,1.579-0.335,1.813c-0.096,0.079-0.386,0.244-0.386,0.244
		s-7.385,4.83-12.083,7.313c-0.306,0.162-0.581,0.428-0.797,0.472c-0.25,0.051-0.436,0.005-0.59-0.151
		c-1.734-3.317-0.773-7.234-0.624-8.622c-0.038-0.493-0.456-0.582-1.087-0.589c-1.067-0.013-2.604,1.077-2.939,2.092
		c-0.283,0.862-0.466,1.422-0.724,1.418c-0.259-0.004-0.386-0.352-1.029-1.596c-1.338-2.588-1.545-2.917-2.796-4.42
		c-0.999-1.198-1.849-1.358-2.827-0.464c-0.681,0.621-0.658,0.081-1.237-0.232c-1-0.684-2.501-0.072-2.538,0.891
		c-0.031,0.808-0.038,1.415-0.851,1.469c-0.906,0.059-1.299,1.235-1.044,2.913c0.133,0.883,0.161,1.025-0.108,1.348
		c-0.876,1.055-0.991,1.784-0.508,3.257c1.373,4.2,3.364,7.027,5.234,10.846c0,0-4.617,2.712-7.438,4.288V31.227H51.55z
		 M143.897,35.43l0.112,67.879l-10.2-10.082c0,0-0.199-13.008-0.188-18.326c0.01-5.318,0.086-10.636,0.066-11.624
		c-0.022-0.989,0.052-5.197,0.084-9.518c0.067-9.05-0.756-7.932,0.916-9.669L143.897,35.43z M123.963,43.569l0.563,1.638
		c-4.275,2.464-9.503,16.187,0.096,26.263l-0.192,2.076C114.367,64.368,116.229,51.205,123.963,43.569z M124.695,45.504
		c1.467,3.045,3.137,5.741,5.412,7.391c-1.225,2.942-1.752,6.187,0.324,10.563c-1.456,0.804-3.479,2.937-5.574,7.306
		C117.282,63.068,118.968,51.912,124.695,45.504z M68.34,51.257c4.2,0.007,8.583,0.696,12.599,1.913
		c2.533,12.879,6.982,21.538,6.964,26.58c0,0-0.35-0.059-1.098-0.601c-1.83-1.328-4.233-0.587-5.52,1.104
		c-1.219,1.604,0.009,3.834-0.616,4.768c-1.184,1.744-4.228,4.968-4.738,4.861c-0.371-0.077-0.311-0.24,0.994-2.254
		c1.36-2.097,2.401-3.997,1.953-4.463c-0.19-0.197-0.291,0.219-1.306,1.992c-2.381,4.158-4.475,6.73-5.304,6.394
		c-0.388-0.156-0.187-0.501,1.575-2.843c1.991-2.645,2.544-4.3,2.345-5.032c-0.152-0.562-0.459,0.347-1.286,1.972
		c-0.881,1.72-2.473,3.637-3.76,5.477c-0.408,0.665-0.932,1.051-1.602,1.355c-0.497,0.217-1.289,0.571-1.749,0.511
		c-0.235-0.03-0.073-0.169,0.251-0.488c2.54-2.63,4.723-5.563,5.962-8.378c0.191-0.369-0.083-0.894-0.396-0.507
		c-1.901,3.362-4.547,7.558-7.419,9.409c-0.617,0.397-1.544,0.733-2.381,0.662c-1.415-0.041-0.914-0.358,0.374-1.189
		c2.756-1.781,6.624-6.901,7.249-8.711c0.147-0.428-0.017-0.672-0.289-0.643c-2.268,3.648-5.264,7.663-8.747,9.342
		c-1.878,0.905-4.245,1.084-5.408,0.511c-0.853-0.419-0.64-0.563,0.874-0.662c3.642-0.362,7.909-3.799,10.022-7.437
		c1.238-2.014,0.369-1.552-1.044,0.391c-2.411,3.316-7.199,6.495-10.168,6.245c-3.003-0.179-4.73-2.519-4.345-4.524
		c0.233-1.214,1.09-2.45,2.769-2.805c2.876-0.607,4.759,3.975,2.127,4.838c-0.897,0.295-1.238,0.072-0.913-0.29
		c1.953-0.859,1.085-3.218-0.562-3.459c-1.036-0.152-2.238,0.551-2.288,2.165c0.029,1.204,1.015,2.382,2.992,2.41
		c2.344,0.033,5.942-1.664,8.124-4.788c1.549-2.388,0.122-1.582-1.032,0.011c-1.019,1.406-4.31,3.373-4.561,3.301l0.112-1.619
		c0.051,0.28,5.067-3.173,4.773-5.744c-0.188-1.866,0.082-2.437,2.014-2.413c1.444,0.017,3.279,0.526,3.813,1.192
		c0.55,0.659,1.167,0.867,0.894-0.244c-0.442-1.803,0.088-2.1-0.951-1.759c-0.718,0.236-1.354-0.343-2.073-0.855
		c-0.791-0.565-1.791-0.806-2.985-0.763c-0.892,0.032-1.295-0.023-1.152-0.868c0.1-0.597,0.214-1.139,0.042-1.53
		c-0.28-0.636-1.396-1.292-2.657-2.227c-1.49-1.103-1.214-1.169,1.96-8.526c1.333-3.089,1.338-3.723,0.54-6.004
		c-1.263-3.604-1.462-5.047,0.904-5.551C65.558,51.331,66.939,51.255,68.34,51.257L68.34,51.257z M81.778,53.345l1.228,0.353
		c0.01,0.001,3.836,13.172,6.029,19.604c0.668,1.962,1.177,4.613,1.305,7.104c-0.059,3.43-1.98,5.89-4.321,6.159
		c-1.658,0.19-3.456-0.674-4.28-2.53c-0.695-1.764-0.171-3.845,1.83-4.562c3.463-1.243,5.999,3.202,2.603,4.57
		c-1.757,0.708-3.425-0.568-2.635-2.052c0.555-1.041,2.116-0.929,2.485,0.147c0.301,1.144,0.798,0.604,0.586-0.17
		c-0.644-2.47-3.799-1.888-4.052,0.387c0,2.819,3.068,3.481,4.9,1.898c1.418-1.265,1.568-3.551,1.212-5.535
		c-0.487-4.12-2.805-9.464-4.452-15.563C83.394,60.108,82.203,56.476,81.778,53.345L81.778,53.345z M130.669,53.492l2.308,0.918
		l-0.054,7.647l-1.956,0.678C128.406,58.8,130.535,53.496,130.669,53.492L130.669,53.492z M83.904,53.988l1.691,0.655
		c0.926,5.397,5.292,15.714,6.833,23.415c0.43,4.628,0.498,5.987-2.619,8.453v-0.035h-1.687c0,0-0.008-0.104,0.732-0.658
		c4.083-3.07,1.646-9.837,0.104-15.037C86.271,62.475,83.872,53.978,83.904,53.988L83.904,53.988z M68.1,54.526
		c-0.214,0.003-0.432,0.012-0.65,0.024c-2.55,0.137-2.969,0.302-2.977,0.859c-0.016,1.051,0.412,1.518,2.784,1.259
		c2.053-0.222,5.027,0.098,7.077,0.985c2.337,1.011,2.892,1.25,3.732,1.685c2.109,1.091,1.74,0.005-0.166-1.256
		C74.005,55.507,71.314,54.487,68.1,54.526L68.1,54.526z M86.501,54.898l1.587,0.608c0,0,0.419,1.244,0.57,1.956
		c1.544,6.89,5.744,14.639,6.236,22.699c0.111,2.641-0.339,5.104-2.265,6.295h-1.452c1.553-1.553,2.587-2.001,2.153-7.399
		C92.642,72.126,88.096,63.465,86.501,54.898z M89.316,56.018l1.464,0.543c1.685,9.304,10.042,23.207,4.722,29.915h-1.328
		c1.186-1.861,1.675-3.497,1.498-6.007C95.155,72.013,90.866,63.807,89.316,56.018L89.316,56.018z M91.769,56.874l1.575,0.484
		c2.139,9.428,10.358,24.876,4.5,29.149l-1.156-0.031C101.103,78.176,94.411,69.589,91.769,56.874z M94.516,57.753
		c0.484,0.271,1.175,0.401,1.702,0.555c1.658,7.128,4.689,14.138,6.067,20.777c0.464,3.635-0.329,6.356-2.6,7.391H99.2
		c2.037-3.094,1.653-6.997,0.566-11.214C98.303,69.589,95.463,63.351,94.516,57.753z M69.695,57.877
		c-0.732-0.007-1.498,0.105-2.307,0.364c-0.83,0.314-0.728,0.972,0.042,0.837c0.261-0.046,0.723-0.128,1.028-0.182
		c1.89-0.331,4.219,0.354,7.041,2.072c0.682,0.415,1.422,0.815,1.607,0.953c0.518,0.389,1.071,0.387,0.882-0.109
		c-0.077-0.199-1.164-1.046-2.127-1.588C73.803,58.973,71.891,57.898,69.695,57.877L69.695,57.877z M97.193,58.497l1.587,0.244
		c2.985,13.795,9.537,22.367,3.933,27.486h-1.402c1.533-1.575,2.226-4.041,1.718-6.957c-0.519-2.976-2.048-7.699-3.317-11.853
		C98.242,62.602,97.058,58.53,97.193,58.497L97.193,58.497z M99.469,58.884l1.345,0.252c1.574,5.608,4.248,12.559,5.858,18.349
		c0.99,3.561,0.592,7.946-1.618,8.755l-1.136,0.02c1.876-2.521,2.143-5.146,1.286-8.542
		C103.446,70.748,100.783,64.666,99.469,58.884z M107.766,58.892c1.359,5.814,4.618,14.683,5.79,17.744
		c1.559,3.127,1.091,7.758-1.252,9.591l-1.109,0.024c1.34-1.261,1.8-3.383,1.587-5.582c-0.603-6.216-4.978-14.837-6.563-21.459
		L107.766,58.892z M101.869,59.167l1.386,0.127c1.389,6.081,4.091,11.991,5.843,18.074c0.327,1.373,0.611,3.05,0.497,4.284
		c-0.24,2.587-1.306,4.628-2.242,4.628h-0.955c1.952-2.338,1.856-5.525,1.021-8.951C106.039,71.667,102.701,64.84,101.869,59.167z
		 M65.766,59.198c-0.577,0.003-0.588,0.535,0.335,1.348c0.565,0.498,0.522,0.332,0.489,0.647c-0.137,1.347,0.074,2.58,0.624,1.193
		c0.147-0.37,0.362-0.788,0.578-0.736c0.407,0.126,0.2,0.879,0.396,1.259c0.333,0.671-0.021,0.835-0.828,0.628
		c-0.581-0.15-0.614,0.167-0.975,0.569c-0.631,0.704-0.528,1.126,0.443,0.906c0.16-0.036,0.296,0.01,0.42,0.038
		c0.303,0.071,0.581,0.264,1.303,0.818c0.927,0.711,2.24,1.66,3.092,1.805c1.365,0.232,1.06-0.425-0.057-0.856
		c-0.958-0.368-2.146-1.393-2.142-1.677c0-0.217,0.304-0.088,2.031-0.565c0.748-0.207,1.802-0.67,2.245-0.875
		c0.733-0.34,0.767-0.337,1.914-0.303c1.954,0.059,2.252-0.008,0.883-1.031c-2.768-2.065-6.461-3.409-8.42-2.552
		c-0.593,0.26-0.58,0.101-1.008-0.147C66.527,59.343,66.069,59.197,65.766,59.198L65.766,59.198z M105.386,59.384
		c1.919,7.433,5.63,14.092,6.533,21.142c0.204,2.016-0.132,3.986-1.799,5.69l-1.125,0.02c-0.165,0.003,1.57-2.695,1.421-5.004
		c0.045-1.232-0.09-2.554-0.439-3.858c-2.18-6.268-4.326-11.949-5.994-17.924L105.386,59.384z M70.861,61.841
		c0.437,0.08,0.441,0.292,0.298,0.549c-0.226,0.406-0.624,1.185-0.624,1.185s-0.531,0.105-0.64-0.031
		c-0.18-0.263,0.432-1.523,0.783-1.7C70.737,61.811,70.802,61.83,70.861,61.841L70.861,61.841z M72.067,62.064
		c0.059-0.001,0.13,0.029,0.243,0.073c0.502,0.2,1.374,0.609,0.998,0.926c-0.446,0.375-2.176,0.544-2.092,0.388l0.579-1.074
		C71.917,62.15,71.971,62.066,72.067,62.064z M66.771,68.561c-0.044,0.002-0.082,0.013-0.111,0.03
		c-0.101,0.061,0.127,0.464,0.458,0.922c1.529,2.076-0.589,2.692-2.088,1.58c-1.423-1.113-3.622-1.008-3.304,0.16
		c0.111,0.411,0,0.611,0.797,0.623c0.706,0.011,0.889,0.05,1.525,0.488c2.436,1.675,5.582-0.567,4.044-2.97
		C67.802,68.939,67.084,68.542,66.771,68.561z M72.78,71.802c-0.884,0-1.443,0.663-0.335,0.862c3.955,0.714,1.303,4.838-1.487,2.713
		c-2.514-2.282-5.877-2.266-5.917-0.647c-0.008,0.408,0.014,0.421,0.609,0.535c1.401,0.265,3.493,0.906,4.295,1.313
		c0.471,0.239,0.966,0.462,1.102,0.496c1.675,0.612,3.824-0.183,4.248-1.602C75.685,74.173,75.371,71.802,72.78,71.802z
		 M23.165,85.073c0.53,0.006,1.093,0.472,1.495,1.154c0.928,1.576,2.056,4.225,2.776,5.686c0.182,0.368,0.189,0.697,0.178,0.872
		c0.057,0.856,0.342,1.18,0.848,0.794c0.497-0.379,1.186-1.013,0.378-1.115c-0.813-0.616-1.266-1.521-0.763-2.073
		c0.371-0.406,0.226-0.669-0.073-0.685c-1.14-0.018-2.838-3.426-2.037-4.161c1.08-0.99,2.275,0.236,4.818,5.311
		c1.12,2.241,1.172,4.693,0.212,3.478c-0.327-0.306-0.26-0.147-0.643,0.818c-0.287,0.725-0.524,1.069-1.621,2.13
		c-1.336,1.292-2.146,2.313-2.177,2.537c-0.058,0.428,0.722,0.028,1.291-0.717c1.269-1.247,1.317-1.579,1.306,0.074
		c-0.011,1.495-0.087,1.768,0.18,1.759c0.418-0.016,0.642-1.199,0.836-2.627c0.233-1.285,0.898-1.934,2.003-2.65
		c0.304-0.196,0.309-0.331,0.251-0.898c-0.204-1.816,0.822-5.203,1.29-4.366c0.066,0.189,0.269,0.629,0.378,0.938
		c0.087,0.478,0.386,1.018,0.844,1.054c0.568,0.427,0.566,0.658,0.762,2.223c0.064,0.511,0.289,1.278,0.447,1.685
		c0.293,0.758,0.556,1.203,0.393,1.429c-0.104,0.112-0.324,0.321-0.324,0.321l-9.26,5.52c0,0-0.727,0.405-0.99,0.515
		c-0.734,0.333-1.18,0.087-1.541-0.464c-1.962-2.939-3.309-6.241-4.687-9.286c-0.828-1.807-0.018-3.003,1.052-1.545
		c0.415,0.566,0.202,0.928,0,2.022c-0.038,0.198,0.145,0.122,0.489,0.178c0.54-0.059,0.801,0.427,0.782,1.251
		c-0.341,1.181,0.13,0.543,0.354,0.484c0.428,0.006,0.524,0.265,0.763,0.755c0.149,0.692,0.452,0.491,0.894,0.034
		c0.365-0.376,0.366-0.367-0.37-1.251c-1.271-1.384-3.033-4.511-3.49-6.414c-0.126-0.525-0.079-0.944,0.016-1.225
		c0.574-1.3,1.373-1.304,2.245,0.511c0.148,0.31,0.44,0.807,0.647,1.108c0.334,0.488,0.542,0.906,0.531,1.681
		c-0.257,0.65-0.299,0.662-0.077,0.751c0.553,0.219,1.535,1.225,1.579,2.123c0.045,0.913,0.199,1.398,0.913,0.856
		c0.814-0.618,0.468-0.866-0.335-1.659c-0.841-1.007-0.892-1.88-0.393-2.607c0.082-0.244,0.048-0.313-0.261-0.282
		c-0.977,0.095-1.928-1.149-1.249-2.096c0.313-0.555,0.277-0.698-0.166-0.713c-0.23-0.008-0.61,0.036-0.797-0.07
		c-0.289-0.545-0.893-1.306-0.887-1.929c0.285-0.876,0.728-1.23,1.195-1.224H23.165z M81.2,85.119c1.606,0.99,3.196,2.021,5,2.49
		c-4.18,7.571-10.902,11.628-16.528,13.213c0.191,0.969,0.328,1.935,1.26,2.53c-0.031-0.147-0.445-1.866-0.354-2.22
		c7.749-1.99,14.572-9.625,16.316-13.561l34.057-0.372c-25.247,24.356-26.254,58.635-5.654,87.368l-2.369,1.391
		c-15.874-23.91-15.712-46.948-10.951-62.376c3.376-10.938,9.434-19.295,14.036-24.07c0,0-18.465-0.256-27.656,0.085
		c-1.335,2.054-2.577,3.732-4.372,5.67c0,0,4.67-4.535,4.55-5.322c8.518-0.005,17.301-0.5,25.807,0.097
		c-9.954,11.979-14.86,24.346-15.712,35.98c-0.031,1.514-0.123,0.668-0.62,1.225l-1.571,2.452l-1.26-2.549
		c-0.856-0.278-2.54,0.17-3.255-0.089c-3.502,15.712,0.037,34.673,4.646,47.048c0,0-1.158,0.651-2.581,0.543
		c-1.559-0.349-1.939,0.084-3.289,0.359c-1.553,0.298-2.095,0.296-2.439,0.69c-0.191,0.219-0.538,0.527-0.928,0.741
		c-3.783,1.381-8.22,6.562-8.22,6.488l-4.164-1.879c3.836-7.575,8.339-10.302,16.255-13.665L90.468,164
		c-8.43,3.159-13.796,6.94-18.027,14.286c-5.133-0.074-25.928-0.221-25.95-0.155c8.482-9.701,15.169-24.332,15.9-35.737
		c0.18-2.222-0.129-1.154,0.848-1.816l1.537-1.84l1.206,1.812c0,0,0.873,1.117,1.425,0.186c1.547-15.907-0.089-34.045-7.711-46.688
		c1.352-0.09,2.699-0.127,3.994,0.643c2.981,6.789,4.738,15.176,5.5,21.463c0.965,7.957,0.829,16.933-0.154,24.555l0.508,0.071
		c1.486-9.906,0.983-20.441-0.381-29.649c-0.7-4.803-2.954-12.317-4.503-15.785c-0.429-0.958-0.761-1.206-0.355-1.348
		C73.594,93.212,77.864,90.095,81.2,85.119L81.2,85.119z M55.447,85.956c0.711,0,1.287,0.579,1.287,1.294
		c0,0.714-0.576,1.293-1.287,1.293c-0.71,0-1.286-0.579-1.286-1.293C54.161,86.535,54.737,85.956,55.447,85.956z M125.258,86.614
		c-2.72,2.476-4.905,5.041-7.199,7.775c6.792,9.393,14.34,19.575,20.688,27.711c0,0,2.196-1.309,2.188-1.471
		c-0.008-0.086-0.176-0.518-0.216-0.422c-0.094,0.225-1.779,1.174-1.779,1.174l-20.087-26.511c0,0,1.089-1.311,1.425-1.724
		c1.561-0.515,5.903-5.925,6.116-5.814c3.403,2.622,13.665,13.733,17.618,17.14l0.051,30.846
		c-0.409,1.234-11.35,5.989-19.078,23.734c-3.886,2.189-8.191,3.366-12.194,5.271c0,0,1.019,1.613,1.518,2.053
		c-0.612-1.328-0.72-1.583,0.666-2.149l28.915-11.854l-0.053,2.394c-2.9,2.255-22.075,16.206-27.973,19.5
		c-27.667-38.791-10.03-71.961,6.095-87.473L125.258,86.614z M35.16,88.71c0.754,0.013,0.564,1.774,0.284,2.383
		c-0.557,0.441-1.113,0.049-1.102-0.775c0-0.268-0.048-0.522-0.116-0.565C33.809,89.484,34.509,88.701,35.16,88.71z M52.058,89.81
		c0.636,0.486,0.871,1.132,1.105,1.778c-0.857-0.135-3.153-0.797-2.076-1.313L52.058,89.81z M47.878,92.1
		c19.955,30.349,19.062,62.581-3.209,87.015l28.177-0.043c3.586-7.117,9.56-11.455,17.206-14.127l0.666,2.236
		c-8.786,2.837-13.231,7.538-16.767,14.053H40.347c12.911-13.968,18.825-25.77,19.756-41.733
		c0.887-15.202-2.96-29.087-14.641-45.792L47.878,92.1z M53.502,92.449l4.707,2.235l-0.696,4.857l-4.93-2.285L53.502,92.449z
		 M45.017,93.812c25.166,38.285,14.373,65.215-5.721,87.626l-3.701,0.063l-8.628-8.061l0.158,48.981c0,0-8.413,8.286-9.379,9.28
		c-0.954,0.925-1.672-0.496-1.672-0.496l0.024-64.93l0.374-2.545l0.116-13.992l5.361-2.843l20.106,26.503
		c0,0-0.807,1.197-1.182,1.411c0.429,0.964,1.855-1.442,1.976-1.828c-7.293-9.088-20.854-26.879-20.854-26.879l-5.646,2.963
		c0,0,0.164-11.615,0.062-16.074c0.217-1.052,1.001-0.77,1.529-1.24c7.343-4.798,13.397-11.688,18.546-23.446
		c3.913-1.281,8.019-3.1,11.949-4.734l-5.659-8.541L45.017,93.812z M29.594,94.3c-0.212-0.003-0.752,0.244-1.483,0.91
		c-1.349,1.23-3.125,3.253-3.131,3.637c0.361,0.131,0.682-0.077,0.971-0.371c1.128-1.674,2.871-2.33,3.893-3.796
		C30.003,94.408,29.836,94.296,29.594,94.3z M42.27,96.078c0,0,3.905,5.719,4.904,7.239c-10.289,4.097-21.055,9.508-30.591,13.007
		v-2.293C16.583,114.031,34.492,100.528,42.27,96.078z M57.578,99.858l3.848,2l-1.087,4.366l-3.883-2.185L57.578,99.858z
		 M60.751,107.121l3.163,2.316l-1.444,3.703l-3.186-2.204L60.751,107.121z M34.948,109.837c0,0-0.488,1.716-1.307,3.254
		c-3.913,6.837-7.742,12.913-15.653,18.19c-0.301-0.269-1.163-1.786-1.163-1.786l-0.077-2.026
		c4.194-3.388,7.814-5.875,13.369-15.819l1.61-0.658l1.371,0.597l0.929-1.666L34.948,109.837z M51.407,109.852
		c-3.645,7.779-7.233,15.801-13.043,21.863l15.897,22.314C59.491,138.273,57.55,123.507,51.407,109.852z M31.404,111.549
		l-0.762,1.328l1.321,0.767l0.762-1.328L31.404,111.549z M29.247,111.692c-2.88,6.476-7.202,11.458-12.876,15.041l-0.22-9.502
		L29.247,111.692z M30.26,113.625l-0.762,1.328l1.32,0.767l0.763-1.328L30.26,113.625z M62.75,113.904l2.866,2.734l-1.703,3.017
		l-2.939-2.443L62.75,113.904z M106.653,115.248c0,0.002-0.008,0.005-0.008,0.008c-5.036,15.743-3.525,30.779,3.385,43.867
		c3.39-8.484,6.173-14.162,12.792-23.193C118.747,130.563,107.062,115.078,106.653,115.248L106.653,115.248z M29.135,115.5
		l-0.8,1.305l1.298,0.806l0.801-1.306L29.135,115.5z M51.11,117.336c4.54,10.915,4.14,20.755,1.725,29.285l-11.34-14.406
		C45.65,127.028,48.41,122.118,51.11,117.336z M27.965,117.375l-0.859,1.266l1.26,0.868l0.859-1.271L27.965,117.375z
		 M26.698,119.187l-0.94,1.213l1.202,0.944l0.94-1.212L26.698,119.187z M64.056,120.478l2.569,2.451l-1.621,3.18l-2.607-2.397
		L64.056,120.478z M25.214,121.074l-0.986,1.166l1.159,0.991l0.986-1.166L25.214,121.074z M108.044,121.418l11.44,14.843
		c-3.828,4.581-7.007,9.977-9.85,15.793C106.447,142.01,105.008,132.142,108.044,121.418z M23.609,122.921l-1.055,1.108l1.102,1.062
		l1.055-1.108L23.609,122.921z M50.332,124.405l-5.235,7.611l6.001,7.705C51.744,135.55,51.889,130.709,50.332,124.405z
		 M21.902,124.653l-1.124,1.037l1.032,1.132l1.124-1.038L21.902,124.653z M20.25,126.136l-1.187,0.969l0.963,1.192l1.183-0.968
		L20.25,126.136z M64.957,126.923l2.15,2.526l-2.181,2.599l-2.041-2.309L64.957,126.923z M92.282,127.376l1.46,0.055
		c-2.394,23.749,2.311,35.764,6.474,46.216c0,0-0.009,0.417-0.149,0.541c-0.679,0.235-2.051,0.49-3.151-0.484
		C91.315,159.225,90.093,141.391,92.282,127.376L92.282,127.376z M18.327,127.682l-1.236,0.898l0.894,1.243l1.236-0.898
		L18.327,127.682z M109.824,128.527c-0.372,0-0.695,9.77,0.704,14.541l5.266-7.173L109.824,128.527z M96.211,130.137l1.76,2.379
		l-1.868,2.56l-1.911-2.425L96.211,130.137z M16.899,130.785c0.088-0.015,0.232,0.233,0.516,0.429
		c0.263,0.277,0.225,0.257-0.07,0.493c-0.461,0.368-0.598,0.31-0.59-0.267C16.795,130.964,16.829,130.796,16.899,130.785
		L16.899,130.785z M65.061,132.57l1.945,2.801l-2.153,2.785l-1.841-2.932L65.061,132.57z M96.057,136.118l2.049,2.51l-1.761,2.755
		l-2.238-2.629L96.057,136.118z M143.503,136.649l0.181,2.894l-0.709-1.058l-1.302,1.003l0.909,1.213l1.136-0.892l0.07,1.166
		c-7.217,5.245-10.33,11.27-13.257,15.789l-1.303,0.555l-1.483-0.472l-0.724,1.289l-1.26,0.298
		c-0.038-0.008,2.529-5.537,6.922-11.167C136.596,142.255,143.484,136.604,143.503,136.649L143.503,136.649z M144.339,141.177
		l0.062,10.289l-12.915,5.016C134.838,150.739,138.79,145.409,144.339,141.177z M141.13,139.927l-1.178,0.972l1.016,1.174
		l1.175-0.972L141.13,139.927z M139.317,141.475l-1.136,1.019l1.058,1.134l1.137-1.025L139.317,141.475z M96.188,142.045
		l2.435,2.606l-1.783,3.08l-2.535-2.443L96.188,142.045z M137.482,143.14l-1.066,1.097l1.167,1.127l1.066-1.095L137.482,143.14z
		 M135.804,144.872l-1.025,1.138l1.24,1.082l1.025-1.138L135.804,144.872z M134.117,146.814l-0.952,1.199l1.29,1.003l0.952-1.203
		L134.117,146.814z M97.023,148.658l3.043,1.987l-1.486,3.641l-3.039-2.328L97.023,148.658z M132.645,148.672l-0.894,1.248
		l1.375,0.944l0.904-1.289L132.645,148.672z M131.27,150.641l-0.829,1.289l1.391,0.899l0.824-1.332L131.27,150.641z
		 M130.041,152.589l-0.762,1.328l1.44,0.825l0.763-1.344L130.041,152.589z M128.931,154.603l-0.762,1.328l1.595,0.694l0.632-1.266
		L128.931,154.603z M98.672,155.424l3.115,2.124l-1.378,3.815l-3.29-2.34L98.672,155.424z M143.753,159.178v78.638h-34.049
		c0,0-1.605-2.849-4.962-9.407c-1.421-2.776-2.623-3.956-2.747-6.154c0.129-1.291-0.465-2.757-1.518-3.347
		c-0.353-0.198-0.945,0.041-0.747-0.511c0.218-0.609-0.449-1.544-0.632-1.744c-0.207-0.351-0.077-0.437-0.1-1.746
		c-0.022-1.266-0.088-1.795-0.358-2.751c-0.682-2.414-0.833-3.621-0.443-4.873c1.014-3.176,2.07-5.612,3.436-8.572
		c0.795-1.732,0.674-2.41-1.764-3.668c-1.826-0.942-2.068-0.933-1.837-2.308c0.108-0.645,0.208-1.052,0.073-1.364
		c-0.082-0.19-0.385-0.457-0.562-0.607c-0.238-0.206-0.167-0.629,0.077-0.942c0.239-0.308,0.241-0.749,0-1.483
		c-0.498-1.546,0.63-3.594,2.761-5.008c0.943-0.625,0.916-0.496,1.899,0.543c2.873,3.033,7.141,1.127,7.149-3.151
		c0-1.332-0.449-1.254,0.805-1.881c4.25-2.72,12.973-7.667,12.915-7.532c0.568,1.166,0.758,2.159,1.117,3.413
		c0.31,1.076,0.269,1.158,0.153,3.251c-0.104,1.891-0.161,2.33,0.282,2.451c2.518,0.278,3.092-0.617,3.575-2.249
		c0.209-0.723,0.61-0.576,0.859-0.272c0.958,1.754,2.17,3.576,2.965,4.822c0.995,1.593,2.67,2.383,3.548,1.632
		c0.184-0.619,0.336-0.639,1.448-0.384c1.349,0.308,2.116-0.451,2.245-1.448c0.052-0.398-0.236-0.382,0.486-0.776
		c1.79-1.332,1.108-3.153,0.84-4.248c0.024,0.057,0.765-0.455,0.782-1.481c0.085-5.328-4.505-12.999-4.402-12.801L143.753,159.178z
		 M100.54,162.246l3.644,1.769l-0.859,4.377l-3.744-1.693L100.54,162.246z M135.996,163.873c2.098,2.447,3.616,6.527,4.399,9.184
		c0.386,1.325,0.434,2.835,0.088,3.045c-0.34,0.208-0.499-0.016-0.435-0.805c0.053-0.66,0.073-1.17-0.208-1.162
		c-0.815,0.212-0.847-1.031-0.763-1.321c0.056-0.196,0.156-0.333,0.2-0.439c0.201-0.48-0.324-0.415-0.867-0.421
		c-0.48,0.012-0.604-0.282-0.581-0.741c-0.014-0.507-0.683-0.41-1.063-0.023c-0.348,0.353-0.275,0.768,0.196,1.058
		c0.677,0.417,1.316,1.44,2.893,4.973c0.915,2.051,0.644,3.507-0.446,3.49c-0.756-0.022-1.638-2.104-2.35-3.641
		c-0.183-0.396,0.278-0.841,0.439-1.054c0.419-0.551,0.355-0.727-0.266-0.735c-0.582-0.01-0.828,0.043-1.179-0.678
		c-0.131-0.272-0.227-0.686-0.18-0.95c0.299-0.794-0.316-0.986-0.913-0.68c-0.752,0.315-0.746,0.989,0.4,2.095
		c0.74,1.219,0.546,1.134-0.153,1.955c-0.147,0.29-0.059,0.468,0.25,0.474c0.888-0.274,1.855,1.334,1.59,1.885
		c-0.272,0.237-1.015,1.095-0.296,0.931c1.462-0.4,2.352,1.752,1.491,2.483c-1.285,0.649-1.589,0.445-3.567-3.529
		c-0.614-1.234-1.354-2.561-1.445-2.696c-0.09-0.135-0.13-0.5-0.127-0.794c0.086-0.719-0.219-0.882-0.84-0.598
		c-0.467,0.114-0.888,0.498-0.296,0.864c0.689,1.197,0.933,1.389,0.554,1.693c-0.862,0.692-0.489,0.662,0.478,0.856
		c0.473,0.143,0.713,0.388,0.844,0.682c0.498,1.127,1.383,2.718,1.471,3.041c0.292,0.827-0.236,1.197-0.959,1.162
		c-0.757,0.018-1.104-0.584-1.471-1.097c-1.376-1.922-2.367-3.827-3.771-6.011l0.188-2.042c0,0,0.368,0.08,0.574-0.018
		c0.404-0.196,0.644-0.835,0.874-1.681c0.37-0.739,2.548-2.416,3.382-3.317c0.154-0.102,0.283-0.268,0.285-0.37
		c-0.009-0.331-0.946-0.11-1.565,0.603c-0.908,0.811-1.296,0.533-1.267-0.504c-0.088-1.279-0.865-0.639-0.904,0.611
		c-0.1,0.988-0.441,1.589-1.129,2.144c-1.297,1.042-1.081,0.778-1.02,2.226c0.105,2.526-0.864,4.605-1.498,3.227
		c-0.226-0.488-0.489-1.044-1.055-1.07c-0.402-0.018-0.6-0.411-0.821-1.389c-0.329-1.581-0.787-2.6-1.206-4.056L135.996,163.873z
		 M103.699,169.314l4.198,1.681l-0.786,4.416l-4.16-1.599L103.699,169.314z M135.711,169.721c-0.027,0.002-0.061,0.008-0.096,0.023
		c-1.183,0.899-2.274,1.906-3.563,2.68c-0.484,0.286-1.048,1.029-1.052,1.229c0,0.192,0.574,0.188,1.136-0.059
		c0.535-0.235,3.579-3.11,3.582-3.374C135.928,169.988,135.909,169.708,135.711,169.721z M97.158,175.082
		c0.994-0.002,0.414,0.294-1.752,1.805c-2.115,1.475-5.6,6.141-6.005,7.871c-0.183,0.786,0.313,0.848,0.871-0.231
		c2.567-4.963,7.425-9.499,11.871-9.297c2.179,0.098,3.355,0.69,1.552,0.948c-4.943,0.611-8.637,3.447-11.871,9.095
		c0,0.127,0.293,0.121,0.632-0.096c2.96-3.639,6.295-8.459,12.153-8.069c4.225,0.257,5.426,5.31,1.918,7.034
		c-3.058,1.503-5.878-2.159-3.343-4.33c0.823-0.705,1.337-0.396,0.547,0.325c-1.697,1.548,0.383,4.303,2.449,3.257
		c1.258-0.529,1.767-2.34,0.658-3.705c-2.466-3.041-7.777-0.729-11.478,4.183c-0.387,0.515-0.724,1.638-0.396,1.519
		c0.574-0.239,0.921-0.692,1.26-1.201c1.321-1.844,2.336-2.767,4.125-3.758c1.382-0.764,1.467-0.621,0.952,0.705
		c-0.218,0.558-0.391,0.745-0.928,1.091c-2.254,1.548-3.654,3.623-3.71,4.944c-0.041,0.964,0.661,2.224-0.1,2.483
		c-1.291,0.613-4.812,0.114-5.762-1.107c-0.684-0.878-0.95-0.37-0.436,1.056c0.338,0.942,0.324,1.475,0.836,1.379
		c0.647-0.345,1.091-0.263,2.345,0.427c0.605,0.331,1.677,0.643,2.331,0.794c1.191,0.276,1.44,0.159,1.414,0.678
		c-0.008,0.159,0.047,0.605,0.011,0.888c-0.193,1.56,1.104,2.091,2.87,3.117c1.032,0.6,0.625,1.217-0.57,4.187
		c-0.622,1.344-1.152,3.153-1.919,4.516c-0.716,1.534-0.778,3.211-0.316,5.126c0.857,3.55,1.473,5.353-0.054,5.674
		c-3.931,0.598-12.616,0.574-17.356-1.26c-1.212-9.15-7.638-22.729-6.814-26.238c1.644,2.492,8.54,1.832,6.463-5.138
		c0,0,0.564-0.85,1.686-1.995c2.895-2.953,3.609-3.441,2.235-0.841c-1.056,1.999-2.404,4.608-2.435,5.114
		c-0.024,0.402,0.288,0.496,0.532,0.174c0.18-0.239,0.394-0.819,0.582-1.26c1.724-4.06,4.674-7.722,6.706-8.604
		c0.524-0.225,0.497,0.016,0.135,0.462c-2.392,2.992-4.218,5.759-5.516,9.37c-0.058,0.372,0.467,0.527,0.636,0.174
		c2.242-4.728,2.913-5.8,5.67-9.131c1.083-1.309,2.091-1.969,2.896-1.897c0.696,0.061,0.49,0.176-0.154,0.866
		c-0.491,0.529-1.219,1.262-2.395,2.751c-2.075,2.626-4.162,6.897-3.393,6.674c0.131,0.357,0.787-0.78,1.34-1.863
		c1.517-2.559,3.127-5.943,6.728-8.167C95.61,175.27,96.432,175.09,97.158,175.082L97.158,175.082z M27.51,175.907l6.413,6.446
		l12.899-0.167c-2.127,3.323-0.991,8.476,0.181,11.488c2.298,5.904,5.667,15.65,5.42,15.793c0,0-1.877,0.484-2.045,1.681
		c-0.251,1.773,0.513,1.642-0.59,3.243c-0.248,0.359-0.088,1.038,0.178,1.579c0.175,0.396,0.341,0.993,0.015,1.458l-11.378,20.387
		H16.802v-3.952l11.02-11.01l-0.131-8.1c5.897,1.763,7.923,7.883,8.428,12.415c10.652-9.775,10.389-24.492,0.323-33.725
		c-1.962,9.758-8.989,11.786-8.835,11.592L27.51,175.907z M107.731,177.065c0.691,0.051,1.621,0.163,2.253,0.504
		c-0.428,0.259-0.732,0.564-1.016,0.88C108.623,177.831,108.157,177.494,107.731,177.065z M125.612,177.136
		c0.574-0.002,1.279,1.687,0.874,2.083c-0.229,0.223-0.968,0.308-1.232,0.139C124.914,179.107,125.087,177.138,125.612,177.136z
		 M105.266,180.067c0.741,0,1.341,0.603,1.341,1.348s-0.6,1.348-1.341,1.348c-0.74,0-1.34-0.603-1.34-1.348
		S104.527,180.067,105.266,180.067z M48.533,181.989l0.966,0.024c-1.757,2.363-1.993,4.397-1.371,7.344
		c0.701,3.317,6.046,15.783,6.391,19.216c0.015,0.157,0.031,0.594,0.031,0.594l-1.313,0.088c0,0-0.098-0.355-0.139-0.492
		c-1.837-6.215-3.667-10.957-4.945-14.58C46.879,190.275,44.928,184.482,48.533,181.989L48.533,181.989z M55.597,182.013
		c0.01-0.002,0.018,0.002,0.024,0.004l0.928,0.008c-0.033,0.02-1.385,2.935-1.482,4.703c-0.111,2.004,0.372,4.187,1.032,6.341
		c1.56,4.661,3.842,9.852,5.112,15.734c0.014,0.069,0.154,0.639,0.154,0.639l-1.375-0.186c0,0-0.135-0.602-0.15-0.684
		c-0.95-5.175-3.598-10.549-5.177-15.642c-0.809-2.316-1.371-5.161-1.082-7.336C53.783,184.056,55.315,182.042,55.597,182.013
		L55.597,182.013z M66.825,182.024c-0.983,1.53-1.878,3.449-1.94,4.953c-0.057,2.8,0.753,5.163,1.564,7.636
		c2.493,7.612,3.702,11.629,4.95,17.736l-1.325-0.57c0,0-0.051-0.343-0.081-0.441c-0.707-3.825-0.752-3.49-4.911-16.351
		c-0.975-3.086-1.903-5.792-1.722-8.363c0.041-1.464,1.312-4.362,2.65-4.593L66.825,182.024z M68.416,182.024h1.237
		c0,0-0.681,0.725-0.878,0.995c-2.16,3.012-1.535,6.245-0.463,10.099c1.475,5.302,4.204,11.231,5.632,19.312
		c0.026,0.151,0,0.931,0,0.931l-1.471-0.598c-1.337-7.408-4.635-15.093-6.224-21.757c-0.935-3.913-0.669-6.386,1.49-8.517
		C68.28,182.068,68.416,182.024,68.416,182.024z M53.329,182.066h0.924c0,0-1.546,2.553-1.545,4.056
		c-0.258,2.69,0.71,5.663,1.822,8.778c1.709,4.787,3.968,10.577,4.661,13.624c0.027,0.12,0.12,0.666,0.12,0.666l-1.615-0.086
		c0,0-0.084-0.737-0.18-1.076c-1.863-6.552-3.678-10.79-5.817-16.772c-0.324-0.905-0.84-4.487-0.231-6.807
		C51.947,182.628,53.329,182.066,53.329,182.066z M50.852,182.07l0.998,0.027c0,0-0.15,0.272-0.532,0.931
		c-1.821,3.313-1.004,6.339,0.124,9.711c1.505,4.497,3.867,9.991,5.342,15.187c0.082,0.294,0.196,1.178,0.196,1.178l-1.441-0.02
		c0,0-0.292-1.058-0.312-1.174c-0.81-4.818-5.189-12.848-6.328-18.961C48.274,185.671,48.811,183.641,50.852,182.07z M64.214,182.07
		c0,0-1.573,2.745-1.718,4.273c-0.283,2.996,0.663,5.478,1.745,8.858c1.866,5.833,4.499,12.675,4.734,15.804
		c0.008,0.104,0.046,0.484,0.046,0.484l-1.621-0.58c0,0-0.073-0.327-0.104-0.443c-1.414-5.661-3.084-11.298-5.33-17.652
		c-0.554-2.144-1.282-4.301-1.217-6.143c0.329-2.461,0.746-3.125,2.203-4.583L64.214,182.07z M71.347,182.073l1.307,0.027
		c0,0-0.39,0.212-1.321,1.209c-5.152,4.734,3.207,18.099,5.134,30.269c0.021,0.129,0.081,0.588,0.081,0.588l-1.437-0.519
		c-0.136-0.605-0.238-1.344-0.405-2.006c-1.562-6.221-3.645-12.617-5.558-18.418c-1.073-4.226-1.465-7.951,0.463-10.032
		C70.214,182.471,71.347,182.073,71.347,182.073z M57.916,182.083l1.391,0.037c-1.005,1.268-1.595,3.241-1.649,4.998
		c-0.054,2.075,0.498,4.095,1.178,6.231c1.395,4.383,3.386,9.144,4.754,15.058c0.077,0.39,0.141,0.643,0.178,0.813
		c0.056,0.27,0.212,0.701,0.212,0.701l-1.468-0.296c0,0-0.151-0.382-0.25-0.584c-0.148-0.304-0.283-0.69-0.404-1.15
		c-0.71-3.084-3.326-10.083-4.918-14.991C55.675,189.809,55.33,184.403,57.916,182.083L57.916,182.083z M75.277,182.136
		c1.778-0.065,3.386,1.452,3.767,2.878c0.369,1.515-0.104,3.223-1.76,4.068c-2.688,1.368-5.58-2.273-3.46-4.277
		c1.608-1.519,3.985-0.394,3.467,1.55c-0.334,1.266-2.242,1.348-2.557,0.071c-0.086-0.425-0.298-0.85-0.451-0.617
		c-0.988,2.334,2.335,3.427,3.714,1.256c0.818-1.74-0.74-3.981-3.031-3.556c-3.143,0.584-3.505,4.595-2.2,9.274
		c1.821,7.395,6.163,17.339,6.155,21.904c0,0.061,0.016,0.249,0.016,0.249l-1.379-0.415c0,0-0.01-0.076-0.02-0.143
		C76.711,208,72,197.445,70.651,189.329c-0.586-3.699,0.848-6.386,4.071-7.118C74.908,182.167,75.092,182.144,75.277,182.136z
		 M61.642,182.195c-0.967,1.299-1.6,3.253-1.63,4.648c-0.029,2.044,0.7,4.032,1.303,6.158c1.523,5.253,5.083,14.952,4.954,16.768
		c0.036,0.196,0.134,0.799,0.134,0.799l-1.375-0.411c0,0-0.055-0.086-0.158-0.337c-0.458-1.803-2.639-9.529-5.08-16.206
		c-0.94-2.686-1.397-4.777-1.333-6.558c0.198-2.457,0.898-3.482,1.968-4.849L61.642,182.195z M87.826,190.902
		c-3.565,0.204-3.221,4.573-1.013,5.314c0.791,0.219,1.254,0.029,1.379-0.143c0.142-0.196-0.018-0.498-0.536-0.572
		c-1.499-0.496-2.034-2.269-0.681-3.014c0.739-0.39,1.919-0.139,3.342,0.921c2.544,1.895,5.661,2.012,5.254,0.096
		c-0.098-0.464-0.298-0.527-2.161-0.782c-1.513-0.208-2.194-0.688-2.855-1.046C89.517,191.114,88.601,190.879,87.826,190.902z
		 M36.796,194.966c9.209,9.043,7.844,23.217-0.023,30.314c-0.162-0.572-0.505-1.977-0.543-1.936
		c5.916-6.192,8.702-16.339,0.138-26.74C36.414,196.643,36.56,195.854,36.796,194.966z M94.508,195.205
		c-0.087,0.002-0.163,0.012-0.231,0.035c-2.385,0.656-2.879,3.027-1.333,4.001c0.949,0.598,1.676,0.231,0.497-0.492
		c-1.011-0.619-0.513-2.249,0.712-2.23c0.536,0.008,0.901,0.241,2.261,1.25c1.12,0.831,2.176,0.897,2.415-0.229
		c0.143-0.67-0.08-0.968-0.794-0.794c-0.316,0.078-0.5-0.108-0.928-0.406C96.157,195.676,95.117,195.192,94.508,195.205z
		 M35.845,196.98c8.301,9.687,5.636,19.792,0.039,25.713c-1.537-4.561-5.304-7.406-5.304-7.406
		c1.419-3.168,2.266-6.476-0.389-10.653C32.661,202.39,34.708,199.923,35.845,196.98z M89.774,200.517
		c-0.389-0.008-0.263,0.37,0.655,1.015c2.188,1.495,2.375,1.765,0.254,1.73c-0.538-0.031-1.379,0.353-1.856,0.511
		c-2.768,0.929-2.902,0.854-4.226,0.543c-0.441-0.104-0.889-0.29-1.082-0.112c-0.299,0.274-0.635,0.455-0.258,0.864
		c0.275,0.298,0.785,0.525,1.406,0.882c3.214,1.852,3.505,2.294,7.283,2.394c0.433,0.012,0.655-0.214,0.909-0.217
		c0.617-0.006,0.94,0.145,1.564,0.717c1.142,1.048,1.196,0.286,0.516-1.087c-0.356-0.721-0.668-0.893-0.493-1.442
		c0.398-1.25-0.169-1.499-0.912-0.392c-0.557,0.868-0.62,0.848-1.148-0.266c-0.699-1.391-0.371-2.034,0.69-1.127
		c0.803,0.686,1.008,0.176,1.321-0.368c0.41-0.715,0.348-1.358-0.386-1.301c-0.423,0.031-0.817-0.165-1.148-0.527
		C92.214,201.62,90.968,200.727,89.774,200.517z M90.683,204.281c0.087,0.006,0.148,0.041,0.177,0.131
		c0.009,0.458-0.305,1.395-0.562,1.887c-0.081,0.219-0.223,0.247-0.42,0.288c-0.662,0.121-0.708-0.084-0.59-0.498
		c0.243-0.637,0.444-1.542,1.299-1.805C90.623,204.281,90.654,204.279,90.683,204.281L90.683,204.281z M89,204.599
		c0.269-0.02,0.277,0.094,0.17,0.337c-0.191,0.413-0.528,0.805-0.778,1.129c-0.532,0.345-1.395-0.711-1.013-0.984
		c0.534-0.214,0.935-0.431,1.491-0.466C88.919,204.606,88.962,204.602,89,204.599L89,204.599z M29.539,205.288
		c0.143,0,0.289,0.029,0.439,0.094c2.009,2.725,1.872,6.875,0.312,9.172c-0.116,0.172-0.235,0.202-0.432,0.135
		c-0.671-0.4-1.523-0.547-2.16-0.778v-7.984C28.354,205.788,28.92,205.286,29.539,205.288L29.539,205.288z M82.471,205.939
		c-0.153,0.008-0.217,0.114-0.023,0.315c2.928,2.13,6.959,4.601,10.677,3.644c0.341-0.074,0.617-0.263,0.551-0.617
		c-0.041-0.219-0.419-0.41-0.829-0.302c-0.851,0.227-2.487,0.257-3.158,0.147c-2.557-0.421-4.815-2.065-6.779-3.029
		C82.764,205.986,82.591,205.935,82.471,205.939z M81.617,207.973c-0.131-0.006-0.121,0.125-0.038,0.372
		c0.412,1.234,4.556,4.111,7.83,5.063c2.811,0.817,6.849,0.014,6.614-1.328c-0.123-0.701-0.634-0.868-2.426-0.639
		c-3.949,0.77-7.75-0.852-10.635-2.659C82.184,208.29,81.784,207.98,81.617,207.973z M55.755,209.662
		c1.725-0.02,3.435,0.121,5.284,0.431c3.599,0.617,7.769,1.738,11.298,3.38c5.996,2.265,13.536,4.011,19.934,3.774
		c1.562,0.043,4.384-0.09,4.93-0.27c1.426-0.323,1.821-0.018,2.161,1.762c0.06,0.388,0.179,0.5,0.674,0.837
		c0.757,0.515,0.631,1.027,0.54,2.165c-0.078,0.958,0.498,1.497,2.807,5.784c2.629,4.879,5.192,10.547,5.192,10.547
		c-23.04-0.016-45.022-0.876-68.596-0.139c2.12-5.055,7.901-14.172,11.523-21.491c-0.876-2.251,0.206-2.633-0.248-3.168
		c-0.734-1.25-0.204-3.006,1.347-3.401C53.681,209.746,54.72,209.675,55.755,209.662z"/>

		<path id="path6353-8" fill="#E2CF00" d="
		M40.247,238.088c0,0,7.551-15.35,10.732-19.949c4.577-5.835,25.237,2.535,35.511,4.626c4.176,0.809,13.856,0.431,13.856,0.431
		l8.091,14.664L40.247,238.088z M24.57,220.646l-0.321-47.786l2.364,1.483l0.542,48.001l-10.217,9.838l-0.057-2.882L24.57,220.646z
		 M30.754,215.195c2.434-4.926-0.283-10.941-0.283-10.939c1.411,0.349,5.345-7.158,5.694-6.94c6.02,7.424,7.064,18.487-0.292,25.343
		C34.016,217.893,30.777,215.195,30.754,215.195L30.754,215.195z M35.247,181.397c4.574-4.703,8.202-8.363,11.827-13.624
		c0.297-0.429-19.299-25.458-18.995-25.897c3.023-3.36,7.076-5.829,10.228-9.887c0,0,16.071,21.157,16.441,20.971
		c1.628-6.621,2.82-12.615,2.51-19.536c-0.993-17.705-8.517-28.544-8.574-28.331c-2.544,16.267-27.548,40.907-32.471,39.151
		l-0.028-11.368c0.298,0.568,15.84-10.058,19.94-24.1c0.294-1.009,12.355-4.891,12.271-5.039c-0.51-1.319-5.787-8.824-5.787-8.824
		s2.132-0.998,2.368-0.995c6.839,8.552,12,19.818,13.756,30.546c2.131,11.554,3.508,33.278-19.533,57L35.247,181.397z
		 M104.319,151.505c-3.605-11.255-3.507-22.905-1.849-31.039c2.53-14.74,11.793-25.295,19.224-33.342l3.222,0.001
		c0,0-3.853,4.01-5.256,5.47c-2.406,2.776-5.892,8.567-5.892,8.567l19.227,25.274l10.96-2.383c0,0-0.331,11.307,0.01,11.307
		c-8.518,7.091-14.64,13.508-19.033,23.837c-2.694,1.001-11.622,4.873-11.622,4.873c-4.246-1.044,12.63-27.649,9.421-28.102
		c-1.322-1.096-15.96-20.952-16.245-20.911c-6.748,20.774-0.165,42.592,11.706,57.828c-1.347,0.878-2.566,1.562-2.454,1.356
		C110.652,167.147,106.196,158.678,104.319,151.505L104.319,151.505z M69.193,141.089c0.76,1.183,4.181-25.354-4.81-46.597
		c0.855-0.651,8.272-2.079,8.272-2.079l1.996,6.36l-5.06,2.154l0.934,2.982c3.928-1.916,12.434-4.745,17.667-13.485
		c0,0,25.424-0.219,25.966-0.173c0.528,0.044-5.185,5.55-10.603,16.695c-2.475,5.09-4.444,11.678-4.855,19.406
		c-0.08,1.527-5.817-7.179-5.817-7.179c1.43-7.357,5.253-14.598,9.064-21.841c0,0-5.846-0.334-9.931-0.215
		c-6.352,6.981-10.334,10.66-19.911,13.994c3.492,11.251,24.856,16.658,20.104,15.63c-0.969-0.23-2.2,10.343-1.172,22.256
		c0.199,9.527,5.295,25.405,5.475,25.278c0,0-3.397,0.768-3.67,0.221c0.573-0.139-5.055,1.293-5.055,1.293l-2.013-5.917l5.446-2.52
		l-0.881-3.341c-0.022,0.002-12.017,3.65-17.892,14.174l-26.276,0.029c10.134-11.057,14.267-21.994,16.468-36.454
		C64.789,142.149,69.192,141.089,69.193,141.089L69.193,141.089z M133.816,45.622c3.304-2.78,9.935-10.02,9.935-10.02l0.086,3.709
		l-7.526,7.871l0.077,48.593l-2.547-2.454L133.816,45.622z M130.337,63.407c-1.356,0.649-4.056,3.842-5.344,7.431
		c-8.719-7.833-5.128-22.228-0.355-25.225c1.384,3.143,5.395,7.31,5.302,7.222C129.019,56.127,128.312,59.466,130.337,63.407z
		 M53.143,30.786l67.242,0.119c-3.835,7.595-7.354,13.734-11.431,21.21c-2.122,2.574-48.041-8.31-48.256-7.225L53.143,30.786z"/>

		<path id="path6355-9" fill="#D40000" d="
		M16.795,228.415l-0.449-63.806l7.644,7.467l0.454,48.998L16.795,228.415z M51.867,216.051c-1.582,0.243-0.687-1.23-0.397-2.63
		c0.161-0.782-0.59-1.515-0.587-1.754c0.021-1.383,1.053-1.969,5.729-1.914c11.022,0.77,16.721,4.318,23.044,5.968
		c6.054,1.579,12.058,1.548,18.739,1.393c0.489,0.282,2.281,4.922,1.947,5.386C85.227,225.497,65.939,214.337,51.867,216.051
		L51.867,216.051z M79.109,183.012c-1.593-1.16-3.087-1.375-4.564-1.628c2.592-4.585,5.731-8.762,10.974-11.378l2.44,6.07
		C84.875,177.671,81.848,179.567,79.109,183.012L79.109,183.012z M47.266,167.249c0,0-2.262,3.719-4.398,5.527
		c-6.348-8.559-20.542-26.783-20.542-26.783l-6.023,3.066c0,0-0.025-3.527,0.113-3.774c16.268-8.431,27.43-24.365,32.346-39.285
		c0,0,2.619,2.688,2.275,3.826c-4.399,11.769-11.92,23.571-22.982,32.423L47.266,167.249z M67.556,149.885l20.538,0.029l0.909,7.179
		c-7.864,2.651-14.354,8.065-20.423,14.327l-9.742-0.172C62.032,164.212,66.47,157.074,67.556,149.885L67.556,149.885z
		 M143.594,119.636c0.665,2.024-0.008,4.208,0.251,4.117c-24.601,12.234-31.631,39.087-31.631,39.087s-2.335-3.717-2.229-4.293
		c12.734-28.46,21.253-29.308,22.889-32.398l-19.367-25.205l4.381-5.991l20.771,27.182
		C140.724,121.179,141.901,120.378,143.594,119.636z M131.464,156.454c4.172-7.544,8.475-11.929,12.762-14.946l-0.208,9.956
		L131.464,156.454z M16.452,126.844l0.107-9.66L29.23,111.7C25.726,119.379,20.971,123.496,16.452,126.844z M72.905,118.159
		l-0.748-6.795c7.692-3.374,14.489-7.887,19.975-14.064c5.894-0.284,9.919,0.118,9.888,0.036c0.01-0.012-5.607,8.273-9.327,21.316
		L72.905,118.159z M136.639,46.789l7.002-7.115l0.221,63.617l-7.032-6.855L136.639,46.789z M75.101,98.489l-2.222-6.295
		c3.495-1.317,6.141-4.186,8.605-7.026c1.672,1.504,3.828,2.033,4.576,2.322C87.085,87.731,78.976,97.522,75.101,98.489z
		 M61.974,50.815c0,0-0.874-0.508-0.778-1.225c0.289-0.929-0.934-3.03-0.934-3.03c14.911-4.549,36.624,8.253,49.511,5.56
		c-0.107,0.905,0.041,1.985-0.325,2.838c0.406,1.813,0.693,1.871-1.068,2.978c-9.053,2.577-18.595-2.917-27.439-5.543
		C73.727,50.109,67.867,50.691,61.974,50.815L61.974,50.815z"/>

		<path id="path6357-5" fill="#100F08" d="
		M52.374,29.89l2.723,5.158l-0.471,0.321c0.742,1.242,1.372,2.64,2.131,3.873l0.547-0.064c0.895,1.724,1.257,2.362,2.427,4.405
		l-0.528-0.003c0.272,0.908,0.969,1.512,0.984,2.163c0.009,0.81-0.2,1.633,0.295,2.182c0.587,0.651,0.657,0.83,0.537,1.211
		c-0.321,1.012,0.592,2.132,1.516,2.031c6.519-0.876,13.161-0.132,19.801,1.886c4.776,1.514,9.015,3.21,13.029,4.403
		c1.265,0.38,3.822,0.979,6.024,1.141c6.106,0.45,9.533-0.801,8.504-3.355c-0.081-0.205-0.265-0.354-0.281-0.459
		c-0.029-0.194,0-0.405,0.347-0.69c1.002-1.03,0.441-1.778-0.169-2.918c0,0,7.842-14.087,11.759-21.107L52.374,29.89z
		 M120.269,31.156l-5.723,9.937c-3.06-0.557-3.779,2.03-3.825,2.393c-3.974-1.024-3.364,4.157-1.37,4.507
		c0.129,0.751-3.266,1.685-5.055-0.075c2.75,0.37,3.723-3.287,0.365-4.1c4.427-3.309-3.879-8.265-3.978-1.419
		c-3.906-0.692-3.398,4.499-0.92,4.902c-1.267,1.405-4.994,1.444-6.941-1.518c3.313,1.73,5.105-2.736,1.664-3.986
		c4.247-3.745-4.069-7.199-3.875-1.146c-3.135-1.868-5.291,2.895-1.106,3.626c-0.238,0.857-5.72,0.863-7.111-1.352
		c3.886,0.892,4.065-3.866,0.636-4.253c3.443-4.394-5.295-6.616-3.829-0.62c-3.375-1.343-4.651,2.89-1.364,4.249
		c0.182,0.674-5.324,1.247-7.251-1.183c4.233-0.639,2.752-4.763,0.01-4.433c0,0,0.039-0.119,0.193-0.52
		c1.295-4.14-5.664-4.486-4.7-0.096c0.154,0.405,0.325,0.943,0.325,0.943c-1.919-0.393-3.091,0.393-2.952,2.202
		c0.478,2.403,1.739,2.226,3.355,1.747c0.677,0.712-3.896,3.091-6.768,0.967c3.516-1.016,1.735-5.16-1.208-4.601
		c-0.122-1.323-1.551-3.178-3.415-2.273l-1.973-3.901L120.269,31.156z M126.02,86.358l-4.131,0.062
		c-2.902,2.979-23.914,22.443-20.375,51.844c1.514,12.575,5.006,23.456,14.341,36.307l2.495-1.473l0.382,0.259l25.872-14.968
		l0.014-4.546l-30.032,12.671c-0.596-0.639-0.947-1.35-1.448-2.134l12.034-5.143c0,0,0.289-0.737,0.382-1.074
		c3.957-10.067,11.995-17.354,18.992-22.985c-0.037-9.912-0.083-30.661-0.083-30.661l-18.094-18.121
		c-2.32,2.134-4.378,4.328-6.436,6.709l20.774,27.499l-1.841,1.205L118.31,94.452C120.743,91.508,123.386,88.94,126.02,86.358
		L126.02,86.358z M144.476,104.237c0,0-0.1-47.212-0.236-70.011l0,0L133.458,45.35l0.042,47.856L144.476,104.237z M143.56,38.721
		l-7.618,7.904l0.085,48.644l-1.957-1.941V45.994l9.516-10.027L143.56,38.721z M69.427,37.55c0.228,0.404,0.129,0.963-0.236,1.42
		c-1.558,1.944,3.335,5.321,6.856,4.734c2.68-0.447,4.965-2.065,3.979-3.297c-0.802-1.003-0.278-2.017,0.686-2.01
		c0.992,0.007,1.787,0.799,0.928,1.886c-1.911,2.417,1.004,5.252,5.462,5.311c3.153,0.041,4.203-0.74,4.034-2.998
		c-0.08-1.058,0.127-1.35,0.859-1.511c1.168-0.257,1.758,1.09,0.789,2.118c-2.093,2.22,0.286,5.484,4.246,5.695
		c1.448,0.076,1.734-0.001,3.351-0.919c1.263-0.716,1.709-1.8,1.09-2.641c-0.797-1.084,0.278-2.377,1.518-1.844
		c0.887,0.381,1.323,1.065,0.343,2.224c-1.289,1.522-0.679,2.777,1.802,3.625c1.932,0.66,3.271,0.578,4.176-0.252
		c0.282-0.258,0.907-0.797,0.899-0.633c-0.608,1.056-1.147,2.037-1.147,2.037c-4.048,1.815-7.207-1.583-7.103-1.71
		c-4.17,2.42-7.868,1.909-10.992-2.155c-0.812,0.453-6.628,1.519-10.828-3.115c-4.237,2.138-8.175,1.24-11.675-1.15
		c-2.586,2.455-5.313,2.844-8.146,1.665l-0.839-1.697c0.211-0.08,1.125,1.702,5.558,0.871c1.488-0.278,4.049-2.794,2.615-4.021
		c-0.656-0.934-0.676-1.355-0.096-1.921C68.125,36.704,69.099,36.991,69.427,37.55L69.427,37.55z M58.567,39.775
		c0.247,0.482,0.281,1.283,0.008,0.802c-0.143-0.254-0.895-1.387-0.859-1.422C58.065,39.127,58.412,39.489,58.567,39.775
		L58.567,39.775z M143.563,40.162l0.05,62.775l-6.487-6.472l-0.312-49.178L143.563,40.162z M68.439,43.202l2.043,1.291l-3.658-0.022
		L68.439,43.202z M79.923,44.283l1.715,1.675l-3.606-0.76L79.923,44.283z M112.053,45.152l-0.766,1.58
		C110.845,46.235,110.716,45.18,112.053,45.152z M125.016,71.249c1.302-2.939,3.043-6.683,5.863-7.873
		c-2.099-4.195-1.827-8.387-0.337-10.687c-2.13-1.993-4.315-4.381-5.672-7.815C118.142,50.849,117.06,63.12,125.016,71.249z
		 M124.814,46.022l0.463,1.148c-5.992,7.375-4.143,17.056,0.198,22.222l-0.624,1.301C119.548,65.068,117.226,53.175,124.814,46.022z
		 M88.991,50.194c6.944,2.049,12.505,5.242,20.532,2.397l0.038,1.571c-5.11,3.299-15.288-0.186-22.165-2.739
		c-11.053-4.103-19.655-3.863-25.802-3.395c-0.541-0.107-0.97-1.527-0.104-1.537C72.983,46.365,71.126,44.923,88.991,50.194z
		 M90.561,47.414l2.28,2.433c-1.712-0.54-3.377-1.14-4.926-1.886L90.561,47.414z M125.364,48.014l0.447,0.619
		c0.193,0.268-1.261,0.408-1.016,0.093L125.364,48.014z M86.185,52.466c8.289,3.13,17.416,6.253,23.404,3.452
		c0,0,0.038,1.192-0.646,1.53c0,0-0.632,0.513-2.746,0.806c-9.691,0.799-15.982-3.235-23.804-5.62
		c-2.967-0.904-7.734-2.001-12.629-2.204c-2.907-0.132-7.353,0.287-7.353,0.287c-0.968-0.081-0.954-0.656-0.963-1.221
		C69.875,48.368,77.622,49.212,86.185,52.466z M126.265,49.465c0.107-0.005,0.217,0.003,0.324,0.02l0.848,1.088l-1.005,1.608
		c0,0-0.887-0.821-1.336-1.627C124.847,50.033,125.517,49.501,126.265,49.465z M101.845,49.772l2.625,1.992
		c-1.974,0.098-4.195,0.171-6.392-0.706L101.845,49.772z M124.077,50.786c0.206-0.005,0.424,0.215,0.677,0.651
		c0.489,0.838,0.425,0.998-0.524,1.305c-1.245,0.403-1.342,0.314-0.94-0.809C123.565,51.168,123.81,50.793,124.077,50.786z
		 M128.063,51.3l1.774,1.498c-0.979,2.564-1.621,5.818,0.347,10.49c-0.218,0.015-1.493,1.28-1.893,1.496
		C127.167,64.311,124.692,55.054,128.063,51.3L128.063,51.3z M126.044,53.262l-0.451,2.835c-0.036,0.232-1.963-1.342-1.783-2.13
		C124.153,53.03,125.326,53.23,126.044,53.262z M122.86,54.257c0.233,0.002,0.598,0.568,1.048,1.309
		c0.35,0.578,0.279,0.796-0.496,1.499c-1.142,1.161-1.366,0.783-1.113-1.192C122.423,54.897,122.596,54.255,122.86,54.257z
		 M125.221,56.827c0.155,0.003,0.29,0.04,0.389,0.12l0.13,2.762c0.013,0.25-2.143-0.098-2.426-1.15
		C122.957,57.884,124.385,56.809,125.221,56.827L125.221,56.827z M122.377,59.161c0.154-0.023,0.637,0.301,1.094,0.573
		c0.794,0.473,0.81,0.681,0.128,1.565c-0.803,1.037-1.203,0.871-1.325-0.934C122.228,59.703,122.178,59.189,122.377,59.161z
		 M125.54,60.218c0.069,0,0.131,0.02,0.184,0.066c0.383,0.328,0.966,3.097,0.72,3.385c-0.349,0.411-2.189-0.135-2.6-0.786
		C123.455,62.263,124.869,60.218,125.54,60.218z M123.288,63.476c0.212-0.015,0.592,0.132,1.167,0.41
		c0.345,0.168,0.923,0.483,1.051,0.752c0.225,0.473-0.148,1.176-0.631,1.758c-0.32,0.386-0.618,0.099-1.237-1.192
		C123.141,64.165,122.936,63.5,123.288,63.476z M127.002,64.714c0.043-0.001,0.08,0.008,0.116,0.027
		c0.627,0.349,0.522,1.386-0.22,2.153c-0.889,0.921-1.662,0.227-1.048-0.941C126.24,65.214,126.706,64.721,127.002,64.714z
		 M75.311,90.469c-0.541,0.024-1.387,0.518-1.757,0.995c-0.466,0.603-0.873,0.525-1.39,0.48c-0.615-0.009-1.552,0.128-2.819,0.709
		c-0.719,0.329-1.047,0.404-2.099,0.457c-0.688,0.035-1.376,0.129-1.529,0.21s-0.647,0.255-1.099,0.387
		c-0.92,0.271-0.592,0.534-0.065,1.726c2.686,6.923,4.609,14.989,5.311,21.559c0.787,7.537,0.548,16.677-0.499,23.658
		c-2.57,0.016-4.185-0.116-6.891-0.071c-1.846,15.095-6.857,27.081-16.868,37.861l27.066,0.069
		c3.101-8.316,17.253-14.66,17.718-14.192l0.746,3.035c0,0-10.18,1.462-17.036,14.452c0.701-0.425,3.254-0.129,4.94,1.63
		c3.367-4.293,8.89-7.099,8.926-7.032l0.184-0.517c0,0,1.013-0.347,1.903-0.517c0.286-0.055,0.871-0.165,1.26-0.302
		c0.601-0.212,0.899-0.437,1.827-0.357c1.93,0.186,3.866-0.378,3.826-0.388c-5.746-15.936-7.104-30.32-4.86-47.029
		c2.117,0.017,6.759,0.096,6.759,0.096c0.467-4.695,1.057-9.392,2.492-13.824c1.842-5.692,4.062-10.982,7.638-15.819
		c2.019-3.039,3.781-5.2,5.868-8.048l-26.495,0.062c-3.506,5.926-10.262,10.876-15.691,12.938c-1.848,0.699-2.109,0.595-2.415-0.279
		c-0.547-1.561-0.522-1.495,0.924-1.909c0.483-0.138,2.027-0.956,4.438-2.092c5.115-2.611,8.631-7.391,10.7-10.617
		c0.823-1.275,0.27-0.987-1.137-0.999c-1.288-0.102-1.877-0.503-3.035-1.588c-0.427-0.401-0.61-0.686-0.805-0.663
		C79.831,86.734,77.293,89.615,75.311,90.469L75.311,90.469z M81.529,85.423c1.191,1.282,2.603,2.032,4.464,2.277
		c-2.973,4.69-6.604,8.358-10.777,10.588l-2.122-6.001C78.296,89.852,79.686,87.413,81.529,85.423z M124.715,87.333
		c-28.021,26.051-26.373,58.896-6.75,85.573l-2.056,1.244c-18.43-24.837-21.764-61.575,6.395-86.929L124.715,87.333z M107.05,90.51
		l6.87-0.014l-4.677,6.095l-6.274-0.023L107.05,90.51z M105.974,90.561l-3.821,6.056L91.849,96.75
		c-6.166,7.645-12.79,11.374-19.532,13.92l-1.315-6.529c0,0.001,10.675-2.588,17.588-13.664L105.974,90.561z M95.503,91.061
		l-2.389,2.657l2.481,2.537l2.265-2.576L95.503,91.061z M100.911,91l-2.419,2.529l1.887,2.545l2.507-2.471L100.911,91z
		 M88.982,91.46l-0.412,3.979l3.113,1.026l0.454-3.401L88.982,91.46z M107.915,91.609l-2.259,3.55l3.401,0.054l2.379-3.535
		L107.915,91.609z M72.358,92.516l2.204,6.145l-1.935,0.939l-1.963-6.417L72.358,92.516z M69.749,93.502l2.273,6.356l-1.903,0.631
		l-2.087-6.616L69.749,93.502z M72.473,118.598c0.253,8.841,0.379,14.17-1.091,21.941c-0.077,0.406-1.656,0.045-1.656,0.045
		c0.2,0.069,0.89-8.781,0.836-14.338c-0.105-10.584-1.889-21.054-6.02-31.542c0.788-0.485,2.73-0.732,2.73-0.732
		C69.879,101.925,72.189,110.482,72.473,118.598z M44.962,94.088c9.045,12.07,15.511,28.443,14.43,44.599
		c-1.036,18.787-8.118,29.614-20.558,42.623l-3.209,0.076c14.724-14.198,21.239-26.348,21.752-42.38
		c0.591-18.436-5.008-30.699-14.438-43.766L44.962,94.088z M16.027,110.679l0.031,4.397l30.818-13.292l-4.445-6.585L16.027,110.679z
		 M88.258,96.279l-3.355,0.17l0.111,3.404l3.498-0.085L88.258,96.279z M118.163,95.632l19.972,26.336l-4.942,3.691l-19.039-24.748
		L118.163,95.632z M102.51,97.43l5.978,0.093l-2.312,3.857l-5.777-0.047L102.51,97.43z M101.405,97.525
		c-2.749,5.14-6.539,11.002-8.669,20.475l-19.679,0.018c-0.037-2.163-0.315-4.326-0.636-6.489c8.48-3.121,15.049-7.787,19.88-13.953
		L101.405,97.525z M105.044,97.797l-2.565,1.488l1.568,1.812l2.827-1.088L105.044,97.797z M81.621,99.691l-0.847,3.354l3.189,1.235
		l0.59-3.985L81.621,99.691z M99.971,102.197l5.735,0.035l-2.415,4.849l-5.681-0.085L99.971,102.197z M113.626,101.563
		l18.899,24.636l-1.772,1.41l-18.469-24.082L113.626,101.563z M102.147,102.588l-2.584,2.166l1.944,2.258l2.385-1.913
		C103.942,105.058,102.147,102.588,102.147,102.588z M77.064,102.767l-0.794,3.261l3.317,0.888l0.593-3.498L77.064,102.767z
		 M72.477,104.936l-0.675,3.211l3.124,0.848l0.658-3.095L72.477,104.936z M46.685,104.614c0.16-0.032-0.523,3.822-1.527,4.516
		c-0.48,0.332-0.728,0.259-1.145-0.193c-0.286-0.312-1.586-2.443-1.586-2.443l1.109-0.561c1.347,2.166,1.347,1.119,1.856-0.727
		L46.685,104.614z M41.505,106.834c0.44-0.004,0.973,0.546,1.575,1.611c0.872,1.54,0.843,1.641-0.589,2.084
		c-2.577,0.686-3.535,0.85-2.743-0.859C40.602,107.829,40.94,106.838,41.505,106.834L41.505,106.834z M49.176,106.529l1.764,3.035
		c-7.071,18.106-18.476,31.094-34.176,38.953l-0.035-3.008C35.238,134.914,42.827,122.399,49.176,106.529z M97.256,107.838
		l5.566,0.101l-1.487,4.28l-5.917-0.043L97.256,107.838z M39.833,107.65c-4.53,10.857-10.721,20.329-23.097,28.326l-0.049-2.885
		c13.899-8.423,19.907-24.201,19.905-24.206L39.833,107.65z M110.182,107.632c3.296,0.091,6.762,3.704,6.409,6.683
		c-0.247,2.099,0.152,3.655,0.721,2.796c1.255-1.899,4.954-0.637,4.92,1.644c-0.018,1.213-0.824,1.413-1.287,0.317
		c-0.683-1.618-2.603-1.659-2.887,0.037c-0.266,1.59,1.075,2.758,4.657,4.06c4.198,0.99,6.725,4.774,5.232,6.949
		c-0.519,0.575-0.831,0.716-0.929,0.418c-0.027-0.085-0.13-0.534-0.227-0.995c-0.477-2.28-1.563-3.237-2.883-2.454
		c-0.661,0.392-0.578,0.911-0.191,1.597c0.514,0.912,0.192,1.266-0.728,0.801c-1.453-0.734-1.933-2.473-0.525-3.275
		c1.674-0.674,1.107-0.819-1.032-1.546c-4.555-1.565-6.51-4.435-6.748-9.905c0.087-2.492-0.252-3.382-1.418-3.722
		c-1.067-0.313-2.276,1.051-1.51,1.77c0.417,0.39,0.756,0.745,0.536,0.96c-0.707,0.692-2.479-0.431-2.461-1.634
		c0.011-0.788,0.308-0.949,1.479-1.875c0.325-0.257,0.048-0.741-0.428-0.748C109.093,110.091,109.219,107.709,110.182,107.632z
		 M99.864,108.264l-2.783,1.608l1.45,2.037l3.081-1.456L99.864,108.264z M45.727,109.844c0.32,0,0.582,0.26,0.582,0.581
		s-0.262,0.585-0.582,0.585s-0.578-0.264-0.578-0.585S45.407,109.844,45.727,109.844z M51.43,110.096
		c5.873,12.889,7.27,27.627,3.183,42.356l-15.859-20.749C44.838,124.814,48.929,116.927,51.43,110.096L51.43,110.096z
		 M29.983,111.042l-14.151,5.979l-0.078,10.67C23.66,122.266,27.012,116.711,29.983,111.042z M43.585,110.953
		c1.395-0.043,0.706,3.741-1.105,5.034c-0.663,0.512-1.111,0.45-1.33-0.576c-0.114-0.532-0.671-1.657-1.371-2.563
		c-0.816-1.053-0.806-1.08,0.385-1.154C41.479,111.713,42.557,111.078,43.585,110.953L43.585,110.953z M42.206,112.562
		c-1.029-0.015-1.337,0.469-0.724,1.132c0.515,0.557,0.925,0.438,1.27-0.368C42.965,112.833,42.776,112.57,42.206,112.562z
		 M16.683,126.404l0.034-9.056l12.102-5.125C26.392,117.514,21.898,122.76,16.683,126.404L16.683,126.404z M124.189,133.719
		l-1.612,1.63l-15.623-20.481l0.979-2.585L124.189,133.719z M38.57,113.003c0.524,0.008,1.712,1.834,2.045,3.145
		c0.247,0.973-0.015,1.179-1.849,1.453c-0.759,0.21-2.812,0.007-2.646-0.542C36.418,116.266,38.386,113.001,38.57,113.003
		L38.57,113.003z M95.167,113.212l5.7,0.062l-1.306,4.703l-5.97-0.088L95.167,113.212z M97.686,113.499l-2.654,1.848l2.099,2.08
		l2.812-1.747L97.686,113.499z M106.63,115.522l15.803,20.627c-4.714,6.031-9.417,12.959-12.509,22.118
		C104.297,145.031,102.237,132.149,106.63,115.522z M42.443,117.277c0.32,0,0.582,0.26,0.582,0.581c0,0.321-0.262,0.585-0.582,0.585
		c-0.32,0-0.578-0.264-0.578-0.585C41.865,117.537,42.123,117.277,42.443,117.277z M40.624,118.064
		c0.987,0.071,0.056,3.23-1.429,4.382c-1.17,0.909-1.673,0.487-1.944-1.176c-0.098-0.601-0.726-1.621-1.279-2.427
		c-0.617-0.9-0.363-1.043,1.202-0.682C38.266,118.374,39.615,118.114,40.624,118.064z M93.442,118.836l5.978,0.036l-0.921,7.141
		L93.442,118.836z M35.205,119.166c0.942,0.884,2.132,3.981,1.521,4.205c-0.71,0.259-3.924-0.116-4.284-0.489
		c-0.247-0.256-0.248-0.258,0.278-0.964c0.289-0.389,0.84-1.164,1.225-1.724C34.293,119.785,34.678,118.676,35.205,119.166z
		 M38.533,119.272c-0.91,0.031-0.971,0.157-0.539,1.143c0.352,0.804,0.596,0.877,1.202,0.349
		C40.037,120.029,39.684,119.233,38.533,119.272z M143.446,119.892l0.216,3.521c-22.977,11.46-31.58,38.518-31.705,38.518
		l-1.668-3.121C120.833,132.683,134.854,125.117,143.446,119.892L143.446,119.892z M35.18,124.056
		c1.367-0.029,1.768-0.123,1.76,0.387c0.017,1.371-1.259,3.317-2.815,4.051c-1.048,0.495-1.072,0.507-1.19-0.736
		c-0.091-0.955-0.401-2.185-0.894-3.164c-0.155-0.363-0.749-1.196,0-0.959c0.746,0.237,2.288,0.439,3.141,0.421H35.18z
		 M38.248,123.737c0.32,0,0.578,0.26,0.578,0.582c0,0.321-0.258,0.581-0.578,0.581s-0.577-0.26-0.577-0.581
		C37.671,123.997,37.928,123.737,38.248,123.737z M30.927,124.54c0.248-0.008,0.484,0.505,0.766,1.259
		c0.614,1.639,0.801,2.527,0.62,2.913c-0.28,0.594-4.05,0.211-4.691-0.454C27.5,128.35,30.396,124.87,30.927,124.54z
		 M33.643,124.947c-0.541,0.037-0.255,0.364,0.146,1.313c0.278,0.657,0.653,0.763,1.083,0.303c0.574-0.616,0.651-1.105,0.288-1.369
		C34.629,124.979,34.235,124.95,33.643,124.947z M143.607,128.508l0.02,1.18c-0.895-0.268-1.45-0.65-2.47-0.99
		c-0.625-0.212-0.995-0.362-0.442-1.024c0.866-1.037,1.794-1.686,2.849-2.329l0.008,1.335c-1.686,0.751-1.522,1.445,0.038,1.828
		H143.607z M77.191,127.31h6.348v4.214h4.966l-0.386,4.804h-4.579v4.215h-6.348v-4.215h-4.534l0.366-4.804h4.168L77.191,127.31z
		 M91.527,127.325c-3.215,16.018-0.266,33.021,4.694,46.876l-2.502,0.276c-3.866-11.078-6.939-26.851-3.813-47.143
		C89.906,127.333,91.025,127.313,91.527,127.325z M138.643,127.635c0.32,0,0.578,0.26,0.578,0.581c0,0.321-0.258,0.581-0.578,0.581
		s-0.578-0.26-0.578-0.581C138.065,127.895,138.323,127.635,138.643,127.635z M26.975,128.979c0.21-0.007,0.855,0.273,1.428,0.434
		c0.862,0.241,1.542,0.345,2.327,0.36c1.578,0.031,1.785,0.017,1.106,1.322c-0.489,0.94-1.59,2.182-2.361,2.56
		c-1.091,0.586-1.509,0.507-1.444-0.573c0.008-0.732-0.309-2.005-0.721-2.913C26.99,129.462,26.624,128.99,26.975,128.979z
		 M33.651,129.494c0.32,0,0.582,0.26,0.582,0.581s-0.262,0.585-0.582,0.585s-0.578-0.264-0.578-0.585S33.331,129.494,33.651,129.494
		z M140.456,129.417c0.447-0.01,1.214,0.265,1.915,0.607c1.855,0.907,1.805,1.115-0.709,2.91c-1.826,1.393-2.257,1.549-2.323-0.648
		C139.273,130.436,139.473,129.438,140.456,129.417L140.456,129.417z M26.024,129.947c0.737,0.011,1.552,3.867,0.89,4.211
		c-1.031,0.535-4.223-0.507-4.21-1.386C22.703,132.486,25.699,129.942,26.024,129.947L26.024,129.947z M138.238,129.789
		c0.44-0.02,0.499,0.328,0.459,1.557c-0.022,0.651,0.089,1.713,0.134,2.208c0.094,1.028,0.009,1.099-0.801,0.64
		c-0.516-0.295-1.567-0.777-2.703-0.876c-0.932-0.081-1-0.466-0.711-1.084C135.438,130.865,136.927,129.905,138.238,129.789z
		 M28.759,130.37c-0.643-0.005-0.484,0.339-0.085,1.306c0.283,0.685,0.772,0.749,1.275,0.167c0.704-0.817,0.566-1.25-0.458-1.407
		C29.274,130.403,28.907,130.371,28.759,130.37z M137.387,131.288c-0.268,0.025-0.633,0.238-0.809,0.353
		c-0.604,0.381-0.85,0.655,0.027,0.957c0.78,0.268,1.195,0.385,1.132-0.291C137.7,131.899,137.729,131.308,137.387,131.288
		L137.387,131.288z M77.808,131.787v4.199h5.053v-4.199H77.808z M132.873,132.152c0.32,0,0.578,0.26,0.578,0.581
		s-0.258,0.581-0.578,0.581c-0.32,0-0.578-0.26-0.578-0.581S132.553,132.152,132.873,132.152z M38.273,132.806l15.942,20.578
		l-1.059,2.682l-16.42-21.722L38.273,132.806z M143.707,132.709l0.035,2.689c-1.801,1.325-13.239,9.66-19.156,23.69l-3.098,1.327
		C125.85,148.341,135.176,137.999,143.707,132.709L143.707,132.709z M22.43,133.848c1.038,0.317,2.029,1.043,3.009,1.174
		c1.126,0.138,1.515,0.066,1.21,0.651c-0.683,1.309-1.972,2.68-3.332,3.129c-0.972,0.321-1.431,0.2-1.278-0.408
		c0.286-1.136,0.335-2.069,0.296-3.105C22.487,134.724,22.008,133.934,22.43,133.848L22.43,133.848z M21.213,134.088
		c0.661,0.569,0.53,4.165-0.208,4.939c-0.386,0.404-1.507,0.035-3.186-0.923c-1.098-0.625-1.303-1.007-0.755-1.391
		C17.993,136.147,20.713,133.953,21.213,134.088L21.213,134.088z M135.11,134.166c0.344-0.007,0.77,0.052,1.283,0.17
		c1.986,0.449,2.429,0.905,0.736,2.258c-0.627,0.5-1.291,1.123-1.483,1.36c-0.911,1.125-1.546,0.31-1.745-1.732
		C133.762,134.795,133.975,133.982,135.11,134.166L135.11,134.166z M132.623,134.36c0.322,0,0.53,0.169,0.524,0.573
		c-0.009,0.515,0.36,2.747,0.566,3.362c0.358,1.044,0.098,1.281-0.763,0.825c-0.627-0.339-2.288-0.598-3.185-0.527
		c-1.022,0.08-0.993-0.194-0.694-1.056C129.6,136.006,131.654,134.36,132.623,134.36L132.623,134.36z M23.401,135.103
		c-0.388-0.002-0.404,0.525-0.139,1.732c0.085,0.384,0.413,0.361,1.033-0.078c0.733-0.517,0.702-0.843-0.124-1.34
		C23.83,135.212,23.577,135.103,23.401,135.103z M27.919,135.235c0.32,0,0.578,0.26,0.578,0.581c0,0.321-0.258,0.58-0.578,0.58
		s-0.578-0.259-0.578-0.58C27.341,135.494,27.599,135.235,27.919,135.235z M130.735,137.493c0.277,0.272,1.302,0.261,1.478,0.096
		c0.271-0.251,0.145-1.417-0.08-1.556C131.555,135.836,130.389,137.062,130.735,137.493z M35.048,139.713
		c0.349,1.662,2.673,1.569,2.411-0.163c-0.153-1.013-0.188-0.991,0.316-0.97c2.4,0.12,1.984,3.925-0.782,3.631
		c-0.577,0.069-0.654,0.306-0.166,0.511c0.486,0.202,2.344,0.682,2.631,0.682c3.011-0.012,7.352,4.642,7.245,8.772
		c-0.07,2.702,0.841,4.646,1.772,4.865c0.741,0.176,1.815-0.502,1.723-1.328c-0.129-1.14,0.794-0.784,1.324,0.035
		c0.81,1.133-0.234,2.767-2.164,2.637c-0.822,0.161,0.602,0.686,1.658,0.993c0.958,0.055,0.149,1.24-0.029,1.452
		c-0.541,0.631-2.314,0.149-3.705-0.98c-1.708-1.387-2.442-3.245-2.643-6.895c-0.129-2.347-0.303-2.823-0.982-1.856
		c-1.22,2.157-4.142,1.101-4.506-1.178c-0.205-1.207,0.852-2.079,1.194-0.984c0.905,2.273,3.122,1.726,2.761-0.531
		c-0.237-1.491-1.721-2.312-4.649-3.143c-3.521-0.995-4.568-2.208-5.254-5.112c-0.304-1.285-0.256-1.957,0.42-2.629
		c0.334-0.333,0.758-0.67,0.758-0.67S34.852,138.808,35.048,139.713L35.048,139.713z M127.147,137.87
		c0.32,0,0.578,0.259,0.578,0.582c0,0.321-0.258,0.58-0.578,0.58c-0.32,0-0.578-0.259-0.578-0.58
		C126.569,138.128,126.827,137.87,127.147,137.87z M16.637,138.422c1.049,0.382,1.949,0.946,3.03,1.317
		c0.701,0.239,0.51,0.805-0.217,1.607c-0.81,0.96-1.606,1.434-2.729,1.969l0.012-1.624c1.364-0.48,2.234-1.622-0.059-1.989
		L16.637,138.422z M129.874,139.329c0.398,0.004,0.959,0.018,1.62,0.155c1.671,0.347,1.867,0.496,0.863,1.677
		c-0.373,0.437-0.926,1.097-1.229,1.468c-0.988,1.385-1.519,0.909-1.98-0.88C128.577,139.882,128.447,139.167,129.874,139.329z
		 M21.875,139.996c0.32,0,0.578,0.259,0.578,0.58c0,0.321-0.258,0.582-0.578,0.582c-0.32,0-0.578-0.261-0.578-0.582
		C21.297,140.254,21.555,139.996,21.875,139.996z M128.191,141.261c0.159,0.59,0.401,1.34,0.586,1.873
		c0.906,2.01,0.333,1.232-1.292,1.056c-1.092-0.12-2.83,0.063-3.26-0.241c-0.187-0.245-0.015-0.89,0.335-1.618
		c0.493-1.025,1.389-1.899,2.058-2.296C128.312,139.249,127.917,140.248,128.191,141.261z M30.583,140.546l18.21,24.212
		l-1.428,2.046L28.634,141.91L30.583,140.546z M144.706,140.636c-9.465,6.879-13.101,15.228-13.839,16.318l13.878-5.384
		L144.706,140.636z M126.633,141.424c-0.519,0.145-1.264,1.113-0.944,1.491c0.191,0.2,0.954,0.225,1.32,0.09
		C127.574,142.797,127.189,141.422,126.633,141.424z M46.831,167.609l-3.879,4.916l-20.21-26.289l5.1-3.703L46.831,167.609z
		 M143.698,142.059l0.142,9.035l-11.87,4.977C135.944,149.318,139.839,145.143,143.698,142.059z M62.532,142.825l4.754,6.223
		l-5.809-0.131L62.532,142.825z M122.648,143.334c0.32,0,0.577,0.259,0.577,0.58c0,0.321-0.257,0.582-0.577,0.582
		c-0.32,0-0.579-0.261-0.579-0.582C122.07,143.593,122.329,143.334,122.648,143.334z M126.132,144.806
		c2.175,0.031,2.901,0.149,2.268,1.223c-0.844,1.05-1.342,2.046-2.262,3.016c-0.532,0.545-1.196-0.576-1.751-2.371
		c-0.447-1.448-0.221-1.814,0.631-1.826S126.013,144.804,126.132,144.806z M123.621,146.767c0.178,0.572,0.593,1.513,0.925,2.087
		c0.33,0.574,0.7,1.213,0.678,1.325c-0.056,0.268-0.31,0.29-0.882,0.072c-1.24-0.56-4.151,0.033-4.228-0.245
		c-0.434-0.619,0.216-2.31,1.438-3.48c0.597-0.572,1.145-0.944,1.461-0.95C123.328,145.572,123.386,146.011,123.621,146.767
		L123.621,146.767z M22.044,146.32l20.565,26.857l-1.423,1.742L20.39,147.545c0,0-3.283,1.616-4.249,2.157l0.13,13.89l-0.563-0.027
		l0.084,70.358l11.475-11.506l-0.149-47.741c2.435,2.304,4.518,4.759,7.305,7.019l4.772-0.039
		c12.458-12.742,19.281-23.648,20.779-43.177c1.002-13.064-3.315-29.492-14.762-45.414l-2.796,1.707l5.523,8.371l-11.7,5.214
		c-4.659,9.88-10.184,18.997-20.289,24.219l-0.057,12.788l-0.177,0.263l0.134,4.017L22.044,146.32z M122.59,147.239
		c-0.546,0.041-1.401,1.225-1.009,1.63c0.461,0.219,1.172,0.204,1.469-0.192C123.253,148.288,123.202,147.467,122.59,147.239z
		 M61.243,150.004l6.039,0.035l-1.579,5.21l-5.882-0.112L61.243,150.004z M118.614,149.981c0.32,0,0.578,0.261,0.578,0.582
		s-0.258,0.58-0.578,0.58c-0.32,0.002-0.578-0.259-0.578-0.58S118.294,149.981,118.614,149.981z M87.845,150.139l0.781,6.768
		c-6.587,2.408-13.69,6.493-19.901,14.008c-1.062-0.071-9.533,0.073-9.533,0.073c0.212,0.031,7.85-14.46,8.728-20.75L87.845,150.139
		z M63.925,150.77l-2.77,1.914l2.165,2.32l2.865-1.953L63.925,150.77z M121.564,150.798c0.589-0.002,1.378,0.071,2.011,0.182
		c1.021,0.2,1.171,0.219,0.828,1.066c-0.46,1.125-1.495,3.151-1.757,3.313c-0.936,0.582-3.013-3.599-2.305-4.322
		C120.528,150.89,120.925,150.802,121.564,150.798L121.564,150.798z M118.915,152.085c0.268-0.023,0.625,0.5,0.73,0.95
		c0.128,0.547,1.071,1.928,1.666,2.588c0.747,0.833,0.708,0.948-0.362,1.035c-1.274,0.102-2.519,0.355-3.236,0.617
		c-1.112,0.406-1.263,0.315-1.121-0.991C116.806,154.315,118.113,152.154,118.915,152.085L118.915,152.085z M117.939,156.157
		c0.139,0.38,1.865-0.319,1.961-0.778c-0.017-0.204-0.694-1.391-1.101-1.446C118.109,154.042,117.819,155.616,117.939,156.157z
		 M59.661,155.888l5.708,0.055l-1.872,4.73l-5.643-0.016L59.661,155.888z M62.217,156.523l-2.735,1.738l2.131,2.073l2.619-1.816
		L62.217,156.523z M120.266,157.379c0.485-0.004,0.998,0.043,1.106,0.221c0.303,0.502-0.932,3.309-0.932,3.309l-2.013,0.801
		c-0.432-0.895-1.172-1.826-1.352-2.796c-0.071-0.423,0.142-0.578,0.608-0.843C118.377,157.681,119.457,157.387,120.266,157.379
		L120.266,157.379z M114.875,157.608c0.32,0,0.579,0.261,0.579,0.582s-0.259,0.58-0.579,0.58c-0.319,0-0.577-0.259-0.577-0.58
		S114.557,157.608,114.875,157.608z M88.845,157.691c0,0,1.233,7.007,1.301,6.235c-9.521,3.605-15.089,8.927-17.728,14.117
		l-17.861-0.014l3.987-6.221l10.575-0.053C74.229,165.519,80.535,160.544,88.845,157.691z M86.559,159.341l-0.882,2.831l2.669,1.711
		l1.005-3.039L86.559,159.341z M115.816,159.395c0.227-0.022,0.45,0.361,0.909,1.182c0.339,0.603,0.785,1.485,0.785,1.485
		l-0.798,0.298c-0.643-2.214-1.235-1.391-1.304,0.564l-1.095,0.437c0,0,0.119-1.883,0.745-2.982
		C115.417,159.746,115.617,159.413,115.816,159.395L115.816,159.395z M57.596,161.331l5.535,0.069l-2.315,4.824l-5.628-0.157
		L57.596,161.331z M81.739,161.717l-0.438,3.58l2.981,0.635l0.408-3.4L81.739,161.717z M59.951,161.76l-2.735,1.779l1.795,2.373
		l2.631-1.777L59.951,161.76z M77.464,164.895l-0.566,3.296l2.797,0.639l0.636-3.315L77.464,164.895z M16.691,165.087l6.998,6.977
		l0.386,48.671l-6.96,7.019L16.691,165.087z M54.767,166.871c-0.025,0.039,5.584,0.161,5.584,0.161l-2.244,4.074l-1.917-0.086
		l2.523-1.732l-1.619-2.079l-2.592,1.701l1.444,2.102l-3.786-0.08L54.767,166.871z M90.87,168.076l1.901,6.315l-2.286,0.398
		l-1.717-5.941C89.469,168.483,90.169,168.303,90.87,168.076z M72.916,168.469l0.038,3.789l3.051,0.259l0.12-3.552L72.916,168.469z
		 M88.08,169.075l1.738,6l-1.45,0.415l-2.078-5.696C86.86,169.455,87.453,169.208,88.08,169.075z M85.433,170.313l2.234,5.874
		c-3.086,1.258-6.287,3.952-8.696,6.64c-1.785-1.319-2.837-1.458-3.938-1.756C78.072,175.378,81.66,172.39,85.433,170.313
		L85.433,170.313z M51.713,171.785l5.87,0.178l-4.083,6.133l-6.641-0.008L51.713,171.785z M69.187,172.014l-0.382,3.588l3.143,1.867
		l0.478-3.686L69.187,172.014z M65.401,172.517l-2.235,2.375l2.373,2.724l2.177-2.843L65.401,172.517z M60.405,172.641l-2.653,2.449
		l2.11,2.769l2.427-2.784L60.405,172.641z M26.592,174.926l0.26,47.547l-9.751,9.505l-0.073-2.559l7.751-8.139
		c0.009-16.083-0.042-32.167-0.096-48.25L26.592,174.926z M52.536,173.389l-2.693,3.691l3.193,0.008l2.315-3.576L52.536,173.389z
		 M35.93,196.399c-1.061,3.84-5.956,8.008-6.044,7.937c2.423,3.494,2.342,8.472,0.204,10.926c0.011-0.055,3.896,3.188,4.442,4.873
		c0.307,0.672,0.431,1.487,0.82,2.153c0.103,0.176,0.432,0.615,0.432,0.615C45.276,213.224,40.755,201.881,35.93,196.399z
		 M36.072,197.402c9.216,11.498,3.14,22.024-0.075,24.959l-0.614-1.021c6.848-8.002,3.945-17.834-0.044-22.49L36.072,197.402z
		 M35.076,199.639c0.061,0.188,0.42,0.729,0.153,0.694l-0.462-0.092L35.076,199.639z M35.005,200.923
		c0.201,0,0.368,0.063,0.459,0.202c0.187,0.314-0.765,2.957-1.354,2.341c-0.177-0.351-0.386-0.652-0.549-1.015
		c-0.191-0.431-0.066-0.639,0.374-1.068C34.238,201.087,34.672,200.923,35.005,200.923z M36.33,201.638
		c0.466,0.037,1.129,1.511,1.191,2.565c0.028,0.11-1.573-0.247-1.999-0.739C35.573,203.031,35.975,201.934,36.33,201.638z
		 M32.725,202.843c2.775,5.61,2.601,9.991,0.158,14.021l-1.914-1.646c1.287-3.064,1.925-6.335-0.243-10.498L32.725,202.843z
		 M34.597,204.246c0.192-0.018,0.785,0.071,1.311,0.239c1.856,0.598,1.926,1.82,0.138,2.716c-0.741,0.372-0.971,0.208-1.398-1.662
		C34.436,204.616,34.277,204.273,34.597,204.246L34.597,204.246z M38.183,206.395c0.358-0.002,0.523,0.678,0.566,1.852
		c0.042,1.115-0.193,1.201-1.086,0.408c-0.964-0.86-1.13-1.064-0.247-1.771C37.675,206.677,38.021,206.395,38.183,206.395
		L38.183,206.395z M35.653,208.235c0.177-0.016,0.69,0.314,1.191,0.698c1.269,0.972,0.988,1.64-0.455,2.11
		c-0.999,0.327-0.95,0.368-0.924-1.37C35.477,208.813,35.426,208.255,35.653,208.235z M52.462,209.818
		c-1.55,0.396-2.2,1.785-1.686,3.037c0.233,0.568,0.59,0.574,0.173,0.921c-0.466,0.541-0.713,1.791-0.201,2.245
		c0.604,0.349,0.759-0.253,0.124,0.923L39.196,238.51l70.077-0.131l-8.422-15.863c0.02-0.022,0.674-2.616-0.674-2.929
		c-0.433-0.1-0.68-0.506-0.768-0.892c0.11-1.105-0.388-1.573-0.808-2.144c-6.662,0.946-12.448,0.474-17.227-0.607
		c-6.886-1.556-11.807-4.254-15.006-5.1C61.953,209.675,56.627,209.168,52.462,209.818z M56.237,209.967
		c5.43-0.033,11.508,1.638,15.762,3.49c4.413,1.834,9.089,3.2,13.813,3.901c3.898,0.492,7.788,0.245,11.515-0.053
		c0.408-0.061,0.83-0.006,1.134,0.319c0.773,0.864,0.246,1.405-1.687,1.585c-3.105,0.257-6.954,0.147-10.369-0.368
		c-5.408-0.625-11.14-2.269-16.085-4.33c-6.181-2.334-11.858-3.113-16.342-2.426c-2.464,0.378-2.826,0.437-2.816-0.229
		C51.18,210.559,52.247,209.965,56.237,209.967L56.237,209.967z M38.445,213.731c-0.238,0.551-1.928-1.25-1.91-1.758
		c0.035-0.225,1.403-1.121,1.945-1.485c0.262-0.204,0.245-0.098,0.248,0.139C38.739,211.308,38.686,213.059,38.445,213.731z
		 M35.846,212.403c0.779,0.106,2.06,2.222,0.932,2.549c-1,0.29-1.908,0.476-2.03-0.198c0.514-1.654,0.708-2.308,1.004-2.347
		C35.784,212.403,35.815,212.403,35.846,212.403L35.846,212.403z M81.16,219.629c4.974,0.864,11.504,1.381,15.771,1.046
		c2.446-0.247,2.961-0.169,2.947,0.858c-0.009,0.643,0.061,0.627-3.097,0.623c-2.624,0.176-4.986-0.108-7.526-0.239
		c-5.256-0.263-10.031-1.168-14.445-2.708c-4.895-1.277-9.136-3.731-13.927-4.238c-4.394-0.433-8.346,0.349-9.175,0.811
		c-0.277-0.004-0.421-0.415-0.405-0.796c0.016-0.372,0.154-0.67,0.463-0.907C64.359,210.884,71.101,217.726,81.16,219.629z
		 M37.491,215.397c0.419,0.006,0.285,0.629-0.401,1.954c-0.584,1.125-0.814,1.119-1.144-0.035c-0.353-1.232-0.319-1.37,0.382-1.55
		C36.739,215.665,37.088,215.45,37.491,215.397z M34.552,216.026c0.491,0.006,1.19,2.247,0.832,2.669
		c-0.283,0.333-1.308,0.106-1.607-0.286C33.297,217.775,33.911,216.016,34.552,216.026z M56.567,216.631
		c1.953-0.02,3.9,0.19,5.69,0.5c-1.031,0.382-2.056,0.737-3.126,1.358C58.393,217.85,57.553,217.229,56.567,216.631z
		 M59.105,219.349c6.904-3.87,9.819,1.473,10.816,2.336c6.036-1.344,7.218-0.682,10.584,2.976c6.044-2.972,8.974-0.445,11.496,1.152
		c2.96-2.78,6.712-2.857,8.668-1.462c0.366,0.615,0.874,1.397,0.915,1.628c0.033,0.182-0.243-0.029-0.924-0.519
		c-3.549-2.553-9.439,0.627-7.865,3.995c0.424,0.907,0.356,1.297-0.278,1.662c-0.9,0.611-2.006-0.404-1.378-1.442
		c1.047-1.732,0.258-3.18-2.289-4.52c-3.589-1.887-9.453,0.227-8.247,3.01c0.772,0.89,0.056,1.517-0.963,1.483
		c-1.154-0.035-1.544-0.811-0.804-1.642c0.923-1.06,0.681-2.134-0.394-3.356c-3.223-4.618-9.745-2.788-8.881,1.258
		c0.379,1.005-0.698,1.411-1.818,0.964c-0.712-0.284-0.605-1.391,0.174-1.781c0.897-0.092,1.024-1.397,0.916-2.236
		c-0.155-1.219-1.944-2.422-3.713-3.059c-1.28-0.462-2.47-0.56-3.409-0.474c-1.981,0.182-3.088,1.536-2.761,3.564
		c0.192,1.195-0.14,2.436-1.537,1.779c-0.764-0.361-0.573-1.23,0.208-2.032c2.744-2.694-2.781-5.974-6.117-3.715
		c-0.565,0.468-0.977,0.551-0.977,0.551C52.617,214.231,59.166,219.135,59.105,219.349z M68.197,218.643l4.168,1.579
		c-0.961,0.19-1.638,0.462-2.319,0.735L68.197,218.643z M57.311,220.346c-3.847-0.733-4.056,3.59-1.549,4.295
		c-3.449,4.765,5.582,6.615,3.926,0.735c4.576,0.829,3.748-4.407,0.345-4.36c0.796-1.952,7.077-0.472,6.807,0.978
		c-4.246,0.453-2.549,4.344-0.712,4.348c-4.441,4.228,4.446,8.126,4.21,1.752c3.565,0.754,3.985-4.005,0.557-4.318
		c1.256-1.775,5.739-0.656,6.981,1.375c-3.538,0.472-3.318,3.595-0.548,4.101c-3.509,4.493,5.127,6.154,4.23,0.931
		c3.095,1.07,4.793-3.082,0.784-4.27c4.106-2.459,8.567,1.207,8.083,1.281c-4.687-0.278-3.753,4.444-0.361,4.189
		c-2.158,4.904,6.393,5.177,4.224,0.09c3.846,0.071,3.509-4.411-0.176-4.71c2.32-1.701,4.936-1.85,6.619-0.259
		c-3.507,0.929-2.049,5.028,1.478,3.891c0.326,3.431,3.1,2.704,3.162,2.6l2.481,4.655l-67.238,0.108l5.739-10.651
		c3.392,0.174,3.271-3.108,3.122-3.188c2.255,1.618,4.682-2.406,1.381-3.56C53.553,217.523,57.55,220.142,57.311,220.346
		L57.311,220.346z M35.422,220.05c-0.14,0.143-0.177,0.231-0.409,0.016C34.427,219.39,36.021,219.335,35.422,220.05z
		 M49.325,221.833c0.296,0.245,0.093,0.911-0.147,1.14c-0.606,0.652-0.811,0.6-0.278-0.527
		C49.058,222.106,49.207,221.829,49.325,221.833L49.325,221.833z M78.783,222.135l3.496,0.85l-1.66,0.942
		C80.006,223.258,79.415,222.68,78.783,222.135z M89.709,223.552l3.802,0.243c-0.503,0.345-0.996,0.664-1.611,1.291
		C91.423,224.575,90.516,224.063,89.709,223.552z M102.375,227.451c0.212,0.443,1.051,1.985,0.972,2.026
		C102.117,229.692,101.789,227.853,102.375,227.451z"/>
	<path id="path12536" fill="#D40000" d="M38.886,74.402c-4.148-6.852-8.514-13.511-13.969-19.2
		c5.455-5.689,9.82-12.348,13.969-19.2c4.149,6.852,8.515,13.511,13.969,19.2C47.4,60.891,43.035,67.55,38.886,74.402z"/>
	<path id="path12538" fill="#D40000" d="M4.934,65.824c-1.729-2.855-3.548-5.629-5.821-8
		c2.273-2.37,4.092-5.145,5.821-8c1.728,2.855,3.547,5.63,5.82,8C8.481,60.195,6.663,62.969,4.934,65.824z"/>
	<path id="path12540" fill="#D40000" d="M121.343,194.749c-4.148,6.852-8.514,13.51-13.969,19.2
		c5.455,5.688,9.82,12.348,13.969,19.2c4.149-6.852,8.514-13.512,13.969-19.2C129.856,208.259,125.492,201.601,121.343,194.749z"/>
	<path id="path12542" fill="#D40000" d="M155.296,203.315c-1.729,2.855-3.548,5.631-5.821,8
		c2.273,2.371,4.092,5.145,5.821,8c1.728-2.855,3.547-5.629,5.82-8C158.843,208.946,157.025,206.17,155.296,203.315z"/>
	<path id="path12544" fill="#D40000" d="M5.572,44.408h2.655l-3.901-9.749l-2.981,4.119
		l0.022,5.63H3.46v2.903h-7.378v-2.903h2.431V23.444l-2.431,0.01v-2.537h7.486v2.624H1.502L1.458,33.757l6.534-10.303H5.686v-2.537
		h7.963v2.537h-2.101l-5.379,8.42l5.267,12.538h2.339l0.012,2.904H5.597L5.572,44.408L5.572,44.408z"/>
	<path id="path12546" fill="#D40000" d="M154.658,224.733h-2.655l3.901,9.748l2.981-4.119
		l-0.021-5.629h-2.093v-2.904h7.377v2.904h-2.43v20.964l2.43-0.01v2.537h-7.485v-2.624h2.065l0.044-10.218l-6.534,10.304h2.307
		v2.537h-7.963v-2.537h2.101l5.379-8.421l-5.268-12.538h-2.339l-0.012-2.904h8.189l0.025,2.908V224.733z"/>
</g>
</svg>
