<?xml version="1.0" encoding="utf-8"?>
<!-- Generator: Adobe Illustrator 16.0.0, SVG Export Plug-In . SVG Version: 6.00 Build 0)  -->
<!DOCTYPE svg PUBLIC "-//W3C//DTD SVG 1.1//EN" "http://www.w3.org/Graphics/SVG/1.1/DTD/svg11.dtd">
<svg version="1.1" id="Layer_1" xmlns="http://www.w3.org/2000/svg" xmlns:xlink="http://www.w3.org/1999/xlink" x="0px" y="0px"
	 width="181px" height="252px" viewBox="0 0 181 252" enable-background="new 0 0 181 252" xml:space="preserve">
<g id="g6735" transform="matrix(0.99553491,0,0,0.99680337,9.0954445,-8.1397402)">
	<path id="rect6622-5" fill="#FFFFFF" stroke="#000000" stroke-width="1.0006" d="M1.02,9.846h161.498
		c4.717,0,8.542,3.82,8.542,8.531v232.386c0,4.712-3.825,8.531-8.542,8.531H1.02c-4.717,0-8.542-3.819-8.542-8.531V18.377
		C-7.522,13.665-3.697,9.846,1.02,9.846z"/>
	<path id="path6654-0" fill="#D40000" d="M6.252,65.824c-1.728-2.855-3.547-5.63-5.82-8
		c2.273-2.37,4.092-5.145,5.82-8c1.729,2.855,3.548,5.63,5.821,8C9.8,60.194,7.981,62.969,6.252,65.824z"/>
	<path id="path6656-6" fill="#D40000" d="M123.183,74.402c-4.149-6.852-8.515-13.511-13.969-19.2
		c5.454-5.689,9.819-12.348,13.969-19.2c4.148,6.852,8.514,13.511,13.969,19.2C131.697,60.891,127.331,67.55,123.183,74.402z"/>
	<path id="path6658-8" fill="#D40000" d="M157.288,219.316c-1.728-2.855-3.547-5.629-5.82-8
		c2.273-2.371,4.092-5.145,5.82-8c1.728,2.855,3.548,5.629,5.82,8C160.836,213.687,159.016,216.462,157.288,219.316z"/>
	<path id="path6660-7" fill="#D40000" d="M40.356,74.402c-4.148-6.852-8.514-13.511-13.969-19.2
		c5.455-5.689,9.82-12.348,13.969-19.2c4.149,6.852,8.515,13.511,13.969,19.2C48.871,60.891,44.506,67.55,40.356,74.402z"/>
	<path id="path6676-4" fill="#D40000" d="M40.356,233.142c-4.148-6.852-8.514-13.51-13.969-19.2
		c5.455-5.688,9.82-12.348,13.969-19.2c4.149,6.852,8.515,13.512,13.969,19.2C48.871,219.632,44.506,226.29,40.356,233.142z"/>
	<path id="path6678-8" fill="#D40000" d="M123.183,233.148c-4.149-6.852-8.515-13.51-13.969-19.2
		c5.454-5.688,9.819-12.348,13.969-19.2c4.148,6.852,8.514,13.512,13.969,19.2C131.697,219.638,127.331,226.296,123.183,233.148z"/>
	<path id="path19-3-1-9-0" fill="#D40000" d="M6.436,47.312V44.98H8.54v-3.846H-1.985V38.42
		l11.39-17.504l1.861,0.009V38.42h3.222v2.715h-3.222l-0.061,3.846h1.764v2.335H6.436V47.312z M8.54,27.324L1.309,38.421H8.54
		V27.324z"/>
	<path id="path19-4-46-7-7" fill="#D40000" d="M157.101,221.828v2.332h-2.104v3.846h10.527v2.714
		l-11.391,17.505l-1.861-0.01V230.72h-3.222v-2.714h3.222l0.061-3.846h-1.764v-2.336h6.532V221.828z M154.997,241.816l7.232-11.098
		h-7.232V241.816z"/>
</g>
</svg>
