<?xml version="1.0" encoding="utf-8"?>
<!-- Generator: Adobe Illustrator 16.0.0, SVG Export Plug-In . SVG Version: 6.00 Build 0)  -->
<!DOCTYPE svg PUBLIC "-//W3C//DTD SVG 1.1//EN" "http://www.w3.org/Graphics/SVG/1.1/DTD/svg11.dtd">
<svg version="1.1" id="Layer_1" xmlns="http://www.w3.org/2000/svg" xmlns:xlink="http://www.w3.org/1999/xlink" x="0px" y="0px"
	 width="181px" height="252px" viewBox="0 0 181 252" enable-background="new 0 0 181 252" xml:space="preserve">
<g id="g6785" transform="matrix(0.99553491,0,0,0.99680337,9.8277174,-8.1397402)">
	<path id="rect6894-2" fill="#FFFFFF" stroke="#000000" stroke-width="1.0006" d="M0.284,9.846h161.499
		c4.718,0,8.542,3.82,8.542,8.531v232.387c0,4.71-3.824,8.531-8.542,8.531H0.284c-4.717,0-8.542-3.821-8.542-8.531V18.377
		C-8.258,13.665-4.433,9.846,0.284,9.846z"/>
	<path id="path6926-2" fill="#D40000" d="M5.517,65.824c-1.728-2.855-3.547-5.629-5.82-8
		c2.273-2.37,4.092-5.145,5.82-8c1.728,2.855,3.547,5.63,5.821,8C9.064,60.195,7.245,62.969,5.517,65.824z"/>
	<path id="path6928-9" fill="#D40000" d="M122.448,74.402c-4.149-6.852-8.515-13.511-13.969-19.2
		c5.454-5.689,9.819-12.348,13.969-19.2c4.149,6.852,8.515,13.511,13.969,19.2C130.962,60.891,126.597,67.55,122.448,74.402z"/>
	<path id="path6930-6" fill="#D40000" d="M156.553,219.316c-1.728-2.855-3.547-5.629-5.821-8
		c2.274-2.369,4.092-5.145,5.821-8c1.728,2.855,3.547,5.631,5.819,8C160.1,213.686,158.281,216.461,156.553,219.316z"/>
	<path id="path6932-2" fill="#D40000" d="M39.621,74.402c-4.149-6.852-8.514-13.511-13.969-19.2
		c5.455-5.689,9.82-12.348,13.969-19.2c4.149,6.852,8.514,13.511,13.969,19.2C48.135,60.891,43.771,67.55,39.621,74.402z"/>
	<path id="path6938-4" fill="#D40000" d="M81.035,114.073c-4.149-6.852-8.515-13.512-13.97-19.2
		c5.455-5.689,9.82-12.348,13.97-19.2c4.149,6.852,8.514,13.511,13.968,19.2C89.549,100.561,85.183,107.221,81.035,114.073z"/>
	<path id="path6942-4" fill="#D40000" d="M39.621,153.745
		c-4.149-6.852-8.514-13.512-13.969-19.201c5.455-5.688,9.82-12.348,13.969-19.2c4.149,6.852,8.514,13.512,13.969,19.2
		C48.135,140.233,43.771,146.893,39.621,153.745z"/>
	<path id="path6944-9" fill="#D40000" d="M122.448,153.756c-4.149-6.852-8.515-13.512-13.969-19.2
		c5.454-5.689,9.819-12.348,13.969-19.2c4.149,6.852,8.515,13.511,13.969,19.2C130.962,140.244,126.597,146.904,122.448,153.756z"/>
	<path id="path6948-4" fill="#D40000" d="M39.621,233.143c-4.149-6.852-8.514-13.512-13.969-19.2
		c5.455-5.688,9.82-12.348,13.969-19.2c4.149,6.852,8.514,13.512,13.969,19.2C48.135,219.631,43.771,226.291,39.621,233.143z"/>
	<path id="path6950-4" fill="#D40000" d="M122.448,233.149c-4.149-6.852-8.515-13.512-13.969-19.2
		c5.454-5.69,9.819-12.348,13.969-19.2c4.149,6.852,8.515,13.51,13.969,19.2C130.962,219.637,126.597,226.297,122.448,233.149z"/>
	<path id="path6956-4" fill="#D40000" d="M81.035,193.444c-4.149-6.852-8.515-13.512-13.97-19.2
		c5.455-5.688,9.82-12.348,13.97-19.2c4.149,6.852,8.514,13.512,13.968,19.2C89.549,179.932,85.183,186.592,81.035,193.444z"/>
	<path id="path27-00-7-8-6" fill="#D40000" d="M-3.061,39.583
		c0.126-3.545,1.408-4.874,3.931-6.729c-2.013-1.452-2.861-3.592-2.689-5.414c0.415-4.412,3.821-6.617,7.539-6.522
		c3.72,0.098,6.922,3.047,7.172,6.252c0.217,2.787-0.611,4.132-2.588,5.598c2.346,1.981,3.845,3.282,3.789,6.773
		c-0.055,3.491-3.025,7.645-8.201,7.771S-3.188,43.127-3.061,39.583L-3.061,39.583L-3.061,39.583z M11.388,39.596
		c0.222-3.209-2.615-5.374-5.817-5.405c-3.118-0.033-5.906,2.628-5.906,5.509c0,3.093,3.628,4.774,5.971,4.782
		C8.483,44.494,11.195,42.358,11.388,39.596L11.388,39.596z M10.364,28.117c0.061-2.699-2.431-4.637-5.002-4.559
		c-2.287,0.07-4.705,1.813-4.709,4.072c0,2.827,2.753,4.239,5.103,4.294C7.889,31.972,10.316,30.159,10.364,28.117L10.364,28.117
		L10.364,28.117z"/>
	<path id="path27-0-1-9-8" fill="#D40000" d="M147.976,229.557
		c0.126,3.545,1.407,4.873,3.93,6.729c-2.013,1.452-2.86,3.592-2.688,5.414c0.414,4.411,3.82,6.617,7.538,6.521
		c3.72-0.098,6.922-3.047,7.173-6.252c0.216-2.786-0.612-4.132-2.588-5.598c2.346-1.981,3.843-3.282,3.788-6.772
		c-0.055-3.492-3.025-7.646-8.201-7.771C151.752,221.7,147.846,226.013,147.976,229.557L147.976,229.557L147.976,229.557z
		 M162.423,229.545c0.222,3.208-2.615,5.373-5.817,5.404c-3.117,0.033-5.905-2.628-5.905-5.508c0-3.094,3.628-4.775,5.97-4.783
		C159.519,224.645,162.231,226.783,162.423,229.545L162.423,229.545z M161.399,241.024c0.061,2.7-2.431,4.636-5.001,4.559
		c-2.288-0.071-4.705-1.814-4.709-4.074c0-2.827,2.753-4.238,5.103-4.293C158.925,237.168,161.352,238.982,161.399,241.024
		L161.399,241.024L161.399,241.024z"/>
</g>
</svg>
