<?xml version="1.0" encoding="utf-8"?>
<!-- Generator: Adobe Illustrator 16.0.0, SVG Export Plug-In . SVG Version: 6.00 Build 0)  -->
<!DOCTYPE svg PUBLIC "-//W3C//DTD SVG 1.1//EN" "http://www.w3.org/Graphics/SVG/1.1/DTD/svg11.dtd">
<svg version="1.1" id="Layer_1" xmlns="http://www.w3.org/2000/svg" xmlns:xlink="http://www.w3.org/1999/xlink" x="0px" y="0px"
	 width="181px" height="252px" viewBox="0 0 181 252" enable-background="new 0 0 181 252" xml:space="preserve">
<g id="g6725" transform="matrix(0.99553491,0,0,0.99680337,8.9122851,-8.1397402)">
	<path id="rect6554-0" fill="#FFFFFF" stroke="#000000" stroke-width="1.0006" d="M1.204,9.846h161.498
		c4.718,0,8.542,3.82,8.542,8.531v232.387c0,4.71-3.824,8.531-8.542,8.531H1.204c-4.717,0-8.542-3.821-8.542-8.531V18.377
		C-7.338,13.665-3.513,9.846,1.204,9.846z"/>
	<path id="path6584-3" fill="#D40000" d="M81.954,74.402c-4.148-6.852-8.514-13.511-13.969-19.2
		c5.455-5.689,9.82-12.348,13.969-19.2c4.149,6.852,8.515,13.511,13.97,19.2C90.468,60.891,86.103,67.55,81.954,74.402z"/>
	<path id="path6586-2" fill="#D40000" d="M6.437,65.824c-1.729-2.855-3.548-5.63-5.821-8
		c2.273-2.37,4.092-5.145,5.821-8c1.728,2.855,3.547,5.63,5.82,8C9.984,60.194,8.165,62.969,6.437,65.824z"/>
	<path id="path6590-7" fill="#D40000" d="M157.472,219.316c-1.73-2.855-3.549-5.629-5.821-8
		c2.272-2.369,4.091-5.145,5.821-8c1.728,2.855,3.547,5.631,5.819,8C161.02,213.686,159.201,216.461,157.472,219.316z"/>
	<path id="path6600-5" fill="#D40000" d="M81.954,153.77c-4.148-6.852-8.514-13.512-13.969-19.2
		c5.455-5.689,9.82-12.348,13.969-19.2c4.149,6.852,8.515,13.511,13.97,19.2C90.468,140.258,86.103,146.918,81.954,153.77z"/>
	<path id="path6606-3" fill="#D40000" d="M81.954,233.139c-4.148-6.852-8.514-13.512-13.969-19.2
		c5.455-5.69,9.82-12.348,13.969-19.2c4.149,6.852,8.515,13.51,13.97,19.2C90.468,219.627,86.103,226.287,81.954,233.139z"/>
	<path id="path17-2-9-4-8" fill="#D40000" d="M-2.133,41.529l2.033-1.495
		c1.764,2.872,3.736,4.764,6.754,4.44c4.528-0.312,6.405-5.058,5.457-8.634c-0.916-3.208-4.665-4.771-7.646-3.061
		c-0.703,0.405-1.382,0.736-1.515,0.736c-0.313,0-1.02-1.408-0.924-1.837c2.001-2.921,6.859-8.039,6.859-8.039h-7.59v3.427h-2.913
		v-6.15h14.834v2.087c0,0-3.974,4.122-5.287,6.379c3.234,0.119,5.842,2.168,6.777,5.41c0.546,1.706,0.302,5.609-0.413,7.292
		c-1.194,2.804-4.455,5.079-7.438,5.21C1.849,47.629-0.807,44.122-2.133,41.529L-2.133,41.529L-2.133,41.529z"/>
	<path id="path17-5-3-3-8" fill="#D40000" d="M166.038,227.612l-2.033,1.495
		c-1.764-2.872-3.735-4.765-6.755-4.44c-4.526,0.312-6.404,5.057-5.456,8.633c0.916,3.209,4.665,4.771,7.645,3.061
		c0.704-0.404,1.383-0.735,1.517-0.735c0.312,0,1.02,1.407,0.922,1.836c-1.999,2.921-6.857,8.041-6.857,8.041h7.589v-3.429h2.913
		v6.151H150.69v-2.087c0,0,3.975-4.123,5.287-6.38c-3.235-0.118-5.842-2.167-6.778-5.41c-0.545-1.705-0.3-5.608,0.414-7.291
		c1.195-2.804,4.455-5.079,7.438-5.21C162.057,221.51,164.712,225.017,166.038,227.612L166.038,227.612z"/>
</g>
</svg>
