<?xml version="1.0" encoding="utf-8"?>
<!-- Generator: Adobe Illustrator 16.0.0, SVG Export Plug-In . SVG Version: 6.00 Build 0)  -->
<!DOCTYPE svg PUBLIC "-//W3C//DTD SVG 1.1//EN" "http://www.w3.org/Graphics/SVG/1.1/DTD/svg11.dtd">
<svg version="1.1" id="Layer_1" xmlns="http://www.w3.org/2000/svg" xmlns:xlink="http://www.w3.org/1999/xlink" x="0px" y="0px"
	 width="181px" height="252px" viewBox="0 0 181 252" enable-background="new 0 0 181 252" xml:space="preserve">
<g id="g6800" transform="matrix(0.99553491,0,0,0.99680337,10.010755,-8.1397402)">
	<path id="rect6962-4" fill="#FFFFFF" stroke="#000000" stroke-width="1.0006" d="M0.101,9.846h161.498
		c4.718,0,8.542,3.82,8.542,8.531v232.387c0,4.71-3.824,8.531-8.542,8.531H0.101c-4.717,0-8.542-3.821-8.542-8.531V18.377
		C-8.441,13.665-4.616,9.846,0.101,9.846z"/>
	<path id="path6994-9" fill="#D40000" d="M5.332,65.824c-1.728-2.855-3.547-5.63-5.82-8
		c2.273-2.37,4.092-5.145,5.82-8c1.729,2.855,3.548,5.63,5.821,8C8.88,60.194,7.062,62.969,5.332,65.824z"/>
	<path id="path6996-5" fill="#D40000" d="M122.264,74.402c-4.149-6.852-8.514-13.511-13.969-19.2
		c5.455-5.689,9.82-12.348,13.969-19.2c4.148,6.852,8.514,13.511,13.969,19.2C130.777,60.891,126.412,67.55,122.264,74.402z"/>
	<path id="path6998-7" fill="#D40000" d="M156.369,219.316c-1.728-2.855-3.547-5.629-5.821-8
		c2.274-2.369,4.092-5.145,5.821-8c1.728,2.855,3.547,5.631,5.821,8C159.916,213.686,158.098,216.461,156.369,219.316z"/>
	<path id="path7000-7" fill="#D40000" d="M39.438,74.402c-4.149-6.852-8.515-13.511-13.969-19.2
		c5.454-5.689,9.819-12.348,13.969-19.2c4.148,6.852,8.514,13.511,13.969,19.2C47.951,60.891,43.586,67.55,39.438,74.402z"/>
	<path id="path7002-0" fill="#D40000" d="M122.264,127.32c-4.149-6.852-8.514-13.512-13.969-19.2
		c5.455-5.689,9.82-12.348,13.969-19.2c4.148,6.852,8.514,13.511,13.969,19.2C130.777,113.808,126.412,120.468,122.264,127.32z"/>
	<path id="path7004-0" fill="#D40000" d="M39.438,127.32c-4.149-6.852-8.515-13.512-13.969-19.2
		c5.454-5.689,9.819-12.348,13.969-19.2c4.148,6.852,8.514,13.511,13.969,19.2C47.951,113.808,43.586,120.468,39.438,127.32z"/>
	<path id="path7008-2" fill="#D40000" d="M80.85,153.77c-4.148-6.852-8.514-13.512-13.969-19.2
		c5.455-5.689,9.82-12.348,13.969-19.2c4.149,6.852,8.514,13.511,13.97,19.2C89.364,140.258,85,146.918,80.85,153.77z"/>
	<path id="path7016-2" fill="#D40000" d="M39.438,233.143c-4.149-6.852-8.515-13.512-13.969-19.2
		c5.454-5.688,9.819-12.348,13.969-19.2c4.148,6.852,8.514,13.512,13.969,19.2C47.951,219.631,43.586,226.291,39.438,233.143z"/>
	<path id="path7018-0" fill="#D40000" d="M122.264,233.149c-4.149-6.852-8.514-13.512-13.969-19.2
		c5.455-5.69,9.82-12.348,13.969-19.2c4.148,6.852,8.514,13.51,13.969,19.2C130.777,219.637,126.412,226.297,122.264,233.149z"/>
	<path id="path7020-7" fill="#D40000" d="M122.264,180.226c-4.149-6.852-8.514-13.512-13.969-19.2
		c5.455-5.69,9.82-12.348,13.969-19.2c4.148,6.852,8.514,13.51,13.969,19.2C130.777,166.714,126.412,173.374,122.264,180.226z"/>
	<path id="path7022-4" fill="#D40000" d="M39.438,180.2c-4.149-6.852-8.515-13.512-13.969-19.2
		c5.454-5.69,9.819-12.348,13.969-19.2c4.148,6.852,8.514,13.51,13.969,19.2C47.951,166.688,43.586,173.348,39.438,180.2z"/>
	<path id="path29-5-3-7-8" fill="#D40000" d="M-2.042,42.226l2.415-0.765
		c0.912,2.434,2.752,3.155,4.7,2.999c3.495-0.279,4.657-4.186,4.917-7.64c-1.362,1.444-3.408,2.178-5.151,2.103
		c-5.573-0.299-6.999-4.759-7.05-9.428c-0.153-3.936,1.474-6.788,4.266-8.097c1.478-0.663,4.864-0.663,6.352,0.122
		c3.416,1.802,4.681,4.913,4.452,12.345c0,6.113-1.298,13.233-7.85,13.388C1.224,47.778-1.653,44.832-2.042,42.226L-2.042,42.226
		L-2.042,42.226z M7.443,35.527c1.137-0.719,1.776-1.395,2.287-2.406c0.418-0.831,0.563-1.264,0.442-2.982
		c-0.31-4.432-2.632-6.948-6.002-6.449c-1.88,0.283-2.908,1.334-3.499,3.291c-1.09,3.617,0.292,7.847,2.881,8.822
		C4.716,36.244,6.515,36.117,7.443,35.527L7.443,35.527z"/>
	<path id="path29-6-2-9-2" fill="#D40000" d="M163.742,226.914l-2.415,0.764
		c-0.912-2.434-2.751-3.155-4.699-2.998c-3.496,0.278-4.658,4.185-4.918,7.64c1.362-1.444,3.408-2.179,5.152-2.104
		c5.572,0.3,6.998,4.759,7.049,9.429c0.153,3.936-1.473,6.787-4.265,8.096c-1.479,0.664-4.865,0.664-6.353-0.121
		c-3.416-1.803-4.681-4.914-4.452-12.346c0-6.113,1.299-13.232,7.851-13.387c3.783-0.525,6.661,2.422,7.051,5.028l0,0H163.742z
		 M154.256,233.613c-1.136,0.719-1.776,1.395-2.286,2.406c-0.418,0.831-0.563,1.264-0.443,2.982c0.31,4.432,2.633,6.948,6.003,6.448
		c1.879-0.282,2.909-1.334,3.498-3.29c1.091-3.617-0.292-7.847-2.88-8.821C156.983,232.896,155.184,233.023,154.256,233.613
		L154.256,233.613L154.256,233.613z"/>
</g>
</svg>
