<?xml version="1.0" encoding="utf-8"?>
<!-- Generator: Adobe Illustrator 16.0.0, SVG Export Plug-In . SVG Version: 6.00 Build 0)  -->
<!DOCTYPE svg PUBLIC "-//W3C//DTD SVG 1.1//EN" "http://www.w3.org/Graphics/SVG/1.1/DTD/svg11.dtd">
<svg version="1.1" id="Layer_1" xmlns="http://www.w3.org/2000/svg" xmlns:xlink="http://www.w3.org/1999/xlink" x="0px" y="0px"
	 width="181px" height="252px" viewBox="0 0 181 252" enable-background="new 0 0 181 252" xml:space="preserve">
<g id="g6771" transform="matrix(0.99553491,0,0,0.99680337,9.6446796,-8.1397402)">
	<path id="rect6826-9" fill="#FFFFFF" stroke="#000000" stroke-width="1.0006" d="M0.469,9.846h161.498
		c4.717,0,8.542,3.82,8.542,8.531v232.387c0,4.71-3.825,8.531-8.542,8.531H0.469c-4.717,0-8.542-3.821-8.542-8.531V18.377
		C-8.073,13.665-4.249,9.846,0.469,9.846z"/>
	<path id="path6858-4" fill="#D40000" d="M5.7,65.824c-1.728-2.855-3.547-5.63-5.82-8
		c2.273-2.37,4.092-5.145,5.82-8c1.729,2.855,3.548,5.63,5.821,8C9.248,60.194,7.43,62.969,5.7,65.824z"/>
	<path id="path6860-1" fill="#D40000" d="M122.631,74.402c-4.149-6.852-8.515-13.511-13.969-19.2
		c5.454-5.689,9.819-12.348,13.969-19.2c4.148,6.852,8.514,13.511,13.969,19.2C131.145,60.891,126.78,67.55,122.631,74.402z"/>
	<path id="path6862-0" fill="#D40000" d="M156.736,219.316c-1.728-2.855-3.547-5.629-5.82-8
		c2.273-2.369,4.092-5.145,5.82-8c1.729,2.855,3.548,5.631,5.821,8C160.284,213.686,158.465,216.461,156.736,219.316z"/>
	<path id="path6864-5" fill="#D40000" d="M39.805,74.402c-4.148-6.852-8.514-13.511-13.969-19.2
		c5.455-5.689,9.82-12.348,13.969-19.2c4.149,6.852,8.515,13.511,13.969,19.2C48.319,60.891,43.954,67.55,39.805,74.402z"/>
	<path id="path6870-5" fill="#D40000" d="M81.218,114.073c-4.149-6.852-8.515-13.512-13.969-19.2
		c5.455-5.689,9.82-12.348,13.969-19.2c4.149,6.852,8.514,13.511,13.969,19.2C89.732,100.561,85.367,107.221,81.218,114.073z"/>
	<path id="path6874-1" fill="#D40000" d="M39.805,153.745
		c-4.148-6.852-8.514-13.512-13.969-19.201c5.455-5.688,9.82-12.348,13.969-19.2c4.149,6.852,8.515,13.512,13.969,19.2
		C48.319,140.233,43.954,146.893,39.805,153.745z"/>
	<path id="path6876-6" fill="#D40000" d="M122.631,153.756c-4.149-6.852-8.515-13.512-13.969-19.2
		c5.454-5.689,9.819-12.348,13.969-19.2c4.148,6.852,8.514,13.511,13.969,19.2C131.145,140.244,126.78,146.904,122.631,153.756z"/>
	<path id="path6880-5" fill="#D40000" d="M39.805,233.143c-4.148-6.852-8.514-13.512-13.969-19.2
		c5.455-5.688,9.82-12.348,13.969-19.2c4.149,6.852,8.515,13.512,13.969,19.2C48.319,219.631,43.954,226.291,39.805,233.143z"/>
	<path id="path6882-9" fill="#D40000" d="M122.631,233.149c-4.149-6.852-8.515-13.512-13.969-19.2
		c5.454-5.69,9.819-12.348,13.969-19.2c4.148,6.852,8.514,13.51,13.969,19.2C131.145,219.637,126.78,226.297,122.631,233.149z"/>
	<path id="path25-43-4-8-8" fill="#D40000" d="M1.641,47.313
		c1.736-9.179,3.584-16.07,8.437-23.548H0.215v3.219h-2.619v-6.068h14.428l1.779,2.849c-5.154,5.626-9.871,23.813-9.035,23.548
		H1.641z"/>
	<path id="path25-7-0-7-6" fill="#D40000" d="M160.793,221.827
		c-1.736,9.178-3.584,16.069-8.437,23.548h9.863v-3.219h2.619v6.068h-14.428l-1.779-2.849c5.154-5.627,9.871-23.814,9.035-23.548
		H160.793z"/>
</g>
</svg>
