<?xml version="1.0" encoding="utf-8"?>
<!-- Generator: Adobe Illustrator 16.0.0, SVG Export Plug-In . SVG Version: 6.00 Build 0)  -->
<!DOCTYPE svg PUBLIC "-//W3C//DTD SVG 1.1//EN" "http://www.w3.org/Graphics/SVG/1.1/DTD/svg11.dtd">
<svg version="1.1" id="Layer_1" xmlns="http://www.w3.org/2000/svg" xmlns:xlink="http://www.w3.org/1999/xlink" x="0px" y="0px"
	 width="181px" height="252px" viewBox="0 0 181 252" enable-background="new 0 0 181 252" xml:space="preserve">
<g id="g7094" transform="matrix(0.99553491,0,0,0.99680337,10.376831,-8.1397611)">
	<path id="rect7098-3" fill="#FFFFFF" stroke="#000000" stroke-width="1.0006" d="M-0.267,9.846h161.498
		c4.718,0,8.542,3.82,8.542,8.531v232.387c0,4.71-3.824,8.531-8.542,8.531H-0.267c-4.717,0-8.542-3.821-8.542-8.531V18.377
		C-8.809,13.665-4.984,9.846-0.267,9.846z"/>
	<path id="path7130-4" fill="#D40000" d="M5.303,65.824c-1.729-2.855-3.548-5.63-5.821-8
		c2.273-2.37,4.092-5.145,5.821-8c1.728,2.855,3.547,5.63,5.82,8C8.85,60.194,7.032,62.969,5.303,65.824z"/>
	<path id="path7134-0" fill="#D40000" d="M155.664,219.316c-1.728-2.855-3.547-5.629-5.82-8
		c2.273-2.369,4.092-5.145,5.82-8c1.728,2.855,3.548,5.631,5.821,8C159.212,213.686,157.392,216.461,155.664,219.316z"/>
	<path id="path7136-1" fill="#D40000" d="M39.254,74.402c-4.148-6.852-8.514-13.511-13.969-19.2
		c5.455-5.689,9.82-12.348,13.969-19.2c4.149,6.852,8.515,13.511,13.97,19.2C47.768,60.891,43.404,67.55,39.254,74.402z"/>
	<path id="path7154-5" fill="#D40000" d="M121.712,233.149c-4.149-6.852-8.515-13.512-13.969-19.2
		c5.455-5.69,9.819-12.348,13.969-19.2c4.149,6.852,8.514,13.51,13.969,19.2C130.225,219.637,125.861,226.297,121.712,233.149z"/>

		<path id="path6263-5" fill="#131F67" d="
		M15.175,239.832V29.308h130.615v210.524H15.175z M62.198,64.314c-4.671-1.274-4.557,3.368-1.138,3.542
		c3.832,0.33,5.472-6.205,3.643-8.781C64.703,59.074,63.11,63.997,62.198,64.314z M31.891,90.559l-5.609,2.504l-0.023,4.19
		C28.599,95.392,30.426,93.121,31.891,90.559L31.891,90.559z M70.176,216.457c-1.104-0.558-2.435-1.756-2.231-1.965
		c0.102-0.106,0.699,0.084,1.243,0.327c4.383,1.848,7.786,1.73,13.012-0.168c0.395-0.143,0.987,0.611,0.766,1.025
		C80.651,219.102,73.162,217.883,70.176,216.457L70.176,216.457z M67.865,211.315c-1.006-1.513,0.329-0.366,0.777,0.063
		c3.243,3.017,7.637,4.04,11.409,1.197c0.175-0.196,0.199-0.376,0.147-0.513c-0.108-0.278-0.11,0.02-1.723,0.58
		c-3.62,1.356-6.671,0.241-9.647-2.038c-1.225-0.944-1.795-1.411-1.795-1.658c0-0.227,0.23-0.368,0.642-0.298
		c0.255,0.045,0.968,0.192,1.489,0.235c0.906,0.074,0.837,0.035,1.765-0.392c1.984-0.917,3.812-1.252,5.885-0.88
		c0.48,0.086,1.083,0.245,1.165,0.217c0.464-0.155-0.221-0.766-1.978-2.161c-0.346-0.274-0.776-0.509-0.919-0.747
		c-0.221-0.37,0.021-0.468,0.271-0.464c0.722,0.008,3.968,2.724,5.081,4.334c0.338,0.49,0.572,0.543,0.573,1.052
		c-0.065,0.529-0.15,1.037,0.423,1.777c0.411,0.533,0.808,1.387,0.812,1.428c0.008,0.047-0.082,0.315-0.458,0.067
		c-0.172-0.031-0.254-0.216-0.568-0.17c-0.273,0.039-0.717,0.255-1.206,0.486C75.463,216.359,71.275,214.93,67.865,211.315
		L67.865,211.315z M77.828,211.11c0.091,0.01-0.314-1.673-0.772-2.169c-0.903-0.978-2.281-1.156-3.113-0.155
		c-0.468,0.562-0.983,2.134-0.983,2.134s0.73,0.214,0.933,0.214c0.028-0.351,0.031-1.334,0.755-1.912
		c0.357-0.28,1.124-0.27,1.423-0.037c0.593,0.29,0.844,1.47,0.851,1.93C77.248,211.213,77.996,211.121,77.828,211.11L77.828,211.11z
		 M72.329,208.686c-0.641,0.286-1.474,0.48-1.666,0.909c-0.252,0.566,0.638,0.737,1.102,0.929c0.641,0.31,0.655,0.196,0.862-0.298
		c0.129-0.31,0.3-0.711,0.463-1.082C73.57,208.218,73.09,208.345,72.329,208.686z M79.268,210.296
		c0.369-0.368,0.438-0.613,0.109-1.033c-0.149-0.19-0.574-0.382-1.037-0.539c-0.594-0.2-0.853-0.443-0.481,0.362l0.534,1.15
		C78.666,210.79,78.906,210.643,79.268,210.296z M18.589,171.001c0.226,0,2.464-0.735,3.261-1.089
		c0.79-0.302,0.884-0.292,0.57-0.729c-0.118-0.165-0.213-0.627-0.156-1.133l0.059-0.707c-1.379-0.28-3.438,0.484-4.147,1.45
		C17.671,169.41,17.723,170.783,18.589,171.001L18.589,171.001z M18.308,174.446c0.419,0.419,0.535,0.435,1.793-0.033
		c0.439-0.294,1.362-0.662,2.007-0.705c1.517-0.404,1.517-0.243,1.087-1.215c-0.197-0.447-0.262-0.817-0.2-1.23
		c0.074-0.488,0.131-0.556-0.144-0.643c-0.725-0.225-4.096,1.035-4.702,2.016C17.725,173.327,17.782,173.918,18.308,174.446z
		 M96.735,207.712c0.064,0.776,0.08,1.979,0.082,2.626c-0.031,1.262,0.474,1.556,1.011,0.864c0.532-1.646,0.745-4.246,2.012-5.563
		c0.94-0.272,2.094,0.21,2.766-0.443c1.544-1.499,0.334-3.192-1.08-3.313C98.631,201.828,96.53,205.351,96.735,207.712z
		 M103.797,203.672c0.101,1.599-1.492,2.688-3.111,2.318c-0.655-0.167-0.852-0.016-1.293,0.921
		c-0.954,2.571-1.332,5.149-1.585,6.834c-0.109,1.519-0.666,5.467-0.263,6.727c4.614,5.706,9.471,11.649,14.789,17.521h31.727
		v-37.273l-9.091-8.694l0.018-13.782c-9.834,4.636-19.638,9.336-29.454,14.014c2.138,6.866-5.114,8.304-6.704,3.703
		c-1.376,1.264-2.504,8.079-1.997,8.416c0,0,0.182,0.245,0.488-0.298c0.501-0.892,1.158-1.55,1.859-1.983
		C101.224,200.827,103.656,201.452,103.797,203.672z M78.622,202.976c-1.553-1.234-0.721-3.117,0.568-3.682
		c0.684-0.3,1.78-0.259,2.988,0.167c1.06,0.488,1.693,0.419,2.78,0.286c0.722-0.08,0.588,1.43-0.166,1.82
		c-0.531,0.274-1.748,0.145-3.228-0.699c-2.553-1.454-3.676,0.431-2.093,2.134C80.347,203.94,78.845,203.188,78.622,202.976
		L78.622,202.976z M26.044,180.408c1.365-0.88,0.798-2.432-0.474-2.69c-1.713,0.037-2.147,2.004-0.922,2.684
		c0,0.239-0.609,0.043-0.939-0.204c-0.511-0.382-0.045-1.877-0.52-1.938c-0.362,0.006-3.898,1.258-4.281,1.509
		c-1.588,0.901-0.097,2.939,0.825,2.706C21.65,181.991,24.253,181.56,26.044,180.408z M18.14,177.496
		c0.032,0.907,0.285,1.311,0.881,1.319c1.245-0.216,2.403-0.809,3.565-1.185c0.907-0.298,1.275-0.633,0.585-1.201
		c-0.21-0.239-0.395-0.584-0.294-1.238c0.237-0.749,0.056-0.786-0.262-0.821c-0.316-0.037-1.038,0.266-2.891,0.978
		c-0.975,0.374-1.162,0.537-1.415,1.074C18.195,176.832,18.124,177.083,18.14,177.496L18.14,177.496z M28.451,189.206
		c0.214-0.253,0.689-1.834,0.689-2.224c-0.096-0.652-0.58-0.799-1.008-0.378c-0.52,0.466-0.381,1.17-0.69,1.711
		c-0.107,0.188-0.221,0.447-0.189,0.553C27.419,189.435,28.119,189.541,28.451,189.206L28.451,189.206z M32.508,180.596
		c15.851-16.892,25.671-40.267,8.493-72.509c-1.051-1.033-2.521,2.314-2.705,2.441l-2.195,1.914
		c11.629,20.064,9.609,43.145-4.608,59.557l0.015,1.042c0.033,2.292,0.694,2.193,1.657,1.121c1.021-1.078,0.338-0.2-0.079,0.243
		c-0.359,0.38-0.931,1.14-1.083,1.338C32.187,177.118,33.052,179.681,32.508,180.596L32.508,180.596z M31.456,175.521
		c-0.163-0.457-0.336-1.499-0.425-2.3c-0.055-0.523-0.077-1.017-0.104-1.526c-0.169-1.017-0.583-3.347-0.918-3.86
		c-0.363-0.553-1.25-0.958-2.238-1.021c-0.845-0.055-0.915-0.039-1.096,0.235c-0.309,0.474-0.097,2.859,0.218,3.733
		c0.353,1.027,0.145,1.585-0.142,2.602c-0.099,0.366-0.136,0.392,0.045,0.419c0.791-0.057,1.055-1.027,1.366-0.739
		c0.106,0.106-0.169,0.903-0.538,1.709c-0.389,0.848-0.505,2.018-0.042,3.458c0.259,0.805,0.148,1.06-0.009,1.546
		c-0.104,0.325-0.287,1.321-0.293,2.312c0.37,1.24,0.183,1.797-0.033,2.208c-0.472,1.052-0.837,2.481-0.583,3.282
		c0.111,0.353,0.402,0.051,0.616-0.551c0.333-1.191,0.721-1.456,1.697-1.456c0.711,0,0.779,0.249,1.014-0.069
		c0.534-0.723,1.838-3.284,1.863-3.997C32.359,179.685,32.385,178.121,31.456,175.521L31.456,175.521z M39.036,187.479
		c0.432-0.165,1.094-1.076,1.095-1.389c0-0.347-2.657-2.933-3.765-3.646c-0.501-0.323-0.74-0.094-1.626,1.099
		c-0.787,1.06-0.891,1.07-0.745,1.274c0.176,0.247,2.885,2.008,3.783,2.508C38.09,187.499,38.617,187.638,39.036,187.479
		L39.036,187.479z M44.017,182.875c-0.396-0.304-3.577-3.833-4.521-4.007c-0.359-0.067-1.51,1.244-1.51,1.54
		c0,0.206,1.986,2.228,3.394,3.458c0.402,0.351,0.846,0.639,0.987,0.639C42.814,184.274,43.961,183.349,44.017,182.875z
		 M47.397,179.548c0-0.21-0.351-0.641-1.208-1.481c-2.182-2.146-3.396-3.125-3.78-3.123c-0.418,0.139-1.173,1.411-1.218,1.854
		c0.142,0.266,3.791,3.578,4.264,3.899C46.04,181.258,47.316,179.946,47.397,179.548L47.397,179.548z M50.819,176.127
		c0.094-0.314-0.088-0.584-0.55-1.025c-0.328-0.315-1.492-1.454-2.586-2.534c-2.294-2.263-2.3-2.265-3.037-1.207
		c-0.758,1.087-0.754,1.097,1.482,3.28c2.385,2.328,2.944,2.8,3.313,2.8C50.007,177.181,50.623,176.746,50.819,176.127z
		 M25.244,174.085c-0.399-0.12-0.767-0.049-1.081,0.202c-1.69,1.438,0.707,3.29,1.693,2.136
		C26.513,175.774,26.487,174.381,25.244,174.085L25.244,174.085z M54.331,172.58c0-0.241-0.492-0.782-2.197-2.41
		c-4.219-4.03-4.03-3.878-4.497-3.627c-0.292,0.157-0.859,1.24-0.859,1.642c0,0.302,0.406,0.719,3.533,3.641
		c1.832,1.714,2.376,2.147,2.692,2.147C53.503,173.724,54.309,173.19,54.331,172.58L54.331,172.58z M25.352,172.731
		c0.828-0.361,0.983-1.258,0.513-1.967c-0.901-0.794-2.154-0.137-2.175,0.888C23.845,172.61,24.659,173.015,25.352,172.731z
		 M57.798,169.194c0-0.48-7.225-7.24-7.739-7.24c-0.349,0-0.599,0.282-0.927,1.048c-0.284,0.664-0.256,1.056,0.102,1.401
		c0.523,0.504,1.915,1.787,3.239,2.986c0.783,0.711,1.683,1.558,2,1.883c0.744,0.764,1.562,1.354,1.875,1.354
		C56.796,170.366,57.418,170.011,57.798,169.194L57.798,169.194z M24.973,168.324c0.008-0.272-0.063-0.549-0.257-0.756
		c-0.496-0.527-1.418-0.251-1.649,0.451C22.856,169.665,24.905,169.737,24.973,168.324z M30.323,115.707l1.413-4.322l4.317-0.112
		l0.605-4.297l4.444-0.64l0.071-4.44l4.25-0.581l-0.263-4.754l3.941-0.934l-0.195-4.402l3.581-1.099l-0.144-3.832l0.616-0.483
		l-1.549-1.576l-1.334,0.434l-0.025,3.937l-3.577,1.152l0.377,4.358l-3.615,0.825l-0.046,4.738l-4.153,0.466l-0.297,4.18
		l-4.052,0.798l-0.603,4.094l-3.933,0.267l-1.2,3.599l-2.599,0.029v2.409L30.323,115.707z M77.293,193.05
		c-0.136-0.325,0.219-0.276,0.836,0.114c0.645,0.408,1.586,0.748,2.255,0.75c0.279,0,1.274-0.178,2.213-0.396
		c1.121-0.411,2.116-0.437,3.281-0.184c0.866,0.118,1.738,0.212,1.937,0.21c0.579,0.08,1.56-0.635,1.823-1.084
		c0.712-1.219,0.543,0.995,0.546,1.248c0.013,1.134,0.154,2.439-0.658,1.832c-0.481-0.249-1.318-0.468-1.989-0.022
		c-0.674,0.451-1.232,0.547-2.022,0.071c-0.648-0.255-0.991-0.31-1.476,0.141c-0.54,0.504-1.852,0.323-2.554,0.094
		c-1.208-0.202-1.883-0.376-2.693,0.263c-0.432,0.249-0.542,0.065-0.867-0.893C77.601,194.235,77.344,193.169,77.293,193.05
		L77.293,193.05z M80.367,192.249c-0.077-0.123,0.571-0.758,1.008-0.986c1.285-0.664,3.837-0.635,5.662,0.039
		c0.952,0.353,1.099,0.954,0.173,0.827c-1.926-0.404-4.342-0.737-6.202,0.151C80.861,192.358,80.403,192.307,80.367,192.249
		L80.367,192.249z M81.996,189.239c-1.317-0.488-1.963-1.009-1.963-1.176c0-0.178,0.283-0.145,1.317,0.137
		c1.411,0.523,3.078,0.799,4.469,0.312c1.002-0.37,1.501-0.604,1.501-0.382c0,0.237-0.414,0.85-1.102,1.203
		C84.851,189.891,83.045,189.627,81.996,189.239z M110.582,185.579l0.977-0.133l-0.339-4.081l3.6-1.07l-0.252-4.06l3.836-1.321
		l-0.229-4.567l3.988-0.788l0.52-3.997l3.764-0.268l0.78-4.35l4.043-0.139l0.833-3.615l2.691-0.018l-0.012-2.03l-4.192,0.014
		l-0.888,3.913l-3.954,0.114l-0.84,4.299l-4.146-0.031l-0.531,4.634l-3.9,0.639v4.989l-3.762,0.978l0.291,4.266l-3.758,1.372
		l0.425,4.072L110.582,185.579z M135.715,89.817c-0.538,0.383-0.741,1.142-0.575,1.761c0.53,1.399,2.394,0.963,2.615-0.056
		c0.11-0.441-0.182-1.108-0.692-1.252c-0.089-0.025-0.406,0.004-0.571-0.167c-0.119-0.122,0.623-0.503,1.06-0.359
		c0.545,0.18,0.992,0.902,0.992,1.527c0,0.243-0.068,0.603,0.021,0.723c0.901-0.023,1.934-0.519,2.902-0.787
		c1.632-0.454,2.224-1.391,1.862-2.489c-0.302-0.915-1.238-1.278-2.468-0.815C139.173,88.541,137.192,88.844,135.715,89.817
		L135.715,89.817z M65.965,190.011c5.533-3.889,8.791-6.111,15.891-6.495c-2.533-1.042-2.947-2.412-3.659-3.723
		c-8.796,0.831-13.467,3.643-17.646,6.266C62.277,186.872,64.081,187.818,65.965,190.011z M96.803,184.617
		c-2.683-1.897-5.876-3.043-9.188-3.931l-2.539,2.631C84.93,183.226,92.427,183.394,96.803,184.617L96.803,184.617z
		 M122.562,159.652c-17.303-26.607-5.68-50.019,6.352-64.937c0.387-0.49,0.481-0.514,0.393-0.903
		c-0.115-0.513-0.257-3.099-0.169-4.593c-22.24,22.056-22.81,50.788-8.86,73.593C121.275,161.921,123.286,160.732,122.562,159.652
		L122.562,159.652z M125.157,157.375c-2.841-4.732-17.969-30.362,5.138-58.953c0,0-0.079-1.459-0.251-2.006
		c-0.31-0.982-0.793-1.377-0.793-1.377c-9.705,14.579-23.809,32.82-6.194,64.5L125.157,157.375z M111.927,109.14
		c0.345-0.282,0.849-1.308,0.849-1.731c0-0.377-0.273-0.693-2.879-3.34c-3.475-3.527-4.075-4.067-4.519-4.067
		c-0.421,0-1.518,1.04-1.518,1.439c0,0.191,1.023,1.293,3.436,3.704C111.775,109.62,111.563,109.436,111.927,109.14L111.927,109.14z
		 M115.127,102.642c0-0.213-0.322-0.634-1.084-1.419c-2.008-2.069-4.873-4.692-5.125-4.692c-0.32,0-1.197,0.71-1.426,1.156
		c-0.162,0.313-0.159,0.385,0.031,0.682c0.354,0.554,4.836,4.81,6.11,5.881C114.399,104.954,115.09,103.176,115.127,102.642
		L115.127,102.642z M116.86,100.002c0.355-0.19,1.028-1.449,0.947-1.771c-0.037-0.15-1.174-1.375-2.526-2.721
		c-2.674-2.663-2.83-2.759-3.496-2.162c-0.604,0.54-0.982,1.081-0.907,1.298c0.091,0.265,4.093,4.337,4.912,4.996
		C116.435,100.164,116.511,100.189,116.86,100.002z M137.263,99.805c1.257-1.207-0.168-2.532-1.203-1.92
		c-0.439,0.272-0.702,0.866-0.567,1.261C135.717,99.8,136.604,100.158,137.263,99.805z M139.751,99.497
		c2.128-0.559,3.146-0.933,3.591-1.596c0.308-0.459,0.343-0.742,0-1.49c-0.32-0.692-0.694-0.902-2.026-0.172
		c-0.915,0.503-2.954,0.743-3.666,1.164c-0.285,0.246-0.146,0.243,0.083,0.388c0.513,0.326,0.763,0.549,0.707,0.98
		c-0.122,0.939-0.025,1.082,1.313,0.727H139.751z M137.5,96.161c1.033-0.529,0.824-1.805-0.33-2.311
		c-1.522-0.402-2.502,1.432-1.257,2.326C136.247,96.409,137.095,96.368,137.5,96.161z M140.932,95.643
		c1.493-0.511,2.067-0.913,2.498-1.739c0.341-0.654,0.195-0.946,0.15-1.579c-0.069-0.959-0.55-0.849-1.942-0.348
		c-0.679,0.263-3.931,1.179-3.976,1.512c1.57,0.897,1.168,1.371,1.182,2.517C138.926,96.266,139.663,96.079,140.932,95.643
		L140.932,95.643z M120.576,94.116c0-0.433-4.173-4.522-4.614-4.522c-0.69,0-1.676,1.072-1.529,1.661
		c0.068,0.266,3.98,4.207,4.468,4.499C119.584,96.154,120.531,94.768,120.576,94.116z M122.973,91.567
		c0.18-0.141,0.499-0.507,0.71-0.813c0.449-0.654,0.417-1.019-0.121-1.364c-0.197-0.126-1.071-0.919-1.944-1.761
		c-0.873-0.843-1.699-1.572-1.836-1.623c-0.72-0.096-2.02,1.057-1.885,1.647c0.077,0.31,3.275,3.46,3.989,3.932
		C122.347,91.889,122.569,91.885,122.973,91.567z M128.623,85.476c0-0.117-0.726-0.584-1.888-1.217
		c-3.553-1.932-3.614-1.945-4.724-1.039c-0.382,0.31-0.693,0.663-0.693,0.786c0,0.123,0.77,0.95,1.752,1.88
		c2.037,1.929,2.539,2.345,2.823,2.345C126.48,87.799,128.533,86.011,128.623,85.476z M133.598,83.66
		c0.438-0.526,0.931-2.347,0.697-2.715c-0.216-0.216-0.769-0.182-1.036,0.059c-0.274,0.248-0.95,2.536-0.846,2.808
		C132.52,84.088,133.217,83.958,133.598,83.66L133.598,83.66z M94.779,161.206c0.336-0.045,0.995-0.457,1.953-1.279
		c1.023-0.88,4.266-2.837,4.618-3.625c0.158-0.447,0.043-1.089-0.295-1.138c-0.257-0.037-0.312,0.161-2.468,1.714
		c-1.454,1.05-4.009,2.923-4.394,3.321C94.026,160.626,94.404,161.161,94.779,161.206z M94.478,173.738
		c2.219-1.542,4.017-3.137,6.911-4.922c0.224-0.294,0.257-0.735,0.122-1.093c-0.169-0.443-0.402-0.268-1.278,0.341
		c-2.132,1.438-4.326,3.131-6.163,4.387c-0.589,0.4-1.085,0.619-0.961,0.844C93.272,173.593,94.183,173.683,94.478,173.738z
		 M96.636,174.683c1.46-1.193,3.206-2.336,4.764-3.49c0.219-0.219,0.276-0.954,0.052-1.254c-0.178-0.239-0.03-0.194-0.462,0.051
		c-0.631,0.359-4.406,2.933-5.11,3.515c-0.41,0.341-0.751,0.509-0.649,0.627C95.703,174.438,96.203,174.624,96.636,174.683
		L96.636,174.683z M98.47,175.609c0.302-0.204,2.897-1.863,3.105-2.083c0.239-0.253,0.171-1.383-0.062-1.472
		c-0.655,0.521-4.116,2.631-4.123,2.97C97.743,175.343,98.208,175.635,98.47,175.609L98.47,175.609z M101.245,175.841
		c0.398-0.366,0.478-0.429,0.486-0.839c0.016-0.741-0.168-0.709-1.225,0.047c-0.738,0.476-1.187,0.813-1.055,1.099
		C99.976,176.969,100.719,176.323,101.245,175.841L101.245,175.841z M101.531,177.355c0.207-0.076,0.209-0.184,0.179-0.443
		c-0.033-0.288-0.075-0.276-0.388-0.276C100.48,176.667,101.238,177.43,101.531,177.355z M91.428,173.203
		c0.382-1.26,0.916-2.255,1.789-3.2c3.49-3.096,2.424-6.905,0.22-10.007c2.852-3.995,5.699-8.227,8.15-12.107l-0.009-6.303
		l0.329,0.033c-0.114,13.759,0.514,36.319,0.514,36.319l2.836,2.165l-0.382,0.188C105.341,180.22,96.619,174.757,91.428,173.203
		L91.428,173.203z M93.99,171.632c2.415-1.822,4.763-3.257,7.157-5.198c0.255-0.21,0.405-0.221,0.412-0.698
		c0.014-0.907-0.167-0.917-1.061-0.276c-0.397,0.284-1.849,1.299-3.226,2.23c-1.438,0.972-2.77,1.836-3.038,2.146
		c-1.347,1.564-1.845,2.298-1.707,2.522C92.671,172.592,92.944,172.339,93.99,171.632L93.99,171.632z M96.624,167.213
		c1.24-0.817,4.208-2.878,4.478-3.133c0.471-0.443,0.553-1.146,0.129-1.229c-0.207-0.039-2.504,1.493-4.447,2.967
		c-0.945,0.717-1.156,0.884-1.156,1.558C95.628,167.786,95.875,167.707,96.624,167.213z M97.861,164.004
		c3.803-2.706,3.706-2.479,3.624-3.486c-0.028-0.341-0.104-0.496-0.255-0.523c-0.118-0.023-0.791,0.46-1.547,0.993
		c-0.757,0.533-1.66,1.248-2.112,1.564c-1.322,0.917-1.76,1.164-1.76,1.691c0,0.517,0.139,0.845,0.369,0.845
		C96.266,165.087,97.022,164.6,97.861,164.004z M97.315,161.907c1.751-1.238,3.681-2.635,3.944-2.966
		c0.32-0.404,0.262-1.279-0.145-1.279c-1.758,1.176-3.874,2.72-5.361,3.94c-0.193,0.17-0.438,0.333-0.514,0.555
		c-0.015,0.286,0.345,0.664,0.488,0.676C96.018,162.834,96.463,162.509,97.315,161.907L97.315,161.907z M96.174,157.718
		c1.338-0.907,2.554-1.985,3.884-2.9c0.998-0.684,1.28-0.895,1.221-1.754c-0.034-0.496-0.47-0.212-2.16,0.915
		c-1.24,0.827-1.809,1.152-2.248,1.718c-0.308,0.713-1.325,1.383-1.379,2.198C95.491,158.198,95.691,158.055,96.174,157.718
		L96.174,157.718z M100.281,152.267c1.027-0.682,1.125-0.698,1.013-1.601c-0.139-1.133-0.255-1.066-1.238,0.435
		c-0.645,0.986-0.866,1.272-0.768,1.456C99.456,152.871,99.64,152.69,100.281,152.267z M96.539,143.936
		c-0.109-0.504-0.263-0.394-0.78,0.061c-0.952,0.835-1.102,1.44-0.509,1.758c0.315,0.169,0.558,0.149,0.746-0.263
		C96.398,144.6,96.511,144.287,96.539,143.936z M91.208,151.852c-0.123-0.46-0.685-1.087-1.111-1.309
		c-0.425-0.219-0.682-0.178-1.087,0.337c-0.373,0.476-0.199,0.758,0.362,1.468c0.41,0.519,0.577,0.686,0.901,0.686
		C90.665,152.879,91.291,152.351,91.208,151.852L91.208,151.852z M70.577,171.698c-0.272-0.525-0.849-1.08-1.112-0.986
		c-0.281,0.098-0.553,0.5-0.557,0.752c0.116,0.515,0.551,0.864,0.886,0.874C70.424,172.251,70.807,172.141,70.577,171.698z
		 M73.093,170.899c-0.543-0.574-1.618-1.838-1.794-1.838c-0.275,0-0.93,0.688-0.93,0.972c0,0.333,0.978,1.705,1.303,1.814
		C72.495,171.771,74.005,171.863,73.093,170.899z M76.198,171.06c-0.057-0.276-3.114-3.531-3.341-3.531
		c-0.291,0-0.867,0.641-0.867,0.937c0,0.237,0.988,1.526,1.9,2.481c0.454,0.474,0.495,0.543,1.052,0.457
		C75.548,171.307,76.339,171.44,76.198,171.06L76.198,171.06z M81.602,170.333c0-0.656-0.342-1.017-1.724-2.512
		c-0.501-0.543-1.348-1.485-1.881-2.095c-1.032-1.18-1.474-1.54-1.885-1.542c-0.326-0.002-0.823,0.527-0.823,0.862
		c0,0.216,2.542,3.133,4.844,5.608c0.511,0.549,0.74,0.709,1.229,0.449C81.644,170.911,81.602,170.586,81.602,170.333
		L81.602,170.333z M77.622,162.521c-0.516,0.425-0.708,0.6-0.711,0.884c0,0.431,4.384,5.255,4.775,5.255
		c0.23,0,0.194-0.031,0.33-0.551c0.272-1.573-0.156-2.036-1.293-3.074C79.961,164.337,78.424,161.941,77.622,162.521L77.622,162.521
		z M85.36,159.294c-1.224-1.466-1.902-2.14-2.151-2.14c-0.17,0-0.425,0.165-0.699,0.468c-0.457,0.435-0.414,0.419-0.124,0.935
		c0.15,0.268,0.571,0.796,0.936,1.172c0.675,0.696,1.02,0.917,1.346,0.584C84.955,160.017,85.665,159.668,85.36,159.294z
		 M84.72,155.637c-0.298-0.004-0.8,0.535-0.8,0.829c0,0.247,0.995,1.493,1.687,2.114c0.56,0.504,0.824,0.639,1.214,0.308
		c0.292-0.425,0.226-0.811,0.044-1.134C86.37,157.187,85.285,155.663,84.72,155.637L84.72,155.637z M88.162,155.996
		c-0.008-0.427-1.261-2.057-1.658-2.22c-0.33,0-1.029,0.768-1.029,1.123c0,0.192,0.268,0.615,0.722,1.142
		c0.895,1.038,1.124,1.268,1.319,1.105C87.836,156.882,88.17,156.415,88.162,155.996z M89.577,154.16
		c0.082-0.359-0.138-0.727-0.64-1.356c-0.626-0.786-0.933-0.839-1.522-0.229c-0.218,0.223-0.319,0.421-0.319,0.529
		c0,0.3,1.312,1.969,1.556,1.969C89.215,155.004,89.388,154.593,89.577,154.16L89.577,154.16z M87.268,158.294
		c-0.118,0.539-0.344,0.892-0.864,1.142c-4.007,2.888-3.879,7.599-4.734,11.946c-6.49-0.067-16.75,2.598-16.686,2.737l34.49-34.816
		c0,0,0.428,0.106,0.166,0.411c-2.791,2.008-2.617,5.911-4.452,7.867C92.118,151.291,89.269,154.509,87.268,158.294L87.268,158.294z
		 M68.547,172.516c0.056-0.394-0.305-0.5-0.622-0.184c-0.31,0.312-0.187,0.553,0.254,0.502
		C68.411,172.807,68.519,172.713,68.547,172.516z M79.177,171.054c0.127-0.331-0.176-0.641-2.024-2.694
		c-1.872-2.079-2.296-2.565-2.62-2.565c-0.275,0-0.945,0.68-0.945,0.96c0,0.127,0.294,0.549,0.653,0.935
		c0.36,0.388,1.042,1.146,1.517,1.689c0.818,0.933,1.207,1.383,1.518,1.601c0.305,0.214,0.537,0.202,1.025,0.202
		C78.973,171.181,79.119,171.203,79.177,171.054z M82.374,164.519c0.128-0.41,0.308-0.77,0.31-0.923c0-0.286-2.36-2.696-2.76-2.955
		c-0.479-0.31-1.377,0.701-1.154,1.291c0.062,0.163,0.765,0.99,1.562,1.838c1.014,1.078,1.52,1.585,1.685,1.562
		C82.185,165.305,82.209,165.052,82.374,164.519z M83.362,161.988c0.173-0.255,0.315-0.592,0.315-0.747
		c0-0.178-0.396-0.656-0.961-1.293c-1.054-1.185-1.324-1.321-1.901-0.768c-0.575,0.551-0.38,0.805,0.63,1.95
		C82.709,162.564,82.852,162.738,83.362,161.988L83.362,161.988z M92.394,150.668c0.393-0.466,0.402-0.699,0.042-1.125
		c-0.153-0.182-0.376-0.447-0.494-0.59c-0.325-0.388-0.753-0.323-1.196,0.18c-0.211,0.241-0.351,0.484-0.35,0.566
		c0,0.082,0.228,0.415,0.504,0.739C91.524,151.168,91.909,151.246,92.394,150.668L92.394,150.668z M93.778,148.883
		c0.267-0.41,0.147-0.856-0.353-1.315c-0.474-0.433-0.709-0.451-1.042-0.08c-0.444,0.494-0.373,0.66,0.105,1.189
		C93.029,149.275,93.462,149.365,93.778,148.883z M94.887,147.4c0.371-0.368,0.363-0.686,0.031-1.107
		c-0.31-0.394-0.631-0.502-0.957-0.327c-0.569,0.304-0.508,0.827,0.051,1.417C94.351,147.741,94.51,147.778,94.887,147.4z
		 M68.497,221.669c7.064,0.792,14.652,1.344,28.029-0.735l0.067-4.544c-4.172,3.257-9.65,1.025-9.964-2.724
		c-0.037-3.341,0.853-7.193,1.605-9.942c0.559-2.042,0.719-2.829,0.196-3.227c-1.155-0.651-3.203-0.733-3.726-2.089
		c-0.251-0.717-0.275-1.483,0.091-0.937c0.169,0.251,1.501,0.87,2.542,1.103c1.811,0.404,2.103,0.539,2.308,1.283
		c0.129,0.47-0.169,2.093-0.646,3.556c-0.341,1.048-0.741,2.731-0.741,3.057c0,0.355,0.278,0.413,0.59,0.314
		c0.133-0.041,0.771-0.68,1.171-1.038c1.74-1.554,2.245-1.507,0.759,0.014c-0.592,0.604-1.407,1.438-1.407,1.501
		c0,0.323,0.302,0.286,0.969,0.045c1.03-0.372,3.443-0.327,4.516,0.212c1.334,0.672,1.391,0.641,1.361-1.393
		c-0.24-3.799-0.859-8.296-2.096-11.805c-1.888-5.353-5.807-10.32-11.599-10.097c-7.059,0.368-11.318,3.182-16.121,6.552
		c2.9,6.439-1.292,11.37-2.81,12.021c-0.146,0.063,1.901,6.546,2.775,9.84C67.161,215.628,68.497,221.669,68.497,221.669
		L68.497,221.669z M98.547,66.36c-0.164-0.424-4.091-13.229-5.189-18.585c-10.616-0.617-18.466-1.5-27.814,1.156
		c0,0-0.202,3.607-0.105,3.783c0.095,0.446,0.417,0.435,0.68,0.289c4.318-2.374,8.997-1.304,9.322,4.55
		c0.124,2.236-0.627,3.812-0.763,5.932c-0.12,1.853-1.575,4.32-0.694,5.727c0.113,0.173,0.735,0.514,1.585,0.879
		c1.585,0.679,2.206,1.302,2.322,2.34c0.173,0.715-0.265,1.196-0.396,0.461c-0.083-0.466-0.166-0.878-2.123-1.548
		c-1.907-0.653-2.421-1.412-2.611-1.81c-0.263-0.551-0.213-0.941,0.032-1.817c0.523-1.866,1.037-3.77,0.99-4.669
		c-0.017-0.323-0.375-0.166-0.833,0.223c-0.582,0.495-3.069,2.134-3.138,2.064c-0.033-0.032,0.41-0.693,1.106-1.359
		c0.845-0.808,1.895-1.788,1.895-1.967c0-0.317-0.124-0.097-0.943,0.147c-1.427,0.393-3.072,0.337-4.178-0.152
		c-0.938-0.413-1.596-0.653-1.735-0.427c-0.347,5.703,0.499,11.581,2.89,16.167c2.141,4.167,6.594,9.384,13.289,8.214
		c6.917-1.21,13.646-6.778,13.404-6.784C92.959,73.325,95.9,68.969,98.547,66.36L98.547,66.36z M43.716,222.047
		c-3.065-3.07-10.79-6.413-16.1-7.945c-0.426-0.092-0.844-0.294-0.848,0.21l-0.062,10.542l-9.548,8.9v4.24h20.359l13.364-19.604
		c0,0,0.644-0.116,0.715-0.235c-2.453-10.412-6.147-18.728-8.494-22.895c0.039,0.051-3.374,2.759-6.376-0.607
		c-1.685-1.889-0.651-5.208,0.948-6.425c-1.349-0.991-4.143-2.792-5.974-3.311c-0.381-0.092-0.949,0.678-1.135,1.377
		c-0.334,1.133-0.892,2.147-1.264,3.292c-0.411,0.954-0.806,1.099-1.419,0.831c-0.954-0.284-1.208-0.382-1.208-0.382l0.031,12.391
		C34.03,204.967,41.57,211.484,43.716,222.047L43.716,222.047z M74.161,89.613l2.17-2.358c-3.433-0.421-7.033-1.036-11.245-2.359
		C68.011,87.072,71.073,88.418,74.161,89.613z M62.235,82.979c3.827,1.277,8.67,4.255,14.716,3.133
		c-5.512-2.188-9.698-7.3-11.481-17.708c-0.389,2.02-1.197,6.221-2.466,6.676c-1.783-6.907-8.954-2.89-6.079,2.743
		c-7.268,4.997-16.006,7.817-23.932,11.671c0,0-1.193,3.663-7.129,8.682c-1.121-5.884,0.214-14.614-0.481-20.527l-9.307-8.797
		c0.142,1.675,0.077,2.715,0,4.676c0.255,0.342,0.608,0.521,0.966,0.735c0.601,33.898-0.207,67.407-0.2,98.197
		c-0.092,18.869,0.407,38.529,0.13,56.344l-0.347,0.645l0.014,4.258l9.503-9.054c0,0-0.441-6.427,0.057-11.335
		c5.997,1.207,11.591,4.029,16.606,7.12c0.631,0.176-3.077-12.336-16.565-17.893c0,0-0.019-3.907-0.019-12.403
		c0-8.196-0.128-9.062-0.309-9.195c-0.546,0.594-7.449,2.919-7.798,2.528c0.184,0.061-1.946-14.507-0.104-16.719l6.604,0.139
		c1.888,1.524,1.129-0.333,2.226-0.639c0.657-0.176,3.712,1.013,3.712,1.013c12.585-14.864,11.327-39.312,2.295-53.067
		c-2.314,1.88-4.773,4.428-7.093,5.523c-0.028-0.08-0.043-7.585-0.043-7.585c12.025-7.723,25.105-30.095,24.27-30.171
		c0,0,3.724,3.629,5.169,5.68l-11.87,17.203c2.719,5.478,5.47,10.446,7.254,15.264c0.241,0.651,0.985,0.633,1.172,1.319
		c0.161,0.586-0.554,1.4-0.456,2.047c2.505,9.587,3.073,19.759,0.601,28.976c-0.52,2.073,0.434,3.756,1.71,5.316
		c0.106,0.135-1.189-1.121-1.305-1.191c-0.444-0.266-1.184,0.67-1.34,1.85c0.102,0.723,0.495,0.85,1.015,1.438
		c0.916,0.762,4.555,4.348,6.158,5.986c1.423,1.454,1.791,1.52,2.751,0.488c0.271-0.253,0.552-0.598,0.814-0.811
		c0.049,0.08,0.404-0.29,0.525-0.408l21.437-20.938c2.49-2.432-21.405,21.969-21.405,21.969s-11.588,11.384-14.43,14.19
		c-2.936,2.898-3.332,3.533-3.45,3.748c-0.21,0.384,0.947,0.372,1.473,0.296c0.041-0.008-0.442,0.11-0.931,0.108
		c-3.018-0.41-4.046,2.663-5.948,3.335c-5.033,3.576-1.649,9.319,3.16,7.422l1.171-0.562c2.915,5.416,7.119,15.283,9.091,23.859
		l-0.795,0.368l-12.68,19.034h71.907c-5.165-5.145-9.558-11.462-14.033-16.19c-7.171,2.146-28.855,1.709-28.512,0.774
		c0,0-3.284-13.3-5.14-19.835c5.894-5.051,5.29-13.02-3.267-16.598c6.229-4.922,12.501-6.591,18.614-6.991
		c1.986,5.047,6.649,5.365,8.85,0.745c0.015-0.053,8.268,2.537,11.31,5.341c-4.511-0.466-8.968-1.366-13.482-1.581
		c3.974,1.569,8.02,5.672,9.317,10.361c0.634,1.675,1.605,7.205,1.862,7.226c0,0,1.506-6.388,2.673-6.037
		c2.978,6.219,8.113,1.542,5.949-3.413c7.585-3.621,16.119-7.667,23.097-11.025c2.036-3.074,7.043-8.909,7.372-8.935
		c0,0,9.21-52.797,9.208-70.447c-0.305-21.219,0.37-44.839-0.544-64.686v-5.65h-19.405l-13.887,20.388c0,0-0.104,0.323-0.102,0.464
		c1.895,8.245,4.327,15.262,8.143,22.879c5.265-3.98,9.702,2.574,5.753,6.378c-0.742,0.715-0.543,0.895,0.198,1.392
		c0.732,0.49,5.729,3.006,5.961,3.006c0.903-1.343,1.166-3.328,1.775-4.844c0.153-0.577,0.59-0.648,1.46-0.546
		c1.119,0.131,1.113,0.598,1.076-6.529l-0.031-6.12c-6.751-3.112-15.689-11.023-16.106-19.249
		c3.903,2.842,12.872,6.973,15.266,7.344c1.053,0.294,0.891-1.541,0.924-2.277c0.284,0.19,0.387,3.024,0.387,3.024
		c-3.962-1.198-6.038-0.953-15.928-6.687c1.697,8.091,9.795,14.473,15.666,17.384c0,0,0.246,3.843,0.233,8.148
		c-0.037,13.13,0.094,13.708,0.094,13.708c0-0.007,3.231-0.824,4.128-1.27c1.602-1.284,4.17-0.3,4.525,0.647
		c0.521,4.954,0.02,9.549-0.09,14.281c-2.737,0.195-4.236,0.771-5.586,0.827c-0.877-0.118-1.411-0.123-1.86-0.623
		c-1.307-2.825-1.222-1.034-1.38,1.088c-0.121,0.628-3.392-0.465-3.719-0.654c-14.129,16.277-12.926,35.015-3.329,52.369
		c1.585-1.07,4.315-3.113,7.044-4.456c0.066,2.208,0.103,6.752,0.103,6.752c-11.061,8.122-24.308,29.638-23.86,29.697l-4.494-5.369
		c0,0,2.829-4.501,3.826-5.69c0.117-0.137,0.19-1.532,0.19-1.532l6.868-9.936c-2.928-6.633-6.947-11.727-7.981-18.207
		c-4.581-20.714,0.383-31.018,0.017-31.801c0,0-0.061-0.414-0.158-0.496c-0.15-0.124,0.039-0.244,0.208-0.54
		c0.327-0.574,0.848-1.751,0.669-2.099c-0.131-0.258-3.846-3.976-7.031-7.036c-1.676-1.611-1.61-1.795-2.476-0.916
		c-0.32,0.326-1.11,1.255-1.11,1.255c-11.508,10.655-20.643,20.358-32.193,31.699l-0.554-0.504
		c16.802-16.71,33.758-33.255,50.398-50.129l-2.927,0.05c0.082-0.212,0.204-0.41,0.375-0.467c1.569,0.001,3.182-0.475,4.349-1.137
		c2.373-1.764,5.781-4.126,6.047-6.453c-0.171-4.478-3.945-5.127-6.671-2.937c-3.788-6.811-6.788-15.003-8.395-22.652
		c-0.076-0.38-0.61-1.035-0.69-1.469c0.812-2.539,13.679-20.086,13.679-20.086H51.191l13.753,16.387
		c0-0.654,19.599-2.97,28.576-0.235l5.466,19.431c-4.966,4.804-6.433,12.706,2.701,16.818c0.178,0.385-0.866,1.019-0.866,1.019
		c0.145-0.237,0.398-0.482,0.295-0.7C98.654,82.726,96.017,80,96.017,80c-5.494,4.295-10.629,6.686-15.661,6.899
		c0,0,2.656,1.802,3.169,3.782c0,0-0.246-0.03-0.311-0.11c-0.545-0.667-1.798-2.824-2.856-3.459
		c-1.791-0.43-2.851-0.118-4.263,0.858l-1.914,1.849c-4.39-1.336-9.265-3.521-11.952-6.839H62.235z M61.499,130.537l2.004-1.978
		c0.229-1.468,0.627-3.335,2.32-5.368c1.879-2.256,3.954-4.376,5.482-6.385c1.836-2.412,2.833-4.595,2.35-5.607
		c2.736-0.493,5.249-2.91,5.328-7.296c0.032-2.304,1.143-5.665,1.227-5.619c0,0,19.1-0.65,32.238-13.184c0,0,0.921,0.2,0.705,0.366
		c-4.978,4.99-10.273,8.668-16.531,11.011l-34.514,34.499L61.499,130.537z M65.321,126.579c0.516-0.516,0.632-0.686,0.34-0.928
		c-0.445-0.369-1.302,0.394-1.302,1.159C64.36,127.298,64.745,127.155,65.321,126.579L65.321,126.579z M67.108,124.822
		c0.41-0.394,0.394-0.68,0.056-1.019c-0.467-0.467-1.145-0.18-1.373,0.572C65.561,125.134,66.463,125.44,67.108,124.822
		L67.108,124.822z M68.681,123.23c0.211-0.241,0.384-0.488,0.384-0.549c0-0.266-0.658-0.872-0.949-0.872
		c-0.37,0-1.032,0.622-1.032,0.971c0,0.29,0.664,0.888,0.987,0.888C68.195,123.667,68.469,123.471,68.681,123.23z M70.163,120.265
		c-0.47-0.395-0.779-0.398-1.165-0.011c-0.45,0.451-0.404,0.945,0.133,1.418c0.408,0.426,0.584,0.385,1.135,0.044
		C70.73,121.243,70.812,120.8,70.163,120.265z M71.903,120.001c0.508-0.428,0.436-0.779-0.118-1.333
		c-0.583-0.583-1.033-0.587-1.448,0.03c-0.155,0.232-0.183,0.464-0.183,0.53c0,0.226,0.961,1.083,1.214,1.083
		C71.507,120.311,71.693,120.178,71.903,120.001z M73.577,118.348c0.432-0.451,0.377-0.773-0.242-1.411
		c-0.521-0.536-0.883-0.577-1.341-0.152c-0.475,0.44-0.377,0.904,0.159,1.439C72.694,118.766,73.096,118.85,73.577,118.348z
		 M75.473,116.428c0.317-0.335,0.231-0.309,0.008-0.672c-0.347-0.562-1.361-1.494-1.649-1.494c-0.363,0-0.68,0.581-0.677,1.152
		c0,0.568,0.281,0.799,1.001,1.367c0.479,0.377,0.333,0.411,0.7,0.195C75.06,116.856,75.338,116.609,75.473,116.428L75.473,116.428z
		 M76.977,115.052c0.679-0.774,0.55-0.923-1.089-2.651c-0.556-0.586-0.671-0.652-1.068-0.619c-0.378,0.031-0.403,0.124-0.597,0.523
		c-0.358,0.733-0.092,1.106,0.938,2.203C76.221,115.638,76.378,115.735,76.977,115.052z M78.657,113.246
		c0.262-0.23,0.438-0.499,0.438-0.668c0-0.302-1.327-1.775-1.801-2.047c-0.336-0.192-0.687-0.083-1.121,0.291
		c-0.262,0.225-0.255,0.279-0.193,0.527c0.101,0.405,1.808,2.204,2.09,2.204C78.185,113.554,78.417,113.458,78.657,113.246z
		 M80.324,111.629c0.282-0.287,0.504-0.636,0.504-0.788c0-0.325-1.43-1.982-1.873-2.213c-0.376-0.198-0.595-0.116-0.966,0.407
		c-0.428,0.601-0.261,0.876,0.588,1.854c0.805,0.929,1.063,1.21,1.213,1.21C79.839,112.098,80.045,111.912,80.324,111.629z
		 M81.897,109.935c0.361-0.219,0.833-0.683,0.642-1.061c-0.203-0.387-2.707-3.043-2.977-3.187c-0.529-0.283-0.513,0.124-0.513,1.44
		v0.683l1.153,1.13C81.881,110.586,81.506,110.184,81.897,109.935L81.897,109.935z M83.933,108.065
		c0.199-0.199,0.386-0.535,0.385-0.659c-1.04-1.267-4.063-5.273-4.608-5.124c-0.057,0.016-0.08,0.018-0.119,0.132
		c-0.136,0.402-0.191,1.231-0.097,1.904c0.954,0.917,3.205,3.905,3.714,4.09C83.512,108.525,83.646,108.353,83.933,108.065
		L83.933,108.065z M85.558,106.359c0.19-0.183,0.347-0.431,0.347-0.551c0-0.12-0.336-0.542-0.695-0.963
		c-0.357-0.421-1.056-1.275-1.555-1.896c-2.848-3.555-3.055-3.821-3.489-3.459c-0.286,0.237-0.355,1.075-0.212,1.387
		c0.247,0.541,3.359,4.295,4.361,5.263C84.954,106.757,85.079,106.818,85.558,106.359z M87.196,104.789
		c0.243-0.23,0.442-0.534,0.442-0.677c0-0.142-0.459-0.721-0.94-1.286c-0.482-0.565-1.282-1.529-1.78-2.143
		c-1.278-1.572-1.289-1.63-2.242-1.728c-1.445-0.148-1.252,0.17,0.386,2.083c0.395,0.462,1.145,1.375,1.663,2.03
		c1.214,1.53,1.75,2.095,1.99,2.095C86.82,105.162,86.953,105.018,87.196,104.789L87.196,104.789z M88.868,103.15
		c0.74-0.623,0.593-0.828-1.815-3.317c-0.791-0.816-0.847-0.946-1.461-0.946c-0.617,0-0.816,0.128-0.816,0.427
		c0,0.183,3.138,3.916,3.368,4.008C88.452,103.445,88.488,103.469,88.868,103.15L88.868,103.15z M90.623,101.351
		c0.197-0.212,0.359-0.485,0.359-0.607c0-0.268-0.682-1.134-1.319-1.695c-0.299-0.263-0.676-0.534-0.917-0.534
		c-0.41,0-1.112,0.232-1.233,0.428c-0.078,0.126,0.853,1.279,1.77,2.244C89.888,101.828,90.125,101.884,90.623,101.351
		L90.623,101.351z M92.164,99.822c0.388-0.389,0.385-0.744-0.012-1.264c-0.287-0.377-0.375-0.414-0.966-0.414
		c-1.12,0-1.153,0.286-0.285,1.215C91.546,100.048,91.723,100.263,92.164,99.822z M93.814,98.197
		c0.436-0.555,0.063-0.859-0.652-0.533c-0.17,0.077-0.26,0.278-0.296,0.371C92.644,98.612,93.395,98.73,93.814,98.197z
		 M66.261,102.883c-1.593,1.008-4.271,2.918-6.092,4.193c-0.048,0.274-0.082,0.972,0,1.515c1.032-0.702,4.35-2.823,5.855-4.018
		C66.1,104.125,66.211,103.335,66.261,102.883L66.261,102.883z M69.184,98.258c-0.054-0.271-0.232-0.1-0.704,0.3
		c-0.617,0.522-5.856,4.407-7.247,5.383c-0.53,0.371-1.027,0.686-1.084,0.816c-0.054,0.123-0.105,1.179,0.096,1.444
		c1.135-0.867,6.521-4.482,6.603-4.608C67.404,100.705,68.645,99.154,69.184,98.258L69.184,98.258z M68.584,109.965
		c0,0-6.427,7.73-8.493,11.581c0,0-0.014,4.405-0.075,6.941l-0.349,0.098c0,0-0.03-6.798-0.118-14.177
		c-0.216-18.438-0.397-22.915-0.397-22.915l-2.086-1.528l-0.087-0.726c0,0,9.259,6.489,13.778,7.523
		C67.456,101.939,64.403,103.935,68.584,109.965L68.584,109.965z M60.958,119.21c0.129-0.311,0.04-0.295-0.225-0.284
		c-0.195,0.009-0.305,0.189-0.315,0.386c-0.01,0.226,0.011,0.279,0.186,0.246C60.73,119.533,60.895,119.36,60.958,119.21z
		 M62.503,116.919c0.925-1.139,1.689-1.878,1.827-2.717c-0.592,0.098-4.001,2.489-4.055,2.742c0.032,1.267-0.256,1.419,0.785,0.86
		C61.515,117.557,61.886,117.251,62.503,116.919L62.503,116.919z M62.794,114.095c0.994-0.826,4.618-2.776,5.033-3.738
		c0.16-0.441-0.356-0.855-0.438-0.815c0.066,0.058-5.188,3.209-7.106,4.861c-0.171,0.213-0.128,0.576-0.013,0.877
		C60.481,115.834,60.901,115.384,62.794,114.095L62.794,114.095z M61.589,112.575c1.08-0.721,3.636-2.489,4.273-2.931
		c1.081-0.751,1.296-1.004,0.906-1.561c-0.156-0.222-0.367-0.355-0.724-0.197c-3.129,2.18-3.399,2.549-5.775,4.077
		c-0.161,0.429-0.121,1.07,0.128,1.297C60.577,113.271,60.879,113.049,61.589,112.575L61.589,112.575z M61.577,110.222
		c2.851-2.063,4.388-3.107,4.49-3.335c0.112-0.251,0.145-1.232-0.041-1.337c-1.061,0.807-3.897,2.544-5.835,4.118
		c-0.051,0.323-0.11,1.048,0.047,1.205C60.63,111.035,60.748,110.822,61.577,110.222L61.577,110.222z M61.236,102.773
		c2.076-1.54,3.993-2.88,6.153-4.324c1.83-1.217,2.136-1.487,1.434-1.851c-0.241-0.125-0.729-0.322-1.041-0.217
		c-2.433,1.965-5.136,3.845-7.714,5.755c-0.063,0.285,0,0.844-0.016,1.096C60.029,103.621,60.543,103.288,61.236,102.773
		L61.236,102.773z M60.952,100.575c0.17-0.15,1.257-0.87,2.414-1.709c3.105-2.248,3.471-2.467,3.471-2.706
		c0-0.652-0.896-0.792-1.712-0.126c-1.497,1.219-5.07,3.442-5.078,3.757c-0.013,0.464-0.09,0.922,0.045,1.126
		C60.263,101.175,60.514,100.959,60.952,100.575L60.952,100.575z M61.848,97.53c3.159-2.205,3.034-2.102,3.034-2.498
		c0-0.345-0.308-0.19-0.791-0.225c-0.456-0.033-0.465,0.095-1.331,0.749c-1.843,1.394-2.518,1.775-2.711,2.187
		c-0.061,0.129-0.103,0.641,0.009,0.753C60.279,98.719,60.536,98.445,61.848,97.53z M62.057,95.337c0.618-0.514,1.114-0.893,1.156-1
		c0.09-0.235-0.377-0.653-0.729-0.653c-0.382,0-0.678,0.197-1.622,1.01c-0.834,0.718-1.004,0.567-0.937,0.973
		c0.038,0.235,0.042,0.754,0.12,0.848C60.246,96.757,60.677,96.485,62.057,95.337z M60.777,93.913
		c0.667-0.562,0.808-0.678,0.322-1.165c-0.441-0.442-0.955-0.552-1.226-0.28c-0.15,0.199,0,1.362-0.02,1.594
		C59.827,94.435,60.322,94.297,60.777,93.913L60.777,93.913z M75.082,81.781c0-0.241,1.161-1.091,2.033-1.285
		c1.111-0.247,2.506-0.12,3.482,0.368c0.842,0.42,1.755,1.431,0.403,0.816c-1.242-0.553-3.903-0.559-4.866-0.114
		C75.419,81.93,75.081,82.023,75.082,81.781L75.082,81.781z M74.218,77.521c0.09-0.09,1.252,0.21,1.891,0.378
		c1.716,0.453,3.125,0.187,4.922-0.332c0.422-0.121,0.632,0.169,0.372,0.384c-0.913,0.633-2.098,1.001-3.118,1.096
		C76.038,79.257,73.62,78.109,74.218,77.521L74.218,77.521z M63.199,74.202c0.958-0.469,2.13-7.052,1.753-8.184
		c-1.174,1.795-2.491,2.6-4.365,2.289c-3.07-0.509-3.184-4.289-0.812-4.67c0.948-0.152,2.107,0.473,2.297,0.326
		c1.01-0.474,1.803-3.873,2.05-4.973c0.18-1.078,0.448-4.067,0.489-5.018c0.085-2.022,0.008-5.006,0.008-5.006L49.681,31.011H17.162
		c0,0-0.077,24.979,0,37.795l9.037,8.897l0.118,14.38c10.351-4.52,20.371-9.268,30.18-14.402c-1.138-1.361-1.105-4.788,0.969-6.084
		c3.054-1.909,5.589,0.617,5.738,2.606H63.199z M71.4,77.251c0.07-0.811,0.672-1.477,0.714-2.302c0-0.184,0.149-0.397,0.636-0.138
		c0.635,0.338,0.83,0.1,1.548-0.23c1.274-0.588,1.639-0.574,2.619-0.181c0.635,0.34,0.831,0.338,1.424,0.029
		c0.815-0.539,1.68-0.713,2.396-0.461c1.067,0.372,1.439,0.577,2.048,0.282c0.307-0.149,0.692-0.705,0.759-0.664
		c0.438,0.652,0.349,1.678,0.63,2.256c0.495,0.98,0.302,1.681-0.283,1.199c-1.228-1.013-2.185-1.037-3.946-0.601
		c-1.031,0.255-1.55,0.454-2.693,0.318c-3.54-0.42-3.781-0.314-4.5,0.168C72.054,77.393,71.517,77.441,71.4,77.251L71.4,77.251z
		 M80.904,70.83c-1.022-0.256-2.19-1.185-3.037-0.937c-1.044,0.071-1.638-1.161-1.103-1.835c0.916-0.893,2.338,0.007,2.89,0.426
		c1.2,0.911,1.37,0.984,1.856,0.984c1.99-0.039,1.61-1.901,0.647-2.58c-0.571-0.599-0.628-0.987-0.506-1.134
		c0.197-0.237,0.765-0.037,1.388,0.619c1.192,1.119,1.219,3.352-0.242,4.027C82.07,70.807,81.592,71.001,80.904,70.83z
		 M85.06,64.377c-0.927-0.672-2.576-2.18-3.007-2.717c-0.729-0.907-1.019-1.488-0.929-2.217c0.071-0.566,0.157-0.904-0.207-1.091
		c-0.386-0.2-0.758-1.056-0.683-1.507c0.021-0.124,0.456-0.05,0.721,0.28c0.335,0.055,0.265-0.144,0.628-0.385
		c3.786-2.542,6.824-2.052,10.416-0.305c1.043,0.501,3.763,2.565,2.305,1.895c-0.086-0.039-1.041-0.454-2.004-0.94
		c-3.114-1.492-6.585-2.395-9.41-0.478c-0.487,0.341-0.781,0.603-0.402,0.603c1.589-0.309,3.159-0.97,4.79-0.867
		c2.433,0.032,3.904,1.233,5.729,2.063c1.981,0.885,2.362,1.187,1.64,1.918c-0.203,0.225-0.367,0.218-1.323,0.145
		c-1.028-0.078-1.113-0.049-1.691,0.322c-1.517,0.972-3.486,1.502-5.235,1.355c-2.061-0.173-2.282-0.338-2.324-0.041
		c-0.027,0.189,0.415,0.518,1.026,1.077c0.463,0.424,1.085,1.049,1.14,1.145C86.411,64.937,85.626,64.788,85.06,64.377z
		 M84.481,61.077c-0.008-0.244-0.458-1.305-0.73-1.579c-0.26-0.263-0.464-0.161-1.018,0.23c-0.416,0.293-0.46,0.525-0.077,0.865
		C83.47,61.317,84.489,61.499,84.481,61.077z M87.585,61.223c0.832-0.403,1.678-1.831,1.294-2.294
		c-0.229-0.275-0.428-0.014-0.864,0.76c-0.209,0.371-0.569,0.841-0.722,0.948c-0.681,0.477-1.577,0.031-1.954-1.019
		c-0.229-0.635-0.469-1.037-0.734-0.797c-0.48,0.435,0.063,2.004,1.016,2.41C86.185,61.471,87.001,61.506,87.585,61.223z
		 M90.172,60.989c0.844-0.261,1.246-0.641,1.175-1.009c-0.059-0.305-0.667-0.664-1.079-0.664c-0.184,0-0.546-0.008-0.677,0.166
		c-0.286,0.382-0.742,1.542-0.763,1.667C88.926,61.404,89.213,61.284,90.172,60.989L90.172,60.989z M93.088,54.697
		c-4.207-1.61-7.53-2.256-11.532-0.549c-1.281,0.557-2.013,0.614-2.077,0.161c-0.055-0.383,0.868-1.518,1.865-2.042
		c2.794-1.278,6.147-1.398,8.958-0.049c1.05,0.514,3.997,2.611,3.997,2.801C94.299,55.229,94.032,55.066,93.088,54.697z
		 M142.329,101.868c1.003-0.529,1.464-1.568,0.85-2.182c-0.18-0.18-0.432-0.179-0.64-0.179c-0.351,0-2.983,0.705-3.493,0.979
		c-0.334,0.178-0.213,0.49,0.105,0.778c0.147,0.133,0.256,0.417,0.279,0.729c0.029,0.4-0.05,0.761,0.215,0.7
		C140.181,102.569,141.028,102.45,142.329,101.868L142.329,101.868z M138.589,102.832c0.285-0.519,0.164-1.232-0.586-1.67
		c-0.391-0.202-0.7-0.094-1.014,0.356C136.243,102.877,138.093,103.461,138.589,102.832z M134.834,103.471
		c0.161-1.738,0.082-6.873,0.082-6.873s-0.935,0.79-1.523,0.817c0.216-0.75,0.45-1.027,0.786-1.762
		c0.192-0.78,0.299-2.158,0.245-2.946c-0.058-0.863-0.667-0.887-0.04-2.438c0.321-0.792,0.379-1.626-0.037-2.608
		c-0.179-0.484-0.237-0.762,0.23-1.376c0.434-0.571,0.262-0.856,0.254-2.047c-0.011-1.649,0-1.916-0.5-0.587
		c-0.745,1.102-1.088,0.892-2.223,0.758c-1.098,2.463-2.383,5.045-2.433,7.167c-0.032,1.331-0.05,1.538,0.78,4.337
		c0.31,1.041,0.416,1.388,0.434,2.648c0.017,1.203,0.107,1.625,0.289,2.29C131.501,102.033,132.825,103.986,134.834,103.471z
		 M96.635,214.229l0.008-2.477c0,0-3.957,1.221-5.966,0.47c-2.069-0.56-2.062-0.662-2.021-0.439c0.073,0.4,1.607,1.211,3.028,1.544
		c1,0.235,3.001-0.002,3.984-0.294c0.557-0.165,0.616-0.01,0.392,0.163c-2.426,1.897-5.504,1.023-7.438-0.553
		c-1.033-1.013-1.725-1.017-1.167,0.343c2.655,5.384,9.249,2.208,9.184,1.242H96.635z M93.964,210.549l0.9,0.016
		c0,0-0.276-1.569-0.742-2.026c-0.955-0.937-2.303-0.794-3.16,0.125c-0.391,0.421-0.691,1.912-0.691,1.912l0.723,0.014
		C91.263,209.897,92.405,206.632,93.964,210.549L93.964,210.549z M90.362,208.174c-0.511-0.139-1.634,0.37-2.181,0.727
		c-0.202,0.223-0.204,0.255,0.037,0.572c0.525,0.692,1.326,1.021,1.383,0.764C89.834,209.873,90.416,208.316,90.362,208.174z
		 M96.309,209.92c0.118-0.482-0.336-1.309-1.046-1.597c-0.306-0.076-0.609-0.137-0.52,0.2c0.1,0.378,0.312,0.999,0.51,1.415
		c0.143,0.312,0.235,0.468,0.538,0.349C96.028,210.208,96.229,210.134,96.309,209.92z M134.934,177.097l0.008-4.193
		c-2.117,2.146-4.883,5.749-5.721,7.097L134.934,177.097z M70.292,61.519c0.896-0.384,1.555-1.557,1.327-2.149
		c-0.141-0.367-0.514-0.072-0.89,0.472c-0.605,0.876-0.759,0.971-1.292,0.971c-0.567,0-0.792-0.146-1.18-0.908
		c-0.268-0.722-0.458-0.835-0.707-0.52c-0.118,0.142-0.108,0.345,0.044,0.871C67.993,61.629,69.021,62.063,70.292,61.519z
		 M72.735,61.085c0.995-0.342,1.197-0.451,1.15-0.783c-0.049-0.347-0.841-0.809-1.288-0.724c-0.325,0.196-1.164,1.526-1.117,1.764
		C71.594,61.528,71.927,61.363,72.735,61.085z M66.998,60.505c-0.033-0.307-0.077-0.607-0.161-0.71
		c-0.32-0.384-0.993-0.113-0.993,0.376c0,0.371,0.528,0.793,0.955,0.793C67.102,60.963,67.059,61.037,66.998,60.505z M72.618,57.998
		c1.415,0.533,2.133,0.593,1.363-0.131c-1.057-1.174-5.907-2.515-8.509-0.599c-0.185,0.265-0.147,1.277,0.056,1.221
		C67.645,57.06,70.355,57.136,72.618,57.998L72.618,57.998z M67.775,53.948c-1.188,0.396-2.304,1.018-2.447,1.597
		c-0.231,0.933,0.187,0.942,1.741,0.454c2.003-0.656,4.242-0.36,5.948,0.627c1.297,0.943,1.679,0.631,1.461-0.161
		C73.754,53.843,69.704,53.37,67.775,53.948L67.775,53.948z"/>

		<path id="path6265-7" fill="#E2CF00" d="
		M144.081,37.108l-8.742,8.669l0.122,10.258c0.879,1.612-13.493-4.597-15.762-6.476c0.263,6.853,9.61,14.661,15.687,17.518
		l0.167,21.935c2.511-1.278,5.615-2.053,7.82-2.266C144.566,71.83,145.584,52.422,144.081,37.108z M95.454,47.845
		c-0.851,0.015-1.362,0.245-1.35,0.794c-0.256-0.043,3.23,12.809,4.817,18.175c-3.089,3.123-6.313,8.55-1.699,13.572
		c0.985,1.072,2.789,1.979,4.504,3.009c0.764,0.742-9.383,7.288-18.415,7.291c-2.895-6.352-6.939-2.84-9.17-0.624
		c-1.742-0.153-8.247-4.029-11.574-6.248c-0.053-0.036-0.019-0.955-0.012-1.124c0.232,1.515,13.035,4.782,13.613,3.264
		c-0.369,0-5.742-3.637-7.285-7.225c-1.97-4.047-3.548-9.606-3.548-9.606c-0.717,2.055-0.472,4.904-2.446,5.924
		c-0.591-6.691-10.139-3.279-5.385,3.263c-2.67,0.784-4.954,2.167-7.545,3.318c5.423,7.384,12.887,12.295,20.77,15.19
		c-1.04,2.217-7.179,7.206-2.136,13.088c0.227,0.18-4.819,5.689-7.302,9.998c-1.868,3.243-1.305,5.731-1.091,5.812
		c6.837-7.84,10.68-14.474,10.68-14.474c-0.059,0.912,8.115,0.418,7.979-6.946c0.18-1.987,0.54-4.142,1.304-5.986
		c12.473,0.587,23.195-3.859,32.259-13.196c0,0,1.846,0.528,3.011,0.709c3.206-0.087,5.036-1.718,6.516-3.175
		c1.357-1.099,2.71-2.159,3.192-3.292c1.784-7.665-6.052-4.669-6.42-4.261c-4.476-6.089-8.262-23.393-8.872-23.528
		C107.348,51.061,98.795,47.788,95.454,47.845L95.454,47.845z M64.731,59.6c-0.334,0.023-1.533,5.378-2.596,5.335
		c-4.502-2.901-4.599,3.104-0.728,2.83c3.27-0.23,5.098-5.511,3.339-8.162C64.738,59.601,64.736,59.6,64.731,59.6L64.731,59.6z
		 M16.615,69.787c0.149,32.559,0.735,65.108,1.497,97.657c2.941-0.727,5.079-1.281,7.963-0.02
		c0.271-9.254-0.542-32.605-0.348-55.216c10.991-8.554,18.711-17.987,24.134-30.318l-16.782,7.864c0,0-5.484,7.867-7.235,8.371
		c-0.249-1.12-0.53-14.436-0.302-20.146L16.615,69.787z M53.904,89.926L50.607,94.7c0,0,0.077,16.397,0.268,24.297
		c0.136,1.573,1.565,3.016,0.422,4.425c0.696,0,3.744,21.272,0.847,29.897c-0.518,1.544-0.032,2.635,0.779,2.988
		c4.137,4.585,6.408,8.98,11.86,6.382c5.948-5.445,14.398-14.985,14.398-14.985l-22.339-21.13
		C54.925,121.449,53.904,89.926,53.904,89.926z M135.313,158.306c-10.142,9.07-19.414,18.377-23.211,29.689
		c5.422-2.183,10.583-4.848,15.859-7.301c2.556-3.074,4.522-6.039,7.448-8.964c0,0,0.317,13.341,0.059,20.035
		c2.64,1.963,8.907,8.1,8.907,8.1c0-0.002,1.73-94.787-2.004-97.192c-3.628,0.703-5.448,2.029-6.801-2.18
		C134.613,119.791,135.313,158.306,135.313,158.306L135.313,158.306z M100.191,104.96c-3.901,3.191-17.313,16.355-17.285,16.492
		c3.557,5.968,17.605,17.926,24.339,24.609l0.975,34.054c0.991-1.332,1.711-2.588,2.786-3.921c0,0-0.176-17.245-0.592-25.327
		c-0.123-2.39-0.671-4.275-0.498-4.493c-1.895-9.811-2.682-20.65,0-31.169C103.553,109.723,101.533,106.078,100.191,104.96
		L100.191,104.96z M101.235,143.856c-0.01,0.004-0.021,0.01-0.031,0.024c-3.293,4.693-9.59,14.88-10.041,14.856
		c-0.133-0.304-6.508-0.02-7.712,3.993c-1.012,2.986-1.089,5.735-1.827,8.815c-12.788-0.417-22.15,3.629-32.008,12.72
		c-4.83-0.031-8.418,1.086-10.095,3.125c-2.502,1.814-3.179,3.362-3.057,5.257c0.223,3.435,6.287,3.923,6.597,1.503
		c0.308,0,5.935,12.863,6.481,15.054c1.327,3.543,2.749,10.173,2.918,10.183c2.265,0.147,14.983,3.715,15.028,2.42
		c1.199-0.513-4.422-18.92-4.422-18.92c9.824-8.247-1.006-17.06-3.553-16.739c5.594-3.983,12.013-6.668,19.092-7.021
		c1.096,3.934,6.175,5.958,8.733,0.727c0,0,11.003,3.94,10.958,5.247c-4.531-0.684-8.256-1.042-12.792-1.475
		c8.693,4.72,8.959,10.943,10.733,17.137c0.242-1.097,2.535-5.89,2.535-5.89c2.949,6.542,8.555,2.003,6.242-3.278l6.976-3.237
		c0.803-0.41-10.428-13.051-20.644-14.842c0.515-0.94,0.719-1.826,1.25-2.594c2.562-2.514,4.548-6.196,0.632-10.602
		c2.585-3.613,8.578-12.338,8.199-12.495C101.428,147.823,101.544,143.746,101.235,143.856L101.235,143.856z M17.243,184.068
		c-0.099,0-0.28,30.255-0.068,45.274c-0.251,0.623-0.414,3.946-0.414,3.946l9.302-8.743l0.279-11.304
		c2.429-0.58,17.568,7.109,16.356,7.068c1.156-0.488-6.988-15.877-16.488-17.584c-0.177-8.717-0.266-18.589-0.515-21.242
		C22.397,182.115,17.243,184.088,17.243,184.068z M99.831,202.269c-2.605,0.778-3.691,6.254-2.849,8.913
		c0.157,0.492,0.058,0.598,0.473,0.116c1.014-1.491,0.695-4.46,2.488-6.029C104.678,206.699,104.209,200.537,99.831,202.269z"/>

		<path id="path6267-4" fill="#D40000" d="
		M39.566,237.953l12.314-18.614c14.701,4.916,29.71,5.004,44.878,2.579l13.556,16.036h-5.542l-8.532-12.191
		c-3.092,0.713-6.305,1.025-9.507,1.466l3.993,10.726h-4.347l-3.137-10.608c-7.358,0.284-12.371-0.37-17.479-0.97l-1.841,11.578
		h-4.422l2.985-11.954c-3.476-0.652-6.984-1.211-9.896-2.146l-9.04,14.1H39.566z M53.668,226.998l5.112,1.385l-2.496,9.57h-9.352
		L53.668,226.998z M66.871,237.953l1.445-8.453c3.433,0.676,7.913,0.813,12.636,0.764l2.222,7.689H66.871z M91.069,230.116
		l4.034-1.07l6.045,8.907H93.8L91.069,230.116z M32.238,176.321c19.671-22.893,17.054-46.925,6.188-66.309l2.31-2.378
		c12.566,20.664,15.241,50.043-7.917,72.813C32.574,179.074,32.238,176.321,32.238,176.321z M110.677,150.647
		c2.826,4.812,4.554,9.685,7.54,14.525l-7.084,9.581L110.677,150.647z M26.048,165.809c-0.183-15.105,0.045-45.711,0.045-45.711
		l6.637-5.08c7.942,9.646,12.276,35.071-1.985,51.992C29.707,166.253,26.884,166.569,26.048,165.809L26.048,165.809z
		 M120.277,162.762c-18.202-30.724-8.858-53.166,8.684-73.059c0.051,1.533,0.078,3.099,0.218,4.625
		c-15.062,17.257-21.085,42.778-6.318,65.867L120.277,162.762z M87.316,158.298l8.29-11.304c0,0,1.57-4.497,2.895-5.825l1.52-1.344
		c0.506,0.488,1.546,1.519,1.546,1.519l-0.919,3.486c-3.067,4.728-6.295,9.458-9.695,14.186
		C90.953,159.015,88.01,158.5,87.316,158.298z M131.409,103.434c0.262-0.296,3.552,1.078,3.552,1.078l0.211,46.449l-6.588,4.236
		C126.673,156.168,111.736,125.684,131.409,103.434L131.409,103.434z M62.008,123c2.999-4.088,6.159-7.628,9.066-11.383
		c0.751,0.259,2.726,0.303,2.726,0.303c0.208,0.112-0.664,3.115-2.815,5.186c-5.903,7.066-7.244,8.374-7.459,11.289
		c-0.07,0.937-2.152,2.013-2.152,2.013l-1.497-1.579C60.335,126.513,61.053,124.74,62.008,123L62.008,123z M43.301,105.184
		l6.775-8.87l0.484,23.069L43.301,105.184z M64.906,47.428l-13.07-16.346h6.329l7.784,11.568l9.322-1.065L71.99,31.081h3.863
		l2.728,10.334c5.718,0.136,11.306,0.581,16.733,1.126l2.789-11.459h3.934l-3.57,11.991l10.527,2.765l9.38-14.756h4.66
		L109.74,50.134C92.36,44.91,78.401,45.508,64.906,47.428z M102.586,40.585l2.978-9.514l8.907,0.01l-6.817,10.868L102.586,40.585z
		 M81.03,38.271l-1.882-7.19H94.85l-2.028,8.038C88.675,38.419,84.889,38.285,81.03,38.271L81.03,38.271z M62.205,31.081h6.268
		l2.442,7.441l-3.616,0.41L62.205,31.081z"/>

		<path id="path6269-8" d="
		M49.788,30.028l15.135,18.118c3.153-1.129,19.047-2.943,28.581-0.766c1.662,6.512,3.42,13.09,5.278,19.019
		c0,0-0.595,0.696-1.025,1.138c-6.089,7.021-1.779,13.803,3.792,16.015c-1.004,2.089-11.682,7.287-18.184,6.669
		c0.011-0.065-1.997-4.771-6.067-3.18c-1.391,0.544-1.964,1.591-3.041,2.614c-3.885-1.173-9.013-3.728-11.679-6.538
		c4.989,2.485,9.902,3.824,14.834,3.164c0,0-0.611-0.509-1.305-0.829c-0.418-0.191-1.422-0.796-2.233-1.343
		c-2.293-1.546-3.816-3.41-5.387-6.598c-1.807-3.23-2.101-6.705-3.092-9.77c-0.524,1.57-0.75,5.718-2.12,6.579
		c-0.355,0.233-0.42,0.163-0.685-0.716c-1.045-3.19-4.87-2.786-6.133-0.514c-0.641,1.952-0.548,2.81,0.26,4.623l-2.319,1.289v0.383
		l-1.428,0.682l-0.297-0.202c-6.637,3.208-13.144,6.546-19.916,9.619c0,0-3.596,5.971-6.887,8.347l-0.129-20.277l-9.747-8.809
		l-0.047,4.825c0,0,0.468,0.49,0.7,0.736c0.133,33.944,0.022,67.339,0.043,98.156l0.044,28.368l-0.594,0.035l-0.03,3.309
		l0.671,0.151l-0.094,4.671l-0.349,0.023l-0.05,2.959l0.532,0.082l-0.01,16.7l-0.526,0.676l0.012,4.767l10.176-9.675l0.228-11.006
		c8.027,1.517,16.418,7.289,16.418,7.289c-1.414-9.217-11.177-16.814-16.785-18.33l0.018-21.839c0,0-4.168,1.738-6.228,2.006
		c-1.02,0.145-1.413-0.01-1.9-0.748c-0.355-0.535-0.364-1.027-0.042-2.136c0.149-0.519,0.144-0.656-0.042-1.178
		c-0.263-0.733-0.265-1.064-0.009-2.359c0.27-0.76,0.151-1.166-0.131-1.869c-0.303-0.754-0.327-0.893-0.197-1.328
		c0.341-1.142,0.361-1.328,0.181-1.84c-0.349-0.997-0.361-1.718-0.038-2.365c1.501-2.52,4.864-1.899,6.691-1.809
		c0.924,1.031,1.477,1.605,1.563,0.112c0.648-1.781,3.16,0.043,4.333,0.799c9.986-13.388,14.912-31.517,2.385-54.205l-6.969,5.58
		l0.016-6.985c9.24-5.942,19.637-19.453,24.139-30.106c1.497,1.756,3.217,3.48,4.836,5.25l-1.058,1.773l-0.313-0.177
		c-2.866,5.473-10.651,15.824-10.777,15.719c2.881,5.343,5.447,10.739,7.629,16.2l0.572-0.257l0.511,1.644l-1.008,0.303
		c3.41,11.191,3.522,21.554,0.955,31.11l0.602,2.539c0,0,3.608,3.497,4.581,4.524c2.542,2.463,5.375,5.212,5.375,5.212l3.293-3.225
		l-0.191-0.274l28.864-28.676l1.8,1.721c-17.679,17.817-48.384,48.575-48.384,48.575l-1.064,0.155c-0.605,0.09-1.5,0.129-2.07,0.09
		c-0.939-0.067-1.055-0.045-1.807,0.314c-0.849,0.404-1.55,1.001-2.489,2.126c-0.429,0.513-0.724,0.735-1.2,0.905
		c-6.018,3.592-0.577,10.824,4.542,7.017c3.751,7.171,6.928,15.526,8.68,23.789c0,0.061-0.674,0.292-0.674,0.292l-13.488,20.013
		h5.188l0.542-0.921h-3.889l12.41-17.934c15.786,4.303,30.276,4.914,44.982,2.353l12.799,15.581h-5.076l0.723,0.921l6.57,0.106
		l-15.046-17.768c-5.386,1.44-19.595,2.6-28.508,1.089c-1.364-6.625-3.612-13.825-5.275-19.557c8.507-6.662,2.12-15.458-3.13-16.684
		c-0.255-0.482,10.646-7.113,18.411-6.652c2.224,5.343,7.092,4.552,8.84,0.576c3.22,1.183,7.399,2.365,10.717,5.004
		c-4.424-0.97-9.55-1.501-13.769-1.566c8.025,3.113,10.276,9.675,11.264,15.863c0.175,1.027,0.724,2.351,0.724,2.351
		c0.684-2.234,1.243-4.542,2.589-6.454c0.619,2.189,2.897,3.887,5.193,2.586c1.332-0.966,1.795-2.624,1.373-4.914
		c-0.117-0.637-0.176-0.986-0.176-0.986l1.782-0.966l0.232,0.198c0,0,1.954-0.835,2.924-1.307c0.152-0.074-0.179-0.378-0.179-0.378
		l18.029-8.508c-0.068-0.039,4.546-6.341,7.194-8.772c0.08,7.553,0.061,10.657,0.057,19.623l1.018,0.995
		c0.902,0.882,2.871,2.712,7.309,6.791c0.999,0.917,1.697,1.372,1.697,1.372l-0.137-132.071h-0.148v-2.54l0.208-0.012v-6.608
		l-0.186-0.108v-2.083l0.248-0.181l0.017-17.839l-0.286-0.049l-0.018-4.279L134.99,45.784l0.077,10.03
		c-4.486-0.581-10.034-3.452-13.853-5.769c-1.234-0.753-1.923-0.954-1.884-0.523c0.537,5.971,9.175,15.105,15.814,17.493
		l0.012,22.465c0,0.012,1.568-0.785,2.525-1.187l0.143,0.4l2.14-0.887l0.174-0.461l1.855-0.235c0.022,0.379,0.084,0.327,0.084,0.327
		c1.654,0.462,2.385,1.59,1.719,2.858c-0.232,0.424-0.278,1.027-0.084,1.184c0.716,1.132,0.903,2.128,0.038,3.199
		c-0.334,0.547-0.331,0.855,0.011,1.436c0.895,1.805,0.386,1.686-0.286,2.761c-0.152,0.812,0.739,1.342,0.445,2.106
		c-0.137,0.505-0.669,1.095-1.03,1.363c-0.422,0.307-0.769-0.264-0.769-0.264s-1.34,0.575-2.303,0.759
		c-0.947,0.308-2.577,0.857-3.141-0.418c-0.324-0.731-0.064-1.398-0.085-2.214l-1.389-0.152l-0.051,3.71
		c-0.795,0.422-3.954-1.193-3.954-1.193c-13.558,17.585-13.178,37.087-3.123,53.426c0.098,0.263,7.085-4.781,7.085-4.781
		s-0.015,4.134,0.046,6.376c-8.881,7.352-17.462,17.243-23.596,29.436l-3.799-4.507c0.654-0.58,0.679-1.495,0.665-2.189l2.759-4.117
		l0.024-1.068l7.173-10.028c0.113,0.602-7.401-13.461-8.402-18.038l0.497-0.135c-3.372-12.767-2.681-21.707-0.245-32.119
		l-0.695-0.671l-9.465-9.459c-0.768,0.71-1.534,1.424-2.299,2.14c-0.117,0.11-0.694,0.044-0.811,0.155
		c-4.981,4.673-9.769,9.364-14.508,14.238c-0.123,0.125,0.083,0.646-0.039,0.771c-4.747,4.893-9.668,9.536-14.473,14.42
		l-1.754-1.673c17.012-17.018,49.06-48.629,49.06-48.629s0.138-0.251,0.36-0.26c0.892-0.033,1.689-0.236,2.57-0.492
		c1.055-0.245,1.226-0.322,1.672-0.782c0.272-0.281,0.718-0.675,0.991-0.875c0.463-0.341,1.525-1.234,3.184-2.679
		c1.014-0.884,1.639-2.17,1.618-3.318c-0.039-2.045-1.392-3.788-3.134-4.038c-0.724-0.105-2.144,0.272-2.863,0.758
		c-0.548,0.37-0.806,0.54-1.042,0.374c-3.473-7.046-6.851-15.907-8.284-23.219c-0.077-0.461-0.035-0.598,0.341-1.178
		c0.233-0.361,0.742-1.156,1.133-1.769c4.332-6.748,8.762-12.406,12.552-18.614h-5.353l-0.661,1.053h4.406l-13.107,18.878
		c-24.155-7.901-43.948-2.893-44.423-2.785L52.196,31.081h5.972l-0.724-1.053H49.788z M61.543,30.028l0.664,1.053h6.265
		l-0.355-1.053H61.543z M71.991,31.081h3.862l-0.222-1.053h-3.962L71.991,31.081z M78.901,30.028l0.245,1.053H94.85l0.279-1.053
		H78.901z M98.102,31.081h3.934l0.296-1.053h-3.957L98.102,31.081z M105.888,30.028l-0.336,1.053h8.92l0.668-1.053H105.888z
		 M144.035,37.313l0.139,2.926l-6.431,6.782l0.008,9.47l-1.872-0.435l-0.075-9.786L144.035,37.313z M142.232,43.551
		c0.054,2.901-0.415,5.681,0.352,8.638c0.377,1.456,1.142,3.162,1.238,4.883l-2.122-0.05c-0.268-0.869-0.374-1.827-0.692-2.897
		c-0.783-2.636-1.418-5.414-0.84-8.208L142.232,43.551z M95.934,48.281c0.077,0.145,0.331,1.37,0.565,2.507
		c1.113,6.239,2.605,10.869,4.128,15.58c1.935,5.937,4.8,13.411,7.585,16.874c0.369,0.432,0.55,0.924,0.418,1.138
		c-0.225,0.363-1.362-0.144-2.125-0.948c-0.312-0.329-0.912-1.252-1.354-2.079c-0.973-1.823-2.281-4.475-2.411-4.895
		c-0.053-0.17-0.565-1.48-1.141-2.912c-1.007-2.503-1.604-4.217-2.445-7.001c-0.668-2.208-1.283-4.519-2.028-6.845
		c-1.218-3.806-1.924-6.831-2.6-10.331c-0.1-0.513-0.271-1.114-0.208-1.236C94.702,47.857,95.749,47.967,95.934,48.281z
		 M96.615,48.519c-0.121-0.101,1.105-0.121,1.497,0.209c0.117,0.117,0.325,0.848,0.503,1.789c1.108,5.74,2.777,11.672,4.717,17.293
		c1.55,4.49,3.243,8.812,5.351,12.313c0.662,1.166,1.557,2.413,2.697,3.76c0.64,0.754,0.692,0.86,0.519,1.068
		c-0.211,0.255-0.58,0.222-1.292-0.116c-0.664-0.315-1.383-1.006-2.059-1.983c-0.231-0.333-0.582-0.836-0.782-1.115
		c-3.111-5.381-4.999-10.494-6.71-15.686c-1.754-5.324-3.331-10.708-4.403-16.912C96.641,48.931,96.628,48.725,96.615,48.519
		L96.615,48.519z M100.522,49.327c0.273,0.277,0.429,0.808,0.666,1.917c1.295,5.323,2.355,10.078,3.886,14.447
		c0.823,2.35,1.535,4.698,2.418,6.912c1.411,3.536,3.135,6.757,5.255,9.439c0.698,0.884,1.968,1.973,3.034,2.606
		c0.738,0.439,0.849,0.552,0.8,0.805c-0.065,0.228-0.785,0.324-1.021,0.307c-1.166-0.2-2.89-1.104-3.382-1.774
		c-3.566-3.855-6.115-10.164-7.972-15.342c-3.192-8.912-5.766-20.046-5.276-19.7C98.897,48.685,100.206,48.982,100.522,49.327
		L100.522,49.327z M102.055,49.65c0.116,0.002,0.245,0.022,0.39,0.062c0.666,0.182,0.753,0.275,0.913,1.01
		c1.141,5.09,2.348,9.578,3.695,13.847c1.371,4.344,2.782,8.441,4.98,12.739c1.612,3.136,3.652,5.303,5.846,6.4
		c0.631,0.314,1.193,0.617,1.25,0.673c0.058,0.057,0.042,0.22-0.034,0.364c-0.117,0.217-0.249,0.261-0.786,0.252
		c-0.996-0.018-1.694-0.327-2.763-1.045c-2.802-1.934-5.252-6.313-6.334-8.798c-1.319-3.03-2.532-6.18-3.626-9.614
		c-1.963-6.162-3.186-10.239-4.082-15.438C101.506,49.803,101.708,49.643,102.055,49.65L102.055,49.65z M144.053,57.966
		l-0.019,1.805c-7.057,0.468-14.292-2.517-20.108-5.204c4.382,5.815,9.058,10.975,20.107,12.04l0.02,1.862
		c-14.391-0.204-24.528-14.788-23.995-18.423C125.979,53.873,136.672,58.297,144.053,57.966L144.053,57.966z M104.334,50.327
		c0.346,0.016,0.812,0.163,0.995,0.345c1.176,4.394,2.033,9.272,3.978,14.167c2.39,6.016,3.715,11.326,8.146,16.283
		c1.377,1.417,4.078,1.375,4.078,1.375s-0.341,0.766-0.801,0.894c-0.949,0.143-1.636,0.186-2.329-0.037
		c-2.566-1.085-4.528-3.828-5.541-5.686c-0.949-1.392-3.265-7.131-5.173-12.983c-2.078-6.37-3.79-12.993-3.594-14.326
		C104.163,50.329,104.219,50.322,104.334,50.327z M106.706,51.066c0.17,0,0.395,0.065,0.666,0.194
		c0.288,0.138,0.414,0.223,0.565,0.766c0.098,0.355,0.081,0.902,0.255,1.793c1.001,4.588,2.38,8.313,3.749,11.942
		c1.302,3.448,2.698,6.832,4.419,9.893c0.869,1.541,1.731,2.983,2.275,3.528c1.483,1.483,3.998,1.557,4.74,0.085
		c0.412-0.838,0.328-2.163-0.487-2.85c-0.631-0.603-2.06-0.348-2.097,0.379c0,0.193,0.355,0.108,0.87,0.046
		c1.438-0.167,1.889,2.383,0.038,2.808c-2.342,0.538-3.967-2.63-1.899-4.573c3.504-2.378,6.179,0.872,5.351,3.996
		c-0.8,1.847-2.141,2.788-3.912,2.854c-2.286,0.073-3.232-0.634-5.576-4.042c-2.687-4.316-3.852-8.527-5.746-13.246
		c-1.79-4.463-2.983-9.222-3.544-13.378C106.423,51.131,106.536,51.066,106.706,51.066L106.706,51.066z M108.929,51.803
		c0.207,0.007,0.643,0.117,0.835,0.235c0.115,0.072,0.28,0.229,0.28,0.229c3.152,11.507,5.779,18.399,8.455,23.264
		c0,0-0.043,0.894-0.222,1.148c-0.319,0.456-0.475,0.344-0.891-0.375c-1.682-3.26-3.285-6.86-4.778-10.571
		c-1.758-4.367-3.317-8.887-3.978-13.188C108.664,51.991,108.539,51.835,108.929,51.803z M130.186,58.381
		c0.446,0,0.809,0.36,0.809,0.805c0,0.446-0.363,0.809-0.809,0.809c-0.445,0-0.808-0.363-0.808-0.809
		C129.378,58.74,129.741,58.381,130.186,58.381z M64.708,58.234c-0.935,1.273-1.7,5.834-2.673,5.889
		c-1.069-0.017-2.37-0.631-3.209,0.337c-1.019,1.176-0.393,2.475,0.863,3.191c0.578,0.286,1.807,0.354,2.553,0.139
		C65.301,66.764,66.463,61.799,64.708,58.234L64.708,58.234z M133.243,59.43c0.644,0,1.164,0.525,1.164,1.17
		c0,0.645-0.521,1.165-1.164,1.165c-0.644,0-1.165-0.52-1.165-1.165C132.078,59.955,132.599,59.43,133.243,59.43z M64.762,59.983
		c1.046,2.63-0.112,5.775-1.385,6.834c-1.172,0.975-3.012,1.1-4.063,0.151c-0.875-0.823-0.486-2.8,1.146-2.652
		c0.549,0.018,1.203,0.517,1.57,1.045C63.092,65.472,64.317,60.079,64.762,59.983z M137.306,60.626c0.727,0,1.315,0.59,1.315,1.317
		c0,0.727-0.589,1.317-1.315,1.317s-1.315-0.59-1.315-1.317C135.99,61.216,136.579,60.626,137.306,60.626z M141.964,61.556
		c0.743,0,1.343,0.602,1.343,1.343c0,0.743-0.6,1.344-1.343,1.344c-0.742,0-1.342-0.602-1.342-1.344
		C140.622,62.157,141.222,61.556,141.964,61.556z M98.607,67.665c0.201-0.001,0.341,0.192,0.472,0.577
		c0.274,0.802,0.267,0.895-0.158,1.433c-4.13,5.72-0.365,11.569,5.618,12.204c0.505,0.036,0.758,0.604,1.026,1.267
		c-0.037,0.313-0.039,0.312-1.397,0.337c-0.888,0.016-1.599-0.039-2.043-0.159c-2.096-0.565-4.664-2.461-5.715-4.217
		c-1.21-2.024-1.412-4.118-0.666-6.908c0.48-1.792,1.088-2.974,2.028-3.95C98.147,67.861,98.407,67.667,98.607,67.665z
		 M137.759,68.301l0.07,19.627l-2.089,0.762l0.084-20.873L137.759,68.301z M141.712,69.058c2.602,6.466,2.718,12.393,0.368,17.786
		l-2.374,0.343c3.256-7.597,1.872-13.035,0.031-18.285L141.712,69.058z M16.87,70.136l8.451,7.981l0.294,88.905l-1.347-0.476
		l-0.538-87.446l-6.861-6.296V70.136z M99.397,70.392c0.015,0,0.029,0.002,0.042,0.004c0.227,0.027,0.434,0.313,0.623,0.851
		c0.224,0.636,0.221,0.654-0.03,1.285c-1.16,2.845-0.214,5.551,2.651,6.405c0.68,0.215,0.793,0.325,1.192,1.169
		c0.259,0.549,0.375,0.747,0.275,0.867c-0.149,0.109-0.513,0.16-1.59-0.073c-4.261-1.455-5.808-6.118-3.87-9.819
		c0.241-0.422,0.463-0.652,0.665-0.685C99.369,70.393,99.383,70.391,99.397,70.392L99.397,70.392z M65.47,70.039
		c0,0,0.891,3.147,0.804,3.861c-0.226,1.378-2.184,3.582-3.896,4.387c-1.588,0.608-3.988,0.303-4.991-0.755
		c-3.647-4.27,3.157-8.559,4.867-4.112c1.028,2.917-3.154,3.607-3.339,1.367c0-0.578,0.186-0.759,0.724-1.134
		c0.478-0.335,0.423-0.632,0.012-0.632c-1.579,0.576-1.616,2.034-0.905,2.952c1.422,1.488,3.183,0.621,4.397-0.471
		C64.776,74.029,65.096,71.917,65.47,70.039L65.47,70.039z M100.754,73.285c0.081,0,1.753,3.997,1.975,4.566
		c-0.055,0.401-0.492,0.371-1.238-0.149c-0.757-0.529-0.983-0.903-1.304-2.13C100.091,75.136,99.928,73.549,100.754,73.285z
		 M66.828,74.972c0.368,0,0.75,1.353,0.577,2.045c-0.3,1.199-3.44,3.225-5.645,3.643c-0.442,0.084-0.916,0.173-1.053,0.198
		c-0.456,0.081-0.989-0.174-1.544-0.74c-0.391-0.399-0.578-0.796-0.484-0.891c0.077-0.076,1.088,0.1,1.945,0.086
		c2.403,0.028,4.259-1.697,5.686-3.753C66.527,75.237,66.76,74.972,66.828,74.972L66.828,74.972z M19.061,75.973
		c0,0,1.626,1.473,2.484,2.318c-0.092,3.92-1.538,8.17-1.536,11.674c0.034,3.048,2.006,5.586,2.206,8.239
		c0.118,1.716-0.386,4.265-1.231,6.196c-0.787,1.797-1.201,3.714-1.2,5.575c0.1,4.331,3.209,9.066,2.117,13.35
		c-1.026,4.026-2.194,6.349-1.884,8.488c0.597,4.124,2.789,7.778,2.205,11.209c-0.542,3.194-1.984,6.384-1.829,9.266
		c0.178,3.327,1.42,6.107,1.772,9.142c0.229,1.975-0.33,5.049-0.33,5.049l-2.28,0.188c1.254-4.671-0.614-8.898-1.33-13.388
		c-0.609-3.825,1.104-6.868,1.614-10.13c0.317-2.026-0.041-3.954-1.045-6.535c-1.982-4.766-1.269-7.87,0.159-12.019
		c1.766-4.418-0.663-7.917-1.269-12.151c-0.312-3.647-0.07-6.227,1.301-9.471c1.02-3.122,1.309-4.933-0.214-7.93
		c-0.961-1.894-1.212-3.013-1.214-5.506C18.051,84.591,19.386,81.817,19.061,75.973L19.061,75.973z M67.916,77.946
		c0.354,0,0.53,0.25,0.53,0.754c0,0.924-1.375,2.093-3.807,3.238c-1.261,0.594-1.994,0.682-2.732,0.332
		c-0.69-0.325-0.655-0.611,0.1-0.832c1.902-0.555,3.251-1.315,4.787-2.695C67.282,78.305,67.787,77.946,67.916,77.946L67.916,77.946
		z M56.91,78.583c6.274,6.72,12.427,10.178,17.13,11.795L73.3,92.134c-6.18-2.395-12.484-5.728-17.825-12.89L56.91,78.583z
		 M68.999,79.68c0.17,0,0.809,0.811,0.809,1.027c0,0.125-0.233,0.532-0.519,0.898c-0.415,0.532-0.782,0.806-1.819,1.375
		c-1.405,0.769-2.253,0.957-2.863,0.635c-0.605-0.32-0.402-0.59,1.11-1.479c0.781-0.459,1.823-1.2,2.314-1.646
		C68.523,80.045,68.956,79.68,68.999,79.68z M52.38,80.672c5.14,7.038,11.759,11.713,19.54,14.209l-1.223,1.655
		c-7.109-2.451-14.061-6.884-20.411-14.691L52.38,80.672z M70.33,81.54c0.259,0,0.84,0.655,0.84,0.948
		c0,0.14-0.114,0.398-0.251,0.573c-0.275,0.35-1.71,1.429-2.322,1.746c-0.479,0.248-0.838,0.244-1.359-0.016
		c-0.618-0.308-0.513-0.566,0.495-1.216c0.494-0.317,1.241-0.907,1.661-1.308C69.814,81.866,70.235,81.54,70.33,81.54L70.33,81.54z
		 M49.653,82.052c-0.147,0.184-7.568,17.194-23.291,29.254l-0.075-2.824c8.71-6.912,15.042-16.375,19.817-24.638L49.653,82.052z
		 M71.824,83.274c0.237-0.007,0.405,0.155,0.572,0.472c0.2,0.38-0.018,0.718-0.898,1.382c-0.549,0.415-0.753,0.497-1.208,0.488
		c-1.169-0.021-1.14-0.303,0.143-1.452C71.101,83.569,71.518,83.282,71.824,83.274L71.824,83.274z M102.187,84.114l3.277,0.252
		c0.883,0.614-12.81,9.582-22.304,8.777l0.252-2.148C91.747,91.233,102.414,84.501,102.187,84.114z M74.073,84.954
		c0.753,0.422,1.691,0.922,1.458,1.085c-0.349,0.218-2.572,0.076-3.084-0.198c-0.384-0.205-0.362-0.313,0.167-0.905
		C73.26,84.208,73.372,84.563,74.073,84.954z M44.858,84.42c-5.194,9.169-11.38,17.538-18.54,22.99l-0.095-4.849
		c6.815-5.249,11.973-14.838,11.986-14.872L44.858,84.42z M109.908,85.005l1.588,0.928c-9.904,9.173-20.6,13.126-30.878,12.136
		l0.827-1.858C98.124,97.529,109.201,85.181,109.908,85.005z M112.315,85.33c0,0,0.533-0.068,0.476,0.041
		c-3.289,3.224-7.803,6.667-10.76,8.588c-14.003,14.39-25.99,25.745-38.187,38.564l-1.95-2.042l1.766-1.87
		c0.008-3.692,4.525-7.835,7.204-11.024c1.118-1.261,3.218-4.504,2.98-5.865c-0.081-0.313-0.093-0.43-0.093-0.43
		c4.239-0.847,5.253-4.286,5.343-7.326c0.198-2.032,0.469-3.879,1.154-5.548C99.428,99.955,111.787,85.825,112.315,85.33z
		 M78.889,87.452c2.176-0.008,3.82,1.715,3.815,4.158c-0.018,1.022-0.378,1.798-1.762,4.5c-1.341,2.309-1.516,3.715-2.042,6.383
		l-1.364-1.226l-2.48,2.237l0.034-3.258c0,0,0.855-1.087,2.239-2.642c1.753-1.948,3.339-4.455,3.267-5.863
		c-0.047-1.409-1.534-2.556-3.056-1.635c-1.321,0.925-1.931,2.597-2.709,7.597c-0.137,0.887-0.267,1.929-0.339,2.157
		c-0.195,0.615-2.107,2.425-2.107,2.425c-0.163,0-0.917-3.67-0.917-3.67l-1.931,0.319c2.239-2.432,3.975-5.363,5.103-8.433
		C75.678,88.605,76.997,87.472,78.889,87.452L78.889,87.452z M36.864,88.23c0,0-3.846,7.993-10.598,13.193l-0.043-3.129
		c3.922-3.044,6.911-8.289,6.907-8.278L36.864,88.23z M129.422,88.433c-13.349,13.831-30.771,39.3-9.149,75.081l2.857-3.3
		c-17.411-32.359-5.072-49.131,6.388-65.961L129.422,88.433z M57.24,89.573c3.908,2.781,7.988,5.542,13.263,7.297
		c-0.282,0.941-7.534,7.047-2.33,12.694c0.218,0.295-0.335,1.015-1.183,2.034c-2.486,3.401-4.967,5.821-7.046,9.649l-0.085,7.19
		l-2.078-1.835L57.24,89.573z M128.91,90.235l0.088,4.101c-19.834,24.121-17.601,45.841-6.39,65.845l-2.147,2.181
		C102.085,130.712,113.55,106.853,128.91,90.235L128.91,90.235z M79.977,92.661c-0.874,2.312-4.7,6.272-4.7,6.272
		s0.506-3.857,0.826-5.073c0.243-0.929,0.793-2.184,1.334-2.784C78.983,89.377,80.524,91.305,79.977,92.661z M53.663,90.493
		l0.372,32.318l-2.788-2.813l-0.411-24.713L53.663,90.493z M49.897,96.818l0.554,21.942c-2.782-6.574-6.694-13.771-6.772-13.7
		C43.679,105.06,46.879,100.81,49.897,96.818z M71.915,103.683c0,0,0.426-0.357,1.093-1.123c1.446-1.462,1.577-1.472,1.444,0.5
		c-0.052,0.758-0.009,1.731-0.009,1.731c0.847-0.492,2.842-2.85,3.406-2.425c0.436,0.41,0.788,1.264,0.797,2.591
		c-0.05,2.598-1.519,4.984-3.846,5.762c-6.426,1.992-10.736-5.426-6.274-10.128c0.443-0.467,1.707-1.333,2.315-1.162
		C71.591,100.803,71.565,102.329,71.915,103.683z M135.682,101.352c0.374,1.024,0.851,2.036,2.154,2.494
		c-0.2,31.422-0.051,87.052-0.051,87.052l6.315,5.929l-0.041,2.592l-8.369-7.667C135.69,191.753,135.241,126.148,135.682,101.352
		L135.682,101.352z M141.953,102.808c0.225,3.04-0.289,6.241,0.232,9.363c0.515,2.159,1.295,4.105,1.359,6.23
		c0.059,1.943-0.069,3.049-0.899,5.762c-0.579,1.894-0.637,2.195-0.769,4.089c-0.313,2.635,0.539,5.024,1.192,7.124
		c0.868,2.784,0.626,6.152-0.762,10.594c-0.5,1.599-0.595,2.273-0.523,3.721c0.191,3.041,1.278,5.931,1.83,8.917
		c0.299,1.711-0.009,3.948-1.06,7.743c-0.392,1.413-0.804,3.872-0.804,4.802c0,0.997,0.318,2.874,0.627,3.686
		c1.46,3.84,1.531,4.528,1.607,6.836c0.011,1.734-0.49,3.486-1.104,5.012c-1.024,2.438-0.351,4.94,0,7.679l-2.517-2.153
		c-0.744-2.343-0.482-4.536,0.207-6.284c0.979-2.739,1.224-2.992,1.21-4.567c-0.019-2.089-1.214-4.558-1.71-6.027
		c-0.879-2.608-0.882-5.165-0.008-7.922c0.429-1.354,1.048-4.011,1.187-5.089c0.269-2.073,0.066-3.709-0.974-7.867
		c-0.508-2.03-0.615-2.814-0.65-4.834c-0.033-1.869,0.238-3.815,0.84-6.07c0.865-3.584,0.854-5.737-0.271-9.061
		c-0.91-2.748-1.165-4.611-0.933-6.8c0.134-1.269,0.482-2.459,1.064-3.646c1.078-2.695,1.243-5.273,0.441-7.845
		c-1.38-5.265-1.358-7.94-1.221-12.693L141.953,102.808z M134.88,104.531c-0.22,21.534,0,46.188,0,46.188s-6.375,4.465-6.35,4.234
		c-8.214-13.555-11.345-33.522,3.003-51.529c0,0,2.309,0.986,3.343,1.107H134.88z M37.924,109.664
		c11.626,21.722,13.138,43.665-6.084,66.179c0.619,1.989,0.518,3.844,0.209,5.661c3.748-2.919,33.8-32.957,8.491-74.78
		L37.924,109.664z M97.168,107.896l5.71,0.335l0.385,4.915l-1.846,1.831c0,0-0.033-1.016-0.058-1.924
		c-0.03-1.111-0.186-2.083-0.29-2.049c-0.096,0.031-0.2,1.328-0.283,2.741l-0.085,2.11l-0.639,0.64
		c-0.851,0.85-1.024,0.784-1.056-0.414c-0.072-2.607-0.065-2.785-0.255-2.594c-0.107,0.107-0.168,0.999-0.193,2.346
		c-0.021,1.07-0.096,2.095-0.167,2.277c-0.145,0.373-1.23,1.343-1.505,1.343c-0.265,0-0.25-0.377-0.252-1.998
		c0-1.369-0.144-2.119-0.364-1.615c-0.051,0.119-0.143,1.478-0.162,2.582c-0.02,1.104-0.091,2.112-0.159,2.238
		c-0.236,0.444-1.359,1.392-1.555,1.317c-0.283-0.109-0.354-0.92-0.345-2.277c0.008-0.664,0.109-1.226-0.147-1.406
		c-0.255-0.18-0.3,0.589-0.232,2.54l-0.02,2.122l-0.716,0.782c-1.134,1.17-1.212,1.114-1.214-0.906
		c0.05-1.597-0.008-2.298-0.322-2.172c-0.315,0.126-0.189,0.899-0.128,2.475c0.055,1.408,0.037,2.113-0.058,2.292
		c-0.076,0.143-0.444,0.558-0.816,0.922c-0.372,0.363-0.831,0.867-0.886,0.867c-0.087-1.696-0.232-5.347-0.232-5.347l-5.955-0.263
		c0,0,1.219-1.449,1.737-1.727c0.27-0.145,0.69-0.162,2.183-0.097c1.018,0.044,2.386-0.042,2.507-0.089
		c0.447-0.171-0.485-0.325-1.799-0.41c-0.877-0.063-1.105-0.039-2.078-0.182l0.866-0.893l0.65-0.647l1.9,0.062
		c1.15,0.038,2.003,0.031,2.136-0.043c1.125-0.221,0.072-0.478-1.21-0.48c-1.252-0.002-1.958-0.004-1.958-0.278
		c0-0.28,1.4-1.552,1.799-1.634c0.205-0.043,1.224-0.085,2.263-0.093c1.786-0.014,2.434-0.04,2.334-0.337
		c-0.1-0.297-1.283-0.21-2.07-0.244c-2.187-0.003-2.288-0.086-0.794-1.394l0.723-0.635l1.37,0.039
		c2.067,0.058,3.068-0.025,3.068-0.221c0-0.176-1.346-0.348-2.489-0.348c-0.683,0-1.238,0.011-1.238,0.011
		c0.51-0.664,1.058-1.204,1.656-1.796l1.846-0.035c1.348,0.021,2.175,0.072,2.197-0.174c0.024-0.246-0.483-0.244-1.103-0.248
		c-0.838-0.005-1.833-0.077-1.966-0.209c-0.141-0.142,0.124-0.536,0.708-1.061L97.168,107.896L97.168,107.896z M40.636,107.96
		c15.973,26.11,10.208,54.324-7.603,71.886l-0.522-3.427c16.813-20.46,19.749-41.586,6.148-66.443L40.636,107.96z M70.342,111.466
		c-2.868,4.315-7.252,8.571-8.907,12.094c-0.339,0.397-0.449,1.29-0.975,1.469c-0.263,0-0.349-0.498-0.283-1.649
		c0.049-0.868,0.13-1.159,0.549-2.006c2.263-4.134,4.886-7.105,7.781-11.031L70.342,111.466z M71.013,111.884l2.651,0.169
		c-0.589,1.876-1.384,3.215-2.322,4.433c-1.203,1.562-2.65,3.136-4.335,5.056c-2.442,2.782-3.664,5.615-3.55,6.861
		c-0.611,0.645-1.035,1.088-1.811,1.748l-1.546-1.423C61.246,122.844,66.798,117.438,71.013,111.884L71.013,111.884z
		 M103.444,114.273l0.859,0.05c2.94,0.173,4.773,0.353,4.879,0.48c0.066,0.079,0.151,0.531,0.193,1.003
		c0.064,0.717,0,1.195-0.376,2.904c-0.248,1.125-0.527,2.122-0.619,2.215c-0.338,0.344-0.473,0.002-0.631-1.595
		c-0.095-0.964-0.132-1.665-0.259-1.588c-0.061,0.038-0.192,1.072-0.155,1.843c0.099,2.008,0.086,2.5-0.538,3.106
		c-1.092,1.061-1.153,0.953-1.234-0.929c-0.035-0.781-0.221-1.92-0.275-1.975c-0.237-0.236-0.316,0.845-0.318,2.676v1.952
		l-0.518,0.565c-0.677,0.734-0.897,0.845-1.146,0.597c-0.154-0.154-0.097-0.489-0.097-1.604c0-1.307-0.228-2.058-0.476-1.808
		c-0.046,0.047-0.059,1.311-0.062,2.412c0,1.101-0.017,2.075-0.03,2.164c-0.04,0.265-1.279,1.511-1.502,1.511
		c-0.26,0-0.468-1.438-0.468-2.614c0-0.785-0.168-0.923-0.334-0.492c-0.041,0.108-0.074,1.21-0.074,2.199v1.797l-0.727,0.751
		c-0.973,1.007-1.132,0.948-1.134-0.43c0-1.188-0.081-1.816-0.321-1.816c-0.137,0-0.171,0.562-0.171,1.898
		c0,0.915-0.06,1.821-0.131,2.013c-0.072,0.192-0.391,0.613-0.708,0.937c-0.317,0.324-0.643,0.589-0.723,0.589
		c-0.134,0-0.327-1.126-0.276-1.611c0.011-0.102,0.012-0.811,0-1.576c-0.026-1.825,0.099-1.747-2.812-1.839
		c-3.418-0.108-3.467-0.127-2.439-1.123c0.977-0.945,0.84-0.91,3.104-0.759c1.819,0.121,2.038,0.114,2.221-0.07
		c0.112-0.112,0.175-0.232,0.139-0.266c-0.034-0.035-0.727-0.099-1.54-0.144c-2.249-0.124-2.445-0.286-1.493-1.239l0.538-0.542
		h2.302c1.554,0,2.61-0.068,2.668-0.162c0.149-0.241-0.467-0.302-1.944-0.388c-0.794-0.046-1.541-0.112-1.66-0.147
		c-0.377-0.112-0.236-0.491,0.398-1.085l0.611-0.573h2.032c1.886,0,2.809-0.122,2.809-0.371c0-0.176-0.375-0.247-1.343-0.26
		c-1.369-0.018-2.284-0.15-2.344-0.337c0.334-0.647,0.795-1.009,1.334-1.549l2.067,0.073c2.08,0.074,2.732-0.001,2.732-0.363
		c0-0.189-0.891-0.325-2.043-0.256c-0.742,0.045-1.641-0.133-1.641-0.395c0-0.113,0.299-0.505,0.666-0.867l0.67-0.658l2.023,0.081
		c1.129,0.045,2.333,0.034,2.423-0.027c0.336-0.23-0.443-0.41-1.715-0.484c-1.96-0.114-2.087-0.266-1.052-1.247L103.444,114.273z
		 M32.881,115.358c10.484,18.787,8.914,36.484-2.252,51.548c-1.281-0.747-2.648-1.154-4.109-1.309l-0.282-45.361L32.881,115.358z
		 M107.867,122.699c0.211-0.032,0.207,0.314,0.147,1.041c-0.047,0.586-0.134,1.199-0.196,1.363
		c-0.121,0.317-0.216,0.332-1.235,0.186c-1.159-0.166-1.143-0.375,0.131-1.63C107.331,123.051,107.682,122.728,107.867,122.699
		L107.867,122.699z M51.578,123.543c0,0,1.382-0.009,2.072,0.016c0,0,0.108,3.515,0.389,5.543l4.494,0.216l-1.745,1.816
		l-3.408-0.109C53.38,131.025,52.344,126.034,51.578,123.543z M105.128,125.669c0.633-0.012,2.293,0.274,2.488,0.468
		c0.152,0.152,0.157,0.527,0.024,2.795c-0.048,0.818-0.098,2.575-0.109,3.903c-0.019,2.406-0.02,2.416-0.297,2.455
		c-0.367,0.052-0.408-0.076-0.507-1.662c-0.056-0.892-0.179-1.672-0.283-1.708c-0.12-0.039-0.109,0.747-0.109,2.374v2.103
		c-0.357,0.296-0.689,0.69-1.099,0.897c-0.251,0-0.386-0.394-0.51-1.493c-0.124-1.093-0.245-1.863-0.391-1.619
		c-0.034,0.057-0.02,1.246,0.05,2.222l0.129,1.777l-0.79,0.794c-0.809,0.817-0.911,0.884-1.041,0.674
		c-0.301-0.809,0.126-4.518-0.603-4.987c-0.118-0.062-1.086-0.088-2.21-0.136c-1.897-0.08-2.973-0.112-3.238-0.341
		c-0.161-0.138,0.735-1.178,1.195-1.385c0.333-0.15,0.707-0.16,2.272-0.055c1.811,0.121,2.725,0.108,2.484-0.123
		c-0.062-0.061-0.984-0.196-1.706-0.267c-1.457-0.144-1.97-0.291-1.97-0.561c0.338-0.602,0.754-0.956,1.254-1.472l0.704,0.073
		c0.387,0.039,1.304,0.137,2.035,0.22c0.732,0.084,2.21,0.098,1.614,0.047c0.193-0.194-0.562-0.393-1.61-0.523
		c-1.976-0.245-2.155-0.468-1.161-1.448l0.612-0.6c1.038,0.078,2.085,0.105,3.114,0.263c0.753,0.12,1.16,0.077,1.16-0.177
		c0-0.179-0.375-0.171-1.284-0.353c-0.33-0.066-2.031-0.04-2.059-0.542C103.687,126.727,104.406,125.714,105.128,125.669
		L105.128,125.669z M59.081,129.932c0.302-0.017,0.317,0.718,0.348,2.66c0.034,2.127,0.069,2.493,0.251,2.676
		c0.175,0.174,0.61,0.234,2.477,0.33c2.857,0.145,2.931,0.186,1.924,1.158c-0.701,0.674-0.732,0.59-1.309,0.521
		c-1.51-0.176-3.717-0.135-3.804,0.004c-0.148,0.243,0.014,0.29,1.393,0.396c1.68,0.127,2.14,0.188,2.14,0.472
		c0,0.125-0.286,0.496-0.635,0.821l-0.635,0.592l-1.768-0.069c-1.862-0.076-2.817-0.102-2.817,0.151
		c0,0.153,1.062,0.321,2.747,0.488c0.438,0.043,0.886,0.051,0.91,0.123c0.059,0.184-0.791,1.238-1.316,1.63
		c-0.427,0.319-0.571,0.141-2.438,0.1c-1.905-0.041-2.07,0.031-1.714,0.384c0.084,0.084,0.399,0.094,1.11,0.143
		c1.166,0.082,1.725,0.257,1.725,0.547c0,0.276-1.051,1.366-1.543,1.599c-0.435,0.206-0.622,0.216-1.583,0.082
		c-0.757-0.106-0.901-0.265-0.882-0.976c0.009-0.321,0.065-2.398,0.124-4.62c0.114-4.289,0.149-4.506,0.716-4.426
		c0.242,0.035,0.299,0.327,0.364,1.781c0.069,1.548,0.133,1.856,0.39,1.856c0.096,0,0.111-0.615,0.05-2.106
		c-0.093-2.316-0.097-2.659,0.607-3.33c0.315-0.298,0.564-0.538,0.712-0.321c0.299,0.913,0.214,1.91,0.302,2.827
		c-0.009,0.922,0.35,1.114,0.434,0.235c-0.042-1.392-0.053-2.642-0.062-4.13l0.859-0.852
		C58.614,130.225,58.901,129.942,59.081,129.932L59.081,129.932z M53.513,131.667c0.34-0.057,2.253-0.024,2.53,0.038
		c-0.481,0.761-1.505,1.751-2.205,2.188C53.662,133.902,53.48,132.047,53.513,131.667z M107.673,135.875l0.406,2.861l-3.122-0.212
		L107.673,135.875z M65.598,136.339c0.02-0.002,0.039,0.002,0.054,0.008c0.226,0.086,0.289,0.639,0.38,3.296
		c0.042,1.25,0.128,2.23,0.205,2.324c0.09,0.108,0.48,0.163,1.204,0.163c0.587,0,1.694,0.037,2.46,0.08
		c1.671,0.096,1.715,0.167,0.72,1.15l-0.673,0.666l-2.093-0.086c-2.146-0.086-2.503-0.051-2.503,0.245
		c0,0.202,0.366,0.296,1.052,0.278c0.273-0.006,0.955,0.029,1.518,0.082c1.253,0.116,1.278,0.212,0.344,1.219l-0.674,0.725
		l-0.653-0.09c-1.052-0.145-3.815-0.11-3.974,0.051c-0.258,0.259,0.077,0.368,1.334,0.445c1.951,0.12,2.291,0.178,2.291,0.4
		c0,0.108-0.277,0.474-0.612,0.809l-0.607,0.607l-2.477-0.127c-1.736-0.029-2.329,0-2.368,0.112
		c-0.067,0.196,0.218,0.257,2.009,0.441c1.719,0.178,1.969,0.357,1.315,1.17c-0.718,0.893-0.988,0.995-2.342,0.864
		c-1.489-0.145-3.011-0.147-3.231-0.008c-0.342,0.217,0.01,0.362,1.068,0.441c1.603,0.12,2.539,0.292,2.539,0.527
		c0,0.265-0.531,0.946-1.045,1.34l-0.422,0.321l-1.83-0.194c-1.823-0.194-2.755-0.098-2.496,0.163
		c0.075,0.074,0.753,0.182,1.505,0.235c1.375,0.1,2.059,0.278,2.059,0.562c0,0.084-0.35,0.502-0.778,0.925
		c-0.434,0.431-0.92,0.715-0.92,0.715l-5.635-0.506c0,0-0.287-1.005,0.279-3.74c0.51-2.465,0.719-3.017,0.963-2.559
		c0.069,0.127,0.131,0.725,0.179,1.134c0.113,0.99,0.356,1.611,0.502,1.611c0.164,0,0.163-0.588-0.05-1.971
		c-0.297-1.928-0.331-2.004,0.402-2.78c0.629-0.664,0.984-0.821,1.18-0.519c0.055,0.086,0.13,0.96,0.205,1.693
		c0.131,1.289,0.208,1.585,0.376,1.417c0.108-0.108,0.188-0.476,0.069-2.388l-0.15-1.859l0.824-0.839
		c0.753-0.768,0.84-0.823,0.991-0.625c0.103,0.137,0.22,0.935,0.275,1.887c0.081,1.407,0.193,1.869,0.398,1.664
		c0.097-0.096,0.05-3.29-0.054-4.03c-0.068-0.482-0.033-0.553,0.577-1.238c0.726-0.817,1.108-1.154,1.308-1.158
		c0.262-0.006,0.404,0.797,0.406,1.863c0,1.136,0.091,1.587,0.197,1.73c0.273,0.366,0.304-0.919,0.239-2.189l-0.073-2.314
		l0.749-0.752c0.711-0.709,0.768-0.741,0.968-0.541c0.165,0.165,0.154,0.556,0.221,1.726c0.099,1.616,0.416,2.404,0.506,1.281
		c0.048-0.253,0.041-0.748-0.015-1.099c-0.056-0.353-0.102-1.15-0.101-1.769c0-0.946,0.048-1.199,0.279-1.573
		C64.305,137.213,65.288,136.371,65.598,136.339L65.598,136.339z M98.143,138.101c0,0,1.258,1.076,1.258,1.383
		c0,0.137-0.498,0.727-1.173,1.389c-1.244,1.221-1.361,1.43-1.505,2.741c-0.054,0.49-0.3,1.136-0.875,2.292
		c-0.439,0.886-1.075,1.92-1.075,1.92c-1.985,2.373-3.857,4.548-7.337,9.558c-0.199,0.46-0.21,0.921-0.412,1.303
		c-0.157,0.284-0.508,0.517-0.663,0.582c-0.23,0.096-0.689,0.38-1.022,0.635c-1.299,0.993-2.136,2.3-2.514,3.927
		c-0.205,0.878-0.326,1.669-0.682,4.379c-0.145,1.113-0.634,3.055-0.634,3.055c-7.477-0.106-14.477,1.189-20.717,4.714
		L98.143,138.101z M108.133,139.251l1.664,7.563l-1.714-0.035l-0.17-5.49l-5.348-0.511l1.912-1.852L108.133,139.251z
		 M100.019,139.945c0.459,0.466,1.029,0.98,1.444,1.487c-1.43,4.783-5.958,10.988-10.455,17.145l-3.297-0.361
		c-0.058-0.135,4.566-6.587,6.779-9.033c0.844-1.021,1.416-1.991,2.168-3.496c0.273-0.543,0.747-1.954,1.113-3.423
		C98.549,141.326,100.025,139.958,100.019,139.945L100.019,139.945z M101.795,141.622l2.493,2.528l0.608,35.802
		c-3.844-3.017-8.373-5.253-13.203-6.956l0.843-1.924l0.929-0.999c3.285-3.556,2.553-7.387,0.055-10.093
		c3.044-4.444,5.802-7.753,8.122-12.089l-0.031-2.974C101.583,142.174,101.795,141.622,101.795,141.622L101.795,141.622z
		 M71.982,143.115c0.261-0.025,0.293,0.637,0.36,2.514c0.061,1.756,0.134,2.586,0.251,2.769c0.156,0.245,0.306,0.266,2.376,0.329
		c2.185,0.067,2.639,0.129,2.639,0.364c0,0.067-0.281,0.402-0.623,0.747l-0.623,0.623l-1.946-0.031
		c-1.037,0.033-2.263,0.014-2.294,0.043c-0.173,0.161,0.475,0.378,1.423,0.38c0.591,0.002,1.529,0.106,1.637,0.147
		c0.369,0.141,0.196,0.506-0.607,1.277l-0.801,0.774l-1.768-0.035c-0.971-0.016-2.153,0.012-2.307,0.063
		c-0.538,0.178-0.27,0.325,0.62,0.337c1.487,0.02,2.513,0.143,2.557,0.376c0.022,0.112-0.255,0.525-0.619,0.917l-0.662,0.709
		l-2.6-0.11c-2.458,0.02-2.79,0.202-0.739,0.408c0.783,0.078,2.019,0.27,2.062,0.278c0.044,0.008,0.115,0.1,0.155,0.206
		c0.086,0.225-0.903,1.34-1.431,1.615c-0.272,0.141-0.461,0.149-0.933,0.043c-0.554-0.127-2.936-0.104-3.192,0.049
		c-0.216,0.129,0.252,0.278,0.913,0.29c0.995,0.022,2.182,0.31,2.182,0.547c0,0.196-0.504,0.821-1.04,1.289
		c-0.249,0.217-0.84,0.023-2.485,0.078c-1.127,0.037-1.877,0.141-1.877,0.216c0,0.069,0.559,0.29,1.277,0.341
		c0.711,0.051,1.687,0.221,1.752,0.286c0.168,0.169-1.099,1.664-1.099,1.664l-5.406-0.074l-0.498-5.731l0.46-0.531
		c1.035-1.195,1.261-1.021,1.467,1.123c0.152,1.571,0.264,2.051,0.491,1.824c0.083-0.082,0.05-0.98-0.035-2.3
		c-0.069-1.086-0.128-2.075-0.128-2.198c0-0.3,1.23-1.591,1.47-1.546c0.236,0.047,0.368,0.582,0.495,2.05
		c0.105,1.205,0.161,1.534,0.398,1.297c0.112-0.112,0.128-0.743,0.016-2.269l-0.147-1.995l0.522-0.619
		c1.049-1.244,1.255-1.105,1.382,0.913c0.086,1.362,0.217,2.079,0.468,2.079c0.084,0,0.086-1.017,0.034-2.555l-0.077-2.308
		l0.654-0.666c0.36-0.364,0.727-0.66,0.812-0.66c0.254,0,0.401,0.578,0.561,1.948c0.18,1.532,0.239,1.797,0.387,1.648
		c0.062-0.063,0.049-0.99-0.035-2.183l-0.182-2.285l0.798-0.809c0.439-0.443,0.88-0.79,0.979-0.77
		c0.239,0.045,0.395,0.737,0.414,1.714c0.018,0.913,0.173,1.699,0.375,1.901c0.101,0.102,0.13-0.46,0.105-2.091
		c-0.039-2.508-0.103-2.7,1.025-3.876c0.301-0.314,0.498-0.517,0.635-0.531H71.982z M101.172,144.142l0.025,3.501
		c-1.403,3.002-4.644,7.403-7.929,12.127l-1.714-0.929C95.664,153.449,99.099,148.425,101.172,144.142L101.172,144.142z
		 M54.244,145.241c0.077,0,0.163,0.004,0.259,0.008c0.887,0.053,0.91,0.359,0.085,1.131c-0.346,0.325-0.739,0.582-0.89,0.582
		c-0.255,0-0.268-0.039-0.19-0.705C53.606,145.437,53.705,145.247,54.244,145.241L54.244,145.241z M107.801,147.766l2.422,2.385
		l0.608,25.641l-2.55,4.162L107.801,147.766z M110.835,151.146c2.184,5.141,4.452,9.962,6.965,13.872l-6.476,9.148L110.835,151.146z
		 M89.05,159.139c2.977-0.041,5.719,2.316,6.063,4.712c0.65,2.751-0.766,5.714-3.089,6.625c-0.81,0.29-1.285,0.31-1.285,0.31
		c-0.283-1.66-0.16-3.257-0.537-4.942c0,0-1.393,1.84-2.178,2.484c-0.407,0.223-0.589,0.284-0.536-0.249
		c0.026-0.931,0.097-2.998,0.097-2.998l-3.439,3.562c0,0-0.281-0.386-0.611-1.274c-1.08-2.894,0.323-5.917,2.538-7.307
		C87.04,159.429,88.057,159.152,89.05,159.139L89.05,159.139z M134.817,158.921l0.066,3.135c-5.399,4.187-13.1,13.014-19.698,24.516
		l-2.907,1.227C116.755,177.093,126.206,166.189,134.817,158.921z M134.876,163.044l0.057,4.671
		c-4.763,4.583-8.903,9.317-12.505,15.411c-2.103,1.011-5.997,2.931-5.997,2.931C115.942,185.937,127.042,168.646,134.876,163.044
		L134.876,163.044z M86.821,167.043c0.218-0.002,0.207,0.419,0.138,1.029c-0.154,1.379-0.316,1.879-0.82,2.551
		c-1.745,2.061-4.517,4.865-4.895,7.473c-0.191,1.393,0.896,2.696,1.963,2.563c3.318-0.415,3.674-6.313,3.953-9.223
		c0.117-0.721,0.171-1.325,0.29-1.554c0.698-0.892,1.45-1.762,2.393-2.467l0.406,4.509l1.869-0.625
		c-5.271,7.167-3.756,7.616-6.535,10.553c-2.584,2.727-7.595-0.38-6.312-4.528c1.114-2.79,2.839-5.592,3.305-8.582
		c0.127-0.888,0.2-1.505,0.2-1.505l1.198,2.502C84.585,169.138,86.363,167.149,86.821,167.043L86.821,167.043z M135.072,168.589
		l-0.012,3.219c-2.457,2.769-4.578,4.895-7.088,8.721l-3.987,1.82C126.588,177.389,130.858,172.745,135.072,168.589L135.072,168.589
		z M86.353,171.43c0,0,0.265,1.501-0.319,4.23c-0.277,1.293-1.52,5.071-3.487,4.179c-1.671-1.475,0.365-4.215,1.39-5.508
		C84.731,173.403,85.591,172.398,86.353,171.43L86.353,171.43z M81.105,171.816l-1.088,2.326
		c-9.768,0.035-19.256,3.533-27.701,10.671l-2.136-0.699C59.127,175.645,70.218,171.53,81.105,171.816z M91.375,173.605
		c11.009,3.688,16.093,9.07,20.256,14.715l-1.74,0.893c-4.363-5.651-9.749-10.822-19.778-13.814L91.375,173.605z M78.761,177.085
		l-0.468,1.995c-6.165,0.184-12.672,2.375-19.003,6.772l-2.283-0.364C63.379,180.484,70.656,177.628,78.761,177.085z
		 M106.938,190.556l-1.955,0.923c-5.835-7.575-11.11-9.73-17.106-11.66l0.646-1.679C96.578,180.277,102.489,184.37,106.938,190.556z
		 M25.574,181.625l0.169,20.213l-1.407-0.282l-0.2-19.549L25.574,181.625z M22.317,182.72c-2.682,10.056-0.602,12.658,0.368,18.526
		l-2.221-0.357c-2.162-5.943-2.384-11.351-0.56-17.662L22.317,182.72z M89.797,184.264c0.168,0.161-0.136,0.654-0.55,0.897
		c-0.4,0.237-0.311,0.202-0.952-0.029c-0.623-0.225-1.416-0.815-1.416-1.038C87.332,184.101,89.397,184.08,89.797,184.264z
		 M91.689,184.407c0.367,0.045,1.429,0.024,1.496,0.357c0.025,0.198-0.392,0.521-1.245,1.103c-1.296,0.886-1.736,1.06-2.117,0.639
		c-0.36-0.398-0.254-0.811,0.352-1.372C90.767,184.589,91.108,184.405,91.689,184.407z M47.465,184.628
		c0.742,0,2.07,0.917,2.871,1.981c0.811,1.274,1.745,2.579,2.499,3.866c1.714,2.923,3.037,5.89,4.144,8.929
		c2.902,7.222,4.603,14.225,6.017,21.183c-0.026,0.586-0.535,0.576-0.952,0.437c-0.218-0.069-0.433-0.214-0.476-0.325
		c-0.599-1.705-0.807-3.447-1.265-5.157c-1.146-4.279-1.556-6.729-3.762-12.762c-1.144-3.131-2.802-7.489-4.612-10.837
		c-1.159-2.147-2.502-4.132-4.244-5.886c-0.461-0.458-1.034-0.878-1.034-0.968C46.652,184.791,46.941,184.628,47.465,184.628
		L47.465,184.628z M94.513,184.86c0.688,0.169,2.347,0.364,1.718,0.915c-2.333,0.897-3.089,1.869-4.326,2.861
		c-0.186,0-0.924-0.915-0.924-1.138C91.984,186.263,93.249,185.736,94.513,184.86z M50.838,184.868
		c0.976-0.035,1.93,1.227,2.38,2.022c3,4.416,5.568,10.716,7.681,16.89c2.275,6.644,3.719,13.034,4.346,17.566
		c-0.053,0.141-0.335,0.194-0.658,0.192c-0.614-0.006-0.701-0.147-0.858-0.637c-1.565-7.499-3.665-15.24-6.206-21.81
		c-1.365-3.503-2.914-7.019-5.092-10.547c-1.485-2.179-2.329-3.323-2.264-3.494c0.044-0.116,0.289-0.174,0.577-0.174
		C50.774,184.871,50.808,184.869,50.838,184.868L50.838,184.868z M44.133,184.999c1.316-0.004,3.494,1.56,4.972,3.566
		c3.135,4.301,4.929,9.325,6.791,14.2c2.137,5.586,3.68,11.794,4.601,16.68c0.157,0.701,0.413,1.007-0.247,1.229
		c-1.001-0.286-0.978-0.259-1.261-1.475c-0.39-1.309-0.509-2.631-0.879-3.962c-2.113-7.61-4.48-16.055-8.412-22.927
		c-4.723-7.565-6.097-5.461-6.857-6.795C42.899,185.212,43.425,185.001,44.133,184.999z M55.498,186.846
		c4.059,7.068,5.848,11.406,7.082,15.673c1.871,6.47,4.087,11.635,5.06,19.186c0,0-1.066,0.02-1.494-0.155
		c-0.177-0.176-0.364-0.931-0.476-1.548c-0.974-5.333-2.561-11.643-4.248-16.616c-1.818-5.533-3.981-10.798-7.178-15.883
		c-0.838-1.37-0.998-1.908-0.484-1.932C54.676,185.636,55.079,186.341,55.498,186.846L55.498,186.846z M97.782,186.092
		c0.188,0.002,0.264-0.025,0.608,0.092c0.538,0.186,0.708,0.302,0.739,0.515c0.044,0.31-0.288,0.411-1.327,0.654
		c-0.816,0.19-2.409,1.04-3.517,1.963c-0.514,0.427-0.956,0.886-1.08,0.886c-0.255,0-0.863-0.668-0.863-0.948
		C93.191,187.957,95.89,186.178,97.782,186.092L97.782,186.092z M41.858,186.267c3.436,0.104,6.124,4.097,7.534,6.791
		c0.549,1.054,1.261,2.2,1.8,3.403c2.788,6.239,5.154,14.063,6.31,19.061c0.556,2.406,1.198,4.17,0.971,4.64
		c-0.283,0.178-0.881,0.041-1.157-0.19c-0.177-0.149-0.272-0.699-0.585-1.705c-0.801-2.575-2.129-9.938-5.587-17.676
		c-0.077-0.172-1.751-5.067-4.644-9.711c-1.177-1.891-3.081-3.078-4.816-3.464c-0.874-0.143-1.134-0.039-1.08-0.511
		c0.034-0.302,0.129-0.382,0.595-0.531C41.408,186.308,41.627,186.272,41.858,186.267L41.858,186.267z M63.334,202.222
		c-0.235,0-0.443-0.449-0.6-1.183c-0.077-0.362-0.182-0.621,0.495-1.046c4.262-4.536,0.597-11.196-4.76-11.774
		c-0.496-0.076-1.137-0.078-1.323-0.147c-0.272-0.155-0.77-1.119-0.988-1.507C63.562,184.77,71.419,195.374,63.334,202.222
		L63.334,202.222z M100.213,187.405c0.441,0.11,1.4,1.001,1.28,1.195c-0.144,0.233-0.974,0.241-2.171,0.453
		c-2.546,0.453-3.637,2.112-4.82,3.347c-0.263,0.08-0.496-0.102-0.732-0.504c-0.173-0.296-0.314-0.651-0.314-0.79
		C94.781,189.178,98.324,187.229,100.213,187.405L100.213,187.405z M40.117,187.973c2.165,0,4.328,1.05,5.545,2.761
		c4.443,6.654,9.435,21.446,10.626,28.742c-0.121,0.235-0.437,0.259-1.053,0.08c-0.344-0.098-0.302-0.208-0.519-0.886
		c-1.396-5.316-2.925-10.477-4.724-15.209c-0.928-2.439-2.019-4.824-3.046-6.966c-0.649-1.356-1.957-3.768-2.452-4.505
		c-1.168-2.196-3.529-2.839-5.018-2.13c-1.539,0.833-1.733,2.823-0.561,3.707c0.973,0.68,2.508,0.568,3.071-0.484
		c0.192-0.374,0.131-0.837,0.008-0.954c-0.121-0.112-0.338-0.08-0.384,0.043c0.08,1.293-1.569,1.377-2.288,0.868
		c-1.15-0.86-0.385-3.582,2.748-2.486c1.21,0.637,1.615,1.84,1.042,3.117c-0.587,1.307-1.495,1.903-2.899,1.893
		c-1.704-0.029-3.634-1.227-3.649-3.376c0.009-1.605,0.747-2.939,2.14-3.833C39.22,188.026,39.422,187.973,40.117,187.973
		L40.117,187.973z M58.447,188.972c5.252,0.241,7.665,6.429,4.903,10.159c-0.704,0.893-1.151,0.731-1.452-0.421
		c-0.147-0.472-0.312-0.545,0.113-0.909c2.459-2.359,0.439-6.944-3.615-7.13c0,0-0.756-1.101-0.832-1.687
		C57.836,188.886,58.199,188.972,58.447,188.972L58.447,188.972z M102.244,189.398c0.399,0.098,1.243,0.909,1.243,1.193
		c0,0.337-0.166,0.272-1.1,0.112c-2.208-0.394-4.421,0.884-6.268,3.676c-0.896,1.675-1.006,1.517-1.478,0.073
		c-0.241-0.741-0.246-0.723,0.693-2.091C97.087,190.111,99.674,189.082,102.244,189.398L102.244,189.398z M104.299,192.237
		c1.848,1.679,0.986,5.379-1.512,5.763c-2.203,0.255-4.159-2.128-2.772-3.75c0.902-0.978,2.031-1.078,2.725-0.235
		c0.717,0.868,0.413,2.053-0.608,2.175c-0.12,0.043-0.217,0.135-0.217,0.206c0,0.217,0.906,0.159,1.215-0.092
		c0.622-0.686,0.632-1.734,0.077-2.483c-0.491-0.662-1.539-1.189-2.38-0.848c-1.481,0.531-2.991,2.541-3.854,5.073
		c-0.242,0.711-0.385,1.379-0.488,1.538c-0.211,0.321-0.195,0.314-0.39,0.188c-0.172-0.108-0.488-1.658-0.488-2.249
		c0-0.447,0.386-1.632,0.898-2.647C98.11,191.89,101.718,189.889,104.299,192.237L104.299,192.237z M59.262,191.486
		c2.151,0.129,3.853,3.176,2.917,5.3c-0.289,0.39-0.706,0.656-0.901,0.41c-0.07-0.088-0.401-1.084-0.858-2.142
		c-0.458-1.056-0.88-2.089-1.01-2.345C59.068,191.976,58.821,191.478,59.262,191.486z M44.649,193.256
		c2.45,4.342,4.499,9.321,6.199,14.182c1.324,3.788,2.409,7.503,3.033,10.788c0.06,0.331,0.141,0.506,0,0.651
		c-0.24,0.239-1.41-0.359-1.41-0.359c-2.049-7.066-3.704-14.149-8.583-23.144c0,0-0.211-0.357-0.268-0.59
		c-0.066-0.564,0.099-1.278,0.442-1.675c0.137-0.149,0.325-0.159,0.591,0.147H44.649z M17.156,201.458
		c11.587,0.778,20.55,5.665,25.337,18.569c-1.701-0.96-10.329-7.585-25.205-8.463l-0.025-1.789
		c10.665-0.088,21.068,5.467,20.851,5.384c-3.967-8.184-13.936-11.5-20.989-11.717L17.156,201.458z M97.543,204.066
		c-0.731,1.146-0.698,1.099-1.049,2.087c0.04,0.321,0.099,2.322,0.147,3.49c0.062,1.487,0.103,2.136,0.221,2.277
		c0.198,0.239,0.601,0.276,0.777,0.061c0.071-0.084,0.19-0.406,0.272-0.711c0.956-3.617,1.406-4.969,1.791-5.418
		c0.254-0.327,0.34-0.298,1.389-0.178c2.362,0.21,3.165-2.606,1.621-3.74C100.647,200.782,98.456,202.71,97.543,204.066z
		 M100.036,204.834c-1.687,1.389-1.737,3.39-2.249,5.234c-0.275,1.24-0.661,1.893-0.816,0.023c-0.287-2.594,0.075-4.532,1.199-6.055
		c0.695-1.121,1.837-1.875,2.864-1.948c2.21-0.155,2.437,1.599,1.822,2.539C102.409,205.312,101.171,205.61,100.036,204.834z
		 M20.22,205.668c0.833,0,1.51,0.676,1.51,1.511c0,0.833-0.676,1.509-1.51,1.509c-0.833,0-1.509-0.676-1.509-1.509
		C18.712,206.344,19.387,205.668,20.22,205.668z M25.03,206.703c0.746,0,1.351,0.602,1.351,1.346c0,0.747-0.605,1.352-1.351,1.352
		c-0.745,0-1.346-0.605-1.346-1.352C23.684,207.304,24.285,206.703,25.03,206.703z M29.415,208.182c0.606,0,1.095,0.492,1.095,1.099
		c0,0.607-0.489,1.099-1.095,1.099c-0.607,0-1.1-0.492-1.1-1.099C28.315,208.674,28.807,208.182,29.415,208.182z M32.525,210.151
		c0.468,0,0.848,0.384,0.848,0.852s-0.38,0.848-0.848,0.848s-0.851-0.38-0.851-0.848S32.057,210.151,32.525,210.151z
		 M21.625,212.863c-0.323,1.636-0.07,3.319,0.306,4.479c0.858,2.5,0.468,6.975,0.468,6.975l-2.515,2.52
		c0.18-2.349,0.459-4.814,0.33-6.787c-0.089-1.309-0.681-2.532-0.835-3.846c-0.142-1.215,0.073-3.648,0.073-3.648L21.625,212.863z
		 M25.701,213.616l0.087,10.673l-8.609,8.349l-0.013-2.204l7.34-7.283l-0.155-9.889L25.701,213.616z M46.931,237.953l-0.566,0.921
		h9.713l0.205-0.921H46.931z M59.502,237.953l-0.228,0.921h4.497l0.149-0.921C63.92,237.953,61.557,237.955,59.502,237.953z
		 M66.87,237.953l-0.143,0.921h16.693l-0.247-0.921H66.87z M86.38,237.953l0.267,0.921h4.446l-0.367-0.921H86.38z M93.813,237.953
		l0.325,0.921h7.643l-0.635-0.921H93.813z"/>
	<path id="path35-67-2-1-9" fill="#D40000" d="M5.217,20.916v2.763h2.684
		c0,0,0.065,2.665,0.088,8.315c0.022,5.487,0.133,8.209-0.217,9.771c-0.94,3.601-6.159,3.621-7.195,1.032
		c-0.603-1.507-0.443-2.678-0.471-4.194h-2.885c0,0,0.017,0.763,0.021,1.698c0.017,4.05,1.358,5.987,4.496,6.75
		c3.226,0.872,6.999-0.458,8.341-3.214c0.798-1.571,0.707-1.679,0.727-11.18c0.012-6.339,0.108-8.977,0.108-8.977h2.471v-2.763
		H5.217L5.217,20.916z"/>
	<path id="path35-6-7-1-4" fill="#D40000" d="M155.75,248.224v-2.763h-2.684
		c0,0-0.065-2.665-0.088-8.316c-0.022-5.486-0.133-8.208,0.217-9.771c0.94-3.601,6.159-3.621,7.195-1.031
		c0.603,1.507,0.442,2.677,0.471,4.193h2.885c0,0-0.017-0.762-0.021-1.697c-0.018-4.05-1.358-5.988-4.497-6.75
		c-3.226-0.872-6.999,0.457-8.34,3.213c-0.799,1.571-0.708,1.679-0.727,11.18c-0.013,6.339-0.109,8.978-0.109,8.978h-2.47v2.763
		H155.75L155.75,248.224z"/>
</g>
</svg>
