<?xml version="1.0" encoding="utf-8"?>
<!-- Generator: Adobe Illustrator 16.0.0, SVG Export Plug-In . SVG Version: 6.00 Build 0)  -->
<!DOCTYPE svg PUBLIC "-//W3C//DTD SVG 1.1//EN" "http://www.w3.org/Graphics/SVG/1.1/DTD/svg11.dtd">
<svg version="1.1" id="Layer_1" xmlns="http://www.w3.org/2000/svg" xmlns:xlink="http://www.w3.org/1999/xlink" x="0px" y="0px"
	 width="181px" height="252px" viewBox="0 0 181 252" enable-background="new 0 0 181 252" xml:space="preserve">
<g id="g6716" transform="matrix(0.99553491,0,0,0.99680337,8.7292473,-8.1397402)">
	<path id="rect6486-8" fill="#FFFFFF" stroke="#000000" stroke-width="1.0006" d="M1.388,9.846h161.498
		c4.718,0,8.542,3.82,8.542,8.531v232.387c0,4.71-3.824,8.531-8.542,8.531H1.388c-4.718,0-8.542-3.821-8.542-8.531V18.377
		C-7.154,13.665-3.33,9.846,1.388,9.846z"/>
	<path id="path6516-8" fill="#D40000" d="M82.137,74.402c-4.149-6.852-8.515-13.511-13.969-19.2
		c5.454-5.689,9.819-12.348,13.969-19.2c4.148,6.852,8.514,13.511,13.969,19.2C90.651,60.891,86.286,67.55,82.137,74.402z"/>
	<path id="path6518-2" fill="#D40000" d="M6.62,65.824c-1.728-2.855-3.547-5.63-5.82-8
		c2.273-2.37,4.092-5.145,5.82-8c1.728,2.855,3.547,5.63,5.82,8C10.167,60.194,8.348,62.969,6.62,65.824z"/>
	<path id="path6522-0" fill="#D40000" d="M157.656,219.316c-1.728-2.855-3.547-5.629-5.821-8
		c2.274-2.369,4.092-5.145,5.821-8c1.728,2.855,3.547,5.631,5.819,8C161.203,213.686,159.385,216.461,157.656,219.316z"/>
	<path id="path6538-6" fill="#D40000" d="M82.137,233.139c-4.149-6.852-8.515-13.512-13.969-19.2
		c5.454-5.69,9.819-12.348,13.969-19.2c4.148,6.852,8.514,13.51,13.969,19.2C90.651,219.627,86.286,226.287,82.137,233.139z"/>
	<path id="path15-34-1-4-2" fill="#D40000" d="M-0.895,47.259l0.129-1.628
		C-0.36,40.6,0.72,38.903,6.852,33.652c2.976-2.546,3.952-3.802,4.09-5.259c0.389-3.438-2.651-4.511-4.633-4.526
		c-2.567-0.024-5.472,1.539-4.086,5.17l-2.88,0.862c-0.58-3.387,0.017-6.564,2.711-7.974c3.6-1.839,8.216-1.118,10.547,1.778
		c1.567,1.944,1.925,4.633,1.084,6.737c-2.455,5.377-10.783,7.742-11.47,13.963h9.204V40.94h2.712v6.376L-0.895,47.259
		L-0.895,47.259z"/>
	<path id="path15-5-4-6-4" fill="#D40000" d="M165.168,221.88l-0.129,1.628
		c-0.406,5.032-1.487,6.729-7.618,11.98c-2.976,2.545-3.953,3.801-4.089,5.259c-0.39,3.437,2.65,4.511,4.632,4.526
		c2.566,0.024,5.472-1.54,4.085-5.171l2.882-0.862c0.579,3.388-0.018,6.564-2.713,7.975c-3.6,1.838-8.216,1.117-10.547-1.779
		c-1.566-1.944-1.923-4.632-1.083-6.736c2.454-5.377,10.783-7.742,11.469-13.963h-9.203v3.462h-2.713v-6.376L165.168,221.88
		L165.168,221.88z"/>
</g>
</svg>
