<?xml version="1.0" encoding="utf-8"?>
<!-- Generator: Adobe Illustrator 16.0.0, SVG Export Plug-In . SVG Version: 6.00 Build 0)  -->
<!DOCTYPE svg PUBLIC "-//W3C//DTD SVG 1.1//EN" "http://www.w3.org/Graphics/SVG/1.1/DTD/svg11.dtd">
<svg version="1.1" id="Layer_1" xmlns="http://www.w3.org/2000/svg" xmlns:xlink="http://www.w3.org/1999/xlink" x="0px" y="0px"
	 width="181px" height="252px" viewBox="0 0 181 252" enable-background="new 0 0 181 252" xml:space="preserve">
<g id="g7107" transform="matrix(0.99553491,0,0,0.99680337,10.559869,-8.1397307)">
	<path id="rect7166-7" fill="#FFFFFF" stroke="#000000" stroke-width="1.0006" d="M-0.451,9.846h161.498
		c4.717,0,8.542,3.82,8.542,8.531v232.386c0,4.712-3.825,8.531-8.542,8.531H-0.451c-4.717,0-8.542-3.819-8.542-8.531V18.377
		C-8.993,13.665-5.168,9.846-0.451,9.846z"/>

		<path id="path6307-8" fill="#E2CF00" d="
		M103.367,30.88c0,0,20.282,29.39,27.161,34.606c0.506,0.238,8.986-1.385,8.986-1.385c-4.347-10.433-7.143-21.225-4.322-33.325
		L103.367,30.88z M114.638,77.361c-13.983,3.956-27.94,7.677-43.099,1.228L54.983,94.622c-0.137,0.413,19.999,9.134,20.339,8.114
		c-9.872,26.634,5.519,31.47,15.318,2.172c12.828-1.684,28.216-3.428,40.934-12.279C120.565,85.997,114.626,77.282,114.638,77.361z
		 M30.533,82.102c-5.299-3.26-9.442,3.45-5.561,6.8c-0.456,1.957-0.611,4.871,1.278,6.151c1.736,1.1,4.973-0.041,5.44-0.028
		c0.033,0,0.084,3.523-0.185,3.513c-0.502-0.017-2.397-1.635-3.566-1.986c-3.95-1.187-9.506-1.773-9.408-1.568
		c0.165,0.342-0.984,1.154,3.423,3.929c1.637,1.031,6.811-0.13,10.931,1.173c2.509,0.794,4.764,2.06,6.127,1.403
		c3.594-0.985,4.999-5.691,4.753-5.657c-0.12-0.142-10.868,2.773-9.857,3.283l-0.032-4.086c4.239,0.467,8.064-2.612,3.898-7.891
		C40.877,84.044,36.537,76.676,30.533,82.102L30.533,82.102z M48.193,100.793c-10.425,10.535-31.734,30.306-31.734,30.306
		l0.228,14.756l20.819,18.675c1.649-19.823,12.887-38.326,23.587-47.582C62.075,114.132,50.459,101.78,48.193,100.793z
		 M122.468,104.437c-1.57,12.189-2.998,28.813-23.627,47.291c3.575,6.102,8.125,12.313,14.673,15.277
		c0.465,1.05,18.926-19.149,30.284-28.699l-0.06-12.937L122.468,104.437z M29.496,107.054c-0.043,0.266-0.805,3.467-1.002,3.383
		c0.016,0.174,2.113-0.781,2.35-1.659c0.207-0.77,0.689-1.813,0.72-1.96C31.092,103.521,30.197,105.862,29.496,107.054z
		 M21.773,115.576c-0.749,1.813-1.45,5.146-1.192,7.315c3.693,1.853,4.697-5.856,3.704-6.592
		C23.689,116.046,22.28,115.558,21.773,115.576z M135.832,150.921c-0.342,1.538-0.27,1.995,0.413,2.294
		c1.195,0.525,1.732-0.11,2.693-2.614c0.571-1.489,1.08-3.733,0.62-4.624C137.291,144.394,136.095,149.761,135.832,150.921
		L135.832,150.921z M71.24,163.857c-15.159,2.408-30.327,3.893-42.364,13.306c1.357-0.159,15.946,13.576,16.701,15.508
		C67.873,181.752,89.528,190,89.528,190l16.317-15.764c0.629-0.3-17.747-7.888-21.209-9.166
		C97.151,131.3,77.332,136.375,71.24,163.857L71.24,163.857z M130.908,160.003c-0.991,0.801-1.49,1.526-2.262,2.565l0.779,1.262
		l1.994-2.204L130.908,160.003z M116.629,174.21c2.101-0.95,9.559-4.575,9.879-3.737l-0.158,3.629
		c-1.141-0.374-8.505,0.844-4.246,8.465c-2.683,6.054,3.295,9.177,7.482,5.174c8.775,3.017,7.599-5.783,5.79-7.206
		c1.426-2.222-0.367-6.954-1.26-6.97c0,0,7.657,1.73,6.908,0.364c-0.341-0.625-0.769-1.701-2.47-2.839
		c-1.962-1.313-5.407-0.837-8.196-1.421c-2.981-0.625-4.901-1.695-7.406-1.846C119.17,168.172,115.641,171.499,116.629,174.21
		L116.629,174.21z M31.296,202.777l-10.55,2.827c0,0,3.413,7.939,4.594,15.019c1.444,8.659,0.29,18.073,0.29,18.073l30.621,0.155
		L31.296,202.777z"/>

		<path id="path6309-7" fill="#D40000" d="
		M58.792,238.744c-13.435-19.224-25.884-37.509-42.413-57.664c0,0,0.014-7.789,0.073-15.514l50.777,72.988L58.792,238.744z
		 M85.991,207.705c-0.434-3.65-1.175-8.02-2.241-11.78l9.271-8.762C92.02,194.993,90.485,201,85.991,207.705z M130.3,180.087
		c2.074,2.763-1.427,4.296-2.749,3.067C124.871,180.661,128.797,178.086,130.3,180.087z M38.374,162.689
		c-1.538,0.988,2.764-24.091,14.576-37.053C60.134,146.266,47.459,157.832,38.374,162.689z M96.645,162.595l-7.845-2.122
		l3.693-10.998c0,0,7.578,1.73,6.95,4.013C97.398,160.924,96.645,162.595,96.645,162.595z M60.331,158.369
		c2.124-3.501,3.736-7.361,5.222-11.312l7.858-0.163l-3.948,10.898L60.331,158.369z M107.609,142.935
		c-6.071-12.118,1.081-31.299,14.291-36.578C121.425,118.646,117.621,131.094,107.609,142.935z M66.804,139.492
		c0.267-4.304-0.225-8.815-0.819-12.813c8.374,1.934,17.502,3.229,27.613,3.69l0.964,11.602
		C85.583,140.323,76.447,139.143,66.804,139.492z M86.86,121.813c0.893-3.597,2.038-7.119,3.6-10.516l9.568-0.447
		c-0.05-0.187-4.083,6.382-5.049,11.123C93.456,121.812,86.86,121.813,86.86,121.813L86.86,121.813z M68.721,118.944
		c-2.793-0.988-6.612-1.264-8.096-3.429l2.905-9.227l8.603,2.645L68.721,118.944z M92.864,30.901l6.742-0.065
		c0,0,32.396,41.554,44.538,57.724c-0.405,1.646,0.135,15.595,0.135,15.595C127.081,79.893,92.864,30.901,92.864,30.901z
		 M30.74,88.879c-1.811-1.95,1.069-3.677,2.268-1.935C34.063,88.479,31.696,89.908,30.74,88.879z M67.09,82.067
		c0.104-9.629,6.916-21.058,6.845-20.766c-0.078-0.019,0.971,9.414,2.28,12.382C75.862,74.206,67.412,82.67,67.09,82.067z"/>

		<path id="path6311-0" fill="#131F67" d="
		M14.991,29.308v210.525h130.615V29.308H14.991z M134.618,30.907c-1.062,11.657-1.248,20.672,4.786,32.762
		c-1.09,1.145-9.3,1.471-11.888,2.826c-0.047,0.326,0.665,0.89,0.665,0.89c2.706-1.259,13.261-2.408,13.261-2.408
		c-4.42-7.724-8.056-22.676-5.32-34.07h7.922v56.256c0,0,0.094,10.693,0.32,16.798c-4.056-5.255-9.282-12.452-12.793-17.901
		c-4.262-6.009-9.006-13.059-13.878-19.673c-1.436-2.084-3.483-4.788-5.155-7.222c-2.623-3.759-4.793-6.677-7.513-10.724
		c-2.906-4.19-5.691-7.993-9.144-12.859c-2.927-4.141-3.064-4.674-3.064-4.674H134.618z M84.586,30.907
		c4.938,8.604,13.778,11.613,16.002,12.194l1.293,1.894C91.46,42.947,85.878,36.24,83.258,32.092
		c-0.204-0.322-0.181-1.185-0.181-1.185H84.586z M79.698,30.907c-1.365,3.249-3.277,5.212-5.09,7.179l0.063-2.089
		c0.056,0.13,2.713-2.921,3.628-5.09H79.698z M82.09,30.907c0,0,0.04,0.651-0.126,1.108c-1.047,3.387-7.544,9.817-7.357,8.854
		l-0.067-1.659c-0.028,0.072,4.881-4.783,6.167-8.303H82.09z M77.365,30.907c-0.506,0.945-2.395,3.898-2.566,3.108l0.168-3.108
		H77.365z M92.209,30.907c0.819,1.188,1.563,2.153,2.424,3.368c0.16,0.232,0.257,0.506,0.216,0.61
		c-0.13,0.337-0.519,0.086-1.595-0.869c-1.764-1.568-2.964-3.11-2.964-3.11H92.209z M85.638,30.907h1.596
		c3.305,5.503,9.235,8.531,11.288,9.172c0.547,0.604,1.138,1.712,1.367,1.956C94.354,40.533,88.153,35.745,85.638,30.907z
		 M89.519,30.907c1.76,2.546,4.518,4.405,6.072,5.623c0.836,0.656,1.938,1.998,1.835,2.263c-3.46-1.096-7.506-5.038-9.363-7.887
		H89.519z M82.735,32.556l0.961,1.535c-2.33,3.851-5.252,7.321-9.149,10.057l-0.021-2.012C78.949,38.943,80.86,35.735,82.735,32.556
		L82.735,32.556z M84.295,34.781c2.778,3.751,8.765,9.558,18.366,11.292c0,0,0.545,0.494,1.341,1.58
		c1.009,1.376,1.025,1.431,1.158,3.689c0.088,4.13,1.428,9.736,2.757,13.263c-0.165,0.877-0.319,1.324-1.968,3.556
		c-6.872,9.305-21.514,18.107-28.727,6.094c-2.405-3.848-2.64-11.226-2.792-15.828c0,0,0.045-0.323,0.063-0.41
		c0.174-0.836,0.412-0.704,1.714-0.346c1.32,0.567,2.695,0.109,4.092-0.272c1.591-0.644,1.723-0.147,0.189,1.288
		c-0.531,0.496-1.18,1.255-1.111,1.218c0.068-0.036,0.96-0.402,1.355-0.702c1.226-0.936,1.516-0.577,1.061,0.453
		c-1.928,4.366-2.269,4.541,0.441,5.754c0.565,0.253,0.951,0.536,1.268,0.813c1.853,1.748,1.187,0.806,0.669,0.003
		c-0.798-1.256-0.077-1.92,1.269-1.142c0.9,0.52,2.082,0.94,2.724,0.741c1.247-0.407,1.627-1.776,1.258-3.284
		c-0.296-0.833-2-2.305-1.608-0.764c1.024-0.047,1.909,1.41,1.019,2.395c-0.672,0.908-1.87,0.417-3.707-0.8
		c-1.015-0.764-2.248-0.373-2.2,0.567c0.032,0.632-0.86,0.487-1.439-0.318c-0.323-0.447-0.104-1.733,0.5-2.953
		c3.809-7.676,0.598-15.119-5.997-13.02c-0.726,0.23-1.379,0.417-1.379,0.417l-0.036-2.936
		C78.363,42.481,82.38,38.262,84.295,34.781L84.295,34.781z M88.145,48.561c-0.994,1.203-0.642,2.275,1.542,1.196
		c1.777-0.879,2.025-0.983,3.962-1.052c2.751-0.1,5.219,0.777,8.273,2.655c2.025,1.245,2.32,1.339,1.77,0.559
		C102.057,48.783,92.391,44.019,88.145,48.561z M78.807,48.921c1.908,0.482,3.74,1.746,3.422,2.269
		c-0.116,0.188-0.226,0.224-0.469,0.097c-1.397-0.692-3.623-1.822-6.84-0.443c-0.354,0.153-0.552-0.083-0.55-0.512
		c0-0.832,1.401-1.497,2.878-1.551C77.772,48.781,78.345,48.807,78.807,48.921z M89.894,51.354
		c-1.138,0.593-1.528,0.908-2.012,0.643c-1.155-0.632-0.91-0.136-0.194,1.138c0.506,0.898,0.502,1.084,0.427,1.634
		c-0.081,0.599-0.07,0.622,0.511,1.262c1.086,1.43,2.166,2.811,3.792,3.895c0.506,0.339,1.184,0.724,1.235,0.725
		c0.162,0.005,0.1-0.124-0.189-0.408c-2.083-2.007-3.725-3.807-1.605-3.043c2.469,0.807,4.817-0.198,6.743-0.854
		c0.785-0.243,1.609-0.448,1.814-0.448c1.778,0.002,2.198-0.74,1.061-1.871C97.631,49.703,94.439,48.686,89.894,51.354z
		 M99.022,52.164c0.795,0.736,1.214,1.135,1.134,1.327c-0.084,0.206-0.696-0.142-1.723-0.691c-2.064-1.103-4.404-1.363-7.329-0.516
		c-2.27,0.656-1.6-0.386,0.93-1.367C94.059,49.982,96.854,50.262,99.022,52.164L99.022,52.164z M77.825,50.674
		c1.734-0.027,3.54,0.543,4.748,1.587c0.843,0.728,0.227,0.897-1.143,0.33c-2.071-0.859-3.816-0.995-5.515-0.198
		c-0.534,0.25-1.149,0.548-1.317,0.532c-0.283-0.193-0.405-0.753-0.158-1.15C75.122,51.104,76.476,50.697,77.825,50.674z
		 M106.404,51.271c0.128,0.006,0.319,0.209,0.604,0.609c0.519,0.731,0.539,1.091,0.109,2.369c-0.526,1.561-0.736,1.307-0.868-0.87
		C106.163,51.967,106.161,51.261,106.404,51.271z M108.123,53.624c0.198-0.028,0.429,0.321,0.798,1.044
		c0.257,0.505,0.196,0.655-0.608,3.016c-0.337,0.989-0.654,1.776-0.663,1.782c-0.247,0.196-0.215,0.178-0.321,0.043
		c-0.574-0.735-0.533-2.168-0.038-3.886C107.665,54.322,107.869,53.66,108.123,53.624L108.123,53.624z M92.5,53.802
		c0.062-0.005,0.446,0.078,0.446,0.078c-0.039,3.498,2.658,2.794,3.015,0.311c0,0,0.666-0.07,0.768,0.096
		c0.32,0.52-0.423,2.017-1.533,2.507c-0.81,0.362-1.913,0.274-2.57-0.333c-0.184-0.343-0.742-1.642-0.638-2.181
		C92.118,53.965,92.312,53.819,92.5,53.802L92.5,53.802z M90.892,54.211c0.027-0.001,0.053-0.001,0.081,0
		c0.265,0.014,0.457,0.085,0.562,0.407l0.578,1.777c-0.425,0.509-2.041-0.523-2.038-1.298
		C90.075,54.562,90.478,54.232,90.892,54.211L90.892,54.211z M79.921,54.208c0.407-0.04,0.551,0.006,0.598,0.387
		c0.138,1.155-1.014,2.409-2.508,2.478c-1.445,0.162-2.226-0.962-2.182-2.058c0-0.834,0.719-0.938,0.798-0.279
		c0.229,1.903,1.85,2.011,2.591,0.961C79.499,55.285,79.434,54.271,79.921,54.208z M97.674,54.595
		c0.115-0.005,0.269,0.038,0.495,0.117c1.491,0.477,1.531,0.707,0.256,1.168c-1.521,0.55-1.621,0.622-1.263-0.442
		C97.362,54.844,97.421,54.605,97.674,54.595z M81.866,54.763c1.106,0.069,1.199,1.006,0.227,1.32
		c-1.448,0.64-1.936,0.599-1.375-0.347C81.022,55.066,81.294,54.775,81.866,54.763z M74.951,55.1c0.132-0.001,0.283,0.05,0.445,0.17
		c0.166,0.504,0.448,0.89,0.67,1.41c-0.227,0.225-0.769,0.222-1.113-0.052c-0.693-0.551-0.574-1.522,0-1.528H74.951z
		 M109.707,56.183c0.43,0.002,0.866,0.684,1.008,1.192c-1.5,1.931-1.264,5.538-1.613,6.627c-0.302,0.887-0.399,0.121-1.234-2.174
		c-0.336-0.926,1.361-5.531,1.753-5.633C109.65,56.187,109.679,56.182,109.707,56.183L109.707,56.183z M111.241,58.163
		c0.334,0.191,0.789,0.63,0.868,1.32c0.046,0.401-0.151,0.934-0.279,1.46c-0.303,1.253-0.713,3.619-0.86,5.805
		c-0.062,0.931-0.059,1.767-0.1,1.849c-0.451,0.887-1.403-1.499-1.321-3.398C109.844,63.682,110.008,58.372,111.241,58.163
		L111.241,58.163z M113.359,60.889c0.212,0.295,0.346,0.521,0.412,0.776c0.114,0.442,0.018,0.971-0.241,2.098
		c-0.689,2.986-0.589,6.204-0.139,9.509c0.094,0.695-0.387,0.347-1.115-0.85c-0.404-0.664-0.662-1.574-0.787-2.648
		c-0.254-2.349,0.235-5.533,0.651-8.044C112.324,60.616,112.453,59.637,113.359,60.889L113.359,60.889z M114.502,62.706l1.205,1.456
		c0,0-0.514,3.348-0.511,5.133c-0.084,0.669,0.598,7.942,0.821,8.53c-0.741-0.831-1.086-1.32-1.898-2.364
		c-0.092,0.015-0.795-7.166-0.31-9.913C114.103,63.886,114.502,62.706,114.502,62.706L114.502,62.706z M116.392,65.598
		c0.202-0.007,0.459,0.221,0.783,0.676c0.291,0.41,0.434,0.748,0.449,1.258c0.011,0.372-0.173,0.66-0.179,1.324
		c-0.034,3.957,0.499,7.691,1.17,11.291c0.236,1.287-0.224,0.762-0.986-0.053c-0.698-0.747-0.711-1.03-1.084-2.091
		c-0.075-0.212-0.818-7.507-0.811-8.059c0.026-2.267,0.09-3.53,0.351-4.074C116.172,65.692,116.271,65.603,116.392,65.598z
		 M112.014,73.548c0,0-1.402,0.723-1.77,0.469c-0.592-1.618-2.728-5.953-2.765-6.72c0.037-0.253,0.876-1.392,0.876-1.392
		C109.536,68.472,110.598,71.099,112.014,73.548z M85.623,68.343c-0.423,0.498-0.927,0.29-1.946-0.159
		c-0.523-0.161-0.442,0.055-1.306,0.505c-0.67,0.349-0.905,0.358-1.349,0.355c-0.586-0.006-0.796-0.211-0.798,0.202
		c0,0.228-0.035,1.259-0.174,1.793c-0.188,0.726-0.352,1.045-0.249,1.172c0.297,0.273,0.548,0.107,1.175-0.502
		c1.042-1.008,1.743-0.719,2.904-0.344c1.319,0.426,1.592,0.584,2.799,0.161c1.709-0.599,2.738-0.6,3.419-0.165
		c1.172,0.748,1.526,0.704,1.044-1.343c-0.156-0.659-0.167-1.683-0.263-1.86c-0.109-0.201-0.407,0.372-0.719,0.583
		c-0.596,0.402-0.905,0.395-2.25-0.047C87.113,68.431,86.221,67.575,85.623,68.343z M107.257,68.611
		c0.521,1.23,2.593,5.338,2.529,5.797c-0.403,0.363-0.944,0.629-1.263,0.304c-1.036-1.895-1.347-2.917-2.188-5.042
		C106.083,69.16,106.834,67.865,107.257,68.611L107.257,68.611z M118.384,68.46c0.147-0.021,0.453,0.285,0.681,0.591
		c0.71,0.951,0.752,1.069,0.775,2.089c0.081,3.696,0.545,8.048,1.584,11.404c0.204,0.66,0.592,1.463,0.549,1.572
		c-0.348,0.508-1.964-0.854-2.451-2.928c-0.673-2.632-1.066-5.38-1.28-7.167C117.971,70.874,117.972,68.623,118.384,68.46
		L118.384,68.46z M105.954,70.498c0.597,1.154,1.349,3.145,1.855,4.339c0.231,0.518-0.95,0.928-1.22,0.751
		c-0.472-0.354-0.695-1.346-1.004-1.942c-0.985-2.159-1.162-2.204-0.616-2.876C105.304,70.303,105.706,69.73,105.954,70.498z
		 M120.722,71.822c0.087,0,0.199,0.085,0.341,0.268c0.622,0.738,1.046,1.301,1.209,1.848c0.118,0.397,0.023,0.695,0.065,1.414
		c0.112,1.883,0.605,4.454,2.003,9.715c0.136,0.512,0.321,1.12,0.298,1.285c-0.135,0.965-1.548-0.601-1.96-2.218
		c-0.477-1.835-1.347-4.179-1.604-6.347C120.547,74.345,120.254,71.822,120.722,71.822L120.722,71.822z M104.709,73.213
		c1.175,2.749,1.268,2.744,0.529,2.962c-0.782,0.23-0.829,0.155-1.748-1.717c-0.67-1.366-0.803-1.537-0.239-2.029
		C104.111,71.411,104.338,72.38,104.709,73.213z M88.343,72.558c-0.133,0.002-0.528,0.302-0.923,0.458
		c-0.971,0.385-2.695,0.411-3.745,0.094c-1.863-0.748-1.338,0.224,0.309,0.816c1.279,0.431,3.81,0.097,4.202-0.701
		C88.428,72.969,88.516,72.554,88.343,72.558z M102.501,74.003c1.049,1.625,1.364,2.275,1.187,2.401
		c-0.168,0.168-0.999,0.482-1.34,0.314c-0.429-0.211-0.801-1.214-0.99-2.002C101.49,74.333,102.179,73.644,102.501,74.003z
		 M76.225,74.688c0.469,0.002,1.687,1.645,1.44,1.942c-0.069,0.152-0.526,0.007-1.593-0.29c-0.357-0.131-1.163-0.237-0.908-0.755
		C75.291,75.349,76.037,74.687,76.225,74.688z M101.376,76.94c-0.105,0.281-0.896,0.347-1.232,0.326
		c-0.288-0.603-0.365-0.891-0.445-1.289c0.11-0.239,0.651-0.859,0.918-0.738C100.778,75.382,101.295,76.643,101.376,76.94z
		 M123.201,75.356c0.167,0.006,0.456,0.3,0.887,0.916c0.813,1.165,0.703,1.081,1.286,3.863c0.662,3.157,1.454,5.404,2.254,8.628
		c0.011,0.535-0.205,0.393-0.798,0.03c-0.968-0.591-1.287-1.247-1.591-2.959c-0.521-2.825-1.62-5.44-2.041-8.778
		c-0.223-1.104-0.24-1.71,0-1.701H123.201z M98.804,76.483c0.571-0.02,0.494,0.863,0.331,1.006c-0.418,0.364-1.57,0.256-1.767,0.276
		C96.926,77.071,98.431,76.507,98.804,76.483z M126.106,79.487c0.169,0.023,0.62,0.661,1.465,1.852
		c0.811,1.143,0.634,0.956,1.119,2.838c0.687,2.6,1.825,4.475,2.491,6.869c0,0.273-0.332,0.238-0.647,0.109
		c-0.615-0.259-1.164-0.695-1.684-1.122c-0.357-0.386-0.354-0.876-1.407-4.505c-0.379-1.309-0.478-1.649-0.952-3.638
		C126.093,80.227,125.915,79.461,126.106,79.487L126.106,79.487z M38.124,87.255c2.759,5.09,1.737,7.347-4.197,8.052
		c-0.429-0.061-0.024,2.608-0.036,3.8c2.974-1.706,6.569-2.103,9.884-3.174c-0.902,2.896-2.487,6.179-7.283,5.673
		c-5.015-3.884-10.916-1.551-14.92-3.127c-2.179-0.814-3.01-3.239-3.036-3.655c2.612,0.263,5.561,0.824,8.092,0.64
		c-2.764-2.135-1.956-5.09-1.567-6.44c-3.235-4.089-0.535-8.689,4.164-7.62c0.487,0.111,1.445,0.584,1.445,0.584
		C35.202,77.921,40.455,81.742,38.124,87.255L38.124,87.255z M129.827,84.778c0.188-0.018,0.602,0.473,1.433,1.639
		c2.465,3.456,4.599,6.672,4.566,6.853c-0.106,0.596-2.674-0.448-3.322-1.301c-0.739-0.971-2.815-5.972-2.812-6.768
		C129.692,84.937,129.73,84.788,129.827,84.778z M29.453,99.584c1.281,0.189,1.64,0.298,1.626,0.799
		c0.11,0.427-3.112,0.484-3.548,0.168c-0.348-0.253,0.101-0.807,0.445-0.94C28.476,99.46,28.971,99.513,29.453,99.584L29.453,99.584
		z M118.24,100.042c-17.994,8.519-25.356,31.181-16.273,48.547l-1.251,0.905c-8.905-18.361-2.281-38.036,12.188-47.973
		c0.586-0.417,1.881-0.74,2.484-1.139c0,0-5.901,1.349-7.901,2.133c-0.404-0.014-1.595,0.408-2.874,1.798
		c-1.118,1.038-4.614,5.87-4.504,6.039l-9.29,0.375l0.008,0.344l9.118-0.212c-9.389,15.498-7.082,30.244-1.285,40.564l0.143,0.096
		c0.337,0.227,1.224-0.423,3.064-2.171c0.757-0.719,1.713-1.613,2.122-1.987c1.137-1.044,2.756-2.847,3.87-4.148
		c-6.313-12.899-0.085-29.889,14.689-37.545c0.025-0.408-0.158-1.653-0.158-1.653s-0.558-0.503-0.888-0.451
		c-16.46,7.268-23.054,25.317-16.362,41.73l-1.105,1.205c-8.409-16.997,0.618-38.241,16.356-44.26
		c-0.008-0.384-0.348-0.874-0.771-0.579c-16.992,7.908-24.396,28.103-16.073,45.315l-1.049,0.929
		c-9.469-18.847,0.508-39.966,16.149-47.183C119.112,100.614,118.24,100.042,118.24,100.042L118.24,100.042z M26.655,100.217
		c0,0-0.12,1.003,0.234,1.346c0.163,0.716-0.097,0.639-0.705,0.493c-1.496-0.357-0.329,0.496,0.896,1.184
		c1.205,0.679,1.044,0.655-0.009,1.325c-0.706,0.449-0.633,0.618-0.539,0.959c0.141,0.506,0.237,0.169,0.531-0.101
		c0.616-0.567,1.107-0.709,1.654-0.707c0.821,0.004,0.905,0.662,0.759,1.177c-0.327,1.08-1.434,1.022-2.343,0.753
		c-1.486-0.439-3.914-3.023-3.876-4.545C23.153,100.739,25.014,100.155,26.655,100.217z M33.338,100.551
		c0.576,0.213,1.301,0.496,2.099,0.831c1.102,0.351,2.218,0.922,2.938,1.403c2.192,1.466,2.059,4.396,1.9,4.687l-11.327,10.761
		c0,0-0.64-0.313-1.242-0.621c-1.904-0.974-2.362-1.487-1.306-2.027c0.513-0.262,0.679-0.824,0.751-1.375
		c0.098-0.737,0.061-0.611,0.5-0.947c0.765-0.584,0.801-0.826,0.805-1.798c0-0.643,0.069-0.94,0.302-1.343
		c0.185-0.32,0.381-0.99,0.511-1.759c0.022-0.126,0.027-0.442,0.053-0.554c0.133-0.601,0.324-0.778,0.451-0.914
		c0.127-0.136,0.331-0.601,0.472-1.002c0.317-0.896,0.257-0.763,0.767-0.664c0.742,0.145,0.635,0.578,0.554,1.266
		c-0.039,0.334-0.262,0.568-0.186,0.494c0.102-0.101,0.557-0.316,0.65-0.338c0.237-0.054,0.474,0.027,0.535,0.4
		c0.033,0.208-0.056,0.59-0.05,0.886c0.015,0.765,0.046,1.683,0.221,2.287c0.841,2.91,0.674,2.507,0.387,0.085
		c-0.069-0.579-0.149-1.43-0.066-2.14c0.059-0.499,0.201-1.118,0.395-1.456c0.497-0.868,0.524-1.039-0.554-1.468
		c-0.4-0.159-1.083-0.437-1.224-0.714c-0.173-0.339-0.686-0.801-1.356-0.959c-1.626-0.383-2.574-1.959-2.339-2.194
		c0.153-0.154,0.809,0.047,1.223,0.062c1.486,0.053,1.802-0.024,2.459-0.59c0.351-0.302,0.508-0.57,0.787-0.59
		C32.746,100.254,33.121,100.473,33.338,100.551L33.338,100.551z M110.437,102.293c-15.217,12.342-17.884,32.305-10.293,47.711
		l-1.313,1.035c-9.54-18.07-3.132-37.563,8.588-48.223L110.437,102.293z M22.586,103.765c0.269-0.024,0.562,0.37,1.631,1.515
		c0.719,0.771,1.468,1.44,1.862,1.665c0.895,0.429,0.698,0.251-0.046,0.959c-0.761,0.876-0.34,1.596-1.251,1.157
		c-2.368-1.114-4.03-4.397-2.491-5.187C22.408,103.814,22.497,103.774,22.586,103.765z M21.409,107.217
		c0.058-0.005,0.121,0.004,0.181,0.019c0.292,0.072,0.646,0.622,1.027,1.006c1.053,1.062,1.541,1.533,2.382,1.906
		c0.827,0.366,0.849,0.456,0.267,1.102c-0.211,0.236-0.337,0.518-0.387,0.676c-0.049,0.158-0.062,0.358-0.239,0.392
		c-0.922,0.177-3.985-1.685-4.106-2.97C20.633,108.147,20.935,107.254,21.409,107.217z M27.9,107.574
		c0.532-0.014,0.844,0.461,0.841,1.23c0,0.534-0.301,0.75-0.91,0.979c-1.301,0.489-2.102-0.445-1.193-1.475
		C27.02,107.875,27.537,107.584,27.9,107.574z M27.106,110.707c0.982,0.004,1.265,0.834,0.546,1.55
		c-0.677,0.672-2.04,0.675-2.037-0.063C25.615,111.616,26.481,110.705,27.106,110.707z M21.021,111.7
		c0.663,0.196,2.28,1.364,2.991,1.501c0.037,0.394-0.436,0.501,0.235,1.241c0.305,0.336,0.331,0.565,0.066,0.706
		c-0.81,0.433-3.62-0.936-3.807-2.344C20.415,112.116,20.643,111.725,21.021,111.7z M24.685,113.387
		c0.966,0.04,2.06,0.07,1.945,0.532c-0.084,0.335-0.43,1.222-0.872,1.056c-0.215-0.08-0.424-0.295-0.573-0.439
		C24.669,114.04,24.532,113.38,24.685,113.387z M61.226,117.396c2.814,2.555,13.041,29.241-8.269,48.682l-4.522,1.358
		c20.46-16.104,17.057-38.969,11.535-48.831c0-0.29-0.079-0.257-0.59,0.206c-0.445,0.405-0.492,0.492-0.314,0.566
		c6.24,9.625,8.571,36.811-16.011,49.929c-0.412,0.429,0.423,0.362,0.423,0.362c0.043-0.353,11.069-3.039,10.291-3.106
		c10.276-9.107,19.223-30.823,8.085-49.751C61.585,116.634,61.226,117.396,61.226,117.396L61.226,117.396z M57.676,120.418
		l-0.143,0.603c8.92,17.553,0.405,39.059-16.174,47.02c0.273,0.2,0.576,0.339,0.88,0.482c18.809-10.154,24.231-31.64,16.027-48.284
		L57.676,120.418z M56.185,121.663l-0.104,0.637c7.384,14.939,1.522,35.671-16.1,44.081c-0.168,0.905,0,0.641,0.827,0.598
		c20.39-10.961,22.308-31.808,15.928-45.346L56.185,121.663z M54.919,123.455c-0.576,0.762-1.63,1.158-1.981,2.14
		c5.924,15.694-1.732,30.803-14.694,37.171c-0.01,0.79-0.575,2.745,0.797,2.432c16.013-7.271,22.98-26.599,15.979-41.813
		C55.02,123.384,54.929,123.451,54.919,123.455z M135.348,153.799c0.59,0.041,1.118,0.221,1.665,0.292
		c1.989,0.259,3.279,1.712,2.391,2.596c-0.292,0.29-0.699,0.123-1.992-0.509c-0.593-0.292-0.689-0.564-0.811-1.221
		c-0.147-0.788-0.304-0.866-0.504-0.257c-0.201,0.617-0.418,0.999-1.097,0.845C133.092,155.1,133.812,153.784,135.348,153.799z
		 M114.073,167.162c-4.776-2.718-10.674-7.618-14.046-13.185c-1.676,3.155-3.645,8.892-3.645,8.892l-7.496-2.099l-0.088,0.157
		l7.409,2.14l-0.722,2.479c-0.078,0.268-1.225,3.088-1.225,3.088l11.572,5.414c-0.717,1.125-1.5,1.854-2.494,2.902
		c-0.562,0.592-0.578,1.358-0.578,1.358l16.046-15.342c0,0,2.07,3.076,2.84,3.774c0.722,0.654,0.946,0.813,0.103,1.009
		c-3.769,0.555-6.696,3.415-5.676,7.254c0.165,0.427,0.497,0.27,1.212-0.18c2.503-2.273,8.621-4.377,8.83-3.842l0.024,2.443
		c-6.586,0.096-5.911,4.951-5.43,7.555c0,0.055-1.904,1.724-1.904,1.724c0.673,0.354,1.333,0.72,1.955,1.157
		c-0.579,3.239,2.174,7.932,7.58,5.529c0.468,0.48,0.909,0.964,1.424,1.568c0.553-0.643,1.192-2.155,1.192-2.155
		c2.685,1.219,8.258-1.509,5.407-7.754l1.571-1.503l-1.51-0.954c-0.039-1.587-0.284-3.006-1.23-4.389c0,0,2.536,0.647,4.412,0.756
		l0,0c1.158,0.106,2.135,0.135,2.037-0.568c-0.028-0.206-0.201-1.217-0.315-1.548c-0.559-1.636-3.462-2.837-6.281-2.996
		c-0.46-0.025-0.954-0.012-1.054-0.131c-0.183-0.223,0.146-0.543,0.449-0.49c1.544,0.268,3.028-0.874,3.296-2.33
		c0.053-0.255,0.369-0.723,0.821-1.219c0.803-0.882,0.867-0.858,0.851-2.132c-0.01-0.886,0.144-1.082,0.551-1.673
		c0.525-0.844,0.769-1.948,0.504-3.088c-0.083-0.362-0.425-0.874-0.133-1.773c0.473-1.466-0.567-2.806-1.93-3.57
		c-0.11-0.031-0.077,0.076-0.167,0.184c-1.238,0.386-2.745-0.502-2.745-0.502c-0.31-0.153,1.054-8.102,3.881-7.391
		c0.471,0.286,0.669,1.665,0.634,1.691c0.13-0.004,0.2-0.813,0.018-1.354c-0.191-0.566-0.63-1.105-1.473-0.946
		c-0.654,0.123-1.409,0.993-1.75,1.43c-1.321,1.687-1.336,2.765-1.777,4.559c-0.212,0.848-0.235,0.799-1.407-0.12
		c-0.84-0.658-1.248-0.868-0.955-1.254c0.131-0.174,0.677-0.723,0.677-0.723l10.706-9.871v99.191H85.701l0.405-13.036
		c1.086-8.933-0.825-27.692-2.27-29.457c1.115-1.254,4.574-4.281,4.384-4.418l-0.459-0.272l-1.828,1.687l-4.517-1.372
		c-1.928-1.334-3.893-2.567-5.934-3.092c-3.33-0.858-9.746,1.873-9.751,1.901c-10.249,0.762-18.455,4.934-18.341,4.902
		c-0.446-0.411-1.037-1.722-1.053-1.714c-5.283-7.371-10.476-11.499-17.572-16.536l8.986-4.977l-21.296-22.306l-0.187-18.113
		l30.85-29.566c0.182-0.511,9.843,6.839,13.44,12.821c0.69-2.924,1.975-5.579,3.045-8.45c0.112-0.263,6.138,2.233,7.925,2.339
		c0.267,0.016,0.483-0.266,0.483-0.266l-7.952-2.592l1.626-4.67c0,0,0.567-1.269-0.073-1.479c-3.625-1.176-7.027-3.248-10.494-5.013
		c0,0,1.62-1.805,1.643-1.884c0.024-0.075,0.68-1.044,0.524-1.377c-1.764,1.715-16.158,15.096-16.158,15.096
		c-0.409-2.296-1.053-3.099-2.452-4.516c0.763-0.036,1.956-0.792,2.646-1.295c2.11-1.541,3.258-4.29,2.982-5.896
		c-2.026,0.646-3.854,1.403-6.39,1.864c-1.425,0.26-2.777,0.905-3.597,1.597l-0.126-2.563c0.008,0.029,3.412,0.6,4.99-1.693
		c1.361-1.976,0.802-4.237,0.49-5.39c0.035-0.256-0.041-0.227,0.546-0.768c0.433-0.4,1.107-0.917,1.107-0.917
		c0.028-0.145-1.76-0.809-2.062-1.417c0.476-4.75-3.309-6.583-6.513-5.739c-0.599,0.181-0.885,0.294-1.596-0.502
		c-0.107-0.119-0.961-1.023-0.961-1.023s-0.377,0.872-0.57,1.254c-0.629,1.241-0.801,0.868-2.155,0.935
		c-3.432,0.169-4.964,2.946-4.176,6.356c0.185,0.799,0.102,0.676-0.422,1.688c-0.268,0.517-0.705,1.177-0.705,1.177
		s0.63,0.35,1.054,0.54c0.629,0.281,0.661,0.611,0.659,1.238c0.087,1.384,0.39,2.31,1.184,3.499c-2.689,0.062-4.751-0.19-7.184-1
		c0.372,3.752,3.131,5.149,6.511,5.699c0,0-0.354,0.332-0.727,0.48c-0.791,0.23-1.286,0.926-1.278,1.549
		c-0.114,0.596-0.498,1.193-0.852,1.512c-0.527,0.457-0.958,1.1-0.751,2.344c-0.053,0.901-0.27,1.162-0.535,1.507
		c-0.53,0.691-0.709,1.377-0.577,2.287c0.061,0.422,0.192,1.327,0.104,2.263c-0.145,1.56,0.412,2.145,1.12,3.243
		c0.458,0.711,0.361,0.73,0.255,1.246c-0.254,1.239-0.519,1.876-0.794,2.819c-0.615,2.109-0.639,3.708-0.136,4.12
		c0.758,0.62,1.617,0.433,2.015,0.31c2.99-0.925,2.472-3.868,2.63-5.843c0.085-0.507,0.258-0.751,0.426-0.728
		c0.846,0.991,1.739,1.566,2.89,2.191c-3.979,4.059-6.526,6.543-11.556,10.972V30.907h57.467c0,0,0.06,0.829-0.077,4.407
		c-0.248,7.271-0.553,14.888-0.077,22.302c0.08,2.566,0.027,5.099,0.395,7.638c0.358,2.473,0.517,5.139,1.669,7.443
		c0.464,1.249,0.479,1.152-1.286,2.788c-0.866,0.801-1.602,1.656-1.57,1.807c0.011,0.05-0.037,0.238,0.095,0.131
		c0.088-0.071,0.728-0.705,0.798-0.79c0.478-0.564,1.278,0.161,4.008,0.933c0.536,0.151,1.29,0.656,1.867,1.076
		c4.081,3.447,9.821,2.372,14.114,0.492c1.218-0.533,1.517-0.589,3.475-0.821c7.248-0.861,14.994-4.036,14.977-4.027l0.947,1.554
		c0,0,0.356-0.066,0.609,0.325c4.17,7.893,17.782,16.913,17.539,16.496l-8.897,4.938c6.478,8.023,21.375,21.635,21.375,21.635
		v19.562c-3.977,3.19-7.901,6.844-11.397,10.412c-1.005,0.999-1.716,1.568-1.334,1.587c0.908-0.139,1.692,0.758,2.431,1.381
		c0.468,0.523,0.355,0.474-0.185,1.189c-0.379,0.502-0.518,0.647-0.519,1.009c0.014,0.701,0.008,1.174-0.615,1.699
		c-0.387,0.488-0.608,0.799-0.678,1.377c-0.07,0.576-0.065,0.944-0.461,1.456c-0.669,0.143-0.733,1.121-0.615,1.558
		c0.701,0.698,0.382,1.452,0.446,1.295c-1.34,1.458-2.747,2.722-1.849,0.682c0.405-0.758,0.546-1.387,0.546-1.387
		s-0.645,0.67-0.983,0.986c-0.517,0.48-0.706,0.198-0.721-1.291c-0.067-1.127-0.541-2.698-0.729-2.998
		c-0.105-0.169-0.123,0.121-0.074,1.207c0.066,1.426,0.234,1.84-0.266,3.266c-0.677,1.924-1.159,2.197-0.06,2.13
		c1.042-0.063,1.923-0.074,2.378,0.549c0.154,0.21,0.352,0.57,0.772,0.782c0.857,0.47,1.539,0.991,2.015,1.511
		c1.541,1.679,1.099,3.18-1.879,2.161c-1.569-0.535-0.542-1.211,1.145-1.054c1.035,0.098,1.21-0.286,0.313-0.562
		c-1.667-0.308-1.934-0.496-3.034,0.813c-4.617-0.457-7.209-3.045-8.455-5.151c-0.521-0.882-0.681-1.05-0.318-1.55
		c0.143-0.196,0.056-0.137-0.19,0.135c-0.245,0.272-0.916,0.502-1.138,0.698C117.041,164.233,115.468,165.901,114.073,167.162
		L114.073,167.162z M134.166,156.298c0.784,0.098,0.768,0.756,0.069,1.391c-0.657,0.5-1.107,0.596-1.478,0.221
		C132.107,157.254,132.945,156.294,134.166,156.298z M136.448,156.756c0.632-0.004,1.437,0.288,2.394,1.085
		c1.142,0.95,1.403,3.257,0.354,3.654c-0.439,0.167-0.507,0.004-1.444-0.888c-0.632-0.602-1.316-1.146-1.99-1.468
		c-1.377-0.658-1.554-0.905-0.624-1.354c0.196-0.1,0.45-0.337,0.566-0.523C135.943,156.88,136.015,156.756,136.448,156.756z
		 M134.96,159.823c0.183,0.006,0.428,0.118,0.81,0.323c2.321,1.27,3.455,3.262,2.67,4.387c-0.516,0.737-1.354,0.457-1.993-0.59
		c-0.36-0.59-1.316-1.344-2.401-1.895c-1.243-0.631-1.269-0.723-0.372-1.154c0.368-0.176,0.644-0.427,0.825-0.745
		C134.708,159.779,134.725,159.817,134.96,159.823L134.96,159.823z M135.704,164.57c1.753,1.754,1.553,2.702,0.413,3.415
		c-0.777,0.488-2.025,0.609-2.434,0.206c-0.66-0.58-0.643-1.244,0.087-1.456c0.682-0.147,0.426-0.421-0.211-0.582
		c-2.274-0.647-3.671-1.857-1.2-1.595c0.71,0.076,1.396-0.476,1.767-0.919C134.663,162.987,135.387,164.255,135.704,164.57
		L135.704,164.57z M16.126,165.246l51.07,73.088H25.929c1.453-11.625-1.464-24.526-5.322-32.943
		c4.198-0.715,8.199-1.828,12.203-2.933l-0.812-1.058c-4.778,1.914-9.186,2.614-13.335,3.088c5.508,9.399,7.474,22.355,5.822,33.846
		h-7.866v-56.743L16.126,165.246z M25.273,176.123c0.723-0.027,2.523,1.246,2.744,2.204c0.044,0.196,0.513,1.375,1.038,2.471
		c0.011,0.202,1.784,3.414,1.005,3.134c-1.552-2.113-4.322-5.711-5.019-7.462C25.04,176.234,25.071,176.131,25.273,176.123z
		 M30.801,179.336c0.096,0.531,0.634,1.918,1.057,2.833c1.105,2.382,2.814,6.118,2.467,7.182c-0.234,0.717,0.008,0.68-0.62-0.206
		c-0.306-0.433-1.261-1.769-1.491-2.077c-0.56-0.752-0.183-0.063-0.503-1.287c-0.761-3.467-1.992-5.287-2.792-7.311
		C28.634,177.518,30.434,178.952,30.801,179.336z M31.784,179.865c0.149,0.104,2.178,1.534,2.382,1.738
		c0.72,2.564,3.594,10.774,2.85,12.241c-0.259-0.204-1.355-1.528-1.506-2.21c-0.332-3.927-1.574-6.75-2.908-9.674
		C32.227,181.076,31.931,180.194,31.784,179.865z M35.6,182.747c0.642,0.314,1.307,1.034,1.683,1.676
		c0.251,0.435,0.381,0.948,0.617,2.028c0.735,3.349,2.137,6.744,1.507,10.32c-0.393,0.535-1.249-0.678-1.371-1.871
		c-0.405-3.96-0.753-5.855-2.141-10.51C35.625,183.487,35.421,182.779,35.6,182.747z M38.857,185.819
		c0.137,0.006,0.418,0.261,0.887,0.701c0.912,0.858,1.041,1.176,1.046,2.598c0.029,2.093,0.725,4.481,0.833,6.593
		c0.063,1.219,0.285,4.371,0.097,4.558c-0.265,0.366-1.442-0.968-1.352-3.016c0.15-2.463,0.027-4.315-1.018-8.574
		c-0.485-1.967-0.729-2.808-0.519-2.857C38.838,185.821,38.849,185.819,38.857,185.819L38.857,185.819z M133.34,173.385
		c3.657,2.353,2.367,6.695,1.585,7.228c5.049,6.396-2.8,9.671-5.29,7.372c-3.687,3.672-10.015,0.594-7.579-5.46
		c0,0-4.63-8.866,4.503-8.274c0,0,0.157-3.584-0.1-3.746c-3.261-0.219-7.693,2.927-8.947,3.797
		c-0.696,0.421-0.849,0.219-0.849,0.219c-0.175-1.859-0.179-2.71,0.575-3.748c1.315-1.809,3.49-2.42,6.348-3.049
		c3.535,1.091,6.901,2.804,10.177,2.537c1.804,0.01,3.649,0.302,5.397,1.244c1.18,0.556,1.794,2.649,1.794,2.649
		C139.103,175.127,133.34,173.385,133.34,173.385z M131.602,160.236c0.015-0.635,0.73-1.344,1.435-1.262
		c0.967,0.071,1.094,1.219,0.233,1.642c-0.249,0.202-1.052-0.096-1.096,0.127c0.06,0.392-0.335,0.227-0.41,0.086
		C131.631,160.663,131.601,160.426,131.602,160.236z M131.014,162.738c0.356-0.249,0.652-0.27,1.01-0.317
		c0.549-0.067,1.252,0.016,1.407,0.594c0.153,0.564-0.93,0.899-1.807,0.913c-0.445,0.008-0.962,0.096-1.097-0.219
		C130.402,163.414,130.835,162.871,131.014,162.738L131.014,162.738z M20.343,122.297c0.705-2.458,0.265-3.835,1.441-6.864
		l2.862,0.955c0,0,0.121,2.971-0.456,4.627C23.613,122.67,21.715,123.99,20.343,122.297z M41.664,188.781
		c0.338,0.039,1.167,1.225,1.542,2.306c0.343,1.003,0.23,2.277,0.481,3.358c0.561,3.705,0.528,7.416,0.379,8.537
		c-0.075,0.558-0.434,0.331-0.925-0.202c-0.715-0.774-0.617-0.792-0.608-2.943c0.008-1.844-0.401-6.399-0.589-7.326
		c-0.347-1.713-0.492-3.347-0.411-3.627C41.555,188.807,41.601,188.774,41.664,188.781z M75.142,189.224
		c3.686,0.588,6.633,3.112,8.321,7.263c1.629,4.222,2.032,9.985,2.285,15.281c-0.018,1.268-0.54,0.948-1.904,0.161
		c-1.492-0.731-1.81-0.519-3.987-0.02c-1.359,0.312-1.236-0.615,1-2.151c0.761-0.498,1.646-1.162,1.355-1.262
		c-0.147-0.051-0.828,0.133-1.32,0.533c-2.192,1.775-2.788,2.208-2.155,0.48c0.16-0.435,0.667-1.648,0.88-2.228
		c0.795-2.171-0.121-3.1-2.818-4.473c-0.676-0.343-1.119-0.917-0.445,0.284c0.55,0.982-0.589,1.773-1.999,0.625
		c-0.98-0.799-2.951-0.266-3.586,0.729c-0.616,0.966-0.286,2.767,0.928,3.351c1.07,0.462,1.469,0.129,0.435-0.59
		c-1.331-0.925-1.072-2.486,0.423-2.481c0.369,0.002,1.02,0.413,2.668,1.313c1.18,0.639,2.019,0.368,2.021-0.586
		c0-0.639,0.365-0.588,1.141-0.204c1.045,0.519,0.931,0.988,0.379,2.434c-0.372,1.011-0.557,2.159-0.899,3.215
		c-0.88,3.554-0.998,7.581-0.025,8.835c2.588,3.339,5.336,2.984,7.69,0.78l-0.101,3.654c-2.399,1.93-5.203,3.247-9.53,10.402
		c-1.509-1.901-7.985-9.67-18.368-11.423l-2.337-3.206c0.04-0.2-1.746-11.919-2.913-15.91c0,0,1.284-1.955,2.451-3.396
		C59.392,194.877,67.272,188.288,75.142,189.224L75.142,189.224z M61.6,192.551c-0.399,0.127-0.529-0.672-0.312-0.823
		c0.48-0.041,0.65-0.025,1.131,0.01C62.782,191.76,62.774,192.177,61.6,192.551z M44.077,191.954c0.519,0.37,1.152,1.366,1.77,2.275
		c0.343,0.502,0.149,1.336,0.202,2.159c0.075,1.166,0.204,3.088,0.286,4.27c0.16,2.304-0.055,4.232-0.391,4.928
		c-0.343,0.833-1.039,0.257-1.211-0.882c-0.042-0.272,0.185-3.1,0.185-4.652C44.918,197.383,44.237,194.089,44.077,191.954z
		 M59.794,191.936c0.184-0.01,0.324-0.004,0.444,0.153c0.559,0.717,0.786,1.152,0.277,1.546c-0.675,0.564-1.29,0.421-1.665-0.651
		C58.61,192.218,59.179,191.977,59.794,191.936z M57.712,192.569c0.603,0.406,1.201,1.471,1.263,2.24
		c-0.038,0.212-0.224,0.392-0.628,0.719c-0.401,0.368-0.528,0.345-0.976-0.364c-0.701-1.099-1.031-1.822-0.893-2.202
		C56.83,192.594,57.287,192.449,57.712,192.569z M82.258,192.708c1.005,0.086,1.999,0.547,2.978,0.78l-1.493,1.446
		C83.297,194.193,82.792,193.451,82.258,192.708z M55.48,193.464c0.551,0.719,1.514,2.602,1.463,3.302
		c-0.14,0.239-0.359,0.451-0.591,0.584c-0.183,0.051-0.348-0.272-0.971-1.375c-1.082-1.92-1.4-2.461-0.838-2.692
		C54.838,193.251,55.288,193.264,55.48,193.464z M53.297,193.909c0.602,0.537,2.046,3.398,2.088,4.203
		c-0.017,0.225-0.084,0.421-0.218,0.574c-0.908,0.98-0.679,0.821-2.031-1.969c-1.142-2.294-1.443-2.52-0.689-2.778
		C52.616,193.882,53.034,193.805,53.297,193.909L53.297,193.909z M51.126,194.656c0.396-0.006,0.508,0.66,1.281,2.173
		c1.293,2.861,1.778,3.258,1.485,3.564c-0.361,0.457-0.572,0.778-0.914,0.223c-0.781-1.272-1.554-2.894-2.28-4.319
		c-0.582-1.064-0.634-1.191-0.261-1.452C50.653,194.697,50.971,194.658,51.126,194.656L51.126,194.656z M74.214,195.469
		c-0.486,0.137-2.441,0.758-1.244,0.87c0.242,0.022,0.855-0.131,1.287-0.161c1.209-0.084,3.727,0.145,3.636-0.088
		C77.664,195.218,74.873,195.3,74.214,195.469z M49.434,195.737c0,0.047,0.314,0.605,0.626,1.152c1.839,3.56,2.861,4.857,2.534,5.42
		c-0.269,0.339-0.684,0.766-0.929,0.666c-0.395-0.165-0.923-1.328-2.238-3.968c-1.361-2.725-1.502-2.929-0.802-3.284
		C48.911,195.59,49.259,195.492,49.434,195.737L49.434,195.737z M47.598,196.993c0.846,1.375,0.735,1.195,0.725,5.676
		c-0.008,2.788-0.364,4.567-0.829,5.253c-0.244,0.359-0.674,0.147-0.888-0.555c-0.097-0.323,0.18-0.799,0.233-1.309
		c0.329-3.356,0.098-6.709,0.106-9.885C47.201,196.149,47.462,196.768,47.598,196.993z M69.392,198.092
		c0.394,0.562,0.298,1.017,0.294,1.773c-0.008,1.072,0.074,1.15,0.811,0.609c0.654-0.48,0.706-0.509,1.874,0.284
		c0.692,0.47,1.565,0.523,2.13,0.004c0.398-0.366,0.536-0.202,1.069-0.063c0.581,0.323,0.746,0.372,1.991-0.233
		c0.84-0.372,0.874-0.427,1.374-0.163c0.88,0.778,1.009,0.496,0.891-0.519c0-0.355,0.105-1.019,0.209-1.45
		c0.438-1.807-0.271-1.826-1.209-0.674c-0.362,0.445-1.171,0.639-1.936,0.278c-1.095-0.515-2.804-0.306-4.067-0.094
		c-1.495,0.253-2.188-0.161-2.788-0.674c-0.34-0.292-1.118-0.551-1.205-0.327C68.744,197.066,68.921,197.418,69.392,198.092
		L69.392,198.092z M49.345,200.628c0.187-0.041,0.475,0.515,0.895,1.693c0.542,1.519-0.406,6.803-0.976,7.667
		c-0.301,0.455-0.495,0.733-1.115-0.108c-0.246-0.37-0.055-0.488,0.19-1.526c0.372-1.581,0.685-4.138,0.704-5.328
		C49.051,201.482,49.133,200.673,49.345,200.628L49.345,200.628z M51.25,205.752c0.135,0.01,0.292,0.315,0.508,0.917
		c0.304,0.827,0.157,2.422-0.244,3.642c-0.232,0.709-0.452,1.468-0.849,2.104c-0.134,0.357-0.824,0.231-1.014-0.56
		c-0.121-0.5,0.295-1.121,0.495-1.918c0.202-0.799,0.433-1.816,0.546-2.33C50.904,206.357,51.054,205.738,51.25,205.752z
		 M65.999,208.093c-0.018-0.002-0.032,0-0.043,0.004c0-0.004-0.008,0.008-0.012,0.012c-0.031,0.031,1.438,1.636,1.832,2.085
		c0.206,0.176,1.976,2.332,0.875,1.838c-2.777-1.154-6.027-0.588-8.029,1.346c-0.25,0.243-0.458-0.006-1.215-0.063
		c-1.555-0.116-2.12,0.504-1.174,1.27c0.145,0.118,0.447,0.17,0.584,0.361c0.125,0.172,0.087,0.482,0.153,0.57
		c3.006,3.999,8.572,4.777,12.068,2.165c0.439-0.329,0.687-0.445,1.097-0.323c0.812,0.243,0.885-0.439,0.167-1.393
		c-0.314-0.415-0.699-0.895-0.475-1.035c0.443-0.382,0.663-1.007-0.108-1.242c-0.533-0.161-1.129-0.754-1.428-1.583
		C69.941,211.136,66.517,208.164,65.999,208.093L65.999,208.093z M52.355,209.845c0.653-0.016,0.683,3.854-0.039,5.028
		c-0.371,0.445-1.219-0.382-1.092-1.23c0.097-0.645,0.791-3.554,0.949-3.705C52.237,209.876,52.3,209.845,52.355,209.845
		L52.355,209.845z M65.674,212.259c0.548-0.004,1.299,0.241,1.895,0.782c0.324,0.292,0.888,1.558,0.653,2.053
		c-0.066,0.253-0.744,0.237-0.804,0.053c-0.373-2.553-2.438-2.925-3.094-0.541c0,0-0.425,0.362-0.479-0.335
		C63.992,212.917,64.626,212.271,65.674,212.259L65.674,212.259z M82.301,212.48c0.656-0.012,1.282,0.319,1.604,1.021
		c0.224,0.49,0.248,0.903,0.16,1.119c-0.067,0.161-0.288,0.09-0.288,0.09c-1.048-2.882-2.474-1.548-2.99,0.045
		c0,0-0.54,0.167-0.607-0.006c-0.067-0.172-0.026-0.496,0.189-0.944C80.777,212.948,81.557,212.494,82.301,212.48L82.301,212.48z
		 M68.28,212.66c0.372-0.022,1.006,0.282,1.482,0.762c0.483,0.486,0.53,0.778,0.139,1.138c-0.233,0.219-1.066,0.433-1.228,0.055
		l-0.701-1.642C67.906,212.819,68.111,212.668,68.28,212.66L68.28,212.66z M63.23,212.737c0.415,0.002,0.503,0.096-0.15,1.618
		c-0.139,0.325-1.813-0.149-1.494-0.776C62.065,213.08,62.814,212.737,63.23,212.737z M79.997,212.858
		c0.168-0.01,0.303,0.016,0.36,0.092c-0.149,0.055-0.782,1.658-0.782,1.658c-0.597-0.072-1.312,0.014-1.441-0.476
		c-0.122-0.464,0.119-0.745,0.96-1.068C79.349,212.97,79.718,212.87,79.997,212.858z M84.895,213.27
		c0.634,0.231,0.782,0.77,0.701,1.048c-0.062,0.21-0.361,0.212-0.574,0.049c-0.201-0.235-0.499-0.635-0.476-0.903
		C84.613,213.195,84.693,213.191,84.895,213.27z M53.319,214.751c0.194,0.368,0.546,2.451,0.135,2.396
		c-0.399-0.102-0.585-0.731-0.654-1.297C52.785,215.735,53.14,214.765,53.319,214.751z M60.294,215.862
		c0.184-0.025,0.649,0.137,1.34,0.529c2.273,1.101,4.603,1.256,7.077,0.701c1.427-0.37,1.791-0.588,1.992-0.343
		c0.342,0.417-0.198,0.835-2.213,1.513c-2.211,0.745-4.504,0.619-7.519-1.513C60.162,216.176,60.057,215.897,60.294,215.862
		L60.294,215.862z M85.514,216.436c0.375,0.699-0.9,1.364-1.544,1.552c-1.371,0.398-3.449,0.212-4.622-0.496
		c-0.098-0.059-0.192-0.121-0.283-0.188c-0.954-0.713-0.559-1.223,0.503-0.672c1.143,0.59,3.469,0.7,4.702,0.102
		C84.888,216.436,85.313,216.06,85.514,216.436z M57.293,217.741c-0.128,0.029,0.087,0.351,0.53,0.831
		c3.11,3.499,10.527,5.396,14.696,1.791c1.306-1.229,1.107-1.781-0.952-0.799c-2.278,0.752-5.514,0.85-8.313,0.435
		c-1.376-0.186-3.619-0.715-4.757-1.55C57.78,217.923,57.403,217.718,57.293,217.741L57.293,217.741z M78.73,217.847
		c0.189,0.016,0.522,0.086,1.244,0.462c1.054,0.549,3.446,0.361,4.229,0.071c1.651-0.611,1.989,0.165,0.426,1.031
		c-1.742,1.058-4.146,0.645-5.55-0.717c-0.435-0.39-0.67-0.876-0.479-0.915C78.618,217.774,78.703,217.845,78.73,217.847z
		 M58.119,224.035c6.122,0.56,15.363,6.983,18.966,14.3H75.01c-3.62-5.757-9.189-10.724-15.798-12.454
		C58.95,225.679,57.978,224.289,58.119,224.035L58.119,224.035z M85.295,225.375l-0.283,2.022c-1.026,0.843-4.787,3.968-7.577,8.858
		c-0.581-0.027-0.862-0.731-0.765-1.207C78.903,230.634,81.573,228.196,85.295,225.375L85.295,225.375z M60.55,226.958
		c1.405-0.098,10.543,5.155,13.621,11.376h-1.685c-3.462-4.518-7.309-7.8-10.725-8.984C60.932,228.473,60.023,226.995,60.55,226.958
		z M85.012,228.365l-0.016,2.733c-2.186,2.134-3.784,4.612-5.035,7.236h-1.698c0,0-0.377-1.082-0.245-1.55
		C79.947,233.305,81.796,230.769,85.012,228.365L85.012,228.365z M71.129,238.334h-1.643c-1.387-1.965-3.447-4.189-5.338-5.314
		c-0.775-0.962-1.643-2.151-1.293-2.343C62.875,229.966,70.147,235.225,71.129,238.334L71.129,238.334z M85.047,232.442
		l-0.035,1.579c-1.111,1.426-2.043,2.955-2.934,4.313h-1.4C81.954,235.572,85.162,231.694,85.047,232.442L85.047,232.442z
		 M66.19,235.501c0.507,0.135,2.358,2.24,2.299,2.833h-0.834c-0.467-0.592-1.021-1.564-1.35-2.169
		C66.1,235.781,65.967,235.427,66.19,235.501L66.19,235.501z M84.726,235.991c0.008-0.002,0.008-0.002,0.012,0
		c0,0.002-0.016,2.343-0.016,2.343h-1.406C83.164,238.307,83.996,236.483,84.726,235.991L84.726,235.991z"/>

		<path id="path6313-8" d="
		M92.363,30.639l52.322,74.422l0.042-16.532l-16.79-21.722c3.821-1.182,8.487-1.998,12.162-2.326
		c-4.719-10.487-7.079-20.336-5.001-33.834C120.432,30.47,105.703,30.499,92.363,30.639z M134.228,30.992
		c-0.41,4.765-0.948,10.079-0.085,15.981c-2.723-0.996-3.362,0.706-3.813,0.885c-0.512-1.144-2.41-3.126-4.559-0.797
		c-1.116,1.211-0.574,3.488,2.019,4.514c-2.969,0.229-4.512-2.316-5.033-4.94c-1.605-1.03-3.292-2.048-3.453-5.659l0.823,0.138
		c-0.274,2.519,2.338,3.802,3.866,2.6c0.988-0.759,1.094-1.931,0.704-3.749c0.794-0.164,2.653-0.943,2.161-3.338
		c-0.678-3.305-4.065-2.917-5.612-0.744c-1.286-1.596-3.644-1.892-4.59,0.587c-0.526,1.38,0.674,2.93,2.037,3.23
		c-3.028,0.582-4.555-3.604-4.725-6.438l-1.255-2.233C120.901,30.983,124.481,30.992,134.228,30.992z M93.216,31.074l6.077,0.004
		l44.35,57.534l0.093,14.323L93.216,31.074z M108.58,31.077l0.968,0.012c0.759,5.064,3.664,8.73,8.633,10.514
		c0.258,4.137,2.248,9.757,9.799,11.655c-0.223,4.672,2.771,9.136,5.977,11.275c0,0-0.865,0.216-1.542,0.28
		c-4.308-3.425-5.371-8.468-5.797-10.549c-0.146-0.301-0.557-0.373-0.884-0.447c-3.687-1.306-6.791-4.342-8.059-8.049l-0.798-3.638
		c0-0.467-0.093-0.248-1.19-0.652c-2.844-1.049-5.475-4.134-6.654-7.82C108.413,31.722,108.58,31.077,108.58,31.077L108.58,31.077z
		 M104.672,31.089l3.405,0.004c0,0,0.02,0.602,0.07,0.993c0.457,3.628,3.707,8.181,7.022,9.691c0.469,0.214,1.121,0.514,1.274,0.656
		c0.926,5.947,3.616,9.529,9.291,11.982c0.09,0.094,0.346,0.154,0.422,0.272c0.774,3.678,2.465,7.941,5.683,10.285l-1.391,0.144
		L104.672,31.089z M121.303,37.331c0.769,0,1.394,0.626,1.394,1.398c0,0.771-0.625,1.393-1.394,1.393
		c-0.77,0-1.395-0.622-1.395-1.393C119.908,37.957,120.533,37.331,121.303,37.331z M74.315,44.958
		c0.08,0.202-19.042,16.418-17.181,46.926l-0.553,0.621l0.151,0.217c-0.632,0.718-1.24,1.295-1.93,1.996
		c3.966,2.533,10.878,5.299,10.899,5.227l-1.32,3.066l8.261,2.676l-1.107,2.916c0,0-5.747-1.909-8.13-2.706
		c-1.175,2.612-1.886,5.371-2.742,8.087c-0.08,0.219-0.269,0.114-0.562-0.311c-4.291-7.336-13.105-12.63-12.807-12.106
		l-31.257,29.73l-0.213,18.374l21.631,22.349c0,0-6.259,3.088-9.221,5.112c2.303,1.885,4.911,3.337,7.2,5.118
		c4.736,3.35,7.933,8.272,11.003,11.606c14.478-7.197,29.058-6.795,41.651-2.428c-1.467,1.548-3.105,2.888-4.617,4.567
		c3.661,9.626,2.49,28.746,2.305,29.267c7.62-7.804,18.957-24.537,17.444-48.1l3.207-3.221c-0.058-0.167-8.022-4.44-11.34-5.371
		l0.917-2.927l-7.947-2.488l0.887-2.326l7.916,2.298c1.499-3.69,3.087-8.856,3.087-8.856c3.162,4.742,6.646,9.054,13.819,13.441
		l31.078-29.808l-0.202-19.164l-21.158-21.211l8.807-4.601c-0.847-0.684-2.073-1.333-2.944-2.019
		c-0.062-0.049,0.176-0.196,0.113-0.244c-0.221-0.17-0.383-0.31-0.608-0.466c-0.05-0.035-0.209,0.194-0.259,0.159
		c-2.989-2.1-5.979-4.168-8.331-6.682c-0.059-0.064,0.027-0.325-0.031-0.388c-1.222-1.31-2.44-2.529-3.683-3.817
		c-0.577-0.584-1.529-1.969-1.529-1.969l-0.055-0.458l-1.336-1.685c-4.303,2.544-22.648,8.93-40.401,1.859l3.374-3.382
		c-0.899-2.172-1.481-4.596-1.713-6.581C73.959,59.295,74.314,44.958,74.315,44.958L74.315,44.958z M130.273,49.465
		c0.813,0,1.472,0.661,1.472,1.475c0,0.814-0.66,1.475-1.472,1.475s-1.467-0.661-1.467-1.475
		C128.805,50.127,129.461,49.465,130.273,49.465z M134.876,51.221c0.749,3.667,2.396,8.992,4.038,12.58l-1.955,0.217
		c-1.592-1.037-3.274-2.549-3.451-4.695c-4.304,0.032-5.563-6.735-3.99-5.923c-0.201,2.312,1.454,3.223,3.077,2.997
		c1.398-0.196,2.606-2.131,0.943-4.267C134.277,51.843,134.638,51.626,134.876,51.221z M73.873,62.065
		c0.285,4.689,1.204,8.109,2.061,11.652l-8.506,8.045C68.092,74.419,70.243,67.856,73.873,62.065z M114.665,77.51l1.08,1.554
		c-12.291,7.235-33.27,7.746-46.051,1.646l1.697-1.619C82.629,84.178,100.927,84.556,114.665,77.51L114.665,77.51z M34.837,79.925
		c-1.239-0.015-2.668,0.458-4.183,1.616c-5.639-2.575-9.333,3.445-5.844,7.432c-0.517,2.87-0.907,3.403,1.247,6.309
		c-2.289,0.292-5.177-0.309-7.635-0.688c0.416,4.25,6.486,5.239,9.013,4.772c2.729-0.593,5.303,0.76,5.415,0.792
		c1.605,0.45,2.601,1.224,4.183,1.596c2.609,0.622,6.43-2.442,6.983-5.354c0.052-0.391,0.174-0.746-0.042-0.803
		c-1.783,0.458-3.743,1.101-5.481,1.483c-1.702,0.418-2.984,0.831-4.28,1.848l-0.108-3.509c8.833,0.421,4.989-7.998,4.489-8.36
		C40.235,83.736,38.26,79.968,34.837,79.925L34.837,79.925z M115.125,80.19l1.922,4.632l-5.105,1.736l-1.306-4.535L115.125,80.19z
		 M34.468,80.33c3.003,0.028,5.688,3.199,2.805,6.748c5.589,4.942-1.574,10.238-4.984,6.561c-4.542,4.169-9.366-0.185-6.829-4.725
		c-4.842-4.344,1.13-10.171,5.21-6.418C31.67,80.952,33.104,80.316,34.468,80.33z M69.327,82.026c0.718,0,1.301,0.585,1.301,1.305
		c0,0.721-0.583,1.305-1.301,1.305c-0.72,0-1.302-0.584-1.302-1.305C68.025,82.61,68.607,82.026,69.327,82.026z M36.068,82.123
		c-0.075,0-0.163,0.034-0.26,0.12c-0.145,0.014-0.461,0.558-1.255,1.479c-1.378,1.602-1.527,1.617-1.527,1.617
		c-1.468-0.482-2.45-0.221-3.419,0.392c0,0-1.104-0.21-2.626-1.485c-0.695-0.582-1.068-0.707-1.189-0.396
		c-0.129,0.333,0.186,0.66,1.519,1.568c1.843,1.258,1.728,1.162,1.728,1.162c-0.114,1.104,0.065,2.002,0.483,2.839
		c0,0-0.326,0.785-1.634,2.503c-0.37,0.485-0.673,1.013-0.674,1.173c0,0.668,0.58,0.218,1.918-1.475
		c0.524-0.664,1.244-1.616,1.244-1.616c1.571,0.546,2.122,0.214,3.107-0.137c0,0,0.338,0.252,1.195,0.937
		c1.569,1.253,1.907,1.386,2.1,1.228c0.259-0.215,0.225-0.284-0.369-0.715c-1.768-1.283-2.376-2.025-2.376-2.025
		c0.359-1.404-0.034-2.566-0.42-3.298c0,0,0.027-0.179,1.026-1.297c0.734-0.821,1.736-2.116,1.673-2.302
		C36.329,82.279,36.232,82.122,36.068,82.123z M72.262,82.407l4.598,1.432l-1.015,4.792l-4.899-1.584L72.262,82.407z
		 M105.531,83.583l1.283,4.674l-4.784,1.274l-0.782-4.962L105.531,83.583z M108.89,83.661c0.719,0,1.301,0.584,1.301,1.305
		c0,0.72-0.582,1.304-1.301,1.304s-1.302-0.584-1.302-1.304C107.588,84.245,108.171,83.661,108.89,83.661z M119.762,83.827
		l4.02,3.588l-4.462,2.26L117.17,85L119.762,83.827z M81.851,84.865l4.671,0.551l-0.19,5.033l-5.36-0.719L81.851,84.865z
		 M65.647,84.919l5.197,2.287l-1.875,5.25l-5.322-2.292L65.647,84.919z M79.044,85.326c1.916,0.301,1.4,2.567,0,2.609
		c-0.719,0-1.302-0.584-1.302-1.304C77.742,85.91,78.325,85.326,79.044,85.326z M95.85,85.33l0.639,5.036l-4.849,0.296l-0.105-5.118
		L95.85,85.33z M99.184,85.905c0.719,0,1.302,0.584,1.302,1.304c0,0.721-0.583,1.305-1.302,1.305c-0.719,0-1.302-0.584-1.302-1.305
		C97.882,86.489,98.465,85.905,99.184,85.905z M31.676,86.377c0.742,0,1.344,0.6,1.344,1.343c0,0.744-0.602,1.347-1.344,1.347
		s-1.34-0.603-1.34-1.347C30.336,86.977,30.935,86.377,31.676,86.377z M89.099,86.328c0.718,0,1.301,0.584,1.301,1.304
		c0,0.721-0.583,1.305-1.301,1.305c-0.719,0-1.302-0.584-1.302-1.305C87.797,86.912,88.38,86.328,89.099,86.328z M111.938,86.651
		l1.89,5.176l-5.299,1.712l-1.499-5.315L111.938,86.651z M115.657,86.79c0.718,0,1.301,0.585,1.301,1.305
		c0,0.72-0.583,1.305-1.301,1.305c-0.72,0-1.302-0.585-1.302-1.305C114.355,87.375,114.937,86.79,115.657,86.79z M124.816,88.257
		l3.424,2.427l-1.697,0.947C126.099,90.565,125.313,89.3,124.816,88.257z M75.876,88.728l5.055,1.098l-0.771,5.308l-5.515-1.102
		L75.876,88.728z M60.844,89.019l2.685,1.266l-1.771,4.422l-4.342-2.318L60.844,89.019z M72.843,89.306
		c0.72,0,1.302,0.585,1.302,1.305s-0.582,1.305-1.302,1.305c-0.718,0-1.301-0.585-1.301-1.305S72.124,89.306,72.843,89.306z
		 M102.034,89.598l0.902,5.307l-5.701,0.804l-0.352-5.413L102.034,89.598z M123.379,89.698c0.719,0,1.302,0.584,1.302,1.304
		c0,0.721-0.583,1.305-1.302,1.305c-0.718,0-1.301-0.584-1.301-1.305C122.078,90.282,122.661,89.698,123.379,89.698z
		 M119.335,89.737l1.886,4.679l-5.577,2.338l-1.65-4.683L119.335,89.737z M105.114,90.075c0.719,0,1.302,0.584,1.302,1.305
		c0,0.72-0.583,1.304-1.302,1.304s-1.302-0.584-1.302-1.304C103.812,90.659,104.395,90.075,105.114,90.075z M86.278,90.607
		l5.337,0.097l-0.061,5.366l-5.845-0.163L86.278,90.607z M128.964,90.98l2.099,1.46c-21.604,13.926-51.954,15.654-75.638,1.945
		c0,0,0.968-0.967,1.519-1.533C78.295,105.66,109.465,103.863,128.964,90.98z M83.386,91.585c0.719,0,1.301,0.584,1.301,1.304
		c0,0.721-0.582,1.305-1.301,1.305s-1.302-0.584-1.302-1.305C82.084,92.169,82.667,91.585,83.386,91.585z M94.343,91.88
		c0.718,0,1.301,0.584,1.301,1.305c0,0.72-0.583,1.304-1.301,1.304c-0.719,0-1.302-0.584-1.302-1.304
		C93.041,92.464,93.624,91.88,94.343,91.88z M68.924,92.598l5.574,1.616l-0.95,4.411l-6.111-1.762L68.924,92.598z M65.236,92.63
		c0.719,0,1.302,0.584,1.302,1.305c0,0.72-0.583,1.304-1.302,1.304c-0.718,0-1.301-0.584-1.301-1.304
		C63.936,93.214,64.518,92.63,65.236,92.63z M108.526,93.569l1.332,4.95l-6.162,1.321l-0.744-4.869L108.526,93.569z M112.066,94.287
		c0.718,0,1.301,0.584,1.301,1.305c0,0.72-0.583,1.304-1.301,1.304c-0.719,0-1.302-0.584-1.302-1.304
		C110.765,94.871,111.347,94.287,112.066,94.287z M31.563,95.056l-0.012,3.471c-1.021-0.844-2.177-1.744-3.358-2.652
		C29.399,95.94,30.52,95.606,31.563,95.056L31.563,95.056z M18.872,95.142c0.282-0.003,0.939,0.227,1.724,0.225
		c2.509-0.008,7.196,0.777,8.582,1.918c0.462,0.379,1.154,0.715,1.53,1.327c0,0.292-0.413,0.3-1.019-0.077
		c-1.161-0.723-3.094-1.369-5.682-1.728c-0.467-0.065-0.526-0.046-0.527,0.175c0,0.272,0.431,0.432,1.793,0.655
		c1.764,0.29,2.138,0.464,2.53,0.571c1.047,0.287,0.378,0.671-0.7,0.775c-4.399,0.412-7.693-1.485-8.356-3.652
		C18.694,95.19,18.747,95.143,18.872,95.142z M80.155,95.219l5.534,0.718l-0.252,4.644l-6.057-0.695L80.155,95.219z M33.09,95.624
		c0.966,0.76,0.301,3.067-0.225,3.746c-0.341,0.381-1.139,0.179-1.135-0.358c0.121-0.481-0.05-2.775,0.055-3.487
		C32.171,95.306,32.738,95.368,33.09,95.624L33.09,95.624z M97.228,95.829l0.287,4.787l-6.039,0.276l0.047-4.703L97.228,95.829z
		 M76.856,96.151c0.719,0,1.302,0.585,1.302,1.305c0,0.721-0.583,1.305-1.302,1.305c-0.719,0-1.302-0.584-1.302-1.305
		C75.554,96.736,76.137,96.151,76.856,96.151z M43.21,96.217c0.223,3.513-5.16,5.897-7.173,4.818
		c-0.893-0.477-0.521-0.772,1.247-1.13c2.288-0.607,3.793-1.198,3.795-1.627c0-0.263-0.345-0.231-1.278,0.117
		c-1.435,0.484-2.928,0.692-4.299,1.309c-1.024,0.466-1.422,0.63-1.654,0.35c-0.483-0.589,1.795-2.072,4.156-2.466
		C39.776,97.292,41.562,96.345,43.21,96.217z M100.559,96.656c0.719,0,1.302,0.584,1.302,1.304c0,0.721-0.583,1.305-1.302,1.305
		c-0.719,0-1.302-0.584-1.302-1.305C99.257,97.24,99.84,96.656,100.559,96.656z M88.455,97.611c0.719,0,1.302,0.584,1.302,1.304
		c0,0.721-0.583,1.305-1.302,1.305c-0.718,0-1.301-0.584-1.301-1.305C87.154,98.195,87.737,97.611,88.455,97.611z M117.454,99.829
		c8.709,8.314,18.255,17.884,26.131,25.757c-0.012,4.12-0.034,12.358-0.034,12.358l-30.071,28.65
		c-5.445-3.331-10.056-7.499-14.299-14.897c0.478-0.413,0.9-0.678,1.262-1.131l-1.569,0.941c-5.547-8.894-7.901-26.614,1.522-40.818
		l-9.521,0.349l1.554-3.25l10.365-0.566l4.191-4.509c0,0,1.327-0.246,2.428-0.501c1.092-0.253,3.32-0.892,4.954-1.422
		C116,100.262,117.391,99.828,117.454,99.829L117.454,99.829z M47.153,102.131c0,0,8.95,4.876,13.921,14.642
		c-16.065,13.853-22.12,29.985-23.487,46.775c-8.743-8.198-13.162-12.734-21.062-20.695l0.286-11.881L47.153,102.131z
		 M80.941,103.68c-2.315,4.963-4.307,10.4-6.092,16.226l-2.491-0.738c0,0,1.611-0.675,2.328-1.102l-1.294-2.09l2.452-1.009
		l-1.449-1.77l2.487-1.445l-1.243-1.565l2.277-1.141l-1.414-1.63l2.39-1.336l-1.248-1.561L80.941,103.68z M81.704,103.691
		c0,0,0.321,0.061,0.697,0.136c0.09-0.035-0.448,1.3-0.391,1.347c0.87,0.179,0.921,0.131,1.181,0.21l0.663-1.375l1.088,0.206
		c-2.195,4.967-4.543,10.401-5.891,16.284l-1.282-0.268c0,0,0.374-1.24,0.376-1.406c-0.151-0.031-0.873-0.336-1.097-0.426
		c-0.077,0.194-0.535,1.63-0.535,1.63l-1.014-0.027C77.161,113.58,80.056,106.457,81.704,103.691L81.704,103.691z M85.875,103.882
		l2.274,1.887l-2.58,1.006l1.337,1.782l-2.735,0.989l1.569,1.853l-2.707,1.001l1.616,2.241l-2.816,0.951l1.778,1.968l-2.541,1.192
		l1.521,1.511c0,0-1.585,0.524-1.676,0.548c-0.255,0.065-1.321-0.199-1.321-0.199C81.2,114.881,83.185,109.07,85.875,103.882
		L85.875,103.882z M30.564,104.837c-0.628,0.409-0.269,1.298-1.057,2.058c-0.126,0.136-0.136,0.449-0.185,0.722
		c-0.038,0.207-0.66,2.687-0.66,2.687s0.158-0.189,0.406-0.981c0.213-0.675,0.398-1.956,0.513-2.17
		c0.58-0.178,0.668-2.076,1.257-1.816c0.34,0.15,0.276,0.46,0.084,1.188c-0.42,1.455-0.585,2.068,0.135,1.076
		c1.074-1.296,1.179-2.467-0.031-2.714C30.897,104.863,30.637,104.84,30.564,104.837L30.564,104.837z M46.808,105.377
		l-28.099,26.449l-0.085,9.869l9.78,9.936l6.94,6.744c2.52-15.103,8.3-29.513,22.529-41.983
		C55.694,112.877,51.958,108.45,46.808,105.377L46.808,105.377z M122.55,105.648c-16.51,7.779-20.306,23.733-15.194,38.174
		C115.224,133.679,121.399,124.148,122.55,105.648z M63.787,106.456l7.498,2.419l-2.823,9.652l-6.751-2.053l-0.69-1.709
		L63.787,106.456z M121.721,106.708c-0.717,12.908-5.573,25.514-14.021,35.406C103.429,131.551,105.998,114.661,121.721,106.708z
		 M81.337,106.778l-0.473,1.199l1.038,0.296l0.442-1.22L81.337,106.778z M80.299,109.613l-0.427,1.219l1.065,0.362l0.399-1.238
		L80.299,109.613z M124.529,109.834c-2.312,17.904-11.961,34.198-22.155,42.5c3.249,5.283,7.069,8.68,10.949,11.515l28.715-27.574
		l-0.112-9.198L124.529,109.834z M48.648,114.587c-0.177,0.654-0.238,0.988-0.238,0.988s0.33-0.307,1.203-0.786
		c5.642-2.822,3.822,1.47,1.163,3.056c-0.593,0.317-1.205,0.694-1.205,0.694s0.565,0.128,1.177,0.242
		c3.423,0.713,2.695,2.722-0.877,2.409c-0.528-0.046-1.148-0.147-1.148-0.117c0,0.029,0.214,0.783,0.461,1.407
		c1.204,3.04-1.043,3.277-2.519,1.344c-0.206-0.269-0.673-1.012-0.673-1.012s-0.145,0.562-0.233,1.105
		c-1.277,4.764-4.425,4.644-3.25-0.19c0.146-0.5,0.326-1.394,0.326-1.394s-0.707,0.429-1.478,0.774
		c-4.078,1.825-4.74-0.053-1.035-2.8c1.054-0.781,1.411-1.088,1.411-1.088c-0.656-0.05-1.261-0.151-1.795-0.285
		c-2.955-0.744-3.742-2.514,0.992-2.432c0.7,0.015,1.413,0.061,1.413,0.061s-0.233-1.018-0.481-1.785
		c-1.142-3.551,1.159-3.974,3.102-0.793c0.413,0.677,0.532,0.681,0.532,0.681c-0.06,0.003,0.122-1.211,0.592-2.334
		C48.437,107.966,49.358,111.95,48.648,114.587L48.648,114.587z M99.432,111.053c-1.973,3.494-3.692,6.967-4.512,10.589
		l-7.673-0.132c0.531-3.211,1.886-6.551,3.506-10.083C93.875,111.34,96.692,111.203,99.432,111.053z M79.175,112.602l-0.441,1.285
		l1.111,0.342l0.402-1.25L79.175,112.602z M21.799,115.014c-0.822,2.141-1.097,4.525-1.553,6.437c-0.192,1.108,0,1.569,0.666,1.817
		c0.943,0.353,2.303-0.127,3.063-1.219c0.43-0.615,0.741-1.887,0.806-4.131l0.074-2C23.689,115.701,22.893,115.388,21.799,115.014
		L21.799,115.014z M78.138,115.293l-0.368,1.181l1.072,0.4l0.411-1.192L78.138,115.293z M127.829,115.736
		c1.306,0.032,1.548,0.149,2.73,0.85l2.282,2.352c-0.598,0.574-0.972,1.38-0.972,2.276c0,1.741,1.409,3.153,3.145,3.153
		c0.86,0,2.208-0.908,2.208-0.908l3.615,3.753c-2.107,0.926-4.171-1.204-4.947-2.047c-0.182-0.198-0.23-0.333-0.23-0.333
		s0.032,0.104-0.043,0.52c-0.302,1.671-1.947,6.604-3.52,6.341c-1.771-0.296,0.032-7.347,0.051-7.184
		c-1.217,1.29-7.149,2.664-6.733,1.223c0.825-2.861,5.262-3.964,5.846-4.462C128.901,119.848,125.911,115.901,127.829,115.736
		L127.829,115.736z M22.087,115.828c0.751,0.053,1.266,0.144,1.777,0.358c0.237,0.065,0.248,0.264,0.275,0.451
		c0.008,0.845,0.216,3.325-0.565,3.351c-0.868-0.018-1.683,0.169-2.254,0.606c-0.459,0.352-0.612,0.097-0.489-0.804
		c0.121-0.873,0.553-2.708,0.74-3.451C21.601,116.031,21.843,115.814,22.087,115.828z M45.53,115.86
		c-1.736,0-3.145,1.412-3.145,3.153c0,1.74,1.409,3.153,3.145,3.153c1.736,0,3.145-1.413,3.145-3.153
		C48.675,117.272,47.266,115.86,45.53,115.86z M45.53,116.962c1.129,0,2.045,0.919,2.045,2.051c0,1.131-0.916,2.046-2.045,2.046
		c-1.129,0-2.045-0.915-2.045-2.046C43.485,117.881,44.401,116.962,45.53,116.962L45.53,116.962z M61.757,117.001
		c7.209,12.473,6.373,29.596-2.125,42.05l9.136-0.641l-1.201,2.345l-9.741,0.952c-1.488,1.364-2.843,2.925-4.307,4.387l-0.015,0.515
		c-3.339,0.778-6.682,1.673-10.085,2.902c-1.797-1.767-5.176-5.304-5.155-5.392l0.218-1.144
		c23.166-11.848,16.389-35.61,14.758-37.565C55.726,122.419,58.692,119.605,61.757,117.001L61.757,117.001z M126.052,119.269
		c0.938,0,1.696,0.764,1.696,1.705s-0.757,1.705-1.696,1.705s-1.701-0.764-1.701-1.705S125.113,119.269,126.052,119.269z
		 M133.604,119.727l2.847,2.939c-0.37,0.365-0.877,0.594-1.437,0.594c-1.129,0-2.045-0.914-2.045-2.046
		C132.968,120.63,133.213,120.1,133.604,119.727z M35.828,120.092c0.939,0,1.697,0.76,1.697,1.701c0,0.941-0.758,1.705-1.697,1.705
		c-0.938,0-1.7-0.764-1.7-1.705C34.128,120.852,34.89,120.092,35.828,120.092z M23.186,120.807c0.796,0.266,0.61,1.012-0.418,1.667
		c-0.665,0.424-1.274,0.517-1.86,0.204C19.8,122.083,22.1,120.418,23.186,120.807z M36.32,124.976l-10.237,9.928
		c0.644-1.65,0.668-3.295,0.716-4.943c3.08,0.318,4.37-1.248,3.92-4.473C32.708,125.608,34.77,125.398,36.32,124.976L36.32,124.976z
		 M52.722,126.11c4.747,13.568,0.624,27.927-14.223,36.24C39.112,149.35,44.554,136.921,52.722,126.11z M66.243,127.298
		c8.148,2.138,17.422,3.134,27.05,3.141c0.072,3.673,0.248,7.558,0.999,11.306c-8.203-2.151-17.363-3.151-27.371-2.974
		C67.336,134.89,66.671,130.486,66.243,127.298z M126.655,129.306l-8.675,10.169l0.365-5.552c2.921,0.373,3.962-1.172,3.531-4.224
		C123.47,129.895,125.062,129.615,126.655,129.306z M42.354,129.869l-0.686,4.061c-1.731,0.047-3.431,0.663-3.408,4.539
		l-5.174-0.063L42.354,129.869z M137.834,130.618c0.938,0,1.696,0.763,1.696,1.704c0,0.941-0.758,1.705-1.696,1.705
		c-0.939,0-1.701-0.763-1.701-1.705C136.133,131.382,136.895,130.618,137.834,130.618z M34.484,131.135
		c0.939,0,1.701,0.763,1.701,1.704c0,0.941-0.762,1.701-1.701,1.701c-0.938,0-1.7-0.759-1.7-1.701
		C32.784,131.898,33.546,131.135,34.484,131.135z M134.042,132.881l-0.906,6.15c-2.364-0.208-4.337,0.157-3.73,4.326
		c-2-0.196-4.777,0.276-6.639,0.437L134.042,132.881z M125.571,133.996c0.939,0,1.7,0.763,1.7,1.704c0,0.941-0.761,1.701-1.7,1.701
		c-0.939,0-1.7-0.76-1.7-1.701C123.871,134.76,124.632,133.996,125.571,133.996z M22.028,135.316c0.939,0,1.701,0.765,1.701,1.705
		c0,0.941-0.762,1.701-1.701,1.701c-0.938,0-1.696-0.76-1.696-1.701C20.332,136.081,21.09,135.316,22.028,135.316z M27.663,137.331
		c2.171,0.488,1.166,5.559,0.678,6.938c-0.037,0.037,6.054-3.2,6.417-1.769c0.238,2.865-5.042,4.861-5.042,4.861
		s3.559,3.098,3.66,5.047c0.009,1.26-1.488,1.027-3.431-0.572c-0.831-0.817-1.473-1.43-2.045-1.999
		c0.667-0.578,1.089-1.434,1.089-2.388c0-1.74-1.409-3.153-3.145-3.153c-0.959,0-1.817,0.431-2.394,1.111
		c-0.451-0.435-0.961-0.942-1.647-1.593c-1.122-1.052-1.91-1.887-1.797-2.267c1.481-1.044,4.428,1.763,4.691,2.02
		C24.476,143.019,26.106,137.623,27.663,137.331z M24.697,143.567c0.012,0.029,0.027,0.045,0.05,0.045
		C24.747,143.613,24.709,143.579,24.697,143.567z M117.209,141.291c1.033-0.014,0.968,2.341,0.6,3.564
		c-0.251,0.933-0.499,1.697-0.499,1.697s0.87-0.68,1.255-0.862c2.809-1.319,3.857,0.176,2.441,1.906
		c-0.681,0.892-1.609,1.089-2.362,1.838c1.073,0.049,2.306,0.286,3.233,0.835c0.722,0.431,1.288,0.956,1.286,1.281
		c0,0.727-1.786,1.119-3.454,0.931c-0.71,0.016-2.045-0.364-2.045-0.364s0.553,0.933,0.754,1.491
		c0.624,1.732,0.405,3.762-0.495,3.758c-1.507-0.404-2.241-2.083-2.831-3.288c-0.484,1.344-0.952,2.782-2.03,3.782
		c-1.068,0.99-1.616,0.169-1.561-1.511c0.022-0.668,0.511-2.659,0.511-2.659c-6.327,2.142-5.858-0.756-0.919-3.294
		c-3.042-1.454-4.89-2.763,0.283-3.059c-0.136-0.125-1.04-2.902-0.074-3.552c0.899-0.605,2.813,1.471,2.906,1.571
		c-0.038-0.206,0.504-1.832,1.414-2.955C116.318,141.61,116.836,141.297,117.209,141.291L117.209,141.291z M111.376,147.337
		c0.008,0.006,0.014,0.006,0.016,0C111.392,147.337,111.377,147.337,111.376,147.337z M139.077,145.501
		c-1.102,0.102-1.787,1.082-2.296,1.936c-0.104,0.174-0.294,0.235-0.366,0.464c-0.456,1.473-0.854,3.239-1.099,5.437
		c0.697,0.286,2.273,0.772,2.969,0.511c0.196-0.082,0.135-0.59,0.201-0.758c1.099-2.773,1.642-4.846,1.642-6.119
		C140.128,145.946,139.776,145.439,139.077,145.501z M25.85,145.376c1.129,0,2.045,0.919,2.045,2.049
		c0,0.651-0.303,1.229-0.775,1.605c-1.316-1.317-1.991-2.006-2.874-2.874C24.621,145.682,25.2,145.376,25.85,145.376z
		 M139.466,146.352c0.277,0.672-0.611,1.403-1.76,1.399c-0.685-0.004-0.906,0.094-0.602-0.502
		C137.466,146.528,138.937,145.064,139.466,146.352L139.466,146.352z M124.049,145.878c0.939,0,1.701,0.764,1.701,1.705
		c0,0.94-0.762,1.699-1.701,1.699c-0.938,0-1.7-0.758-1.7-1.699C122.349,146.64,123.111,145.878,124.049,145.878z M34.422,145.997
		c0.938,0,1.7,0.76,1.7,1.701c0,0.94-0.761,1.705-1.7,1.705c-0.939,0-1.696-0.764-1.696-1.705
		C32.726,146.757,33.483,145.997,34.422,145.997z M114.803,146.689c-1.736,0-3.145,1.411-3.145,3.153
		c0,1.74,1.409,3.153,3.145,3.153s3.145-1.413,3.145-3.153C117.948,148.1,116.54,146.689,114.803,146.689z M72.773,147.112
		c-0.827,3.633-2.099,7.105-3.706,10.542c-3.032,0.182-6.309,0.325-8.47,0.633c3.6-6.321,3.686-7.806,5.019-11.155L72.773,147.112z
		 M77.983,147.623c0.851,0.102,1.784,0.231,2.626,0.392c-1.548,5.461-3.594,11.069-6.236,16.463l-1.6-0.247l-0.759-0.941
		l2.541-1.017l-1.979-2.028l3.28-0.993l-2.019-1.995l3.243-0.813l-1.736-2.112l2.909-1.136l-1.848-2.392l3.099-0.854L77.983,147.623
		z M114.804,147.792c1.128,0,2.044,0.917,2.044,2.049c0,1.131-0.916,2.046-2.044,2.046c-1.129,0-2.045-0.915-2.045-2.046
		C112.759,148.709,113.675,147.792,114.804,147.792z M81.189,148.102l1.081,0.174l-0.334,1.162l1.231,0.263l0.399-1.254
		c0,0,0.991,0.092,1.096,0.172c-1.289,5.271-5.851,16.302-5.91,16.245l-1.173-0.176l0.31-1.113l-1.092-0.157v-0.012l-0.528,1.213
		l-1.165-0.098C77.929,158.059,79.852,153.1,81.189,148.102L81.189,148.102z M138.596,148.521c0.866-0.004,0.814,0.445,0.186,2.081
		c-0.59,1.538-0.811,2.155-1.098,2.355c-0.683,0.484-2.153,0.078-2.034-0.631c0.387-2.298,0.525-3.278,1.116-3.59
		C137.384,148.613,137.985,148.523,138.596,148.521z M85.535,148.711l2.82,0.549l-2.359,1.405l1.499,1.756l-2.897,1.238l1.758,1.824
		l-2.797,1.146l1.701,2.006l-2.901,1.227l1.975,1.716l-3.262,1.033l1.236,1.903l-1.228,0.688l-1.515-0.237
		C82.08,159.086,83.696,154.25,85.535,148.711L85.535,148.711z M92.464,150.118l5.523,1.505l1.104,1.977l-2.591,8.77l-7.359-2.165
		L92.464,150.118z M81.488,150.962l-0.527,1.442l1.216,0.251l0.469-1.483L81.488,150.962z M80.418,154.272l-0.527,1.44l1.143,0.225
		l0.539-1.456L80.418,154.272z M79.342,157.179l-0.539,1.432l1.111,0.229l0.531-1.436L79.342,157.179z M131.232,159.815
		c0,0.002-0.564,0.411-0.712,0.592c0.123,0.329,0.479,0.835,0.426,1.166c-0.049,0.249-0.326,0.451-0.743,0.895
		c-1.04,1.213-1.406,1.082-0.801-0.214c0.198-0.408,0.286-0.784,0.286-0.784c-0.24,0.337-0.422,0.737-0.585,1.054
		c-0.343,0.662-0.663,1.287-0.663,1.287c0.662,0.229,1.103,0.723,1.53,1.042c0,0,0.218-0.586,0.368-1.148
		c0.21-0.784,0.624-1.105,1.131-1.374c0.321-0.17,0.626-0.48,0.626-0.48C131.536,161.28,131.473,160.465,131.232,159.815z
		 M78.192,160.169l-0.569,1.526l1.107,0.27l0.616-1.556L78.192,160.169z M15.703,164.006c-0.1,6.076,0.1,10.075-0.112,16.629
		l16.41,21.319l-2.559,0.862c0,0-0.028,0.296-0.167,0.335c-3.507,0.966-9.195,1.928-9.195,1.928
		c4.231,9.683,6.975,21.792,5.081,33.89l42.473-0.114L15.703,164.006z M105.528,174.302l-1.464,1.471
		c-21.6-11.719-51.349-11.674-73.059,2.516l-1.77-1.301C52.929,161.772,82.08,161.866,105.528,174.302z M16.497,166.138
		l49.99,71.989l-5.872,0.084L16.54,180.41L16.497,166.138z M123.778,167.437c0,0-1.444,0.376-2.657,0.766
		c-3.473,1.115-5.098,3.129-4.779,5.925c0.094,0.825,0.308,0.813,1.724-0.082c3.313-2.097,3.52-2.189,7.645-3.401
		c0.319-0.094,0.782-0.024,0.782-0.024l-0.181,3.266c-6.877-0.025-6.503,5.449-4.524,8.296c-0.693,1.318-2.207,5.912,2.781,7.662
		c2.489,0.496,5.124-1.53,5.043-1.636c4.59,2.177,9.916-1.471,5.763-7.792c1.562-2.757,0.461-4.802-1.03-6.562
		c0,0,0.251,0.022,2.425,0.423c3.295,0.609,4.555,0.502,4.555,0.502c0.008-2.974-2.452-4.303-7.576-4.706
		C130.119,170.587,123.778,167.411,123.778,167.437z M68.439,167.784c0.248-0.002,0.493-0.002,0.74,0.004l-0.24,5.079l-5.581,0.255
		l-0.364-5.059C64.917,167.931,66.703,167.789,68.439,167.784L68.439,167.784z M75.128,167.907l5.988,0.731l-0.906,4.748
		l-5.515-0.594L75.128,167.907z M123.67,167.966c0.495,0.057,0.337,0.631-0.341,0.764c-1.076,0.212-3.836,1.822-3.838,2.242
		c0,0.268,0.136,0.229,1.147-0.312c0.505-0.27,1.559-0.731,2.34-1.029c0.78-0.298,1.672-0.656,1.982-0.796
		c0.928-0.419,1.388-0.129,1.054,0.664c-0.221,0.523-0.308,0.564-2.459,1.25c-1.946,0.617-2.303,0.778-3.54,1.571
		c-0.461,0.296-1.278,0.77-1.816,1.048c-1.271,0.66-1.53,0.662-1.526-0.225c-0.07-2.63,2.833-4.605,6.767-5.171
		C123.54,167.95,123.672,167.962,123.67,167.966L123.67,167.966z M71.871,168.579c0.747,0,1.356,0.609,1.356,1.36
		c0,0.75-0.608,1.358-1.356,1.358c-0.749,0-1.356-0.607-1.356-1.358C70.516,169.188,71.122,168.579,71.871,168.579z M57.056,168.94
		l0.445,4.608l-5.488,1.415l-1.255-4.761C52.859,169.686,54.957,169.324,57.056,168.94L57.056,168.94z M127.756,169.29
		c1.505,0.229,1.385,3.684,0.616,4.281c-1.184,0.856-1.911-0.933-1.383-3.304C127.138,169.555,127.411,169.306,127.756,169.29
		L127.756,169.29z M60.171,169.476c0.748,0,1.356,0.607,1.356,1.358c0,0.75-0.607,1.36-1.356,1.36c-0.749,0-1.356-0.609-1.356-1.36
		C58.815,170.084,59.421,169.476,60.171,169.476z M86.98,169.872l6.204,1.697l-1.518,4.814l-5.822-1.642L86.98,169.872z
		 M83.602,169.964c0.748,0,1.356,0.609,1.356,1.36s-0.607,1.36-1.356,1.36s-1.356-0.609-1.356-1.36S82.854,169.964,83.602,169.964z
		 M134.359,170.368c2.673,0.029,6.198,1.374,6.204,3.445c-0.054,0.59-5.6-0.192-8.16-1.227c-0.908-0.366-2.016-1.483-2.014-1.95
		c0-0.276,0.542-0.257,0.763,0.012c0.36,0.439,1.637,0.897,4.57,1.638c2.252,0.57,2.477,0.592,2.479,0.249
		c0-0.312-1.331-0.743-2.773-0.982c-0.726-0.12-1.403-0.339-2.517-0.435c-0.52-0.002-0.647-0.329-0.214-0.551
		C133.17,170.427,133.742,170.362,134.359,170.368z M129.638,171.44c0.674,0.317,0.917,0.95,1.29,1.281
		c-0.463,0.219-0.669,0.441-1.417,0.498C129.523,172.723,129.389,172.131,129.638,171.44z M48.385,171.814
		c0.748,0,1.356,0.607,1.356,1.358c0,0.75-0.607,1.36-1.356,1.36c-0.748,0-1.356-0.609-1.356-1.36
		C47.029,172.421,47.636,171.814,48.385,171.814z M44.737,172.198l1.464,4.704l-5.244,2.289l-1.859-4.663
		C40.91,173.572,42.892,172.878,44.737,172.198z M68.985,172.966c0,0,4.178,0.006,5.62,0.023l-0.336,5.312l-5.214,0.039
		L68.985,172.966z M63.404,173.258l0.29,5.304l-5.019,0.674l-0.992-5.333L63.404,173.258z M95.14,173.305
		c0.748,0,1.356,0.607,1.356,1.358c0,0.75-0.607,1.36-1.356,1.36s-1.356-0.609-1.356-1.36
		C93.785,173.913,94.392,173.305,95.14,173.305z M131.459,173.429c3.056,0.014,5.971,3.539,2.952,7.23
		c4.953,3.82-0.433,10.241-4.811,6.498c-6.261,6.166-9.76-2.206-7.17-4.425c-3.826-6.303,0.875-10.287,5.725-7.506
		C129.048,173.956,130.263,173.423,131.459,173.429z M80.299,173.579l5.508,1.227l-1.107,5.247l-5.38-1.095L80.299,173.579z
		 M98.526,173.709l5.035,2.508l-3.904,3.766l-2.901-1.448L98.526,173.709z M66.244,174.302c0.748,0,1.356,0.607,1.356,1.358
		c0,0.75-0.607,1.36-1.356,1.36s-1.356-0.609-1.356-1.36C64.888,174.91,65.495,174.302,66.244,174.302z M77.123,174.473
		c0.748,0,1.356,0.609,1.356,1.36c0,0.75-0.607,1.358-1.356,1.358C75.128,176.877,75.665,174.518,77.123,174.473z M52.045,175.237
		l1.228,5.245l-5.101,1.728l-1.825-5.108L52.045,175.237z M55.549,175.611c0.748,0,1.356,0.607,1.356,1.358
		c0,0.75-0.607,1.36-1.356,1.36s-1.355-0.609-1.355-1.36C54.195,176.219,54.801,175.611,55.549,175.611z M131.056,178.029
		c-0.384,0.478-0.888,1.04-0.888,1.04c-1.269-0.523-2.499-0.314-3.322,0.251c0,0-0.874-0.698-1.673-1.346
		c-1.383-1.121-1.845-1.377-1.847-0.907c0,0.096,0.47,0.576,1.042,1.068c1.561,1.338,1.88,1.82,1.88,1.82
		c-0.376,1.215-0.372,2.167,0.345,3.189c0,0,0.029,0.133-0.518,0.713c-0.995,1.05-2.021,2.675-1.784,2.914
		c0.293,0.296,1.124-0.415,2.167-1.828c0.744-1.005,0.967-1.029,0.967-1.029c1.267,0.343,1.97,0.654,3.237-0.394
		c0,0,0.479,0.145,1.433,0.935c1.488,1.232,2.023,1.497,2.185,1.08c0.131-0.341-0.065-0.568-1.324-1.53
		c-0.821-0.625-1.734-1.359-1.734-1.359c0.269-0.441,0.459-2.01-0.459-3.082c0,0,0.035,0.071,1.393-1.693
		c0.903-1.174,1.059-1.321,0.76-1.573C132.515,175.774,131.189,177.863,131.056,178.029L131.056,178.029z M91.717,176.526
		l4.968,2.093l-1.777,5.207l-4.799-1.964L91.717,176.526z M37.04,176.877c0.749,0,1.356,0.607,1.356,1.358
		c0,0.75-0.606,1.36-1.356,1.36c-0.748,0-1.356-0.609-1.356-1.36C35.684,177.484,36.292,176.877,37.04,176.877z M87.874,177.016
		c0.748,0,1.356,0.607,1.356,1.358c0,0.752-0.607,1.36-1.356,1.36s-1.356-0.607-1.356-1.36
		C86.519,177.624,87.126,177.016,87.874,177.016z M33.57,177.388l1.627,4.038l-3.699-2.765L33.57,177.388z M74.349,178.429
		l4.95,0.586l-0.782,4.731l-4.268-0.39L74.349,178.429z M68.946,178.441l-0.05,4.862l-4.702,0.202l-0.399-4.854L68.946,178.441z
		 M44.756,179.326c0.747,0,1.356,0.609,1.356,1.36c0,0.75-0.608,1.358-1.356,1.358c-0.749,0-1.356-0.607-1.356-1.358
		C43.401,179.936,44.007,179.326,44.756,179.326z M41.006,179.424l1.914,4.884l-2.967,1.436l-3.978-3.775L41.006,179.424z
		 M58.702,179.485l0.767,4.649l-4.904,1.215l-1.189-4.729L58.702,179.485z M128.786,179.532c1.067,0,1.932,0.868,1.932,1.938
		s-0.865,1.937-1.932,1.937c-1.067,0-1.932-0.867-1.932-1.937S127.718,179.532,128.786,179.532z M71.414,179.679
		c0.748,0,1.356,0.609,1.356,1.36c0,0.75-0.607,1.358-1.356,1.358c-0.749,0-1.356-0.607-1.356-1.358
		C70.059,180.288,70.665,179.679,71.414,179.679z M84.769,180.181l5.228,1.697l-1.759,4.198l-4.515-1.229L84.769,180.181z
		 M61.596,180.355c0.748,0,1.356,0.609,1.356,1.36c0,0.75-0.607,1.359-1.356,1.359s-1.356-0.608-1.356-1.359
		C60.24,180.964,60.848,180.355,61.596,180.355z M81.477,180.857c0.748,0,1.356,0.607,1.356,1.358c0,0.751-0.607,1.359-1.356,1.359
		c-0.749,0-1.356-0.607-1.356-1.359C80.121,181.464,80.727,180.857,81.477,180.857z M48.276,182.448l1.801,4.155l-4.918,2.132
		l-2.141-4.236L48.276,182.448z M51.762,182.696c0.748,0,1.356,0.608,1.356,1.359c0,0.75-0.607,1.36-1.356,1.36
		s-1.356-0.609-1.356-1.36C50.406,183.305,51.013,182.696,51.762,182.696z M69.884,183.951c8.075-0.018,15.365,1.675,21.217,4.103
		l-1.743,1.638c-18.98-6.538-31.392-3.592-44.122,2.004l-1.286-1.593C52.947,185.693,61.809,183.967,69.884,183.951z M91.357,184
		c0.748,0,1.356,0.609,1.356,1.36c0,0.75-0.607,1.358-1.356,1.358c-0.749,0-1.356-0.607-1.356-1.358
		C90.001,184.61,90.607,184,91.357,184z M41.894,186.983c1.089,0.065,1.193,2.102,0.685,1.515l-1.212-1.405
		C41.563,187.008,41.738,186.975,41.894,186.983z M92.635,187.825c-0.04,1.546-1.5,11.899-6.426,19.018
		c-0.298-3.601-1.165-7.906-2.134-10.779C84.075,196.064,89.375,191.156,92.635,187.825z M29.623,203.516l25.632,34.648
		l-2.692-0.018c-0.562-2.545-1.376-5.149-2.974-7.095c-1.298-1.579-2.46-2.771-4.788-3.833c-1.4-0.637-1.58-0.502-1.669-1.579
		c-0.423-6.06-5.318-9.871-9.067-11.321c-0.362-3.664-2.012-7.267-6.147-10.302L29.623,203.516z M27.128,204.345
		c2.342,1.615,4.909,3.014,6.291,9.376c0.104,1.328,0.186,1.187,1.228,1.579c4.085,1.201,7.639,6.123,7.955,10.424
		c0,1.299,0.419,1.415,2.014,2.087c1.959,0.823,3.992,2.569,5.143,4.285c1.713,2.469,2.317,6.207,2.17,6.031l-1.411,0.008
		c-1.005-6.339-4.983-8.868-9.191-10.052c0.328-8.949-6.614-11.743-9.036-12.162c0.141-6.446-4.018-9.105-6.703-11.266
		C26.088,204.456,27.127,204.345,27.128,204.345L27.128,204.345z M22.981,205.234c2.096,0.686,3.685,3.615,3.525,4.963
		c2.765,0.349,5.671,3.029,5.033,5.821c-0.205,0.118-0.528,0.141-0.848-0.178c0.742-5.416-7.324-2.735-4.1,1.183l-1.441,0.942
		c-1.159-5.42-2.586-8.49-4.135-12.405C21.58,205.413,22.981,205.234,22.981,205.234z M29.658,216.589
		c0.717,0,1.294,0.582,1.294,1.301c0,0.717-0.577,1.299-1.294,1.299c-0.716,0-1.297-0.582-1.297-1.299
		C28.361,217.171,28.941,216.589,29.658,216.589z M36.581,222.434c3.079,0.874,4.076,3.997,3.975,5.136l-0.673-0.016
		c-1.083-4.951-6.712-2.257-4.362,1.691c-3.009,1.115-2.771,3.899-1.885,5c1.223,1.519,4.341,1.471,5.291-0.868
		c2.925,3.793,6.962-0.462,3.401-3.999c2.915,1.078,3.384,4.994,2.945,6.217c1.355,0.462,2.913,2.618,2.705,2.604l-21.851,0.004
		c0,0,1.057-8.839-0.066-15.511c1.454,0.351,2.429,0.703,4.101-1.266c2.707,2.247,4.653,0.551,4.512-1.391
		c-0.208-1.356-0.908-2.032-2.069-2.747C34.975,216.705,36.766,220.811,36.581,222.434L36.581,222.434z M39.02,228.661
		c0.738,0,1.336,0.6,1.336,1.34s-0.598,1.34-1.336,1.34s-1.336-0.6-1.336-1.34S38.282,228.661,39.02,228.661z"/>
	<path id="path7198-0" fill="#D40000" d="M5.118,65.824c-1.728-2.855-3.547-5.629-5.82-8
		c2.273-2.37,4.092-5.145,5.82-8c1.728,2.855,3.547,5.63,5.821,8C8.665,60.195,6.847,62.969,5.118,65.824z"/>
	<path id="path7202-9" fill="#D40000" d="M155.48,219.316c-1.728-2.855-3.548-5.629-5.82-8
		c2.272-2.371,4.091-5.145,5.82-8c1.728,2.855,3.547,5.629,5.82,8C159.027,213.687,157.208,216.462,155.48,219.316z"/>
	<path id="path7204-2" fill="#D40000" d="M39.071,74.402c-4.149-6.852-8.515-13.511-13.969-19.2
		c5.454-5.689,9.819-12.348,13.969-19.2c4.149,6.852,8.514,13.511,13.969,19.2C47.584,60.891,43.22,67.55,39.071,74.402z"/>
	<path id="path7222-2" fill="#D40000" d="M121.527,233.148c-4.148-6.852-8.514-13.51-13.969-19.2
		c5.455-5.688,9.82-12.348,13.969-19.2c4.149,6.852,8.515,13.512,13.97,19.2C130.041,219.638,125.676,226.296,121.527,233.148z"/>
	<path id="path37-2-1-6-5" fill="#D40000" d="M-0.697,38.58h-2.206v-3.008h2.206
		c0,0,0.017-1.62,0.08-4.479c0.137-6.095,0.288-7.04,2.053-8.717c3.483-3.314,9.318-0.614,9.248,4.37
		c-0.101,7.035-0.027,13.741-0.233,14.691c-0.365,1.673-0.402,1.767-0.253,2.073c0.305,0.614,2.941,0.88,2.941,0.708v2.963
		c-2.013,0.156-2.85-0.032-4.46-1.182c-1.004,0.97-4.065,1.944-6.5,0.798C0.327,45.926-1.075,43.674-0.697,38.58L-0.697,38.58z
		 M6.76,43.83c-1.093-1.579-2.933-3.736-4.664-4.502c-0.108,1.817,0.049,3.34,0.688,4.16C3.8,44.792,5.442,45.091,6.76,43.83
		L6.76,43.83z M7.668,26.455c-0.811-2.298-2.897-3.078-4.42-1.64c-0.952,0.895-1.105,1.837-1.125,6.952
		c-0.012,3.156-0.012,4.482-0.012,4.482c2.965,0.961,5.738,4.418,5.714,4.373l0.072-9.542C7.954,29.532,7.878,27.982,7.668,26.455
		L7.668,26.455L7.668,26.455z"/>
	<path id="path37-3-27-1-5" fill="#D40000" d="M161.295,230.559h2.206v3.008h-2.206
		c0,0-0.017,1.62-0.08,4.481c-0.136,6.094-0.289,7.038-2.053,8.715c-3.483,3.315-9.317,0.615-9.248-4.369
		c0.1-7.034,0.027-13.741,0.233-14.691c0.365-1.673,0.402-1.767,0.253-2.073c-0.306-0.615-2.941-0.88-2.941-0.709v-2.963
		c2.013-0.155,2.849,0.033,4.459,1.183c1.005-0.97,4.066-1.944,6.501-0.797C160.27,223.214,161.674,225.465,161.295,230.559
		L161.295,230.559z M153.838,225.31c1.094,1.579,2.933,3.735,4.664,4.501c0.108-1.816-0.049-3.339-0.687-4.158
		C156.799,224.348,155.156,224.05,153.838,225.31L153.838,225.31z M152.931,242.684c0.811,2.298,2.897,3.078,4.42,1.64
		c0.952-0.893,1.105-1.836,1.125-6.952c0.012-3.155,0.012-4.481,0.012-4.481c-2.965-0.962-5.738-4.418-5.714-4.373l-0.072,9.542
		C152.644,239.608,152.721,241.158,152.931,242.684L152.931,242.684L152.931,242.684z"/>
</g>
</svg>
