<?xml version="1.0" encoding="utf-8"?>
<!-- Generator: Adobe Illustrator 16.0.0, SVG Export Plug-In . SVG Version: 6.00 Build 0)  -->
<!DOCTYPE svg PUBLIC "-//W3C//DTD SVG 1.1//EN" "http://www.w3.org/Graphics/SVG/1.1/DTD/svg11.dtd">
<svg version="1.1" id="Layer_1" xmlns="http://www.w3.org/2000/svg" xmlns:xlink="http://www.w3.org/1999/xlink" x="0px" y="0px"
	 width="181px" height="252px" viewBox="0 0 181 252" enable-background="new 0 0 181 252" xml:space="preserve">
<g id="g6758" transform="matrix(0.99553491,0,0,0.99680337,9.4615202,-8.1397402)">
	<path id="rect6758-6" fill="#FFFFFF" stroke="#000000" stroke-width="1.0006" d="M0.653,9.846h161.498
		c4.718,0,8.542,3.82,8.542,8.531v232.387c0,4.71-3.824,8.531-8.542,8.531H0.653c-4.717,0-8.542-3.821-8.542-8.531V18.377
		C-7.889,13.665-4.065,9.846,0.653,9.846z"/>
	<path id="path6790-5" fill="#D40000" d="M5.885,65.824c-1.729-2.855-3.548-5.63-5.821-8
		c2.273-2.37,4.092-5.145,5.821-8c1.728,2.855,3.547,5.63,5.82,8C9.432,60.194,7.613,62.969,5.885,65.824z"/>
	<path id="path6792-5" fill="#D40000" d="M122.815,74.402c-4.149-6.852-8.514-13.511-13.969-19.2
		c5.454-5.689,9.819-12.348,13.969-19.2c4.148,6.852,8.514,13.511,13.969,19.2C131.329,60.891,126.964,67.55,122.815,74.402z"/>
	<path id="path6794-1" fill="#D40000" d="M156.921,219.316c-1.728-2.855-3.547-5.629-5.821-8
		c2.274-2.369,4.092-5.145,5.821-8c1.728,2.855,3.547,5.631,5.821,8C160.468,213.686,158.649,216.461,156.921,219.316z"/>
	<path id="path6796-2" fill="#D40000" d="M39.989,74.402c-4.149-6.852-8.515-13.511-13.97-19.2
		c5.455-5.689,9.82-12.348,13.97-19.2c4.148,6.852,8.514,13.511,13.969,19.2C48.503,60.891,44.138,67.55,39.989,74.402z"/>
	<path id="path6806-6" fill="#D40000" d="M39.989,153.745c-4.149-6.852-8.515-13.512-13.97-19.201
		c5.455-5.688,9.82-12.348,13.97-19.2c4.148,6.852,8.514,13.512,13.969,19.2C48.503,140.233,44.138,146.893,39.989,153.745z"/>
	<path id="path6808-6" fill="#D40000" d="M122.815,153.756c-4.149-6.852-8.514-13.512-13.969-19.2
		c5.454-5.689,9.819-12.348,13.969-19.2c4.148,6.852,8.514,13.511,13.969,19.2C131.329,140.244,126.964,146.904,122.815,153.756z"/>
	<path id="path6812-0" fill="#D40000" d="M39.989,233.143c-4.149-6.852-8.515-13.512-13.97-19.2
		c5.455-5.688,9.82-12.348,13.97-19.2c4.148,6.852,8.514,13.512,13.969,19.2C48.503,219.631,44.138,226.291,39.989,233.143z"/>
	<path id="path6814-4" fill="#D40000" d="M122.815,233.149c-4.149-6.852-8.514-13.512-13.969-19.2
		c5.454-5.69,9.819-12.348,13.969-19.2c4.148,6.852,8.514,13.51,13.969,19.2C131.329,219.637,126.964,226.297,122.815,233.149z"/>
	<path id="path23-5-3-5-5" fill="#D40000" d="M-1.869,39.193
		c-0.325-2.222-0.317-7.966-0.051-9.665c0.82-5.206,2.807-7.588,6.138-8.366c3.235-0.757,7.78,0.086,8.776,4.437l-2.703,0.053
		c-1.463-2.942-5.164-2.156-7.248-0.876c-1.664,1.019-2.415,5.276-2.093,5.537c0,0,3.145-2.33,5.625-2.158
		c5.299,0.553,7.486,5.148,7.3,9.487c-0.169,5.22-1.824,9.395-7.44,9.673C1.092,47.109-1.355,44.199-1.869,39.193L-1.869,39.193
		L-1.869,39.193z M11.301,37.815c0.029-3.622-1.615-6.336-4.728-6.634c-3.11-0.3-6.249,2.736-6.031,6.428
		c0.217,3.708,1.652,6.827,5.425,6.81C10.024,44.403,11.281,40.393,11.301,37.815L11.301,37.815z"/>
	<path id="path23-6-5-6-6" fill="#D40000" d="M164.672,229.945
		c0.326,2.222,0.318,7.967,0.051,9.666c-0.82,5.206-2.807,7.589-6.139,8.365c-3.233,0.758-7.779-0.084-8.776-4.436l2.705-0.051
		c1.462,2.941,5.164,2.155,7.247,0.876c1.664-1.021,2.415-5.277,2.093-5.539c0,0-3.145,2.33-5.625,2.159
		c-5.299-0.553-7.485-5.149-7.3-9.487c0.169-5.22,1.825-9.395,7.441-9.672c5.34,0.206,7.787,3.117,8.301,8.122l0,0V229.945z
		 M151.502,231.325c-0.029,3.621,1.615,6.337,4.728,6.634c3.11,0.298,6.249-2.737,6.031-6.429c-0.216-3.707-1.652-6.827-5.425-6.809
		C152.779,224.737,151.522,228.746,151.502,231.325L151.502,231.325z"/>
</g>
</svg>
