<?xml version="1.0" encoding="utf-8"?>
<!-- Generator: Adobe Illustrator 16.0.0, SVG Export Plug-In . SVG Version: 6.00 Build 0)  -->
<!DOCTYPE svg PUBLIC "-//W3C//DTD SVG 1.1//EN" "http://www.w3.org/Graphics/SVG/1.1/DTD/svg11.dtd">
<svg version="1.1" id="Layer_1" xmlns="http://www.w3.org/2000/svg" xmlns:xlink="http://www.w3.org/1999/xlink" x="0px" y="0px"
	 width="181px" height="252px" viewBox="0 0 181 252" enable-background="new 0 0 181 252" xml:space="preserve">
<g id="g6746" transform="matrix(0.99553491,0,0,0.99680337,9.2783608,-8.1397402)">
	<path id="rect6690-8" fill="#FFFFFF" stroke="#000000" stroke-width="1.0006" d="M0.837,9.846h161.498
		c4.718,0,8.542,3.82,8.542,8.531v232.387c0,4.71-3.824,8.531-8.542,8.531H0.837c-4.718,0-8.543-3.821-8.543-8.531V18.377
		C-7.706,13.665-3.881,9.846,0.837,9.846z"/>
	<path id="path6722-9" fill="#D40000" d="M6.069,65.824c-1.728-2.855-3.548-5.63-5.821-8
		c2.273-2.37,4.092-5.145,5.821-8c1.728,2.855,3.547,5.63,5.82,8C9.616,60.194,7.797,62.969,6.069,65.824z"/>
	<path id="path6724-6" fill="#D40000" d="M122.999,74.402c-4.149-6.852-8.515-13.511-13.969-19.2
		c5.454-5.689,9.819-12.348,13.969-19.2c4.149,6.852,8.515,13.511,13.969,19.2C131.514,60.891,127.149,67.55,122.999,74.402z"/>
	<path id="path6726-3" fill="#D40000" d="M157.105,219.316c-1.728-2.855-3.549-5.629-5.821-8
		c2.272-2.369,4.092-5.145,5.821-8c1.728,2.855,3.547,5.631,5.819,8C160.652,213.686,158.833,216.461,157.105,219.316z"/>
	<path id="path6728-7" fill="#D40000" d="M40.173,74.402c-4.149-6.852-8.514-13.511-13.969-19.2
		c5.454-5.689,9.819-12.348,13.969-19.2c4.148,6.852,8.514,13.511,13.969,19.2C48.687,60.891,44.321,67.55,40.173,74.402z"/>
	<path id="path6736-0" fill="#D40000" d="M81.586,153.77c-4.149-6.852-8.515-13.512-13.97-19.2
		c5.455-5.689,9.82-12.348,13.97-19.2c4.149,6.852,8.514,13.511,13.968,19.2C90.1,140.258,85.735,146.918,81.586,153.77z"/>
	<path id="path6744-9" fill="#D40000" d="M40.173,233.143c-4.149-6.852-8.514-13.512-13.969-19.2
		c5.454-5.688,9.819-12.348,13.969-19.2c4.148,6.852,8.514,13.512,13.969,19.2C48.687,219.631,44.321,226.291,40.173,233.143z"/>
	<path id="path6746-2" fill="#D40000" d="M122.999,233.149c-4.149-6.852-8.515-13.512-13.969-19.2
		c5.454-5.69,9.819-12.348,13.969-19.2c4.149,6.852,8.515,13.51,13.969,19.2C131.514,219.637,127.149,226.297,122.999,233.149z"/>
	<path id="path21-9-8-2-7" fill="#D40000" d="M-2.254,40.482l2.588-0.025
		c0.493,1.594,1.586,3.213,3.069,3.663c4.19,1.002,6.886-1.383,7.774-4.133c1.076-3.336-0.025-8.02-2.909-9.682
		c-2.39-1.378-5.942-0.216-7.573,2.733l-1.813-1.13l0.973-10.991h11.84v2.598H2.101l-0.152,4.579
		c2.066-1.477,5.24-1.462,7.304-0.425c3.909,1.899,5.726,6.217,4.967,11.307c-1.053,5.062-3.375,7.931-8.614,8.34
		C-0.221,47.369-2.278,43.288-2.254,40.482L-2.254,40.482L-2.254,40.482z"/>
	<path id="path21-3-0-8-6" fill="#D40000" d="M165.425,228.66l-2.59,0.024
		c-0.492-1.593-1.585-3.213-3.068-3.662c-4.191-1.003-6.886,1.383-7.773,4.132c-1.077,3.337,0.024,8.02,2.908,9.683
		c2.392,1.377,5.943,0.216,7.573-2.733l1.813,1.129l-0.973,10.992h-11.84v-2.598h9.596l0.151-4.579
		c-2.064,1.477-5.238,1.462-7.302,0.425c-3.91-1.899-5.727-6.217-4.967-11.308c1.054-5.061,3.374-7.93,8.615-8.339
		c5.827-0.055,7.883,4.027,7.857,6.832l0,0L165.425,228.66z"/>
</g>
</svg>
