<?xml version="1.0" encoding="utf-8"?>
<!-- Generator: Adobe Illustrator 16.0.0, SVG Export Plug-In . SVG Version: 6.00 Build 0)  -->
<!DOCTYPE svg PUBLIC "-//W3C//DTD SVG 1.1//EN" "http://www.w3.org/Graphics/SVG/1.1/DTD/svg11.dtd">
<svg version="1.1" id="Layer_1" xmlns="http://www.w3.org/2000/svg" xmlns:xlink="http://www.w3.org/1999/xlink" x="0px" y="0px"
	 width="181px" height="252px" viewBox="0 0 181 252" enable-background="new 0 0 181 252" xml:space="preserve">
<g id="g11103-4-9" transform="matrix(0.99553774,0,0,0.99680134,-159.99209,318.48631)">
	<g id="g10276-9-9" transform="translate(2751.5683,-1434.2756)">
		<path id="rect10278-0-6" fill="#FFFFFF" stroke="#000000" stroke-width="1.0006" d="M-2580.703,1116.448h161.498
			c4.718,0,8.542,3.82,8.542,8.531v232.386c0,4.712-3.824,8.531-8.542,8.531h-161.498c-4.718,0-8.542-3.819-8.542-8.531v-232.386
			C-2589.245,1120.267-2585.421,1116.448-2580.703,1116.448z"/>
	</g>
	<g id="g10296-8-7" transform="translate(3012.0013,-1064)">
	</g>
	<g id="g10302-2-0" transform="translate(3038.5929,-1083.9055)">
	</g>
	<path id="path10308-5-1" fill="#D40000" d="M210.201-200.36
		c0,0-3.733-6.125-8.769-13.325c-3.369-4.819-6.062-10.037-6.312-14.531c-0.287-5.134,2.431-10.285,7.353-10.534
		c4.918-0.25,6.916,3.958,7.728,7.427c0.813-3.469,2.809-7.677,7.728-7.427c4.922,0.249,7.641,5.4,7.353,10.534
		c-0.25,4.494-2.943,9.712-6.312,14.531C213.935-206.485,210.201-200.36,210.201-200.36z"/>
	<path id="path10310-7-8" fill="#D40000" d="M176.097-261.849
		c0,0-1.779-2.552-4.181-5.552c-1.606-2.008-2.89-4.182-3.01-6.055c-0.136-2.14,1.159-4.285,3.506-4.389
		c2.345-0.104,3.297,1.649,3.684,3.095c0.387-1.446,1.339-3.199,3.684-3.095c2.346,0.104,3.642,2.249,3.506,4.389
		c-0.12,1.872-1.404,4.046-3.01,6.055C177.878-264.401,176.097-261.849,176.097-261.849z"/>
	<path id="path10312-3-5" fill="#D40000" d="M327.133-124.358
		c0,0-1.78,2.552-4.181,5.552c-1.607,2.007-2.891,4.182-3.01,6.055c-0.137,2.139,1.158,4.285,3.505,4.389
		c2.345,0.104,3.297-1.65,3.685-3.095c0.387,1.445,1.339,3.199,3.684,3.095c2.346-0.104,3.642-2.25,3.505-4.389
		c-0.119-1.872-1.404-4.047-3.01-6.055C328.913-121.806,327.133-124.358,327.133-124.358z"/>
	<path id="path10314-8-8" fill="#D40000" d="M251.615-219.16
		c0,0-3.733-6.124-8.769-13.325c-3.37-4.819-6.062-10.036-6.312-14.531c-0.287-5.134,2.431-10.284,7.353-10.534
		c4.918-0.25,6.916,3.959,7.728,7.428c0.812-3.469,2.809-7.678,7.728-7.428c4.922,0.25,7.641,5.4,7.353,10.534
		c-0.25,4.495-2.944,9.712-6.312,14.531C255.348-225.284,251.615-219.16,251.615-219.16L251.615-219.16z"/>
	<path id="path10318-3-7" fill="#D40000" d="M210.201-253.272
		c0,0-3.733-6.125-8.769-13.325c-3.369-4.819-6.062-10.037-6.312-14.531c-0.287-5.134,2.431-10.284,7.353-10.534
		c4.918-0.25,6.916,3.958,7.728,7.427c0.813-3.469,2.809-7.677,7.728-7.427c4.922,0.25,7.641,5.4,7.353,10.534
		c-0.25,4.494-2.943,9.712-6.312,14.531C213.935-259.397,210.201-253.272,210.201-253.272z"/>
	<path id="path10322-4-6" fill="#D40000" d="M293.028-200.36
		c0,0-3.733-6.125-8.77-13.325c-3.369-4.819-6.061-10.037-6.311-14.531c-0.287-5.134,2.431-10.285,7.353-10.534
		c4.918-0.25,6.915,3.958,7.728,7.427c0.812-3.469,2.809-7.677,7.728-7.427c4.922,0.249,7.641,5.4,7.353,10.534
		c-0.25,4.494-2.944,9.712-6.312,14.531C296.761-206.485,293.028-200.36,293.028-200.36z"/>
	<path id="path10324-9-8" fill="#D40000" d="M293.028-253.272
		c0,0-3.733-6.125-8.77-13.325c-3.369-4.819-6.061-10.037-6.311-14.531c-0.287-5.134,2.431-10.284,7.353-10.534
		c4.918-0.25,6.915,3.958,7.728,7.427c0.812-3.469,2.809-7.677,7.728-7.427c4.922,0.25,7.641,5.4,7.353,10.534
		c-0.25,4.494-2.944,9.712-6.312,14.531C296.761-259.397,293.028-253.272,293.028-253.272z"/>
	<path id="path10332-8-6" fill="#D40000" d="M251.615-167.048
		c0,0-3.733,6.125-8.769,13.326c-3.37,4.818-6.062,10.036-6.312,14.53c-0.287,5.134,2.431,10.285,7.353,10.534
		c4.918,0.25,6.916-3.958,7.728-7.427c0.812,3.469,2.809,7.677,7.728,7.427c4.922-0.249,7.641-5.4,7.353-10.534
		c-0.25-4.494-2.944-9.712-6.312-14.53C255.348-160.923,251.615-167.048,251.615-167.048z"/>
	<path id="path10334-5-0" fill="#D40000" d="M293.028-185.847
		c0,0-3.733,6.124-8.77,13.325c-3.369,4.818-6.061,10.036-6.311,14.531c-0.287,5.134,2.431,10.284,7.353,10.534
		c4.918,0.25,6.915-3.959,7.728-7.428c0.812,3.469,2.809,7.678,7.728,7.428c4.922-0.25,7.641-5.4,7.353-10.534
		c-0.25-4.495-2.944-9.713-6.312-14.531C296.761-179.723,293.028-185.847,293.028-185.847z"/>
	<path id="path10336-3-5" fill="#D40000" d="M210.201-185.847
		c0,0-3.733,6.124-8.769,13.325c-3.369,4.818-6.062,10.036-6.312,14.531c-0.287,5.134,2.431,10.284,7.353,10.534
		c4.918,0.25,6.916-3.959,7.728-7.428c0.813,3.469,2.809,7.678,7.728,7.428c4.922-0.25,7.641-5.4,7.353-10.534
		c-0.25-4.495-2.943-9.713-6.312-14.531C213.935-179.723,210.201-185.847,210.201-185.847z"/>
	<path id="path10338-2-9" fill="#D40000" d="M293.028-132.935
		c0,0-3.733,6.124-8.77,13.325c-3.369,4.818-6.061,10.036-6.311,14.531c-0.287,5.134,2.431,10.284,7.353,10.534
		c4.918,0.249,6.915-3.959,7.728-7.428c0.812,3.469,2.809,7.677,7.728,7.428c4.922-0.25,7.641-5.4,7.353-10.534
		c-0.25-4.495-2.944-9.713-6.312-14.531C296.761-126.811,293.028-132.935,293.028-132.935z"/>
	<path id="path10340-9-7" fill="#D40000" d="M210.201-132.935
		c0,0-3.733,6.124-8.769,13.325c-3.369,4.818-6.062,10.036-6.312,14.531c-0.287,5.134,2.431,10.284,7.353,10.534
		c4.918,0.249,6.916-3.959,7.728-7.428c0.813,3.469,2.809,7.677,7.728,7.428c4.922-0.25,7.641-5.4,7.353-10.534
		c-0.25-4.495-2.943-9.713-6.312-14.531C213.935-126.811,210.201-132.935,210.201-132.935z"/>
	<g id="g7724-24-8-9-7" transform="matrix(1,0,0,0.9999803,1980.6157,-1572.2811)">
		<g id="g8345-9-7-5-1">
			<path id="path31-8-2-9-8" fill="#D40000" d="M-1812.534,1291.949v-26.4h2.558v26.4H-1812.534z"
				/>
			<path id="path33-2-3-1-6" fill="#D40000" d="M-1802.39,1265.549
				c-2.463,0-4.443,2.249-4.443,5.045v16.311c0,2.794,1.981,5.044,4.443,5.044h1.438c2.463,0,4.448-2.249,4.448-5.044v-16.311
				c0-2.795-1.985-5.045-4.448-5.045H-1802.39z M-1801.646,1268.045c1.455,0,2.624,1.115,2.624,2.51v16.528
				c0,1.395-1.169,2.521-2.624,2.521s-2.628-1.126-2.628-2.521v-16.528C-1804.274,1269.161-1803.101,1268.045-1801.646,1268.045
				L-1801.646,1268.045z"/>
		</g>
	</g>
	<g id="g7724-2-5-0-2-7" transform="matrix(-1,0,0,-0.9999803,4261.3055,-244.23701)">
		<g id="g8345-5-0-9-6-9">
			<g id="g10963-5-1" transform="translate(-5.30767,-0.32920043)">
				<path id="path31-1-3-2-1-5" fill="#D40000" d="M3931.466-138.061v-26.399h2.559v26.399
					H3931.466z"/>
				<path id="path33-5-5-3-3-1" fill="#D40000" d="M3941.61-164.462
					c-2.463,0-4.443,2.25-4.443,5.045v16.311c0,2.795,1.981,5.045,4.443,5.045h1.438c2.464,0,4.448-2.249,4.448-5.045v-16.311
					c0-2.794-1.985-5.045-4.448-5.045H3941.61z M3942.354-161.965c1.455,0,2.624,1.116,2.624,2.511v16.527
					c0,1.395-1.169,2.522-2.624,2.522c-1.454,0-2.627-1.127-2.627-2.522v-16.527C3939.727-160.849,3940.9-161.965,3942.354-161.965
					L3942.354-161.965z"/>
			</g>
		</g>
	</g>
</g>
</svg>
