<?xml version="1.0" encoding="utf-8"?>
<!-- Generator: Adobe Illustrator 16.0.0, SVG Export Plug-In . SVG Version: 6.00 Build 0)  -->
<!DOCTYPE svg PUBLIC "-//W3C//DTD SVG 1.1//EN" "http://www.w3.org/Graphics/SVG/1.1/DTD/svg11.dtd">
<svg version="1.1" id="Layer_1" xmlns="http://www.w3.org/2000/svg" xmlns:xlink="http://www.w3.org/1999/xlink" x="0px" y="0px"
	 width="181px" height="252px" viewBox="0 0 181 252" enable-background="new 0 0 181 252" xml:space="preserve">
<g id="g11153-5-1" transform="matrix(0.99553774,0,0,0.99680134,-138.64975,318.48631)">
	<g id="g10208-4-1" transform="translate(2465.7221,-1434.2756)">
		<path id="rect10210-5-4" fill="#FFFFFF" stroke="#000000" stroke-width="1.0006" d="M-2316.295,1116.448h161.5
			c4.716,0,8.542,3.82,8.542,8.531v232.386c0,4.712-3.826,8.531-8.542,8.531h-161.5c-4.717,0-8.542-3.819-8.542-8.531v-232.386
			C-2324.837,1120.267-2321.012,1116.448-2316.295,1116.448z"/>
	</g>
	<g id="g10228-2-6" transform="translate(2726.1551,-1064)">
	</g>
	<g id="g10234-4-4" transform="translate(2752.7467,-1083.9055)">
	</g>
	<path id="path10240-7-9" fill="#D40000" d="M188.764-200.36
		c0,0-3.733-6.125-8.77-13.325c-3.369-4.819-6.061-10.037-6.311-14.531c-0.288-5.134,2.431-10.285,7.352-10.534
		c4.919-0.25,6.916,3.958,7.729,7.427c0.812-3.469,2.809-7.677,7.728-7.427c4.921,0.249,7.641,5.4,7.353,10.534
		c-0.25,4.494-2.944,9.712-6.312,14.531C192.496-206.485,188.764-200.36,188.764-200.36z"/>
	<path id="path10242-3-8" fill="#D40000" d="M154.659-261.849c0-0.003-1.779-2.552-4.18-5.552
		c-1.606-2.008-2.891-4.182-3.01-6.055c-0.137-2.14,1.158-4.285,3.505-4.389c2.345-0.104,3.298,1.649,3.684,3.095
		c0.388-1.446,1.34-3.199,3.685-3.095c2.346,0.104,3.642,2.249,3.505,4.389c-0.119,1.872-1.403,4.046-3.01,6.055
		C156.439-264.401,154.661-261.851,154.659-261.849z"/>
	<path id="path10244-4-5" fill="#D40000" d="M305.694-124.358
		c0,0-1.78,2.552-4.18,5.552c-1.607,2.007-2.89,4.182-3.01,6.055c-0.137,2.139,1.159,4.285,3.506,4.389
		c2.344,0.104,3.296-1.65,3.683-3.095c0.388,1.445,1.34,3.199,3.684,3.095c2.346-0.104,3.643-2.25,3.506-4.389
		c-0.12-1.872-1.403-4.047-3.01-6.055C307.474-121.806,305.694-124.358,305.694-124.358z"/>
	<path id="path10250-9-0" fill="#D40000" d="M188.764-253.272
		c0,0-3.733-6.125-8.77-13.325c-3.369-4.819-6.061-10.037-6.311-14.531c-0.288-5.134,2.431-10.284,7.352-10.534
		c4.919-0.25,6.916,3.958,7.729,7.427c0.812-3.469,2.809-7.677,7.728-7.427c4.921,0.25,7.641,5.4,7.353,10.534
		c-0.25,4.494-2.944,9.712-6.312,14.531C192.496-259.397,188.764-253.272,188.764-253.272z"/>
	<path id="path10254-7-3" fill="#D40000" d="M271.59-200.36
		c0,0-3.733-6.125-8.77-13.325c-3.369-4.819-6.062-10.037-6.311-14.531c-0.288-5.134,2.431-10.285,7.353-10.534
		c4.918-0.25,6.916,3.958,7.728,7.427c0.812-3.469,2.809-7.677,7.728-7.427c4.922,0.249,7.64,5.4,7.353,10.534
		c-0.251,4.494-2.943,9.712-6.313,14.531C275.324-206.485,271.59-200.36,271.59-200.36z"/>
	<path id="path10256-4-7" fill="#D40000" d="M271.59-253.272
		c0,0-3.733-6.125-8.77-13.325c-3.369-4.819-6.062-10.037-6.311-14.531c-0.288-5.134,2.431-10.284,7.353-10.534
		c4.918-0.25,6.916,3.958,7.728,7.427c0.812-3.469,2.809-7.677,7.728-7.427c4.922,0.25,7.64,5.4,7.353,10.534
		c-0.251,4.494-2.943,9.712-6.313,14.531C275.324-259.397,271.59-253.272,271.59-253.272z"/>
	<path id="path10258-5-9" fill="#D40000" d="M230.177-173.904
		c0,0-3.733-6.124-8.77-13.325c-3.369-4.818-6.062-10.036-6.312-14.531c-0.287-5.134,2.432-10.284,7.353-10.534
		c4.919-0.249,6.916,3.959,7.729,7.428c0.812-3.469,2.809-7.677,7.727-7.428c4.922,0.25,7.64,5.4,7.353,10.534
		c-0.251,4.495-2.943,9.713-6.313,14.531C233.91-180.028,230.177-173.904,230.177-173.904z"/>
	<path id="path10266-8-9" fill="#D40000" d="M271.59-185.847
		c0,0-3.733,6.124-8.77,13.325c-3.369,4.818-6.062,10.036-6.311,14.531c-0.288,5.134,2.431,10.284,7.353,10.534
		c4.918,0.25,6.916-3.959,7.728-7.428c0.812,3.469,2.809,7.678,7.728,7.428c4.922-0.25,7.64-5.4,7.353-10.534
		c-0.251-4.495-2.943-9.713-6.313-14.531C275.324-179.723,271.59-185.847,271.59-185.847z"/>
	<path id="path10268-2-7" fill="#D40000" d="M188.764-185.847
		c0,0-3.733,6.124-8.77,13.325c-3.369,4.818-6.061,10.036-6.311,14.531c-0.288,5.134,2.431,10.284,7.352,10.534
		c4.919,0.25,6.916-3.959,7.729-7.428c0.812,3.469,2.809,7.678,7.728,7.428c4.921-0.25,7.641-5.4,7.353-10.534
		c-0.25-4.495-2.944-9.713-6.312-14.531C192.496-179.723,188.764-185.847,188.764-185.847z"/>
	<path id="path10270-1-4" fill="#D40000" d="M271.59-132.935
		c0,0-3.733,6.124-8.77,13.325c-3.369,4.818-6.062,10.036-6.311,14.531c-0.288,5.134,2.431,10.284,7.353,10.534
		c4.918,0.249,6.916-3.959,7.728-7.428c0.812,3.469,2.809,7.677,7.728,7.428c4.922-0.25,7.64-5.4,7.353-10.534
		c-0.251-4.495-2.943-9.713-6.313-14.531C275.324-126.811,271.59-132.935,271.59-132.935z"/>
	<path id="path10272-0-7" fill="#D40000" d="M188.764-132.935
		c0,0-3.733,6.124-8.77,13.325c-3.369,4.818-6.061,10.036-6.311,14.531c-0.288,5.134,2.431,10.284,7.352,10.534
		c4.919,0.249,6.916-3.959,7.729-7.428c0.812,3.469,2.809,7.677,7.728,7.428c4.921-0.25,7.641-5.4,7.353-10.534
		c-0.25-4.495-2.944-9.713-6.312-14.531C192.496-126.811,188.764-132.935,188.764-132.935z"/>
	<path id="path29-5-8-5-4" fill="#D40000" d="M147.283-285.447l2.415-0.765
		c0.912,2.434,2.753,3.155,4.701,2.999c3.495-0.279,4.657-4.186,4.917-7.64c-1.362,1.444-3.408,2.178-5.151,2.103
		c-5.573-0.299-6.999-4.759-7.051-9.428c-0.152-3.936,1.475-6.788,4.267-8.097c1.478-0.663,4.864-0.663,6.352,0.122
		c3.416,1.802,4.681,4.913,4.452,12.345c0,6.113-1.298,13.233-7.85,13.388C150.55-279.895,147.672-282.841,147.283-285.447
		L147.283-285.447L147.283-285.447z M156.77-292.146c1.136-0.719,1.776-1.395,2.287-2.406c0.418-0.831,0.562-1.264,0.442-2.982
		c-0.31-4.432-2.633-6.948-6.003-6.449c-1.879,0.283-2.908,1.334-3.498,3.29c-1.09,3.618,0.292,7.848,2.88,8.823
		C154.043-291.429,155.842-291.557,156.77-292.146L156.77-292.146L156.77-292.146z"/>
	<path id="path29-6-2-3-6-6" fill="#D40000" d="M313.069-100.761l-2.415,0.766
		c-0.912-2.435-2.753-3.155-4.701-2.999c-3.495,0.278-4.657,4.186-4.917,7.64c1.362-1.445,3.408-2.178,5.151-2.103
		c5.572,0.299,6.998,4.758,7.051,9.428c0.151,3.936-1.475,6.788-4.267,8.097c-1.479,0.663-4.864,0.663-6.354-0.122
		c-3.414-1.802-4.679-4.914-4.451-12.345c0-6.113,1.299-13.233,7.852-13.389C309.803-106.312,312.679-103.367,313.069-100.761
		L313.069-100.761L313.069-100.761z M303.582-94.062c-1.138,0.72-1.777,1.395-2.288,2.406c-0.418,0.831-0.563,1.265-0.441,2.982
		c0.31,4.432,2.631,6.949,6.002,6.45c1.879-0.283,2.909-1.335,3.5-3.291c1.089-3.617-0.294-7.848-2.882-8.822
		C306.31-94.778,304.508-94.651,303.582-94.062L303.582-94.062L303.582-94.062z"/>
</g>
</svg>
