<?xml version="1.0" encoding="utf-8"?>
<!-- Generator: Adobe Illustrator 16.0.0, SVG Export Plug-In . SVG Version: 6.00 Build 0)  -->
<!DOCTYPE svg PUBLIC "-//W3C//DTD SVG 1.1//EN" "http://www.w3.org/Graphics/SVG/1.1/DTD/svg11.dtd">
<svg version="1.1" id="Layer_1" xmlns="http://www.w3.org/2000/svg" xmlns:xlink="http://www.w3.org/1999/xlink" x="0px" y="0px"
	 width="181px" height="252px" viewBox="0 0 181 252" enable-background="new 0 0 181 252" xml:space="preserve">
<g id="g6155" transform="matrix(0.99999718,0,0,1.000002,-5.9698507,-6.5473594)">
	<path id="rect6355-6-85-90-3-5" fill="#FFFFFF" stroke="#000000" stroke-width="0.9967" d="M16.081,8.222h160.777
		c4.697,0,8.504,3.807,8.504,8.504V248.37c0,4.695-3.807,8.504-8.504,8.504H16.081c-4.697,0-8.504-3.809-8.504-8.504V16.726
		C7.577,12.028,11.384,8.222,16.081,8.222z"/>
	<path id="path163-0-2-7-7-1-8-7-00-1-2" fill="#D40000" d="
		M21.289,64.021c0,0-1.771-2.544-4.161-5.535c-1.6-2.001-2.878-4.168-2.997-6.034c-0.136-2.133,1.154-4.271,3.49-4.375
		c2.335-0.104,3.282,1.644,3.668,3.084c0.386-1.44,1.334-3.188,3.668-3.084c2.336,0.104,3.627,2.242,3.49,4.375
		c-0.118,1.866-1.397,4.033-2.996,6.034C23.062,61.478,21.289,64.021,21.289,64.021z"/>
	<path id="path163-0-2-7-7-1-8-1-9-4-6-8" fill="#D40000" d="
		M171.65,201.073c0,0-1.771,2.545-4.16,5.535c-1.6,2.002-2.879,4.168-2.996,6.035c-0.137,2.131,1.152,4.271,3.488,4.375
		s3.283-1.645,3.67-3.086c0.385,1.441,1.332,3.189,3.668,3.086s3.625-2.244,3.488-4.375c-0.117-1.867-1.396-4.033-2.996-6.035
		c-2.389-2.99-4.16-5.535-4.16-5.535H171.65z"/>
	<path id="path39-51-8-0-0" fill="#D40000" d="M22.219,42.679h2.644l-3.884-9.717l-2.968,4.104
		l0.021,5.612h2.084v2.895h-7.345v-2.895h2.42V21.782l-2.42,0.009v-2.529h7.452v2.615h-2.057l-0.044,10.185l6.505-10.271h-2.296
		v-2.529h7.927v2.529h-2.092l-5.355,8.394l5.244,12.498h2.328l0.012,2.895h-8.152L22.219,42.679L22.219,42.679z"/>
	<path id="path39-3-9-6-0-8" fill="#D40000" d="M171.015,222.42h-2.645l3.885,9.717l2.967-4.104
		l-0.021-5.613h-2.082v-2.895h7.344v2.895h-2.42v20.896l2.42-0.01v2.531h-7.451v-2.615h2.055l0.045-10.186l-6.504,10.27h2.295v2.531
		h-7.928v-2.531h2.092l5.355-8.393l-5.244-12.498h-2.326l-0.012-2.895h8.15L171.015,222.42L171.015,222.42z"/>

		<path id="path3876-2-1-7" fill="#E2CF00" d="
		M72.117,219.161c13.955,1.623,28.261,2.004,42.974,0.932c3.807,5.305,11.449,16.119,11.449,16.119l-69.252,0.566L72.117,219.161z
		 M54.134,222.854c1.856-3.779,2.216-7.42,1.862-12.67c-0.279-4.027,2.219-7.164,4.796-5.963c1.992,0.93,1.072,4.74-0.988,3.936
		c-0.788-0.309-1.479-0.029-1.375,1.781c0.185,4.461,1.362,9.484,0.35,13.76C58.072,227.854,52.409,225.94,54.134,222.854z
		 M36.735,217.028c-2.188-3.312,1.732-6.414,4.187-4.887c1.164,0.549,0.999,1.744-0.468,1.107c-2.047-0.889-4.251,2.258-2.47,3.521
		c0.82,0.582,1.133,0.504,0.509-0.225c-1.66-1.947,2.587-2.809,2.464-1.525c-0.29,1.562-0.326,2.221-0.468,2.527
		C39.624,218.913,37.962,218.215,36.735,217.028z M42.837,203.102c-2.363-2.975,0.346-5.316,0.311-5.23
		c0.701-0.766-5.631-12.674-4.83-12.752c7.996-0.859,16.078-0.211,24.091,0.041c0,0.002-4.272,7.754-5.976,11.59
		c-0.687,1.545,0.918,3.365,0.254,4.514c-2.062,2.273-0.78,4.793-2.066,4.908c-3.299-0.625-6.808-0.988-11.067-0.047
		C43.229,206.098,43.279,204.112,42.837,203.102L42.837,203.102z M77.45,120.366c4.043,20.765-1.918,42.779-15.584,57.3
		c-1.929-1.871-3.408-5.42-5.332-7.736c-5.341-1.617-9.184,0.287-12.928,2.152c-3.328-1.936-7.076-3.072-10.729-3.023l-0.118-3.213
		c3.696-0.08,7.601,0.266,10.892,2.32l5.15-2.109l-16.06-16.811l0.218-2.873l19.486,19.84l2.51,0.09
		C49.442,151.51,54.266,128.015,77.45,120.366L77.45,120.366z M104.622,146.413l2.816,13.561c0,0-15.799,15.803-24.103,23.875
		l-6.938-0.637c3.465-5.203,5.438-10.465,7.74-15.713L104.622,146.413z M160.614,165.012c-6.615,7.475-14.518,12.227-23.295,17.463
		c-3.51-3.957-7.77-8.307-10.229-12.207c7.658-4.129,14.957-7.328,22.455-14.555c-0.41,0.465-9.564,3.602-9.535,3.24
		c-0.33,1.543-0.131,2.494-1.621,2.9c-1.764-2.486-3.469-4.504-6.248-5.613c-1.166,0.105-2.715-0.672-2.715-0.672
		c0.779-0.162,0.436-9.699,0-9.809c0.854-0.279,1.717-0.941,2.893,0.371c0.545,0.369,5.82-4.992,7.617-6.824
		c7.051-0.586,13.299,0.115,20.246-0.074c-0.055,8.488,0.432,17.289,0.43,25.779H160.614z M115.832,143.512
		c-0.177-0.359-1.957-14.425-0.267-23.247c4.643-14.844,3.459-18.979,15.457-33.578c0.791-0.78,3.549,1.733,5.611,6.079
		c5.988,3.808,13.666-1.106,13.666-1.106s2.98,2.456,9.721,3.798l-0.115,2.643c-0.035,0.769-7.58-0.818-9.205-2.352
		c0,0-5.652,1.901-5.652,2.249c0,1.48,15.055,15.522,15.055,15.522l-0.086,3.293c0.098,0.004-20.639-21.712-20.908-19.438
		C144.978,122.878,134.991,135.797,115.832,143.512L115.832,143.512z M90.895,139.03l-0.335-13.491l12.701,0.152l0.523,13.631
		L90.895,139.03z M32.777,124.447c0.34-0.479-0.494-25.143-0.441-25.143c8.083-8.122,15.989-12.661,23.916-17.599
		c3.584,3.585,6.63,6.61,9.271,10.954l-10.936,6.803c0.416,1.658-0.663,2.256,6.387,8.711c0.119-0.441,2.441-1.756,2.847,0.21
		c-0.954,4.149,0.424,7.677,0.605,9.907c-0.963,1.307-3.114-0.097-3.114-0.097c-1.394-1.466-6.85,5.772-8.408,6.582
		C46.105,124.52,32.396,124.985,32.777,124.447z M109.184,80.594c0.047,0.084,6.993,0.012,6.929,0.174
		c-1.264,3.128-4.143,9.353-7.029,16.24c-2.411,4.01-19.656,20.707-19.656,20.707c-0.817-4.844-2.046-9.569-3.326-14.279
		L109.184,80.594z M139.153,57.342c2.498,1.077,9.521,0.514,10.637,0.029c1.428,0.979,0.537,2.284,0.355,3.01
		c1.467,1.875,2.27,2.54,0.604,5.563c-0.379,0,5.119,12.511,5.268,12.52c0,0-5.812-2.787-7.861-4.669l-4.008,5.386l-4.658-6.082
		c-0.016,0.549-8.973,6.554-9.082,6.265c-0.281-0.286,8.18-9.489,6.502-14.893c-0.404-1.303,0.521-2.626,1.154-3.773
		C138.497,59.91,137.913,58.389,139.153,57.342L139.153,57.342z M134.503,56.221c0.379-0.44-2.172-11.753,0.594-16.318
		c1.172-1.66,3.291-1.745,4.176-0.386c0.678,1.89-1.34,4.521-1.744,5.807c-1.311,3.581,0.637,8.305-0.314,11.688
		C134.368,64.403,129.325,56.284,134.503,56.221L134.503,56.221z M153.452,51.197c-1.5,0.065-0.451-4.466-0.205-5.764
		c-0.008-0.257,2.746-0.905,3.738,0.876C158.587,48.974,156.661,52.333,153.452,51.197L153.452,51.197z M135.56,28.353
		l-14.133,17.371c-14.291-1.662-28.633-2.719-43.246-0.458L66.429,28.696L135.56,28.353z"/>

		<path id="path3874-3-1-4" fill="#131F67" d="
		M161.777,27.284H31.163v210.525h130.613V27.284z M135.425,28.378L119.77,47.842l-0.386,0.131c1.043,3.088,2.533,6.938,3.955,9.863
		c2.264,4.727,7.955,13.411,4.404,20.359c-0.348,0.596-0.672,0.886-1.107,0.884c-0.602-0.004-0.592-0.361-0.232-1.059
		c0.791-1.534,1.328-5.173,1.012-7.099c-0.201-1.229-0.877-3.123-2.16-5.987c-5.949-11.104-7.809-17.022-7.471-17.022
		c-0.077-0.051-0.211-0.119-0.428-0.171l-0.584-0.196c2.062,7.02,5.412,12.922,8.062,18.386c2.174,5.078,2.408,7.049,1.271,10.746
		c-0.441,1.431-1.236,2.348-2.02,2.344c-0.586-0.003-0.553-0.122-0.152-0.849c2.084-3.781,1.602-7.908-0.988-12.71
		c-3.763-7.93-6.021-12.947-7.36-18.034c-0.034-0.002-0.687-0.224-0.922-0.28c1.116,5.295,4.234,11.402,7.136,17.651
		c2.4,4.813,3.092,8.32,2.227,11.091c-0.283,1.201-1.189,2.989-2.334,3.042c-0.447-0.002-0.518-0.238-0.094-0.856
		c1.777-3.082,2.094-5.925-1.088-12.396c-2.926-5.95-5.861-12.608-6.864-18.426c-0.063-0.478-1.335-1.043-1.062-0.252
		c1.57,6.871,4.699,13.907,8.02,20.767c1.871,4.258,2.064,6.983,0.662,9.366c-0.785,1.332-0.986,1.635-1.573,1.647
		c-0.695,0.016-0.683,0.042-0.299-0.769c1.696-3.581,1.417-6.736-0.851-11.911c-3.109-7.098-5.729-12.971-6.848-19.217
		c-0.201-0.059-1.254-0.472-1.104-0.159c1.555,5.95,3.546,11.473,6.111,17.059c0.894,1.937,2.342,5.706,2.81,7.595
		c0.886,3.596-1.112,8.532-3.729,8.781c-0.976,0.093-0.854-0.399,0.232-1.423c1.872-1.762,2.234-4.571,1.6-7.831
		c-0.477-2.51-1.299-5.203-2.428-7.94c-2.283-5.534-4.769-11.325-5.555-16.434c0.025-0.458-1.02-0.459-0.725,0.02
		c0.564,3.592,1.913,7.683,3.39,11.481c1.616,4.157,4.021,8.814,4.808,13.916c0.645,4.174-1.93,8.114-5.054,8.35
		c-3.763,0.284-4.503-3.483-3.599-5.25c1.477-2.637,5.765-1.131,4.49,1.565c-0.734,1.552-2.975,1.145-2.879-0.558
		c-0.025-0.155,0.215-0.622,0.172-0.647c-0.077-0.046-0.406,0.259-0.512,0.449c-0.761,1.379,1.526,3.228,3.115,2.12
		c5.327-2.92,1.73-11.824-0.592-17.264c-2.248-5.067-3.896-9.647-4.611-14.338c-0.193-0.137-1.073-0.362-0.95-0.201
		c0.646,2.504,0.942,4.615,1.585,6.719c1.006,3.3,2.811,6.992,4.283,10.691c1.337,3.641,2.68,6.733,2.068,10.529
		c-0.057,0.351-0.199,0.771-0.436,1.026c-0.238,0.254-0.437,0.215-0.508-0.752c-0.023-0.131-0.191-0.305-0.217-0.473
		c0.131-1.426,0.035-2.84-0.328-4.181c-0.312-1.124-0.905-2.271-2.157-4.453c-0.494-0.812-1.786-3.297-1.333-1.58
		c0.26,0.972,1.146,3.129,2.069,4.692c0.573,0.97,1.175,3.619,0.997,4.131c-0.188,0.5-0.625,0.528-0.829,0.356
		c-0.183-0.155-0.182-0.864-0.229-1.302c-0.193-1.8-2.013-4.94-3.275-6.174c-0.906-1.024,2.137,4.356,2.359,5.79
		c0.095,0.607,0.281,1.101,0.076,1.398c-0.135,0.196-0.408,0.197-0.676,0.128c-0.257-0.066-0.246-0.247-0.519-1.17
		c-0.467-1.581-1.044-2.377-2.241-3.802c-0.41-0.488-0.684,0.123-0.03,0.915c0.903,1.444,1.583,2.368,1.813,4.228
		c-0.586,0.842-0.874,0.678-2.1-1.453c-0.81-1.408-1.296-1.77-1.508-1.76c-0.537,0.026-0.031,0.699,1.477,3.104
		c0.781,1.283,0.8,2.081-0.088,2.076c-0.301-0.001-1.986-1.879-2.408-2.692c-0.35-0.676-0.785-1.193-0.786-0.368
		c0,0.327,1.044,2.055,1.76,2.895c1.128,1.322,1.452,1.588,1.596,2.174c0.069,0.279,0.205,0.768,0.302,1.085
		c0.289,0.952,0.143,1.224-0.443,0.721c-0.265-0.705-0.479-0.778-1.206-1.321c-0.612-0.458-1.462-1.644-2.02-2.48
		c-0.21-0.315-0.392-0.716-0.606-1.038c-0.547-1.034-1.273-1.124-0.747-0.08c0.249,0.483,0.651,1.277,1.075,1.866
		c0.709,1.021,0.562,1.555-0.279,1.55c-0.359-0.001-1.367-1.338-1.996-2.383c-0.41-0.682-1.053-1.163-0.974-0.488
		c0.019,0.168,0.516,1.365,1.26,2.302c0.809,1.018,0.915,1.558,0.13,1.554c-0.535-0.002-0.997-0.52-1.68-1.573
		c-0.648-1.001-1.054-1.354-1.237-1.24c-0.232,0.145,0.931,2.129,1.886,3.213c0.904,1.025,0.241,1.608-0.797,0.697
		c-0.564-0.494-1.692-1.969-2.009-2.67c-0.565-1.253-0.93-0.911-0.564,0.082c0.402,1.094,1.03,2.291,1.79,3.068
		c0.398,0.407,1.219,0.728,1.619,1.077c1.134,0.993,1.852,1.909,1.76,2.073c-3.234,0.185-5.89-3.307-6.616-5.421
		c-0.516-1.39-1.104-1.595-0.546,0.368c1.577,4.876,6.492,7.409,9.891,5.224c2.051-1.319,0.239-4.754-1.439-3.646
		c-0.455,0.301-0.477,1.153,0.104,0.697c1.09-0.857,2.187,1.258,0.996,1.884c-1.672,0.879-3.527-0.843-2.39-2.93
		c1.124-2.144,5.631-0.917,4.749,2.546c-0.534,1.554-2.873,3.496-4.879,3.534c-3.726,0.071-6.299-2.819-7.733-5.674
		c-0.184-0.367-0.514-1.089-0.786-1.677c-0.235-0.509-0.422-0.887-0.441-0.883c0.415,3.465,3.688,7.75,6.617,8.458
		c4.869,1.158,6.201-1.778,9.387-4.812c0,0,2.328,0.306,2.409,0.255c0.214-0.133,4.528-0.328,4.657-0.205
		c-17.431,31.973-16.104,69.93-1.115,98.741c0.992,2.107,1.164,1.709-0.477,1.279c-1.695-0.447-3.234,0.24-4.611-0.082
		c-2.85-0.588-3.457,1.379-5.646,2.43c-2.73,1.043-2.113,2.965-2.764,4.82c-0.205,0.287-0.354,0.523-0.242,0.484
		c0.182-0.061,0.764-0.605,0.807-1.084c0.113-1.229,0.546-2.201,1.039-2.689c0.471-0.467,0.799-0.701,0.912-0.5
		c0.089,0.156,0.022,0.707-0.21,1.15c-0.662,1.266,0.216,5.502,0.271,2.486c0.043-2.391,1.477-5.059,3.481-6.15
		c1.605-0.795,2.103-0.713,0.796,0.51c-1.485,1.602-2.494,3.467-2.554,5.789c-0.024,0.963,0.354,1.766,0.488,0.902
		c-0.057-4.422,4.311-9.346,8.992-6.898c0.232,0.17,0.43,0.492,0.361,0.672c-4.535-0.77-8.48,1.736-7.898,7.672
		c0,0,0.406-1.162,0.635-2.324c0.715-3.633,4.777-5.225,7.628-4.227c0.536,0.227,0.957,0.992,0.882,1.096
		c-3.485-1.107-7.311,2.227-7.532,5.836c-0.071,1.174-0.044,2.18,0.55,0.062c2.25-8.021,9.193-4.387,8.34-3.729
		c-5.373-0.648-7.318,3.01-7.194,7.238c0.077,0.387,0.273,0.516,0.435,0.877c0.717,1.594,1.042,2.959,1.1,5.852
		c-0.055,0.744,0.555,5.486-0.059,5.287c-1.952-0.73-3.436-1.594-6.817-0.055c-0.305,0.018-0.404-0.152-0.3-0.42
		c0.141-0.359,0.67-1.068,1.592-2.117c2.076-2.24,0.883-1.639-0.824-0.086c-1.104,1.004-0.863,0.318,0.176-3.109
		c0.421-1.389,0.158-1.557-1.654-2.488c-1.865-0.959-3.156-1.105-1.572-0.102c0.621,0.385,1.283,0.787,1.987,1.072
		c0.825,0.457,0.731,0.648,0.122,2.65c-1.184,3.889-1.596,5.311-1.533,7.926c0.15,6.363,6.145,5.732,9.557,4.301l0.143,4.189
		l12.85,18.311c0,0-44.921-0.047-68.954,0.352c1.373-3.334,15.901-17.453,16.767-19.979c0.083,0.012-1.61-5.162-2.5-7.414
		c-4.202-10.629-9.726-15.098-6.527-22.08c0.688-1.385,0.809-1.85,1.331-1.848c0.71,0.002,0.938,0.48,0.139,1.834
		c-3.435,5.826,3.894,15.877,6.369,22.289c0.396,1.027,2.055,5.838,2.347,7.459c0.027,0.494,1.19,0.664,0.865,0.084
		c-0.913-3.275-2.059-6.854-2.591-8.141c-1.957-4.734-4.015-7.963-5.922-12.59c-1.066-2.924-1.633-6.301,0.02-9.332
		c0.602-1.104,0.773-1.717,1.171-1.773c0.342,0,0.543,0.119,0.565,0.402c0.023,0.311-0.165,0.818-0.615,1.592
		c-2.887,4.973,2.245,13.006,4.787,18.732c1.658,3.734,3.132,7.662,3.653,11.203c0.008,0.244,0.327,0.893,0.963,0.451
		c-1.1-6.617-4.332-13.031-7.164-19.213c-2.418-4.828-3.326-9.039-0.094-13.014c0.281-0.275,0.885-0.229,0.928,0.178
		c0.023,0.277-0.186,0.801-0.691,1.861c-2.848,6.023,1.562,10.918,3.631,16.662c2.019,4.803,3.896,8.836,4.649,13.953
		c0.571,0.221,0.854,0.494,0.915-0.23c-1.477-7.23-4.659-13.73-7.42-19.992c-1.275-2.721-1.727-4.025-1.812-5.848
		c-0.119-2.506,1.127-5.678,2.245-6.514c0.29-0.217,0.471-0.254,0.735-0.109c0.363,0.199,0.29,0.332-0.427,1.705
		c-1.371,2.623-1.488,5.568-0.218,8.684c2.194,4.785,4.043,8.713,5.354,12.23c1.434,3.848,2.239,7.189,2.564,10.205
		c0,0,0.977,0.439,0.831-0.217c-0.608-4.219-1.986-8.598-3.474-12.303c-1.403-3.498-3.162-6.863-4.588-10.33
		c-1.729-4.158-0.297-8.703,3.248-10.973l1.631,0.035c-0.095-0.043-3.72,1.414-3.91,6.656c-0.181,4.994,2.158,8.064,3.849,12.295
		c2.062,5.104,3.905,9.578,4.345,15.031c0.161,0.189,1.054,0.23,1.039,0.15c-0.439-3.668-1.497-7.156-3.01-11.441
		c-1.606-4.557-3.204-6.576-4.695-11.359c-1.009-3.234-0.873-7.617,1.374-9.621c3.363-3.438,8.056-0.99,6.88,2.945
		c-0.907,2.77-4.656,2.219-4.637-0.377c-0.008-1.676,2.034-2.129,2.709-0.863c0.156,0.246,0.262,1.324,0.332,1.363
		c0.07,0.041,0.281-0.848,0.282-1.045c0.008-1.377-1.84-2.537-3.214-1.838c-1.883,0.957-3.105,3.158-2.982,6.104
		c0.132,3.133,0.693,5.16,3.228,10.074c2.952,5.725,3.932,11.924,4.562,16.1c0.272-0.115,0.6,0.033,0.705,0
		c-0.43-5.693-2.279-11.543-4.586-16.406c-2.794-5.889-3.576-9.492-2.645-12.131c0.138-0.389,0.268-0.68,0.436-0.705
		c0.312-0.047,0.409,0.457,0.699,1.516c0.088,0.324-0.023,0.834-0.088,1.229c-0.244,2.414,1.43,7.438,2.984,9.672
		c0.456,0.637,1.038,0.615,0.535-0.516c-1.603-2.92-2.578-5.566-2.707-9.115c-0.037-1.043,1.163-0.574,1.19-0.051
		c0.087,1.695,0.254,3.691,1.055,5.113c1.625,2.811,2.529,2.934,0.866-0.207c-0.369-0.729-1.426-3.807-1-4.867
		c0.237-0.215,0.525-0.254,0.668-0.037c0.471,1.74,1.121,3.463,2.271,4.805c0.604,0.697,0.703,0.383,0.386-0.488
		c-0.53-1.008-2.188-4.379-1.424-5.139c0.246-0.205,0.102-0.094,0.771,1.012c0.932,1.539,1.44,2.143,1.894,2.592
		c0.602,0.6,0.748,0.195,0.125-0.855c-1.243-2.102-1.951-3.848-1.514-4.287c0.432-0.434,0.536-0.234,1.518,1.457
		c0.438,0.754,1.07,1.861,1.287,2.125c0.215,0.26,0.411,0.326,0.416,0.111c-0.229-2.041-1.963-4.369-2.661-4.773
		c-0.101-0.189-0.064-1.803-0.064-1.803c2.604,1.357,2.71,2.887,4.436,5.244c0.178,0.174,0.431-0.039,0.355-0.365
		c-0.061-0.441-1.082-2.402-1.722-3.262c-0.504-0.678-0.526-1.064-0.1-1.26c0.69-0.316,1.654,0.721,2.68,2.572
		c0.477,0.859,1.113,1.357,1.115,0.906c0-0.248-0.885-2.463-1.496-3.104c-1.02-1.066-0.516-1.812,0.664-0.824
		c0.535,0.447,1.26,0.783,2.008,2.414c0.437,0.951,0.812,1.072,0.812,0.312c0-0.852-1.417-2.938-2.37-3.514
		c-0.739-0.447-1.158-0.945-0.95-1.279c0.646-0.961,3.267,1.492,4.16,3.775c0.265,0.672,0.727,1.016,0.84,0.721
		c0.201-0.152-0.329-1.797-0.874-2.559c-0.898-1.74-3.023-3.424-4.283-3.221c-0.243,0.041-0.912-1.387-0.912-1.387
		c3.212-0.523,6.332,3.363,6.887,4.816c1.054,2.76,1.589,2.438,0.668,0.016c-1.8-4.73-7.392-7.379-10.494-5.092
		c-1.767,1.303-0.71,4.42,1.107,3.893c0.723-0.275,1.423-1.02,0.151-0.773c-1.413,0.143-1.864-2.031-0.423-2.467
		c2.318-0.703,2.851,3.031,0.978,3.863c-1.943,0.842-3.878-0.414-3.695-2.57c0.344-4.074,5.298-5.252,10.188-1.957
		c1.376,0.928,3.067,3.949,3.649,5.863c0.192,0.633,0.84,0.854,0.92,0.775c0.186-0.188-1.358-3.551-1.867-4.406
		c-2.129-4.928-9.828-5.17-9.828-4.916c0,0-3.016,1.918-5.693,5.078l-6.882-0.641c17.532-28.447,18.91-70.273,0.927-99.882
		c0.23,0.15,3.457,0.994,4.57,0.109c0.82-0.397,1.056-0.535,1.962-0.206c1.021,0.371,2.096,0.043,3.206-0.984
		c0.838-0.773,0.854-1.012,1.394-0.941c1.597,0.209,2.657-0.734,2.985-3.062c0.129-0.914,0.218-1.863,0.088-1.725
		c-0.075,0.081-0.261,0.872-0.378,1.368c-0.323,1.367-0.622,1.868-1.149,2.313c-0.868,0.734-1.369,0.324-1.008-0.79
		c0.344-0.72,0.629-2.569,0.157-3.41c-0.083-0.151-0.103,0.421-0.222,0.88c-0.947,3.645-1.94,5.495-3.658,5.923
		c-0.807,0.2-1.18,0.076-0.919-0.394c3.03-3.262,2.828-6.878,2.6-6.568c-0.644,2.092-1.841,5.209-3.806,6.491
		c-1.697,1.106-4.184,1.212-5.566,0.282c-0.785-0.527,0.401-0.684,2.179-0.708c2.993-0.04,5.791-4.079,5.326-7.483
		c-0.109-0.629-0.279,0.046-0.522,1.081c-1.104,3.687-2.999,6.275-7.326,5.503c-0.338-0.061-0.563-0.286-0.748-0.415
		c-0.704-0.493-0.445-0.832,0.954-0.647c3.13,0.413,5.854-2.551,5.837-6.134c-0.008-1.719-0.252-1.699-0.522-0.419
		c-0.381,1.806-1.771,7.342-6.833,5.534c-0.912-0.5-1.409-1.139-1.085-1.232c2.952,0.602,5.658-0.054,6.71-3.972
		c0.453-1.692,0.345-3.344-0.117-4.728c-0.146-0.94-0.459-1.657-0.564-2.612c-0.283-2.559-0.687-5.384-0.565-8.184
		c0.242-0.244,0.284-0.19,1.134,0.379c1.668,1.12,2.931,0.862,4.627,0.198c2.183-0.797,1.984-0.652-0.298,1.953
		c-0.476,0.543-0.957,1.206-1.012,1.31c-0.581,1.1,0.509,0.292,1.325-0.744c1.134-1.44,1.371-1.772,1.596-1.771
		c0.075,1.557-0.48,3.448-0.768,4.724c-0.377,1.414-0.372,1.741,0.52,2.104c0.386,0.157,1.131,0.467,1.546,0.667
		c1.866,0.901,1.694,0.168,0.206-0.683c-2.01-1.146-2.026-1.089-1.451-2.995c0.674-2.235,1.006-4.17,1.371-6.382
		c0.902-5.47-3.181-8.479-8.604-6.568c-0.311,0.157-0.669-2.875-0.618-3.678c0.048-0.289-0.82-0.226-1.531-1.108
		c0.217-0.195-7.997-10.596-11.822-16.902C90.426,28.817,113.886,28.32,135.425,28.378L135.425,28.378z M117.784,47.912
		c0.053,0.033,0.084,0.062,0.084,0.062C117.833,47.932,117.805,47.912,117.784,47.912z M136.376,28.865h23.633v50.299l-2.336,0.051
		c0,0-3.84-6.677-4.852-9.831c-0.254-0.788-0.695-1.872-0.867-2.298c-0.391-0.966-0.664-1.085-0.145-1.675
		c1.039-1.181,0.834-3.568-0.176-4.72c-0.312-0.373-0.475-0.247-0.459-1.154c0.014-0.78,0.086-1.279-0.117-1.682
		c-0.342-0.673-0.572-0.721-0.084-1.461c0.512-0.776,1.189-2.034,1.477-3.022c0.463-1.596,0.137-1.895,1.168-1.52
		c2.59,0.833,4.756-1.033,4.689-3.672c-0.057-2.221-2.111-4.201-4.502-3.594c-0.551,0.14-0.66,0.092-1.508-0.445
		c-0.242-0.154-0.613-0.48-0.928-0.602c-0.393-0.151-0.719-0.138-0.881-0.422c-0.322-0.558-1.32-1.444-2.539-1.388
		c-0.744,0.035-1.711-0.236-1.967-0.372c-0.424-0.224-1.615-0.041-3.129-0.271c-0.674-0.103-1.217,0.162-1.543,0.166
		c-0.932,0.012-0.553-0.104-0.729-0.821c-1.17-3.734-4.582-3.289-6.146-0.48c-0.574,1.102-0.99,2.737-1.207,4.426l-9.191-0.14
		L136.376,28.865z M65.234,28.975c3.434,4.415,6.72,9.364,10.182,13.872c4.26,5.46,4.4,6.088,3.256,11.583
		c-0.64,3.105-0.914,3.823-2.211,3.588c-1.217-0.22-2.246,0.747-2.412,1.973c-0.312,2.3,1.881,3.716,4.085,2.565
		c1.161-0.606,1.2-0.672,0.812,1.333c-0.555,2.873-1.666,5.347-2.382,5.267c-1.847-3.964-6.341-1.144-4.849,2.977
		c-0.467,0.719,0.146,1.631,0.382,2.384c0,0,0.01,0.09-2.558,0.948C56.937,79.235,41.55,89.08,33.027,98.322V29.164L65.234,28.975z
		 M137.552,38.41c0.527-0.014,1.037,0.157,1.457,0.538c1.1,0.998,0.842,2.393-0.68,5.019c-1.594,3.658-1.158,6.54-0.793,10.382
		c-0.012,2.23-0.756,4.35-1.943,5.266c-1.924,1.485-4.297-0.504-3.299-2.519c0.512-1.001,1.598-0.418,1.852-1.364
		c0.352-3.492-0.506-7.055-0.564-10.482c0.02-1.535,0.518-3.464,1.205-4.909c0.674-1.205,1.756-1.904,2.764-1.93H137.552z
		 M140.581,44.379c-0.436,0.367-1.164,0.375-1.248-0.084c0-0.481,0.373-2.015,0.631-2.185
		C141.54,41.738,141.038,43.981,140.581,44.379z M142.937,41.986c1.303-0.051,2.162,3.318,1.031,5.29
		c-0.215,0.041-1.793,0.03-1.801,0.062c-0.027-0.353,0.076-1.055,0.193-1.728c0.102-0.576,0.16-1.014-0.01-1.632
		c-0.428-1.544-0.707-1.834,0.588-1.992H142.937z M145.419,42.033c0.047-0.002,0.098,0,0.152,0c1.322,0.007,2.076,2.591,1.66,5.413
		c-0.059,0.406-0.094,0.831-0.24,0.927c-0.553-0.151-2.088,0.402-2.113,0.397c-0.146-0.149-0.086-0.952,0.109-1.677
		c0.363-1.339,0.463-2.23,0.039-3.615C144.72,42.281,144.708,42.054,145.419,42.033L145.419,42.033z M148.714,42.777
		c1.453,0.247,1.547,4.319,0.949,5.642c-0.143,0.195-0.689,0.148-0.885,0.222c-1.236,0.357-0.961,0.544-0.816-1.446
		c0.098-1.365,0.121-2.426-0.08-3.553c-0.1-0.495-0.139-0.84,0.217-0.872C148.306,42.728,148.525,42.734,148.714,42.777
		L148.714,42.777z M141.464,44.37c0.578,0.802,0.113,2.659-0.328,3.349c-0.504,0.761-0.707,0.824-0.432,1.158
		c0.117,0.141,0.359,0.86,0.211,1.162c-0.277,0.559,0.434,0.659,1.08,1c1.047,0.555,1.557,1.578,2.338,3.44
		c0.273,0.649,0.832,0.444,0.561-0.254c-0.232-0.599-0.322-1.479-0.482-2.066c-0.168-0.604,0.016-0.906,0.703-0.729
		c1.035,0.267,0.893,0.018,1.27-0.123c0.83-0.466,1.389,0.192,0.887,0.558c-0.289,0.209-0.902,0.336-1.582,0.525
		c-0.576,0.16-0.441,0.724,0.139,0.721c0.535-0.002,2.07-0.439,3.072-0.746c2.873-0.881,2.969-1.349,2.699,0.306
		c-0.354,2.189-1.533,3.831-3.48,4.387c-1.697,0.483-5.611,0.391-7.357-0.174c-1.656-0.761-1.766-1.293-2.268-2.771
		c-0.686-2.023-1.088-5.448-0.301-7.439c0.693-1.682,0.625-1.505,1.291-1.42c0.592,0.209,1.389-0.023,1.564-0.392
		C141.138,44.685,141.362,44.364,141.464,44.37L141.464,44.37z M152.462,45.583c0.164,0.9,0.18,1.825-0.129,2.522
		c-0.18,0.327-1.186,0.31-1.574,0.313c-0.23,0.055-0.211-3.042,0.035-3.379C151.378,44.151,152.134,44.865,152.462,45.583
		L152.462,45.583z M123.323,45.048l2.844,0.035v0.701l-3.355-0.023L123.323,45.048z M133.277,45.168v0.911l-4.283,0.008v5.704
		l4.789,0.016l0.027,1.186l-6.414-0.023l0.02-7.797l5.855-0.004H133.277z M155.046,44.986c4.391,0.979,2.432,5.901,0.787,6.2
		c-2.053,0.371-3.791,0.137-3.223-1.694c0.57-1.24,0.176-2.786,0.336-3.913C153.343,45.207,154.376,44.837,155.046,44.986z
		 M121.941,46.714l4.227,0.043v0.941l-4.828-0.012L121.941,46.714z M131.329,47.582c0.674,0,1.221,0.556,1.221,1.24
		s-0.547,1.24-1.221,1.24c-0.676,0-1.223-0.556-1.223-1.24S130.653,47.582,131.329,47.582z M143.251,48.074
		c0.785,0.087,0.854,1.308,0.533,1.664c-0.412,0.415-1.182,0.238-1.416-0.396C142.157,48.769,142.63,48.05,143.251,48.074z
		 M120.761,48.605l5.406,0.016v0.763l-5.459,0.047l-0.145-0.492L120.761,48.605z M151.191,48.935c0.75-0.018,1.209,0.622,0.74,1.166
		C151.226,50.896,149.786,49.68,151.191,48.935z M93.591,50.603c-1.21,1.035-0.24,2.055,1.366,1.073
		c3.456-2.11,8.556-0.438,11.879,1.32c0.651,0.338,0.74-0.451,0.099-0.996C103.865,49.257,97.321,47.684,93.591,50.603
		L93.591,50.603z M145.97,49.16c0.844,0.004,0.832,1.071,0.289,1.453c-0.541,0.238-0.635,0.172-0.996,0.029
		C144.769,50.448,145.138,49.164,145.97,49.16L145.97,49.16z M148.96,49.176c1,0.051,0.889,2.094-0.623,1.356
		C147.79,49.935,148.146,49.172,148.96,49.176z M121.021,50.228l5.254,0.047v0.868l-4.914-0.051L121.021,50.228z M87.073,52.271
		c1.436,1.155,0.99,1.226-1.39,0.375c-1.556-0.352-3.104-0.127-4.077,0.264c-1.152,0.463-1.419,0.329-0.92-0.453
		C82.027,50.932,85.719,51.239,87.073,52.271L87.073,52.271z M93.976,54.186c-0.145,0.36-0.637-0.289-1.303-0.163
		c-0.949,0.18-0.675,0.226,0.329,1.384c1.004,1.159,1.332,1.433,1.271,1.879c-0.09,0.657,0.092,1.019,0.737,0.945
		c0.31-0.034,0.678,0.33,1.153,0.768c1.643,1.516,2.473,2.27,3.008,2.503c2.176,0.954,1.196-0.122-0.195-1.096
		c-2.318-1.625-3.124-2.707-1.477-2.128c1.75,0.616,4.535,0.267,5.905-0.572c0.675-0.413,1.103-1.046,2.054-0.737
		c1.336,0.434,1.848-0.366,1.478-0.813c-0.606-0.396-1.991-0.866-3.306-1.764c-2.814-1.448-5.771-1.406-7.742-0.24
		c-1.161,0.688-1.565,0.204-0.428-0.477c4.567-2.499,8.182-0.105,11.105,1.689c0.506,0.312,0.861,0.287,0.862,0.066
		c-0.077-0.726-1.378-1.171-1.905-1.496C101.449,51.417,97.168,50.614,93.976,54.186L93.976,54.186z M121.708,51.973l4.566,0.004
		v0.915l-4.23-0.02L121.708,51.973z M84.562,53.139c1.264-0.006,4.016,1.146,3.97,2.101c-0.053,0.362-0.742,0.037-1.34-0.333
		c-1.157-0.717-2.933-0.909-4.604-0.593c-1.283,0.242-1.691,0.457-1.874,0.302C80.27,53.604,83.388,53.145,84.562,53.139z
		 M133.929,53.821l0.008,1.639c-2.479,0.184-2.988,2.979-1.398,4.535c1.303,1.276,3.457,0.773,4.539-1.036
		c0.189-0.321,0.213-0.516,0.328-0.356c0.074,0.101,0.137,0.405,0.195,0.702c0.172,0.859-0.072,1.08-0.633,1.817
		c-0.908,1.19-1.031,2.691-0.463,3.809c0.156,0.308,0.484,0.747,0.428,0.949c0.316-0.01-2.814,8.886-7.389,13.368
		c-0.766,0.517-1.32-0.091-0.926-0.925c3.727-8.644-3.402-16.673-6.17-24.397L133.929,53.821L133.929,53.821z M100.804,55.313
		l0.653,0.058c-0.525,3.982-4.331,3.341-4.481,0.097l0.55-0.02C98.267,58.466,100.813,57.23,100.804,55.313L100.804,55.313z
		 M79.301,55.395c0,0,0.274,0.444,0.274,0.693c0,0.927-0.016,2.268-0.038,2.674c-0.221,3.832-5.011,4.542-4.646,1.264
		c0.285-1.393,2.018-1.546,2.443-0.287c0.622,1.584,0.732-0.382,0.741-0.996C78.582,57.777,78.954,56.605,79.301,55.395
		L79.301,55.395z M102.381,55.666c0.196,0.005,0.548,0.179,0.825,0.48c0.314,0.344,0.197,0.515-0.539,0.898
		c-0.797,0.416-1.156,0.38-0.87-0.461C101.976,56.062,102.128,55.659,102.381,55.666z M138.212,55.867
		c0.107,0.005,0.385,0.149,0.32,0.565c-0.109,0.695-0.701,1.091-0.855,0.927C137.777,56.992,137.894,56.013,138.212,55.867z
		 M96.662,57.212c-0.094,0.281-0.257,0.159-0.675-0.201c-0.461-0.398-0.438-0.652,0.038-0.938
		C96.708,55.655,96.75,56.952,96.662,57.212L96.662,57.212z M82.16,56.173c0.799,2.564,2.429,2.238,3.157,0.124l0.698-0.011
		c-0.154,3.301-4.271,3.242-4.306,0.05L82.16,56.173z M80.717,56.491c0.243-0.039,0.069,0.817,0.069,0.817s-0.677-0.354-0.279-0.729
		C80.557,56.533,80.683,56.497,80.717,56.491z M86.764,56.708c0.083-0.006,0.241,0.06,0.412,0.175
		c0.4,0.269,0.331,0.427-0.126,0.813c-0.703,0.596-1.021,0.265-0.641-0.535C86.55,56.864,86.656,56.715,86.764,56.708z
		 M139.341,57.266c0.297-0.019,0.715,0.118,1.6,0.356c2.436,0.657,5.697,0.634,8.471-0.143c0.877-0.245,1.527,1.314,1.055,2.448
		c-0.209,0.501-0.172,0.563,0.465,1.236c0.904,0.955,1.051,2.493,0.363,3.895c-0.5,1.021-0.467,0.929,0.125,2.67
		c1.273,3.787,3.146,7.309,5.113,10.767l-2.625-0.992c0,0-11.85,10.341-20.209,10.732l3.027,4.79
		c4.764,1.931,9.316,1.447,13.672-1.333c-0.107,0.399,5.297,3.083,9.738,3.375l0.025,3.224c-3.293-0.374-6.631-0.451-9.691-2.406
		c0,0-2.814,1.194-5.631,2.089l15.781,16.571l0.008,2.77c0,0-6.736-6.383-13.67-13.578l0.148,35.383l13.656,0.271
		c-0.43,9.209-0.258,15.062-0.164,25.609c-6.453,6.721-15.332,13.443-23.535,17.48c-3.871-3.789-7.07-7.895-9.869-12.283
		c-0.059-0.094,0.283-0.27,0.225-0.363c-0.086-0.135-0.57-0.186-0.658-0.318c-1.707-2.58-5.672-9.73-5.043-9.898
		c1.213,0.086,6.836-0.621,7.955-4.041c0.01-0.217-0.123-0.826,0.029-1.543c0.396-1.854,0.6-4.67-0.072-6.459
		c-1.209-3.227,2.428-2.191,2.551-1.977v-12.188c-4.73,3.85-9.504,7.639-15.827,9.223c-3.934-20.125,2.304-45.154,20.087-62.128
		l-0.975-0.085c-18.271,19.189-23.063,40.292-19.945,62.516c0,0,0.116,0.695,0.135,0.93c0.042,0.553-0.089,0.764-0.573,1.162
		c-0.462,0.309-0.882,0.641-0.84,1.02c0.078,0.715-0.598,0.736-1.481,0.732c-0.406-0.361-0.955,0.096-1.282,0.26
		c-0.458,0.068-0.687-1.83-1.271-0.438c-0.224,0.879-0.646,0.945-1.622,0.508c-0.614-0.182-0.628,0.127-0.039,0.848
		c0.815,0.891,1.504,2.221,1.371,2.621c-0.3,0.895-0.17,1.795,1.076,2.309c-0.071,0.006-0.752,2.729,1.18,2.65
		c0.615,0.006,2.172,0.326,2.172,0.326c0.102,0.52-0.062,0.816-0.305,1.045l-1.344-0.682l-0.352,1.625l-1.791-0.129l4.355,5.461
		l0.508-4.26l5.092,0.654c0.818,2.154,5.963,14.09,15.797,23.002c-0.107,0.293-6.764,3.08-6.764,3.08l-1.055-3.314l-0.844,1.232
		l-1.504-0.393l-0.176,1.395l-1.34,0.439l2.416,1.59l-6.123,1.773c-17.154-28.086-24.878-66.82-3.515-108.076l5.397,0.069
		l-1.053,1.829l1.533-0.248l0.434,1.333l1.127-0.54l1.133,1.441l1.289-3.851c0,0,3.824,0.088,4.303,0.039
		c0.373-0.043,8.082-6.608,7.916-6.858c-0.119-0.182-8.395,5.958-8.672,5.723c0,0-0.832,0.201-0.184-0.585
		c1.162-1.41,1.98-2.483,3.16-4.511c1.949-2.691,2.824-5.975,3.283-8.199c0.008-0.156,0.051-0.514-0.08-0.775
		c-0.742-1.496-0.578-2.474,0.756-4.239c0.467-0.618,0.496-0.771,0.363-1.15c-0.301-0.857-0.012-1.591,0.604-2.166
		c0.244-0.229,0.402-0.339,0.633-0.353L139.341,57.266z M93.858,63.241c3.388,1.412,0.667,4.54-1.849,1.813
		c-1.318-1.429-2.359-1.338-3.077-0.294c-0.323,0.47,0.147,1.297,0.565,1.034c0.388-0.243,0.786-0.532,1.352-0.004
		c4.284,4.004,7.36-1.602,3.668-2.995C94.061,62.582,93.411,63.056,93.858,63.241L93.858,63.241z M79.903,63.105
		c0.032-0.001,0.07,0.016,0.119,0.047c0.16,0.102,0.172,1.517,0.011,2.112c-0.535,3.015-2.652,10.021-6.997,6.591
		c-1.726-1.361-0.156-4.78,1.908-3.619c1.612,0.907,0.524,3.071-1.222,1.829c-0.847-0.604-0.578,0.641,0.138,0.996
		c1.213,0.645,3.41-0.459,4.439-2.426c0.411-0.784,0.797-2.17,1.229-4.166C79.747,63.466,79.765,63.113,79.903,63.105L79.903,63.105
		z M80.271,68.325c0.357,2.18-1.277,5.997-3.604,6.561c-1.781,0.432-3.983-0.746-3.826-1.837c0.046-0.316,0.174,0.102,1.787,0.372
		c2.254,0.378,3.688-0.856,4.985-3.7C80.024,68.823,80.198,68.346,80.271,68.325L80.271,68.325z M85.878,69.368
		c0,0.246-0.116,0.895-0.218,1.325c-0.239,1.021-0.391,1.409,0.71,0.902c0.729-0.34,1.793-0.678,2.895-0.058
		c1.215,0.684,2.374,0.557,3.806-0.059c1.243-0.42,1.849-0.424,2.542-0.019c1.267,0.739,0.832,0.267,0.668-1.597
		c-0.112-1.312-0.465-1.14-0.92-0.644c-0.298,0.326-0.9,0.397-1.572,0.031c-0.801-0.437-1.914-0.229-2.291,0.081
		c-0.375,0.31-0.918,0.353-1.652-0.151c-0.487-0.333-0.759-0.158-1.355,0.112c-0.983,0.447-1.36,0.206-1.894-0.213
		C86.111,68.722,85.884,68.835,85.878,69.368L85.878,69.368z M80.999,70.934c0.129-0.002,0.143,0.502,0.054,1.515
		c-0.409,3.738-3.294,5.82-6.688,4.011c-1.486-0.861-1.284-1.469,0.18-0.93c2.334,0.858,4.691-0.342,5.845-3.414
		C80.685,71.328,80.886,70.935,80.999,70.934z M89.283,73.6c1.679,0.704,3.54,0.48,4.013-0.144c0.531-0.701-0.284-0.586-0.711-0.48
		c-1.469,0.356-2.478,0.227-3.072-0.043C87.773,72.251,87.882,72.99,89.283,73.6z M71.773,75.696
		c2.176,2.703,2.463,3.23,4.337,6.305c13.702,23.608,18.09,53.447,9.082,80.535c-2.473,7.475-5.959,15.094-9.868,21.213
		l-4.691,0.051l1.61-1.865l-2.184,0.164l-0.134-1.232l-1.656,0.543l-0.798-1.861l-1.5,4.26l-8.696,0.023
		c20.367-20.092,24.379-44.439,20.58-63.986c0,0,1.702-1.081,1.939-1.713c0.057-0.153,0.184-0.806,0.301-0.903
		c0.758-0.502,1.261-0.991,1.634-0.895c0.215,0.055,0.325,0.155,0.481,0.387c0.718,1.067,0.872,1.234,1.264,0.159
		c0.281-0.771,0.16-1.051,1.084-0.902c0.541,0.291,1.26,0.283,1.195,0.174c-0.049-0.081-0.816-0.995-1.18-1.515
		c-0.86-1.229-1.106-1.45-1.027-1.988c0.121-0.819-0.522-1.704-0.924-1.926c0.115-2.208-0.72-2.429-3.085-2.922
		c-0.012-0.381,0.052-0.69,0.218-1.031l1.39,1.124l0.504-2.085l1.886,0.105l-5.467-5.371c0.027,1.515,0.099,3.047-0.038,4.507
		c-2.562-0.143-5.091-0.98-5.13-0.822c-3.763-8.993-9.496-16.599-15.55-22.533l6.047-2.949l1.714,3.317l0.42-1.879l1.501,0.267
		l0.252-1.205l1.657-0.236l-1.829-1.763L71.773,75.696z M107.782,79.575c0.231,0.295,0.417,0.315,0.726,0.585l-0.618,0.445
		C107.919,80.184,107.882,79.968,107.782,79.575L107.782,79.575z M67.551,80.683c-0.513,0-0.932,0.426-0.932,0.946
		s0.419,0.941,0.932,0.941s0.927-0.421,0.927-0.941S68.064,80.683,67.551,80.683z M72.596,80.833c-0.515,0-0.932,0.423-0.932,0.945
		s0.417,0.945,0.932,0.945s0.932-0.423,0.932-0.945S73.11,80.833,72.596,80.833z M56.343,81.524
		c2.994,2.525,5.746,5.817,9.085,10.966l-0.068,0.694l1.019,0.383c0,0,5.555,7.421,5.261,10.719
		c-1.906,0.404-3.648-0.121-7.058,3.115c-1.609-0.878-2.563-0.598-4.23-0.104c0,0,0.029,0.733,0.604,0.98
		c1.109-1.322,2.317-0.709,2.974-0.38c-0.235,0.103-0.837,7.475,0.332,9.045c0.881,2.503-1.434,2.027-3.039,1.41l0.462,11.707
		c5.283-6.117,16.439-10.197,15.648-9.754c5.6,30.025-7.714,50.054-21.649,64.738l7.303,0.041c0,0-6.296,10.252-6.765,13.086
		c0.358,0.943,1.349,2.895-0.324,4.264c-0.566,0.629-0.626,3.488-0.626,3.488c-3.841,0.133-7.169-1.221-11.597,0.355
		c-0.459,0.156-0.559-2.447-0.581-2.918c-2.475-2.227-0.208-6.051,0.128-5.77c-1.998-5.955-6.014-13.064-6.014-13.064
		s-2.421-0.131-3.895-0.215c-0.307-0.262-0.506-7.203-0.195-7.371c10.945,0.881,28.074-0.129,28.074-0.129l-4.597-6.518
		c-5.661-2.24-13.44,1.586-13.065,1.787c0.018,0.023-6.219-3.451-10.544-2.957l0.142-3.404c3.843-0.016,7.389,0.711,10.483,2.562
		l5.258-1.986l-16.116-17.164l0.187-2.828c5.253,4.934,13.868,14.477,13.868,14.477l0.012-36.03l-13.857-0.034l-0.37-7.273
		l-0.358-0.636l-0.164-5.22l0.385-0.531l-0.133-2.231l-0.131-0.318l-0.176-5.332l0.299-0.449l0.045-3.356
		C39.054,92.715,56.342,81.524,56.343,81.524L56.343,81.524z M68.181,82.535l1.614,7.185l1.084-1.364l1.665,0.531l0.114-1.655
		l1.516-0.534L68.181,82.535z M123.247,83.73c-0.514,0-0.932,0.423-0.932,0.945c0,0.521,0.418,0.945,0.932,0.945
		c0.516,0,0.932-0.424,0.932-0.945C124.179,84.153,123.763,83.73,123.247,83.73z M118.889,84.321c-0.515,0-0.932,0.424-0.932,0.946
		c0,0.521,0.417,0.945,0.932,0.945s0.932-0.424,0.932-0.945C119.82,84.745,119.403,84.321,118.889,84.321z M65.493,85.159
		c-0.515,0-0.932,0.423-0.932,0.945c0,0.521,0.417,0.945,0.932,0.945c0.514,0,0.931-0.424,0.931-0.945
		C66.424,85.582,66.007,85.159,65.493,85.159z M122.232,85.728l-6.482,6.188l1.817-0.078l0.325,1.806l1.627-0.755l1.314,1.232
		L122.232,85.728z M124.989,87.808c-0.514,0-0.932,0.424-0.932,0.946c0,0.521,0.418,0.945,0.932,0.945
		c0.516,0,0.932-0.424,0.932-0.945C125.921,88.231,125.505,87.808,124.989,87.808z M73.441,89.026c-0.515,0-0.932,0.423-0.932,0.945
		s0.417,0.945,0.932,0.945s0.932-0.423,0.932-0.945S73.955,89.026,73.441,89.026z M77.472,89.816c-0.515,0-0.932,0.424-0.932,0.945
		c0,0.522,0.417,0.946,0.932,0.946s0.932-0.424,0.932-0.946C78.403,90.24,77.986,89.816,77.472,89.816z M73.815,91.224
		c0.179,2.528,0.47,5.526,0.535,8.06l1.229-1.229l1.42,0.585l0.504-1.554l1.546-0.077L73.815,91.224z M113.726,93.332
		c-0.514,0-0.931,0.424-0.931,0.946c0,0.521,0.417,0.945,0.931,0.945c0.516,0,0.932-0.424,0.932-0.945
		C114.657,93.756,114.241,93.332,113.726,93.332z M71.143,93.498c-0.515,0-0.932,0.423-0.932,0.945s0.417,0.945,0.932,0.945
		s0.932-0.423,0.932-0.945S71.657,93.498,71.143,93.498z M117.419,93.728c-0.515,0-0.932,0.424-0.932,0.945
		c0,0.522,0.492,0.945,0.932,0.945c0.438,0,0.932-0.423,0.932-0.945C118.351,94.151,117.933,93.728,117.419,93.728z M116.866,95.77
		l-5.373,5.61l1.76,0.166l0.553,1.593l1.127-0.969l1.366,1.016L116.866,95.77z M119.818,96.973c-0.515,0-0.932,0.423-0.932,0.945
		s0.417,0.945,0.932,0.945c0.514,0,0.932-0.423,0.932-0.945S120.331,96.973,119.818,96.973z M77.449,98.722
		c-0.515,0-0.932,0.423-0.932,0.945s0.417,0.945,0.932,0.945s0.932-0.5,0.932-0.945S77.964,98.722,77.449,98.722z M54.491,99.488
		l-1.357,1.054c1.119,0.441,1.748,1.394,1.748,1.394S54.731,101.376,54.491,99.488L54.491,99.488z M81.855,100.124
		c-0.515,0-0.932,0.424-0.932,0.945c0,0.522,0.417,0.946,0.932,0.946s0.932-0.424,0.932-0.946
		C82.786,100.548,82.369,100.124,81.855,100.124z M75.182,101.473c-0.515,0-0.932,0.424-0.932,0.945
		c0,0.522,0.417,0.945,0.932,0.945s0.931-0.423,0.931-0.945C76.112,101.896,75.696,101.473,75.182,101.473z M113.661,103.378
		c-0.515,0-0.932,0.423-0.932,0.945s0.417,0.945,0.932,0.945s0.932-0.423,0.932-0.945S114.176,103.378,113.661,103.378z
		 M109.985,104.766c-0.515,0-0.932,0.423-0.932,0.945s0.417,0.945,0.932,0.945c0.514,0,0.932-0.424,0.932-0.945
		C110.917,105.188,110.499,104.766,109.985,104.766z M147.511,104.999l1.936,2.135v31.242l-1.891,0.039L147.511,104.999z
		 M72.165,105.22c1.577,0.003,3.335,0.233,3.895,1.205c0.87,1.091-0.98,0.669-2.539,0.907c-1.439,0.179-0.604,0.477,1.428,0.597
		c2.801,0.168,3.901,0.242,4.318,0.897c0.237,0.61,0.063,1.022,0.113,1.68l-3.18-0.151c-1.649,0.002-2.618-0.029-3.107,0.097
		c-0.39,0.101-0.277,0.418-0.145,0.555c0.069,0.07,1.335,0.088,2.813,0.128c3.979,0.105,4.859,0.242,5.142,1.542
		c0.213,1.191-0.744,1.011-4.833,0.558c-1.819-0.15-2.798,0.284-3.062,0.415c-0.448,0.224,1.3,0.443,1.871,0.349
		c0.356-0.057,2.981,0.231,3.947,0.415c0.812,0.124,0.097,0.102-0.313,0.604c-0.271,0.415-0.186,0.893-0.61,1.127
		c-0.521,0.28-1.555,0.275-3.409,0.275c-2.12,0-3.108,0.522-0.198,0.651c1.879,0.083,1.985,0.05,2.146,0.601
		c0.425,1.358-0.48,1.597-2.397,1.906c-0.916,0.159-2.275,0.07-3.303-0.004c-4.055-0.293-5.46-1.274-6.009-3.089
		c-2.045-6.769,0.479-10.9,6.387-11.233C71.447,105.233,71.802,105.22,72.165,105.22L72.165,105.22z M113.155,105.521l-4.58,6.763
		l1.765-0.697l0.84,1.833l1.413-1.023l1.41,0.883L113.155,105.521z M78.892,106.344c0.237,0.295,0.133,0.515-0.26,0.732
		c-0.331,0.184-0.897,0.048-1.271-0.116c-0.493-0.217-0.542-1.109-0.138-1.205C77.806,105.637,78.527,105.911,78.892,106.344
		L78.892,106.344z M45.722,105.999l-2.102,2.325c0,0,1.936-0.702,2.973-1.116L45.722,105.999z M116.011,107.037
		c-0.515,0-0.932,0.424-0.932,0.945c0,0.522,0.417,0.946,0.932,0.946c0.514,0,0.931-0.424,0.931-0.946
		C116.942,107.461,116.525,107.037,116.011,107.037z M150.107,107.854c0,0,2.332,2.34,3.291,3.321l-0.867-0.004l0.023,1.845
		l2.76,0.031l1.516,1.507l-4.215-0.02v1.884l5.219,0.004l-0.027-0.806l2.062,1.895l0.244,20.948l-9.945-0.029
		C150.132,128.114,150.159,118.17,150.107,107.854L150.107,107.854z M81.885,110.126c-0.143,0.453-0.462,0.454-1.008,0.229
		c-0.807-0.334-0.692-1.237-0.08-1.333C81.951,108.888,82.165,109.428,81.885,110.126L81.885,110.126z M85.015,110.521
		c-0.514,0-0.931,0.423-0.931,0.945c0,0.521,0.417,0.945,0.931,0.945c0.515,0,0.932-0.424,0.932-0.945
		C85.946,110.944,85.529,110.521,85.015,110.521z M81.735,111.246c0.364,0.022,0.726,0.212,0.932,0.418
		c0.51,0.522,0.329,1.009-0.24,1.31c-0.639,0.338-1.089-0.122-1.275-0.891C81.027,111.564,81.325,111.263,81.735,111.246z
		 M110.976,113.726c-0.516,0-0.935,0.425-0.935,0.949s0.419,0.949,0.935,0.949c0.518,0,0.936-0.425,0.936-0.949
		S111.493,113.726,110.976,113.726z M80.194,114.877c0.803,0.027,1.045,0.859,0.626,1.306c-0.602,0.604-1.535,0.346-1.668-0.232
		C79.109,115.3,79.631,114.877,80.194,114.877z M107.638,115.26c-0.514,0-0.931,0.424-0.931,0.946c0,0.521,0.417,0.945,0.931,0.945
		c0.516,0,0.932-0.424,0.932-0.945C108.569,115.684,108.153,115.26,107.638,115.26z M110.946,115.888l-4.168,7.1l1.688-0.679
		l1.022,1.368l1.054-0.934l1.592,0.79L110.946,115.888z M78.235,117.073c0.745,0.004,0.954,0.599,0.412,1.144
		c-0.368,0.37-0.785,0.382-1.21,0.039C76.793,117.736,77.287,117.069,78.235,117.073z M113.867,117.161
		c-0.515,0-0.932,0.424-0.932,0.945c0,0.522,0.417,0.946,0.932,0.946s0.931-0.424,0.931-0.946
		C114.798,117.585,114.382,117.161,113.867,117.161z M83.519,117.907c-0.515,0-0.894,0.423-0.894,0.945
		c0,0.521,0.417,0.945,0.932,0.945s0.932-0.424,0.932-0.945C84.488,118.33,84.032,117.907,83.519,117.907z M152.579,118.116v2.007
		l5.254,0.004v-2.007L152.579,118.116z M83.587,119.898l-2.012,7.46l1.684-0.973l1.05,1.089l0.978-1.221l1.756,0.465L83.587,119.898
		z M87.164,120.708c-0.515,0-0.932,0.424-0.932,0.946c0,0.521,0.417,0.945,0.932,0.945s0.932-0.424,0.932-0.945
		C88.096,121.132,87.679,120.708,87.164,120.708z M80.606,121.088c-0.515,0-0.931,0.424-0.931,0.946
		c0,0.521,0.416,0.945,0.931,0.945s0.932-0.424,0.932-0.945C81.537,121.512,81.12,121.088,80.606,121.088z M152.575,121.677v1.803
		h5.254v-1.791L152.575,121.677z M109.351,124.033c-0.516,0-0.932,0.423-0.932,0.945s0.417,0.945,0.932,0.945
		c0.514,0,0.931-0.423,0.931-0.945S109.864,124.033,109.351,124.033z M152.579,125.041v1.941h5.254v-1.941H152.579z M44.272,125.277
		l1.848,0.035l0.03,33.84l-1.802-1.934L44.272,125.277z M43.5,125.343l-0.091,30.931l-3.501-3.736l0.931-0.012v-2.107l-3.03-0.023
		l-1.294-1.279l4.32,0.004v-2.068l-5.127-0.02v1.252l-2.52-2.729l0.043-20.197L43.5,125.343z M109.487,126.288l-2.805,7.359
		l1.764-1.019l0.912,0.912l0.943-0.865l1.604,0.794L109.487,126.288z M35.72,126.642l-0.025,1.979h5.176v-1.979H35.72z
		 M112.663,127.04c-0.514,0-0.931,0.424-0.931,0.945c0,0.522,0.417,0.945,0.931,0.945c0.516,0,0.932-0.423,0.932-0.945
		C113.595,127.464,113.179,127.04,112.663,127.04z M106.324,127.145c-0.515,0-0.932,0.424-0.932,0.946
		c0,0.521,0.417,0.945,0.932,0.945s0.931-0.424,0.931-0.945C107.255,127.569,106.839,127.145,106.324,127.145z M84.404,127.498
		c-0.515,0-0.932,0.423-0.932,0.945c0,0.521,0.417,0.945,0.932,0.945s0.932-0.424,0.932-0.945
		C85.336,127.921,84.919,127.498,84.404,127.498z M152.579,128.261v2.081h5.254v-2.081H152.579z M84.29,129.436l-0.779,1.221
		l-1.782-0.616l2.432,7.466l3.05-7.789l-1.752,1.016L84.29,129.436z M35.721,129.978v1.977h5.149v-1.977H35.721z M152.579,131.748
		v2.061h5.25v-2.061h-5.252H152.579z M35.721,133.473v1.98h5.149v-1.98H35.721z M109.421,133.844c-0.518,0-0.936,0.426-0.936,0.949
		c0,0.525,0.418,0.951,0.936,0.951c0.516,0,0.935-0.426,0.935-0.951C110.356,134.27,109.937,133.844,109.421,133.844z
		 M81.377,134.833c-0.517,0-0.935,0.426-0.935,0.949c0,0.525,0.418,0.949,0.935,0.949s0.936-0.424,0.936-0.949
		C82.313,135.258,81.894,134.833,81.377,134.833z M87.356,135.012c-0.517,0-0.936,0.424-0.936,0.949
		c0,0.523,0.419,0.949,0.936,0.949s0.936-0.426,0.936-0.949C88.291,135.436,87.872,135.012,87.356,135.012z M152.579,135.143v1.859
		h5.25v-1.859h-5.252H152.579z M109.413,136.01l-1.115,1.191l-1.6-0.463l3.627,6.867l1.832-7.385l-1.6,1.033L109.413,136.01z
		 M35.72,136.709v2.246h5.15v-2.246H35.72z M84.324,137.727c-0.517,0-0.936,0.426-0.936,0.949c0,0.525,0.419,0.951,0.936,0.951
		s0.936-0.426,0.936-0.951C85.26,138.153,84.841,137.727,84.324,137.727z M84.264,139.684c-0.399,0.287-0.573,0.791-0.989,1.051
		l-1.702-0.736l1.022,9.35l4.727-8.834l-2.16,0.367L84.264,139.684z M35.721,139.991v2.336h5.149v-2.336H35.721z M113.068,141.075
		c-0.517,0-0.936,0.426-0.936,0.949s0.419,0.949,0.936,0.949c0.516,0,0.936-0.426,0.936-0.949S113.584,141.075,113.068,141.075z
		 M107.021,141.182c-0.517,0-0.936,0.426-0.936,0.951c0,0.523,0.419,0.949,0.936,0.949c0.516,0,0.936-0.426,0.936-0.949
		C107.956,141.608,107.537,141.182,107.021,141.182z M35.721,143.381v2.34h5.149v-2.34H35.721z M110.394,143.903
		c-0.517,0-0.936,0.426-0.936,0.949c0,0.525,0.419,0.949,0.936,0.949s0.936-0.424,0.936-0.949
		C111.329,144.329,110.91,143.903,110.394,143.903z M123.597,143.979c5.008,0.162,5.742,1.797,5.771,7.443
		c0.023,4.506-1.299,6.268-4.531,7.137c-1.178,0.316-5.581,0.023-6.828-0.383c-0.021-0.387-0.644-1.281-0.784-1.971
		c0.317-0.092,1.323,0.051,3.228,0.234c1.545,0.15,1.943-0.102,1.455-0.41c-2.906-0.695-4.885-0.506-7.677-1.051
		c-0.039-0.848-0.714-1.834-0.714-1.834c0.151-0.061,4.304,0.393,6.494,0.322c0.965-0.041,0.385-0.5-0.008-0.586
		c-2.555-0.371-4.214-0.311-6.916-0.656c0.074-0.701-0.278-1.34-0.714-1.877c0,0,1.367-0.012,4.184,0.031
		c1.483,0.023,2.773,0.086,3.422,0.064c1.089-0.002,0.989-0.518,0.046-0.588c-1.151-0.131-5.682-0.158-5.682-0.158
		c0.337-0.158,0.777-2.217,0.604-2.24c0,0,1.174,0.025,1.92-0.004c3.631-0.137,4.256-0.08,4.324-0.217
		c0.479-0.441-0.811-0.615-2.152-0.611c-0.578,0-1.422,0.129-1.416-0.191c0.008-0.293-0.008-0.896-0.303-1.516
		c2.227-0.871,4.275-1.006,6.275-0.939H123.597z M80.415,145.137c-0.516,0-0.935,0.424-0.935,0.949c0,0.523,0.419,0.949,0.935,0.949
		c0.518,0,0.936-0.426,0.936-0.949C81.351,145.561,80.933,145.137,80.415,145.137z M116.144,145.334
		c0.617,0.004,0.812,1.131,0.232,1.307c-0.889,0.27-1.375,0.057-1.344-0.477C115.05,145.862,115.743,145.333,116.144,145.334
		L116.144,145.334z M86.524,146.315c-0.517,0-0.935,0.426-0.935,0.949s0.418,0.949,0.935,0.949s0.936-0.424,0.936-0.949
		C87.459,146.741,87.04,146.315,86.524,146.315z M113.158,147.381c2.116-0.02,1.021,2.902-0.607,1.848
		C111.743,148.706,112.312,147.387,113.158,147.381z M79.687,149.717c-0.043-0.004-0.066,0.039-0.061,0.146l0.488,8.883l5.093-8.297
		l-2.023,0.764l-0.87-1.342l-1.092,0.873C80.773,151.104,79.921,149.739,79.687,149.717L79.687,149.717z M111.196,150.625
		c0.949,0.135,1.582,1.1,0.924,1.564C110.636,152.85,109.841,150.692,111.196,150.625z M108.915,152.575
		c-0.516,0-0.936,0.426-0.936,0.951c0,0.523,0.42,0.949,0.936,0.949c0.518,0,0.936-0.426,0.936-0.949
		C109.851,153,109.433,152.575,108.915,152.575z M112.513,153.379c0.809-0.012,1.189,1.18,0.39,1.553
		c-0.171,0.08-0.677,0.139-0.901-0.029C111.058,154.196,111.546,153.454,112.513,153.379L112.513,153.379z M77.494,154.844
		c-0.517,0-0.936,0.424-0.936,0.949c0,0.523,0.419,0.949,0.936,0.949s0.936-0.426,0.936-0.949
		C78.43,155.268,78.011,154.844,77.494,154.844z M148.935,156.034l-3.467,1.182v1.664
		C146.982,158.391,147.847,157.143,148.935,156.034L148.935,156.034z M116.452,156.836c0.602,0.256,0.765,1.082,0.248,1.361
		c-0.408,0.219-1.512,0.184-1.781-0.178C114.22,156.881,115.724,156.559,116.452,156.836L116.452,156.836z M83.776,157.165
		c-0.517,0-0.936,0.426-0.936,0.949c0,0.525,0.419,0.949,0.936,0.949s0.935-0.424,0.935-0.949
		C84.71,157.59,84.292,157.165,83.776,157.165z M79.944,158.805c-0.455,0-0.824,0.375-0.824,0.838c0,0.461,0.369,0.836,0.824,0.836
		c0.456,0,0.825-0.375,0.825-0.836C80.769,159.18,80.4,158.805,79.944,158.805z M118.821,160.217c-0.516,0-0.935,0.426-0.935,0.949
		c0,0.525,0.419,0.949,0.935,0.949c0.518,0,0.936-0.424,0.936-0.949C119.757,160.643,119.339,160.217,118.821,160.217z
		 M76.931,160.268l-0.046,8.391l5.513-6.867l-1.912,0.422l-0.817-1.701l-1.18,0.779L76.931,160.268z M111.92,162.202
		c-0.517,0-0.935,0.424-0.935,0.949c0,0.523,0.418,0.949,0.935,0.949s0.936-0.426,0.936-0.949
		C112.856,162.625,112.437,162.202,111.92,162.202z M139.507,162.233l-0.906,1.566l2.566-1.445L139.507,162.233z M115.653,163.348
		c-0.517,0-0.936,0.426-0.936,0.949c0,0.525,0.419,0.949,0.936,0.949s0.936-0.424,0.936-0.949
		C116.589,163.774,116.17,163.348,115.653,163.348z M118.804,164.374l-1.118,1.619l-1.474-0.48l-0.435,1.541l-1.768-0.064
		l5.745,5.076L118.804,164.374z M74.025,165.02c-0.517,0-0.936,0.426-0.936,0.951c0,0.523,0.419,0.949,0.936,0.949
		s0.936-0.426,0.936-0.949C74.96,165.446,74.541,165.02,74.025,165.02z M160.009,167.301v68.984h-32.035l-13.449-18.908
		c-0.276-3.037-0.115-6.154,1.145-10.23c1.314,0.926,4.195,0.42,4.098-3.164c-0.064-2.348-3.629-3.547-5.404-1.781
		c0.092-2.27,0.999-5.678,2.306-6.684c0.897,0.826,1.096,2.053,3.125,1.709c1.44-0.242,2.583-1.879,1.958-3.783
		c-0.16-0.484-0.246-1.072-0.244-1.465c0-0.395,0.037-1.094-0.039-1.484c-0.1-0.518-0.137-1.078-0.137-1.078
		C136.304,185.959,149.359,176.756,160.009,167.301L160.009,167.301z M80.572,167.579c-0.517,0-0.935,0.426-0.935,0.949
		s0.418,0.949,0.935,0.949s0.936-0.424,0.936-0.949C81.508,168.004,81.089,167.579,80.572,167.579z M76.162,168.506
		c-0.517,0-0.936,0.424-0.936,0.949c0,0.523,0.419,0.949,0.936,0.949s0.936-0.426,0.936-0.949
		C77.098,168.93,76.679,168.506,76.162,168.506z M122.443,168.963c-0.518,0-0.936,0.426-0.936,0.949s0.418,0.949,0.936,0.949
		c0.516,0,0.936-0.426,0.936-0.949S122.958,168.963,122.443,168.963z M72.808,169.975l-1.458,8.84l6.367-6.607l-1.729-0.039
		l-0.343-1.506l-1.619,0.529L72.808,169.975z M116.102,171.862c-0.517,0-0.936,0.426-0.936,0.949s0.419,0.949,0.936,0.949
		s0.936-0.426,0.936-0.949S116.618,171.862,116.102,171.862z M120.228,172.893c-0.516,0-0.935,0.424-0.935,0.949
		c0,0.523,0.419,0.949,0.935,0.949c0.518,0,0.936-0.426,0.936-0.949C121.163,173.317,120.745,172.893,120.228,172.893z
		 M68.842,174.045c-0.517,0-0.936,0.424-0.936,0.949c0,0.523,0.419,0.949,0.936,0.949s0.936-0.426,0.936-0.949
		C69.777,174.469,69.359,174.045,68.842,174.045z M123.95,174.762l-1.523,1.174l-1.4-0.869l-0.328,1.877l-1.195,0.635l5.012,3.564
		L123.95,174.762z M127.653,177.29c-0.516,0-0.936,0.426-0.936,0.949c0,0.525,0.42,0.949,0.936,0.949
		c0.518,0,0.936-0.426,0.936-0.949S128.171,177.29,127.653,177.29z M74.767,177.61c-0.517,0-0.936,0.426-0.936,0.949
		c0,0.525,0.419,0.949,0.936,0.949s0.936-0.424,0.936-0.949C75.702,178.036,75.283,177.61,74.767,177.61z M70.613,178.85
		c-0.517,0-0.936,0.426-0.936,0.949s0.419,0.949,0.936,0.949s0.935-0.426,0.935-0.949S71.13,178.85,70.613,178.85z M125.259,181.36
		c-0.518,0-0.936,0.426-0.936,0.949s0.418,0.949,0.936,0.949c0.516,0,0.934-0.426,0.934-0.949S125.775,181.36,125.259,181.36z
		 M121.337,182.209c-0.516,0-0.936,0.426-0.936,0.949c0,0.525,0.42,0.949,0.936,0.949c0.518,0,0.936-0.424,0.936-0.949
		C122.273,182.635,121.855,182.209,121.337,182.209z M85.13,183.561c0.008,0,0.012,0.004,0.015,0.008
		c0.105,0.115,0.431,0.979,0.142,1.418c-0.149-0.07-0.821-0.705-0.649-0.922C84.716,183.965,85.042,183.561,85.13,183.561
		L85.13,183.561z M63.905,185.049c0,0,0.905,0.049,1.104,0.137c0,0.234-0.218,0.746-0.462,1.32
		c-1.221,2.869-1.408,6.086-0.168,9.186c1.946,4.205,7.44,14.158,7.032,15.068l-12.14,0.051l0.053-1.873
		c3.411-0.137,3.947-2.254,3.097-4.004c-0.59-1.213-2.242-1.906-3.754-1.27c-2.181,0.92-2.315,2.014-3.095,3.709l-0.347-0.447
		c0.655-0.883,0.874-1.732,0.82-2.701c-0.053-0.949-0.081-0.688,0.246-1.209c1.9-2.072,0.656-4.77,0.656-4.77
		C56.722,196.59,62.634,186.02,63.905,185.049L63.905,185.049z M36.146,185.321c3.452,2.789,6.441,12.182,6.26,12.326
		c-0.16-0.131-2.781,3.018,0.042,5.953c0,0-0.173,1.764,0.37,2.67c-1.246,2.627-1.467,2.824-1.572,4.982
		c-0.024-0.008-0.217-0.025-1.375-0.029c-5.721-0.027-5.987,7.355-0.271,7.762c0.782,0.055,1.052-0.125,1.522,0.348
		c0.479,0.604,0.908,1.209,1.727,0.895c0.193,0.002,0.508,0.188,0.836,0.496c0.549,0.756,1.347,1.293,2.484,1.086
		c0.404,0.039,0.816,0.158,1.252,0.318c0.501,0.4,1.37,0.703,2.051,0.402c0.202-0.09,0.591-0.119,0.908,0.027
		c0.826,0.381,1.668,0.143,1.978-0.098c0.767-0.404,0.937,0.244,0.901,0.842c-0.392,1.367,0.468,2.648,1.771,3.15
		c2.747,0.861,4.132-0.854,4.723-4.256c0.146-0.744,0.274-1.631,0.274-1.631l9.196,0.244l-13.204,15.477H33.027v-50.988
		C34.016,185.239,35.155,185.321,36.146,185.321L36.146,185.321z M118.835,188.092c1.676,0.656,1.811,1.859,0.142,1.336
		c-2.714-0.848-5.632,0.836-6.241,3.24c-0.113,0.443-0.232,0.779-0.303,0.863c-0.379,0.467-0.36,0.041-0.248-1.293
		c0.22-2.592,2.025-4.469,4.379-4.547C117.335,187.694,118.166,187.856,118.835,188.092L118.835,188.092z M118.003,189.924
		c0.701,0,1.444,0.209,1.999,0.699c0.628,0.699,0.44,1.164-0.042,1.141c-2.272-0.963-5.162,0.203-6.293,3.115
		c-0.695,1.787-0.82,0.828-0.513-0.555C113.724,191.821,115.601,189.969,118.003,189.924L118.003,189.924z M102.198,190.614
		c-0.991,0.004-1.933,0.203-2.412,0.664c-0.911,0.873-0.153,0.887,1.496,0.305c0.803-0.281,2.346-0.152,3.333,0.195
		c0.827,0.289,1.119,0.412,1.073,0.15C105.645,191.143,103.851,190.608,102.198,190.614z M120.724,193.538
		c0.418,0.971,0.148,2.684-1.312,2.857c-1.722,0.203-2.612-2.727,0.533-2.215c-0.407-1.172-1.818-0.848-2.514-0.551
		c-1.42,0.629-2.387,2.045-3.257,4.646c-0.258,0.771-0.446,1.174-0.546,1.096c-0.164-0.129-0.242-1.326,0.138-2.77
		c0.685-2.602,2.353-4.174,4.119-4.225C119.029,192.2,120.362,192.696,120.724,193.538L120.724,193.538z M96.084,192.409
		c-0.152,0.035,0.116,0.582,0.534,1.43c0.232,0.471,0.39,1.078,0.39,1.197c0,0.461,0.347,0.576,0.859,0.279
		c0.591-0.342,0.686-0.6,1.522-0.221c0.789,0.42,1.566,0.686,2.287,0.26c0.391-0.232,0.648-0.223,1.404-0.02
		c0.902,0.242,1.021,0.277,1.695-0.008c0.86-0.365,1.883-0.115,2.1,0.131c0.207,0.234,0.087-0.09,0.555-1.191
		c0.217-0.51,0.527-1.129,0.441-1.303c-0.115-0.236-0.898,0.023-1.752,0.252c-0.461,0.121-0.901,0.086-1.786-0.168
		c-1.866-0.533-3.042-0.381-4.21,0.184c-0.653,0.312-2.291-0.121-3.943-0.803C96.14,192.411,96.107,192.403,96.084,192.409
		L96.084,192.409z M99.755,197.481c-0.842-0.012-1.604,0.525-1.954,1.264c-0.405,1.025,0.285,2.875,1.337,3.033
		c0.935,0.143,0.899-0.438,0.429-0.596c-0.713-0.236-1.552-1.273-1.01-2.174c0.372-0.619,1.5-0.615,2.283,0.148
		c1.579,1.537,3.388,1.639,3.73,0.305c0.104-0.533-0.296-1.244-0.913-1.051c-0.478,0.15-1.581,0.195-2.505-0.441
		C100.674,197.639,100.196,197.489,99.755,197.481z M116.427,202.364c4.029-0.246,2.296,5.342-0.03,3.908
		c-0.831-0.514-0.462-2.395,1.746-2.361c-2.166-1.711-3.642,0.373-3.112,2.713c-0.486,0.764-0.621,2.219-0.94,3.043
		c-0.49,0.939-0.875-1.521-0.38-3.902C114.189,203.461,114.999,202.45,116.427,202.364L116.427,202.364z M93.632,202.557
		c-0.832,0.01,0.023,0.92,0.153,1.027c2.51,2,3.736,3.236,1.718,2.576c-3.28-0.791-4.125,0.15-6.623,1.268
		c-0.459,0.225-0.589,0.084-1.142-0.082c-2.194-0.658-2.034,0.74,0.26,2c3.463,1.904,6.321,2.334,9.013,0.908
		c1.729-0.918,1.818-0.318,0.21,0.697c-2.753,1.629-5.651,1.381-10.101-1.43c-1.438-0.91-1.639-0.303-0.168,0.654
		c3.359,2.059,7.884,3.928,11.578,0.887c0.727-0.656,0.873-0.996,1.432-0.713c1.477,0.748,0.991-0.555-0.016-1.783
		c-0.355-0.434-0.619-0.783-0.596-1.08c0.084-1.064-0.496-1.061-1.026-1.035c-0.634,0.031-0.563-0.184-1.34-1.051
		C95.851,204.137,94.466,202.784,93.632,202.557L93.632,202.557z M60.096,208.223c-1.395,0.111-1.714,0.176-1.374,3.076
		c0.064,0.547,0.304,2.18,0.37,2.795c0.827,7.598,0.157,10.957-1.928,11.889c-0.75,0.334-1.488,0.211-2.038-0.012
		c-1.32-0.537-1.864-2.164-0.905-4.1c0.259-0.523,0.569-1.33,0.694-1.795s0.406-1.488,0.623-2.271c0.524-1.904,0.81-4.803,0.5-7.57
		c-0.211-1.881-0.164-2.039,0.297-3.307c1.014-1.873,1.668-2.832,3.802-2.855C62.523,204.327,63.191,207.991,60.096,208.223
		L60.096,208.223z M111.376,208.057l-0.652,0.029c-0.787-2.654-2.428-1.795-2.701,0.068l-0.555-0.006
		C107.564,204.604,111.934,205.565,111.376,208.057L111.376,208.057z M50.079,206.073c4.454,0.447,5.267,1.572,5.617,7.033
		c0.032,2.643-0.14,4.238-0.539,4.84c-0.668,0.324-1.307-0.283-2.257,0.328c-0.522,0.324-0.423,0.359-0.648,0.006
		c-0.211-0.33,0.036-1.725,0.378-2.838c0.326-1.062-0.232-1.68-1.707-3.041c-0.399-0.369-0.749-0.881-1.107-1.613
		c-0.767-2.09-1.156-1.17-0.518,0.633c0.316,0.775,0.39,1.158-0.57,0.824c-0.564-0.197-1.058,0.037-1.493,0.271
		c-1.223,0.316-2.276-0.363-1.216-0.77c0.645-0.248,1.803-0.607,2.16-0.605c0.26,0,0.386-0.059,0.386-0.184
		c0-0.521-2.355-0.465-4.154,0.164c-2.208,1.031-2.335,0.848-2.132-0.758C42.796,206.293,46.529,205.795,50.079,206.073
		L50.079,206.073z M93.644,206.428c1.139-0.051,2.186,1.273,1.978,2.398l-0.542-0.033c-0.255-2.119-2.227-2.209-2.752,0.162
		l-0.783,0.02C92.042,207.145,92.864,206.463,93.644,206.428z M106.888,206.471c0.449,0.271,0.138,1.004-0.342,1.15
		c-0.182,0.047-0.755-0.359-0.617-0.605C106.188,206.717,106.58,206.561,106.888,206.471L106.888,206.471z M111.993,206.831
		c0.313,0,0.719,0.162,0.774,0.59c0.018,0.627-0.451,0.498-0.606,0.441C111.851,207.569,111.733,206.854,111.993,206.831
		L111.993,206.831z M96.377,207.333c0.835,0.1,1.138,1.164,0.19,1.23C96.146,208.653,96.126,207.586,96.377,207.333z
		 M91.296,207.448c0.1,0.002-0.055,0.875-0.264,1.004c-0.412,0.254-0.939-0.023-0.92-0.287
		C90.159,207.534,90.911,207.444,91.296,207.448L91.296,207.448z M105.867,209.571c1.591,0.611,3.659,1.205,5.604,0.516
		c0.709-0.271,1.277-0.596,1.275-0.289c0,0.32-0.563,0.807-1.58,1.096c-2.095,0.596-3.611,0.365-5.051-0.732
		C105.71,209.852,105.569,209.567,105.867,209.571L105.867,209.571z M105.21,210.483c2.58,1.529,4.91,1.68,7.006,0.566
		c0.85-0.299,0.877-0.025,0.875,0.527C109.313,214.946,104.591,211.448,105.21,210.483z M41.879,212.811
		c-0.64,1.309-0.983,4.535-2.028,5.492C32.723,217.887,37.308,208.344,41.879,212.811z M86.055,211.741
		c-0.403,0.215-0.047,1.242,0.588,1.52c5.452,2.381,8.248,2.666,11.349,1.57c1.285-0.455,1.986-1.521,2.051-2.039
		c0.074-0.617-0.754-0.676-2.207-0.023c-4.421,1.76-7.194,0.389-10.764-0.975C86.74,211.666,86.403,211.622,86.055,211.741
		L86.055,211.741z M65.177,211.815l-0.02,8.068l-5.191-0.094l0.061-1.193l3.887,0.117l-0.061-5.764l-4.509-0.041l-0.008-1.07
		L65.177,211.815L65.177,211.815z M66.383,211.834l5.181,0.008l0.26,0.822h-5.44V211.834L66.383,211.834z M45.483,214.397
		c-0.341,0.309-0.935,0.377-1.18,0.127c-0.548-0.562,0.008-1.596,0.882-1.588C46.062,212.944,46.136,213.801,45.483,214.397
		L45.483,214.397z M47.869,213.084c0.783,0.004,1.042,0.746,0.446,1.346c-0.403,0.373-0.61,0.396-0.974,0.123
		C46.884,214.145,47.123,213.112,47.869,213.084z M42.757,213.284c0.206-0.008,0.387,0.014,0.52,0.221
		c0.477,0.99-1.087,1.674-1.413,0.939C41.623,213.846,42.231,213.303,42.757,213.284z M72.052,213.393l0.302,1.037l-5.971,0.027
		v-1.039L72.052,213.393z M50.681,213.692c0.89,0.107,0.753,1.018,0.34,1.422c-0.71,0.666-1.398,0.449-1.218-0.445
		C49.915,214.108,50.274,213.702,50.681,213.692z M45.88,216.666c-0.314,1.137,0.355,3.434,0.155,3.676
		c-0.435,0.523-1.136,0.254-1.446,0.076c-1.078-0.703-1.146-4.826-0.104-5.074c0.672,0.342,1.122-0.268,1.429-0.357
		S46.015,215.459,45.88,216.666z M61.661,214.973c0.588,0,1.064,0.484,1.064,1.082c0,0.596-0.477,1.08-1.064,1.08
		c-0.589,0-1.065-0.484-1.065-1.08C60.596,215.458,61.072,214.973,61.661,214.973z M66.383,215.112h6.108
		c0.365,0.518,0.328,0.867,0.225,1.225l-6.333,0.01v-1.232V215.112z M48.446,215.252c0.278-0.002,0.418,0.604,0.231,1.295
		c-0.337,1.25-0.319,2.951-0.088,3.688c0.155,0.51,0.308,0.859,0.218,1.004c-0.316,0.508-1.284,0.16-1.695-0.508
		c-1.003-1.889-0.843-5.41,0.355-5.139C47.918,215.823,48.175,215.463,48.446,215.252z M43.062,215.729
		c-0.295,0.479-0.084,3.162-0.114,3.383c-0.038,0.279-0.793,0.135-1.214-0.059c-1.037-0.492-0.755-1.746-0.553-2.758
		c0.226-0.795,0.725-0.855,1.34-0.928C42.86,215.329,43.308,215.36,43.062,215.729L43.062,215.729z M51.37,215.877
		c0.33-0.014,0.375,0.234,0.3,1.227c-0.059,0.779-0.087,1.441,0.038,2.174c0.266,1.559,0.299,1.982-0.088,2.287
		c-0.457,0.361-1.075,0.252-1.553-0.174c-0.98-0.789-1.046-4.658-0.275-4.992C50.508,216.581,50.959,216.006,51.37,215.877
		L51.37,215.877z M72.464,217.047l-0.878,1.223h-5.207v-1.219l6.081-0.006L72.464,217.047z M53.897,218.684
		c0.812,0.01,0.679,1.469,0.241,2.385c-0.371,0.553-0.643,0.609-1.199,0.09C52.307,220.569,53.058,218.68,53.897,218.684z
		 M70.944,219.092l-0.732,0.682l-3.817,0.004V219.1L70.944,219.092L70.944,219.092z"/>

		<path id="path3872-3-7-5" fill="#D40000" d="
		M45.386,189.983l-6.33-5.039c7.528-0.166,15.054,0.01,22.581,0.141l-7.518,5.438c-1.539-1.707-2.448-4-4.632-5.107
		C47.86,186.096,46.749,188.446,45.386,189.983z M100.595,188.149c-0.173-0.111-0.285-0.357-0.411-1.166
		c-1.879-8.895-11.114-8.266-11.053-8.004c-0.068-0.352,11.478-10.934,18.266-19.238c2.052,6.346,8.271,20.844,8.011,20.791
		c0,0-1.799,0.016-6.464-0.104c-4.246,1.947-7.2,3.842-7.062,6.586c-0.023,0.967-0.253,1.367-0.57,1.285
		C101.058,188.27,100.827,188.198,100.595,188.149z M121.638,159.598c6.008-0.096,7.141-3.074,7.826-3.432
		c3.945-0.66,6.383,1.947,8.111,4.736c2.209,1.35,1.934,0.104,2.391-1.998l5.498-1.635l-0.008,1.777
		c-1.697,0.928-4.217,3.305-4.217,3.305l-1.674-0.1l-0.959,1.297c-3.82,2.098-7.564,4.598-11.594,6.217
		C127.013,169.766,122.189,163.434,121.638,159.598L121.638,159.598z M46.792,160.157l-0.062-35.166
		c2.485-0.178,7.06-0.154,7.06-0.154c1.913-3.427,4.521-5.038,7.21-7.029c0.377,4.335,0.521,8.476,0.436,12.813
		c-7.119,8.82-11.074,19.675-6.684,35.9l-2.635-0.297L46.792,160.157z M86.13,162.127c2.027-7.334,3.603-14.777,4.255-22.461
		l13.554-0.203l0.27,4.711L86.13,162.127z M132.278,146.116l-0.252-13.158c9.891-11.995,10.477-22.455,6.809-35.68
		c3.268,0.763,4.949,3.349,8.062,6.912v34.309c-2.164,0.326-7.527,0.646-7.527,0.646c-0.162,1.607-4.693,5.451-7.094,6.971H132.278z
		 M90.399,125.379l-0.604-5.801l17.61-17.075c-1.453,7.398-3.211,14.996-3.725,22.872L90.399,125.379z M61.179,107.258
		c-1.257,0.837-5.891-4.051-6.648-7.336c1.162-1.594,11.358-6.664,11.358-6.664s5.959,7.764,5.716,11.002
		c-2.646,0.714-4.942,0.918-6.952,3.107C63.503,107.472,63.099,106.159,61.179,107.258z M53.137,100.693
		c1.418,0.231,0.509,2.174,0.291,3.597l-7.493,2.254C48.511,104.313,50.337,102.414,53.137,100.693L53.137,100.693z M77.537,83.527
		c1.54-0.048,3.146,0.597,4.334,0.111c0.444-0.176,1.331-0.447,2.304-0.261c2.24,0.703,3.025-1.802,4.453-1.812
		c1.849,0.005,2.873-1.308,2.886-3.936c0.008-1.137,0.099-1.265,0.31-1.377c0.63-0.339,1.303,0.136,1.387,0.76
		c1.325,4.84,4.672,9.192,9.949,8.846c-4.202,4.348-16.984,17.711-16.984,17.711C83.872,96.449,80.815,89.822,77.537,83.527
		L77.537,83.527z M131.913,79.356l7.697-5.672l4.609,5.692l3.982-5.419c2.344,1.702,7.668,5.498,7.668,5.498
		s-15.969,0.239-23.959-0.1H131.913z"/>

		<path id="path3870-4-7-1" d="
		M136.28,27.939L65.505,28.4l13.754,18.647c14.612-3.02,27.332-1.058,40.533,1.282L136.28,27.939z M134.47,28.885l-4.711,5.94
		c-1.303-1.196-4.213-0.764-3.801,1.854c-3.609-1.905-4.375,3.325-1.311,3.11c-0.385,1.027-3.479,1.299-4.352-0.565
		c-3.178,1.808-4.147,0.055-4.989-1.085c4.038,2.783,6.003-2.937,1.558-3.259c1.746-3.586-4.482-5.213-4.115-0.547
		c-4.107-0.944-3.166,4.923-0.148,3.721c-1.96,2.99-5.175,0.981-5.826,0.398c-1.652,1.259-4.777,1.299-5.653-0.713
		c4.572,0.934,4.071-5.178,0.011-3.771c2.164-4.693-5.035-4.062-3.286-0.217c-4.096-0.158-3.189,4.969,0.408,4.096
		c-3.196,3.059-5.591,0.209-6.097,0.147c-1.893,2.119-5.216,0.958-5.672-0.294c3.26,1.308,4.329-4.253,0.219-3.919
		c1.053-3.582-4.861-4.017-3.557,0.052c-3.259-0.749-3.437,4.548,0.215,3.724c0.227,1.45-2.646,2.84-4.413,1.438
		c-1.296,0.721-2.715,1.841-4.401,0.183c2.569-0.42,2.991-4.828-1.156-3.875c0.197-2.706-1.333-2.854-3.224-2.167l-3.03-4.165
		L134.47,28.885z M85.646,35.531c-0.226,0.504-0.605,0.848-0.517,1.231c0.073,0.315,0.392,0.752,0.837,1.345
		c3.541,4.686,10.721,4.528,12.88-0.302c0.44-0.897,0.351-1.102-0.179-1.864c-0.641-0.921,0.082-1.904,0.866-1.821
		c1.17,0.124,1.372,1.159,0.81,1.896c-1.223,1.562,2.134,5.094,5.485,5.649c4.296,0.712,8.369-2.355,7.802-5.104
		c-0.032-0.157-0.111-0.304-0.145-0.469c-0.457-2.301,3.139-1.198,1.844,0.268c-0.485,0.53-0.748,0.688-0.683,1.271
		c1.044,4.87,6.876,5.38,9.653,3.879c-3.584,5.934-9.262,1.361-10.26-2.786c-5.033,7.376-11.08,5.843-14.449-0.639
		c0.398,0.404-6.639,11.619-14.625,0.12c-3.381,9.255-9.546,2.999-9.124,2.619c2.833,1.602,7.976,1.021,8.472-3.93
		c0.067-0.611-0.389-0.648-0.653-1.131C82.321,33.316,86.642,33.299,85.646,35.531L85.646,35.531z M72.338,36.14
		c0.64,0.061,0.747,0.331,0.642,0.991L72.338,36.14z M127.259,37.879l-0.928,1.182C126.11,38.482,126.105,37.952,127.259,37.879z
		 M137.349,38.27c-2.201,0.095-3.902,3.183-3.791,7.301c0.053,1.997,0.4,7.009,0.535,7.754c0.188,1.042-0.018,2.455-0.379,2.604
		c-0.953,0.394-1.311,0.646-1.568,1.108c-0.67,1.2-0.115,2.556,1.293,3.162c1.008,0.434,2.283-0.165,3.146-1.473
		c0.48-0.726,0.592-1.049,1.016-2.875c0.195-0.841,0.178-2.235-0.045-3.515c-0.508-2.909-0.131-6.532,0.854-8.234
		c1.768-3.052,1.734-5.051-0.092-5.681C137.987,38.308,137.663,38.257,137.349,38.27L137.349,38.27z M137.234,38.735
		c2.562,0.01,2.494,2.604,1.072,3.402c-0.551,0.25-1.223,0.309-1.896-0.14c-0.756-0.443-0.654,0.062,0.129,0.64
		c0.92,0.678,1.312,0.636,0.818,2.225c-0.461,1.479-0.703,4.678-0.451,6.494c0.689,4.972,0.107,7.449-1.955,8.312
		c-1.016,0.425-2.111-0.175-2.395-1.003c-0.439-1.296,0.346-2.409,2.285-2.098c0,0,0.137-0.413-0.367-4.728
		c-0.701-6.002-0.426-10.191,0.66-11.656C135.714,39.402,136.464,38.732,137.234,38.735z M154.614,44.924
		c-0.598,0.005-1.242,0.17-1.9,0.547c0,0-0.072,2.698-0.148,3.107c-0.436,2.283-0.309,2.556,0.74,2.879
		c2.543,0.786,4.631-0.926,4.539-3.611C157.792,46.337,156.411,44.909,154.614,44.924z M154.958,45.284
		c1.391-0.042,2.652,1.607,2.516,3.162c-0.072,1.86-1.826,2.875-3.396,2.55c-0.465-0.071-0.947-0.161-1.096-0.516
		c-0.316-0.492,0.191-0.671,1.248-0.666c1.156,0.006,1.371-0.155,1.756-0.813c0.76-1.304-0.213-2.957-1.455-2.647
		c-0.424,0.106-0.484,0.301,0.012,0.442c1.521,0.696,0.955,1.667,0.428,2.062c-0.629,0.468-1.666-0.174-1.844-0.562l0.105-2.519
		C153.232,45.776,153.736,45.299,154.958,45.284L154.958,45.284z M139.284,56.956c0,0-0.58,0.281-0.859,0.543
		c-0.615,0.575-0.744,1.448-0.443,2.306c0.133,0.379,0.113,0.443-0.355,1.062c-1.33,1.761-1.502,2.64-0.82,4.228
		c0.311,0.721,0.312,0.721,0.02,1.674c-1.256,4.089-3.732,8.723-6.375,11.932c-0.408,0.496-0.572,1.004-0.572,1.004
		s0.619-0.032,0.961-0.206c2.732-1.379,5.617-4.052,8.299-5.805c-4.24,3.493-8.76,6.619-8.76,6.619l5.771,0.313
		c-1.449,1.509-26.758,23.277-20.037,62.323c7.9-1.994,11.576-5.303,15.789-9.129c0.039,3.145,0.105,11.613,0.133,11.613
		c0.08-0.141-3.656-1.43-2.768,1.693c0.529,1.713,0.795,6.047-0.141,8.494c-0.041,0.104,0.402,0.268,0.357,0.363
		c-0.049,0.111-0.6,0.113-0.6,0.113c-1.434,2.715-5.129,3.311-6.949,3.229c-0.672-0.064-0.4,0.871-0.312,1.209
		c0.34,1.398,1.926,4.393,4.893,9.203l0.777,0.104l-0.449,0.422c0.35,0.648,1.285,1.865,1.285,1.865l0.041,0.414
		c0,0,1.627,2.299,2.5,3.377c0.059,0.074,0.195-0.1,0.256-0.027c0.482,0.59,1.064,1.252,1.557,1.842
		c0.039,0.045-0.076,0.215-0.037,0.258c0.928,1.025,2.75,3.098,2.75,3.098l0.361-0.088l1.434,1.639
		c11.891-5.488,24.316-17.629,24.188-17.604l0.102-26.133l-14.078-0.041l-0.061-34.619l14.064,14.113l-0.092-4.05
		c-3.189-3.078-16.012-16.209-16.012-16.209c1.867-0.264,3.674-0.879,5.426-1.845c3.059,1.708,6.328,2.734,10.074,2.229l-0.016-3.84
		c-4.254-0.009-6.891-1.439-8.799-3.166l-2.627-0.09c-4.852,3.745-8.281,2.008-11.971,1.271l-2.551-3.728l26.123-0.136l-0.188-9.049
		l-3.967,0.089L154.03,77.9l2.99,1.283c0,0-0.049-0.498-0.646-1.445c-1.609-2.671-3.652-6.602-4.879-10.029
		c-0.592-1.741-0.592-1.669-0.092-2.688c0.688-1.402,0.539-3.099-0.365-4.054c-0.639-0.673-0.617-0.816-0.408-1.317
		c0.848-1.985-1.199-2.716-1.207-2.589C145.048,58.772,139.179,57.01,139.284,56.956L139.284,56.956z M149.462,57.677
		c0.873-0.008,0.969,0.382,0.965,1.042c-0.074,1.211-1.627,1.649-2.328,1.818c-3.357,0.78-9.209,0.317-9.59-1.271
		c-0.279-1.168,0.438-1.815,2.82-1.236C145.161,58.865,147.532,57.966,149.462,57.677z M138.628,61.048
		c0.348-0.002,0.766,0.357,0.885,0.945c0.102,0.503-0.412,1.98-0.844,2.321c-1.066,0.844-2.029-0.468-1.316-1.895
		C137.763,61.598,138.179,61.051,138.628,61.048L138.628,61.048z M150.079,61.215c0.16,0.004,0.445,0.037,0.631,0.171
		c0.844,0.606,0.924,2.707,0.133,3.011c-0.805,0.309-1.553-0.543-1.547-1.88C149.296,61.698,149.601,61.202,150.079,61.215
		L150.079,61.215z M147.396,61.648c0.172-0.009,0.355,0.028,0.543,0.116c0.703,0.33,1.045,2.533,0.348,3.236
		c-0.543,0.545-1.707,0.515-2.047-0.616C145.833,63.032,146.468,61.696,147.396,61.648L147.396,61.648z M141.444,61.711
		c1.031,0.007,1.266,2.335,0.256,3.294c-0.844,0.802-2.133,0.012-1.729-1.577C140.173,62.633,140.636,61.767,141.444,61.711z
		 M144.376,62.083c1.51,0.262,1.383,4.013-0.596,3.639C142.655,64.924,142.685,62.139,144.376,62.083z M137.777,66.102l2.133,0.201
		c-0.055-0.033-3.395,7.166-6.381,9.071C135.169,72.601,136.609,69.293,137.777,66.102L137.777,66.102z M150.568,66.14
		c1.246,3.373,2.525,6.797,4.227,10.246c-2.584-2.529-4.875-6.418-6.986-10.067L150.568,66.14z M140.536,66.466l1.412,0.016
		c0.471,2.185,1.285,3.577,2.24,4.773c0.828-1.419,1.352-2.979,1.859-4.643l1.123-0.015c0.43,0.26-1.32,6.845-3.035,7.646
		C142.319,72.746,140.79,68.701,140.536,66.466z M139.941,68.023c-0.119,0.157,2.193,5.798,4.15,7.606
		c1.844-1.815,3.02-4.209,3.809-7.061l6.066,8.642l-5.914-4.107c-1.18,1.991-2.434,3.891-3.939,5.472
		c-1.623-1.782-3.027-3.896-4.5-5.906c-2.281,1.717-3.883,3.55-6.846,5.15C132.78,77.887,138.571,71.479,139.941,68.023z
		 M139.372,74.165l4.127,5.119l-10.988-0.159L139.372,74.165z M148.308,74.247l6.934,4.844l-10.33,0.108L148.308,74.247z
		 M93.074,76.63c0,0,0.059,0.308,0.126,0.492c1.23,5.095,4.624,9.33,9.73,8.827L86.146,102.98c0,0-2.771-9.547-8.387-19.333
		c0,0,1.024,0.214,1.824,0.372c0.75,0.116,1.32,0.08,1.883-0.069c0.429-0.064,0.758-0.351,1.141-0.435
		c0.647-0.138,1.46,0.099,1.89,0.252c1.153,0.222,1.938-0.434,3.383-1.729c0.384-0.344,0.531-0.261,1.015-0.259
		c1.81,0.004,2.964-1.571,2.761-4.015l-0.092-1.085l-0.229,1.221c-0.432,2.301-0.733,3.293-2.978,3.391
		c-0.543,0.023-0.748,0.395-1.606,1.143c-1.203,1.049-2.053,1.139-2.905,0.729c-0.87-0.418-0.95-0.172-1.771,0.225
		c-0.939,0.455-2.309,0.401-3.542,0.043c-1.723-0.501-1.512-0.333-1.512-0.333c9.975,18.021,13.479,35.305,13.258,50.659
		c-0.314,21.877-7.854,39.533-14.469,50.178c0,0,1.135-0.117,2.146-0.268c0.487-0.137,0.862-0.004,1.344,0.168
		c0.45,0.16,0.789,0.152,1.229,0.1c0.344-0.039,1.185,0.006,1.726,0.086c1.228,0.178,1.31,0.016,2.646-1.303
		c3.793-3.74,3.547-3.602,6.295-3.51c4.124,0.135,7.422,2.896,8.796,7.373c0.173,0.566,0.401,1.361,0.432,1.361l-0.268-1.186
		c-1.207-6.004-6.265-8.199-10.486-8.119l17.819-18.135c-0.091,0.018,4.131,13.799,7.807,19.941c0.008,0.041-1.115-0.49-3.165-0.221
		c-1.114,0.146-2.361-0.004-3.062-0.125c-0.901-0.021-1.45,0.246-2.572,1.186c-0.467,0.406-0.887,0.85-1.798,1.24
		c-2.167,0.93-3.031,1.889-3.043,4.301c0,0.439-0.067,1-0.061,1.217c0,0.059,0,0.162,0.011,0.162c0.037,0,0.088-0.09,0.131-0.154
		c0.107-0.16,0.326-0.598,0.494-1.607c0.301-1.803,0.674-2.434,2.357-3.234c0.504-0.24,1.568-0.893,2.04-1.275
		c1.551-1.254,2.067-1.541,3.327-1.244c0.717,0.17,1.325,0.256,2.286,0.139c1.144-0.141,1.21-0.201,2.433,0.119
		c0.83,0.217,1.856,0.428,1.856,0.428c-17.271-35.205-16.7-67.841,0.346-100.954c0,0-5.046,0.061-5.261,0.193
		c-0.081,0.051-0.694-0.006-1.363-0.128c-1.373-0.252-1.072-0.083-4.312,3.225c-4.008,4.087-10.416,0.827-12.346-6.034
		c-0.102-0.358-0.188-0.575-0.34-0.829C93.202,76.766,93.075,76.63,93.074,76.63L93.074,76.63z M109.402,80.656
		c0.742,0.079,1.295,0.278,1.203,0.983l-23.787,23.643l-0.37-1.523L109.402,80.656z M114.417,80.8
		c-0.293,0.587-1.086,1.321-1.435,1.875l1.294,1.636l-0.718,1.317l-1.989-1.697l-3.787,3.794l3.158,3.596l-2.99,3.062l-0.996-1.144
		l1.581-1.678l-2.455-2.333l-4.325,4.267l3.523,3.635l-2.584,2.515l-1.031-0.991l1.355-1.52l-2.298-2.41l-4.027,4.17l3.188,3.6
		l-2.462,2.48l-1.092-1.124l1.184-1.252l-2.279-2.422l-4.104,4.107l3.328,3.666l-2.446,2.221l-0.863-0.927l1.184-1.29l-2.237-2.43
		l-2.546,2.345l-0.424-1.608l25.188-25.397L114.417,80.8z M115.868,81.175l-1.062,2.163l-0.82-0.915l1.069-1.116L115.868,81.175z
		 M56.461,81.314c-0.653,0.162-15.649,8.642-24.188,17.949l-0.026,3.469l-0.316,0.414l0.152,5.367l0.214,0.287l0.073,2.189
		l-0.34,0.577v6.01l0.453,0.078l0.073,7.354l14.025,0.039l-0.015,35.139c0,0-8.236-9.189-14.167-14.613l0.023,4.107l15.689,16.453
		c-1.079,0.154-2.483,0.42-4.6,1.605c-5.091-3.229-10.976-2.24-10.976-2.24l0.023,4.186c3.742-0.367,7.119,0.152,11.052,2.84
		c3.237-2.227,7.14-3.582,12.956-1.812c1.28,2.057,2.561,4.18,3.84,5.561l-27.779,0.209l0.035,8.475c1.232,0.025,4.312,0,4.312,0
		c1.563,3.107,4.635,7.35,5.909,12.686c-1.751,2.135-1.61,3.852,0.093,6.002c-0.016,0.969-0.303,2.039,0.77,3.119
		c3.535-1.754,7.525-0.975,10.495-0.08c1.007,0.305,1.387-0.859,1.352-2.324c-0.09-0.838-0.085-1.197,0.55-1.756
		c1.511-1.33,0.572-4.062,0.336-4.123c-0.088-2.395,7.477-14.396,7.481-14.178l-1.507,0.555l-6.467,0.029
		c17.009-16.646,24.118-35.637,22.629-57.08c-0.331-5.402-1.16-7.878-1.16-7.878c-5.991,2.702-10.914,4.667-15.697,9.866
		l-0.316-11.176c0.266,0.529,2.041,1.018,2.836,0.341c0.544-0.361,0.599-0.748,0.096-2.104c-0.731-1.969-0.904-6.191-0.359-7.626
		c0.064-0.167,0.118-0.613,0.164-1.05c0.062-0.588-0.064-0.622-0.118-0.612c0.14-0.034,0.724,0.086,0.794,0.023
		c2.043-1.825,4.235-2.966,6.925-3.085l0.068-1.333c-1.994-5.112-3.683-7.116-5.489-9.975c0,0-0.512-0.172-0.836-0.104l0.416-0.445
		c-2.534-4.082-6.141-7.797-9.456-11.323c0.01-0.012,0-0.017-0.019-0.012H56.461z M56.351,82.009l1.798,1.686
		c-8.581,4.186-17.046,10.319-25.382,18.639l0.114-3.058C42.304,90.281,49.411,85.961,56.351,82.009L56.351,82.009z M111.455,85.065
		l1.08,1.093l-1.496,1.764l0.974,1.008l-0.543,1.345l-2.488-2.624L111.455,85.065z M57.889,85.205c0.565,0,1.022,0.465,1.022,1.039
		c0,0.573-0.457,1.038-1.022,1.038s-1.023-0.465-1.023-1.038C56.865,85.67,57.323,85.205,57.889,85.205z M131.314,86.639
		c17.49,19.762,8.51,48.481-14.839,55.379l-0.259-1.623c23.555-8.055,29.08-34.999,13.795-51.939L131.314,86.639z M60.92,86.77
		l1.114,1.311c-9.972,4.831-19.698,12.074-29.101,22.525l-0.091-2.639C41.673,98.546,51.112,91.729,60.92,86.77L60.92,86.77z
		 M54.487,87.174c0.564,0,1.023,0.465,1.023,1.039c0,0.573-0.459,1.038-1.023,1.038c-0.565,0-1.023-0.465-1.023-1.038
		C53.464,87.639,53.922,87.174,54.487,87.174z M51.372,89.127c0.565,0,1.023,0.465,1.023,1.038c0,0.574-0.458,1.039-1.023,1.039
		c-0.564,0-1.023-0.465-1.023-1.039C50.349,89.592,50.808,89.127,51.372,89.127z M61.744,89.809c0.565,0,1.023,0.466,1.023,1.039
		s-0.458,1.038-1.023,1.038s-1.022-0.465-1.022-1.038S61.179,89.809,61.744,89.809z M106.176,90.526l1.022,1.096l-1.622,1.651
		l2.31,2.449l2.222-2.17l-1.114,3.231l-19.588,19.871l-0.408-2.085l1.542-1.573l-2.362-2.395l-0.416-1.597l2.324-2.209l0.974,1.016
		l-1.359,1.593l2.188,2.186l3.974-3.712l-3.279-3.654l2.707-2.659l0.936,0.927l-1.294,1.353l2.278,2.507l4.077-3.964l-3.348-3.593
		l2.691-2.692l1.019,0.987l-1.354,1.651l2.317,2.274l3.992-4.003l-3.282-3.503L106.176,90.526z M48.319,91.224
		c0.565,0,1.022,0.465,1.022,1.038c0,0.574-0.457,1.039-1.022,1.039s-1.023-0.465-1.023-1.039
		C47.295,91.688,47.753,91.224,48.319,91.224z M64.451,91.425l0.778,1.313c-11.871,6.088-20.081,12.186-32.23,26.195v-1.763
		C42.378,105.481,52.13,97.945,64.451,91.425L64.451,91.425z M58.488,91.58c0.564,0,1.022,0.465,1.022,1.038
		c0,0.574-0.458,1.039-1.022,1.039c-0.565,0-1.023-0.465-1.023-1.039C57.465,92.045,57.923,91.58,58.488,91.58z M150.339,91.979
		c2.094,1.891,6.492,3.776,9.326,3.576l0.076,2.274c-4.943,0.477-9.262-2.735-9.262-2.735c-3.807,2.355-7.682,2.653-11.723,1.631
		l-1.553-3.379C143.194,96.166,148.814,93.476,150.339,91.979L150.339,91.979z M126.683,92.595c0.219,0.412,0.959,0.888,0.959,0.888
		c4.611-1.219,6.047,3.606,3.896,6.363l0.615,2.022c0.822,0.151,1.545,0.444,2.129,0.856c1.123,0.789,1.74,2.157,1.6,3.592
		c0.158,1.556-2.135,3.003-2.26,2.896l-0.029,2.224c0.645,0.545,1.422,1.073,1.916,1.845c1.102,1.878,0.664,3.771-1.035,4.96
		c-1.012,0.694-2.109,0.785-2.152,0.713l-1.064,2.526c0.938,0.538,1.199,1.451,1.346,2.104c0.318,1.416-0.66,3.261-1.889,3.941
		c-1.551,0.859-3.666,0.096-3.664,0.097l-1.512,1.534c0.389,1.33,0.496,2.122,0.289,2.902c-0.51,1.93-2.502,2.688-4.104,2.542
		c-1.258-0.113-2.202-1.045-2.202-1.045l-1.676,0.65c0.047,0,0.024,2.154-0.821,2.812c-0.266,0.279-1.21,0.9-1.21,0.9l-0.222-1.484
		c0.664-0.486,1.077-1.662,0.943-2.523l3.619-1.797c0,0.133,0.99,1.108,1.668,1.249c1.389,0.287,2.84-0.814,2.844-2.109
		c0-0.756-0.428-1.27-0.551-1.88l3.074-3.228c1.271,0.443,2.164,0.52,2.732,0.186c1.074-0.629,1.363-1.927,1.156-2.708
		c-0.244-0.924-1.055-1.521-1.109-1.608l1.713-4.398c0.799-0.004,1.293-0.131,1.916-0.542c1.271-0.848,1.107-2.493,0.566-3.274
		c-0.66-0.951-1.617-1.128-1.691-1.104l0.125-4.569c0,0.038,1.734-0.845,1.922-1.863c0.273-1.5-0.35-2.455-2.166-2.88
		c-1.006-0.235-0.953-0.038-0.953-0.038l-1.436-4.135c2.273-1.408,1.553-3.647,0.4-4.398c-1.215-0.792-2.932-0.058-2.932-0.058
		s-0.781-0.788-1.375-1.423L126.683,92.595z M65.81,93.433c1.495,2.04,4.025,6.127,5.44,9.784c0.062,0.159,0.03,0.969,0.03,0.969
		c-4.036,0.356-5.422,1.962-6.856,3.092c-1.112-0.579-1.581-1.258-3.592,0.02c-0.009,0.061-5.128-3.145-6.108-7.494
		C58.385,97.513,61.874,95.332,65.81,93.433L65.81,93.433z M45.321,93.459c0.565,0,1.023,0.465,1.023,1.039
		c0,0.573-0.458,1.038-1.023,1.038c-0.564,0-1.022-0.465-1.022-1.038C44.299,93.924,44.757,93.459,45.321,93.459z M55.022,93.665
		c0.565,0,1.023,0.465,1.023,1.038s-0.458,1.038-1.023,1.038c-0.564,0-1.022-0.465-1.022-1.038S54.457,93.665,55.022,93.665z
		 M125.034,94.939c1.764,2.356,4.422,6.812,5.053,10.757c0.891,5.55,0.299,11.372-2.209,15.442
		c-4.549,8.696-12.437,10.548-12.441,10.851l-0.08-1.782c0.074,0.4,6.027-2.146,10.082-7.894c2.502-3.896,3.922-9.463,3.439-13.808
		c-0.301-6.261-4.678-12.034-4.715-12.055L125.034,94.939z M42.13,95.788c0.565,0,1.023,0.465,1.023,1.039
		c0,0.573-0.458,1.038-1.023,1.038c-0.564,0-1.022-0.465-1.022-1.038C41.108,96.253,41.566,95.788,42.13,95.788z M51.819,95.804
		c0.564,0,1.022,0.465,1.022,1.038c0,0.574-0.458,1.039-1.022,1.039c-0.565,0-1.023-0.465-1.023-1.039
		C50.796,96.269,51.254,95.804,51.819,95.804z M139.169,97.556c2.271,0.249,5.047,4.428,7.574,6.812l0.027,34.063l-7.547,0.154
		c-0.984,2.396-3.264,4.766-6.895,7.104v-12.766c12.385-13.467,9.014-28.208,6.844-35.367H139.169z M39.351,97.942
		c0.565,0,1.023,0.465,1.023,1.039c0,0.573-0.458,1.038-1.023,1.038c-0.564,0-1.022-0.465-1.022-1.038
		C38.328,98.407,38.786,97.942,39.351,97.942z M48.677,98.129c0.565,0,1.023,0.465,1.023,1.038c0,0.574-0.458,1.039-1.023,1.039
		c-0.564,0-1.022-0.465-1.022-1.039C47.654,98.594,48.112,98.129,48.677,98.129z M144.491,98.21l15.43,15.791l-0.053,2.317
		L142.48,98.385L144.491,98.21z M54.335,99.694l0.408,1.984c-0.499-0.796-0.518-1.09-1.382-1.229L54.335,99.694z M45.982,100.271
		c0.565,0,1.023,0.465,1.023,1.039c0,0.573-0.458,1.038-1.023,1.038c-0.564,0-1.022-0.465-1.022-1.038
		C44.959,100.736,45.417,100.271,45.982,100.271z M36.74,100.562c0.565,0,1.022,0.465,1.022,1.038c0,0.574-0.457,1.039-1.022,1.039
		s-1.023-0.465-1.023-1.039C35.717,101.027,36.175,100.562,36.74,100.562z M123.552,100.562l3.047,2.189l-0.992,3.948l-3.119-2.844
		L123.552,100.562z M53.155,100.884l0.542,0.325l-0.63,2.701l-7.013,2.569C48.31,104.525,50.627,102.395,53.155,100.884
		L53.155,100.884z M54.304,102.14c0.499,2.002,1.58,4.962,2.906,7.469c-0.9,0.473-4.137,2.331-4.128,3.195
		c0.457,1.566,3.875,3.003,3.875,3.003c-1.296,2.132-2.526,4.646-3.535,7.537c-0.584-1.01-0.651-4.99,0.607-6.646
		c-1.241-0.497-2.939-1.632-4.229-2.806c0.832-2.989,4.38-4.775,4.535-4.798C54.273,109.245,53.287,102.851,54.304,102.14
		L54.304,102.14z M42.921,102.644c0.564,0,1.022,0.465,1.022,1.038s-0.458,1.038-1.022,1.038c-0.565,0-1.023-0.465-1.023-1.038
		S42.356,102.644,42.921,102.644z M121.025,102.728c4.553,8.608,1.846,16.086-5.416,21.444l0.168-2.03
		c5.01-3.689,8.254-10.953,4.596-17.88L121.025,102.728z M34.278,102.977c0.564,0,1.022,0.465,1.022,1.038
		c0,0.574-0.458,1.039-1.022,1.039c-0.565,0-1.023-0.465-1.023-1.039C33.255,103.441,33.713,102.977,34.278,102.977z
		 M107.096,103.03c-3.341,12.64-3.258,18.433-3.646,21.859l-12.968,0.112l-0.504-4.557L107.096,103.03z M55.289,103.379
		c0,0,2.812,2.65,5.337,4.965l-0.302,0.604l-2.454,0.333C55.991,105.527,55.289,103.379,55.289,103.379z M52.96,104.767l0.02,0.004
		l0.156,1.884c-0.843-0.032-9.962,3.835-16.969,10.009c1.045-1.867,2.807-3.658,4.509-5.185
		C44.298,107.869,52.96,104.767,52.96,104.767L52.96,104.767z M39.996,105.196c0.565,0,1.023,0.466,1.023,1.039
		s-0.458,1.038-1.023,1.038s-1.022-0.465-1.022-1.038S39.431,105.196,39.996,105.196z M45.737,106.379l0.52,0.542l-2.42,1.271
		L45.737,106.379z M62.61,106.933c0.033-0.001,0.069,0,0.104,0.004c0.375,0.048,0.53,0.229,0.744,0.411
		c-0.474-0.1-0.938-0.156-1.382-0.132C62.189,107.08,62.38,106.942,62.61,106.933L62.61,106.933z M53.35,107.324l0.222,1.406
		c-5.247,3.028-11.49,5.891-20.572,14.606v-2.899C38.699,115.077,45.348,110.582,53.35,107.324z M60.408,107.456
		c0.327,0.081,0.618,0.086,0.916,0.012c0,0-0.19,0.383-0.416,0.392C60.67,107.868,60.408,107.456,60.408,107.456L60.408,107.456z
		 M62.634,107.537c0.66-0.041,1.11,0.571,0.978,1.36c-0.507,2.674-0.487,5.382,0.058,7.273c0.424,1.475,0.531,1.993,0.18,2.24
		c-3.094,2.165-4.789-7.598-2.207-10.366C61.992,107.711,62.335,107.557,62.634,107.537L62.634,107.537z M37.374,107.878
		c0.564,0,1.023,0.466,1.023,1.039s-0.459,1.038-1.023,1.038c-0.565,0-1.023-0.465-1.023-1.038S36.809,107.878,37.374,107.878z
		 M126.271,108.118l1.924,3.274l-2.68,3.046l-1.631-3.538L126.271,108.118z M60.061,109.897l-0.1,1.131
		c-1.382,0.425-2.586,1.029-3.622,1.923c-0.2,0.174,3.201,1.731,3.558,1.371l-0.008,1.205c-0.048,0.396-5.624-1.401-6.001-2.743
		C54.52,111.892,58.048,109.816,60.061,109.897L60.061,109.897z M34.683,110.498c0.564,0,1.023,0.465,1.023,1.038
		c0,0.574-0.459,1.039-1.023,1.039c-0.565,0-1.023-0.465-1.023-1.039C33.659,110.963,34.118,110.498,34.683,110.498z M49.892,111.69
		c-0.396,0.763-0.981,1.777-1.094,2.886c-3.826,2.354-7.75,4.554-12.523,9.957l-2.573-0.016l-0.058-0.686
		C38.861,118.783,44.511,114.427,49.892,111.69L49.892,111.69z M59.748,112.017l0.026,1.423c-0.89,0.011-1.376-0.283-2.039-0.624
		C58.294,112.457,58.728,112.102,59.748,112.017L59.748,112.017z M88.535,112.168l0.718,0.764l-0.446,0.426L88.535,112.168z
		 M49.773,115.125l1.417,0.895c-3.646,1.932-7.485,4.786-10.808,8.514h-2.806C41.12,120.635,44.937,117.137,49.773,115.125
		L49.773,115.125z M125.327,116.151l0.283,3.867l-3.559,1.98l0.068-4.08L125.327,116.151z M57.667,116.167l2.447,0.271l0.252,1.05
		c-2.053,1.325-3.837,2.88-5.547,4.495C55.474,119.908,56.496,117.849,57.667,116.167z M51.8,116.582l1.05,0.492l-0.416,1.817
		c-2.998,1.353-5.386,3.18-7.944,5.642h-2.878C44.132,121.791,48.323,118.34,51.8,116.582L51.8,116.582z M60.904,118.291
		c0.009-0.001,0.013-0.001,0.012,0.004l0.382,11.92c-10.569,12.559-9.995,24.706-6.914,35.719l-2.016-0.092
		c-2.343-2.955-5.459-5.965-5.459-5.965l-0.008-34.673l7.287,0.027C55.907,121.195,60.634,118.323,60.904,118.291L60.904,118.291z
		 M52.3,119.965l0.088,1.589c-1.507,0.907-2.786,1.906-3.886,2.979h-2.737C47.657,122.746,49.535,120.946,52.3,119.965z
		 M77.148,120.743l0.401,1.876c-24.532,9.008-28.965,35.194-14.487,53.17l-0.984,1.115
		C45.452,158.784,52.749,129.181,77.148,120.743z M52.495,122.619c0,0,0.134,1.437,0.176,1.914h-2.749
		C50.54,123.798,51.089,123.035,52.495,122.619z M121.528,123.22l-1.579,3.739l-4.218,0.066l1.916-3.739L121.528,123.22z
		 M94.827,125.781h3.844v3.728h-3.844V125.781z M78.191,126.149l0.064,1.639c-1.708,0.883-1.277,2.286-1.706,2.264
		c-1.05,0.27-3.817,1.759-3.817,1.759c-0.982-0.903-2.306-0.676-2.921-0.236c-0.853,0.567-1.041,1.887-0.798,3.004l-2.936,3.482
		c-1.418-0.615-2.801-0.576-3.489,0.385c-0.776,1.082-0.482,2.426,0.802,3.932l-1.6,4.166c-0.184-0.248-2.861,0.549-2.897,2.162
		c-0.038,1.709,2.214,2.822,2.21,2.953l-0.106,4.596c-0.102-0.221-2.298,0.689-2,2.891c0.273,2.027,2.993,1.781,3.05,1.949
		l1.478,4.398c-0.1-0.135-2.002,1.758-0.836,3.547c0.972,1.49,3.795,0.525,3.771,0.43l0.782,1.119l-0.866,0.953
		c0,0-0.374-0.455-0.584-0.414c-1.644,0.318-3.479-0.064-4.359-1.395c-1.199-1.879,0.14-4.814,0.564-4.791l-1.015-2.533
		c-1.851-0.037-3.418-1.715-3.501-3.119c-0.175-2.943,2.205-4.174,2.21-4.154l0.069-2.744c-0.146,0.164-2.351-1.424-2.298-3.248
		c0.038-1.332,1.144-2.898,2.504-3.529c0.394-0.188,1.008-0.484,1.008-0.484l0.92-2.248c0,0-1.303-1.91-0.966-3.836
		c0.627-2.916,4.371-2.717,4.963-2.434l1.736-2.209c-0.854-2.015,0.622-4.354,2.554-4.735c0.859-0.14,3.265,0.438,3.265,0.438
		l2.226-1.166C75.632,127.705,76.96,126.901,78.191,126.149L78.191,126.149z M90.845,130.229h3.295v3.728h-3.295V130.229z
		 M99.621,130.229h3.715v3.728h-3.715V130.229z M78.457,131.164l-0.042,1.426c-21.269,10.467-12.57,32.141-9.536,34.663
		l-0.684,1.531C64.464,166.479,54.842,141.471,78.457,131.164L78.457,131.164z M94.827,134.938h3.996l0.035,3.832h-3.997
		L94.827,134.938z M77.533,136.801l-1.267,3.492l-3.906,0.334l1.443-3.484L77.533,136.801z M157.333,139.356l2.672,0.016
		c-4.996,5.932-10.387,9.973-15.709,12.188c0,0-0.018-0.529,0.146-0.947c0.129-0.33-0.08-1.166-0.08-1.166
		C150.277,146.489,154.341,143.055,157.333,139.356L157.333,139.356z M143.64,139.407c-0.688,0.838-1.473,1.578-2.447,2.125
		l-0.385-2.16C141.624,139.362,143.64,139.407,143.64,139.407z M148.343,139.36c0.27,0.689-7.014,4.682-7.039,4.342l0.02-1.328
		l3.93-2.959L148.343,139.36z M149.915,139.36h0.016l2.051,0.012c-1.852,2.965-11.645,8.348-11.238,7.59l0.395-2.168
		C144.296,143.383,147.161,141.467,149.915,139.36L149.915,139.36z M153.37,139.36l2.697,0.012
		c-4.057,5.23-8.174,7.141-12.123,9.391c-0.238-0.035-0.131-0.125-0.869-0.104l-1.352-1.068
		C141.976,147.825,150.8,142.575,153.37,139.36z M77.896,139.545l-0.091,1.582c-5.678,4.955-7.955,11.287-5.001,18.639l-0.703,1.568
		C68.925,153.493,69.862,145.872,77.896,139.545L77.896,139.545z M103.747,139.793l0.303,4.266l-17.626,17.416
		c2.684-9.73,3.426-15.602,4.146-21.658L103.747,139.793z M160.189,140.797l0.008,2.367c-6.949,7.77-13.953,11.252-20.004,12.66
		l-0.137-0.91l2.801-1.752C151.886,149.17,155.841,145.151,160.189,140.797L160.189,140.797z M139.099,140.86
		c0.123,1.711-1.379,4.941-3.094,6.766l-2.939-0.008l-0.324-1.295C135.177,144.989,137.435,143.182,139.099,140.86L139.099,140.86z
		 M139.986,141.372c1.08,1.762-0.539,6.326-0.605,6.145c-0.131,0.314,9.234,2.324-0.387,7.025c0.211,1.381,1.111,4.332,0.416,6.154
		c-0.217-0.697-1.891-5.43-3.184-6.643c3.004-0.867,5.166-2.732,4.934-3.348c-0.49-0.875-1.834-1.949-4.098-2.736
		c1.926-2.713,2.5-4.75,2.926-6.598H139.986z M71.215,142.235l0.302,3.596l-3.42,2.09l-0.264-3.949L71.215,142.235z
		 M130.722,145.575c0.266,0.004,0.518,0.074,0.641,0.209c1.689,0.695,1.812,9.061,0.279,9.912c-1.115,0.711-1.898-0.432-1.859-0.635
		c0.738-3.85,0.277-6.229-0.031-8.92C129.784,145.749,130.277,145.569,130.722,145.575L130.722,145.575z M160.189,145.7v2.975
		c-9.934,10.453-20.637,18.691-31.562,23.316l-0.996-1.717C140.9,164.045,151.997,155.159,160.189,145.7z M158.444,145.971
		c-4.602,6.5-10.207,10.744-17.885,12.67l-0.146-1.844C149.978,154.592,158.693,145.971,158.444,145.971z M33.232,147.024
		c5.992,6.219,12.132,12.381,18.232,18.764l-2.425,0.127l-15.88-16.725L33.232,147.024z M104.565,147.334l0.214,1.535l-1.744,1.941
		l2.756,3.006l0.141,0.709l-2.366,2.512l-1.069-1.074l1.31-1.49l-2.222-2.373l-4.119,4.023l3.395,3.738l-2.562,2.473l-1.008-1.059
		l1.31-1.533l-2.274-2.438l-4.199,4.238l3.176,3.562l-2.119,2.379l-1.004-1.074l1.088-1.266l-2.302-2.408l-4.034,3.945l3.32,3.729
		l-2.698,2.729l-1.046-1.031l1.515-1.674l-2.488-2.406l-1.997,1.914c0,0,0.754-1.9,0.863-2.221c0.16-0.473,0.822-0.846,5.02-5.049
		C94.428,157.61,99.566,152.866,104.565,147.334L104.565,147.334z M133.302,148.358c1.465,0.023,3.955,0.383,5.166,1.029
		c2.242,1.203,1.537,2.148,0.08,2.854c-1.744,0.842-3.174,1.254-5.143,1.312l0.057-0.98c1.145-0.279,2.33-0.562,3.342-1.131
		c0.693-0.391,0.873-0.705,0.873-0.705s-0.678-0.699-1.756-1.098c-0.789-0.289-1.918-0.287-2.531-0.391L133.302,148.358z
		 M67.765,149.651l1.844,2.807l-2.184,3.717l-2.097-3.205L67.765,149.651z M104.958,149.954c0.064,0.529,0.724,2.584,0.377,2.186
		l-1.225-1.398L104.958,149.954z M133.417,150.229c1.02,0.088,2.092,0.117,2.836,0.484c-0.863,0.68-1.842,0.832-2.818,1
		L133.417,150.229z M158.997,151.631c0.615,0,1.115,0.508,1.115,1.133s-0.5,1.131-1.115,1.131s-1.115-0.506-1.115-1.131
		S158.382,151.631,158.997,151.631z M101.469,153.592l0.95,0.934l-1.229,1.453l2.229,2.385l2.76-2.625l0.367,1.666l-25.859,25.828
		l-1.436-0.105l1.645-1.971l-1.87-1.941l0.768-1.396l2.206,1.992l4.043-3.926l-3.275-3.498l2.802-2.918l1.058,0.926l-1.607,1.768
		l2.34,2.426l4.23-4.225l-3.311-3.654l2.643-2.557l0.969,0.934l-1.229,1.32l2.412,2.551l3.565-3.768l-3.245-3.627l2.883-2.848
		l0.885,0.898l-1.328,1.504l2.424,2.547l3.891-4.059l-3.203-3.525L101.469,153.592z M156.409,154.266
		c0.615,0,1.115,0.508,1.115,1.133s-0.5,1.131-1.115,1.131s-1.115-0.506-1.115-1.131S155.794,154.266,156.409,154.266z
		 M135.39,154.317c1.756,2.094,2.812,4.422,3.023,6.93c-1.402-2.162-3.188-4.078-5.527-5.744l0.4-1.049L135.39,154.317z
		 M160.189,154.487v2.527c-7.834,9.01-17.344,15.801-27.107,20.527l-1.662-2.051C142.968,170.258,151.325,163.758,160.189,154.487z
		 M148.663,156.25l-3.176,2.504v-1.086l3.18-1.418H148.663z M132.294,156.436c2.703,1.342,4.971,3.605,6.322,6.961
		c-3.693,2.352-7.744,4.256-11.605,6.152c-1.854-3.029-3.721-5.869-5.184-9.771c5.955-0.045,7.588-3.346,7.631-3.371
		C130.894,156.958,131.194,157.022,132.294,156.436L132.294,156.436z M153.691,156.928c0.555,0.012,1.111,0.443,1.131,1.09
		c0,0.625-0.5,1.131-1.115,1.131s-1.115-0.506-1.115-1.131C152.712,157.237,153.202,156.92,153.691,156.928L153.691,156.928z
		 M145.448,157.672l0.008,1.094c-1.52,1.352-4.473,3.541-4.473,3.541l-1.223-0.064l0.398-3.102c1.85-0.377,3.641-0.926,5.291-1.469
		H145.448z M67.661,157.801l2.916,2.434l-0.893,3.773l-2.871-2.213L67.661,157.801z M106.828,158.514l0.271,1.092l-23.962,24.045
		l-1.362-0.225L106.828,158.514z M151.034,159.444c0.615,0,1.115,0.506,1.115,1.131s-0.5,1.133-1.115,1.133
		s-1.115-0.508-1.115-1.133S150.419,159.444,151.034,159.444z M159.882,159.436c0.133,0,0.287-0.01,0.287,0.115v2.082
		c-0.117,0.043-0.242,0.066-0.373,0.066c-0.617,0-1.027-0.508-1.027-1.133S159.267,159.436,159.882,159.436z M157.179,161.959
		c0.615,0,1.115,0.506,1.115,1.131s-0.5,1.131-1.115,1.131s-1.115-0.506-1.115-1.131S156.564,161.959,157.179,161.959z
		 M147.812,161.971c0.615,0,1.115,0.506,1.115,1.131s-0.5,1.131-1.115,1.131s-1.115-0.506-1.115-1.131
		S147.196,161.971,147.812,161.971z M139.753,162.319l1.145,0.039l-2.129,1.287C139.159,163.147,139.525,162.768,139.753,162.319
		L139.753,162.319z M160.185,162.848l0.016,2.326c-5.482,5.562-12.402,11.332-22.986,16.893l-1.348-1.387
		C144.495,176.502,152.591,170.651,160.185,162.848z M144.62,164.118c0.615,0,1.115,0.506,1.115,1.131s-0.5,1.131-1.115,1.131
		s-1.115-0.506-1.115-1.131S144.005,164.118,144.62,164.118z M154.53,164.202c0.615,0,1.115,0.508,1.115,1.133
		s-0.5,1.131-1.115,1.131s-1.115-0.506-1.115-1.131S153.915,164.202,154.53,164.202z M43.519,168.745
		c3.782-2.229,6.822-2.49,11.155-1.818l1.294,2.592c-4.219-0.758-8.663-0.689-12.464,2.287c-3.938-2.525-6.931-3.256-10.165-2.844
		l-0.059-2.734C37.496,165.629,41.278,167.096,43.519,168.745L43.519,168.745z M141.548,166.28c0.615,0,1.113,0.506,1.113,1.131
		s-0.498,1.131-1.113,1.131c-0.617,0-1.115-0.506-1.115-1.131S140.931,166.28,141.548,166.28z M151.739,166.745
		c0.615,0,1.115,0.506,1.115,1.131s-0.5,1.133-1.115,1.133s-1.113-0.508-1.113-1.133S151.124,166.745,151.739,166.745z
		 M138.196,168.434c0.615,0,1.113,0.506,1.113,1.131s-0.498,1.133-1.113,1.133c-0.617,0-1.115-0.508-1.115-1.133
		S137.579,168.434,138.196,168.434z M148.587,169.09c0.617,0,1.115,0.506,1.115,1.131s-0.498,1.131-1.115,1.131
		c-0.615,0-1.113-0.506-1.113-1.131S147.972,169.09,148.587,169.09z M134.759,170.434c0.625,0,1.131,0.514,1.131,1.146
		s-0.506,1.146-1.131,1.146c-0.623,0-1.129-0.514-1.129-1.146S134.136,170.434,134.759,170.434z M145.609,171.383
		c0.615,0,1.115,0.506,1.115,1.131s-0.5,1.131-1.115,1.131s-1.115-0.506-1.115-1.131S144.993,171.383,145.609,171.383z
		 M131.458,172.165c0.615,0,1.113,0.508,1.113,1.133s-0.498,1.131-1.113,1.131s-1.115-0.506-1.115-1.131
		S130.843,172.165,131.458,172.165z M82.179,173.188l2.771,2.578l-2.867,2.922l-1.05-1.023l1.596-1.693l-1.081-1.477L82.179,173.188
		z M142.532,173.438c0.617,0,1.115,0.508,1.115,1.133s-0.498,1.131-1.115,1.131c-0.615,0-1.113-0.506-1.113-1.131
		S141.917,173.438,142.532,173.438z M139.323,175.354c0.615,0,1.115,0.508,1.115,1.133s-0.5,1.131-1.115,1.131
		s-1.113-0.506-1.113-1.131S138.708,175.354,139.323,175.354z M135.835,177.276c0.617,0,1.115,0.508,1.115,1.133
		s-0.498,1.131-1.115,1.131c-0.615,0-1.113-0.506-1.113-1.131S135.22,177.276,135.835,177.276z M78.51,180.477l0.904,0.748
		l-1.42,1.736l-1.084-0.016L78.51,180.477z M60.999,185.159c-3.159,1.588-4.66,2.592-6.864,4.537l-3.157-4.443L60.999,185.159z
		 M39.503,185.19l8.414,0.119l-2.799,4.02C43.273,187.354,41.402,186.014,39.503,185.19z M49.524,185.627
		c0.912,0.295,3.298,3.746,4.421,5.631c2.393-1.932,4.736-4.09,7.291-5.25c-3.038,3.256-5.706,6.627-7.604,9.885
		c-0.539-1.469-2.037-5.676-3.933-7.502c-2.991,2.834-4.173,6.254-4.173,6.254c-1.608-2.781-3.546-5.57-5.787-8.176
		c-0.371-0.508,2.728,1.445,5.795,4.475C46.398,188.735,48.71,185.715,49.524,185.627L49.524,185.627z M39.419,187.797
		c1.445,1.166,5.374,6.281,5.826,9.359l-1.883,0.119C42.362,194.116,40.681,190.958,39.419,187.797L39.419,187.797z M60.343,188.321
		c-1.424,2.961-3.188,5.988-4.455,9.266l-1.859-0.082C56.065,192.987,56.807,192.161,60.343,188.321z M49.681,189.639
		c0.018-0.002,0.034,0.002,0.045,0.012c1.767,2.447,2.601,4.826,3.127,7.723l-1.367-0.055c0,0-0.953-2.906-1.607-3.934
		c-0.423-0.627-0.762-0.547-1.061-0.027c-0.675,1.229-0.927,2.461-1.306,3.799l-1.573-0.117
		C45.648,194.846,49.128,189.694,49.681,189.639L49.681,189.639z M49.432,198.075c0.64,0.008,1.308,0.711,1.302,1.945
		c0.05,0.58-0.394,1.863-0.874,1.93c-0.891,0.479-1.944-1.012-1.68-2.256C48.406,198.633,48.868,198.067,49.432,198.075
		L49.432,198.075z M46.337,198.307c1.264,0.115,1.535,2.99,1.023,3.578c-0.588,0.592-2.143,0.172-2.289-0.854
		C44.564,199.727,45.489,198.321,46.337,198.307z M52.563,198.291c1.375,0.195,1.028,3.352,0.317,3.814
		c-1.105,0.596-1.948-0.398-1.575-1.881C51.606,199.03,52.054,198.319,52.563,198.291z M55.742,198.815
		c1.575,0.178,0.665,2.957-0.023,3.523c-0.999,0.789-1.964-0.393-1.484-1.803C54.606,199.442,55.224,198.807,55.742,198.815
		L55.742,198.815z M43.027,198.899c1.146,0.188,1.81,2.818,1.128,3.57c-0.355,0.432-1.393-0.197-1.865-0.918
		C41.722,200.684,42.254,198.897,43.027,198.899z M55.226,204.631c0.137,1.383-0.891,1.383-3.851,0.709
		c-1.495-0.34-4.144-0.125-5.497,0.123c-2.277,0.42-2.6,0.26-2.596-0.682c0.008-1.092,1.281-1.711,4.237-1.805
		C49.634,202.911,54.898,202.891,55.226,204.631z M59.827,203.821c-3.524,0.336-4.462,4.82-4.073,6.475
		c0.31,2.77,0.178,5.668-0.348,7.572c-0.376,1.369-0.71,2.826-1.316,4.066c-0.928,1.873-0.688,3.264,0.687,4.01
		c1.129,0.613,2.52,0.404,3.391-0.547c1.574-1.717,1.762-5.361,0.797-13.633c-0.34-2.918-0.157-3.5,1.237-3.336
		C63.129,208.405,63.012,203.825,59.827,203.821L59.827,203.821z M59.403,207.588c-0.788-0.311-1.322,0.416-1.218,2.227
		c0.027,0.805,0.167,1.707,0.268,2.426c1.14,7.936,0.713,13.252-1.688,13.514c-2.09,0.34-3.505-1.221-2.485-2.838
		c0.578-0.914,1.075-1.037,2.199-0.557c1.544,0.973,1.157-0.443-0.233-1.488c-0.892-0.641-0.959-0.641-0.48-2.643
		c0.646-2.701,0.862-4.629,0.626-8.045c-0.333-2.416,0.462-5.623,3.493-5.811C62.949,204.28,62.025,208.696,59.403,207.588z
		 M37.771,218.04c0.997,0.488,1.967,0.404,2.916,0.008c0.37-1.688,0.393-3.092,1.512-5.385c-1.863-1.893-4.999-1.148-5.882,0.834
		C35.434,215.481,36.255,217.297,37.771,218.04L37.771,218.04z M40.759,212.182c1.129,0.244,0.96,1.447-0.104,1.055
		c-2.533-1.211-4.599,2.434-2.553,3.807c1.043,0.592,1.504,0.252,0.469-0.562c-0.424-0.494-0.316-0.697-0.061-1.193
		c0.531-1.002,2.461-0.84,2.324-0.113c-0.439,2.309-0.729,2.975-1.412,2.98C35.489,218.36,34.748,210.885,40.759,212.182
		L40.759,212.182z M74.181,216.334c0,0-11.721,13.451-17.365,20.34l70.756-0.334l-13.464-18.855
		C102.558,220.192,88.986,219.409,74.181,216.334z M73.829,220.631c1.768,0.02,3.778,1.322,5.517,5.666
		c0.095,0.041,7.782-11.852,14.438,0.461c1.087-2.764,7.355-9.973,14.603-0.721c2.573-6.191,8.51-4.098,9.065-1.938
		c-0.124-0.465-5.655-1.799-8.051,2.305c-0.442,0.869-0.465,1.693,0.042,2.182c1.197,1.152-0.105,2.803-1.468,1.863
		c-0.532-0.365-0.599-1.133-0.192-1.688c1.203-0.91-1.261-3.74-3.287-4.76c-2.78-1.398-6.658-0.781-8.522,1.225
		c-1.003,1.08-1.616,2.049-1.763,2.822c-0.078,0.359-0.03,0.549,0.181,0.789c0.809,0.99,0.275,2.346-0.819,2.182
		c-1.434-0.217-1.242-1.576-0.283-2.32c0.294-0.146,0.183-0.322,0.094-0.576c-2.617-7.48-12.372-6.057-13.427-0.875
		c-0.038,0.188-0.122,0.385-0.08,0.578c0.109,0.496,0.396,0.914,0.286,1.305c-0.448,1.59-2.409,1.133-2.498-0.184
		c-0.04-0.6,0.598-0.781,0.909-1.328c0.188-0.344,0.273-0.762,0.094-1.145c-2.644-5.621-7.181-4.443-9.433-3.174
		C69.187,223.329,71.247,220.602,73.829,220.631L73.829,220.631z M70.898,223.889c0.967-0.033,1.847,0.449,2.669,1.416
		c2.771-1.488,4.74,1.088,4.413,1.336c-3.924-2.584-5.197,3.438-1.332,3.211c-1.699,3.564,4.369,5.094,3.688,0.535
		c3.744,1.326,4.361-3.893,0.568-3.812c1.227-2.154,4.407-1.562,5.753-0.213c1.582-1.961,5.466-0.09,5.852,1.586
		c-4.356-2.266-4.796,4.658-0.576,3.186c-1.249,4.406,5.458,3.779,3.604-0.02c4.178,1.395,3.608-4.943-0.496-3.658
		c-0.249-0.328,3.245-3.992,5.787-0.551c0.344-0.605,4.312-2.592,6.481,0.527c-4.703-1.615-3.812,4.812-0.442,3.533
		c-0.901,4.258,5.181,3.568,3.626-0.061c4.713,1.209,2.627-6.078-0.686-3.389c0.54-2.928,4.501-1.715,4.457-1.262
		c0-0.002,2.104-2.309,4.459-0.621c-3.68,0.314-2.428,5.352,1.05,3.918c-0.038,1.711,1.362,2.844,3.257,2.264l2.973,4.219
		l-67.827,0.436l5.418-6.557c1.812,1.521,3.691,0.801,3.923-1.582c3.944,2.455,4.969-3.379,1.268-3.631
		C69.534,224.18,70.235,223.915,70.898,223.889L70.898,223.889z M67.107,225.786c0.235,0.168-0.084,0.979-0.603,0.744
		L67.107,225.786z M119.994,227.479c0.2,0.293,0.345,0.48,0.546,0.773C120.636,228.514,119.483,228.114,119.994,227.479z"/>
	<path id="path163-0-2-5-8-7-5-6-5-5" fill="#D40000" d="
		M55.241,72.571c0,0-3.716-6.105-8.729-13.283c-3.354-4.803-6.034-10.004-6.284-14.483c-0.286-5.117,2.42-10.252,7.32-10.5
		c4.896-0.249,6.885,3.945,7.693,7.403c0.81-3.458,2.797-7.652,7.693-7.403c4.9,0.248,7.606,5.383,7.32,10.5
		c-0.249,4.479-2.93,9.681-6.284,14.483C58.958,66.466,55.241,72.571,55.241,72.571z"/>
	<path id="path163-0-2-5-8-7-7-8-9-1-8" fill="#D40000" d="
		M137.698,192.524c0,0-3.717,6.104-8.73,13.281c-3.354,4.803-6.035,10.004-6.285,14.484c-0.285,5.117,2.422,10.252,7.32,10.5
		c4.898,0.25,6.885-3.945,7.695-7.404c0.809,3.459,2.797,7.654,7.693,7.404c4.898-0.248,7.605-5.383,7.32-10.5
		c-0.25-4.48-2.932-9.682-6.285-14.484C141.413,198.627,137.698,192.524,137.698,192.524L137.698,192.524z"/>
</g>
<g>
</g>
<g>
</g>
<g>
</g>
<g>
</g>
<g>
</g>
<g>
</g>
</svg>
