<?xml version="1.0" encoding="utf-8"?>
<!-- Generator: Adobe Illustrator 16.0.0, SVG Export Plug-In . SVG Version: 6.00 Build 0)  -->
<!DOCTYPE svg PUBLIC "-//W3C//DTD SVG 1.1//EN" "http://www.w3.org/Graphics/SVG/1.1/DTD/svg11.dtd">
<svg version="1.1" id="Layer_1" xmlns="http://www.w3.org/2000/svg" xmlns:xlink="http://www.w3.org/1999/xlink" x="0px" y="0px"
	 width="181px" height="252px" viewBox="0 0 181 252" enable-background="new 0 0 181 252" xml:space="preserve">
<g id="g11338-3-7" transform="matrix(0.99553774,0,0,0.99680134,-31.938292,318.48631)">
	<g id="g9868-8-1" transform="translate(1036.4913,-1434.2756)">
		<path id="rect9870-7-0" fill="#FFFFFF" stroke="#000000" stroke-width="1.0006" d="M-994.253,1116.448h161.498
			c4.718,0,8.542,3.82,8.542,8.531v232.386c0,4.712-3.824,8.531-8.542,8.531h-161.498c-4.718,0-8.542-3.819-8.542-8.531v-232.386
			C-1002.795,1120.267-998.972,1116.448-994.253,1116.448z"/>
	</g>
	<g id="g9888-2-1" transform="translate(1296.9243,-1064)">
	</g>
	<g id="g9894-0-0" transform="translate(1323.5159,-1083.9055)">
	</g>
	<path id="path9902-6-7" fill="#D40000" d="M47.469-261.849c0-0.003-1.779-2.552-4.181-5.552
		c-1.606-2.008-2.89-4.182-3.01-6.055c-0.136-2.14,1.159-4.285,3.506-4.389c2.345-0.104,3.297,1.649,3.684,3.095
		c0.387-1.446,1.34-3.199,3.684-3.095c2.346,0.104,3.643,2.249,3.506,4.389c-0.12,1.872-1.404,4.046-3.01,6.055
		C49.249-264.401,47.471-261.851,47.469-261.849z"/>
	<path id="path9904-6-0" fill="#D40000" d="M198.505-124.358c0,0.002-1.779,2.552-4.18,5.552
		c-1.607,2.007-2.891,4.182-3.01,6.055c-0.137,2.139,1.158,4.285,3.505,4.389c2.345,0.104,3.297-1.65,3.684-3.095
		c0.387,1.445,1.34,3.199,3.685,3.095c2.346-0.104,3.642-2.25,3.505-4.389c-0.119-1.872-1.404-4.047-3.01-6.055
		C200.285-121.806,198.507-124.356,198.505-124.358z"/>
	<path id="path9910-2-6" fill="#D40000" d="M81.574-253.272c0-0.005-3.733-6.125-8.769-13.325
		c-3.369-4.819-6.062-10.037-6.312-14.531c-0.287-5.134,2.431-10.284,7.353-10.534c4.918-0.25,6.916,3.958,7.728,7.427
		c0.813-3.469,2.809-7.677,7.728-7.427c4.922,0.25,7.641,5.4,7.353,10.534c-0.25,4.494-2.943,9.712-6.312,14.531
		C85.307-259.397,81.577-253.277,81.574-253.272z"/>
	<path id="path9916-8-0" fill="#D40000" d="M164.4-253.272c0-0.005-3.733-6.125-8.769-13.325
		c-3.37-4.819-6.062-10.037-6.312-14.531c-0.287-5.134,2.431-10.284,7.353-10.534c4.918-0.25,6.915,3.958,7.728,7.427
		c0.812-3.469,2.809-7.677,7.728-7.427c4.922,0.25,7.641,5.4,7.353,10.534c-0.25,4.494-2.944,9.712-6.312,14.531
		C168.133-259.397,164.403-253.277,164.4-253.272z"/>
	<path id="path9930-7-9" fill="#D40000" d="M164.4-132.935c0,0.005-3.733,6.124-8.769,13.325
		c-3.37,4.818-6.062,10.036-6.312,14.531c-0.287,5.134,2.431,10.284,7.353,10.534c4.918,0.249,6.915-3.959,7.728-7.428
		c0.812,3.469,2.809,7.677,7.728,7.428c4.922-0.25,7.641-5.4,7.353-10.534c-0.25-4.495-2.944-9.713-6.312-14.531
		C168.133-126.811,164.403-132.93,164.4-132.935z"/>
	<path id="path9932-9-8" fill="#D40000" d="M81.574-132.935c0,0.005-3.733,6.124-8.769,13.325
		c-3.369,4.818-6.062,10.036-6.312,14.531c-0.287,5.134,2.431,10.284,7.353,10.534c4.918,0.249,6.916-3.959,7.728-7.428
		c0.813,3.469,2.809,7.677,7.728,7.428c4.922-0.25,7.641-5.4,7.353-10.534c-0.25-4.495-2.943-9.713-6.312-14.531
		C85.307-126.811,81.577-132.93,81.574-132.935z"/>
	<path id="path19-3-8-2-9" fill="#D40000" d="M47.654-280.361v-2.333h2.104v-3.846H39.232v-2.714
		l11.391-17.504l1.861,0.009v17.495h3.221v2.714h-3.221l-0.061,3.846h1.764v2.336h-6.532V-280.361z M49.758-300.349l-7.231,11.097
		h7.231V-300.349z"/>
	<path id="path19-4-46-0-1-9" fill="#D40000" d="M198.319-105.846v2.332h-2.105v3.846h10.526
		v2.715l-11.39,17.504l-1.861-0.01v-17.495h-3.222v-2.714h3.222l0.061-3.846h-1.765v-2.335h6.533V-105.846z M196.214-85.858
		l7.231-11.097h-7.231V-85.858z"/>
</g>
</svg>
