<?xml version="1.0" encoding="utf-8"?>
<!-- Generator: Adobe Illustrator 16.0.0, SVG Export Plug-In . SVG Version: 6.00 Build 0)  -->
<!DOCTYPE svg PUBLIC "-//W3C//DTD SVG 1.1//EN" "http://www.w3.org/Graphics/SVG/1.1/DTD/svg11.dtd">
<svg version="1.1" id="Layer_1" xmlns="http://www.w3.org/2000/svg" xmlns:xlink="http://www.w3.org/1999/xlink" x="0px" y="0px"
	 width="181px" height="252px" viewBox="0 0 181 252" enable-background="new 0 0 181 252" xml:space="preserve">
<g id="g11369-4-9" transform="matrix(0.99553774,0,0,0.99680134,-10.596038,318.48631)">
	<g id="g9800-8-2" transform="translate(750.64518,-1434.2756)">
		<path id="rect9802-4-3" fill="#FFFFFF" stroke="#000000" stroke-width="1.0006" d="M-729.846,1116.448h161.498
			c4.718,0,8.542,3.82,8.542,8.531v232.385c0,4.712-3.824,8.531-8.542,8.531h-161.498c-4.717,0-8.542-3.819-8.542-8.531v-232.385
			C-738.388,1120.267-734.563,1116.448-729.846,1116.448z"/>
	</g>
	<g id="g9820-5-5" transform="translate(1011.0782,-1064)">
	</g>
	<g id="g9826-3-1" transform="translate(1037.6698,-1083.9055)">
	</g>
	<path id="path9834-5-2" fill="#D40000" d="M26.031-261.849
		c0,0-1.779-2.552-4.18-5.552c-1.607-2.008-2.891-4.182-3.01-6.055c-0.137-2.14,1.158-4.285,3.505-4.389
		c2.345-0.104,3.297,1.649,3.684,3.095c0.388-1.446,1.34-3.199,3.685-3.095c2.346,0.104,3.642,2.249,3.505,4.389
		c-0.119,1.872-1.403,4.046-3.01,6.055C27.812-264.401,26.031-261.849,26.031-261.849z"/>
	<path id="path9836-5-8" fill="#D40000" d="M177.068-124.359
		c0,0-1.781,2.553-4.181,5.553c-1.607,2.006-2.89,4.181-3.01,6.055c-0.137,2.138,1.159,4.285,3.506,4.389
		c2.344,0.104,3.296-1.65,3.684-3.096c0.386,1.446,1.338,3.2,3.684,3.096s3.641-2.251,3.506-4.389
		c-0.12-1.873-1.405-4.048-3.01-6.055C178.847-121.806,177.068-124.359,177.068-124.359z"/>
	<path id="path9840-3-6" fill="#D40000" d="M101.549-253.272
		c0,0-3.732-6.125-8.769-13.325c-3.369-4.819-6.062-10.037-6.312-14.531c-0.287-5.134,2.432-10.284,7.353-10.534
		c4.918-0.25,6.916,3.958,7.728,7.427c0.813-3.469,2.81-7.677,7.728-7.427c4.922,0.25,7.64,5.4,7.353,10.534
		c-0.251,4.494-2.943,9.712-6.313,14.531C105.283-259.397,101.549-253.272,101.549-253.272z"/>
	<path id="path9850-2-3" fill="#D40000" d="M101.549-173.904
		c0,0-3.732-6.124-8.769-13.325c-3.369-4.818-6.062-10.036-6.312-14.531c-0.287-5.134,2.432-10.284,7.353-10.534
		c4.918-0.249,6.916,3.959,7.728,7.428c0.813-3.469,2.81-7.677,7.728-7.428c4.922,0.25,7.64,5.4,7.353,10.534
		c-0.251,4.495-2.943,9.713-6.313,14.531C105.283-180.028,101.549-173.904,101.549-173.904z"/>
	<path id="path9854-8-0" fill="#D40000" d="M101.549-132.935
		c0,0-3.732,6.123-8.769,13.324c-3.369,4.818-6.062,10.036-6.312,14.531c-0.287,5.134,2.432,10.285,7.353,10.534
		c4.918,0.249,6.916-3.958,7.728-7.428c0.813,3.47,2.81,7.677,7.728,7.428c4.922-0.249,7.64-5.4,7.353-10.534
		c-0.251-4.495-2.943-9.713-6.313-14.531C105.283-126.812,101.549-132.935,101.549-132.935z"/>
	<path id="path17-2-9-8-4" fill="#D40000" d="M17.463-286.145l2.033-1.495
		c1.764,2.872,3.736,4.764,6.754,4.439c4.528-0.311,6.405-5.057,5.457-8.633c-0.916-3.209-4.665-4.771-7.646-3.061
		c-0.703,0.406-1.382,0.736-1.515,0.736c-0.313,0-1.021-1.408-0.924-1.837c2-2.921,6.859-8.039,6.859-8.039h-7.591v3.427h-2.912
		v-6.15H32.81v2.087c0,0-3.975,4.122-5.288,6.379c3.235,0.119,5.842,2.168,6.778,5.41c0.546,1.707,0.301,5.61-0.413,7.292
		c-1.194,2.804-4.456,5.079-7.437,5.21C21.444-280.044,18.788-283.552,17.463-286.145L17.463-286.145L17.463-286.145z"/>
	<path id="path17-5-3-9-1-3" fill="#D40000" d="M185.633-100.062l-2.033,1.495
		c-1.764-2.872-3.735-4.765-6.755-4.44c-4.526,0.312-6.404,5.057-5.456,8.633c0.916,3.209,4.665,4.771,7.647,3.061
		c0.702-0.406,1.381-0.737,1.515-0.737c0.312,0,1.02,1.409,0.924,1.838c-2.001,2.921-6.859,8.039-6.859,8.039h7.589V-85.6h2.913
		v6.151h-14.834v-2.087c0,0,3.975-4.123,5.287-6.38c-3.233-0.118-5.84-2.169-6.776-5.41c-0.547-1.707-0.302-5.61,0.412-7.291
		c1.195-2.804,4.455-5.081,7.437-5.21C181.653-106.164,184.309-102.656,185.633-100.062L185.633-100.062L185.633-100.062z"/>
</g>
</svg>
