<?xml version="1.0" encoding="utf-8"?>
<!-- Generator: Adobe Illustrator 16.0.0, SVG Export Plug-In . SVG Version: 6.00 Build 0)  -->
<!DOCTYPE svg PUBLIC "-//W3C//DTD SVG 1.1//EN" "http://www.w3.org/Graphics/SVG/1.1/DTD/svg11.dtd">
<svg version="1.1" id="Layer_1" xmlns="http://www.w3.org/2000/svg" xmlns:xlink="http://www.w3.org/1999/xlink" x="0px" y="0px"
	 width="181px" height="252px" viewBox="0 0 181 252" enable-background="new 0 0 181 252" xml:space="preserve">
<g id="g11398-8-7" transform="matrix(0.99553774,0,0,0.99680134,10.746305,318.48631)">
	<g id="g9732-9-3" transform="translate(464.79897,-1434.2756)">
		<path id="rect9734-4-5" fill="#FFFFFF" stroke="#000000" stroke-width="1.0006" d="M-465.438,1116.448h161.5
			c4.716,0,8.542,3.82,8.542,8.531v232.386c0,4.712-3.826,8.531-8.542,8.531h-161.5c-4.717,0-8.542-3.819-8.542-8.531v-232.386
			C-473.98,1120.267-470.155,1116.448-465.438,1116.448z"/>
	</g>
	<g id="g9752-8-0" transform="translate(725.23204,-1064)">
	</g>
	<g id="g9758-0-6" transform="translate(751.82359,-1083.9055)">
	</g>
	<path id="path9766-0-8" fill="#D40000" d="M4.594-261.849
		c0,0-1.779-2.552-4.181-5.552c-1.606-2.008-2.89-4.182-3.01-6.055c-0.137-2.14,1.159-4.285,3.506-4.389
		c2.344-0.104,3.297,1.649,3.684,3.095c0.387-1.446,1.339-3.199,3.684-3.095c2.346,0.104,3.642,2.249,3.506,4.389
		c-0.12,1.872-1.404,4.046-3.01,6.055C6.373-264.401,4.594-261.849,4.594-261.849z"/>
	<path id="path9768-3-3" fill="#D40000" d="M155.629-124.358
		c0,0-1.779,2.552-4.181,5.552c-1.605,2.007-2.89,4.182-3.01,6.055c-0.135,2.139,1.159,4.285,3.506,4.389s3.298-1.65,3.684-3.095
		c0.388,1.445,1.34,3.199,3.684,3.095c2.346-0.104,3.643-2.25,3.506-4.389c-0.12-1.872-1.403-4.047-3.01-6.055
		C157.408-121.806,155.629-124.358,155.629-124.358z"/>
	<path id="path9772-1-7" fill="#D40000" d="M80.111-253.272
		c0,0-3.733-6.125-8.769-13.325c-3.37-4.819-6.062-10.037-6.313-14.531c-0.286-5.134,2.432-10.284,7.353-10.534
		c4.919-0.25,6.916,3.958,7.729,7.427c0.812-3.469,2.809-7.677,7.728-7.427c4.921,0.25,7.641,5.4,7.353,10.534
		c-0.25,4.494-2.944,9.712-6.312,14.531C83.844-259.397,80.111-253.272,80.111-253.272z"/>
	<path id="path9786-2-1" fill="#D40000" d="M80.111-132.935
		c0,0-3.733,6.124-8.769,13.325c-3.37,4.818-6.062,10.036-6.313,14.531c-0.286,5.134,2.432,10.284,7.353,10.534
		c4.919,0.249,6.916-3.959,7.729-7.428c0.812,3.469,2.809,7.677,7.728,7.428c4.921-0.25,7.641-5.4,7.353-10.534
		c-0.25-4.495-2.944-9.713-6.312-14.531C83.844-126.811,80.111-132.935,80.111-132.935z"/>
	<path id="path15-34-0-0-4" fill="#D40000" d="M-2.921-280.415l0.129-1.628
		c0.406-5.031,1.487-6.728,7.619-11.979c2.976-2.546,3.952-3.802,4.09-5.259c0.389-3.438-2.651-4.511-4.633-4.526
		c-2.567-0.024-5.472,1.539-4.086,5.17l-2.881,0.862c-0.579-3.387,0.017-6.564,2.712-7.974c3.6-1.839,8.216-1.118,10.547,1.778
		c1.567,1.944,1.925,4.633,1.084,6.737c-2.455,5.377-10.783,7.742-11.47,13.963h9.204v-3.463h2.712v6.376L-2.921-280.415
		L-2.921-280.415z"/>
	<path id="path15-5-4-5-2-7" fill="#D40000" d="M163.143-105.792l-0.129,1.627
		c-0.406,5.031-1.487,6.728-7.618,11.98c-2.978,2.545-3.953,3.802-4.091,5.259c-0.388,3.437,2.652,4.51,4.634,4.525
		c2.566,0.024,5.472-1.538,4.085-5.17l2.88-0.862c0.581,3.387-0.016,6.565-2.711,7.975c-3.6,1.839-8.216,1.118-10.547-1.779
		c-1.566-1.943-1.925-4.632-1.083-6.737c2.454-5.376,10.782-7.742,11.469-13.962h-9.205v3.463h-2.711v-6.376L163.143-105.792
		L163.143-105.792z"/>
</g>
</svg>
