<?xml version="1.0" encoding="utf-8"?>
<!-- Generator: Adobe Illustrator 16.0.0, SVG Export Plug-In . SVG Version: 6.00 Build 0)  -->
<!DOCTYPE svg PUBLIC "-//W3C//DTD SVG 1.1//EN" "http://www.w3.org/Graphics/SVG/1.1/DTD/svg11.dtd">
<svg version="1.1" id="Layer_1" xmlns="http://www.w3.org/2000/svg" xmlns:xlink="http://www.w3.org/1999/xlink" x="0px" y="0px"
	 width="181px" height="252px" viewBox="0 0 181 252" enable-background="new 0 0 181 252" xml:space="preserve">
<g id="g11270-7-7" transform="matrix(0.99553774,0,0,0.99680134,-74.622859,318.48631)">
	<g id="g10004-9-9" transform="translate(1608.1836,-1434.2756)">
		<path id="rect10006-6-1" fill="#FFFFFF" stroke="#000000" stroke-width="1.0006" d="M-1523.07,1116.448h161.498
			c4.718,0,8.542,3.82,8.542,8.531v232.386c0,4.712-3.824,8.531-8.542,8.531h-161.498c-4.717,0-8.542-3.819-8.542-8.531v-232.386
			C-1531.612,1120.267-1527.787,1116.448-1523.07,1116.448z"/>
	</g>
	<g id="g10024-8-8" transform="translate(1868.6166,-1064)">
	</g>
	<g id="g10030-0-6" transform="translate(1895.2082,-1083.9055)">
	</g>
	<path id="path10038-5-0" fill="#D40000" d="M90.346-261.849
		c0,0-1.78-2.552-4.181-5.552c-1.607-2.008-2.891-4.182-3.01-6.055c-0.137-2.14,1.158-4.285,3.505-4.389
		c2.345-0.104,3.298,1.649,3.685,3.095c0.387-1.446,1.339-3.199,3.684-3.095c2.346,0.104,3.642,2.249,3.505,4.389
		c-0.119,1.872-1.403,4.046-3.01,6.055C92.126-264.401,90.346-261.849,90.346-261.849z"/>
	<path id="path10040-7-6" fill="#D40000" d="M241.382-124.358
		c0,0-1.779,2.552-4.181,5.552c-1.607,2.007-2.89,4.182-3.01,6.055c-0.137,2.139,1.159,4.285,3.506,4.389
		c2.344,0.104,3.296-1.65,3.684-3.095c0.386,1.445,1.338,3.199,3.684,3.095s3.641-2.25,3.506-4.389
		c-0.12-1.872-1.405-4.047-3.01-6.055C243.161-121.806,241.382-124.358,241.382-124.358z"/>
	<path id="path10046-1-1" fill="#D40000" d="M124.451-253.272
		c0,0-3.733-6.125-8.77-13.325c-3.369-4.819-6.061-10.037-6.312-14.531c-0.286-5.134,2.432-10.284,7.353-10.534
		c4.919-0.25,6.916,3.958,7.729,7.427c0.812-3.469,2.809-7.677,7.728-7.427c4.921,0.25,7.641,5.4,7.353,10.534
		c-0.25,4.494-2.944,9.712-6.312,14.531C128.183-259.397,124.451-253.272,124.451-253.272z"/>
	<path id="path10048-2-0" fill="#D40000" d="M207.276-173.904
		c0,0-3.732-6.124-8.769-13.325c-3.369-4.818-6.062-10.036-6.312-14.531c-0.287-5.134,2.432-10.284,7.353-10.534
		c4.918-0.249,6.916,3.959,7.728,7.428c0.813-3.469,2.809-7.677,7.729-7.428c4.921,0.25,7.64,5.4,7.353,10.534
		c-0.251,4.495-2.944,9.713-6.313,14.531C211.01-180.028,207.276-173.904,207.276-173.904z"/>
	<path id="path10052-3-1" fill="#D40000" d="M207.276-253.272
		c0,0-3.732-6.125-8.769-13.325c-3.369-4.819-6.062-10.037-6.312-14.531c-0.287-5.134,2.432-10.284,7.353-10.534
		c4.918-0.25,6.916,3.958,7.728,7.427c0.813-3.469,2.809-7.677,7.729-7.427c4.921,0.25,7.64,5.4,7.353,10.534
		c-0.251,4.494-2.944,9.712-6.313,14.531C211.01-259.397,207.276-253.272,207.276-253.272z"/>
	<path id="path10056-4-2" fill="#D40000" d="M124.451-173.904
		c0,0-3.733-6.124-8.77-13.325c-3.369-4.818-6.061-10.036-6.312-14.531c-0.286-5.134,2.432-10.284,7.353-10.534
		c4.919-0.249,6.916,3.959,7.729,7.428c0.812-3.469,2.809-7.677,7.728-7.428c4.921,0.25,7.641,5.4,7.353,10.534
		c-0.25,4.495-2.944,9.713-6.312,14.531C128.183-180.028,124.451-173.904,124.451-173.904z"/>
	<path id="path10066-9-2" fill="#D40000" d="M207.276-132.935
		c0,0-3.732,6.124-8.769,13.325c-3.369,4.818-6.062,10.036-6.312,14.531c-0.287,5.134,2.432,10.284,7.353,10.534
		c4.918,0.249,6.916-3.959,7.728-7.428c0.813,3.469,2.809,7.677,7.729,7.428c4.921-0.25,7.64-5.4,7.353-10.534
		c-0.251-4.495-2.944-9.713-6.313-14.531C211.01-126.811,207.276-132.935,207.276-132.935z"/>
	<path id="path10068-1-2" fill="#D40000" d="M124.451-132.935
		c0,0-3.733,6.124-8.77,13.325c-3.369,4.818-6.061,10.036-6.312,14.531c-0.286,5.134,2.432,10.284,7.353,10.534
		c4.919,0.249,6.916-3.959,7.729-7.428c0.812,3.469,2.809,7.677,7.728,7.428c4.921-0.25,7.641-5.4,7.353-10.534
		c-0.25-4.495-2.944-9.713-6.312-14.531C128.183-126.811,124.451-132.935,124.451-132.935z"/>
	<path id="path23-5-2-7-3" fill="#D40000" d="M82.592-288.479
		c-0.325-2.222-0.317-7.966-0.051-9.666c0.819-5.205,2.807-7.588,6.138-8.365c3.235-0.757,7.78,0.085,8.775,4.436l-2.703,0.052
		c-1.463-2.941-5.164-2.155-7.248-0.876c-1.664,1.02-2.415,5.276-2.093,5.538c0,0,3.145-2.331,5.625-2.158
		c5.299,0.552,7.486,5.147,7.3,9.486c-0.169,5.221-1.824,9.395-7.44,9.673C85.553-280.564,83.106-283.476,82.592-288.479
		L82.592-288.479L82.592-288.479z M95.762-289.858c0.029-3.622-1.615-6.337-4.728-6.634c-3.11-0.3-6.249,2.736-6.031,6.428
		c0.217,3.707,1.652,6.827,5.425,6.809C94.485-283.27,95.742-287.28,95.762-289.858L95.762-289.858L95.762-289.858z"/>
	<path id="path23-6-5-1-7-1" fill="#D40000" d="M249.133-97.728
		c0.324,2.222,0.316,7.966,0.051,9.666c-0.82,5.205-2.807,7.587-6.139,8.365c-3.235,0.757-7.779-0.086-8.775-4.437l2.703-0.052
		c1.464,2.942,5.164,2.156,7.249,0.876c1.664-1.019,2.415-5.276,2.093-5.537c0,0-3.147,2.33-5.627,2.158
		c-5.299-0.553-7.485-5.148-7.298-9.487c0.169-5.22,1.823-9.395,7.439-9.673C246.17-105.643,248.617-102.732,249.133-97.728
		L249.133-97.728L249.133-97.728z M235.963-96.349c-0.029,3.622,1.615,6.336,4.728,6.634c3.11,0.3,6.249-2.736,6.031-6.428
		c-0.218-3.707-1.652-6.827-5.425-6.81C237.24-102.937,235.982-98.927,235.963-96.349L235.963-96.349L235.963-96.349z"/>
</g>
</svg>
