<?xml version="1.0" encoding="utf-8"?>
<!-- Generator: Adobe Illustrator 16.0.0, SVG Export Plug-In . SVG Version: 6.00 Build 0)  -->
<!DOCTYPE svg PUBLIC "-//W3C//DTD SVG 1.1//EN" "http://www.w3.org/Graphics/SVG/1.1/DTD/svg11.dtd">
<svg version="1.1" id="Layer_1" xmlns="http://www.w3.org/2000/svg" xmlns:xlink="http://www.w3.org/1999/xlink" x="0px" y="0px"
	 width="181px" height="252px" viewBox="0 0 181 252" enable-background="new 0 0 181 252" xml:space="preserve">
<g id="g11425-5-5" transform="matrix(0.99553774,0,0,0.99680134,32.088628,318.48631)">
	<g id="g9664-0-2" transform="translate(178.95278,-1434.2756)">
		<path id="rect9666-2-2" fill="#FFFFFF" stroke="#000000" stroke-width="1.0006" d="M-201.029,1116.448h161.498
			c4.718,0,8.542,3.82,8.542,8.531v232.386c0,4.712-3.824,8.531-8.542,8.531h-161.498c-4.718,0-8.542-3.819-8.542-8.531v-232.386
			C-209.571,1120.267-205.747,1116.448-201.029,1116.448z"/>
	</g>
	<g id="g9684-3-0" transform="translate(439.38585,-1064)">
	</g>
	<g id="g9690-5-6" transform="translate(465.9774,-1083.9055)">
	</g>
	<path id="path9698-0-0" fill="#D40000" d="M-16.844-261.849
		c0,0-1.779-2.552-4.181-5.552c-1.606-2.008-2.89-4.182-3.01-6.055c-0.136-2.14,1.159-4.285,3.506-4.389
		c2.345-0.104,3.297,1.649,3.684,3.095c0.387-1.446,1.34-3.199,3.684-3.095c2.346,0.104,3.643,2.249,3.506,4.389
		c-0.12,1.872-1.404,4.046-3.01,6.055C-15.064-264.401-16.844-261.849-16.844-261.849z"/>
	<path id="path9700-3-2" fill="#D40000" d="M134.192-124.358
		c0,0-1.78,2.552-4.181,5.552c-1.607,2.007-2.891,4.182-3.01,6.055c-0.137,2.139,1.158,4.285,3.505,4.389
		c2.345,0.104,3.297-1.65,3.685-3.095c0.386,1.445,1.339,3.199,3.684,3.095c2.346-0.104,3.642-2.25,3.505-4.389
		c-0.119-1.872-1.403-4.047-3.01-6.055C135.971-121.806,134.192-124.358,134.192-124.358z"/>
	<path id="path9714-6-6" fill="#D40000" d="M58.673-173.904
		c0,0-3.733-6.124-8.769-13.325c-3.369-4.818-6.062-10.036-6.312-14.531c-0.287-5.134,2.431-10.284,7.353-10.534
		c4.918-0.249,6.915,3.959,7.728,7.428c0.813-3.469,2.809-7.677,7.728-7.428c4.922,0.25,7.641,5.4,7.353,10.534
		c-0.25,4.495-2.944,9.713-6.312,14.531C62.407-180.028,58.673-173.904,58.673-173.904z"/>
	<path id="path41-87-8-3-9" fill="#D40000" d="M-24.92-280.358v-2.257h2.154l4.589-24.143h2.611
		l5.054,24.142h1.739v2.258h-5.926v-2.258h1.599l-0.639-3.699h-5.979l-0.462,3.699h1.6v2.258H-24.92L-24.92-280.358z
		 M-14.248-288.951l-2.599-12.922l-2.434,12.922H-14.248z"/>
	<path id="path41-8-5-1-8-7" fill="#D40000" d="M126.117-105.849v2.257h2.154l4.588,24.143h2.611
		l5.055-24.143h1.739v-2.257h-5.927v2.257h1.6l-0.64,3.699h-5.979l-0.461-3.699h1.599v-2.257H126.117L126.117-105.849z
		 M136.787-97.256l-2.599,12.921l-2.435-12.921H136.787L136.787-97.256z"/>
</g>
</svg>
