<?xml version="1.0" encoding="utf-8"?>
<!-- Generator: Adobe Illustrator 16.0.0, SVG Export Plug-In . SVG Version: 6.00 Build 0)  -->
<!DOCTYPE svg PUBLIC "-//W3C//DTD SVG 1.1//EN" "http://www.w3.org/Graphics/SVG/1.1/DTD/svg11.dtd">
<svg version="1.1" id="Layer_1" xmlns="http://www.w3.org/2000/svg" xmlns:xlink="http://www.w3.org/1999/xlink" x="0px" y="0px"
	 width="181px" height="252px" viewBox="0 0 181 252" enable-background="new 0 0 181 252" xml:space="preserve">
<g id="g11305-8-4" transform="matrix(0.99553774,0,0,0.99680134,-53.280526,318.48631)">
	<g id="g9936-1-0" transform="translate(1322.3374,-1434.2756)">
		<path id="rect9938-9-5" fill="#FFFFFF" stroke="#000000" stroke-width="1.0006" d="M-1258.662,1116.448h161.498
			c4.718,0,8.542,3.82,8.542,8.531v232.386c0,4.712-3.824,8.531-8.542,8.531h-161.498c-4.717,0-8.542-3.819-8.542-8.531v-232.386
			C-1267.204,1120.267-1263.379,1116.448-1258.662,1116.448z"/>
	</g>
	<g id="g9956-4-1" transform="translate(1582.7704,-1064)">
	</g>
	<g id="g9962-7-4" transform="translate(1609.362,-1083.9055)">
	</g>
	<path id="path9970-5-6" fill="#D40000" d="M68.908-261.849
		c0,0-1.779-2.552-4.181-5.552c-1.606-2.008-2.89-4.182-3.01-6.055c-0.137-2.14,1.159-4.285,3.506-4.389
		c2.344-0.104,3.297,1.649,3.684,3.095c0.387-1.446,1.339-3.199,3.684-3.095c2.346,0.104,3.642,2.249,3.506,4.389
		c-0.12,1.872-1.404,4.046-3.01,6.055C70.687-264.401,68.908-261.849,68.908-261.849z"/>
	<path id="path9972-9-9" fill="#D40000" d="M219.944-124.358
		c0,0-1.779,2.552-4.181,5.552c-1.607,2.007-2.89,4.182-3.01,6.055c-0.137,2.139,1.159,4.285,3.506,4.389
		c2.344,0.104,3.296-1.65,3.684-3.095c0.386,1.445,1.34,3.199,3.684,3.095c2.346-0.104,3.643-2.25,3.506-4.389
		c-0.12-1.872-1.405-4.047-3.01-6.055C221.723-121.806,219.944-124.358,219.944-124.358z"/>
	<path id="path9978-0-4" fill="#D40000" d="M103.012-253.272
		c0,0-3.733-6.125-8.769-13.325c-3.369-4.819-6.062-10.037-6.312-14.531c-0.287-5.134,2.431-10.284,7.353-10.534
		c4.918-0.25,6.915,3.958,7.728,7.427c0.813-3.469,2.809-7.677,7.728-7.427c4.922,0.25,7.641,5.4,7.353,10.534
		c-0.25,4.494-2.944,9.712-6.312,14.531C106.745-259.397,103.012-253.272,103.012-253.272z"/>
	<path id="path9984-9-5" fill="#D40000" d="M185.838-253.272
		c0,0-3.733-6.125-8.77-13.325c-3.369-4.819-6.06-10.037-6.311-14.531c-0.286-5.134,2.431-10.284,7.353-10.534
		c4.918-0.25,6.916,3.958,7.728,7.427c0.812-3.469,2.809-7.677,7.728-7.427c4.922,0.25,7.642,5.4,7.353,10.534
		c-0.249,4.494-2.943,9.712-6.311,14.531C189.572-259.397,185.838-253.272,185.838-253.272z"/>
	<path id="path9986-7-3" fill="#D40000" d="M144.425-173.904
		c0,0-3.733-6.124-8.769-13.325c-3.37-4.818-6.062-10.036-6.313-14.531c-0.286-5.134,2.432-10.284,7.353-10.534
		c4.919-0.249,6.916,3.959,7.729,7.428c0.812-3.469,2.809-7.677,7.727-7.428c4.922,0.25,7.642,5.4,7.353,10.534
		c-0.249,4.495-2.943,9.713-6.311,14.531C148.158-180.028,144.425-173.904,144.425-173.904z"/>
	<path id="path9998-0-9" fill="#D40000" d="M185.838-132.935
		c0,0-3.733,6.124-8.77,13.325c-3.369,4.818-6.06,10.036-6.311,14.531c-0.286,5.134,2.431,10.284,7.353,10.534
		c4.918,0.249,6.916-3.959,7.728-7.428c0.812,3.469,2.809,7.677,7.728,7.428c4.922-0.25,7.642-5.4,7.353-10.534
		c-0.249-4.495-2.943-9.713-6.311-14.531C189.572-126.811,185.838-132.935,185.838-132.935z"/>
	<path id="path10000-8-2" fill="#D40000" d="M103.012-132.935
		c0,0-3.733,6.124-8.769,13.325c-3.369,4.818-6.062,10.036-6.312,14.531c-0.287,5.134,2.431,10.284,7.353,10.534
		c4.918,0.249,6.915-3.959,7.728-7.428c0.813,3.469,2.809,7.677,7.728,7.428c4.922-0.25,7.641-5.4,7.353-10.534
		c-0.25-4.495-2.944-9.713-6.312-14.531C106.745-126.811,103.012-132.935,103.012-132.935z"/>
	<path id="path21-9-5-1-8" fill="#D40000" d="M60.586-287.193l2.588-0.024
		c0.493,1.594,1.586,3.213,3.069,3.663c4.19,1.002,6.886-1.383,7.774-4.133c1.076-3.336-0.025-8.02-2.909-9.682
		c-2.39-1.378-5.942-0.216-7.573,2.733l-1.813-1.13l0.973-10.991h11.84v2.598H64.94l-0.152,4.579
		c2.066-1.477,5.239-1.462,7.304-0.425c3.909,1.899,5.726,6.217,4.966,11.307c-1.053,5.062-3.375,7.931-8.614,8.34
		C62.618-280.305,60.561-284.385,60.586-287.193L60.586-287.193L60.586-287.193z"/>
	<path id="path21-3-0-6-3-8" fill="#D40000" d="M228.264-99.015l-2.588,0.025
		c-0.494-1.594-1.587-3.213-3.07-3.663c-4.191-1.002-6.886,1.383-7.773,4.133c-1.077,3.335,0.024,8.019,2.908,9.682
		c2.392,1.378,5.943,0.216,7.575-2.733l1.811,1.129l-0.973,10.992h-11.838v-2.598h9.594l0.153-4.579
		c-2.066,1.477-5.24,1.462-7.304,0.425c-3.91-1.9-5.727-6.218-4.967-11.307c1.054-5.063,3.376-7.931,8.615-8.341
		C226.231-105.902,228.287-101.822,228.264-99.015L228.264-99.015L228.264-99.015z"/>
</g>
</svg>
