<?xml version="1.0" encoding="utf-8"?>
<!-- Generator: Adobe Illustrator 16.0.0, SVG Export Plug-In . SVG Version: 6.00 Build 0)  -->
<!DOCTYPE svg PUBLIC "-//W3C//DTD SVG 1.1//EN" "http://www.w3.org/Graphics/SVG/1.1/DTD/svg11.dtd">
<svg version="1.1" id="Layer_1" xmlns="http://www.w3.org/2000/svg" xmlns:xlink="http://www.w3.org/1999/xlink" x="0px" y="0px"
	 width="181px" height="252px" viewBox="0 0 181 252" enable-background="new 0 0 181 252" xml:space="preserve">
<g id="g11234-8-5" transform="matrix(0.99553774,0,0,0.99680134,-95.965064,318.48629)">
	<path id="rect10074-2-8" fill="#FFFFFF" stroke="#000000" stroke-width="1.0006" d="M106.552-317.828H268.05
		c4.718,0,8.542,3.82,8.542,8.531v232.386c0,4.712-3.824,8.531-8.542,8.531H106.552c-4.718,0-8.542-3.819-8.542-8.531v-232.386
		C98.01-314.008,101.834-317.828,106.552-317.828z"/>
	<g id="g10092-4-5" transform="translate(2154.4627,-1064)">
	</g>
	<g id="g10098-2-4" transform="translate(2181.0543,-1083.9055)">
	</g>
	<path id="path10106-2-3" fill="#D40000" d="M111.783-261.849
		c0,0-1.779-2.552-4.181-5.552c-1.606-2.008-2.89-4.182-3.01-6.055c-0.136-2.14,1.159-4.285,3.506-4.389
		c2.345-0.104,3.297,1.649,3.684,3.095c0.387-1.446,1.34-3.199,3.684-3.095c2.346,0.104,3.643,2.249,3.506,4.389
		c-0.12,1.872-1.404,4.046-3.01,6.055C113.564-264.401,111.783-261.849,111.783-261.849z"/>
	<path id="path10108-3-1" fill="#D40000" d="M262.819-124.358
		c0,0-1.78,2.552-4.181,5.552c-1.607,2.007-2.891,4.182-3.01,6.055c-0.137,2.139,1.158,4.285,3.506,4.389
		c2.344,0.104,3.296-1.65,3.684-3.095c0.387,1.445,1.339,3.199,3.684,3.095c2.346-0.104,3.642-2.25,3.505-4.389
		c-0.119-1.872-1.403-4.047-3.01-6.055C264.599-121.806,262.819-124.358,262.819-124.358z"/>
	<path id="path10110-3-5" fill="#D40000" d="M187.301-213.589
		c0,0-3.733-6.124-8.769-13.325c-3.369-4.818-6.062-10.036-6.312-14.53c-0.287-5.135,2.431-10.285,7.353-10.535
		c4.918-0.249,6.916,3.959,7.728,7.428c0.813-3.469,2.809-7.677,7.728-7.428c4.922,0.25,7.641,5.4,7.353,10.535
		c-0.25,4.494-2.943,9.712-6.312,14.53C191.034-219.713,187.301-213.589,187.301-213.589z"/>
	<path id="path10114-8-3" fill="#D40000" d="M145.887-253.272
		c0,0-3.732-6.125-8.769-13.325c-3.369-4.819-6.062-10.037-6.312-14.531c-0.287-5.134,2.432-10.284,7.353-10.534
		c4.918-0.25,6.916,3.958,7.728,7.427c0.813-3.469,2.809-7.677,7.728-7.427c4.922,0.25,7.641,5.4,7.353,10.534
		c-0.25,4.494-2.943,9.712-6.312,14.531C149.621-259.397,145.887-253.272,145.887-253.272z"/>
	<path id="path10116-2-5" fill="#D40000" d="M228.714-173.904
		c0,0-3.733-6.124-8.769-13.325c-3.37-4.818-6.062-10.036-6.312-14.531c-0.287-5.134,2.431-10.284,7.353-10.534
		c4.918-0.249,6.915,3.959,7.728,7.428c0.812-3.469,2.809-7.677,7.728-7.428c4.922,0.25,7.641,5.4,7.353,10.534
		c-0.25,4.495-2.944,9.713-6.312,14.531C232.448-180.028,228.714-173.904,228.714-173.904z"/>
	<path id="path10120-6-5" fill="#D40000" d="M228.714-253.272
		c0,0-3.733-6.125-8.769-13.325c-3.37-4.819-6.062-10.037-6.312-14.531c-0.287-5.134,2.431-10.284,7.353-10.534
		c4.918-0.25,6.915,3.958,7.728,7.427c0.812-3.469,2.809-7.677,7.728-7.427c4.922,0.25,7.641,5.4,7.353,10.534
		c-0.25,4.494-2.944,9.712-6.312,14.531C232.448-259.397,228.714-253.272,228.714-253.272z"/>
	<path id="path10124-1-1" fill="#D40000" d="M145.887-173.904
		c0,0-3.732-6.124-8.769-13.325c-3.369-4.818-6.062-10.036-6.312-14.531c-0.287-5.134,2.432-10.284,7.353-10.534
		c4.918-0.249,6.916,3.959,7.728,7.428c0.813-3.469,2.809-7.677,7.728-7.428c4.922,0.25,7.641,5.4,7.353,10.534
		c-0.25,4.495-2.943,9.713-6.312,14.531C149.621-180.028,145.887-173.904,145.887-173.904z"/>
	<path id="path10134-7-3" fill="#D40000" d="M228.714-132.935
		c0,0-3.733,6.124-8.769,13.325c-3.37,4.818-6.062,10.036-6.312,14.531c-0.287,5.134,2.431,10.284,7.353,10.534
		c4.918,0.249,6.915-3.959,7.728-7.428c0.812,3.469,2.809,7.677,7.728,7.428c4.922-0.25,7.641-5.4,7.353-10.534
		c-0.25-4.495-2.944-9.713-6.312-14.531C232.448-126.811,228.714-132.935,228.714-132.935z"/>
	<path id="path10136-5-7" fill="#D40000" d="M145.887-132.935
		c0,0-3.732,6.124-8.769,13.325c-3.369,4.818-6.062,10.036-6.312,14.531c-0.287,5.134,2.432,10.284,7.353,10.534
		c4.918,0.249,6.916-3.959,7.728-7.428c0.813,3.469,2.809,7.677,7.728,7.428c4.922-0.25,7.641-5.4,7.353-10.534
		c-0.25-4.495-2.943-9.713-6.312-14.531C149.621-126.811,145.887-132.935,145.887-132.935z"/>
	<path id="path25-43-2-3-9" fill="#D40000" d="M107.724-280.361
		c1.736-9.179,3.584-16.07,8.437-23.548h-9.863v3.219h-2.619v-6.068h14.428l1.779,2.849c-5.154,5.626-9.871,23.813-9.035,23.548
		H107.724z"/>
	<path id="path25-7-0-2-8-2" fill="#D40000" d="M266.877-105.846
		c-1.737,9.179-3.585,16.069-8.438,23.548h9.864v-3.219h2.618v6.068h-14.427l-1.779-2.849c5.154-5.626,9.87-23.814,9.035-23.548
		H266.877L266.877-105.846z"/>
</g>
</svg>
