<?xml version="1.0" encoding="utf-8"?>
<!-- Generator: Adobe Illustrator 16.0.0, SVG Export Plug-In . SVG Version: 6.00 Build 0)  -->
<!DOCTYPE svg PUBLIC "-//W3C//DTD SVG 1.1//EN" "http://www.w3.org/Graphics/SVG/1.1/DTD/svg11.dtd">
<svg version="1.1" id="Layer_1" xmlns="http://www.w3.org/2000/svg" xmlns:xlink="http://www.w3.org/1999/xlink" x="0px" y="0px"
	 width="181px" height="252px" viewBox="0 0 181 252" enable-background="new 0 0 181 252" xml:space="preserve">
<g id="g11195-3-7" transform="matrix(0.99553774,0,0,0.99680134,-117.30742,318.48631)">
	<g id="g10140-6-7" transform="translate(2179.8759,-1434.2756)">
		<path id="rect10142-4-2" fill="#FFFFFF" stroke="#000000" stroke-width="1.0006" d="M-2051.887,1116.448h161.499
			c4.718,0,8.542,3.82,8.542,8.531v232.386c0,4.712-3.824,8.531-8.542,8.531h-161.499c-4.717,0-8.542-3.819-8.542-8.531v-232.386
			C-2060.429,1120.267-2056.604,1116.448-2051.887,1116.448z"/>
	</g>
	<g id="g10160-2-4" transform="translate(2440.3089,-1064)">
	</g>
	<g id="g10166-2-7" transform="translate(2466.9005,-1083.9055)">
	</g>
	<path id="path10174-9-0" fill="#D40000" d="M133.222-261.849
		c0,0-1.779-2.552-4.181-5.552c-1.606-2.008-2.89-4.182-3.01-6.055c-0.137-2.14,1.159-4.285,3.506-4.389
		c2.344-0.104,3.297,1.649,3.684,3.095c0.387-1.446,1.339-3.199,3.684-3.095c2.346,0.104,3.642,2.249,3.506,4.389
		c-0.12,1.872-1.404,4.046-3.01,6.055C135.001-264.401,133.222-261.849,133.222-261.849z"/>
	<path id="path10176-9-9" fill="#D40000" d="M284.257-124.358c0,0.002-1.779,2.552-4.181,5.552
		c-1.607,2.007-2.89,4.182-3.01,6.055c-0.137,2.139,1.159,4.285,3.506,4.389c2.344,0.104,3.296-1.65,3.684-3.095
		c0.387,1.445,1.34,3.199,3.684,3.095c2.346-0.104,3.643-2.25,3.506-4.389c-0.12-1.872-1.405-4.047-3.01-6.055
		C286.037-121.806,284.259-124.356,284.257-124.358z"/>
	<path id="path10178-8-4" fill="#D40000" d="M208.739-213.588
		c0,0-3.733-6.124-8.769-13.325c-3.37-4.818-6.062-10.036-6.313-14.53c-0.286-5.135,2.432-10.285,7.353-10.535
		c4.919-0.249,6.916,3.959,7.729,7.428c0.812-3.469,2.809-7.677,7.727-7.428c4.922,0.25,7.642,5.4,7.353,10.535
		c-0.249,4.494-2.943,9.712-6.311,14.53C212.472-219.713,208.739-213.588,208.739-213.588z"/>
	<path id="path10182-1-9" fill="#D40000" d="M167.326-253.272
		c0,0-3.733-6.125-8.769-13.325c-3.369-4.819-6.062-10.037-6.312-14.531c-0.287-5.134,2.431-10.284,7.353-10.534
		c4.918-0.25,6.915,3.958,7.728,7.427c0.813-3.469,2.809-7.677,7.728-7.427c4.922,0.25,7.641,5.4,7.353,10.534
		c-0.25,4.494-2.944,9.712-6.312,14.531C171.058-259.397,167.326-253.272,167.326-253.272z"/>
	<path id="path10184-9-1" fill="#D40000" d="M250.152-173.904
		c0,0-3.733-6.124-8.77-13.325c-3.369-4.818-6.06-10.036-6.311-14.531c-0.286-5.134,2.431-10.284,7.353-10.534
		c4.918-0.249,6.916,3.959,7.728,7.428c0.812-3.469,2.809-7.677,7.728-7.428c4.922,0.25,7.642,5.4,7.353,10.534
		c-0.249,4.495-2.943,9.713-6.311,14.531C253.886-180.028,250.152-173.904,250.152-173.904z"/>
	<path id="path10188-5-4" fill="#D40000" d="M250.152-253.272
		c0,0-3.733-6.125-8.77-13.325c-3.369-4.819-6.06-10.037-6.311-14.531c-0.286-5.134,2.431-10.284,7.353-10.534
		c4.918-0.25,6.916,3.958,7.728,7.427c0.812-3.469,2.809-7.677,7.728-7.427c4.922,0.25,7.642,5.4,7.353,10.534
		c-0.249,4.494-2.943,9.712-6.311,14.531C253.886-259.397,250.152-253.272,250.152-253.272z"/>
	<path id="path10192-3-6" fill="#D40000" d="M167.326-173.904
		c0,0-3.733-6.124-8.769-13.325c-3.369-4.818-6.062-10.036-6.312-14.531c-0.287-5.134,2.431-10.284,7.353-10.534
		c4.918-0.249,6.915,3.959,7.728,7.428c0.813-3.469,2.809-7.677,7.728-7.428c4.922,0.25,7.641,5.4,7.353,10.534
		c-0.25,4.495-2.944,9.713-6.312,14.531C171.058-180.028,167.326-173.904,167.326-173.904z"/>
	<path id="path10196-7-3" fill="#D40000" d="M208.739-172.619
		c0,0-3.733,6.124-8.769,13.325c-3.37,4.819-6.062,10.037-6.312,14.531c-0.287,5.134,2.431,10.284,7.353,10.534
		c4.918,0.25,6.915-3.958,7.728-7.428c0.814,3.47,2.809,7.678,7.727,7.428c4.922-0.25,7.642-5.4,7.353-10.534
		c-0.249-4.494-2.943-9.712-6.311-14.531C212.472-166.495,208.739-172.619,208.739-172.619L208.739-172.619z"/>
	<path id="path10202-2-8" fill="#D40000" d="M250.152-132.935
		c0,0-3.733,6.124-8.77,13.325c-3.369,4.818-6.06,10.036-6.311,14.531c-0.286,5.134,2.431,10.284,7.353,10.534
		c4.918,0.249,6.916-3.959,7.728-7.428c0.812,3.469,2.809,7.677,7.728,7.428c4.922-0.25,7.642-5.4,7.353-10.534
		c-0.249-4.495-2.943-9.713-6.311-14.531C253.886-126.811,250.152-132.935,250.152-132.935z"/>
	<path id="path10204-9-4" fill="#D40000" d="M167.326-132.935
		c0,0-3.733,6.124-8.769,13.325c-3.369,4.818-6.062,10.036-6.312,14.531c-0.287,5.134,2.431,10.284,7.353,10.534
		c4.918,0.249,6.915-3.959,7.728-7.428c0.813,3.469,2.809,7.677,7.728,7.428c4.922-0.25,7.641-5.4,7.353-10.534
		c-0.25-4.495-2.944-9.713-6.312-14.531C171.058-126.811,167.326-132.935,167.326-132.935z"/>
	<path id="path27-00-0-7-4" fill="#D40000" d="M124.644-288.09
		c0.126-3.545,1.408-4.874,3.931-6.729c-2.013-1.452-2.861-3.592-2.689-5.414c0.414-4.412,3.821-6.616,7.539-6.522
		c3.72,0.098,6.922,3.047,7.172,6.253c0.217,2.786-0.611,4.131-2.588,5.597c2.346,1.981,3.844,3.282,3.789,6.773
		c-0.056,3.491-3.025,7.645-8.201,7.771C128.422-280.233,124.516-284.547,124.644-288.09L124.644-288.09L124.644-288.09z
		 M139.093-288.078c0.221-3.21-2.615-5.374-5.818-5.405c-3.117-0.033-5.905,2.628-5.905,5.508c0,3.094,3.628,4.775,5.971,4.783
		C136.188-283.179,138.9-285.316,139.093-288.078L139.093-288.078L139.093-288.078z M138.068-299.557
		c0.061-2.699-2.431-4.637-5.002-4.559c-2.287,0.07-4.705,1.813-4.709,4.072c0,2.827,2.753,4.239,5.103,4.294
		C135.594-295.702,138.02-297.515,138.068-299.557L138.068-299.557L138.068-299.557z"/>
	<path id="path27-0-1-0-8-9" fill="#D40000" d="M275.68-98.117
		c0.126,3.545,1.407,4.874,3.93,6.728c-2.013,1.452-2.86,3.593-2.688,5.415c0.414,4.411,3.822,6.616,7.538,6.522
		c3.722-0.098,6.923-3.048,7.173-6.253c0.218-2.786-0.61-4.131-2.588-5.597c2.346-1.981,3.845-3.282,3.788-6.773
		c-0.055-3.491-3.025-7.645-8.201-7.771C279.457-105.974,275.553-101.66,275.68-98.117L275.68-98.117L275.68-98.117z
		 M290.127-98.129c0.222,3.209-2.615,5.374-5.817,5.405c-3.117,0.033-5.905-2.628-5.905-5.509c0-3.093,3.628-4.775,5.97-4.782
		C287.224-103.028,289.935-100.892,290.127-98.129L290.127-98.129z M289.103-86.65c0.061,2.699-2.431,4.636-5.001,4.559
		c-2.288-0.071-4.705-1.813-4.709-4.072c0-2.827,2.753-4.24,5.103-4.294C286.629-90.505,289.056-88.693,289.103-86.65L289.103-86.65
		L289.103-86.65z"/>
</g>
</svg>
