<?xml version="1.0" encoding="utf-8"?>
<!-- Generator: Adobe Illustrator 16.0.0, SVG Export Plug-In . SVG Version: 6.00 Build 0)  -->
<!DOCTYPE svg PUBLIC "-//W3C//DTD SVG 1.1//EN" "http://www.w3.org/Graphics/SVG/1.1/DTD/svg11.dtd">
<svg version="1.1" id="Layer_1" xmlns="http://www.w3.org/2000/svg" xmlns:xlink="http://www.w3.org/1999/xlink" x="0px" y="0px"
	 width="181px" height="252px" viewBox="0 0 181 252" enable-background="new 0 0 181 252" xml:space="preserve">
<g id="g6073" transform="matrix(0.99999718,0,0,1.000002,-4.9738447,-6.5473594)">
	<path id="rect10414-2-6" fill="#FFFFFF" stroke="#000000" stroke-width="0.9967" d="M15.085,8.222h160.777
		c4.697,0,8.504,3.807,8.504,8.504V248.37c0,4.695-3.807,8.504-8.504,8.504H15.085c-4.696,0-8.504-3.809-8.504-8.504V16.726
		C6.581,12.028,10.389,8.222,15.085,8.222z"/>
	<path id="path10446-4-8" fill="#D40000" d="M20.294,64.021
		c0,0-1.772-2.544-4.162-5.535c-1.599-2.001-2.878-4.168-2.996-6.034c-0.136-2.133,1.153-4.271,3.49-4.376
		c2.335-0.104,3.282,1.645,3.668,3.085c0.386-1.44,1.333-3.188,3.668-3.085c2.336,0.104,3.626,2.243,3.49,4.376
		c-0.119,1.866-1.397,4.033-2.996,6.034C22.066,61.478,20.294,64.021,20.294,64.021L20.294,64.021z"/>
	<path id="path10448-8-7" fill="#D40000" d="M170.655,201.073
		c0,0-1.771,2.545-4.161,5.535c-1.6,2.002-2.878,4.168-2.997,6.035c-0.136,2.131,1.154,4.271,3.49,4.375
		c2.335,0.104,3.282-1.645,3.668-3.086c0.387,1.441,1.334,3.189,3.668,3.086c2.336-0.104,3.627-2.244,3.49-4.375
		c-0.118-1.867-1.396-4.033-2.996-6.035C172.427,203.618,170.655,201.073,170.655,201.073z"/>
	<path id="path37-2-5-5-0" fill="#D40000" d="M14.504,36.864h-2.197v-2.998h2.197
		c0,0,0.017-1.616,0.08-4.466c0.136-6.074,0.287-7.017,2.043-8.688c3.469-3.305,9.276-0.612,9.208,4.356
		c-0.101,7.012-0.028,13.697-0.232,14.645c-0.364,1.667-0.4,1.762-0.252,2.066c0.304,0.611,2.928,0.877,2.928,0.706v2.953
		c-2.004,0.155-2.837-0.033-4.44-1.18c-1,0.968-4.047,1.938-6.471,0.796C15.524,44.187,14.127,41.942,14.504,36.864L14.504,36.864
		L14.504,36.864z M21.928,42.098c-1.089-1.575-2.921-3.724-4.645-4.487c-0.107,1.811,0.049,3.329,0.685,4.146
		C18.979,43.057,20.614,43.353,21.928,42.098L21.928,42.098z M22.83,24.777c-0.808-2.291-2.883-3.067-4.399-1.634
		c-0.948,0.892-1.101,1.83-1.12,6.93c-0.012,3.146-0.012,4.467-0.012,4.467c2.951,0.959,5.711,4.405,5.688,4.36l0.072-9.513
		C23.116,27.845,23.039,26.299,22.83,24.777L22.83,24.777L22.83,24.777z"/>
	<path id="path37-3-27-3-0-9" fill="#D40000" d="M176.443,228.231h2.196v2.998h-2.196
		c0,0-0.017,1.615-0.08,4.465c-0.136,6.074-0.288,7.018-2.044,8.689c-3.468,3.303-9.275,0.611-9.207-4.357
		c0.101-7.012,0.027-13.697,0.232-14.645c0.363-1.668,0.4-1.762,0.252-2.066c-0.305-0.611-2.928-0.877-2.928-0.705v-2.953
		c2.004-0.156,2.836,0.031,4.439,1.178c1.001-0.967,4.048-1.938,6.472-0.795C175.422,220.909,176.82,223.153,176.443,228.231
		L176.443,228.231L176.443,228.231z M169.019,222.997c1.089,1.574,2.921,3.725,4.644,4.486c0.107-1.811-0.049-3.328-0.684-4.145
		C171.967,222.038,170.332,221.741,169.019,222.997L169.019,222.997z M168.115,240.317c0.809,2.291,2.884,3.068,4.4,1.633
		c0.948-0.891,1.1-1.83,1.12-6.928c0.013-3.146,0.013-4.469,0.013-4.469c-2.953-0.959-5.712-4.404-5.688-4.359l-0.072,9.512
		C167.83,237.249,167.907,238.795,168.115,240.317L168.115,240.317L168.115,240.317z"/>

		<path id="path3054-4-0-3" fill="#131F67" d="
		M160.781,27.285H30.167v210.524h130.614V27.285z M144.687,28.982h14.042v81.161c0,0-1.158-0.024-1.078-0.592
		c0.106-0.76-0.01-2.182-0.539-2.779c-0.223-0.252-0.586-0.649-0.73-0.938c-0.36-0.725-0.954-1.474-1.43-1.676
		c-0.236-0.101-0.51-0.157-0.546-0.321c-0.032-0.153-0.11-0.658-0.212-1.123c-0.252-1.163-0.477-1.126,0.258-2.284
		c2.547-4.01,3.527-7.699,3.206-11.357c-0.101-1.143-0.386-2.622-0.52-2.825c-2.462,2.483-4.243,5.553-5.919,7.82
		c-0.373-3.24-0.319-5.686-0.373-8.282c1.314-0.378,2.109-1.082,2.676-2.885c0,0,1.409,1.111,2.271,0.953l-0.568-2.094
		c3.77-1.164,4.285-6.117-0.166-7.164l0.4-2.608c0,0-1.344,0.453-1.934,0.743c-0.294,0.125-0.367,0.026-0.573-0.402
		c-2.075-3.252-5.299-2.56-6.72,0.646l-1.738-0.743c0.189,0.887,0.414,1.787,0.254,2.675c-3.646,1.636-2.746,6.111,0.166,6.697
		l-0.254,2.091l2.191-0.713c0.319,0.982,0.156,1.551,1.906,2.656c-0.043,4.382-0.113,7.121,0.023,11.014
		c-2.282-2.354-4.485-3.988-8.346-5.188c0,0-0.036,0.943,0.188,2.377c0.074,0.473,0.061,0.403-0.161,0.402
		c-0.502-0.011-2.765-3.674-2.765-3.674s-0.263,0.004-0.491,0.232c-0.27,0.27,0.346,0.767,1.211,2.06
		c1.013,1.514,0.914,1.45,0.119,2.129c-4.521,3.863-11.051,18.566-9.954,19.996c-2.857,0.172-13.997,5.671-16.02,17.01
		c-0.12,0.511-0.357,1.173-0.357,1.173l-3.222-0.805c1.943-9.287,6.328-28.172,6.328-28.172s3.083-0.882,4.886-1.076l-0.019-0.731
		l-4.245,0.995l0.204-1.618l4.006-0.794l-0.011-0.383l-4.24,0.572l0.691-2.694c0,0-9.52,1.408-12.929,1.305
		c0.216,10.478-0.605,19.182-0.163,30.474l-4.654-2.84c-0.414-7.861-0.538-27.719-0.538-27.719l-12.851-2.032l0.428,3.119
		c-10.653-4.251-21.34-8.163-29.209-16.476c4.845-3.743,12.93-7.456,12.93-7.456l-0.266-0.596
		c-19.879,10.319-27.091,17.488-37.078,26.383V28.982h53.812l-0.18,13.495c0,0-0.07,0.348-0.174,0.469
		c-0.663,3.248,1.241,9.015,0.857,11.822c0.178,0.867,0.115,2.479,0.115,2.479c-3.238,4.467-4.955,8.708-6.396,13.901
		c-0.559,0.223-1.381,0.683-1.961,0.84l-0.166,0.709c1.271-0.703,4.875-1.851,4.875-1.851c16.055,7.881,27.852,5.952,40.479,0.097
		c-2.013,7.116,2.364,16.164,9.565,18.067c0.823,0.218,2.234,0.402,3.041,0.189c0.806-0.234-1.815-6.273-2.976-6.5
		c-3.479-1.517-4.911-5.082-4.541-9.171l-0.576-0.976c-1.186,4.967,1.668,10.011,5.586,11.242l1.054,2.315
		c-7.102-2.146-10.126-8.842-7.762-15.462c0.041-4.132-2.617-5.959-3.837-7.739c-6.176-2.372-7.324-8.132-6.244-12.787
		c2.876,1.231-1.938-4.088-1.938-4.088c-2.117,4.619-3.002,10.458,1.842,16.376c-3.134,4.181-7.174,7.488-11.691,10.312
		c-6.602,3.469-11.554,1.132-14.743-6.55c-1.915-4.612-2.601-9.21-2.591-14.025c0.011-2.981,0.043-3.072,1.152-2.567
		c1.043,0.475,3.303,0.542,4.652-0.158c1.839-0.955,1.752-0.374-0.25,1.699c-0.545,0.564-1.126,1.073-1.127,1.181
		c0,0.612,0.855,0.097,2.076-1.122c0.446-0.445,0.775-0.874,0.915-0.867c0.16,0.007,0.146,0.58-0.038,1.2
		c-0.07,0.237-0.295,1.242-0.5,2.229s-0.486,2.146-0.623,2.578c-0.543,1.712-0.396,2.506,1.235,3.297
		c0.86,0.417,2.331,1.837,2.317,1.837c0,0-0.352-1.557-0.221-2.058c0.156-0.602,0.867-0.176,1.591,0.172
		c1.6,0.77,2.531,0.792,3.39,0.069c1.186-0.996,0.846-3.233-0.619-3.816c-1.074-0.429-1.263-0.032-0.189,0.721
		c1.608,1.13-0.206,2.877-1.572,1.794c-1.069-0.847-2.925-0.941-3.132-0.236c-0.196,0.667-0.398,0.546-1.139,0.11
		c-1.149-0.677-1.159-0.796-0.196-4.529c1.825-7.071,1.646-9.667-0.772-11.815c-1.79-1.59-4.747-2.329-7.815-0.562v-2.408
		c4.504-1.812,7.78-4.896,10.422-9.914h0.516c2.63,5.735,6.883,9.939,14.882,12.961c3.125,3.107-3.962-8.925-1.699-3.999
		c-4.245-1.655-8.028-4.948-10.111-8.962h1.157c1.22,1.774,3.69,5.097,8.089,7.332c1.916,0.013-2.823-5.846-3.51-7.332h36.872
		c-1.17,9.043-2.818,18.719,3.666,36.331c-3.041-1.608-15.235,1.817-13.089,2.494c1.077-1.252,8.849-3.101,14.598-1.734
		C148.156,65.66,139.864,46.242,144.687,28.982L144.687,28.982z M148.631,66.073c0.011,0.009,0.021,0.014,0.023,0.004
		C148.647,66.075,148.639,66.075,148.631,66.073z M120.144,100.969l0.034,1.417l0.292-0.069l-0.169-1.378L120.144,100.969z
		 M86.854,28.982h1.619c-0.355,0.736-0.874,1.373-1.664,1.827L86.854,28.982z M89.638,28.982h1.741
		c-1.356,2.175-2.799,3.576-4.54,4.606l0.031-1.703C87.877,30.998,88.837,29.995,89.638,28.982L89.638,28.982z M92.518,28.982h1.606
		c-2.181,3.374-4.419,5.724-7.285,7.158v-1.379C88.61,33.376,91.119,31.254,92.518,28.982z M94.97,28.982h1.3
		c-2.234,4.286-5.351,7.331-9.431,8.978v-1.03C91.308,34.532,93.264,31.77,94.97,28.982z M98.522,28.982h1.562
		c2.142,4.285,6.591,8.424,11.476,10.201l0.746,1.737C105.864,38.593,101.6,35.111,98.522,28.982L98.522,28.982z M103.039,28.982
		h1.115c1.172,1.646,2.592,3.066,4.252,4.177l1.011,1.971C107.177,33.612,104.677,31.685,103.039,28.982z M105.073,28.982h1.245
		l1.649,2.919C106.869,31.279,106.037,29.931,105.073,28.982L105.073,28.982z M103.643,40.193c-1.708-0.008-3.262,0.467-4.387,1.39
		c-1.188,0.976-0.313,2.038,1.396,1.239c2.911-1.361,6.257-0.748,9.868,1.242c3.041,1.677,1.976-0.07-0.861-1.936
		C107.715,40.834,105.578,40.202,103.643,40.193z M89.91,42.389c2.45,0.02,5.256,1.112,5.324,2.559
		c-1.624-1.368-4.89-2.032-8.023-0.627c-0.239-0.051-0.273-0.909-0.13-1.224C87.756,42.596,88.797,42.38,89.91,42.389z
		 M104.746,43.321c-1.549,0-2.967,0.408-3.621,1.285c-0.335,0.416-0.424,0.461-0.792,0.399c-0.721-0.121-0.681,0.299,0.142,1.447
		c0.399,0.558,0.334,1.191-0.199,1.947c-0.613,0.868-0.493,0.901,1.33,1.781c1.394,0.684,2.513,1.652,3.778,2.45
		c0.905,0.514,1.085,0.062,0.25-0.615c-0.286-0.232-1.136-0.844-1.899-1.344c-1.293-0.848-2.242-1.704-1.215-1.323
		c0.472,0.149,0.594,0.212,1.111,0.302c1.333,0.29,2.649,0.451,3.768,0.225c0.803-0.162,1.848-0.696,2.707-1.444
		c0.219-0.102,0.436,0.007,0.969,0.027c2.037,0.079,1.587-0.522-1.338-2.13c-2.895-1.59-5.165-1.879-7.017-1.006
		c-0.784,0.369-1.232,0.462-1.118,0.229c0.118-0.244,0.336-0.526,0.688-0.732c2.992-1.803,5.397-0.308,8.035,1.046
		c1.132,0.679,1.438,0.855,1.572,0.639c0.172-0.278-1.262-1.305-3.188-2.276C107.581,43.639,106.113,43.322,104.746,43.321
		L104.746,43.321z M95.18,45.409c0.506,0.2,0.279,0.782-0.184,0.599c-2.764-1.249-3.317-1.857-6.611-0.701
		c-1.088,0.382-1.52,0.044-0.184-0.532C91.111,43.548,93.223,44.375,95.18,45.409z M93.285,46.879
		c-0.748,3.828-4.533,2.648-4.105,0.02l0.696,0.004c0.054,2.312,2.354,2.297,2.749,0.023L93.285,46.879z M115.295,46.888l1.02,2.194
		c-2.229,5.527,0.797,12.971,7.377,14.754c0,0,1.062,1.643,0.854,1.851C112.192,62.934,113.142,51.074,115.295,46.888z
		 M103.593,47.03l0.346,0.02c1.067,2.668,2.616,1.135,2.918,0.008l0.788,0.02C107.405,49.841,103.241,50.31,103.593,47.03
		L103.593,47.03z M94.071,47.108c0.5-0.06,0.67,0.696,0.53,0.836c-0.039,0.038-0.953,0.933-1.065,0.406
		C93.371,47.58,93.862,47.145,94.071,47.108L94.071,47.108z M88.307,47.186c0.043,0,0.086,0.002,0.131,0.008
		c0.311,0.238,0.428,0.949,0.266,1.316c-0.184,0.191-0.926-0.07-1.068-0.356C87.414,47.735,87.673,47.182,88.307,47.186
		L88.307,47.186z M108.345,47.44c0.243,0.01,0.915,0.302,0.85,0.628c-0.017,0.082-0.95,0.774-1.161,0.662
		c-0.405-0.218,0.155-1.212,0.234-1.274C108.281,47.445,108.31,47.439,108.345,47.44L108.345,47.44z M102.885,47.561
		c0.009-0.001,0.014-0.001,0.016,0c0.072,0.054,0.669,0.428,0.162,1.119c-0.035,0.048-0.713-0.194-0.723-0.274
		C102.284,48.003,102.792,47.589,102.885,47.561z M117.856,52.408c-0.15,3.177,0.672,6.261,4.117,8.241l-0.741-1.362
		c-0.884-0.709-2.734-2.73-2.503-5.138L117.856,52.408z M86.915,58.087l0.389,2.091c-1.896,3.172-3.335,6.29-4.528,9.934
		l-1.792,0.658C82.406,66.174,83.721,62.532,86.915,58.087z M87.669,61.343l0.507,1.796c-0.931,1.728-1.926,3.68-2.525,5.95
		l-1.98,0.736C84.562,66.815,85.864,63.893,87.669,61.343z M93.947,62.086c-0.029,0-0.058,0.003-0.088,0.012
		c-0.021,0.354-0.017,1.333,0.058,2.946c0.014,0.306,0.312,0.177,1.153-0.256c0.733-0.377,0.657-0.437,1.368-0.197
		c1.969,0.679,2.864,0.384,3.633,0.185c1.173-0.305,1.652-0.181,2.334,0.229c0.375,0.226,0.887,0.393,0.988,0.43
		c0.54,0.198,0.334-0.041-0.035-1.51c-0.414-1.651-0.236-1.832-0.894-1.402c-0.145,0.095-0.562,0.327-0.79,0.354
		c-0.572,0.067-1.529-0.64-2.1-0.415c-1.381,0.545-1.368,0.401-2.65,0.085c-0.642-0.158-1.256,0.234-1.812,0.346
		C94.793,62.932,94.39,62.083,93.947,62.086z M117.445,62.941c2.333,2.155,4.732,2.894,7.335,3.709
		c-0.313,1.072-0.941,2.277-1.234,3.678c-13.544,7.209-27.154,6.982-39.994,0.438l6.663-2.562c3.64,6.348,8.306,8.042,13.552,5.965
		C109.627,71.423,113.967,67.603,117.445,62.941z M88.503,64.212l0.577,1.556l-0.857,2.346l-1.635,0.666
		C86.902,67.182,87.505,65.868,88.503,64.212z M100.744,66.016c-0.406,0.02-1.019,0.294-2.415,0.302
		c-0.756,0.004-1.348-0.063-1.642-0.004c-0.608,0.124,0.104,0.397,1.465,0.79c1.362,0.39,3.026-0.198,3.233-0.794
		C101.437,66.164,101.257,65.99,100.744,66.016L100.744,66.016z M89.46,66.782l0.358,0.789l-0.611,0.221L89.46,66.782z
		 M125.472,67.228l1.011,2.318c-1.752,3.818-2.915,14.281,8.781,17.537l0.511,1.498C127.815,88.737,119.837,78.55,125.472,67.228
		L125.472,67.228z M98.691,68.017c-1.143-0.011-2.34,0.274-3.11,0.891c-0.696,0.555,0.155,0.905,1.062,0.461
		c1.174-0.575,3.133-0.527,4.283,0.197c0.879,0.604,1.338,0.497,0.749-0.422C101.213,68.422,99.987,68.03,98.691,68.017
		L98.691,68.017z M149.757,70.622c3.058-0.051,3.375,4.356,2.78,4.734c0.172-0.058,0.693-0.213,1.438-0.193
		c2.24,0.06,3.408,1.307,3.537,3.12c0.13,1.828-1.25,2.847-3.26,2.745c-0.747-0.037-1.261-0.113-1.227,0.02
		c0.373,1.46-0.078,3.662-2,4.212c-0.221,0.063-0.535,0.373-0.541,0.483c-0.145,2.317,0.511,10.274,0.511,10.274
		s3.603-6.097,4.413-7.022c1.586-2.18,2.156-1.974,1.877,1.638c-0.387,4.997-1.148,6.158-4.002,10.395
		c-1.259,1.816-4.238,0.862-3.968,2.091c0.06,0.271,0.543,0.758,1.026,1.219c0.31,0.296,0.63,0.481,1.354,0.457
		c1.271-0.042,1.766-0.302,1.006,0.811c-0.6,0.88-2.712,1.062-2.949,1.521c-0.554,1.064-0.175,0.829-1.121,1.765
		c-0.725,0.799-0.473,0.392-0.143,1.05c0.518,0.848,0.303,2.541-0.211,3.682c-0.418,0.929-0.372,1.592-0.372,1.592
		c0.008,0.077,1.177-1.215,1.529-2.707c0.293-1.242,0.637-1.864,0.634-1.169c0,0.877,0.148,2.069,0.935,2.523
		c0.622,0.36,0.711,0.72,0.607,1.162c-0.106,0.457,0.378,0.859,0.857,1.242c0.112,0.113,0.49,0.262,0.45,0.504
		c-0.129,0.763,0.18,1.66,0.732,1.807c0.246,0.123,1.814-0.012,2.073-0.901c-0.025-0.283,0-1.45-0.626-1.518
		c-0.441-0.204-0.396-0.326,0.272-0.728c0.999-0.6,1.725-1.03,2.218-1.123c0.661-0.09,1.296-0.812,1.296-0.812l0.127,47.964
		c-5.929,6.111-12.426,12.191-20.994,18.168c-4.979-4.178-10.421-8.408-16.197-11.574l-1.995-1.189l0.715-0.92l-3.464-4.6
		l3.898-3.158l0.988,1.258l-1.846,1.803l2.769,3.082l6.22-6.109l-4.099-3.947l2.134-4.023l1.365,0.674l-1.03,2.551l3.117,1.986
		l3.902-7.805l-4.947-2.268l1.253-5.242l1.526,0.162l-0.508,3.775l3.856,0.77l1.568-8.9l-5.659-1.018l0.48-5.076l1.58,0.02
		l-0.23,2.807l3.998,0.573l0.754-7.758l-5.548-0.926l0.715-5.988l1.269,0.182l-0.246,3.693l4.071,0.7
		c0.447-2.504,0.812-5.649,1.477-8.106l-5.244-1.967l1.856-5.028l1.181,0.414l-1.03,2.726l3.871,1.657l3.264-6.484l-4.559-3.248
		c1.021-1.707,2.041-3.329,3.502-4.712l0.896,0.786c0,0-0.329,0.298-0.834,1.003c-0.614,0.855-0.807,1.287-0.723,1.51
		c0.083,0.22,2.899,2.313,3.114,2.314c0.248,0.001,1.182-0.856,1.664-1.432c0.516-0.616,0.785-0.676,1.318-0.291
		c0.106,0.077,0.26,0.229,0.369,0.36c0.129,0.154,0.18,0.284,0.192,0.383c0.013,0.097-0.015,0.162-0.038,0.201
		c0.045-0.043,0.143-0.117,0.354-0.235c0.383-0.215-0.742-1.211-1.661-1.727c-2.749-1.554-5.983-4.482-6.731-8.146
		c-0.274-1.645,3.949,0.333,6.858,3.252c0.44,0.441,2.08,2.04,2.08,2.04c-0.239-4.234-0.581-8.536-0.396-12.821l-0.643-0.449
		c-0.898-0.631-1.244-1.665-1.326-2.702c-0.057-0.715,0.553-1.081-0.838-1.034c-2.896,0.026-4.57-2.718-2.814-5.063
		c0.628-0.878,3.298-1.307,3.295-1.285C146.199,72.269,148.247,70.764,149.757,70.622L149.757,70.622z M148.703,103.246
		 M152.537,75.356c-0.038,0.014-0.081,0.027-0.081,0.027C152.485,75.383,152.512,75.373,152.537,75.356z M56.149,84.52
		c8.084,6.854,13.242,11.465,29.698,16.627l0.407,2.454c-9.462-2.199-19.784-6.652-32.055-17.723L56.149,84.52z M53.715,86.103
		c5.119,4.812,10.366,8.478,15.678,11.552l1.864,1.131l-0.961,0.991l3.126,4.537l-4.021,3.302l-0.957-0.96l2.099-2.071l-2.987-2.957
		l-6.086,6.201l4.172,3.725l-2.418,3.743l-0.877-0.398l1.284-2.609l-3.876-2.129l-4.332,8.018l5.517,2.527l-1.245,4.921
		l-1.288-0.066l0.435-3.855l-4.148-0.739l-1.396,9.009l5.336,0.844l-0.127,5.187l-1.423-0.023l0.101-2.93l-4.214-0.197l-0.377,7.561
		l5.187,0.678l-0.515,6.135l-1.276-0.328l0.142-3.984l-3.952-0.391l-1.36,8.471l5.332,1.533l-1.884,5.279l-1.157-0.639l0.758-2.725
		c-0.973-0.428-3.707-1.572-3.707-1.572l-3.482,6.578l4.517,3.096l-2.779,4.918l-1.073-0.725l1.919-2.869l-3.752-2.373l-2.138,2.939
		c-0.907-0.795-2.538-1.895-3.16-2.633c-0.665-0.609-1.171-0.703-2.026-0.5c-0.675,0.16-1.325,0.283-1.177,0.043
		c0.074-0.119,1.355-0.986,3.314-2.238c0.548-0.35,0.979-0.654,0.973-0.967c-0.008-0.234,0.297-0.604,0.691-0.844
		c0.438-0.268,0.34-0.516,0.27-0.791c-0.379-1.479-0.14-3.785,0.6-5.338c0.495-1.039,0.65-1.227,0.327-1.227
		c-0.953,0.123-2.115,3.6-2.338,4.58c-0.074-0.078-0.179-0.996-0.246-1.348c-0.122-0.637-0.21-1.033-0.719-1.154
		c-0.607-0.145-0.415-0.438-0.477-0.898c-0.101-0.746-0.45-1.219-1.084-1.482c-0.61-0.254-0.677-0.355-0.649-0.967
		c0-0.48-0.5-1.295-0.869-1.553l-2.114,0.75c-0.167,0.562,0.055,1.291,0.403,1.557c1.062,1.008-0.492,1.021-1.557,1.676
		c-0.288,0.188-0.633,0.596-0.865,0.461c-0.676-0.223-0.623,1.811-1.288,1.557l0.161-48.79
		C37.205,98.423,53.715,86.103,53.715,86.103L53.715,86.103z M139.347,94.732l0.814,0.91c-2.527,2.864-4.36,5.813-6.382,9.415
		c-1.724,3.072-3.213,7.375-3.994,12.066c-0.603,2.872-0.695,5.795-1.068,8.734c-0.38,3.161-0.453,7.419-1.054,10.757
		c-1.109,9.158-3.663,14.029-9.215,19.225c-2.44,2.283-10.031,6.596-10.238,6.555l-1.799-0.449
		c15.565-8.023,19.456-13.557,21.141-32.549C127.881,105.567,138.645,96.338,139.347,94.732L139.347,94.732z M140.877,96.328
		l0.834,0.809l-4.545,6.461l4.479,3.179l-1.776,4.177l-1.357-0.507l0.965-2.85l-3.768-1.599l-3.044,8.3l5.366,1.704l-0.884,5.408
		l-1.084-0.295v-3.685l-3.983-0.817l-1.157,9.271l5.867,0.821l-0.431,4.784l-1.388-0.097l-0.054-2.849l-4.071-0.217l-0.931,8.036
		l5.778,0.988l-1.046,5.709l-1.229-0.293l0.276-3.768l-3.875-0.514l-2.241,7.711l4.867,2.471l-2.396,4.943l-1.026-0.721l1.326-2.922
		l-3.786-1.883l-3.656,6.381l3.967,3.93L123,162.485l-0.865-1.115l2-2.168l-2.987-2.977l-6.213,4.975l3.172,4.207l-0.373,0.531
		l-3.275-1.324l-1.569-2.086l-1.876,0.828l-1.479-0.57c9.176-4.844,15.146-10.461,17.611-18.934
		c1.354-4.684,1.756-9.795,2.195-14.948c0.228-2.675,0.465-5.362,0.85-8.005c0.452-4.318,1.108-7.941,2.849-12.106
		c2.11-5.051,4.675-8.61,7.835-12.465H140.877z M91.498,99.521l6.301,3.345l-0.092,2.223l-5.824-2.938L91.498,99.521z M93.27,99.583
		l4.491,0.62l0.019,1.823L93.27,99.583z M73.03,99.642l2.621,1.188l2.223,2.582l1.664-1.1l1.807,0.682
		c-5.709,2.954-10.774,6.49-14.72,12.589c-4.396,6.798-4.885,15.696-5.448,24.285c-0.938,11.848-2.955,20.17-10.775,29.775
		l-1.153-0.732l4.221-6.752l-4.759-3.098l2.168-3.99l1.096,0.379l-0.85,2.381l3.937,2.09l3.019-8.508l-5.552-1.742l0.931-5.322
		l1.396,0.123l-0.369,3.812l3.968,0.631l1.138-8.996l-5.348-0.824l0.119-4.754l1.311,0.127l-0.008,2.893l4.218,0.229l0.326-8.208
		l-5.244-0.585l0.646-5.795l1.469,0.15l-0.339,3.477l4.037,0.581l1.915-7.503l-5.244-2.385l2.829-5.067l1.272,0.589l-1.299,2.807
		l3.637,1.784l3.813-5.868l-4.052-3.918l3.979-4.192l0.977,0.964l-2.16,2.501l2.995,2.787l5.929-5.01l-2.896-4.382L73.03,99.642z
		 M110.739,99.92l-0.185,2.103l-6.316,3.612v-2.06L110.739,99.92z M144.641,99.994l1.395,0.871l-1.011,1.207l-1.219-0.773
		L144.641,99.994z M108.083,100.292l-3.783,2.199v-2.188L108.083,100.292z M152.695,102.344c0.197,0.005,0.379,0.047,0.519,0.14
		c0.381,0.25,0.326,0.866-0.104,1.169c-0.56,0.395-2.094,0.367-2.245-0.039C150.646,103.027,151.838,102.324,152.695,102.344
		L152.695,102.344z M92.317,103.211l5.429,2.95l-0.019,2.078l-5.225-2.892L92.317,103.211z M110.002,103.276l-0.319,2.71
		l-5.59,2.985l-0.047-2.351L110.002,103.276z M82.944,103.327l2.227,0.569c-8.24,3.701-16.385,9.071-19.553,18.438
		c-0.989,2.804-1.656,5.924-2.091,9.918c-0.204,4.214-0.744,8.359-0.941,11.873c-0.403,7.154-2.741,16.842-10.819,27.135
		l-0.773-0.611c4.956-6.148,7.532-11.725,9.123-17.615c2.521-9.371,1.271-19.715,3.96-29.15c1.64-5.74,5.045-10.872,10.146-15.312
		C77.77,105.796,82.945,103.327,82.944,103.327L82.944,103.327z M86.685,104.113c0.024-0.002,0.035-0.001,0.038,0.008
		c2.001,6.782,4.472,19.144,4.472,19.144c-5.292-2.577-14.102-2.106-14.102-2.106s-4.956-6.438-5.917-6.968
		C75.14,108.807,85.929,104.15,86.685,104.113L86.685,104.113z M154.824,105.182c1.219-0.039,1.131,1.825-0.411,3.093
		c-0.788,0.647-1.153,0.557-1.733,0.039c-0.172-0.231-0.668-0.396-1.031-0.353c-0.863-0.003,0.844-1.804,2.365-2.547
		C154.328,105.26,154.599,105.188,154.824,105.182L154.824,105.182z M92.955,106.699l4.84,2.501l0.047,2.059l-4.479-2.446
		L92.955,106.699z M109.364,106.978l-0.262,2.265l-5.04,2.641l0.027-2.087L109.364,106.978z M156.528,107.821
		c0.168-0.016,0.297,0.05,0.419,0.187c0.687,0.771-0.618,3.104-2.099,3.805c-0.568,0.27-0.919,0.226-1.393-0.186
		c-0.229-0.199-0.569-0.462-0.765-0.441c-0.848,0.088-0.38-0.869,0.304-0.925c0.188-0.016,1.375-0.909,2.271-1.661
		C155.867,108.096,156.248,107.848,156.528,107.821L156.528,107.821z M151.406,108.731c1.07-0.026,1.459,0.87,0.192,1.262
		c-0.901,0.279-1.405,0.081-1.403-0.53C150.385,108.836,150.932,108.763,151.406,108.731z M93.62,109.943l4.294,2.168l0.02,2.222
		l-3.944-2.071L93.62,109.943z M108.987,110.249l-0.3,2.102l-4.625,2.393l0.013-1.738L108.987,110.249z M157.462,111.132
		c0.292,0.018,0.379,0.346,0.376,0.929c0,0.965-0.638,1.856-1.591,2.292c-0.698,0.319-1.19,0.294-1.538-0.081
		c-0.158-0.171-0.379-0.31-0.492-0.313c-1.494-0.061-1.253-0.448,0.178-1.05c0.503-0.212,1.492-0.901,1.96-1.238
		C156.882,111.29,157.235,111.117,157.462,111.132L157.462,111.132z M151.98,111.816c0.733,0.004,1.378,0.523,0.973,0.859
		c-0.315,0.262-1.497,0.388-1.729,0.151C150.78,112.378,151.174,111.813,151.98,111.816z M94.331,113.312l3.66,1.985l-0.019,2.114
		l-3.495-1.99L94.331,113.312z M108.371,113.474l-0.084,2.164l-4.202,2.087l-0.027-2.063L108.371,113.474z M153.582,114.371
		c0.711,0.052,0.621,0.745,0.047,1.081c-0.429,0.3-0.984,0.142-1.211-0.209C151.906,114.266,153.069,114.383,153.582,114.371z
		 M155.008,116.592c0.119,0.239,0.053,0.667-0.18,0.803c-0.312,0.132-1.121-0.006-1.246-0.243c-0.102-0.195-0.078-0.297,0.119-0.495
		C154.033,116.391,154.776,116.194,155.008,116.592z M94.862,116.633l3.126,1.719l-0.019,2.075l-2.872-1.681L94.862,116.633z
		 M107.861,116.687l-0.154,1.998l-3.637,1.815l0.05-1.947L107.861,116.687z M69.784,117.945c0.78,0.009,1.382,0.532,0.923,1.425
		c-0.286,0.557-0.502,0.763-1.749,1.648c-0.509,0.362-0.95,0.692-0.984,0.736c-0.034,0.043-0.358,0.269-0.573,0.418
		c-1.117,0.778-0.729-0.848,0.666-3.244C68.466,118.241,69.178,117.938,69.784,117.945z M107.583,119.726l-0.288,2.199l-3.252,1.673
		v-2.118L107.583,119.726z M95.354,119.931l2.63,1.312l0.039,2.141l-2.388-1.262L95.354,119.931z M126.945,120.098
		c0.085-0.003,0.158,0.025,0.212,0.101c0.215,0.304,0.25,1.615,0.038,2.357c-0.368,0.873-1.084-1.33-1.004-1.889
		C126.344,120.413,126.692,120.108,126.945,120.098L126.945,120.098z M71.664,120.496c1.064-0.02,1.833,0.712,1.473,1.797
		c-0.414,1.047-2.815,1.705-3.898,2.427c-0.708,0.354-0.879-0.03-0.66-0.646c0.101-0.285,0.178-0.508-0.362-0.588
		c-1.312-0.195-0.512-0.837,1.892-2.459C70.635,120.671,71.182,120.505,71.664,120.496L71.664,120.496z M124.404,121.182
		c0.377-0.004,0.842,0.218,1.322,0.743c0.826,0.903,1.423,2.804,0.973,3.299c-0.345-0.039-0.517,0.474-0.534,0.681
		c-0.052,0.599-1.138-0.494-2.164-2.218C123.172,122.298,123.573,121.19,124.404,121.182L124.404,121.182z M80.112,121.503
		c3.241-0.022,9.432,0.652,17.999,6.051c1.093,0.689,2.186,1.449,3.422,2.063c3.251,1.765,5.933,2.961,10.123,3.747l-0.119,2.183
		c-0.038,0.689,1.09,4.68,0.572,6.922c-0.769-0.014,0.742,0.662,0.742,0.662l0.984,2.029c0,0-5.144-0.045-7.481-0.508
		c-3.767-0.617-10.641-3.832-13.963-6.359c-3.451-2.551-8.664-4.67-13.133-5.491l-0.062-1.877c0,0-0.444-6.429-0.8-7.31
		l-0.822-2.032C77.776,121.666,78.638,121.513,80.112,121.503L80.112,121.503z M107.156,122.912l-0.249,2.156l-2.853,1.347v-1.846
		L107.156,122.912z M121.374,123.009c0.798,0.002,2.007,0.942,3.387,2.822c0.311,0.423,0.551,0.791,0.596,1.045
		c0.042,0.234-0.102,0.369-0.331,0.341c-0.543-0.099-0.743-0.297-0.896,0.384c-0.037,0.168,0.06,0.473-0.127,0.418
		c-0.968-0.286-3.737-3.1-3.567-3.999C120.564,123.344,120.895,123.008,121.374,123.009L121.374,123.009z M95.969,123.152
		l2.08,1.114l0.093,2.126l-1.85-0.802L95.969,123.152z M73.617,123.799c0.639-0.021,1.035,0.232,1.238,0.731
		c0.489,1.202-0.377,1.927-2.949,2.47c-2.233,0.535-2.188,0.568-1.876-0.267c0.208-0.555-0.483-0.616-0.868-0.763
		c-0.652-0.249-0.119-0.325,1.757-1.267C72.097,124.113,72.979,123.819,73.617,123.799z M66.183,124.367
		c0.063-0.005,0.14,0.056,0.249,0.194c3.249,3.962,2.414,9.738-1.699,12.589c-0.467,0.311-0.482,0.021-0.43-0.596l0.08-1.178
		c0.021-0.234,4.725-3.141,1.246-9.609l0.292-0.913C66.014,124.564,66.076,124.377,66.183,124.367L66.183,124.367z M119.256,125.599
		c1.282,0.005,4.881,3.293,3.348,3.41c-0.18,0.015-0.118,0.25-0.119,0.399c0,0.149-0.008,0.435-0.049,0.542
		c-0.111,0.287-0.53,0.23-1.177-0.155c-1.638-0.977-2.009-1.287-2.575-1.827C117.569,126.906,117.885,125.594,119.256,125.599
		L119.256,125.599z M106.58,126.164l-0.023,1.772l-2.564,1.251l0.016-1.603L106.58,126.164z M74.083,127.437
		c1.726-0.06,2.696,1.672,0.973,2.582c-0.689,0.364-2.958,0.108-4.014,0.016c-1.191-0.105-0.487-0.462-0.423-0.569
		c0.163-0.271,0.29-0.312-0.331-0.685c-0.493-0.523-0.776-0.651,0.458-0.813c0.599-0.078,2.053-0.222,2.557-0.387
		C73.574,127.491,73.836,127.446,74.083,127.437z M126.617,127.859c0.127-0.006,0.113,0.207,0.062,0.759l-0.085,1.185
		c-0.786,0.126-4.691,5.014-1.519,10.7l-0.266,1.012c-0.121,0.498-0.161,0.572-0.572,0.262c-2.378-1.654-3.149-10.077,1.775-13.56
		C126.335,128.002,126.519,127.864,126.617,127.859z M117.345,128.847c0.459,0.008,1.021,0.139,1.665,0.434
		c1.5,0.688,2.497,1.243,2.729,1.61c0.144,0.227-0.082,0.416-0.385,0.503c-0.366,0.106-0.411,0.261-0.312,0.693
		c0,0.251,0.063,0.529-0.25,0.546c-0.578,0.031-1.871-0.379-3.18-1.088C115.406,130.349,115.705,128.817,117.345,128.847z
		 M106.127,128.874v2.156l-2.107-0.979L106.127,128.874z M70.812,130.729c0.223,0.006,0.519,0.046,0.907,0.108
		c0.475,0.075,1.212,0.149,1.592,0.143c2.4-0.042,3.395,1.642,1.414,2.497c-0.541,0.235-0.767,0.209-2.249-0.225
		c-0.71-0.207-1.579-0.425-1.934-0.526c-0.714-0.204-0.96-0.431-0.488-0.592c0.44-0.151,0.478-0.458,0.204-0.863
		C70.192,130.863,70.321,130.715,70.812,130.729L70.812,130.729z M126.607,130.729c-0.341,3.338-0.618,5.942-1.119,9.209
		C125.122,139.793,122.531,133.635,126.607,130.729z M116.503,132.327c0.781,0.014,2.1,0.317,3.383,0.824
		c1.122,0.416,1.263,0.527,0.488,0.859c-0.468,0.201-0.411,0.381-0.272,0.689c0.213,0.23,0.617,0.693-0.02,0.6
		c-0.754,0.059-2.736-0.055-3.341-0.162c-1.81-0.32-2.303-1.962-0.819-2.725C116.042,132.351,116.242,132.322,116.503,132.327z
		 M70.012,133.171c0.167,0,0.474,0.09,1.03,0.268c3.249,1.033,4.566,2.283,2.976,3.496c-0.462,0.352-1.178,0.201-2.529-0.559
		c-1.383-0.775-2.076-1.201-2.334-1.479c-0.256-0.273-0.116-0.588,0.276-0.561c0.54,0.035,0.459-0.236,0.415-0.693
		C69.816,133.323,69.797,133.172,70.012,133.171z M78.778,133.473l2.49,0.569l-6.22,27.395c-2.123,0.615-3.348,0.881-4.84,1.691
		l4.302-0.748l-0.373,1.959l-3.906,0.74l-0.088,0.584l4.475-0.812c0,0-0.159,1.869-0.315,2.594
		c4.271-0.346,8.488-1.543,12.783-1.576c0,0,0.104-21.619,0.089-23.975c-0.018-2.547,0-5.59,0-5.59l4.306,2.445l0.711,27.246
		l13.486,2.207c-0.094-0.459-0.461-2.564-0.461-2.564c9.999,2.969,20.137,7.357,29.11,16.426c-4.176,2.275-8.122,4.531-12.18,6.719
		l-0.588,0.852c10.287-4.838,25.874-14.898,37.166-26.02v72.252h-53.747c0,0,0-3.459,0-6.729l0.03-6.025
		c-0.22-3.861,0.448-8.117-0.727-11.357l-0.23-3.395c3.331-3.902,5.131-8.822,6.72-13.848c0,0,1.604-0.625,2.384-0.902l0.27-0.988
		c-1.55,0.797-5.105,2.133-5.105,2.133c0.382-0.301-7.562-3.668-12.469-4.459c-8.096-1.305-18.986,0.039-27.668,4.375
		c-0.426,0.303-0.606,0.295-0.5-0.098c2.016-7.383-2.23-14.793-9.685-16.939c-1.581-0.457-2.875-0.453-2.875-0.453l0.134,0.646
		c12.181,1.381,15.038,14.342,10.349,20.363c-1.229,1.986-1.416,2.564,1.164,2.5c10.429-0.086,14.054,11.648,9.302,18.141
		c0.012-0.051,0.385,0.756,0.385,0.756c2.964-3.939,3.753-11.426-1.5-16.686c3.884-4.359,11.338-11.338,17.785-10.93
		c2.346,0.148,4.662,3.01,6.205,5.293c3.266,4.834,4.104,11.584,4.336,15.436c0.057,1.008,0.19,1.74,0.192,2.271
		c0.008,1.541-0.287,1.357-1.276,1.1c-1.241-0.322-2.943-0.336-4.202,0.051c-2.021,0.619-1.695,0.266,0.104-1.979
		c1.061-1.324,1.203-1.732,0.765-1.82c-0.134-0.025-0.584,0.428-1.173,1.34c-1.774,2.75-1.637,1.621-0.354-2.668
		c0.834-2.787,0.749-2.982-1.522-4.715c-0.752-0.572-1.675-1.129-1.757-1.305c-0.429-0.914-0.607,0.234-0.224,0.988
		c0.375,0.736-0.419,1.072-1.814,0.312c-3.284-1.832-5.423,1.877-2.491,3.484c0.691,0.379,1.077,0.068,0.542-0.43
		c-1.804-1.68-0.549-3.094,1.892-1.605c1.41,0.859,1.946,0.584,2.418-0.492c0.262-0.439,2.451,1.141,2.449,1.754
		c0,0.402-0.256,1.689-0.504,2.551c-0.701,2.434-0.892,3.188-1.195,4.766c-0.551,2.859-0.536,4.326,0.054,5.582
		c1.321,2.816,4.648,4.146,7.535,3.012c0.419-0.164,1.222-0.301,1.222-0.301l0.035,2.066c-5.691,2.17-9.803,8.943-9.615,9.176
		l-2.029,0.004c-2.695-5.387-7.436-9.443-13.46-11.684c-1.178-1.031,0.294,2.75,1.646,3.584c2.861,1.465,6.648,4.062,8.738,8.096
		l-1.438,0.023c-1.754-2.691-4.024-4.51-6.179-6.094c-0.507-0.107,0.369,4.879,2.438,6.418l-37.1,0.65
		c2.532-9.975,3.019-21.043-2.914-35.551c4.919,0.305,9.281-0.758,13.279-2.516l-0.361-1.033c-4.555,2.189-9.553,2.621-14.556,2.105
		c3.795,7.074,7.116,21.766,3.883,36.025H32.252v-77.521c0,0,0.784,0.488,0.951,0.658c0.428,0.432,0.717,1.076,0.838,1.545
		c0.156,0.598,0.32,0.633,1.169,1.273c0.407,0.307,0.643,0.576,0.642,0.734c-0.023,0.178-0.028,0.723,0.246,1.059
		c0.748,0.91,0.615,1.494,0.054,2.082c-2.61,2.734-4.245,8.482-2.925,14.545c3.096-2.1,6.284-7.588,6.385-7.596l0.301,7.494
		c-0.275-0.061-2.165,1.066-2.188,2.539c-0.856,0.258-1.9-0.172-2.769-0.43l0.626,2.209c-3.178,1.275-3.35,5.652,0.334,6.902
		c0,0-0.336,1.711-0.625,2.631l2.391-0.367c1.389,4.178,6.722,2.84,6.696-0.074c0,0,1.623,0.613,2.238,0.887l-0.6-2.848
		c6.064-3.047,1.528-7.035,0.144-6.979c0.018-0.795,0.381-1.047,0.714-1.973l-2.449,0.154c-0.449-1.471-2.095-2.674-2.157-2.514
		l-0.338-10.727c1.852,1.627,3.674,3.293,6.128,4.588c2.266,1.193,2.496,0.928,2.161-1.135c-0.151-0.93-0.139-1.541-0.139-1.541
		c0.85,0.201,2.994,3.008,2.891,4.391c0.783,1.029,1.494-1.738-0.526-4.096c5.378-5.67,9.476-15.068,10.35-21.475l7.15-2.865
		l0.081-0.936c4.871-3.283,7.412-7.848,8.75-13.012H78.778z M84.729,135.149l1.646,0.74l-1.868,0.932L84.729,135.149z
		 M68.874,135.602c0.317,0.146,0.797,0.465,1.457,0.953c1.398,1.031,2.214,1.742,2.241,2.369c0.014,0.309-0.212,0.709-0.565,0.896
		c-0.845,0.451-1.652,0.082-3.479-1.799c-0.59-0.609-0.984-0.934-1.164-1.205c-0.21-0.314-0.056-0.611,0.292-0.482
		C69.138,137.008,67.855,135.135,68.874,135.602z M119.264,135.989c0.305,0.002,0.545,0.008,0.695,0.039
		c0.396,0.08,0.511,0.307,0.266,0.527c-0.38,0.34-0.271,0.686,0.111,0.871c0.264,0.125,0.156,0.393-0.161,0.576
		c-0.187,0.107-0.47,0.223-0.857,0.344c-2.245,0.707-3.899,0.496-4.333-0.557c-0.498-1.211,0.455-1.799,3.199-1.797
		C118.591,135.993,118.959,135.987,119.264,135.989L119.264,135.989z M86.574,136.709l-0.02,1.621l-2.33,1.127l0.254-1.645
		L86.574,136.709z M66.771,137.217c0.205,0.012,0.54,0.328,1.026,0.928c2.248,2.771,2.551,3.307,1.815,4.043
		c-0.872,0.871-2.097,0.027-3.414-2.4c-0.177-0.328-0.394-0.746-0.522-0.898c-0.484-0.57-0.271-0.748,0.342-0.701
		c0.336,0.025,0.495-0.094,0.504-0.441C66.531,137.379,66.613,137.208,66.771,137.217L66.771,137.217z M120.624,138.618
		c0.409,0,0.379,0.141,0.196,0.619c-0.141,0.424-0.37,0.562,0.223,0.828c0.099,0.049,0.317,0.32,0.119,0.438
		c-0.469,0.32-2.562,1.281-3.321,1.533c-1.473,0.492-2.38-0.715-1.515-1.916c0.362-0.502,2.854-1.414,4.095-1.494
		C120.498,138.622,120.567,138.618,120.624,138.618L120.624,138.618z M65.595,140.225c1.493,2.242,1.68,3.289,0.695,3.943
		c-0.622,0.479-1.949-0.207-2.253-1.656c-0.231-1.109-0.338-2.27,0.021-3.189C64.601,137.928,65.44,139.993,65.595,140.225
		L65.595,140.225z M86.563,139.295l0.012,1.754l-2.834,1.432l0.262-1.932L86.563,139.295z M92.336,139.366l2.665,1.738l0.153,1.494
		l-2.752-1.525L92.336,139.366z M122.059,141.092c0.07,0,0.107,0.031,0.107,0.115c0,0.207-0.053,0.939,0.346,1.006
		c0.783,0.131,0.605,0.377-0.081,0.973c-0.743,0.662-1.422,1.449-2.317,1.932c-2.311,0.859-3.036-1.598-0.85-2.877
		c0.754-0.441,1.438-0.744,1.948-0.891C121.596,141.243,121.905,141.088,122.059,141.092z M92.41,141.993l3.086,1.832l0.108,1.842
		l-3.067-1.57L92.41,141.993z M86.455,142.165l0.011,1.602l-3.015,1.738l0.25-1.793L86.455,142.165z M98.93,143.473
		c0.854,0.4,11.809,3.465,15.436,2.418c0,0,3.104,4.508,5.401,6.121c-3.556,5.254-15.597,10.406-15.597,10.406L98.93,143.473z
		 M123.588,143.584c0.2-0.008,0.248,0.193,0.246,0.568c-0.049,1.092-1.827,5.104-3.244,3.047c-0.39-0.766,0.008-1.559,1.25-2.504
		C122.825,143.946,123.332,143.594,123.588,143.584L123.588,143.584z M63.943,144.217c0.271,0.297,0.147,1.211-0.435,1.15
		c-0.168-0.018-0.191-0.945-0.081-1.447C63.595,143.836,63.849,144.12,63.943,144.217z M86.493,144.727l-0.02,2.035l-3.575,1.959
		l0.385-2.264L86.493,144.727z M92.406,145.012l3.54,1.902l0.415,2.248l-3.925-2.047L92.406,145.012z M86.486,147.782v2.051
		l-4.018,2.076l0.273-2.025L86.486,147.782z M92.475,147.959l3.96,2.268l0.52,2.137l-4.421-2.299L92.475,147.959z M36.346,148.026
		c0.648-0.01,0.883,0.686,0.393,1.129c-0.324,0.305-1.242,0.242-1.323,0C35.001,148.752,35.57,148.036,36.346,148.026z
		 M37.557,150.196c0.096-0.006,0.187,0,0.266,0.02c0.468,0.121,0.759,0.801,0.473,1.189c-0.528,0.717-1.922,0.219-1.719-0.686
		C36.63,150.479,37.142,150.225,37.557,150.196z M86.416,150.881v1.836l-4.371,2.322l0.277-2.051L86.416,150.881z M92.598,151.137
		l4.51,2.439l0.346,2.055l-4.848-2.539L92.598,151.137z M35.415,151.192c0.218-0.012,0.392,0.049,0.484,0.213
		c0.084,0.146,0.183,0.521,0.496,0.705c0.584,0.342,0.646,0.412-0.465,0.902c-0.468,0.205-1.386,0.834-1.707,1.053
		c-0.981,0.664-1.382,0.441-1.453-0.346C32.68,152.729,34.473,151.245,35.415,151.192L35.415,151.192z M38.799,152.694
		c0.227-0.014,0.448,0.029,0.607,0.135c0.375,0.25,0.395,0.752,0.034,1.004c-0.825,0.531-2.117-0.197-1.431-0.832
		C38.203,152.821,38.506,152.711,38.799,152.694L38.799,152.694z M86.408,153.688l0.023,2.381l-4.875,2.59l0.323-2.414
		L86.408,153.688z M36.388,153.967c0.319-0.018,0.626,0.057,0.893,0.256c0.288,0.371,0.636,0.48,0.838,0.488
		c0.836,0.031,0.569,0.34-0.308,0.742c-1.209,0.557-2.059,1.262-2.93,2.076c-0.905,0.846-0.971,1.027-1.269,0.68
		C32.506,156.92,34.662,154.065,36.388,153.967L36.388,153.967z M92.672,153.995l5.108,2.814l0.438,2.377l-5.547-3.109V153.995z
		 M39.744,155.67c0.207-0.004,0.401,0.045,0.554,0.17c0.363,0.299,0.153,0.875-0.35,1.135c-0.429,0.221-1.133,0.127-1.334-0.076
		C38.131,156.409,39.006,155.688,39.744,155.67L39.744,155.67z M37.277,156.868c0.311-0.031,0.593,0.369,0.846,0.801
		c0.088,0.107,0.438,0.061,0.688,0.062c0.956,0.008,1.09,0.414,0.162,0.932c-0.271,0.152-1.162,0.838-1.757,1.348
		c-1.604,1.543-2.474,1.182-2.269-0.398C35.143,158.102,36.446,156.948,37.277,156.868L37.277,156.868z M92.672,157.014l5.635,3.113
		l0.551,2.559l-6.186-3.357V157.014z M86.451,157.061l-0.023,2.357l-5.305,2.826l0.41-2.393L86.451,157.061z M92.756,160.061
		l6.312,3.848l0.23,2.506l-6.543-3.795V160.061z M86.447,160.479l0.011,2.311l-5.866,2.998l0.296-2.184L86.447,160.479z
		 M38.822,162.008c0.15-0.004,0.291,0.02,0.408,0.074c0.687,0.318,0.507,0.869-0.527,1.436c-1.054,0.578-1.415,0.479-1.642-0.17
		C36.87,162.801,38.012,162.028,38.822,162.008z M104.736,162.323c10.976,2.529,21.723,8,32.155,17.551l-2.18,1.553
		c0,0-9.144-10.5-29.461-16.654L104.736,162.323z M92.822,163.42l3.045,1.809l0.008,0.461l-3.053-0.252V163.42z M40.947,163.44
		c0.231,0.014,0.434,0.148,1.522,0.67c4.37,3.178,6.12,5.092,7.205,8.576c0.65,2.086,0.638,2-1.499,0.867
		c-2.011-1.076-4.766-2.859-6.544-5.166c-0.295,5.428,0.335,12.172,0.335,12.172c2.729,1.355,1.846,4.881,1.838,4.859
		c7.024-1.93,5.485,7.404,0.251,5.391c1.248,7.004-6.715,6.434-5.899,0.432c-6.338-0.246-5.217-7.203,0.044-6.242
		c-0.547-2.145,0.208-3.6,2.147-4.52l-0.296-9.168c0,0-5.165,7.465-6.028,7.348c-0.507-0.068-1.27-0.926,0.016-7.471
		c0.669-3.408,4.257-7.559,6.267-7.693C40.66,163.471,40.809,163.434,40.947,163.44L40.947,163.44z M45.999,163.51l0.927,0.639
		l-0.873,1.568l-0.965-0.705L45.999,163.51z M86.416,163.959l-0.03,1.375l-2.845,0.17L86.416,163.959z M56.668,180.413
		c6.694,1.043,10.79,9.289,7.692,15.26c-0.374,0.27,0.204,1.568,0.581,1.08c3.266-4.66,0.834-16.115-8.692-17.207
		C54.314,179.307,56.07,179.893,56.668,180.413L56.668,180.413z M57.752,182.608c-0.538,1.484-0.68,1.84,0.699,1.234
		c2.438,0.908,5.067,4.902,4.226,8.916c-0.271,0.467,0.202-0.307,0.522,1.014C64.403,190.834,63.199,184.5,57.752,182.608z
		 M88.697,190.083c6.853-0.02,13.635,1.488,19.03,4.611c-1.834,1.025-7.686,2.457-7.686,2.457c-3.288-3.715-4.965-7.43-10.91-5.531
		c-6.228,1.619-11.836,7.047-14.991,10.646c-3.165-1.896-4.878-2.359-7.684-2.518c-0.162-0.004-0.403,0.715-0.204-0.443
		c0.803-1.246,1.356-2.656,1.892-4.082C74.026,191.856,81.402,190.104,88.697,190.083z M109.998,194.852
		c-1.364,4.447-3.127,8.826-6.116,12.682l-0.369-1.928c2.812-4.346,4.144-8.297,4.744-10.029L109.998,194.852z M107.346,196.006
		c0.176,0.281-2.725,7.242-4.156,8.508l-0.561-1.795c1.167-1.775,2.895-6.057,2.845-6.098L107.346,196.006z M89.654,196.014
		c-0.09,0.008-0.122,0.088-0.123,0.264c0,0.639,0.659,1.141,1.864,1.416c1.629,0.371,3.911-0.195,3.914-0.971
		c0-0.449-0.316-0.482-1.249-0.047c-1.17,0.545-2.202,0.438-3.729-0.375C89.981,196.114,89.77,196.002,89.654,196.014
		L89.654,196.014z M104.158,197.125c-0.452,1.686-1.125,2.928-1.983,4.215l-0.276-0.887c0.594-0.965,0.985-2.07,1.487-3.143
		L104.158,197.125z M102.455,197.67c-0.219,0.588-0.461,1.266-0.965,1.789l-0.653-1.395L102.455,197.67z M92.146,198.963
		c-1.103,0.021-2.196,0.379-2.29,0.969c-0.046,0.283,0.377,0.174,2.43-0.078c1.084-0.133,1.6,0.514,2.593,0.445
		c0.506-0.061,0.033-0.531-0.124-0.666C94.202,199.161,93.119,198.944,92.146,198.963z M87.436,200.249
		c-0.111,0.023,0.014,0.307,0.426,1.031c0.225,0.391,0.28,1.189,0.324,1.684c-0.055,1.23-0.051,1.191,0.553,0.48
		c0.38-0.381,1.118-0.297,2.287,0.021c0.754,0.207,0.936,0.279,1.459-0.051c0.606-0.383,0.749-0.189,1.271-0.084
		c0.504,0.102,0.961-0.102,1.515-0.256c0.675-0.188,0.804-0.145,1.392,0c0.897,0.428,0.767,0.391,0.842-1.143
		c0.075-1.508-0.008-1.615-0.873-1.105c-0.84,0.492-1.418,0.715-2.706,0.262c-1.404-0.492-1.603-0.367-2.599-0.064
		c-1.204,0.365-1.752,0.488-2.711-0.102C87.985,200.534,87.561,200.223,87.436,200.249L87.436,200.249z M67.817,202.526l0.539,0.883
		c4.854,1.748,8.142,5.742,6.201,12.477l0.461,0.744C77.447,209.844,74.674,204.235,67.817,202.526L67.817,202.526z M69.321,205.399
		l0.661,1.365c3.652,1.777,3.434,6.67,3.229,6.477l0.572,1.273C74.697,211.348,73.032,206.674,69.321,205.399L69.321,205.399z
		 M84.574,212.696c-0.143,0.002-0.237,0.051-0.276,0.15c-0.094,0.244,0.188,0.391,1.856,1.553c1.434,0.998,2.542,1.738,2.457,1.881
		c-0.057,0.096-0.947-0.123-1.584-0.312c-1.667-0.5-4.126,0.102-5.505,1.08c-0.351,0.236-0.933-0.023-1.438-0.156
		c-0.202-0.057-0.648-0.111-0.869-0.053c-1.042,0.273-0.033,1.277,2.519,2.578c3.132,1.596,4.826,1.742,6.728,0.773
		c1.264-0.658,1.717-0.17,0.335,0.58c-2.412,1.312-4.723,0.906-8.534-1.734c-1.766-1.223-2.472-1.018-0.954,0.148
		c2.663,2.096,7.79,4.654,10.938,1.529c0.122-0.045,0.408-0.023,0.545-0.023c0.654,0.002,0.683-0.205,0-1.293
		c-0.41-0.656-1.242-1.346-0.23-2.148c0.768-0.609,0.713-0.898-0.215-1.178c-0.245-0.068-0.221,0.094-0.588-0.205
		C87.53,214.057,85.351,212.692,84.574,212.696L84.574,212.696z M85.54,216.268c0.935,0.027,1.878,0.752,2.172,2.057
		c0.026,0.115,0.05,0.234,0.065,0.359l-0.797,0.029c-0.66-2.656-2.65-1.775-2.849-0.219l-0.718-0.098
		C83.678,216.916,84.605,216.243,85.54,216.268L85.54,216.268z M102.044,218.538l-0.53,0.078c-0.348-0.979-1.919-2.293-2.668,0.092
		l-0.669-0.027C98.643,215.45,101.556,215.952,102.044,218.538z M97.977,217.194c0.217,0.311-0.164,0.834-0.386,1.072
		c-0.212,0.229-0.682,0.035-0.879-0.189c-0.173-0.223-0.045-0.666,0.242-0.812C97.252,217.11,97.758,216.973,97.977,217.194
		L97.977,217.194z M88.651,217.291c0.223,0.5-0.4,0.875-0.479,0.705c-0.134-0.047-0.299-0.873-0.223-0.928
		C88.156,217.061,88.566,217.129,88.651,217.291L88.651,217.291z M102.671,217.209c0.336,0.027,0.702,0.188,0.769,0.568
		c0,0.254-0.286,0.527-0.619,0.543c-0.146,0.006-0.705-0.408-0.601-0.998C102.339,217.114,102.476,217.194,102.671,217.209z
		 M83.18,217.368c0.117,0.182-0.104,0.725-0.154,0.797c-0.026,0.039-0.742,0.008-0.727-0.045c0.016-0.055-0.066-0.463,0.107-0.76
		C82.606,217.233,83.036,217.166,83.18,217.368L83.18,217.368z M96.182,219.118c0.092,0.002,0.21,0.041,0.35,0.127
		c2.002,1.312,4.577,1.898,6.432,0.961c0.414-0.209,0.686-0.197,0.685,0.004c0,0.221-0.46,0.674-1.315,0.934
		c-1.91,0.576-5.064-0.186-6.154-1.363c-0.321-0.346-0.274-0.668,0-0.662H96.182z M78.623,220.493
		c-0.19-0.006-0.252,0.107-0.215,0.34c0.127,0.783,5.481,3.877,7.72,4.293c1.838,0.344,3.267,0.189,4.391-0.469
		c2.729-1.596,2.03-3.756-0.642-2.129c-1.796,1.094-6.345,0.59-9.051-0.982C79.623,220.846,78.942,220.5,78.623,220.493z
		 M102.747,221.624c0.677-0.285,0.967-0.385,1.115-0.26c0.688,0.58-0.439,1.482-2.496,1.836c-1.645,0.271-2.634,0.326-4.511-1.074
		c-1.454-1.082-0.77-1.607,0.065-1.115C99.142,222.317,100.791,222.36,102.747,221.624L102.747,221.624z M79.101,225.006
		c4.736,1.707,10.125,5.828,12.518,10.832l-1.461-0.012c-1.626-2.857-4.845-6.486-10.149-9.035
		C79.537,226.401,79.293,225.708,79.101,225.006L79.101,225.006z M103.979,227.348v1.564c-2.928,1.484-5.382,3.771-7.232,6.926
		l-1.656-0.023C96.989,232.43,99.832,229.262,103.979,227.348z M103.979,229.733v1.92c-1.852,1.094-3.396,2.533-4.479,4.186h-1.96
		C99.11,233.163,101.266,231.032,103.979,229.733L103.979,229.733z M82.291,231.208c1.41,0.816,3.746,2.994,4.595,4.67l-0.754,0.033
		c-0.768-0.982-1.995-2.115-2.995-3.008C82.498,232.147,82.291,231.208,82.291,231.208z M103.979,232.44
		c0.022,0,0.023,0.014,0,0.045v1.525c0,0.041-1.406,0.965-2.004,1.828h-1.592C101.477,233.846,103.75,232.434,103.979,232.44z
		 M103.979,234.975v0.863l-1,0.004c0.066-0.098,0.623-0.713,1.004-0.867H103.979z M84.471,235.192c0.3,0.158,0.53,0.725,0.53,0.725
		l-0.269,0.029L84.471,235.192z"/>

		<path id="path3052-2-5-5" fill="#E2CF00" d="
		M43.982,201.411c3.294,0.09,10.247-1.148,10.136-1.023c0,0,21.572,36.092,20.694,35.734c-0.28,0.447-27.634,0.432-27.634,0.432
		C46.585,236.559,52.981,223.18,43.982,201.411z M53.763,175.985c10.512-8.771,21.522-8.836,33.346-10.043l0.271-29.805l4.279,2.578
		l0.091,27.311c15.607,1.178,29.072,6.932,40.641,17.008c0.145,0.219-16.736,9.307-24.13,11.711
		c-5.74-4.242-20.884-6.916-30.926-3.654c-2.759,0.896-6.146,2.33-9.44,3.389c2.387-14.389-8.771-16.512-12.696-17.176
		C54.706,177.219,54.119,176.155,53.763,175.985z M40.271,180.635c0.185-3.064-0.015-6.133-0.242-9.268
		c-0.06-0.717-6.146,9.326-6.487,6.891c-0.852-6.098,2.156-13.852,6.88-14.803c0.472-0.641,9.831,5.191,9.403,10.232
		c-0.14,1.643-8.35-5.545-8.383-5.117c-0.193,0.842,0.241,12.09,0.496,12.068c2.363,1.338,1.849,3.059,2.107,4.484
		c6.335-0.939,5.988,6.135,0.01,5.914c0.369,8.359-7.341,4.582-5.822,0.131c-7.764-0.369-3.94-7.672-0.074-6.066
		C37.925,183.258,38.378,181.336,40.271,180.635L40.271,180.635z M49.178,145.17c-0.446-0.178-16.563-1.01-16.563-1.01l0.844-39.515
		c8.228-19.021,39.192-10.126,34.267-6.078C52.928,108.327,50.675,126.125,49.178,145.17z M78.903,128.937l-0.492-4.388
		c-1.264-2.726,32.949,13.183,33.336,13.523l0.995,4.682C112.94,144.811,90.98,134.42,78.903,128.937z M141.184,121.152
		c-2.553,19.692-2.409,39.504-16.897,46.358c10.898,10.625,20.008,2.438,33.729-4.449c0.373,0-0.456-42.167-0.687-42.138
		C151.893,121.212,146.526,121.335,141.184,121.152z M148.732,101.932c-2.694-0.414-8.967-6.961-7.666-8.94
		c0.04-1.487,7.802,4.201,8.609,5.734c-0.397-0.456-0.453-13.895-0.579-13.36c-0.295,0.158-2.371-1.339-1.83-4.14
		c-5.951,1.324-5.625-6.46-0.424-6.142c-0.672-7.082,7.922-4.481,5.635,0.262c7.354-1.363,6.084,6.947,0.527,5.595
		c0.472,3.152-0.819,4.023-2.626,4.652c0.116,1.321,0.608,10.135,0.608,10.135s5.438-8.388,5.827-7.665
		C158.197,90.086,155.961,103.982,148.732,101.932L148.732,101.932z M123.535,71.001c-2.454,8.513,4.269,18.239,10.62,18.213
		c1.276-0.203,3.724,0.491,2.88,1.18c-10.02,8.172-33.401,9.869-33.407,9.515c0.245,10.031-0.201,20.163-0.44,30.192l-4.284-2.598
		c-0.138-9.148-0.361-18.506-0.569-27.652c-14.981-1.968-28.445-6.832-39.085-17.179c7.064-5.271,15.505-8.563,23.612-11.89
		C93.069,76.119,107.281,79.203,123.535,71.001L123.535,71.001z M116.142,30.552c-0.47-0.208,1.615-1.767,1.615-1.767
		s17.405,0.23,26.04,0.113c-3.146,12.998-0.921,24.644,3.141,35.827c-1.076-0.254-8.226,0.33-9.972,1.116
		C136.686,66.125,116.363,30.87,116.142,30.552z"/>

		<path id="path3050-3-4-7" fill="#D40000" d="
		M75.378,236.071l-21.044-35.77l3.157-1.381l21.695,37.201L75.378,236.071z M37.932,188.247l3.041-3.148l3.048,3.109l-3.188,2.98
		L37.932,188.247z M105.449,168.188l-0.428-2.557c12.125,2.988,22.049,9.262,29.186,16.096l-1.699,1.252
		C133.038,182.833,115.283,169.428,105.449,168.188z M70.622,165.856l3.457-0.748l-0.109,2.148l-3.354,0.674L70.622,165.856z
		 M141.206,163.969l-2.095-1.699l1.507-1.799l2.035,1.613L141.206,163.969z M69.993,146.637c5.205-2.48,9.269-12.486,8.759-13.154
		l2.836,0.677l-6.552,27.416l-4.534,1C70.48,157.331,69.992,151.881,69.993,146.637z M104.247,162.151
		c-1.765-5.771-5.239-18.826-5.239-18.826c0.127,0.426,11.29,3.621,15.271,2.457c1.7,2.344,3.569,4.402,5.541,6.289
		C115.688,156.141,110.555,159.54,104.247,162.151z M151.037,141.139l-1.967-1.715l1.765-2.174l2.159,1.656L151.037,141.139z
		 M125.348,139.993c-1.603-2.898-1.714-6.174,1.259-9.406L125.348,139.993z M64.231,134.944c-0.059-2.947,0.326-5.755,1.021-8.465
		C66.973,129.609,66.949,132.755,64.231,134.944z M109.188,132.243c0,0,4.322-20.167,6.195-28.07l4.775-1.113l-0.213,16.332
		c-4.754,3.902-8.091,13.198-7.939,13.198L109.188,132.243z M39.712,128.89l-2.087-1.963l1.766-1.945l1.841,1.896L39.712,128.89z
		 M77.1,121.027c-1.506-2.21-3.569-4.477-5.733-6.753c3.552-4.974,9.448-7.854,15.696-10.113l4.23,18.95
		C86.511,121.661,81.356,120.09,77.1,121.027z M47.796,104.137l1.471-1.841l1.926,1.526l-1.464,2.036L47.796,104.137z
		 M116.937,98.595l2.979-0.669l0.108,2.323l-3.569,0.663L116.937,98.595z M56.725,84.115l2.271-1.423
		c7.976,7.208,16.783,12.181,26.39,15.009l0.321,2.687C74.876,97.025,64.966,92.357,56.725,84.115L56.725,84.115z M149.914,81.239
		l-2.955-2.933l2.66-2.977l3.158,2.747C151.735,79.661,149.914,81.239,149.914,81.239z M133.549,66.97l-22.108-37.971l3.194-0.027
		l21.755,36.576L133.549,66.97z"/>

		<path id="path3048-5-8-9" d="
		M111.239,28.359l-5.282,0.019l29.983,60.718c0,0-0.812,0.138-2.402-0.282c-7.202-1.902-11.64-9.562-10.012-17.076
		c0.166-0.584,0.208-1.084,0.208-1.084c-18.563,8.459-30.057,5.344-40.774-0.043l-4.571,1.766c0.303-2.78,3.719-13.219,8.827-18.134
		l-0.009-5.265l-0.123-2.485l-0.403-4.51c-7.6,7.204-16.467,18.546-17.577,34.651c0,0-6.919,3.579-12.824,7.538
		c0.327-0.045,9.199,10.925,30.514,17.084l-0.938-3.5c3.169,0.896,7.675,1.604,12.156,2.176l0.6,27.49l5.09,3.035l0.173-30.437
		c0.156,0.126,8.119-0.282,12.406-1.312l-0.604,2.935l4.237-0.84v2.141l-4.645,1.104l-6.612,28.45l3.853,0.863
		c1.127-5.73,3.975-10.366,8.101-13.209l-0.043-1.092c2.646-1.911,8.146-3.431,8.182-3.396c1.875-9.227,6.242-15.62,10.883-21.702
		l-2.21-3.023l8.478-3.132L134.13,67.648c4.527-3.146,13.506-1.974,13.506-1.974c-3.849-10.461-7.23-21.25-3.43-37.084
		l-32.731,0.027L111.239,28.359z M121.978,29.015c-0.008,2.646-3.439,2.373-3.858-0.013L121.978,29.015z M143.007,28.932
		c-2.083,12.124-1.393,23.934,3.437,35.155c0,0-0.703,0.041-0.792,0.023c-0.066-0.014,0.082-0.605,0.046-0.763
		c-0.096-0.422-0.79-0.224-1.372,0.171c-0.253,0.171-0.546,0.367-0.73,0.46c-0.598,0.301-3.632,0.278-3.632,0.278
		c0.99-0.675,2.383-2.574,1.574-3.682c-0.183-0.236-0.294-0.132-0.472,0.187c-0.861,1.542-1.29,1.783-2.441,1.77
		c-1.807-0.022-3.099-1.149-2.952-2.85c0.141-1.651,2.555-2.523,2.199-0.921c-0.098,1.427,1.308,1.704,1.568,0.282
		c0.097-0.532,0.02-0.285,0.135-0.91c2.812-1.502,1.26-4.562-1.365-3.921c-0.617,0.164-0.695,0.222-1.131-0.004
		c-0.809-0.42-1.481-0.288-1.787,0.302c-0.27,0.52,0.141,0.935,0.742,0.937c0.623,0.002,0.743,0.305,0.742,0.682
		c0,0.875-1.505,1.297-2.5,0.786c-2.625-1.35-1.652-4.855,1.396-4.844c0.926,0.004,1.313,0.062,1.353-0.139
		c0.111-0.566-1.304-1.546-2.103-1.401c-0.678,0.133-1.089,0.311-0.73-0.597c0.22-0.936,0.213-1.359,0.027-2.063
		c-0.488-1.005-0.477-0.489-0.777,0.325c-1.004,1.677-2.518,2.048-3.821,1.131c-1.209-0.852-1.173-2.468-0.023-3.62
		c0.8-0.801,1.656-0.256,1.177,0.639c-0.199,0.371-0.042,0.83,0.315,0.922c0.722,0.186,1.169-0.242,1.173-1.123
		c-0.016-0.484-0.148-0.593,0.719-1.092c2.245-1.291,0.565-4.819-1.969-3.686c-0.557,0.249-0.687,0.492-0.938,0.376
		c-1.06-1.008-2.579,0.267-1.681,0.94c0.389,0.19,0.863,0.264,0.988,0.275c0.219,0.125,0.146,0.438-0.173,0.832
		c-1.05,1.246-3.433,0.631-3.994-1.127c-0.652-2.035,1.414-4.175,2.998-2.988c0.469,0.351,0.875,0.388,0.877-0.132
		c0-0.809-1.009-1.736-2.299-1.646c-1.311,0.093-1.168,0.264-0.454-0.929c0.526-1.062,0.455-2.098,0-2.722
		c-0.354-0.48-0.718-0.582-0.681-0.073c0.287,1.577-1.544,3.077-3.049,2.415c-1.446-0.65-2.163-2.281-1.453-3.696
		c0.655-1.306,2.245-1.441,1.98-0.047c-0.125,0.89,0.547,1.357,1.195,0.832c0.236-0.19,0.291-0.359,0.308-0.933
		c0.019-0.639-0.239-0.826,0.169-1.2c1.073-0.144,1.14-2.437,0.977-2.532l17.228-0.081H143.007z M123.803,29.01
		c0.681,0,1.246,0.232,1.246,0.917c0,0.686-0.55,1.239-1.23,1.239c-0.68,0-1.233-0.554-1.233-1.239
		C122.585,29.242,123.123,29.01,123.803,29.01z M111.731,29.099h2.738l21.627,36.293l-2.561,1.254L111.731,29.099z M116.229,30.367
		c1.311,0.754,2.52,1.373,4.163,1.535c-0.481,0.983-0.92,2.058-0.999,3.895L116.229,30.367z M120.633,37.676
		c1.334,0.481,2.492,1.21,4.691,0.474c-1.172,1.044-1.836,2.294-2.333,3.61L120.633,37.676z M131.885,42.06
		c0.63,0,1.142,0.515,1.142,1.149s-0.512,1.146-1.142,1.146c-0.631,0-1.143-0.512-1.143-1.146S131.254,42.06,131.885,42.06z
		 M124.879,44.925c0.964,0.357,1.975,0.595,3.096,0.543c-0.555,0.769-0.743,1.938-0.779,3.273L124.879,44.925z M128.19,50.645
		c0.893,0.438,1.949,1.077,3.823,0.872c-1.241,2.121-0.976,2.706-1.103,3.634L128.19,50.645z M139.028,54.858
		c0.66,0,1.195,0.539,1.195,1.204c0,0.664-0.535,1.203-1.195,1.203s-1.195-0.539-1.195-1.203
		C137.832,55.397,138.367,54.858,139.028,54.858z M132.311,57.562c0.817,0.466,2.432,0.73,2.449,0.604
		c-0.104-0.078-0.465,1.567-0.527,2.603L132.311,57.562z M136.074,63.744c1.162,0.689,2.447,0.624,3.203,0.705
		c-0.809,0.163-1.569,0.367-2.438,0.71L136.074,63.744z M149.779,70.53c-2.8,0.183-3.448,2.344-3.117,4.534
		c-2.134-0.344-4.523,1.693-3.855,4.185c0.634,2.363,2.815,2.446,4.321,2.288c-0.115,0.574-0.434,2.504,1.883,4.137l0.309,12.267
		c0,0-1.021-0.944-1.688-1.613c-2.909-2.918-7.286-5.032-7.012-3.387c0.04,0.241,0.134,0.855,0.204,1.362
		c0.463,2.777,4.167,5.778,6.692,7.29c0.902,0.507,1.461,1.049,1.461,1.049c-4.724,5.086-7.264,10.513-7.896,15.899
		c-0.588,5.004-1.063,9.512-1.53,14.106c-1.928,23.05-11.751,28.847-12.218,29.976l-0.185,3.074l-2.741-0.205l-3.16,2.752
		c10.352,5.385,16.389,11.885,16.305,12.008c8.265-5.449,15.398-11.502,22.132-17.768l-0.13-51.323c0,0-0.559,0.206-0.704,0.205
		c-0.511-0.001-0.576,0.23-0.753,1.212c-0.095,0.525-0.406,1.01-0.649,1.355c-0.463,0.655-0.299,0.323,0.284,0.561
		c1.326,0.541-0.396,2.988-2.28,3.287c-1.356,0.215-2.114,0.467-2.345,0.782c-2.856,2.516-5.702,2.914-7.854,1.989
		c-1.059-0.455-2.209-1.12-2.599-2.229c-0.884-2.52,0.958-6.149,2.038-8.246c1.98-3.845,5.271-6.732,5.271-6.732l-0.538-0.588
		c0,0,0.646,0.01,0.769-0.035c2.84-1.039,3.015-1.055,3.537-1.812c0.522-0.758,1.839-2.92,2.11-3.632
		c1.459-3.821,1.656-4.069,1.653-6.577c0-2.031-0.137-3.388-0.526-3.495c-2.237,1.727-4.496,5.76-5.816,8.137
		c-0.457-3.521-0.593-9.67-0.593-9.67c0.474-0.526,3.16-0.232,2.564-4.642c2.364,1.073,4.856-0.569,4.752-2.862
		c-0.162-3.57-2.894-3.465-5.118-3.015C153.817,72.999,151.802,70.399,149.779,70.53L149.779,70.53z M149.735,70.831
		c2.922,0.091,3.502,3.342,1.711,5.183c0,0-1.16-0.899-1.775-1.411c-0.584,0.463-0.753,0.862-1.396,1.339
		c-0.761-0.566-1.22-1.568-1.228-2.533C147.083,71.9,148.594,70.796,149.735,70.831L149.735,70.831z M82.987,70.932
		c11.822,6.653,26.647,7.129,40.217,0.349l-0.165,1.126l-1.488,0.845l0.843,1.552l0.465-0.225l0.012,1.026
		c-11.186,6.084-29.924,7.343-44.592-2.761l1.275-0.596c0,0,0.289,0.203,0.566,0.375c0.534,0.334,1.416,0.868,1.998,1.131
		l0.889-1.289c0,0-1.355-0.832-1.223-0.887L82.987,70.932L82.987,70.932z M84.029,72.972l-0.677,1.549l1.695,0.91l0.646-1.561
		L84.029,72.972z M77.596,73.146c18.207,11.507,35.153,8.081,45.331,3.375l0.131,1.228c-13.136,5.627-30.408,7.138-46.849-3.991
		L77.596,73.146z M120.451,73.886l-1.619,0.65l0.643,1.494l1.664-0.716L120.451,73.886z M75.42,74.164
		c14.795,9.606,30.663,11.486,47.764,4.448l0.654,1.839c-16.655,6.734-34.232,5.959-50.29-5.489L75.42,74.164z M86.789,74.219
		l-0.662,1.61l1.834,0.7l0.534-1.579L86.789,74.219z M117.903,74.885l-1.604,0.522l0.5,1.54l1.66-0.568L117.903,74.885z
		 M89.592,75.325l-0.396,1.619l1.872,0.53l0.327-1.626L89.592,75.325z M157.348,77.989c0.252,2.753-3.801,4.08-5.316,1.512
		l1.336-1.634l-1.195-1.122C153.794,74.162,157.112,75.405,157.348,77.989L157.348,77.989z M73.141,75.415l4.414,3.054l-3.207,5.018
		l-4.752-3.213L73.141,75.415z M149.635,75.554l2.803,2.447l-2.572,3.031l-2.63-2.672L149.635,75.554z M147.893,76.384l-1.576,1.845
		l1.705,1.826c-2.022,2.165-5.041,0.828-5.011-1.821C143.034,76.211,146.109,74.241,147.893,76.384z M115.219,75.674l-1.685,0.508
		l0.385,1.486l1.741-0.457L115.219,75.674z M92.506,76.143l-0.312,1.599l1.935,0.418l0.326-1.591L92.506,76.143z M112.439,76.413
		l-1.791,0.392l0.308,1.591l1.795-0.379L112.439,76.413z M149.822,76.789l-1.477,1.459l1.477,1.541l1.488-1.541L149.822,76.789z
		 M95.608,76.835l-0.227,1.611l2.026,0.274l0.157-1.63L95.608,76.835z M109.252,77.056l-1.822,0.209l0.185,1.58l1.892-0.24
		L109.252,77.056z M98.495,77.242l-0.023,1.652l1.776,0.144V77.4L98.495,77.242z M106.33,77.396l-1.784,0.066l0.012,1.599
		l1.822-0.116L106.33,77.396L106.33,77.396z M73.782,77.412c-1.05,0-1.899,0.855-1.899,1.913c0,1.057,0.85,1.912,1.899,1.912
		s1.899-0.855,1.899-1.912C75.682,78.268,74.832,77.412,73.782,77.412z M103.339,77.467l-1.753,0.016l0.008,1.618l1.807,0.008
		L103.339,77.467L103.339,77.467z M149.822,77.475l0.77,0.774l-0.77,0.763l-0.788-0.763L149.822,77.475z M73.78,78.086
		c0.688,0,1.245,0.562,1.245,1.255s-0.558,1.258-1.245,1.258c-0.689,0-1.25-0.564-1.25-1.258S73.09,78.086,73.78,78.086z
		 M67.024,78.179l2.526,2.071c-0.804,1.549-3.349,4.82-3.349,4.82l-4.667-3.767l2.44-1.391c-0.133,0.259-0.207,0.549-0.207,0.859
		c0,1.039,0.837,1.878,1.868,1.878s1.868-0.839,1.868-1.878c0-0.996-0.772-1.809-1.745-1.873L67.024,78.179z M65.614,79.511
		c0.691,0,1.253,0.565,1.253,1.262c0,0.697-0.562,1.259-1.253,1.259s-1.254-0.562-1.254-1.259
		C64.36,80.076,64.922,79.511,65.614,79.511z M151.461,80.106c0,0,0.688,0.263,0.856,0.523c1.354,2.094-0.057,4.583-2.327,4.534
		c-2.652-0.057-3.351-3.404-1.526-4.771l1.483,1.41L151.461,80.106z M82.502,80.959l5.229,2.021l-1.984,5.722L80.03,86.34
		L82.502,80.959z M61.012,81.555c21.33,19.353,51.634,20.744,73.66,7.897l1.342-0.027l0.711,0.736
		c-25.093,14.942-56.285,11.69-77.344-7.542L61.012,81.555z M119.747,82.709l1.685,5.655l-5.783,1.533l-1.291-5.729L119.747,82.709z
		 M58.824,82.914c6.474,6.281,15.627,11.786,26.377,14.908l0.265,2.318c-11.411-3.45-20.03-8.059-28.426-16.058L58.824,82.914z
		 M83.886,83.003c-1.031,0-1.868,0.843-1.868,1.881c0,1.039,0.837,1.878,1.868,1.878c1.032,0,1.868-0.839,1.868-1.878
		C85.754,83.846,84.918,83.003,83.886,83.003z M74.586,83.425l5.395,2.872l-2.688,5.416l-5.729-3.093L74.586,83.425z M83.864,83.622
		c0.691,0,1.253,0.565,1.253,1.262c0,0.697-0.562,1.259-1.253,1.259s-1.254-0.562-1.254-1.259
		C82.61,84.187,83.171,83.622,83.864,83.622z M92.793,84.393l5.183,0.759l-0.238,5.783l-6.047-0.731
		C91.922,88.168,92.793,84.393,92.793,84.393z M117.825,84.536c-1.031,0-1.868,0.843-1.868,1.881c0,1.039,0.837,1.878,1.868,1.878
		s1.868-0.839,1.868-1.878C119.694,85.379,118.857,84.536,117.825,84.536z M117.802,85.155c0.691,0,1.253,0.565,1.253,1.262
		s-0.562,1.259-1.253,1.259s-1.253-0.562-1.253-1.259S117.111,85.155,117.802,85.155z M75.666,85.236
		c-1.031,0-1.868,0.843-1.868,1.882c0,1.038,0.837,1.877,1.868,1.877s1.868-0.839,1.869-1.877
		C77.535,86.079,76.697,85.236,75.666,85.236z M108.798,85.244l0.742,5.812l-5.659,0.282l-0.335-5.795L108.798,85.244z
		 M149.358,85.764h0.803c0.074,5,0.468,10.789,1.043,15.07c0.086,0.638,0.125,0.826,0.061,0.94
		c-0.555,0.991-1.201-0.256-1.453-3.101c-0.069-0.784-0.157-1.925-0.254-2.675C149.267,93.731,149.358,85.764,149.358,85.764
		L149.358,85.764z M53.71,85.853c-8.509,5.345-22.663,18.114-22.578,18.411l0.058,49.065l1.107,0.055l0.914-1.805
		c-1.415-0.357-1.019-3.035,1.692-3.572c0.462-0.092,1.876-0.57,2.222-0.836c2.058-1.58,5.401-2.514,7.747-1.891
		c3.42,0.881,4.122,3.414,2.476,7.816c-1.298,3.471-3.868,7.91-6.281,9.176c-0.197,0.104-0.623,0.312-0.623,0.312
		s0.561,0.514,0.765,0.646c6.649-3.869,10.007-17.746,9.827-26.383c0.268-8.844,1.782-17.72,5.328-24.175
		c5.859-10.669,13.61-14.958,13.57-14.998C69.934,97.675,59.486,91.288,53.71,85.853z M75.643,85.856
		c0.692,0,1.254,0.565,1.254,1.262s-0.562,1.259-1.254,1.259c-0.691,0-1.253-0.562-1.253-1.259S74.951,85.856,75.643,85.856z
		 M127.332,86.058l2.019,5.4l-5.609,2.312l-2.022-5.676L127.332,86.058z M95.07,86.085c-1.031,0-1.868,0.843-1.868,1.881
		c0,1.039,0.837,1.878,1.868,1.878s1.868-0.839,1.868-1.878C96.938,86.928,96.101,86.085,95.07,86.085z M106.472,86.553
		c-1.031,0-1.868,0.844-1.868,1.882s0.837,1.878,1.868,1.878c1.032,0,1.868-0.84,1.868-1.878S107.503,86.553,106.472,86.553z
		 M95.046,86.704c0.692,0,1.254,0.565,1.254,1.262s-0.562,1.259-1.254,1.259c-0.691,0-1.253-0.562-1.253-1.259
		S94.355,86.704,95.046,86.704z M106.449,87.173c0.691,0,1.253,0.565,1.253,1.262s-0.562,1.258-1.253,1.258
		s-1.254-0.562-1.254-1.258S105.758,87.173,106.449,87.173z M125.526,87.815c-1.031,0-1.868,0.843-1.869,1.881
		c0,1.039,0.838,1.878,1.869,1.878s1.868-0.839,1.868-1.878C127.394,88.658,126.557,87.815,125.526,87.815z M125.502,88.435
		c0.691,0,1.254,0.565,1.254,1.262s-0.562,1.259-1.254,1.259s-1.254-0.562-1.253-1.259C124.249,89,124.811,88.435,125.502,88.435z
		 M85.885,88.531l5.605,1.444l-1.304,5.919l-6.324-1.691L85.885,88.531z M156.793,88.379c0.917,2.892-0.766,6.6-0.85,6.842
		c-1.02,2.909-2.246,5.286-2.691,5.424c-0.38,0.145-0.548,0.052-0.547-0.306c0-0.549,1.254-4.274,2.238-6.67
		c0.24-0.587,0.799-2.361,0.8-2.659c0-0.448-0.431,0.282-0.896,1.4c-0.901,2.237-2.218,4.633-2.503,6.802
		c-0.204,1.773-0.539,1.522-0.783-0.588c-0.341-2.93,0.296-4.437,3.567-8.518C155.91,89.131,156.714,88.128,156.793,88.379
		L156.793,88.379z M115.614,89.883l1.622,5.795l-6.616,1.138l-1.03-5.876L115.614,89.883z M87.91,90.467
		c-1.031,0-1.867,0.843-1.867,1.882c0,1.038,0.836,1.877,1.867,1.877s1.869-0.839,1.869-1.877
		C89.78,91.31,88.942,90.467,87.91,90.467z M97.803,90.843l5.993,0.344l0.054,6.024l-6.505-0.283L97.803,90.843z M87.888,91.086
		c0.691,0,1.253,0.566,1.253,1.263s-0.561,1.258-1.253,1.258c-0.691,0-1.253-0.562-1.253-1.258S87.197,91.086,87.888,91.086z
		 M113.042,91.62c-1.031,0-1.868,0.844-1.868,1.882s0.837,1.878,1.868,1.878s1.868-0.84,1.868-1.878S114.073,91.62,113.042,91.62z
		 M100.617,92.104c-1.032,0-1.869,0.843-1.869,1.882c0,1.038,0.837,1.877,1.869,1.877c1.031,0,1.867-0.839,1.868-1.877
		C102.486,92.947,101.649,92.104,100.617,92.104z M113.02,92.24c0.691,0,1.253,0.565,1.253,1.262s-0.562,1.258-1.253,1.258
		c-0.692,0-1.254-0.562-1.254-1.258S112.327,92.24,113.02,92.24z M100.594,92.724c0.691,0,1.253,0.566,1.253,1.263
		s-0.562,1.258-1.253,1.258s-1.254-0.562-1.254-1.258S99.903,92.724,100.594,92.724z M141.465,93.084
		c0.099-0.003,0.229,0.017,0.314,0.016c1.339-0.016,5.854,3.249,7.009,5.226c0.96,1.746,0.463,2.439-0.642,0.879
		c-1.524-1.709-4.34-4.245-4.698-4.246c-0.385-0.002,0.146,0.551,1.938,2.311c1.778,1.745,3.653,4.02,3.652,4.425
		c0,0.268-0.354,0.234-0.861-0.081c-1.108-0.688-2.071-1.384-2.564-1.851c-0.296-0.281-0.863-0.799-1.265-1.153
		c-1.658-1.464-3.547-4.838-3.014-5.485C141.358,93.094,141.406,93.085,141.465,93.084L141.465,93.084z M57.84,93.563
		c1.154-0.033,2.457,0.706,2.51,2.06c0.038,0.957,0.103,1.03,0.961,1.046c0.82,0.015,3.188,0.298,3.188,0.298l0.016,2.679
		c0,0-1.144-0.007-2.461-0.069c-2.243-0.107-2.232-0.11-2.518,0.883c-0.115,0.401-0.276,0.599-0.724,0.895
		c-2.015,1.332-3.956-1.085-2.706-3.368c0.43-0.784,0.454-1.052,0.157-1.521C55.66,95.101,56.463,93.632,57.84,93.563L57.84,93.563z
		 M58.331,94.935c-0.248,0-0.52,0.107-0.769,0.355c-0.332,0.332-0.335,1.277,0,1.828c0.315,0.525,0.308,0.667-0.062,1.014
		c-0.651,0.611-0.669,1.822-0.034,2.278c0.578,0.416,1.192-0.133,1.195-0.974c0-0.921,0.644-0.904,0.644-0.904l4.214,0.074
		l0.014-0.691l-3.057-0.154c-0.426-0.002-0.871-0.043-1.199-0.267c-0.348-0.242-0.744-0.662-0.365-1.174
		c0.53-0.717,0.058-1.391-0.577-1.386H58.331z M49.197,96.518l1.998,3.423l2.33,0.085l0.204,2.082l2.831,1.837l-2.9,1.709
		l-0.144,2.096l-2.198,0.278l-2.041,2.574l-1.957-2.57l-2.156,0.012l-0.031-2.149l-2.969-1.924l3.249-1.839l-0.034-2.454
		l2.303-0.155L49.197,96.518L49.197,96.518z M119.813,98.074l0.096,2.067l-3.271,0.584l0.427-2.105L119.813,98.074z M98.845,100.157
		l4.409,0.135L103,129.308c0,0-0.869-0.007-1.034-0.008l-0.019-1.131l-1.411,0.047l-1.435-0.875L98.845,100.157z M49.197,100.893
		l-2.588,3.298l3.133,2.757l2.761-3.225L49.197,100.893z M100.167,101.334v1.335h1.849v-1.335H100.167z M49.254,102.476l1.822,1.344
		l-1.388,1.847l-1.757-1.533L49.254,102.476z M119.905,103.234l-0.058,15.88c-6.059,4.788-7.946,13.217-7.946,13.217l-2.465-0.147
		l6.264-27.974L119.905,103.234z M87.061,103.587c-5.451,2.612-10.946,4.59-16.354,10.82c2.094,1.897,4.307,3.832,6.273,7.064
		c4.502-0.675,9.512,0.137,14.975,2.3L87.061,103.587z M100.167,103.942v1.383h1.849v-1.383H100.167z M38.882,105.937
		c0.135,0.423,0.177,0.875,0.177,0.875c3.998-0.338,2.979,4.334,0.431,4.494c-0.299,0.039,0.247,0.829,0.843,1.08
		c1.514,0.641,2.602,0.229,3.594-1.103c0.762-1.022,0.808-1.17,0.808-1.17l2.468,1.316c0,0,0.07-0.036-0.365,1.104
		c-0.793,2.074,0.364,4.618,1.258,2.765c0.476-0.988,1.875-1.551,2.845-1.143c1.133,0.478,1.525,2.515,0.73,3.798
		c-0.24,0.388-0.247,0.469-0.1,0.828c0.222,0.541,0.359,1.933,0.127,2.381c-0.302,0.583-0.65,0.715-1.33,0.24
		c-0.932-0.65-1.452-0.92-3.072-1.374c-2.845-0.539-3.401-1.547-4.532-3.902c-3.369,1.016-8.411-1.111-7.739-6.147
		c0.306-1.111,0.39-3.245-0.173-3.682c-1.103-0.855,0.107-2.09,1.765-2.288C37.977,103.873,38.632,105.172,38.882,105.937
		L38.882,105.937z M86.546,104.478l4.383,18.481c-4.811-1.774-9.531-3.159-13.709-2.13c-1.913-3.074-3.544-4.587-5.667-6.585
		C75.688,109.225,80.946,106.416,86.546,104.478L86.546,104.478z M36.96,105.383c-0.283-0.003-0.604,0.12-0.938,0.418
		c0,0,0.297,0.25,0.458,0.589c0.258,0.541,0.261,0.541-0.031,1.742c-1.337,4.814,1.834,7.999,6.343,6.608
		c1.107-0.346,1.065-0.308,1.385,1.002c0.525,2.156,2.039,3.27,5.048,3.678c0.185,0.025,0.493,0.087,0.737,0.236
		c1.324,0.851,0.781-0.28,0.42-0.72c-0.259-0.344-0.73-0.686-0.73-0.686s0.403-0.263,0.592-0.363
		c0.849-0.454,1.166-2.229,0.465-2.609c-0.639-0.348-1.727,0.177-1.73,0.836c-0.008,1.204-1.514,1.332-2.834,0.331
		c-1.694-1.284-0.193-4.522-0.184-4.518l-0.955-0.424c0.127,0.114-2.013,3.174-4.645,2.106c-1.838-0.745-3.134-2.889-2.281-3.5
		c0.621-0.168,1.365,0.176,1.838-0.19c0.939-0.742,0.181-2.045-1.162-1.997c-0.281,0.01-0.922,0.135-0.922,0.135
		c0.07-0.606,0.225-1.033,0.149-1.618C37.904,105.854,37.5,105.389,36.96,105.383L36.96,105.383z M100.187,106.788v1.139l1.83,0.012
		V106.8L100.187,106.788z M100.167,109.134v1.174h1.85v-1.174H100.167z M100.167,111.662v1.2h1.85v-1.2H100.167z M100.167,114.02
		v1.271h1.85v-1.271H100.167z M100.167,116.385v1.185h1.85v-1.185H100.167z M100.167,118.797v1.196h1.85v-1.196H100.167z
		 M40.047,119.966l1.558,2.648l1.849,0.081l0.073,1.819l3.145,2.42l-2.749,1.979l-0.199,1.962l-2.181,0.07l-1.765,2.997
		l-2.172-2.629l-1.745-0.282l-0.2-2.393l-2.688-2.024l2.526-2.032l0.203-2.126l2.058,0.183L40.047,119.966z M142.376,121.232
		c0.168,0.003,0.352,0.05,0.55,0.15c0.653,0.332,0.859,0.371,2.557,0.457c1.969,0.1,2.664,0.277,3.641,0.933
		c0.588,0.396,0.623,0.394,1.253-0.026c2.765-1.845,5.922-0.168,6.151,3.267c0.061,0.903,0.15,1.268,0.504,2.025
		c0.24,0.524,0.49,0.938,0.346,1.273c-0.443,1.022-2.572,1.089-3.732-0.43c-0.208-0.229-0.419-0.328-0.708-0.329
		c-0.576,0.216-2.05-0.952-2.034-1.003c-0.137,0.813-0.205,1.459-0.35,2.641l-2.579-0.039c0,0-0.058-0.476-0.177-2.137
		c-0.138-1.909-0.609-2.468-1.215-1.437c-1.043,1.776-3.814,0.995-3.976-1.118c-0.054-0.717-0.095-0.811-0.484-1.111
		C140.818,123.338,141.197,121.208,142.376,121.232L142.376,121.232z M100.167,121.337v1.061h1.85v-1.061H100.167z M142.672,122.471
		c-0.513,0.037-0.221,0.952,0.627,1.437c0.48,0.274,0.481,0.272,0.418,1.115c-0.113,1.525,1.347,2.273,1.996,1.021
		c0.112-0.217,0.16-0.492,0.115-0.678c-0.272-1.108,2.11-0.806,2.684,0.341c0.131,0.264,0.278,0.965,0.35,1.673
		c0.066,0.671,0.084,1.447,0.084,1.447h0.762c0,0-0.009-0.463,0.034-0.905c0.188-1.896,1.021-3.094,2.146-3.09
		c0.479,0.002,0.496,0.088,0.161,0.713c-0.567,1.057-0.021,1.822,1.304,1.831c0.84,0.006,0.836,0.007,1.149,0.607
		c0.343,0.66,0.603,0.869,0.923,0.747c0.226-0.086,0.229,0.042-0.066-2.21c-0.439-3.355-2.378-4.259-5.055-2.357
		c-0.758,0.538-0.924,0.521-1.596-0.132c-1.007-0.979-1.645-1.204-3.613-1.277c-0.938-0.036-1.863-0.128-2.054-0.206
		C142.889,122.486,142.766,122.464,142.672,122.471L142.672,122.471z M79.142,123.431c-0.438,0.008-0.946,0.101-1.387,0.139
		c0.489,2.593,0.718,5.186,0.94,7.778c2.255-0.395,5.175-0.026,9.027,1.781c2.363,1.11,5.251,3.004,8.277,5.145
		c3.275,2.316,7.115,3.684,10.387,4.398c3.982,0.871,7.182,0.795,7.094,0.607c-0.176,0.029-1.436-6.361-1.271-7.727
		c-5.51-0.51-10.829-2.564-14.896-5.347C91.932,126.521,85.709,123.318,79.142,123.431z M100.167,123.647v1.076h1.85v-1.076H100.167
		z M39.487,123.86l-2.926,3.07l3.183,3.035l2.703-3.094L39.487,123.86z M39.406,125.254l1.657,1.6l-1.338,1.707l-1.865-1.618
		L39.406,125.254z M80.656,125.506c0.391,0.003,0.771,0.279,2.061,1.007c1.082,0.751,1.945,1.22,1.631,0.042
		c0.246-0.339,1.443,0.765,2.855,1.46c1.703,1.373,1.709,1.042,1.93,0.36c0.229-0.499,0.543-0.162,1.904,1.106
		c1.786,1.667,1.626,1.669,1.983,1.255c0.407-0.778,0.543-0.771,1.999,0.913c1.514,1.7,1.834,2.064,2.156,1.336
		c0.498-0.377,0.756-0.011,2.811,1.931c1.01,1.016,1.248,0.857,1.438,0.176c0.195-0.705,0.251-0.547,1.957,0.816
		c1.976,1.592,2.171,1.709,2.253,1.156c0.131-0.875,0.742-0.564,2.776,0.906c1.231,0.887,1.697,1.133,1.96,0.914
		c0.269-0.479-0.668-1.396,1.318-0.531l0.546,2.904l-0.688-0.197c-0.423-0.121-1.349-0.438-1,0.469
		c0.201,0.521-0.299,0.461-1.842-0.465c-2.21-1.326-2.618-1.631-2.783-1.359c-0.292,0.992-0.255,1.057-1.745-0.119
		c-1.735-1.326-2.084-1.691-2.326-1.24c-0.032,1-0.516,0.799-2.134-0.607c-1.367-1.203-1.659-1.834-2.271-0.912
		c-0.168,0.32-0.337,0.24-0.563,0.074c-0.795-0.594-2.395-2.293-2.847-2.781c-0.355-0.391-0.559-0.264-0.85,0.059
		c-0.273,0.301-0.294,0.207-1.177-0.609c-2.108-1.947-2.501-2.433-2.795-2.167c-0.24,0.457-0.011,1.078-1.63-0.209
		c-2.031-1.473-2.913-2.127-2.775-1.161c-0.349,0.433-0.104,0.518-2.138-0.615c-1.933-1.076-2.177-1.399-2.456-1.03
		c-0.19,0.585-0.839,0.375-0.839,0.341l-0.392-2.953l0.695,0.008C79.68,125.781,80.35,125.507,80.656,125.506L80.656,125.506z
		 M65.152,125.754c-0.154,0.456-1.221,3.091-1.233,9.797c0.127,0.16,2.642-2.421,2.764-4.827
		C66.798,128.445,65.156,125.747,65.152,125.754z M100.163,125.939v1.224h1.85v-1.224H100.163z M65.283,126.909
		c2.351,3.753-0.24,7.291-0.885,7.541C64.399,131.63,64.811,128.979,65.283,126.909z M126.971,130.062
		c-3.864,2.452-3.236,9.087-1.341,10.787C125.77,140.848,126.987,133.682,126.971,130.062z M126.442,130.878l-1.039,8.541
		C124.051,137.911,123.812,133.42,126.442,130.878z M150.811,132.319l2.041,2.585l1.814,0.137l0.404,1.865l2.648,2.172l-2.652,1.812
		l-0.234,2.066l-1.973,0.201l-1.953,3.094l-1.91-3.031l-1.83-0.197l-0.059-1.99l-2.875-2.137l2.745-1.66l0.054-2.25l2.148,0.008
		L150.811,132.319z M78.515,133.129c-1.297,6.209-4.395,10.459-8.765,13.317l0.022,0.627l-7.362,2.973
		c-1.612,7.576-4.512,14.967-10.591,21.9l1.695,3.469l-8.224,2.846l11.771,20.328c0.811,0-5.703,3.105-13.566,2.295
		c4.977,12.27,6.002,24.973,3.248,36.096l38.533-0.162l-29.448-58.189l-0.48-0.947c-0.409-0.762,15.655,2.273,12.244,17.277
		c-0.048,0.348,0.072,0.391,0.266,0.248c3.123-2.701,23.862-10.191,40.425-0.303l4.921-2.053
		c-2.343,8.256-5.004,13.936-9.492,18.912l0.761,11.75c7.941-6.549,16.559-18.572,17.716-34.549
		c3.576-1.754,6.687-3.746,10.019-5.625l0.442,0.145l2.156-1.305c-6.917-7.621-21.04-14.902-30.091-16.816l0.535,2.582
		c-4.994-1.352-8.729-1.645-12.614-2.064l-0.596-27.338l-5.028-2.986l-0.158,30.158c-3.76,0.047-12.406,1.541-12.406,1.541
		l0.389-2.578l-3.96,0.82l-0.068-2.512l4.475-1.293l6.489-27.703L78.515,133.129z M79.057,133.745l2.068,0.422l-6.424,27.16
		c0,0-3.604,1.002-3.825,0.863c-0.287-5.094-0.396-15.473-0.396-15.473C76.821,141.395,77.813,137.627,79.057,133.745
		L79.057,133.745z M34.965,135.739c0.968-0.014,2.01,0.695,2.075,1.334c0.166,0.395,0.305,0.564,0.565,0.602
		c1.621,0.225,1.672,0.656,1.719,1.598c-0.229,1.805,0.971,0.289,1.311-1.502c0.035-0.186,0.016-1.557,0.016-1.557l1.983-0.02
		c0,0,0.067,1.43,0.097,1.658c0.175,1.385,0.762,2.508,1.168,1.773c1.396-2.525,4.593-1.238,4.087,1.195
		c-0.124,0.576-0.116,0.611,0.273,1.049c0.635,0.713,0.871,1.469,0.661,2.125c-0.204,0.643-0.65,0.74-1.611,0.354
		c-0.451-0.182-0.998-0.248-2.46-0.291c-2.068-0.061-2.197-0.1-3.003-0.887l-0.507-0.496l-0.877,0.52
		c-1.459,0.863-2.786,0.896-4.329,0.102c-1.004-0.52-1.589-1.762-1.745-3.697c-0.03-1.029-0.316-1.775-0.95-2.021
		c-0.342-0.324,0.04-0.969,0.623-1.557C34.328,135.827,34.642,135.743,34.965,135.739L34.965,135.739z M150.641,136.032
		l-2.725,3.422l3.24,2.92l3.018-3.574L150.641,136.032z M87.503,136.524l3.775,2.176l0.484,26.951l-4.268-0.119L87.503,136.524
		L87.503,136.524z M35.069,136.899c-0.287,0.029-0.106,0.492,0.104,1.201c0.189,0.633,0.236,1.027,0.177,1.467
		c-0.4,2.953,2.963,4.455,5.391,2.408c0.646-0.746,0.751-0.697,1.292,0.1c0.666,0.842,1.635,1.113,3.667,0.992
		c0.928-0.057,1.543,0.441,1.945,0.111c0.291-0.213,0.009-0.775-0.554-1.104c-0.344-0.199-0.356-0.232-0.288-0.926
		c0.173-1.748-1.259-2.211-2.275-0.734c-0.84,1.219-2.106,0.414-2.515-1.6c-0.242-1.547-0.436-1.523-0.619-0.174
		c-0.198,1.643-2.345,3.422-3.202,2.613c-0.234-0.238-0.232-0.178,0.008-1.002c0.31-1.059,0.062-1.453-1.084-1.727
		c-0.188-0.045-0.403-0.203-0.477-0.35C36.031,137.231,36.058,136.899,35.069,136.899L35.069,136.899z M150.914,137.526l1.73,1.502
		l-1.508,1.793l-1.842-1.424L150.914,137.526z M88.688,138.487v1.242v0.031h1.614v-1.273H88.688z M88.688,141.053v1.223v0.117h1.614
		v-1.34H88.688z M98.414,142.594c1.81,6.768,3.634,13.527,5.451,20.293c1.722-0.693,11.665-5.137,16.354-10.824
		c-0.179,0.014-4.264-4.008-5.694-6.615C109.836,146.225,104.449,145.235,98.414,142.594L98.414,142.594z M88.688,143.399v1.211
		v0.039h1.614v-1.25H88.688z M99.433,143.739c4.274,1.285,9.749,3.055,14.79,2.154c1.3,2.352,3.182,4.287,5.305,6.072
		c-3.814,4.18-9.332,7.367-15.039,9.822L99.433,143.739z M140,144.227c0.215,0.002,0.433,0.084,0.642,0.271
		c0.677,0.605,1.198,0.814,2.58,1.041c2.226,0.365,3.923,1.766,4.405,3.631c0.202,0.785,0.313,0.828,1.422,0.547
		c4.201-1.064,7.439,2.441,6.439,7.123c-0.349,1.635-0.455,1.83,0.031,2.477c1.068,1.16,1.301,1.176,0.131,2.195
		c-1.064,0.963-3.177,0.498-3.625-1.064c-0.429-0.855-0.422-0.92-1.127-1.033c-2.74-0.439-2.627-4.258-0.046-4.699
		c0.216-0.037,0.375,0.006,0.484-0.043c0.733-0.334-0.799-2.08-2.064-1.812c-1.553,0.328-2.326,1.332-2.938,2.904l-2.444-1.406
		c0.613-1.277,1.063-2.922,0.53-3.939c-0.431-0.859-0.976-0.893-1.142-0.07c-0.393,1.934-2.778,2.51-4.345,0.938
		c-0.876-0.881-0.978-1.824-0.335-3.098c0.417-0.824,0.428-0.883,0.25-1.23C138.235,145.747,139.068,144.221,140,144.227
		L140,144.227z M88.688,145.799v1.305l1.618-0.008v-1.297h-1.614H88.688z M140.3,145.907c-0.497,0.006-0.494,0.492-0.034,1.084
		c0.408,0.418,0.487,0.609-0.077,0.969c-0.708,0.66-0.862,1.654-0.373,2.412c0.733,1.137,2.428,0.504,2.233-0.836
		c-0.137-0.941,0.598-1.361,1.765-1.008c1.696,0.516,2.505,2.424,1.838,4.348c-0.126,0.363-0.376,1.209-0.376,1.209l0.501,0.307
		c0,0,0.595-0.957,0.827-1.246c1.928-2.387,6.482-1.178,5.976,1.807c-0.079,0.938-0.075,1.062-1.089,0.77
		c-0.673-0.35-1.323,0.375-1.303,1.281c0.033,0.816,0.736,1.471,1.711,1.34c0.772-0.146,0.967-0.119,0.911,0.93
		c0.079,0.729,0.349,1.211,0.822,1.459c1.151,0.479,1.743-0.182,0.823-1.15c-0.558-0.586-0.523-1.494-0.174-2.346
		c0.42-1.018,0.201-3.256-0.441-4.518c-0.926-1.818-3.515-2.58-5.683-1.672c-0.991,0.533-1.099,0.656-1.195-0.279
		c-0.544-2.32-2.276-4.072-4.437-4.227C141.696,146.479,140.83,146.022,140.3,145.907L140.3,145.907z M88.688,148.278v1.203h1.618
		v-1.203H88.688z M88.688,150.631v1.326h1.614v-1.326H88.688z M88.688,153.221v1.328c0,0,0.883-0.025,1.614,0v-1.328H88.688z
		 M141.418,155.35l1.769,2.633l1.957,0.131l0.23,2.125l2.968,1.863l-2.572,1.621l-0.019,2.057l-2.453,0.209l-2.168,2.895
		l-1.846-2.555l-1.845,0.008l-0.435-2.279l-3.269-1.67l3.353-1.924l-0.092-2.396l2.279-0.014L141.418,155.35L141.418,155.35z
		 M88.688,155.663v1.363h1.614v-1.363H88.688z M88.688,158.161v1.348h1.614v-1.348H88.688z M140.427,159.163l-2.534,3.395
		l3.414,2.842l2.715-3.434L140.427,159.163z M88.688,160.522v1.475h1.614v-1.475H88.688z M140.688,160.7l1.761,1.371l-1.257,1.605
		l-1.749-1.342L140.688,160.7z M88.688,163.247v1.236h1.614v-1.236H88.688z M40.631,163.407c-3.112,0.014-6.057,5.09-6.762,7.494
		c-0.834,3.08-0.958,8.65-0.166,8.807c2.791-2.021,4.113-5.447,6.209-8.014c0.325,2.967,0.273,8.689,0.273,8.689
		s-1.24,0.656-1.908,1.695c-0.483,0.863-0.637,1.895-0.226,2.855c-1.552-0.508-4.362,0.066-4.521,2.949
		c0.101,4.062,4.505,3.49,4.521,3.436c-0.094-0.025-0.867,4.32,3.041,4.779c1.402,0.166,3.869-0.863,3.137-4.814
		c2.468,0.41,4.595-0.959,4.621-3.35c0.031-1.637-1.204-3.045-3.333-3.055c-0.443-0.002-1.38,0.201-1.38,0.201
		c0.029-0.236,0.853-2.777-2.011-4.621l-0.45-11.758c0,0,0.988,1.084,1.431,1.494c1.902,1.764,3.145,2.652,5.34,3.818
		c2.137,1.133,1.873,0.854,1.503-1.301c-1.01-3.238-3.12-5.684-7.585-8.742C41.79,163.577,41.207,163.403,40.631,163.407
		L40.631,163.407z M40.939,163.657l0.627,16.629l-0.927-0.002l-0.796-16.611L40.939,163.657z M132.545,164.208
		c0.082-0.004,0.167,0,0.254,0.008c2.014,0.17,2.531,2.438,1.626,3.445c-0.357,0.398-0.481,0.484-0.296,0.729
		c0.865,1.102,0.382,2.844-0.473,3.111c-2.718,0.852-3.13-0.646-3.122-2.408l-4.198-0.158l0.027-2.463l4.629,0.094
		C130.643,165.448,131.312,164.254,132.545,164.208L132.545,164.208z M38.994,164.235c0.018-0.002,0.034-0.002,0.049,0
		c0.436,0.037-0.013,1.207-1.227,2.992c-0.82,1.207-1.961,3.334-2.303,4.193c-0.747,1.879-1.25,5.248-0.749,4.629
		c0.452-1.408,0.496-1.996,0.884-3.008c0.512-1.32,2.899-5.662,3.372-6.09c0.404-0.365,0.509-0.141,0.5,1.08
		c-0.021,2.75-1.315,5.645-4.402,9.031c-0.515,0.566-1.2,1.182-1.249,1.182c-0.298-0.002-0.29-0.623-0.285-1.932
		c0.021-5.195,1.936-9.836,4.883-11.83C38.697,164.327,38.871,164.245,38.994,164.235L38.994,164.235z M42.119,164.475
		c1.354,0.398,3.785,2.588,4.786,3.711c1.16,1.262,2.715,4.752,2.441,5.289c-0.091,0.236-0.286,0.199-0.965-0.186
		c-4.31-2.443-7.395-5.453-6.586-6.426c0.226-0.273,1.152,0.287,2.392,1.447c0.843,0.752,1.705,1.516,2.476,2.279
		c1.211,1.201,1.483,1.377,0.754,0.043c-0.655-1.197-2.513-3.209-4.76-4.916C41.744,165.022,41.536,164.463,42.119,164.475z
		 M132.811,165.174c-0.058,0.002-0.109,0.012-0.15,0.027c-0.848,0.359-0.502,1.467-0.584,2.316l-4.659-0.164l-0.027,0.65l4.371,0.24
		c0.077,0.664-0.267,2.098,0.296,2.338c1.224,0.514,1.892-1.074,0.854-2.027c-0.369-0.332-0.77-0.479,0.258-0.945
		c0.678-0.582,0.783-1.721,0.204-2.227C133.212,165.245,132.984,165.172,132.811,165.174L132.811,165.174z M73.86,165.368
		l-0.234,1.738l-2.703,0.686l-0.068-1.857L73.86,165.368z M105.735,165.985c9.978,2.705,21.069,8.85,28.271,15.791l-1.441,0.951
		c-7.483-6.961-17.356-12.244-26.427-14.869L105.735,165.985z M88.541,166.25c16.432-0.045,31.41,6.387,43.497,16.775l-1.976,1.254
		c-11.025-9.178-23.241-15.297-39.676-16.027c-10.742-0.477-23,2.297-35.081,8.99l-0.899-1.646
		C66.14,169.155,77.658,166.282,88.541,166.25L88.541,166.25z M87.25,168.745l6.463,0.189l-0.4,6.043l-5.874-0.193L87.25,168.745z
		 M80.299,169.174l0.911,5.83l-5.624,1.057l-1.596-5.846L80.299,169.174z M100.756,169.944l6.42,1.723l-2.118,5.943l-5.636-1.619
		L100.756,169.944z M90.472,170.03c-1.02,0-1.845,0.832-1.845,1.857c0,1.027,0.825,1.859,1.845,1.859
		c1.019,0,1.845-0.832,1.845-1.859C92.317,170.862,91.49,170.03,90.472,170.03z M90.472,170.672c0.68,0,1.23,0.543,1.23,1.215
		c0,0.674-0.551,1.221-1.23,1.221s-1.23-0.547-1.23-1.221C89.241,171.215,89.792,170.672,90.472,170.672z M77.724,170.684
		c-1.02,0-1.846,0.832-1.846,1.857c0,1.027,0.826,1.859,1.846,1.859c1.019,0,1.845-0.832,1.845-1.859
		C79.569,171.516,78.742,170.684,77.724,170.684z M77.724,171.327c0.679,0,1.229,0.543,1.229,1.215c0,0.674-0.551,1.221-1.229,1.221
		c-0.68,0-1.23-0.547-1.23-1.221C76.493,171.87,77.044,171.327,77.724,171.327z M103.14,172.073c-1.02,0-1.846,0.832-1.846,1.859
		c0,1.025,0.826,1.857,1.846,1.857c1.019,0,1.845-0.832,1.845-1.857C104.985,172.905,104.159,172.075,103.14,172.073z
		 M67.363,172.29l1.903,5.688l-5.447,2.223l-2.042-5.617L67.363,172.29z M103.14,172.717c0.68,0,1.23,0.541,1.229,1.215
		c0,0.672-0.55,1.219-1.229,1.219s-1.23-0.547-1.23-1.219C101.909,173.258,102.46,172.715,103.14,172.717z M113.812,174.079
		l5.778,3.074l-2.987,5.436l-5.386-2.826L113.812,174.079z M65.433,174.571c-1.02,0-1.845,0.832-1.845,1.857
		c0,1.027,0.826,1.859,1.845,1.859c1.02,0,1.846-0.832,1.846-1.859C67.279,175.403,66.452,174.571,65.433,174.571z M87.262,174.749
		l0.27,5.742l-5.117,0.363l-0.931-5.707L87.262,174.749z M93.402,175.051l5.832,0.812l-1.372,5.527l-5.279-0.855L93.402,175.051z
		 M65.433,175.213c0.68,0,1.23,0.543,1.23,1.215c0,0.674-0.551,1.221-1.23,1.221c-0.679,0-1.229-0.547-1.229-1.221
		C64.203,175.756,64.754,175.213,65.433,175.213z M84.54,175.958c-1.02,0-1.846,0.83-1.846,1.857c0,1.025,0.826,1.857,1.846,1.857
		c1.019,0,1.845-0.832,1.845-1.857C86.385,176.788,85.559,175.958,84.54,175.958z M75.221,176.188l1.512,5.588l-5.625,1.621
		l-1.727-5.373L75.221,176.188z M95.639,176.278c-1.02,0-1.845,0.832-1.845,1.857c0,1.027,0.826,1.859,1.845,1.859
		c1.02,0,1.846-0.832,1.846-1.859C97.485,177.11,96.658,176.278,95.639,176.278z M84.54,176.6c0.68,0,1.23,0.541,1.23,1.215
		c0,0.672-0.551,1.219-1.23,1.219s-1.23-0.547-1.23-1.219C83.31,177.141,83.861,176.6,84.54,176.6z M95.639,176.92
		c0.68,0,1.23,0.543,1.23,1.215c0,0.674-0.551,1.221-1.23,1.221s-1.23-0.547-1.23-1.221C94.408,177.463,94.959,176.92,95.639,176.92
		z M115.377,176.932c-1.02,0-1.846,0.832-1.846,1.857c0,1.027,0.826,1.859,1.846,1.859c1.019,0,1.845-0.832,1.845-1.859
		C117.222,177.764,116.396,176.932,115.377,176.932z M105.393,177.475l5.636,1.939l-2.249,5.303l-5.394-2.066L105.393,177.475z
		 M115.377,177.575c0.68,0,1.23,0.543,1.23,1.215c0,0.674-0.551,1.221-1.23,1.221s-1.23-0.547-1.23-1.221
		C114.147,178.118,114.697,177.575,115.377,177.575z M72.98,177.772c-1.019,0-1.845,0.832-1.845,1.859
		c0,1.025,0.826,1.857,1.845,1.857c1.02,0,1.846-0.832,1.846-1.857C74.825,178.604,73.999,177.772,72.98,177.772z M72.98,178.415
		c0.681,0,1.231,0.543,1.23,1.217c0,0.672-0.55,1.219-1.23,1.219c-0.679,0-1.229-0.547-1.229-1.219
		C71.75,178.958,72.301,178.415,72.98,178.415z M107.127,179.499c-1.02,0-1.846,0.832-1.846,1.859c0,1.025,0.826,1.857,1.846,1.857
		c1.019,0,1.845-0.832,1.845-1.857C108.972,180.331,108.146,179.499,107.127,179.499z M107.127,180.141
		c0.679,0,1.229,0.543,1.229,1.217c0,0.672-0.551,1.219-1.229,1.219c-0.68,0-1.23-0.547-1.23-1.219
		C105.897,180.684,106.447,180.141,107.127,180.141z M41.11,180.788c1.475,0.062,2.581,1.396,2.647,2.785
		c0.052,1.055-1.285,2.436-1.285,2.436l-1.556-1.449l-1.493,1.385c-0.252,0.084-1.412-1.902-1.058-2.93
		C38.827,181.676,39.777,180.731,41.11,180.788L41.11,180.788z M124.904,180.788l4.464,3.678c0,0-1.96,1.199-2.322,1.414
		c0.044-0.16,0.065-0.33,0.065-0.504c0-1.025-0.826-1.857-1.846-1.857c-1.019,0-1.845,0.832-1.845,1.857
		c0,0.881,0.61,1.619,1.426,1.812c-0.459,0.264-1.068,0.607-1.068,0.607l-2.356-1.99L124.904,180.788z M117.837,190.618
		l-1.975,0.814c-12.154-8.037-28.781-12.438-47.788-4.342l-0.653-1.588C81.531,179.586,99.333,177.745,117.837,190.618z
		 M116.757,182.584l4.782,2.953l-3.037,4.697l-4.671-3.01L116.757,182.584z M115.312,191.69l-2.007,0.758
		c-14.836-9.598-30.648-9.086-44.777-3.332l-0.218-1.35C84.947,180.514,101.643,182.823,115.312,191.69z M125.265,184.161
		c0.68,0,1.23,0.543,1.23,1.215c0,0.674-0.551,1.219-1.23,1.219s-1.23-0.547-1.23-1.219S124.585,184.161,125.265,184.161z
		 M38.944,186.362l-1.649,1.676l1.506,1.703c0,0-0.478,0.408-0.824,0.598c-1.974,1.082-4.134-0.627-4.03-2.473
		C34.096,185.176,37.314,183.895,38.944,186.362L38.944,186.362z M117.446,185.077c-1.02,0-1.846,0.832-1.846,1.859
		c0,1.025,0.826,1.857,1.846,1.857c1.019,0,1.845-0.832,1.845-1.857C119.29,185.909,118.464,185.077,117.446,185.077z
		 M45.621,185.153c1.469,0.012,2.609,1.146,2.75,2.453c0.112,1.041-0.426,2.041-1.585,2.75c-1.573,0.959-3.4-0.596-3.369-0.691
		l1.327-1.32l-1.596-1.643C43.102,186.67,44.201,185.143,45.621,185.153z M41.029,185.473l2.718,2.729l-2.875,2.699l-2.664-2.695
		L41.029,185.473z M112.709,192.735l-1.526,0.705l-2.08-1.262l-0.615,1.188l1.157,0.74l-1.203,0.453
		c-13.861-7.842-29.523-5.57-39.936-0.365c0,0,0.091-0.807,0.096-0.807l1.134-0.582l-0.423-1.445l-0.607,0.18l-0.047-1.6
		C83.524,183.2,100.392,184.743,112.709,192.735L112.709,192.735z M117.446,185.719c0.68,0,1.229,0.543,1.229,1.217
		c0,0.672-0.55,1.219-1.229,1.219s-1.23-0.547-1.23-1.219C116.215,186.262,116.766,185.719,117.446,185.719z M40.971,186.696
		l-1.449,1.451l1.441,1.549l1.406-1.498L40.971,186.696z M86.343,187.016l-1.899,0.086l0.101,1.561l1.853-0.047L86.343,187.016z
		 M87.639,187.026l0.034,1.559l1.722-0.008l-0.008-1.541l-1.749-0.012L87.639,187.026z M90.696,187.051l-0.085,1.553l1.711,0.078
		l0.123-1.545L90.696,187.051z M83.314,187.25l-1.945,0.213l0.216,1.566l1.842-0.217L83.314,187.25z M93.882,187.272l-0.139,1.604
		l1.757,0.201l0.239-1.533L93.882,187.272z M40.979,187.28l0.846,0.906l-0.842,0.844l-0.896-0.883L40.979,187.28z M80.034,187.756
		l-1.876,0.299l0.2,1.613l1.829-0.363L80.034,187.756z M97.054,187.756l-0.312,1.494l1.746,0.422l0.284-1.525L97.054,187.756z
		 M76.959,188.411l-1.576,0.422l0.342,1.572l1.665-0.41L76.959,188.411z M100.049,188.473l-0.33,1.518l1.779,0.488l0.357-1.457
		L100.049,188.473z M74.357,189.227l-1.649,0.59l0.427,1.455l1.676-0.568L74.357,189.227z M103.114,189.395l-0.551,1.459
		l1.542,0.623l0.681-1.324L103.114,189.395z M71.635,190.25l-1.565,0.646l0.646,1.443l1.483-0.682L71.635,190.25z M39.383,190.295
		l1.584,1.592l1.882-1.709c1.643,1.461,1.616,4.881-1.291,5.453C39.02,196.129,36.697,192.303,39.383,190.295L39.383,190.295z
		 M105.939,190.602l-0.604,1.34l1.703,0.754l0.588-1.289L105.939,190.602z M57.36,199.196l21.49,36.781l-3.398-0.064L54.654,200.37
		L57.36,199.196z M53.832,200.598l1.188,1.859c-2.327-1.867-5.748-0.297-5.604,2.055c0.114,1.049,0.995,1.688,0.999,0.678
		c-0.105-1.057,1.382-1.979,2.461-1.928c1.992,0.025,3.209,2.604,1.834,3.887c-0.904,0.838-2.127,0.801-1.715-0.35
		c0.064-0.396,0.033-0.541-0.153-0.711c-0.571-0.525-1.626,0.158-1.369,0.908c0.169,0.494,0.219,0.615-0.369,1.023
		c-2.278,1.611-0.69,4.787,2.068,3.34c0.564-0.205,0.794-0.234,1.05-0.135c1.148,0.445,1.931-0.559,0.842-1.08
		c-0.632-0.303-0.648-0.82-0.038-1.23c1.303-0.877,3.332,0.492,3.325,2.244c-0.008,1.24-1.63,2.156-3.188,1.797
		c-0.925-0.215-1.036,0.416-0.188,1.072c1.644,1.27,4.104,0.217,4.84-2.068c0.23-0.717,0.197-0.869,0.197-0.869l2.193,3.646
		c0,0-0.68-0.324-1.092-0.449c-2.064-0.635-4.379,0.713-4.386,2.555c0,0.867,0.506,1.203,0.792,0.521
		c0.664-1.584,2.11-2.199,3.595-1.531c1.372,0.617,2.001,2.018,1.464,3.266c-0.562,1.309-2.445,1.693-2.233,0.457
		c0.103-0.588-0.255-0.949-0.884-0.891c-0.238,0.023-0.544,0.719-0.461,1.055c0.076,0.312,0.021,0.389-0.785,1.021
		c-1.915,1.504-0.441,3.959,1.949,3.248c0.402-0.119,0.552-0.109,0.911,0.066c0.865,0.418,1.773,0.158,1.776-0.512
		c0-0.461-0.205-0.637-0.746-0.639c-0.819-0.004-0.643-0.938,0.266-1.395c2.275-1.145,4.6,1.746,3.214,4
		c-0.595,0.967-0.972,1.068-3.099,0.832c-0.343-0.039-0.498,0.199-0.294,0.48c0.63,0.896,2.501,1.182,3.592,0.686
		c1.177-0.537,1.895-1.891,1.978-3.336l2.404,4.229c-1.87-1.969-5.097-1.217-5.615,1.604c0,0.715,0.645,1.088,0.869,0.5
		c0.973-2.545,4.67-1.766,4.659,0.982c0,0.443-0.088,0.693-0.369,1.08c-0.679,1.318-2.413,1.645-2.099,0.461
		c0.14-0.365-0.139-0.764-0.615-0.879c-0.47-0.113-0.77,0.283-0.758,1.002c0.009,0.539,0.014,0.705,0.014,0.705
		c-0.865,0.367-1.418,1.086-1.609,2.15l-16.834,0.037c2.002-11.748,1.531-22.357-2.295-32.391c-0.331-0.871-0.806-2.135-0.806-2.135
		l2.971,0.078c0.717,0.627,3.426,0.383,4.483-0.584L53.832,200.598z M56.69,205.211l1.739,3.145
		c-0.72-0.416-1.452-0.689-2.572-0.785C56.442,206.698,56.488,205.915,56.69,205.211z M52.119,208.553
		c0.634,0,1.146,0.516,1.146,1.154c0,0.637-0.513,1.152-1.146,1.152c-0.633,0-1.148-0.516-1.148-1.152
		C50.971,209.069,51.487,208.553,52.119,208.553z M64.107,217.948l1.675,3.002c-0.814-0.35-1.503-0.691-2.775-0.725
		C63.469,219.68,63.869,218.766,64.107,217.948z M59.279,221.163c0.601,0,1.088,0.49,1.088,1.096c0,0.604-0.487,1.092-1.088,1.092
		s-1.085-0.488-1.085-1.092C58.194,221.653,58.678,221.163,59.279,221.163z M71.41,230.516l2.472,4.416
		c-0.972-0.561-2.019-1.271-3.332-1.135C71.175,232.454,71.516,231.719,71.41,230.516z M68.121,236.026l-2.652,0.01
		C65.999,233.7,68.143,234.307,68.121,236.026z M70.63,234.901c0.901,0.045,1.68,0.355,2.167,1.148l-3.337,0.008
		C69.46,236.057,69.484,234.897,70.63,234.901z"/>
	<path id="path163-0-2-5-8-7-5-8-8-7" fill="#D40000" d="
		M54.246,72.571c0,0-3.717-6.105-8.73-13.283c-3.354-4.803-6.034-10.004-6.284-14.483c-0.286-5.117,2.421-10.252,7.32-10.5
		c4.897-0.249,6.885,3.945,7.694,7.403c0.809-3.458,2.797-7.652,7.693-7.403c4.899,0.248,7.606,5.383,7.32,10.5
		c-0.249,4.479-2.931,9.681-6.284,14.483C57.962,66.466,54.246,72.571,54.246,72.571L54.246,72.571z"/>
	<path id="path163-0-2-5-8-7-7-8-4-8-6" fill="#D40000" d="
		M136.702,192.524c0,0-3.716,6.104-8.729,13.281c-3.354,4.803-6.035,10.004-6.284,14.484c-0.286,5.117,2.42,10.252,7.32,10.5
		c4.896,0.25,6.884-3.945,7.693-7.404c0.81,3.459,2.797,7.654,7.693,7.404c4.899-0.248,7.606-5.383,7.32-10.5
		c-0.249-4.48-2.931-9.682-6.284-14.484C140.419,198.627,136.702,192.524,136.702,192.524z"/>
</g>
</svg>
