<?xml version="1.0" encoding="utf-8"?>
<!-- Generator: Adobe Illustrator 16.0.0, SVG Export Plug-In . SVG Version: 6.00 Build 0)  -->
<!DOCTYPE svg PUBLIC "-//W3C//DTD SVG 1.1//EN" "http://www.w3.org/Graphics/SVG/1.1/DTD/svg11.dtd">
<svg version="1.1" id="Layer_1" xmlns="http://www.w3.org/2000/svg" xmlns:xlink="http://www.w3.org/1999/xlink" x="0px" y="0px"
	 width="181px" height="252px" viewBox="0 0 181 252" enable-background="new 0 0 181 252" xml:space="preserve">
<g id="g8436-8-0" transform="matrix(0.99553774,0,0,0.99680134,-42.89003,79.60164)">
	<g id="g8473-4-9">
		<path id="rect6852-0-4" fill="#FFFFFF" stroke="#000000" stroke-width="1.0006" d="M53.239-78.177h161.498
			c4.718,0,8.542,3.82,8.542,8.531v232.387c0,4.71-3.824,8.531-8.542,8.531H53.239c-4.718,0-8.542-3.821-8.542-8.531V-69.646
			C44.697-74.358,48.521-78.177,53.239-78.177z"/>
		<path id="path6882-1-0" d="M92.575-52.021
			c-7.381,10.526-15.278,16.583-15.409,24.795c-0.045,2.659,1.393,7.178,5.896,8.043c2.921,0.558,6.944-1.806,7.028-6.61
			c-0.014-0.956,1.012-0.932,1.003,0.379c-0.137,3.789-1.337,8.201-3.353,11.793c3.223,0,6.446,0,9.669,0
			c-2.016-3.592-3.216-8.003-3.354-11.793c-0.009-1.311,1.016-1.335,1.004-0.379c0.084,4.804,4.106,7.168,7.028,6.61
			c4.503-0.865,5.941-5.384,5.896-8.043C107.853-35.438,99.956-41.496,92.575-52.021L92.575-52.021z"/>
		<path id="path6884-6-5" d="M58.47-38.199
			c-3.448,4.386-7.138,6.91-7.199,10.331c-0.021,1.108,0.651,2.992,2.754,3.353c1.365,0.232,3.245-0.752,3.284-2.755
			c-0.008-0.398,0.473-0.388,0.469,0.159c-0.065,1.578-0.625,3.417-1.567,4.913c1.506,0,3.011,0,4.517,0
			c-0.942-1.496-1.503-3.335-1.567-4.913c-0.008-0.547,0.475-0.556,0.469-0.159c0.038,2.003,1.918,2.987,3.283,2.755
			c2.104-0.361,2.776-2.244,2.755-3.353C65.609-31.289,61.919-33.813,58.47-38.199L58.47-38.199z"/>
		<path id="path6888-1-5" d="M209.507,131.293
			c-3.449-4.385-7.138-6.909-7.2-10.332c-0.021-1.107,0.651-2.99,2.755-3.351c1.364-0.233,3.244,0.752,3.283,2.755
			c-0.008,0.398,0.474,0.388,0.469-0.159c-0.064-1.579-0.625-3.417-1.567-4.914c1.506,0,3.011,0,4.517,0
			c-0.942,1.497-1.502,3.335-1.567,4.914c-0.008,0.547,0.475,0.556,0.469,0.159c0.039-2.003,1.919-2.988,3.283-2.755
			c2.104,0.361,2.776,2.244,2.755,3.351C216.644,124.384,212.954,126.908,209.507,131.293L209.507,131.293z"/>
		<path id="path6890-4-9" d="M175.401-52.021
			c-7.381,10.526-15.278,16.583-15.41,24.795c-0.044,2.659,1.394,7.178,5.896,8.043c2.922,0.558,6.945-1.806,7.028-6.61
			c-0.013-0.956,1.013-0.932,1.003,0.379c-0.137,3.789-1.337,8.201-3.353,11.793c3.222,0,6.446,0,9.668,0
			c-2.016-3.592-3.216-8.003-3.353-11.793c-0.01-1.311,1.016-1.335,1.003-0.379c0.083,4.804,4.106,7.168,7.027,6.61
			c4.503-0.865,5.942-5.384,5.897-8.043C190.679-35.438,182.782-41.496,175.401-52.021L175.401-52.021z"/>
		<path id="path6902-7-5" d="M92.575,145.116
			c-7.381-10.526-15.278-16.584-15.409-24.796c-0.045-2.659,1.393-7.177,5.896-8.043c2.921-0.558,6.944,1.807,7.028,6.611
			c-0.014,0.956,1.012,0.931,1.003-0.38c-0.137-3.789-1.337-8.2-3.353-11.792c3.223,0,6.446,0,9.669,0
			c-2.016,3.592-3.216,8.002-3.354,11.792c-0.009,1.311,1.016,1.336,1.004,0.38c0.084-4.804,4.106-7.169,7.028-6.611
			c4.503,0.866,5.941,5.384,5.896,8.043C107.853,128.532,99.956,134.591,92.575,145.116L92.575,145.116z"/>
		<path id="path6904-9-7" d="M175.401,145.116
			c-7.381-10.526-15.278-16.584-15.41-24.796c-0.044-2.659,1.394-7.177,5.896-8.043c2.922-0.558,6.945,1.807,7.028,6.611
			c-0.013,0.956,1.013,0.931,1.003-0.38c-0.137-3.789-1.337-8.2-3.353-11.792c3.222,0,6.446,0,9.668,0
			c-2.016,3.592-3.216,8.002-3.353,11.792c-0.01,1.311,1.016,1.336,1.003,0.38c0.083-4.804,4.106-7.169,7.027-6.611
			c4.503,0.866,5.942,5.384,5.897,8.043C190.679,128.532,182.782,134.591,175.401,145.116L175.401,145.116z"/>
		<path id="path19-08-0-9" d="M58.655-40.71v-2.332h2.104v-3.847H50.232v-2.714l11.391-17.504
			l1.861,0.009v17.495h3.222v2.715h-3.222l-0.061,3.846h1.764v2.335h-6.532V-40.71z M60.759-60.699l-7.231,11.097h7.231V-60.699z"/>
		<path id="path19-08-1-1-4" d="M209.321,133.805v2.332h-2.105v3.846h10.526v2.714l-11.39,17.505
			l-1.861-0.01v-17.495h-3.222v-2.714h3.222l0.061-3.846h-1.764v-2.336h6.532V133.805z M207.216,153.793l7.232-11.096h-7.232
			V153.793z"/>
	</g>
</g>
</svg>
