<?xml version="1.0" encoding="utf-8"?>
<!-- Generator: Adobe Illustrator 16.0.0, SVG Export Plug-In . SVG Version: 6.00 Build 0)  -->
<!DOCTYPE svg PUBLIC "-//W3C//DTD SVG 1.1//EN" "http://www.w3.org/Graphics/SVG/1.1/DTD/svg11.dtd">
<svg version="1.1" id="Layer_1" xmlns="http://www.w3.org/2000/svg" xmlns:xlink="http://www.w3.org/1999/xlink" x="0px" y="0px"
	 width="181px" height="252px" viewBox="0 0 181 252" enable-background="new 0 0 181 252" xml:space="preserve">
<g id="g6583" transform="matrix(0.99999718,0,0,1.000002,-5.9698507,-7.5442065)">
	<path id="rect7467-2-2" fill="#FFFFFF" stroke="#000000" stroke-width="0.9967" d="M16.081,9.219h160.777
		c4.697,0,8.504,3.808,8.504,8.504v231.644c0,4.695-3.807,8.504-8.504,8.504H16.081c-4.697,0-8.504-3.809-8.504-8.504V17.722
		C7.577,13.026,11.384,9.219,16.081,9.219z"/>
	<path id="path7499-2-5" d="M21.29,49.069
		c-3.434,4.372-7.107,6.888-7.168,10.298c-0.021,1.104,0.648,2.982,2.743,3.341c1.358,0.232,3.229-0.75,3.269-2.745
		c-0.008-0.397,0.471-0.387,0.467,0.157c-0.064,1.574-0.622,3.406-1.56,4.898c1.499,0,2.998,0,4.497,0
		c-0.938-1.492-1.496-3.324-1.56-4.898c-0.009-0.544,0.473-0.555,0.466-0.157c0.04,1.995,1.91,2.978,3.27,2.745
		c2.095-0.358,2.764-2.236,2.742-3.341C28.396,55.957,24.722,53.441,21.29,49.069L21.29,49.069z"/>
	<path id="path7503-7-0" d="M171.652,218.019
		c-3.434-4.371-7.107-6.887-7.168-10.297c-0.02-1.105,0.648-2.982,2.742-3.342c1.359-0.232,3.23,0.75,3.27,2.746
		c-0.008,0.396,0.471,0.387,0.467-0.158c-0.064-1.574-0.621-3.406-1.561-4.898c1.5,0,3,0,4.498,0
		c-0.938,1.492-1.496,3.324-1.561,4.898c-0.008,0.545,0.473,0.555,0.467,0.158c0.039-1.996,1.91-2.979,3.27-2.746
		c2.094,0.359,2.764,2.236,2.742,3.342C178.757,211.132,175.083,213.648,171.652,218.019L171.652,218.019z"/>
	<path id="path39-5-1-0" d="M21.924,43.67h2.644l-3.884-9.717l-2.968,4.104l0.021,5.612h2.084
		v2.895h-7.344V43.67h2.419V22.773l-2.419,0.01v-2.529h7.451v2.615h-2.057l-0.044,10.185l6.505-10.271h-2.296v-2.529h7.928v2.529
		h-2.092l-5.355,8.393l5.243,12.499h2.327l0.013,2.895h-8.152L21.924,43.67L21.924,43.67z"/>
	<path id="path39-5-7-0-0" d="M171.015,223.419h-2.645l3.885,9.717l2.967-4.105l-0.02-5.611
		h-2.084v-2.895h7.344v2.895h-2.42v20.896l2.42-0.01v2.529h-7.451v-2.615h2.055l0.045-10.186l-6.504,10.271h2.295v2.529h-7.928
		v-2.529h2.092l5.355-8.395l-5.244-12.498h-2.326l-0.012-2.895h8.15l0.025,2.898V223.419z"/>

		<path id="path4096-2-4-0" fill="#131F67" d="
		M31.163,28.282h130.613v210.524H31.163V28.282z M123.869,237.466c-4.856-8.857-12.534-23.285-12.762-23.398
		c-2.839,1.52-31.784,5.416-45.706,1.643c-4.762,7.195-9.437,14.318-13.582,21.449L123.869,237.466z M79.415,210.974
		c-0.728,0.018-1.54,0.463-1.391,0.074c0.087-0.225,0.293-2.494,0.383-3.307c0.218-0.361,0.524,0.586,0.489,1.465
		c-0.02,0.506,0.222,0.145,1.87,0.232c1.782,0.094,3.243,0.43,3.848,0.561c2.109,0.459,6.188,0.129,7.937-1.148
		c0.946-0.693,1.305,0.055,0.329,0.797c-4.406,3.355-7.898,2.076-11.727,1.514C80.583,211.077,80.006,210.962,79.415,210.974
		L79.415,210.974z M81.288,207.792c-0.273-0.18-0.453-0.197-0.804-0.033c-1.353,0.635-0.999-0.275-0.025-1.191
		c0.445-0.418,0.433-0.633,0.095-1.072c-0.171-0.223-0.457-0.25-0.389-0.584c0.293-1.438,2.301-3.611,4.547-4.582
		c0.934-0.404,1.081,0.037-0.1,0.734c-1.816,1.072-2.404,1.988-1.377,1.615c1.992-0.723,3.81-0.213,6.357,1.064
		c0.729,0.365,1.062,0.436,1.682,0.369c0.457-0.381,0.867,0.078,1.151,0.318c0.178,0.143,0.216,0.213,0.419,0.164
		c1.45-0.342,0.581,0.586-1.4,2.039C87.894,209.156,84.021,210.343,81.288,207.792L81.288,207.792z M86.751,208.411
		c1.451-0.438,3.221-1.355,4.306-2.312c1.319-1.164,0.573-0.986-0.943-0.254c-2.193,1.062-3.729,1.369-6.197,1.311
		c-2.066-0.047-2.001-0.131-2.076,0.127C81.575,208.191,84.418,209.118,86.751,208.411z M82.742,204.868
		c0.118-0.391,0.208-0.912,0.103-1.08c-0.19-0.307-0.602-0.08-1.124,0.582c-0.323,0.41-0.278,0.465,0.038,0.789
		c0.159,0.107,0.281,0.189,0.377,0.244C82.576,205.593,82.648,205.183,82.742,204.868L82.742,204.868z M83.646,205.404
		c0.636-2.17,2.058-2.129,3.072-0.051l0.716,0.004c-1.472-4.043-4.319-1.996-4.415,0.016
		C83.355,205.484,83.646,205.404,83.646,205.404z M88.96,205.038c0.671-0.375,0.572-0.631-0.283-1.074
		c-0.607-0.314-0.93-0.379-1.04-0.176c0.008,0.447,0.026,1.09,0.284,1.443C88.19,205.396,88.558,205.236,88.96,205.038z
		 M79.546,198.855c-0.123-0.203-0.102-0.576,0.366-0.795c2.88-1.338,0.781-4.162-1.442-2.045c-0.705,0.582-1.754,0.852-2.564,0.506
		c-0.762-0.334-0.775-1.268,0.236-1.467c0.332-0.066,1.185-0.248,1.499-0.467c3.866-2.076,5.919,2.438,3.176,3.941
		C80.253,198.859,79.654,199.042,79.546,198.855L79.546,198.855z M68.716,194.755c-1.569-0.713-1.784-3.189-0.313-4.154
		c0.936-0.643,1.893-0.818,4.472,0.463c1.82,0.904,2.863-0.07,2.816,0.982c-0.029,0.639-0.066,1.285-1.126,1.439
		c-1.721,0.25-2.896-2.094-5.105-1.873c-1.595,0.16-1.394,2.074-0.241,2.463C70.754,194.595,69.823,195.208,68.716,194.755z
		 M97.566,195.115c-0.288,0.137-0.424-0.496-0.299-0.834c0.784-1.865,1.506-3.35,2.217-5.098c0.566-1.393,0.947-1.992,1.201-1.99
		c0.26,0.002,0.381,0.205-0.055,1.062C99.974,189.986,97.569,195.263,97.566,195.115L97.566,195.115z M84.684,194.632
		c-0.694-0.496-0.577-1.232,0.213-0.676c1.015,0.717,2.679-0.594,2.339-1.83c-0.41-1.494-2.389-1.857-4.045-0.518
		c-2.613,2.111-5.48,2.219-5.48,0.568c0.008-0.473-0.061-0.58,1.026-0.652c1.265-0.086,2.69-0.668,3.399-1.102
		c3.18-1.943,6.562-0.602,5.861,2.643C87.681,194.595,85.812,195.337,84.684,194.632z M73.027,189.843
		c-0.258-0.008-0.729,0.254-0.864,0.152c-0.265-0.199-0.227-0.773-0.444-1.391c-0.387-1.094-0.01-0.752,0.67-0.455
		c0.924,0.357,1.798,0.287,2.577,0.018c0.803-0.281,1.856-0.217,3.543,0.004c1.357,0.178,2.119,0.127,3.351-0.227
		c1.337-0.42,0.983-0.27,0.76,0.559c-0.145,0.543-0.328,1.27-0.498,1.445c-0.924-0.52-1.625-0.318-2.232,0.035
		c-0.998,0.441-1.705,0.516-2.522,0.271c-0.769-0.439-1.225-0.404-1.842-0.025C74.459,190.747,73.987,189.892,73.027,189.843
		L73.027,189.843z M92.957,187.57c0.188-0.33,0.46-0.785,0.715-1.295c2.065-4.115,2.206-5.26,0.749-6.648
		c-1.959-1.863-3.629-1.055-5.505,2.668c-0.456,0.902-0.729,1.582-0.912,1.859c-0.212,0.322-0.46,0.074-0.582-0.051
		c-0.231-0.236,1.851-4.188,2.667-5.051c2.137-2.256,6.106-0.451,5.854,2.619c-0.127,1.547-0.42,2.395-1.829,5.229
		c-0.349,0.701-0.651,1.297-0.836,1.582C92.617,188.927,92.768,187.907,92.957,187.57L92.957,187.57z M73.494,187.406
		c0.326-1.465,5.008-2.145,6.242-0.221c0.12,0.188,0.05,0.18-0.479,0.033c-2.381-0.789-2.854-0.746-5.134,0.158
		C73.78,187.509,73.536,187.564,73.494,187.406L73.494,187.406z M91.36,187.128c0-0.139,0.175-0.68,0.438-1.205
		c1.562-3.098,1.992-3.844,1.516-4.424c-0.928-1.129-2.174-0.148-3.319,3.088c-0.428,1.209-0.72,0.951-0.929,0.76
		c-0.399-0.365,1.371-4.129,2.225-4.689c1.936-1.236,3.459,0.193,2.604,2.721c-0.667,1.141-1.219,2.896-1.842,3.82
		C91.756,187.613,91.358,187.491,91.36,187.128L91.36,187.128z M84.359,182.097c-0.095-0.156,0.088-0.367,0.759-1.809
		c0.922-1.982,1.208-2.719,0.833-3.852c-0.667-2.018-3.184-2.512-4.713-1.188c-0.5,0.428-0.84,1.02-1.075,1.551
		c-0.552,1.229-1.013,2.818-1.34,3.152c-0.286,0.291-0.686,0.35-0.659-0.156c0.363-1.07,0.534-1.9,1.394-3.471
		c2.143-4.672,8.317-2.508,6.872,2.41c-0.538,1.787-1.156,3.139-1.521,3.578C84.704,182.558,84.366,182.345,84.359,182.097z
		 M82.925,181.238c0-0.152,0.232-0.592,0.479-1.201c1.044-2.594,1.051-3.389-0.471-3.422c-0.91,0.117-1.046,0.492-1.845,2.537
		c-0.26,0.666-0.403,1.139-0.558,1.342c-0.165,0.217-0.476,0.088-0.604-0.043c-0.326-0.334,1.099-3.689,1.853-4.32
		c1.731-1.514,3.977,0.635,2.925,2.564c-0.492,1.35-0.917,2.264-1.206,2.682C83.242,181.745,82.922,181.693,82.925,181.238
		L82.925,181.238z M46.051,151.005l-5.262-0.363c0.933,5.654,0.979,11.879,0.038,16.291c-0.806,3.775-0.814,6.555-0.574,9.826
		c0.279,3.807,1.883,7.033,2.287,11.074c0.293,2.928-0.352,5.984-0.928,8.895c-0.963,4.865-0.765,5.373-0.623,11.08
		c0.132,5.293-0.359,5.104-0.662,4.795c-0.045-0.047-0.088-0.982-0.08-2.096s-0.062-3.836-0.125-5.725
		c-0.126-3.775,0.291-7.111,0.594-8.484c0.616-2.795,1.309-5.656,0.882-8.75c-0.866-3.902-2.087-7.801-2.515-11.562
		c-0.528-4.639,0.77-9.295,1.199-12.664c0.414-3.252-0.025-8.881-0.873-11.223c-0.146-0.779-0.839-1.795-0.839-1.795
		c-0.793-0.113-1.59-0.227-2.702-0.219c-0.062,22.34,0,44.688,0.017,67.031l4.906,4.578l5.042-4.82L46.051,151.005z M46.405,176.632
		c0,0,7.485,4.334,15.74,8.594c-0.786-4.873,1.707-5.609,4.047-6.174c-0.561-9.416,8.017-7.484,9.331,0.695l0.845,0.004
		c1.486-4.078,2.956-6.893,6.34-7.564c2.622-0.521,5.209,1.15,5.864,5.084c-0.115-0.277,8.695-5.201,8.938,5.203
		c4.001-2.5,6.855-0.342,8.01,2.83c1.689-2.588,5.918-2.701,7.27-2.891c0.471-0.545,1.302-0.857,2.812-0.848
		c1.294-0.066,3.032-1.041,3.927,0.146c1.36,0.215,2.397-0.031,3.56,0.871c0.926,0.709,1.958,2.285,3.498,1.197
		c2.937-1.422,6.237-2.064,8.864-3.779c0,0-0.697-0.902-0.494-0.771c0.075,0.047,0.402,0.473,0.895,0.672
		c0.178,0.07,1.791-0.9,1.791-0.9c-10.939-12.676-19.938-37.42-13.996-60.314c0.164-0.39-0.496-0.539-0.821-0.678
		c0.101-0.175,1.706,0.061,1.024,1.516c-0.688,4.387-1.465,9.14-1.638,12.776c0,0.443,0.036,0.84,0.036,0.84
		c24.527,11.377,21.521,36.024,15.219,44.602l0.994,1.33c0.439,0.297,19.295-10.762,18.674-11.217l3.566-1.787l-0.578-48.326
		l-14.109-1.085c0,0,0.15-0.406,0.328-0.512c0.129-2.95-0.133-7.313,0.008-10.966c0.055-10.438,0.16-13.987,0.025-14.276
		c-4.354-2.882-10.843-7.097-16.305-9.141c0.225,0.064-0.089,4.325-0.255,4.568c-5.11,1.64-2.738,3.735-4.626,5.987
		c-1.27,1.402-4.238,1.669-5.672-0.014c-1.714-1.667-2.517-5.492-2.517-5.492c-2.703,2.907-2.147,6.42-5.769,7.742
		c-5.818,2.902-7.665-5.776-7.326-5.575c-2.23,2.162-8.486,3.92-9.162-5.208c-2.813,2.604-5.967,1.312-7.305-1.894
		c-1.717,0.061-3.643,1.414-5.381,2.146c-1.612,0.718-3.676,1.14-5.207,1.107c-1.915,0.233-3.493,0.225-5.219-0.293
		c-0.812,0.265-2.64-0.527-3.204-1.661c-0.863-1.021-1.616-1.08-2.437-0.896c-2.795,1.48-5.792,1.838-9.092,3.389
		c-0.206,0.144,0.29,0.415,0.123,0.361c-0.07-0.022-1.733,0.821-1.733,0.821c16.714,22.102,17.624,44.416,14.12,60.233
		c-0.137,0.547-0.213,0.945,0.148,1.377c-0.53-0.092-0.539,0.064-0.638-0.277l1.737-13.275c0.052-1.604,0.251-1.485-1.149-2.083
		c-1.296-0.553-2.521-1.086-3.59-1.747c-4.075-3.037-8.682-6.776-10.927-11.44c-6.404-10.027-4.291-21.99,0.506-31.47l-1.193-1.247
		c-14.009,7.06-22.28,14.672-22.28,14.672l0.06,47.421l14.396,1.67L46.405,176.632z M39.46,144.966
		c-0.462-0.514-1.638-0.604-2.127-0.215c-0.113,0.098-0.355,0.6-0.427,0.582c-0.652-0.17-1.104-0.305-1.19-0.859l0.692-1.053
		c0.548-0.832,1.338-1.127,2.669-1.439c0.473-0.111,1.185-0.213,1.437-0.32c1-0.436,1.349-1.377,0.335-0.955
		c-0.739,0.205-1.773,0.137-1.91-0.543c-0.112-0.559-0.586-0.779-1.113-0.713c-0.976,0.236-1.867,0.748-2.73,1.264
		c-0.383,0.232-1.109,0.758-1.109,0.758c-0.113,0.182-0.537-1.137-0.143-1.521c0.489,0.059,0.91,0.064,1.387-0.127
		c1.191-0.477,2.337-1.053,3.537-1.516c0.766-0.301,0.836-0.275,0.635-0.822c-0.1-0.201-0.188-0.869-0.057-1.221
		c0.141-0.371,0.125-0.559-0.113-0.719c-0.541-0.361-1.837-0.023-3.66,0.857c-0.555,0.268-0.921,0.375-1.271,0.66
		c0.226-0.58,0.094-0.688,0.088-1.295c0.744,0.094,1.414-0.203,2.008-0.518c0.49-0.258,1.041-0.512,2.387-0.686
		c0.369-0.047,0.201-1.402-0.218-1.794c-0.396-0.371-1.229-0.379-2.236-0.079c-0.9,0.208-2.019,0.418-2.638,1.391
		c-0.781,0.743,0.02-1.232,1.442-2.021c0.624-0.013,2.001-0.311,2.325-0.383c0.549-0.122,0.637-1.419-0.161-1.974
		c-0.5-0.439,1.816-0.451,1.771-0.316c-0.029,0.076-0.051,0.63,0.126,0.771c0.998,0.302,0.989,1.122,1.076,1.468
		c1.146,1.892,1.71,0.705,2.498,0.054c-0.166,4.119,1.267,4.587,1.456,4.849c-1.968,3.691-0.483,3.781,1.36,4.631
		c0,0-0.701,0.285-1.168,0.258c-0.733-0.047-2.139,0.828-2.752,1.344c-0.34,0.285-0.35,0.049-1.705,0.01
		c-1.276-0.039-1.37,0.057-1.952,0.316c-1.148,0.512-1.142,0.996-0.021,0.805c1.195-0.203,2.366,0.527,2.504,1.521
		c0.094,0.188,0.01,0.52-0.01,0.51c-0.248-0.047-0.812,0.047-0.803-0.072c0.009-0.121,0-0.57-0.221-0.887H39.46z M41.204,139.974
		c0.324-0.209,0.379-0.801,0.098-1.041c-0.257-0.219-1.348-0.102-1.656,0.176C38.949,139.661,40.222,140.583,41.204,139.974z
		 M41.902,137.493c0.401-0.314,0.451-1.072,0.104-1.51c-0.59-0.746-2.129-0.299-2.213,0.641
		C39.704,137.624,41.064,138.152,41.902,137.493L41.902,137.493z M41.402,134.091c0.072-0.821-0.736-1.342-1.48-0.952
		c-0.926,0.485-0.363,1.507,0.797,1.449C41.36,134.554,41.36,134.554,41.402,134.091z M38.69,130.758
		c-0.433,0.213-0.454,0.726-0.044,1.055C40.271,132.716,39.776,130.298,38.69,130.758z M152.179,135.667
		c-0.713-2.644-2.68-0.021-2.682,0.014c-0.07-2.709,0.439-3.916-1.58-4.841c2.027-3.09,1.604-3.516-0.545-4.701
		c0.197,0.018,2.854-0.581,3.309-2.107c0.1,0.071,4.166,1.079,4.674-1.153c-1.227,0.562-3.641,0.646-3.668-1.755
		c0.229-0.069,0.801,0.05,0.752,0.126c-0.32,1.54,2.467,1.921,2.924,0.704c0,0,0.936,0.632,1.348,0.729
		c0.045,0.03-1.268,1.864-2.465,2.141c-2.16,0.72-2.906,0.914-2.908,1.346c0,0.168,0.352,0.194,0.994,0.326
		c1.342,0.094,1.312,0.384,1.488,0.83c0.156,0.396,0.309,0.476,0.756,0.435c1.531-0.512,2.299-0.781,3.365-1.855
		c0.131-0.025,0.281,1.13,0.363,1.169c0.014-0.184-1.084,0.138-2.768,1.129c-1.375,0.81-1.912,0.927-2.088,1.146
		c-0.129,0.162,0.205,0.673,0.24,1.228c0.029,0.466-0.283,0.692-0.053,0.838c0.264,0.168,0.674,0.137,1.213-0.004
		c1.188-0.288,2.062-0.758,3.131-1.422c-0.227,0.432,0.154,1.528,0.154,1.528s-0.527-0.373-0.961-0.179
		c-0.836,0.368-2.188,0.872-2.553,0.958c-0.354,0.084-0.508,0.13-0.645,0.248c-0.17,0.146-0.143,0.494-0.146,1.007
		c0,0.359-0.104,0.691,0.121,0.8c0.5,0.162,1.506,0.11,2.531-0.25c0.438-0.191,1.365-0.7,1.365-0.7l-0.291,1.516
		c-0.389-0.441-1.506-0.115-2.252,0.182c-0.379,0.119-0.49,0.357-0.586,0.689c-0.168,0.564,0.189,0.955,0.602,1.141
		c0.273,0.125,0.697,0.074,0.697,0.074c-1.938,0.74-1.553,1.014-2.682,0.451c-0.49-0.531-0.969-1.094-1.154-1.785H152.179z
		 M154.206,135.669c-0.32-0.375-0.881-0.588-1.207-0.441c-0.289,0.156-0.186,0.48-0.092,0.729
		C153.152,136.642,154.855,136.421,154.206,135.669z M153.077,133.778c0.453-0.6-0.047-1.405-0.885-1.41
		c-0.584-0.004-0.895,0.361-0.889,0.821C151.316,134.058,152.696,134.278,153.077,133.778z M152.144,131.495
		c0.842-0.23,1.1-1.051,0.518-1.646c-0.412-0.423-1.711-0.476-2.057-0.094C149.718,130.733,150.71,131.887,152.144,131.495
		L152.144,131.495z M152.845,128.493c0.492-0.255,0.588-0.679,0.152-1.16c-0.793-0.678-2.176-0.149-1.729,0.84
		c0.219,0.485,0.973,0.63,1.574,0.32H152.845z M51.589,105.703c0.743-0.272,1.279-0.853,2.062-1.298
		c0.527-0.29,0.368-0.243-0.307-0.641c-0.53-0.245-1.595-1.33-1.694-1.071C51.409,103.155,51.444,105.681,51.589,105.703z
		 M70.374,132.162c0.03-0.516,0.092-1.292,0.077-1.861c0.101-1.086-0.093-0.769-0.677-0.414c-0.432,0.28-1.125,0.706-1.396,0.843
		c-1.071,0.538-0.943,0.565,0.564,1.296C70.209,132.595,70.351,132.54,70.374,132.162L70.374,132.162z M68.903,129.622
		c1.024-0.649,1.363-0.984,1.413-1.713c0.009-0.838-0.092-1.143-0.821-0.562c-2.491,1.979-5.056-1.904-2.775-4.062
		c0.465-0.439,1.056-1.129,1.061-1.304c0.038-1.251-1.362-0.036-2.506,1.683c-1.267,1.562-2.057,3.518-0.945,5.396
		C65.219,130.431,67.197,130.704,68.903,129.622L68.903,129.622z M63.243,127.094c-0.045-0.612,0.127-1.297,0.206-1.5
		c0.279-0.718,0.268-0.807-1.002-0.21c-0.507,0.168-1.11,0.305-1.343,0.304c-1.037-0.007-0.778,0.321,0.707,1.567
		C63.306,128.508,63.356,128.621,63.243,127.094L63.243,127.094z M66.775,121.094c0.158-0.377-0.171-0.521-0.485-0.451
		c-0.025,0.006-0.569,0.414-1.208,0.92c-1.936,1.534-3.355,1.713-4.316,0.545c-0.975-1.186-0.566-2.591,1.609-4.199
		c0.961-0.71,1.191-0.758,0.729-1.068c-0.352-0.235-0.372-0.199-1.753,0.74c-2.782,1.896-3.615,3.189-3.336,5.075
		c0.057,0.774,0.46,1.181,0.85,1.481C61.518,126.502,65.197,123.241,66.775,121.094z M69.582,122.213l-0.167-2.609
		c-2.829-2.453-5.512-6.645-6.439-10.115c-0.944-3.087-0.191-9.525-0.049-9.048l-1.528-2.912c-1.331,3.091-1.911,7.805-0.464,12.606
		C62.162,114.212,64.622,119.149,69.582,122.213L69.582,122.213z M57.668,120.692c0.899-1.735,0.927-1.548-0.81-1.563
		c-1.981-0.017-1.76-0.26-0.643,1.443C57.112,121.939,56.962,122.058,57.668,120.692z M58.859,118.313
		c1.142-0.369,0.881-0.284,2.396-1.275c1.738-1.138,1.812-1.76,0.065-0.883c-2.241,1.125-4.21,0.838-4.94-0.632
		c-0.65-1.309,0.708-2.941,2.946-3.58c0.765-0.219,1.167-0.403,1.169-0.74c0.008-1.026-3.803,0.344-5.372,1.894
		C52.094,116.09,54.745,119.641,58.859,118.313L58.859,118.313z M53.96,113.653c0.103-0.156,0.375-0.53,0.626-0.919
		c1.073-1.254,0.171-0.879-0.781-1.222c-0.503-0.188-1.02-0.373-1.314-0.328c-0.57,0.087,0.191,1.194,0.375,1.909
		C53.378,114.685,53.319,114.636,53.96,113.653z M58.017,110.785c1.92-0.189,2.116-0.376,2.118-0.776
		c0-0.397-0.234-0.321-1.198-0.187c-2.554,0.356-4.244-0.297-4.609-1.666c-0.377-1.414,1.353-2.752,3.657-2.673
		c1.248,0.043,2.079-0.392,1.319-0.809c-0.396-0.217-3.834-0.17-4.611,0.058c-2.284,0.669-3.215,1.947-3.006,3.717
		c0.315,2.185,1.502,2.811,4.393,2.656C56.633,111.075,57.339,110.851,58.017,110.785z M59.502,103.668
		c0-0.341-0.546-0.391-2.358-0.661c-2.414-0.361-3.492-2.608-2.037-3.96c0.552-0.513,1.865-0.732,2.598-0.599
		c1.592,0.292,2.564,0.621,2.58,0.078c0-0.484-0.459-0.52-3.446-1.154c-4.514-0.96-6.991,3.497-3.383,5.677
		C54.826,103.877,59.498,104.347,59.502,103.668z M60.621,97.29c0-0.17-0.146-0.302-0.487-0.437c-0.497-0.195-0.83-0.231-1.95-0.99
		c-1.49-1.011-1.942-2.98-0.948-4.078c0.965-1.024-0.771-2.234-2.155-1.078c-1.438,1.201-1.316,3.088,0.339,4.581
		C56.944,96.663,60.616,98.093,60.621,97.29z M53.308,97.024c1.569-0.741,2.696-0.314,1.496-1.337
		c-0.674-0.628-1.25-2.414-1.718-0.898c-0.358,0.902-0.622,2.495-0.632,2.651C52.56,97.548,52.536,97.363,53.308,97.024z
		 M108.796,93.18c-1.787-0.447-3.008-2.535-2.553-4.541c0.258-1.134,1.317-3.805,1.525-3.971c0.789-0.629,0.681,0.208-0.043,1.661
		c-0.659,1.484-1.174,2.678-0.97,3.561c0.291,1.257,0.796,2.216,2.095,2.535c0.914,0.224,1.774-0.159,2.357-0.573
		c0.771-0.548,1.5-1.952,2.371-3.897c0.278-0.547,0.652-2.228,1.116-1.202c0.224,0.53-1.636,4.061-2.331,4.955
		C111.491,92.833,110.014,93.493,108.796,93.18z M119.568,92c0.87,0.839,2.342,1.261,3.302,0.96
		c2.356-0.836,3.428-3.075,2.535-6.676c-0.451-2.019-0.838-3.273-1.229-3.523c-0.189-0.121-0.397,0.105-0.582,0.386
		c-0.165,0.251,0.087,0.604,0.354,1.553c1.126,4.002,0.832,5.811-0.543,6.575c-1.994,1.109-3.702-0.168-4.281-3.022
		c-0.093-0.441-0.365-1.341-0.365-1.341c-0.153-0.396-1.389-0.309-0.939,1.02C117.954,88.959,118.897,91.411,119.568,92z
		 M129.677,81.52c-0.031-1.408-2.975-7.516-3.175-6.868c0,0-0.013,1.428,0.103,1.99c0.044,0.212,0.196,0.408,0.322,0.634
		c2.558,4.588,2.163,7.821-0.055,8.529c-0.756,0.345-0.92,0.685-0.582,1.04c0.684,0.748,2.397-0.73,2.731-1.268
		C129.861,84.374,129.743,82.177,129.677,81.52z M86.845,80.482c0.964-1.083,3.078-4.82,3.73-6.781
		c2.005-5.835,4.112-12.547,4.695-18.751c0.064-0.783,0.104-1.974,0.144-2.076c-0.158-0.171-1.152-0.081-1.486,0.09
		c-0.159,0.21-0.053,0.675-0.109,1.28c-0.897,6.975-2.554,13.328-5.011,19.797c-1.074,2.81-2.072,4.659-3.366,6.613
		c-0.226,0.342-0.514,0.693-0.626,0.892c-0.328,0.475-0.087,0.785,0.292,0.584C85.78,81.747,86.361,81.01,86.845,80.482
		L86.845,80.482z M83.558,82.178c3.075-4.258,5.262-9.368,6.96-15.401c1.074-3.904,2.019-7.855,2.586-11.882
		c0.116-0.859,0.21-1.435,0.043-1.691c-0.415-0.112-1.19-0.043-1.459,0.166c-0.165,0.25-0.056,0.751-0.207,1.91
		c-0.394,2.996-0.982,6.005-1.977,9.943c-2.624,8.718-5.036,13.598-8.204,17.868c-0.256,0.358-0.484,0.592-0.461,0.745
		c0.033,0.223,0.341,0.205,0.844-0.111C82.341,83.205,83.093,82.751,83.558,82.178L83.558,82.178z M78.873,84.441
		c1.504-0.859,4.153-4.598,6.024-8.624c2.1-4.753,3.857-10.122,5.008-14.771c0.499-2.038,1.209-7.127,1.107-7.462
		c-0.12-0.397-1.591-0.066-1.387,0.209c0,0-1.461,8.18-3.032,12.688c-2.918,8.37-5.441,14.05-8.157,16.78
		c-0.355,0.357-1.057,1.058-1.057,1.058s0.015,0.312,0.241,0.36C78.163,84.78,78.524,84.622,78.873,84.441L78.873,84.441z
		 M76.57,84.108c3.395-1.912,7.37-10.842,10.616-22.055c0.555-1.918,1.569-8.341,1.569-8.341s-1.353,0.051-1.613,0.337
		c-0.263,0.389-0.221,1.376-0.6,3.724c-1.459,7.092-3.66,13.561-6.969,19.955c-1.431,2.833-3.809,5.501-5.31,6.261
		c-0.839,0.425-1.085,0.893-0.471,0.927c1.035,0.037,1.127,0.256,1.879-0.151L76.57,84.108z M123.085,183.974
		c-2.545-0.008-4.708,2.453-6.634,5.545c-4.098,6.336-6.853,16.926-7.522,22.555l1.546-0.295c-0.231,0.107,2.89-14.979,7.646-21.439
		c2.572-4.076,2.463-4.137,3.907-4.51c1.825-0.473,3.288,1.516,2.383,2.715c-0.327,0.406-0.687,0.107-0.585-0.471
		c0.323-1.844-2.349-2.199-3.095-0.387c-0.858,2.086,1.424,3.945,3.654,3.125c1.993-0.709,2.828-3.518,1.429-5.592
		C125.094,184.519,124.054,183.896,123.085,183.974z M109.685,183.716c-3.049,3.857-4.559,7.82-6.43,13.232
		c-1.87,5.408-3.214,10.697-3.796,16.766l1.645-0.213c-0.06-3.902,4.183-22.479,10.145-29.438c0.333-0.441,0.601-0.807,0.575-0.908
		C111.493,182.216,110.079,183.347,109.685,183.716z M116.419,182.277c-3.951,3.262-7.106,10.387-9.188,16.975
		c-2.25,7.121-3.259,13.646-3.09,13.646l1.569-0.232c-0.116-0.414,4.41-25.504,12.81-30.072c0.729-0.367,0.882-0.736,0.268-0.896
		C117.843,181.564,117.082,181.876,116.419,182.277z M120.842,182.292c-8.626,1.145-14.263,27.816-14.452,30.031
		c0,0.033-0.031,0.207-0.031,0.207l1.718-0.357c0,0,0.015-0.086,0.022-0.129c1.184-6.814,2.336-11.592,5.023-17.752
		c2.097-4.564,4.987-10.4,9.308-10.967c0.351-0.045,0.684,0.096,0.561-0.316C122.728,182.355,121.436,182.273,120.842,182.292
		L120.842,182.292z M69.431,173.894c-3.117,0.807-3.219,4.574-1.143,9.389c0.157,0.363,0.129,0.562,0.288,0.701
		c0.354,0.314,0.634-0.123,0.673-0.41c0.061-0.438-0.125-1.027-0.455-1.883c-1.285-3.332-0.977-5.252,0.296-6.1
		c3.261-1.695,4.139,1.783,4.632,3.385c0.121,0.389,0.162,0.926,0.375,0.955c0.65,0.09,0.961-0.143,0.951-0.143
		c0,0-0.864-2.996-1.391-4.121C72.805,173.845,70.778,173.464,69.431,173.894L69.431,173.894z M46.812,177.45l-0.032,39.707
		l-5.968,5.652c-2.562-2.215-5.926-5.682-5.926-5.682l0.105-67.127l-1.92-0.154c-0.471,28.84-0.01,58.264-0.031,87.16h17.521
		l14.605-23.029c0,0,0.185-0.275,0.243-0.42c0.18-0.443,0.158-1.105,0.07-3.553c-0.036-0.994,0.075-1.758-0.07-1.99
		c-0.147-0.236-0.459-0.068-0.75,0.062c-0.296,0.135-0.473,0.088-0.312-0.266c0.09-0.199,0.383-0.637,0.635-1.055
		c0.82-1.357,1.021-1.793,0.744-3.299c-0.068-0.369-0.405-0.684-0.698-1.119c-2.458-3.66-3.459-9.086-2.238-13.061
		c0.389-1.756,0.249-2.111-0.592-3.48L46.812,177.45z M124.064,134.755c-1.605-0.832-1.574-0.813-1.584,0.76
		c0.009,1.178,0.031,1.461,0.469,1.303c0.633-0.324,1.406-0.621,1.99-0.871C126.053,135.56,124.638,135.064,124.064,134.755z
		 M130.415,138.845c-1.245-1.004-0.785-0.889-1.138,1.373c-0.213,1.367-0.488,1.402,0.913,0.949
		c0.795-0.277,2.429-0.102,1.696-1.043C131.895,140.14,130.659,139.054,130.415,138.845z M80.381,173.56
		c-1.91,1.168-3.861,6.818-3.861,6.818c-6.675,0.803-9.47,7.43-9.769,12.953c-0.235,4.361-0.528,9.455-0.092,9.9
		c4.377-1.986,6.062,0.307,6.478-0.311c0.189-0.27-0.971-1.166-2.428-1.967c-0.339-0.188-0.862-0.523-1.062-0.689
		c-0.531-0.443,1.061-0.061,2.067,0.631c1.283,0.881,1.499,0.697,0.942-1.879c-0.605-2.803-0.705-3.146,1.429-4.256
		c0.854-0.445,1.339-0.822,1.95-1.514c0.488-0.553,0.613-0.688,0.434,0.125c-0.312,1.408-1.553,2.023-2.671,2.596
		c-0.556,0.287-0.786,0.865-0.788,1.363c0,0.506,0.573,3.244,0.84,4.119c0.248,0.83,0.339,1.664,0.53,2.512
		c0.501,2.197,0.533,2.629,0.28,4.225c-0.149,0.938-0.225,1.471-0.173,2.035c0.047,0.514,0.117,1.213,0.117,1.213
		c0-0.023-1.191-1.234-3.806-0.197c-1.885,0.75-3.373-0.031-4.43-0.586c-0.242,0.867-0.188,1.807-0.158,2.801
		c10.867,2.006,20.148,1.736,27.963,0.912c0.203-2.334,1.188-9.75,3.258-16.438c0.861-2.783,1.834-5.717,2.933-7.676
		c0.749-1.334,1.513-2.234,1.782-2.389c0.084-0.053,0.092-0.08,0.09-0.115v-0.209c-0.027-0.434-0.131-1.105-0.5-1.402
		c-0.902-0.727-2.341,0.209-2.814,1.828c-0.414,0.971-2.306,5.168-2.44,5.098c-0.111-0.07-0.374-0.076-0.278-0.4
		c0.724-1.701,1.719-3.5,2.278-5.027c0.774-2.199,2.457-3.359,3.714-1.973c0.432,0.475,0.605,0.914,0.803,1.064
		c0.148,0.113,0.35,0.035,0.473-0.152c0.475-0.721-0.625-2.359-1.804-2.688c-1.702-0.475-2.971,0.779-4.901,4.844
		c-1.114,2.348-1.313,2.938-1.49,2.756c-0.039,0.016-0.335,0.016-0.228-0.439c0.229-0.977,1.709-3.816,2.78-5.617
		c1.586-2.668,4.529-2.883,5.768-0.568c0.189,0.314,0.199,0.727,0.409,1.008c0.38,0.496,1.005,0.398,1.16-0.416
		c-0.169-0.539-1.204-2.488-1.923-2.826c-1.655-1.15-3.665-0.924-5.356,0.6c-0.384,0.346-0.783,1.049-1.905,3.35
		c-1.652,3.686-1.696,3.699-2.148,3.105c0.665-1.793,2.413-4.707,3.118-6.496c0.135-0.266,0.162-0.553,0.151-0.828
		c-0.041-1.301,0.169-3.598-2.554-5.23c-2.322-1.264-5.388,0.066-6.432,2.553c-0.8,1.904-1.384,3.213-1.786,3.484
		c-0.566,0.379-0.461-0.15-0.404-0.342c0.805-1.725,1.937-3.465,2.115-5.201c0.117-4.693-4.595-6.43-7.658-4.061H80.381z
		 M56.055,85.594c3.677-1.727,6.194-2.596,9.941-3.711c0.507-0.225,0.587-0.276,0.05-1.351c-2.374-4.746,4.14-8.53,6.354-3.871
		c0.295,0.621,0.363,0.965,0.654,0.668c0.544-0.721,1.191-1.745,1.863-2.913c2.492-3.9,3.619-8.349,4.948-12.275
		c0.551-2.307,1.32-4.718,1.538-7.192C76.46,46.258,67.77,30.326,67.77,30.326H33.04v69.679
		C42.715,91.849,49.298,88.899,56.055,85.594L56.055,85.594z M95.007,83.027c0.42-0.448,0.783-1.191,2.288-4.311
		c0.269-0.556,0.697-1.419,0.872-1.82c0.226-0.734,1.07-1.193,0.659,0.121c-0.094,0.283-0.255,0.666-0.511,1.175
		c-0.5,0.909-0.976,2.022-1.332,2.75c-1.924,3.896-1.832,6.165,0.317,7.855c1.606,1.551,4.979,1.727,6.773-0.778
		c0.269-0.403,0.509-0.922,0.586-1.112c0.78-1.912,1.355-2.869,1.503-3.058c0.799-1.024,0.927,0.244-0.266,2.197
		c-1.367,2.237-1.391,4.663-0.209,6.369c1.751,2.528,5.078,2.601,7.166,0.571l0,0c1.085-1.284,1.947-2.92,2.643-5.01
		c0.154-0.463,0.312-0.807,0.426-1.078c0.174-0.419,0.424-0.574,1.072-0.7c4.444-0.859,8.174-5.468,8.704-10.499
		c0.069-0.681,0.261-1.885,0.331-2.6c0.14-1.426,0.143-8.812,0-9.252c-0.075-0.237-0.208-0.363-0.497-0.36
		c-0.222,0.003-0.536,0.081-0.987,0.244c-1.466,0.528-2.147,0.662-3.556,0.153c-0.465-0.168-0.786-0.225-0.978-0.208
		c-0.621,0.054,0.204,0.954,2.015,1.948c0.776,0.426,1.39,1,0.761,0.957c-0.184-0.012-2.368-1.152-2.67-1.339
		c-0.995-0.617-0.735,0.159-0.223,2.201c0.688,2.743,0.292,3.514-1.853,4.588c-0.399,0.2-0.93,0.618-1.2,0.888
		c-1.136,1.696-0.843,0.446-0.27-0.457c0.978-1.034,0.378-1.387-1.627-0.67c-2.287,0.817-3.32,0.221-3.96-1.063
		c-0.724-1.452,0.638-3.319,1.772-3.283c0.367,0.012,0.301,0.146-0.24,0.519c-0.654,0.451-0.964,0.886-1.031,1.656
		c-0.139,1.57,0.973,2.237,2.527,1.185c0.734-0.498,1.312-0.841,1.867-0.969c0.551-0.126,1.378,0.08,1.375,0.525
		c0,0.184-0.026,0.634,0.013,0.733c0.146,0.497,0.934-0.207,1.276-0.457c1.17-0.884,1.132-1.058,0.812-2.491
		c-0.523-2.007-0.787-3.841-1.285-5.875c-0.266-1.065-0.311-2.27-0.148-3.355c0.081-0.544,0.29-1.663,0.333-2.429
		c0.042-0.766-0.008-1.86,0.023-1.86c1.162,0.898,1.635,1.056,2.769,0.62c1.755-0.726,2.863-0.65,4.343,0.063
		c0.547,0.265,1.045,0.451,1.045,0.451l0.067-2.303c0,0-1.369-0.285-3.898-0.621c-7.615-1.011-23.242-1.224-23.823-0.295
		c-0.147,0.236-0.296,1.881-0.711,4.169c-0.921,4.753-1.954,9.49-3.336,14.129c-0.283,0.945-0.554,1.325-0.409,1.354
		c0.059,0.012,0.342-0.354,0.473-0.508c0.741-0.863,0.174,1.188-0.945,3.657c-0.101,0.224-0.184,0.468-0.184,0.543
		c0,0.149-0.704,1.871-1.188,2.912c-0.301,0.646-0.551,0.842-0.548,0.428c0.34-1.423,1.238-3.264,1.367-4.532
		c-0.787,1.148-1.933,3.045-2.801,4.176c-0.159,0.305,0.01,0.398,0.149,0.775c0.521,1.406,1.784,1.531,2.514,0.259
		c0.407-0.71,1.671-3.385,2.11-4.556c0.452-1.204,0.77-1.839,0.921-1.918c0.303-0.157,0.36,0.526-0.176,1.666
		c-1.627,3.456-2.324,5.394-3.121,6.108c-0.618,0.554-1.688,0.519-2.282-0.468c-1.008-1.674-1.868-1.119-0.943,0.597
		c0.955,1.772,3.138,1.938,4.277,0.342c0.376-0.527,2.147-3.941,2.703-5.33c0.312-0.774,0.643-1.379,0.754-1.422
		c0.595-0.23-0.084,1.539-1.791,5.082c-0.554,1.368-1.442,2.804-2.645,3.248c-2.923,0.646-3.318-0.915-4.335-2.693
		c-0.494-0.443-0.941,0.265-0.753,1.047c0.307,1.27,0.881,1.766,1.767,2.402c1.85,1.189,4.421,0.371,5.354-0.984H95.007z
		 M108.046,90.44c-0.266-0.593-0.228-1.194-0.092-1.755c0.307-1.266,0.813-2.493,1.406-3.561c0.959-0.459,0.227,1.365,0.106,1.637
		c-1.157,2.438-1.267,3.381-0.187,3.662c0.926,0.241,1.423-0.331,2.298-2.517c0.449-1.122,0.629-1.618,0.788-1.683
		c0.336-0.137,0.498,0,0.479,0.343c-0.578,1.435-1.031,2.943-1.981,4.136C109.933,91.489,108.532,91.493,108.046,90.44z
		 M99.363,88.567c-0.403-0.079-1.093-0.604-1.573-1.048c-1.635-1.513-1.365-3.604,0.662-7.535C98.61,79.679,99.2,78.49,99.39,78.1
		c0.34-0.699,0.674-0.426,0.67,0.037c0,0.13-0.507,1.216-1.019,2.223c-2.239,4.422-2.163,6.225,0.014,7.277
		c2.124,1.026,3.075,0.436,4.77-2.939c0.979-2.534,1.463-2.575,1.409-1.612c0,0.359-1.188,2.788-1.953,3.917
		C102.171,88.64,101.21,88.931,99.363,88.567z M99.525,86.433c-0.834-0.521-1.174-1.817-0.682-2.878
		c0.449-0.875,1.598-4.229,2.137-4.418c0.868-0.03,0.404,0.704-0.67,2.767c-1.272,2.732-1.227,3.463-0.245,3.881
		c0.909,0.387,1.34-0.406,2.68-3.602c0.21-0.502,0.505-1.023,0.677-0.914c0.213-0.017,0.583,0.146-0.121,1.594
		c-0.168,0.346-0.451,1.072-0.765,1.749C101.619,86.59,100.579,87.094,99.525,86.433L99.525,86.433z M114.577,80.634
		c-0.367-0.19-2.088-0.872-1.832-1.438c0.031-0.054,0.131-0.012,0.182,0.022c1.575,1.065,3.533,1.336,5.576-0.143
		c0.344-0.306,0.601-0.1,0.408,0.285C118.293,80.599,115.54,81.129,114.577,80.634z M109.519,78.838
		c0.047-0.119,0.189-0.473,0.314-0.949c0.189-0.715,0.145-1.242,0.312-1.15c0.713,0.389,1.988,0.398,2.613,0.014
		c0.685-0.422,2.073-0.551,2.58-0.219c0.723,0.475,1.091,0.254,1.598-0.145c0.572-0.45,0.582-0.258,1.615,0.104
		c0.764,0.267,1.063,0.45,1.388,0.391c0.124-0.022,0.376-0.309,0.457-0.294c0.248,0.045,0.276,0.756,0.505,1.567
		c0.202,0.718,0.087,0.891-0.551,0.461c-0.474-0.32-1.836-0.471-3.253-0.032c-1.05,0.324-1.292,0.194-2.062,0.062
		c-1.92-0.327-3.305-0.58-4.736,0.256C109.536,79.35,109.259,79.583,109.519,78.838L109.519,78.838z M104.743,75.292
		c-0.931-1.884,1.209-4.378,3.09-3.497c0.623,0.292,1.178,1.398,0.256,0.891c-4.277-0.871-3.209,5.451,1.384,2.111
		c3.053-2.045,5.213-2.361,5.393-0.383c-0.085,0.728-0.726,0.611-1.21,0.678c-1.266,0.178-1.733,0.386-3.199,1.02
		C108.226,76.821,106.046,77.4,104.743,75.292L104.743,75.292z M121.48,76.162c-1.043-0.271-1.95-0.687-3.038-0.885
		c-1.078-0.19-1.564-0.758-1.37-1.522c0.203-0.794,1.282-0.878,2.904,0.122c1.798,1.107,3.102,1.376,3.76,0.959
		c1.331-0.846,0.613-2.221-0.656-2.573c-0.954-0.268-0.252-0.642,0.772-0.333c1.653,0.633,1.688,3.648-0.012,4.274
		C123.271,76.414,122.269,76.357,121.48,76.162L121.48,76.162z M106.911,66.179c1.215-0.758,2.387-1.435,2.805-1.887
		c0.219-0.237,0.828-1.034,0.355-0.791c-2.477,1.502-5.352,0.255-7.435-0.772c-1.001-0.473-0.755-0.264-1.522-0.212
		c-0.521,0.035-0.939,0.146-1.033-0.23c-0.041-0.166-0.332-0.096-0.519-0.115c-0.771-0.076-0.283-1.104,1.333-2.238
		c1.907-1.337,3.57-2.209,5.223-2.569c1.715-0.374,3.464-0.162,4.747,1.085c0.493,0.479,0.449,0.798,0.899,0.504
		c1.028-0.672,1.037,0.22,0.17,1.044c-0.596,0.565-0.377,0.72,0.352,1.259c0.348,0.257,0.062,0.502-0.132,0.876
		c-0.073,0.229-0.017,0.48-0.051,0.653c-0.162,0.806-3.794,3.65-5.108,4.136C106.091,67.091,106.566,66.403,106.911,66.179
		L106.911,66.179z M109.433,60.953l-0.604,0.008c-0.686,2.114-1.953,2.835-3.007,0.3l-0.48,0.049
		C105.32,63.457,108.982,64.805,109.433,60.953z M105.468,62.935c-0.249-0.421-0.528-1.388-0.789-1.401
		c-0.707-0.03-1.686,0.099-1.454,0.541C103.591,62.775,105.757,63.424,105.468,62.935z M110.319,62.558
		c0.652-0.396,0.792-0.67,0.366-1.105c-0.55-0.562-0.837-0.275-1.01,0.623C109.528,62.848,109.636,62.974,110.319,62.558z
		 M101.472,61.071c4.371-1.996,6.029-2.254,7.805-1.76c0.412,0.114,0.776,0.347,1.006,0.333c0.851-0.052,0.309-1.013-1.219-1.563
		c-1.742-0.629-2.849-0.343-6.199,1.42C100.902,60.533,99.308,62.059,101.472,61.071L101.472,61.071z M114.142,58.649
		c-0.062-0.12-0.328-0.914-0.402-1.204c-0.075-0.29-0.143-0.589-0.225-0.59c-2.028,0.326-3.812-0.056-4.291-0.171
		c-3.067-0.739-6.031-0.589-8.244,0.285c-0.54,0.214-1.21,0.56-1.274,0.62c-0.175,0.165-0.434-0.022-0.433-0.229
		c0-0.242,1.359-1.326,2.216-1.754c2.604-1.302,5.351-1.524,8.368-0.705c1.965,0.761,3.231,0.638,4.488,0.082
		c0.616-0.272,0.179,0.401-0.017,1.296c-0.135,0.619,0.014,1.149,0.038,1.499C114.444,58.625,114.349,59.049,114.142,58.649
		L114.142,58.649z M159.823,237.007v-69.861c-17.428,12.113-25.05,14.521-33.238,17.49c2.738,5.631-3.295,10.451-6.756,4.732
		c-3.562,4.035-8.469,18.168-8.643,22.859c0,0,9.475,16.539,14.097,24.779H159.823z M96.492,214.107
		c0.315-3.516,1.061-9.475,3.38-16.41c0.974-2.91,2.147-6.248,3.807-9.236c0.661-1.045,0.707-1.449,0-1.072
		c-0.444,0.236-2.472,2.541-2.748,3.125c-3.109,6.619-4.548,14.572-5.686,20.646c-0.259,1.363-0.335,3.061-0.335,3.061
		L96.492,214.107z M98.767,213.818c0.74-8.539,3.854-20.068,8.532-27.584c0.44-0.717,0.981-1.338,0.961-1.584
		c-0.061-0.732-1.862,0.531-3.26,2.688c-1.56,3.121-3.124,6.451-4.319,10.139c-1.688,5.205-2.921,10.012-3.401,16.537
		L98.767,213.818z M103.263,213.105c0.469-4.922,1.982-9.436,3.252-13.959c1.552-5.529,3.623-9.6,6.037-13.264
		c0.773-1.176,1.688-2.277,2.557-3.398c0.11-0.133,0.222-0.377,0.196-0.477c-0.558-0.1-1.001,0.076-1.433,0.318
		c-0.602,0.34-1.449,1.199-1.943,1.836c-3.438,4.424-5.288,9.588-7.005,14.807c-1.649,5.012-2.837,9.832-3.069,14.369
		L103.263,213.105z M72.383,209.333c0.691-0.055,1.137,0.076,1.338-0.109c0.198-0.184,0.134-0.68,0.196-1.312
		c0.135-1.355-0.008-1.281-0.844-0.406c-1.388,1.449-3.922,2.008-5.429,1.133c-0.761-0.443-1.289-0.748-1.36-0.381
		c-0.084,0.428,0.031,0.756,0.356,0.984C68.467,210.081,70.199,209.505,72.383,209.333z M70.751,208.294
		c0.961-0.322,1.938-0.84,2.488-1.631c0.525-0.754,0.517-0.861,0.119-0.719c-1.955,0.971-3.238,1.463-4.985,1.195
		c-2.365-0.363-2.464-0.059-0.9,0.93C68.496,208.714,69.345,208.734,70.751,208.294z M67.278,205.269
		c0.366-0.271,0.46-1.383,0.165-1.445c-0.299-0.064-0.734,0.486-0.841,0.936C66.483,205.355,66.92,205.507,67.278,205.269
		L67.278,205.269z M70.941,205.222l0.628-0.059c-0.321-2.783-3.317-2.904-3.87,0.279l0.475,0.07
		C68.792,202.976,70.603,203.046,70.941,205.222L70.941,205.222z M72.915,204.773c0.917-0.516,0.6-1.154-0.637-1.398
		c-0.812-0.191-0.767,0.477-0.346,1.385C72.142,205.21,72.288,205.126,72.915,204.773L72.915,204.773z M65.86,201.361
		c-0.008-0.311-0.134-0.811-0.279-1.111c-1.057-2.184-1.64-4.762-1.52-7.965c0.086-2.297,0.114-3.008-0.359-3.012
		c-0.661,0.322-1.052,4.596-0.21,8.154C64.085,199.937,65.903,203.054,65.86,201.361z M65.834,197.882
		c-0.064-1.199,0.197-3.889,0.067-4.477c-0.172-0.771-0.624-1.467-0.88-1.652c-0.396-0.289-0.496,0.264-0.358,1.705
		C64.985,196.841,65.524,199.402,65.834,197.882L65.834,197.882z M66.168,191.726c0.261-0.475,0.159-0.979-0.416-2.109
		c-2.265-4.457-2.559-7.502-0.192-8.607c0.265-0.125,0.432-0.148,0.607-0.246c0.746-0.418,0.463-1.174-0.653-0.861
		c-3.082,0.863-3.689,3.771-1.092,9.156C65.745,191.743,65.95,192.12,66.168,191.726z M66.73,189.198
		c0.041-0.188,0.12-0.916,0.15-1.064c0.031-0.148-0.279-0.578-0.613-1.438c-0.871-2.244-0.889-3.174,0.059-3.824
		c0.308-0.182,0.624-0.191,0.672-0.4c0.074-0.326,0.069-0.861-0.125-1.016c-1.359,0.01-1.986,0.809-2.225,1.57
		c-0.359,1.201,0.015,2.965,1.082,5.146C66.247,188.855,66.518,190.099,66.73,189.198L66.73,189.198z M67.769,186.294
		c0.727-1.479,0.037-3.396-0.963-2.742c-0.649,0.424-0.683,0.873-0.284,2.105C67.007,187.157,67.294,187.261,67.769,186.294z
		 M70.318,182.337c0.291-0.291,0.033-0.709-0.505-2.342c-0.461-1.4-0.25-2.357,0.628-2.635c1.258-0.312,1.703,1.764,1.968,2.639
		c0.137,0.674,0.577,0.861,0.968,0.391c0.109-0.131,0.141-0.24-0.045-0.977c-0.812-3.217-1.875-4.24-3.586-3.439
		c-1.586,0.742-1.377,2.404-0.228,5.898c0.153,0.469,0.257,0.814,0.367,0.863C69.976,182.775,70.156,182.497,70.318,182.337z
		 M71.722,181.243c0.376-0.375,0.354-0.205-0.076-1.547c-0.49-1.531-0.748-1.85-1.275-1.324c-0.324,0.324-0.16,0.678,0.209,1.932
		C71.009,181.759,71.123,181.841,71.722,181.243L71.722,181.243z M137.462,176.003c2.504-1.74,1.471-4.863-1.822-6.021
		c-0.39-0.137-0.817-0.301-0.952-0.365c-1.513-0.734-2.69-0.961-2.694-0.389c0,0.338,0.452,0.508,1.903,1.221
		c2.147,1.055,2.632,2.271,1.572,3.807C134.705,175.363,136.136,176.63,137.462,176.003z M139.734,172.202
		c0.217-0.893,0.541-1.658,0.695-2.178c0.211-0.816-0.062-0.627-0.598-0.498c-1.379,0.721-2.365,0.328-1.695,1.32
		C138.88,172.167,139.495,173.185,139.734,172.202z M139.562,169.081c1.719-1.037,2.102-3.74,0.502-5.029
		c-0.383-0.309-1.045-0.715-1.848-0.961c-1.627-0.5-3.978-0.729-4.839-0.465c-0.185,0.221-0.192,0.566-0.008,0.666
		c0.239,0.09,0.673,0.15,1.299,0.213c2.394,0.246,3.573,0.963,3.458,2.674c-0.117,1.764-1.518,2.441-4.043,1.885
		c-1.357-0.301-1.99-0.156-1.445,0.164c0.647,0.381,2.041,0.881,3.414,1.152C137.226,169.589,138.566,169.669,139.562,169.081
		L139.562,169.081z M131.311,168.636c1.935-4.377,2.954-15.855-8.103-24.154l0.365,2.297c6.516,5.752,8.08,13.078,6.73,19.799
		L131.311,168.636z M141.183,160.79c-0.691,0.451-1.271,0.922-2.16,1.322c-0.531,0.238-0.545,0.297,0.178,0.695
		c0.35,0.191,0.926,0.545,1.146,0.785c0.383,0.416,0.832,0.576,1.002,0.424C141.331,163.366,141.552,161.212,141.183,160.79z
		 M137.911,161.62c2.238-0.713,3.438-1.799,3.182-3.615c-0.375-2.666-2.586-3.229-6.729-2.188c-1.993,0.502-2.171,1.443-0.279,0.957
		c2.389-0.613,4.264,0.314,4.01,2.076c-0.148,1.52-1.361,2.404-3.491,2.404c-1.124,0-1.472,0.102-1.319,0.51
		C133.388,162.042,136.987,161.913,137.911,161.62z M134.212,155.288c3.662-1.264,5.363-3.229,4.527-5.43
		c-0.984-2.594-4.18-2.619-7.391-0.207c-1.499,1.107-1.27,1.518,0.184,0.953c1.884-0.871,3.096-1.006,3.867-0.312
		c1.393,1.252,0.453,3.436-1.659,4.219c-1.023,0.428-1.353,0.664-1.354,0.975C132.386,155.974,132.569,155.857,134.212,155.288
		L134.212,155.288z M140.388,155.249c0.096-0.768-0.766-3.428-1.137-2.816c-0.1,0.162-0.441,0.914-0.873,1.305
		c-1.26,1.137-1.021,0.705,0.229,1.053C139.302,154.984,140.284,155.478,140.388,155.249z M130.705,149.562
		c3.701-2.16,5.114-5.244,3.196-7.295c-1.725-1.844-4.583-0.77-7.237,2.58c-1.218,1.537-0.303,1.344,1.338-0.117
		c1.911-1.703,4.343-0.881,4.329,1.244c-0.008,0.908-1.279,2.434-2.485,3.143c-0.374,0.221-0.429,0.559-0.296,0.777
		C129.693,150.132,129.992,149.978,130.705,149.562z M137.193,147.308c-0.191-0.58-1.584-3.074-1.885-2.988
		c-0.315,0.639-0.338,1.48-0.717,2.158c-0.517,1.02-0.451,0.859,1.193,0.854C137.007,147.327,137.155,147.501,137.193,147.308
		L137.193,147.308z M126.315,144.49c3.109-3.252,3.384-7.059,0.471-7.934c-1.613-0.486-4.194,0.689-4.201,1.904
		c-0.008,0.754,0.136,0.893,0.79,0.621c2.747-1.029,4.925,1.631,2.401,4.691c-0.614,0.885-0.696,1.107-0.518,1.291
		C125.467,145.279,125.638,145.197,126.315,144.49z M159.823,116.689V30.326h-18.213l-14.455,22.945l-0.021,5.63
		c-0.001,0.194,0.328,0.315,0.541,0.071c0.821-0.641,0.504,0.031-0.44,1.48c-0.955,1.465-0.663,2.672,0.382,4.235
		c2.213,3.315,3.367,9.399,2.426,12.617c-0.356,1.214-0.436,1.705-0.203,2.384c0.266,0.777,0.429,1.192,1.196,1.693
		c0.669,0.469,6.167,2.629,15.022,8.365l-0.045-40.482l5.58-5.388l5.895,5.682l0.207,66.834
		C157.694,117.1,159.823,117.737,159.823,116.689L159.823,116.689z M156.614,49.75l-4.934-4.631l-4.879,4.562
		c-0.025,21.77,0.123,66.45,0.123,66.45l4.85,0.351c0,0,0.355-1.019-0.1-3.654c-0.68-3.954-0.639-8.783,0.457-16.127
		c0.682-4.507,0.008-8.414-1.031-12.528c-0.896-2.741-0.93-5.278-0.766-7.73c0.344-3.911,1.412-6.863,1.543-12.49
		c0.076-3.207-0.076-6.348,0.041-10.304c0.047-0.53,0.27-0.465,0.309,0.082c0.148,3.581,0.287,6.982,0.318,10.479
		c-0.105,4.547-1.209,9.227-1.33,13.389c-0.092,2.884-0.139,3.881,1.07,7.392c1.898,5.518,0.65,13.993,0.627,14.144
		c-0.805,5.431-1.391,12.377,1.326,17.574l2.633,0.236L156.614,49.75z M122.661,90.818c1.456-0.674,1.744-1.864,0.96-4.731
		c-0.14-0.512-0.3-1.119-0.354-1.352c-0.168-0.707-0.483-0.785-0.905-0.222c-0.251,0.336-0.019,0.414,0.367,1.99
		c0.585,2.382,0.245,3.17-0.634,3.165c-0.779-0.005-1.387-0.652-1.609-2.198c-0.075-0.527-0.187-0.888-0.312-1.099
		c-0.213-0.354-0.468-0.29-0.673,0.101c-0.267,0.506,0.233,2.591,0.898,3.602C121.119,91.093,121.615,91.302,122.661,90.818z
		 M122.265,88.678c0.31-0.587-0.075-2.03-0.275-2.977c-0.185-0.527-0.395-0.656-0.741-0.57c-0.517,0.127-0.491,0.696-0.305,1.633
		C121.324,88.672,121.53,88.912,122.265,88.678z M126.691,85.238c1.666-0.957,1.825-2.607,0.706-5.609
		c-0.459-1.23-1.03-2.098-1.346-2.106c-0.124,0.783-0.238,1.2-0.1,1.507c0.13,0.285,0.349,0.723,0.505,1.087
		c0.948,2.215,0.693,3.491-0.223,4.183C125.379,84.945,125.92,85.488,126.691,85.238L126.691,85.238z M72.164,84.084
		c3.908-0.842,7.433-7.17,9.651-12.812c2.022-5.685,4.172-11.931,4.512-17.14c0,0-1.478,0.069-1.658,0.377
		c-0.168,0.303-0.241,0.956-0.398,1.887c-1.019,4.792-1.828,8.431-3.605,12.935c-1.233,3.126-2.58,6.665-5.921,11.418
		c-1.098,1.329-2.354,2.152-3.932,2.374c-0.401,0.056-1.078-0.02-1.248,0.102c-0.3,0.213-0.03,0.696,0.743,0.891
		C70.999,84.29,71.702,84.176,72.164,84.084L72.164,84.084z M126.005,83.344c0.596-0.639,0.654-1.397-0.014-3.001
		c-0.188-0.45-0.273-0.705-0.496-0.643c-0.472,0.133-1.021,1.381-0.696,2.437C125.224,83.513,125.471,83.916,126.005,83.344
		L126.005,83.344z M70.801,82.339c1.145-0.153,2.595-1.07,3.642-2.508c2.153-2.838,3.64-6.065,4.741-8.575
		c0.882-2.022,2.476-6.388,2.908-7.969c0.919-3.358,1.422-5.525,1.841-7.929c0.039-0.222,0.075-0.574,0.01-0.688
		c-0.453-0.125-1.447-0.051-1.752,0.258c-0.549,3.855-1.824,7.724-2.757,10.938c-1.571,5.469-6.054,14.218-8.497,14.63
		c-1.313,0.223-2.819-0.929-2.577-2.109c0.148-0.725,0.247-1.001,0.601-1.183c0.852-0.302,1.347,0.282,0.412,0.663
		c-1.082,0.948,0.866,2.398,2.062,1.386c2.029-1.718-0.951-5.006-3.391-3.494c-2.703,1.674-2.009,4.574-0.309,5.952
		C68.592,82.406,69.585,82.504,70.801,82.339L70.801,82.339z M89.94,78.413c1.67-1.727,2.924-3.961,3.836-6.756
		c1.978-6.274,3.616-13.468,4.21-19.103c0,0-1.426-0.148-1.744,0.155c-0.224,0.214-0.009,0.418-0.616,4.536
		c-1.019,6.003-2.503,11.966-4.652,17.126c-0.88,2.087-1.13,2.343-1.751,3.427C88.354,79.33,88.675,79.719,89.94,78.413z
		 M126.985,65.332c-0.154-0.081-0.142-0.028-0.207,0.018c-0.228,0.158-0.079,0.96,0.438,2.197c1.361,2.214,1.521,6.509,1.432,8.123
		c-0.027,0.485-0.076,0.763,0.068,1.194c0.146,0.423,0.398,0.914,0.807,0.09c0.447-3.18,0.096-6.51-1.114-9.205
		C127.982,66.79,127.564,65.853,126.985,65.332L126.985,65.332z M128.034,74.71c0.238-0.855-0.203-4.249-0.749-5.441
		c-0.221-0.48-0.618-0.519-0.571,0.028c0.009,1.176-0.121,3.412,0,4.074c0.596,1.382,1.059,2.262,1.316,1.339H128.034z
		 M124.952,61.001l-0.643,0.001c0.021,2.219-1.932,2.836-2.652,0.171l-0.578,0.135C121.848,65.069,125.322,63.344,124.952,61.001
		L124.952,61.001z M121.046,62.674c-0.334-0.984-0.195-1.345-1.043-0.901c-0.646,0.338-1.035,0.698-0.124,1.14
		C120.69,63.258,121.257,63.297,121.046,62.674L121.046,62.674z M125.94,62.107c0.269-0.547,0.236-1.039-0.168-1.042
		c-0.312-0.002-0.398,0.248-0.487,0.778C125.127,62.79,125.519,62.965,125.94,62.107z M126.279,58.42
		c0.248-0.08,0.178-0.432,0.111-0.878c-1.06-1.482-3.679-1.029-4.619-0.734c-1.087,0.355-1.359,0.223-2.099-0.118
		c-0.611-0.114-0.697,0.035-0.846,0.329c-0.131,0.259-0.154,0.751-0.196,1.608c-0.036,0.725-0.011,1.061,0.24,0.834
		c0.97-0.877,2.092-1.973,3.729-2.041C124.586,57.338,126.281,58.452,126.279,58.42L126.279,58.42z M119.069,60.427
		c0,0.299,0.251,0.112,0.897-0.296c2.351-1.407,3.712-1.208,5.725-0.537c0.448,0.149,0.726-0.323,0.24-0.726
		C123.54,56.889,120.596,58.151,119.069,60.427z M127.587,51.312l12.752-21.248l-71.048-0.053L81.355,52.57
		C91.193,50.276,107.386,47.347,127.587,51.312z"/>

		<path id="path4098-7-2-7" fill="#E2CF00" d="
		M64.576,217.529c1.505-2.264,8.958,1.768,9.352,3.363c4.411-3.498,9.767-3.752,14.076,0.627c4.431-4.881,9.175-4.547,14.11-1.721
		c-0.552-1.104,6.31-5.973,10.479-2.879l11.278,20.24l-72.25,0.234C55.89,230.939,59.671,223.228,64.576,217.529z M33.018,111.961
		c-0.393-1.095-1.978-12.339,2.044-12.619c6.501,2.904,14.8,13.293,18.645,19.642c4.766,7.867,9.58,25.958,6.921,25.167
		c-0.384-0.113,8.206,8.553,8.799,9.398c0.973,1.393-14.481,27.326-17.034,26.396c-0.771-0.281-5.918-3.377-5.918-3.377l0.148-8.654
		l0.124-17.459l-14.162-1.244l0.497-3.803c4.75,0.395,9.625,1.291,14.023,0.264c2.895-5.34,1.789-13.308-1.691-16.519
		c-1.842-1.129-3.58-0.769-5.449-0.529C32.381,127.347,36.31,114.469,33.018,111.961z M159.837,117.737l0.045,3.192
		c-4.992,1.097-13.814-3.165-16.486,3.7c0.33,7.415,1.979,10.741,3.131,12.979c0.865,2.012,6.936-0.283,9.074,1.746
		c6.135,7.609,4.688,17.742,4.74,26.873l-2.662,1.355c-18.393-10.934-32.517-44.895-34.474-54.564
		c-0.125-6.207,16.876-26.155,16.876-26.155c0.037-0.044,6.193,3.776,6.193,3.776c0.148,0.06-0.131,26.181-0.131,26.06
		C151.005,116.952,155.718,117.429,159.837,117.737z M123.366,93.863c-21.45,37.821-12.678,65.802,3.106,89.949
		c0,0-1.364,0.312-1.516,0.178c-3.456-3.098-5.871-2.555-7.639-2.584c-3.379-0.053-4.313,0.963-6.251,1.156
		c-4.951,0.494-4.549,0.621-8.748-0.973c-5.299-4.355-12.396-7.695-18.044-9.451c-4.528,0.41-11.432,2.566-14.043,0.82
		c18.162-33.781,15.441-55.408-3.36-90.817c1.559,0.463,1.801,1.931,2.969,2.292c3.864,1.505,9.189,0.935,12.382-0.47
		c5.071-2.327,10.49,3.927,26.07,10.808c1.271,0.66,2.875-0.383,4.277-0.669c2.873-0.586,5.335-1.825,7.479-1.1
		C120.737,93.235,123.366,93.863,123.366,93.863z M80.069,49.654c-0.924-1.733-10.382-19.867-10.382-19.867l70.345,0.427
		L129.48,47.709c-0.996,0.949-5.954,3.596-11.011-2.397c-0.095,0.861-7.504,6.188-13.872-0.227
		c-3.832,3.511-7.741,5.544-14.189,1.593C90.264,47.779,85.235,52.721,80.069,49.654L80.069,49.654z"/>

		<path id="path4094-0-9-9" fill="#D40000" d="
		M87.766,221.113c-6.815-6.441-13.911-0.627-13.748-0.258c-2.698-2.766-5.336-5.029-8.892-3.918c0,0,0-0.969,0.027-0.99
		c10.602,1.957,26.839,2.463,45.819-1.543l0.975,2.055c-5.091-1.824-7.714,0.639-9.97,3.512
		C93.808,214.827,91.815,219.339,87.766,221.113z M103.662,146.2l4.822-0.094c0.908,14.154,12.624,35.812,12.905,35.812
		c-0.815-1.143-8.551-0.24-8.493-0.096C108.644,170.37,103.974,158.929,103.662,146.2z M75.54,179.781c0,0-1.552-4.059-2.48-5.795
		c5.062-8.725,9.215-17.756,11.346-27.801l3.448,0.031C86.832,160.081,75.837,181.14,75.54,179.781z M137.571,177.923
		c7.594-13.832,6.283-33.77-15.264-44.787c0,0,0.562-14.614,2.164-14.647c0.361,0.113,9.752-0.122,9.752-0.122
		c2.461-6.094,6.42-13.465,11.951-18.441l0.139,16.335c-4.094,0.408-6.59,1.727-7.83,4.959l-5.674,1.274
		c0.417,16.41,6.535,31.572,24.678,45.189c-4.336,3.762-19.154,11.396-19.098,11.264L137.571,177.923z M46.663,167.613l0.16-17.01
		c2.752-0.6,4.92,0.205,7.191-4.771c0,0,3.812,1.826,5.079,2.5C55.53,154.767,52.454,161.644,46.663,167.613z M82.783,137.497
		l0.187-8.636l8.123,0.236c-0.689,2.929-0.905,5.857,0.016,8.785L82.783,137.497z M101.315,137.392
		c0.555-2.826,0.95-5.667-0.2-8.666l8.796,0.151l-0.207,8.6L101.315,137.392z M84.588,120.506
		c-1.464-16.938-12.961-36.109-13.122-35.701c1.354,0.219,3.739,0.896,5.053,0.269c1.59,0.267,2.967,0.085,3.042-0.063
		c0.106-0.592,10.688,24.593,9.275,35.457C88.668,120.834,84.933,120.858,84.588,120.506L84.588,120.506z M104.917,120.654
		c1.241-7.824,4.445-22.138,12.012-33.745c0.86,2.061,1.582,4.18,2.762,6.106c-5.705,8.379-9.221,17.956-11.354,27.732
		L104.917,120.654z M52.324,116.436c-3.462-7.13-17.864-18.354-17.128-17.22c5.962-5.396,12.611-8.821,19.248-12.283
		c0,0,1.18,1.131,1.001,1.416c-4.08,6.492-6.059,20.247-2.107,28.13c3.796,8.421,10.531,13.398,17.397,17.307
		c-0.531,5.264-0.791,9.071-2.073,14.305c0,0-4.314-2.291-7.851-3.766C60.249,134.384,58.211,125.491,52.324,116.436L52.324,116.436
		z M90.47,46.572c5.076,3.125,9.623,2.795,14.03-1.444c5.533,5.068,11.517,2.708,14.046,0.423c2.34,2.661,5.389,4.138,9.847,3.259
		l-1.104,2.34c0.264-1.243-30.747-3.273-45.752,0.968c0,0-0.877-1.766-0.779-1.78C82.064,50.257,86.409,51.882,90.47,46.572
		L90.47,46.572z"/>

		<path id="path4092-7-7-9" d="
		M68.655,29.224L81.191,52.8c0,0,0.367-0.067,0.551-0.104c17.375-3.428,31.135-3.897,45.915-1.272l13.14-21.948
		C116.883,29.2,68.655,29.224,68.655,29.224z M70.053,30.228l69.706,0.078l-3.92,6.493c-2.35-0.731-3.658,0.355-3.986,2.627
		c0,0-0.291-0.126-0.835-0.186c-3.436-0.375-3.869,4.196-0.663,4.748c0.819,0.141,0.958-0.023,0.958-0.023
		c-2.86,2.427-4.485,0.789-5.831-0.012c-0.037,0.283-2.564,2.201-4.947-0.093c3.413,0.344,3.944-3.109,2.312-4.423
		c-0.342-0.339-0.689-0.604-0.689-0.604c0.804-0.706,0.979-1.646,0.464-2.721c-1.035-2.161-4.279-2.035-4.774,0.325
		c-0.193,0.919-0.199,1.08-0.199,1.08c-2.619,0.172-3.151,2.669-2.252,4.055c0.512,0.788,1.638,0.959,2.677,0.906
		c-1.4,2.003-4.606,1.321-6.034-0.329c-2.269,2.692-4.854,2.364-6.145,0.921c0.876-0.01,1.48-0.022,2.285-0.774
		c1.377-1.285,0.7-3.564-1.244-4.202c-0.377-0.124-0.648-0.149-0.67-0.15c0.014-0.02,0.051-0.146,0.134-0.832
		c0.483-3.976-5.413-3.583-4.843,0.328c0.066,0.454,0.188,0.697,0.188,0.697s-0.626-0.035-0.984,0.131
		c-3.274,1.525-1.019,5.724,1.512,4.644c0.24-0.103,0.894-0.426,0.988-0.422c-3.135,3.925-5.766,1.144-6.459,0.716
		c-2.117,3.172-5.794,1.008-5.869,0.786c0.229,0.064,0.918-0.079,1.573-0.418c2.071-1.091,1.485-3.897-0.13-4.508
		c-0.495-0.175-1.094-0.193-1.766-0.14c0,0,0.052-0.707-0.015-0.956c-1.019-3.821-5.726-1.913-4.568,1.315
		c0.102,0.284,0.376,0.569,0.376,0.569s-0.639,0.392-0.923,0.65c-2.247,2.041,0.04,5.409,2.665,4.009
		c0.338-0.181,0.667-0.561,0.762-0.538c-1.235,2.278-3.109,3.074-5.781,1.188c-1.648,2.64-4.338,1.543-5.097,0.221
		c2.513,0.232,4.145-4.632-0.686-4.79c-0.375-1.321-0.356-3.334-3.419-2.987L70.053,30.228z M104.094,38.575
		c0.554,0,0.999,0.455,0.999,1.015c0,0.559-0.445,1.014-0.999,1.014s-1.003-0.455-1.003-1.014
		C103.091,39.03,103.54,38.575,104.094,38.575z M119.669,38.695c0.586,0,1.061,0.483,1.061,1.076c0,0.592-0.475,1.071-1.061,1.071
		s-1.061-0.479-1.061-1.071C118.609,39.178,119.083,38.695,119.669,38.695z M89.139,39.868c0.565,0,1.022,0.462,1.022,1.033
		s-0.457,1.037-1.022,1.037s-1.026-0.466-1.026-1.037S88.573,39.868,89.139,39.868z M132.874,41.14l-0.888,1.595
		C131.006,41.867,131.682,40.729,132.874,41.14z M76.944,43.339l-0.883-1.648C77.642,41.799,77.176,42.942,76.944,43.339z
		 M103.964,42.441c5.981,6.889,11.347,4.851,14.855,0.271c1.504,3.904,4.857,6.604,10.628,3.979
		c-0.349,0.624-1.225,1.726-1.225,1.726c-5.101,1.389-7.632-1.037-9.599-3.348c-5.188,4.354-10.074,3.298-14.105-0.541
		c-3.44,4.378-9.013,5.318-14.17,1.745c-2.357,3.517-5.74,4.937-9.993,3.177c0,0-0.902-1.434-0.979-1.524
		c0.615,0.522,8.448,3.808,10.36-4.095C92.463,48.507,101.402,48.755,103.964,42.441L103.964,42.441z M104.565,45.273
		c6.729,6.359,13.791,0.86,13.972,0.473c0.105,0.354,3.945,4.988,9.483,3.246l-0.899,1.56c-10.42-1.781-20.005-2.926-41.956,0.337
		c0,0,3.504-1.049,5.276-3.874C91.427,47.663,99.042,51.958,104.565,45.273z M80.98,50.544c0,0,2.93,0.348,3.159,0.406
		c0.257,0.202-2.467,0.957-2.478,0.901L80.98,50.544z M86.918,80.885c-0.177,0.005-0.398,0.207-0.766,0.572
		c-0.795,0.79-0.976,0.895-1.746,1.006c-0.581,0.085-1.81,0.799-2.554,1.486c-0.201,0.186-0.586,0.341-1.045,0.422
		c-0.399,0.07-0.949,0.165-1.222,0.213c-0.272,0.047-0.568,0.134-0.658,0.189c-0.392,0.24-1.028,0.277-1.742,0.104
		c-0.688-0.167-0.8-0.163-1.559,0.073c-1.105,0.344-1.829,0.345-2.374,0c-0.544-0.345-1.408-0.473-1.956-0.294
		c-0.812,0.265-2.911-1.006-2.906-1.757c0-0.171-1.193-1.074-1.493-1.076c-1.064-0.159-10.416,3.572-10.368,3.789
		c11.483,14.333,21.149,36.172,13.868,62.895l-1.287-0.623c1.081-4.857,1.51-9.746,1.842-14.711
		c-21.554-9.404-23.408-31.273-15.043-45.08l-1.42-1.529c-5.07,2.734-10.221,4.286-22.751,14.91l0.034,17.196
		c0.031,15.546,0.023,30.693,0.023,30.693c4.535,0.508,9.528,0.922,14.453,1.35c0,0-0.062,15.375-0.176,21.389
		c-0.096,5.086,0.092,4.766,0.092,4.766l16.311,8.691c-1.146-4.578,1.683-6.395,4.051-6.205c-1.047-4.414,1.552-6.434,4.518-5.867
		c2.004,0.383,2.705,1.5,3.853,5.189c0.187,0.6,0.442,1.4,0.442,1.4l1.143-0.041c1.432-3.105,2.387-7.059,5.754-7.57
		c4.406-0.67,6.047,2.389,6.045,5.449c4.27-3.803,9.384-0.859,9.051,4.82c2.148-1.396,5.789-2.658,8.082,2.725
		c0.861-0.184,1.301-1.154,2.514-1.459c0.453-0.096,1.482-0.654,1.482-0.654l0.012-0.186c0,0,0.953-0.334,2.231-0.545
		c1.097,0.412,0.776,0.398,1.368-0.338c0.658-0.342,1.725-0.566,2.549-0.49c0.863,0.078,1.248,0.141,1.754-0.082
		c0.788-0.348,1.524-0.436,1.99,0.09c0.336,0.377,0.82,0.195,1.341,0.174c1.04-0.043,2.427,0.389,2.86,1.334
		c0.637,0.658,2.032,1.324,2.032,1.324l1.13-0.264l0.13-0.422l9.239-3.564c-18.839-20.848-18.348-48.504-13.91-62.504l1.704,0.828
		c-0.904,4.149-1.93,8.411-1.796,14.597c16.965,7.644,25.404,27.404,15.119,44.65l1.088,1.42c4.279-1.814,15.041-7.922,18.762-11.24
		l0.793,0.066c0,0,2.254-1.477,3.25-2.264l0.133-45.77l-0.787,0.209l-0.143-2.674l-13.986-1.122
		c0.178-0.135,0.312-0.189,0.352-0.457l-0.08-25.338c-0.52-0.803-12.234-7.737-16.59-9.36c-0.175,0-0.055,0.297,0.008,1.021
		c0.214,2.486-1.446,4.698-3.369,4.702c-0.692,0.002-0.812,0.299-0.777,1.726c0.049,2.029-0.677,3.393-2.791,4.164
		c-2.507,0.914-4.203-0.411-5.598-5.623c-0.367-1.368-1.083-1.026-1.77,0.844c-0.34,0.928-1.443,3.181-2.102,4.369
		c-0.508,0.912-1.311,1.317-2.4,1.803c-0.851,0.425-2.691,0.352-3.752-0.193c-1.924-0.987-2.67-2.174-3.225-5.111
		c-0.072-0.385-0.322-0.352-0.945,0.123c-3.396,2.586-8.172-0.087-8.144-4.558c0.008-1.312-0.045-1.365-0.808-0.735
		c-2.303,1.9-5.433,0.937-6.686-2.059C87.304,81.19,87.148,80.878,86.918,80.885L86.918,80.885z M67.4,82.471
		c0.24-0.011,0.987,0.995,0.987,0.995c0.69,0.771,1.616,1.16,2.581,1.733c0.09-0.137,11.243,14.992,13.14,35.851l5.188,0.027
		c-0.968-20.268-6.499-30.01-9.036-36.262l1.86-0.596c4.173,8.08,9.259,24.479,9.09,38.835h-8.568
		c-1.21-14.38-6.743-28.4-14.48-39.036c-0.539-0.816-0.961-1.387-0.805-1.532C67.368,82.476,67.383,82.472,67.4,82.471L67.4,82.471z
		 M64.118,84.611l0.869,2.756c0,0,0.104-0.644,0.371-0.887c1.693-1.542,3.313,0.488,2.55,3.243
		c-0.175,0.848-0.513,2.519-0.513,2.519s-1.701-0.882-2.558-1.164c-2.361-1.014-3.147-3.013-1.344-3.239
		c0.302-0.038,0.923-0.065,0.923-0.065c-0.75-0.596-2.405-1.958-2.405-1.958L64.118,84.611z M72.044,84.921
		c0.713,0.409,2.553,0.851,3.61,0.449c0.854-0.324,1.504-0.146,2.393-0.069c0.51,0.044,1.524-0.183,1.524-0.183
		c5.072,10.786,8.562,23.583,9.143,35.287l-3.989,0.022c-1.507-12.433-6.268-25.062-12.31-34.431
		C72.148,85.589,71.792,84.936,72.044,84.921L72.044,84.921z M88.71,85.107c1.545,0.019,3.161,1.574,4.039,4.121
		c0.489,1.418,0.681,1.332,1.337,1.103c1.685-0.584,3.479,1.286,1.222,1.598c-2.217,0.37-0.952,4.753-1.142,5.139
		c-0.898,0.159-2.586-3.565-2.542-4.674c0.107-2.717-2.417-4.988-3.986-3.847c-0.743,0.541-0.662,0.923-0.892,0.728
		c-0.706-0.6-0.849-2.252-0.023-3.188C87.32,85.409,88.008,85.098,88.71,85.107z M134.602,86.043c0,0,0.087,3.572-0.046,4.361
		c-0.264,2.381-3.341,2.632-3.461,0.728c-0.503,0.761-0.849,1.707-1.049,2.558l-2.183-1.517c0.829-0.602,1.619-1.129,2.232-1.873
		c-1.618,0.124-2.522-1.291-1.44-2.496C129.859,86.424,133.184,86.275,134.602,86.043L134.602,86.043z M54.359,87.174l0.965,1.099
		c-8.6,15.405-5.567,35.098,15.188,45.444c-0.137,4.726-0.736,9.505-1.853,13.941l-7.658-3.752
		c0.052-17.418-9.706-34.023-25.285-44.938C41.369,94.378,47.622,90.345,54.359,87.174L54.359,87.174z M117.058,87.304
		c0.365,2.034,2.271,5.718,2.408,5.507c-0.02-0.121-7.93,10.239-11.367,27.566l-2.937,0.012
		C107.087,108.844,110.929,97.949,117.058,87.304z M141.437,87.789l1.562,0.955c-8.197,6.936-13.596,15.729-17.56,25.21l-2.071-0.99
		C129.515,99.209,135.588,93.1,141.437,87.789L141.437,87.789z M143.622,89.325c0.43,0.027,0.938,0.576,1.727,1.014
		c0.771,0.428,0.58,0.654-0.873,1.779c-1.717,1.331-1.879,1.272-1.865-0.626c0.01-1.26,0.326-2.1,0.928-2.164
		C143.566,89.325,143.595,89.323,143.622,89.325L143.622,89.325z M141.736,91.283c0.09-0.005,0.162,0.024,0.209,0.101
		c0.127,0.502,0.113,1.653-0.088,2.79c-0.162,0.747-2.365,2.627-3.15,3.37c-0.314,0.209-0.459,0.133-0.518-0.24
		c0.025-0.59,0.082-1.375,0.094-2.175c0-0.246-0.049-0.504,0.172-0.692C139.534,93.148,141.105,91.316,141.736,91.283z
		 M145.827,91.894c0.014,0,0.021,0.002,0.031,0.008c0.203,0.123,0.17,2.705,0.027,2.875c-0.639,0.167-2.357-0.106-2.799-0.345
		C142.989,94.133,145.415,91.877,145.827,91.894L145.827,91.894z M69.05,92.73l0.597,2.53c0,0,0.171-0.34,0.215-0.406
		c1.187-1.835,2.631-0.759,2.607,1.788c-0.008,0.804-0.731,4.02-0.731,4.02s-4.455-2.162-4.805-3.11
		c-0.345-0.934,0.145-1.755,0.965-1.831c0.307-0.035,0.628-0.061,0.979,0l-1.914-1.977L69.05,92.73z M120.056,93.066l2.021,0.755
		c-4.216,6.931-8.566,13.776-11.734,29.39h-8.473c1.185-9.542,3.586-18.922,7.871-28.051c0,0,1.664-0.517,2.604-0.824
		c0,0-7.003,16.194-7.818,26.607l4.094,0.089C110.804,110.885,114.892,100.369,120.056,93.066z M104.014,93.318
		c1.138-0.043,1.978,0.766,1.914,2.201c-0.015,1.313-0.134,1.504-1.053,0.979c-1.207-0.688-2.161-0.704-3.243,0.077
		c-0.595,0.43-1.18,0.785-1.18,0.785s0.522-2.28,1.321-2.998C102.539,93.675,103.33,93.344,104.014,93.318z M99.668,96.692
		c-0.083,0.771-0.308,1.125-0.509,1.784c0,0,0.662-0.261,0.979-0.41c1.506-0.71,3.075,0.604,3.052,2.144
		c0.068,1.026-1.037,2.257-2.352,2.268c-0.458,0.004-0.943-0.143-1.412-0.495c0.34,1.881,0.407,2.751-0.953,3.695
		c-1.14,0.766-3.539-0.109-3.404-2.214l0.084-1.296l-1.152,0.15c-3.219,0.134-3.275-3.871-0.678-4.5
		c1.037-0.248,2.164,0.611,2.164,0.611c-0.494-0.981-0.504-2.671,0.16-3.451C97.282,93.057,99.868,94.803,99.668,96.692
		L99.668,96.692z M127.775,94.192c0.176,1.499,0.766,3.133,0.598,4.531c-0.251,1.788-1.755,2.847-2.938,1.688
		c-0.146-0.144-0.409-0.441-0.409-0.441c-0.532,0.683-0.865,2.612-0.865,2.612l-2.087-1.301c0,0,1.449-1.027,1.85-1.613
		c0.111-0.163,0.164-0.472,0.164-0.472c-1.161,0.366-2.146-0.834-1.83-1.893C122.886,95.569,126.009,94.926,127.775,94.192
		L127.775,94.192z M142.359,95.276c0.781-0.024,1.99,0.199,2.945,0.302c0.734,0.129,0.326,0.548-1.318,2.167
		c-1.51,1.487-1.463,1.347-2.627,1.327c-2.717-0.047-3.193,0.016-1.611-1.711c0.83-0.904,1.553-1.721,2.148-2.023
		C142.021,95.301,142.179,95.282,142.359,95.276L142.359,95.276z M137.458,95.59c0.035,0.001,0.062,0.015,0.088,0.038
		c0.18,0.17,0.119,0.944,0.1,2.09c-0.021,1.219-0.008,1.22-0.514,1.857c-0.643,0.814-1.178,1.646-1.849,2.43
		c-0.582,0.638-0.563,0.57-0.911-0.963c-0.338-1.487-0.15-1.95,1.746-4.105C136.759,96.104,137.216,95.578,137.458,95.59z
		 M145.946,96.437l0.023,3.014c-5.609,5.543-9.42,11.777-12.012,18.647l-1.952-0.785
		C135.389,108.535,140.452,101.688,145.946,96.437L145.946,96.437z M97.328,98.26c-0.927,0-1.677,0.758-1.677,1.694
		c0,0.938,0.75,1.699,1.677,1.699s1.681-0.762,1.681-1.699C99.009,99.017,98.255,98.26,97.328,98.26z M97.318,98.794
		c0.64,0,1.16,0.525,1.16,1.172c0,0.647-0.521,1.173-1.16,1.173c-0.641,0-1.156-0.525-1.156-1.173
		C96.161,99.319,96.678,98.794,97.318,98.794z M35.009,99.51c17.494,11.344,25.338,28.929,25.304,44.035l-0.988-0.449
		c-1.023-21.345-12.504-34.47-24.913-42.962L35.009,99.51z M138.583,99.672c0.396,0.002,0.936,0.063,1.717,0.155
		c1.447,0.077,1.625,0.17,0.627,1.327c-0.273,0.316-0.797,0.979-1.168,1.478c-0.369,0.499-0.82,1.02-1.025,1.092
		c-0.305,0.105-2.848-0.016-3.573-0.116c-0.237-0.033,0.074-0.278,1.313-2.066c0.949-1.371,1.051-1.824,1.949-1.865
		C138.474,99.674,138.527,99.672,138.583,99.672L138.583,99.672z M145.87,100.252c0,0,0.348,9.73,0.096,15.936
		c-3.99-0.149-6.336,1.382-7.309,4.279l-4.193-2.098C137.54,110.385,141.653,104.828,145.87,100.252z M133.518,100.476
		c0.227,0.004,0.356,0.478,0.422,1.413c0.264,1.672,0.234,1.867-0.456,2.94c-0.344,0.534-0.815,1.289-1.045,1.68
		c-0.4,0.681-0.686,0.883-0.785,0.553c-0.546-1.805-0.719-2.921-0.524-3.285c0.318-0.598,1.808-2.736,2.018-3.015
		C133.292,100.57,133.415,100.475,133.518,100.476z M33.722,100.658c14.062,8.8,24.351,23.829,24.775,41.986
		c0,0-2.996-1.422-4.847-2.461l-0.096-1.766l0.976-0.031l0.314,1.99l2.147-0.07l-0.57-4.965l-3.361,0.322l-0.678-2.814l1.019-0.221
		l0.562,1.814l2.187-0.584l-1.164-4.423l-3.377,0.933l-1.079-2.987l1.121-0.406l0.907,1.788l2.057-0.724l-1.941-4.435l-3.105,1.481
		l-1.577-2.895l1.214-0.653l0.977,1.722l1.922-1.006l-2.378-4.079l-2.948,1.664l-1.481-2.244l0.915-0.646l1.011,1.181l1.688-1.208
		l-2.589-3.517l-2.821,2.232l-2.087-2.441l0.961-0.824l1.437,1.3l1.604-1.416l-3.074-3.39l-2.688,2.477l-2.002-1.757l0.979-1.096
		l1.248,0.964l1.329-1.591l-3.347-2.785l-2.508,2.507l-2.404-1.605v-1.196c0.781,0.305,1.607,0.659,2.348,1.057l1.244-1.903
		l-3.592-2.45L33.722,100.658z M72.886,101.409l0.532,3.104c0.505-0.844,0.907-1.425,1.999-1.099
		c1.312,0.54,1.329,2.536,0.218,5.591c-0.206,0.566-0.46,1.057-0.46,1.057s-0.574-0.241-0.957-0.507
		c-0.802-0.555-2.153-1.182-2.844-2.283c-0.724-1.152-0.74-2.765,0.589-2.627c0.265,0.001,0.785,0.128,0.785,0.128l-1.995-2.569
		L72.886,101.409z M32.948,102.334l2.436,1.587l-0.506,0.929l-1.93-0.879V102.334z M93.997,103.065
		c0.706,0.997-1.776,3.935,1.471,5.108c0,0,0.08,0.676-0.598,1.087c-1.588,1.168-3.87-0.964-3.162-3.157
		C92.161,104.7,93.47,103.073,93.997,103.065z M100.736,103.158c0,0,0.979,0.724,1.175,0.913c1.809,1.753,1.826,4.265,0.188,5.143
		c-1.089,0.585-2.32,0.114-2.748-0.734c-0.198-0.394,0.127-0.804,0.543-0.802c0.78,0.005,1.376-1.505,1.145-3.096
		C100.947,103.952,100.736,103.158,100.736,103.158z M122.069,103.743c0,0,0.216,2.147,0.525,3.099
		c0.949,2.67-0.264,4.296-2.037,3.401c-0.254-0.127-0.701-0.708-0.701-0.708l-0.176,3.068l-2.523-0.742
		c0.546-0.887,1.332-1.518,1.918-2.516c0,0-0.377-0.014-0.708-0.016c-1.507,0.053-2.062-1.636-0.482-3.025
		C119.063,105.278,122.069,103.743,122.069,103.743L122.069,103.743z M135.26,104.455c0.306-0.003,0.687,0.022,1.21,0.022
		c1.602,0.002,2.012-0.218,1.307,0.79c-0.275,0.393-0.947,1.485-1.145,1.857c-0.404,0.755-0.484,0.992-1.157,1.142
		c-0.974,0.194-2.077,0.06-3.189,0.112c-0.241-0.013,0.255-0.851,0.532-1.37c0.68-1.275,1.094-2.15,1.677-2.419
		C134.724,104.484,134.955,104.457,135.26,104.455L135.26,104.455z M130.314,105.441c0.193-0.01,0.336,0.34,0.521,1.064
		c0.43,1.689,0.54,1.731-0.153,3.118c-0.35,0.7-0.945,1.886-1.19,2.376c-0.629,1.259-0.665,1.246-1.061,0.12
		c-0.76-2.16-0.826-1.938,0.429-4.364C129.642,106.24,130.03,105.457,130.314,105.441z M38.032,106.033l2.264,1.834l-0.644,0.631
		l-1.252-0.933l-1.849,2.001l3.039,2.802l2.574-2.562l2.205,2.329l-0.674,0.576l-1.295-1.261l-1.938,1.671l2.891,3.452l2.914-2.244
		l1.826,2.418l-0.746,0.473l-1.191-1.169l-1.895,1.327l2.358,3.359l2.971-1.723l1.688,2.806l-0.938,0.457l-0.957-1.54l-2.133,1.241
		l2.014,3.928l3.208-1.354l1.29,2.999l-0.979,0.402l-0.823-1.803l-2.159,0.863l1.447,4.124l3.254-0.943l0.789,3.064l-1.003,0.282
		l-0.494-1.698l-2.071,0.503l0.865,4.141l3.312-0.213l0.395,3.346l-1.029,0.047l-0.257-1.996l-2.11,0.027
		c0.012,0.703,0.092,2.139,0.092,2.139l-1.274-0.596c-1.895-12.727-8.649-23.334-18.715-30.72l-0.054-1.521l2.45,1.571
		C35.399,108.572,37.646,106.549,38.032,106.033z M134.705,109.002c0.702-0.006,0.392,0.544-0.464,2.189
		c-0.953,1.836-1.123,1.874-2.91,2.314c-2.172,0.535-2.108,0.655-0.934-1.877c0.453-0.977,0.783-1.831,1.198-2.155
		c0.545-0.426,1.6-0.263,2.745-0.438C134.484,109.014,134.605,109.002,134.705,109.002L134.705,109.002z M33.068,109.543
		c10.452,6.815,17.06,20.912,17.88,29.458c0,0-0.283-0.191-0.854-0.455c-0.793-0.369-0.987-0.609-1.218-1.773
		c-2.07-10.451-7.908-19.32-15.763-25.582L33.068,109.543z M127.327,111.288c0.442-0.093,1.248,3.115,1.007,3.788
		c-0.173,0.484-1.728-0.658-2.294-0.901C125.758,114.053,127.028,111.351,127.327,111.288L127.327,111.288z M76.922,111.435
		l-0.05,3.328c0,0,0.396-0.477,0.601-0.627c0.778-0.573,1.966,0.221,2.011,1.203c0.062,1.362-0.142,1.915-1.222,3.808
		c-0.334,0.586-0.839,1.331-0.839,1.331s-1.274-0.919-2.668-2.321c-1.507-1.517-1.219-3.542,0.1-3.549
		c0.395-0.003,0.746,0.133,1.091,0.244c-0.284-0.98-1.344-2.883-1.344-2.883L76.922,111.435z M117.778,113.927
		c0,0,0.682,0.908,1.466,3.297c0.749,2.281-0.403,3.998-1.968,3.138c-0.28-0.154-0.574-0.487-0.574-0.487
		c-0.109,1.105,0.085,3.095,0.111,3.111l-2.523-0.445c0,0,1.386-2.225,1.485-2.774c0,0-0.156,0.124-0.85,0.124
		c-2.535-0.002-2.01-3.05,0.919-4.74C116.284,114.896,117.778,113.927,117.778,113.927L117.778,113.927z M132.312,113.966
		c0.549-0.024,0.29,0.513-0.317,1.765c-0.671,1.386-0.503,1.266-1.922,0.534c-1.984-0.979-1.867-1.133,0.647-1.818
		C131.514,114.149,132.025,113.979,132.312,113.966z M96.329,114.372c1.987,0.013,3.453,1.994,3.159,4.811
		c-0.505,4.834-0.215,4.536,0.306,5.019c0.949,0.879-0.335,1.406-1.466,0.568c-0.787-0.583-1.044-1.159-1.007-3.826
		c0.042-3.066-0.121-3.848-1.206-3.58c-0.677,0.168-0.891,0.749-0.815,2.817c0.105,2.902-0.085,3.633-1.176,4.562
		c-1.176,0.919-2.444,0.1-1.37-0.507c0.491-0.559,0.583-1.269,0.394-3.022C92.941,119.719,92.079,114.346,96.329,114.372z
		 M146.21,116.818c3.824,0.145,13.494,0.939,13.494,0.939l0.084,2.887c-0.432,0.27-7.648-0.843-12.957-0.742
		c-1.24,0.023-2.119,0.577-3.018,0.112c0.861,0.36,0.783,4.715-3.014,3.66c-3.219-1.17-1.65-5.568,2.467-6.679
		C144.327,116.848,145.241,116.802,146.21,116.818L146.21,116.818z M124.18,118.745l8.263,4.117
		c1.156,15.676,6.512,32.239,24.75,44.793c-2.955,2.137-10.367,7.385-18.838,10.979l-0.693-0.75
		c10.059-17.287,2.459-36.314-15.154-44.926C122.554,128.16,123.151,123.427,124.18,118.745z M153.245,121.372
		c1.584-0.062,1.996,0.122,2.131,0.848c0.129,0.686,0.633,0.847,1.23,0.627c1.453-0.535,2.342,2.071,1.137,3.228
		c-0.748,0.718-0.617,0.994,0,0.998c1.518,0.01,1.475,2.019-0.068,3.157c-0.641,0.473-0.633,0.688,0.037,1.022
		c1.123,0.56,0.896,1.666-0.527,2.576c-0.775,0.496-0.801,0.617-0.16,0.794c1.611,0.443-0.033,2.764-1.797,2.352
		c-0.723-0.168-1.41-0.01-2.102,0.445c-1.889,0.795-2.205,0.953-4.242,0.697c-1.789-0.332-2.59-0.928-3.051-2.516
		c-1.051-3.229-2.182-6.806-2.195-10.332c-0.158-2.165,3.432-4.122,5.133-4.206c1.385-0.211,2.973,0.295,4.479,0.309H153.245z
		 M40.232,121.427c1.898,0,3.438,1.556,3.438,3.475s-1.539,3.475-3.438,3.475c-1.899,0-3.439-1.556-3.439-3.475
		S38.332,121.427,40.232,121.427z M78.442,122.448l-0.31,3.037c0,0,0.505-0.398,0.624-0.499c0.894-0.755,2.308,0.09,1.987,1.266
		c-0.105,1.036-1.876,4.117-2.581,4.764c0,0-2.84-3.127-3.144-3.738c-0.675-1.359,0.247-2.775,1.475-2.175
		c0.175,0.086,0.682,0.465,0.682,0.465l-0.9-2.883L78.442,122.448z M40.46,122.692c-1.215,0.041-2.368,0.795-2.213,1.799
		c0.104,0.429,0.752-0.19,1.391-0.596c0.488-0.311,1.077-0.36,1.635-0.116c0.494,0.178,0.705,0.638,0.991,0.994
		c0.243,0.301,0.509,0.547,0.659,0.398c0.127-0.159,0.076-0.358,0.042-0.537C42.703,123.266,41.583,122.658,40.46,122.692
		L40.46,122.692z M133.051,123.164l1.229,0.635c1.654,22.154,12.738,35.179,24.385,42.937l-0.926,0.564
		C143.446,158.046,133.523,141.466,133.051,123.164z M134.911,124.073c0,0,3.086,1.597,4.703,2.333l0.061,2.005l-1.08,0.039
		l-0.367-1.885l-2.244,0.162l0.701,4.636l3.619-0.448l0.504,2.802l-1.225,0.259l-0.627-1.722l-2.076,0.511l1.344,4.504l3.262-1.064
		l1.023,2.945l-1.096,0.402l-0.701-1.727l-2.146,0.758l1.662,4.396l3.395-1.104l1.371,2.752l-1.029,0.461l-0.984-1.707l-2.037,1.053
		l2.389,4.105l3.068-1.625l1.432,2.193l-1.127,0.764l-1.021-1.344l-1.65,1.1l2.643,3.645l2.641-2l1.977,2.303l-0.873,0.781
		l-1.348-1.383l-1.598,1.441l3.148,3.49l2.732-2.4l1.941,1.826l-0.574,0.611l-1.305-0.824l-1.73,1.857l3.303,2.906l2.623-2.906
		l2.225,1.656v1.223l-1.986-1.018l-1.332,2.027l3.318,2.539l-0.023,0.998C140.864,154.976,135.878,137.255,134.911,124.073
		L134.911,124.073z M96.115,124.294c0.819-0.025,1.684,0.754,3.112,2.426c3.994,4.676,2.928,11.909-2.293,15.68
		c-0.761,0.549-1.066,0.5-1.994-0.307c-5.355-4.648-5.664-10.868-0.896-16.329C94.868,124.82,95.479,124.313,96.115,124.294
		L96.115,124.294z M115.255,124.936c0.984,1.525,2.228,3.095,2.37,4.949c-0.07,1.832-1.293,2.169-2.558,1.103
		c-0.16,0.962,0.383,2.836,0.383,2.836l-2.29-0.247c0,0,0.898-1.586,0.935-2.577c-1.59,1.119-2.805-0.34-2.588-1.517
		C111.961,127.481,113.589,126.132,115.255,124.936L115.255,124.936z M96.184,126.132c-0.188,0.016-0.383,0.146-0.681,0.387
		c-1.396,1.131-2.491,2.537-3.06,3.998c-1.2,3.082-0.417,6.555,2.29,9.252c1.375,1.369,1.858,1.275,3.966-1.557
		c1.766-2.371,2.133-5.434,1.046-8.095c-0.531-1.298-1.492-2.563-2.646-3.482C96.656,126.282,96.425,126.112,96.184,126.132
		L96.184,126.132z M140.23,126.701l1.777,0.882c2.266,15.108,9.613,24.327,17.846,30.682l-0.016,1.4l-2.209-1.73l-2.646,2.799
		l-2.143-1.777l0.803-0.789l1.223,0.785l1.561-1.768l-3.074-2.771l-2.68,2.35l-2.232-2.322l0.678-0.572l1.543,1.363l1.727-1.549
		l-2.986-3.387l-2.672,2.049l-1.865-2.5l0.812-0.488l0.977,1.354l2.059-1.295l-2.178-3.387l-3.105,1.609l-1.588-2.895l0.902-0.436
		l1.031,1.625l1.934-0.941l-1.945-3.992l-3.174,1.059l-1.168-3.141l0.906-0.338l0.801,1.857l2.148-0.695l-1.459-4.299l-3.281,0.936
		l-0.812-3.162l1.016-0.221l0.531,1.707l2.256-0.457l-0.826-4.094l-3.359,0.43c-0.111-0.695-0.605-2.569-0.596-3.277l1.033-0.085
		l0.324,1.803l2.26-0.077L140.23,126.701z M96.303,127.029c1.231,0.171,2.734,2.566,3.074,3.437
		c0.648,1.721,0.703,3.714,0.111,5.258c-0.485,1.264-1.933,3.506-2.853,4.137c-0.742,0.406-1.363,0.105-2.424-1.35
		c-2.094-2.877-2.499-6.337-0.846-8.707C94.629,127.994,95.566,127.028,96.303,127.029L96.303,127.029z M142.612,127.776
		l0.891,0.426c1.096,8.754,6.23,20.77,16.334,27.958v1.1C151.98,151.558,144.765,141.728,142.612,127.776L142.612,127.776z
		 M96.146,128.373c-3.519,2.68-2.955,6.876-0.29,9.705C98.727,136.156,99.742,130.969,96.146,128.373z M42.448,128.551
		c1.984-0.047,3.242,0.652,3.848,2.043c0.938,2.16,1.066,2.569,1.26,3.703c0.109,0.648,0.28,1.625,0.375,2.171
		c1.03,5.869,0.271,8.08-3.255,8.996c-1.052,0.273-2.52,0.361-3.546,0.111c-0.269-0.064-1.254-0.07-2.029-0.096
		c-1.537-0.051-2.007-0.215-2.779-0.848c-0.278-0.229-0.546-0.41-0.881-0.465c-1.759-0.281-2.285-1.91-0.949-3.115
		c0.761-0.686,0.836-0.775,0.766-0.893c-0.04-0.066-0.364-0.123-0.724-0.125c-1.773-0.01-1.755-1.855,0.03-3.172
		c0.85-0.627,1.232-1.217,0.67-1.072c-1.617,0.385-2.188-2.003-0.497-2.745c0.899-0.509,1.546-0.935,0.677-0.981
		c-0.729,0.063-1.322-0.48-1.1-1.122c0.271-0.776,1.751-1.483,2.605-1.22c0.666,0.207,1.316,0.396,1.734,0.093
		c1.012-0.734,1.464-1.065,2.335-1.184C41.493,128.563,42.023,128.549,42.448,128.551L42.448,128.551z M101.437,128.999l8.156,0.159
		l-0.242,8.083l-7.68-0.146C101.671,137.095,103.355,133.483,101.437,128.999z M83.163,129.185l7.811,0.097
		c-1.287,3.046-0.807,6.176-0.334,7.94l-7.646-0.119L83.163,129.185z M96.207,129.197c2.099,1.235,2.676,5.736-0.239,8.048
		C93.194,134.364,93.749,130.855,96.207,129.197z M76.937,132.71l2.095,0.197l-0.746,3.03c0,0,0.337-0.359,0.447-0.395
		c2.69-1.277,2.884,1.617,0.146,4.23c-0.605,0.574-1.577,1.365-1.577,1.365s-0.762-1.164-1.366-2.217
		c-0.688-1.059-1.156-2.193-1.038-2.795c0.171-0.873,1.21-1.449,1.872-0.916c0.326,0.262,0.705,0.662,0.705,0.662L76.937,132.71z
		 M114.329,134.931c0,0,0.878,0.91,1.412,1.502c1.85,2.045,2.167,3.957,1.229,4.539c-0.806,0.371-1.305,0.117-1.953-0.414
		c0.135,1.268,1.131,3.137,1.106,3.143l-2.76,0.447c0,0,0.681-2.539,0.623-3.498c0,0-0.566,0.441-0.818,0.551
		c-1.803,0.664-2.696-1.404-1.215-3.469C113.198,136.001,114.329,134.931,114.329,134.931z M152.038,138.761
		c1.852,0,3.354,1.52,3.354,3.391c0,1.873-1.502,3.391-3.354,3.391s-3.354-1.518-3.354-3.391
		C148.685,140.281,150.187,138.761,152.038,138.761z M153.693,140.314c-0.145,0.033-0.264,0.369-0.279,1.111
		c-0.168,1.52-1.418,2.131-2.787,1.428c-0.555-0.285-1.025-0.707-1.027-0.385c0,0.174,0.443,1.08,0.758,1.391
		c1.16,1.055,3.986,0.805,3.922-1.652C154.247,141.05,153.933,140.259,153.693,140.314z M92.796,141.587
		c0.364-0.025,0.826,0.127,1.122,0.438c0.917,0.633,1.091,1.441,1.148,4.492c0.051,2.691,0,2.756,0.437,3.084
		c1.076,0.799,1.725-0.42,1.416-3.146c-0.296-2.625,0.641-4.533,2.209-4.523c0.773,0.006,0.916,0.463,0.33,1.049
		c-0.619,0.617-0.769,1.373-0.574,2.891c0.497,3.891,0.066,5.801-1.551,6.59c-1.688,0.824-3.858-0.123-4.238-2.275
		c-0.244-1.436-0.242-3.139-0.073-4.744c0.03-1.688-0.008-1.881-0.59-2.848C92.021,141.943,92.327,141.618,92.796,141.587z
		 M50.359,142.849c0.933-0.004,1.901,0.543,2.48,1.752c1.397,2.916-1.63,5.314-4.406,5.502c-4.82,0.074-10.55-0.629-15.389-1.279
		l0.077-2.756c4.44,0.26,9.446,0.623,14.841,0.879C47.347,144.384,48.804,142.851,50.359,142.849L50.359,142.849z M75.712,143.413
		l2.684,0.6l-1.707,2.82c0.506-0.221,0.856-0.375,1.363-0.189c1.093,0.398,1.107,1.799,0.306,3.107
		c-0.634,0.951-2.417,2.086-3.634,2.783c-0.684-1.484-2.193-4.08-1.592-5.5c0.318-0.752,1.202-1.119,2.025-0.707
		c0.271,0.164,0.792,0.434,0.792,0.434L75.712,143.413z M82.056,143.491l8.179,0.096c-1.188,8.357-3.515,19.516-8.098,28.611
		l-1.926,0.504c4.042-9.039,6.73-17.516,7.986-26.99h-4.089c-2.353,10.17-5.832,19.594-11.184,27.783l-2.378-0.781
		C76.265,163.552,80.796,153.327,82.056,143.491L82.056,143.491z M100.71,143.638h9.116c1.677,17.016,7.365,28.629,15.832,40.115
		c0,0-0.535,0.121-0.851-0.016c-0.878-1.107-1.682-1.783-2.998-2.125c-7.115-10.354-11.889-24.828-13.04-35.9h-5.421
		c0.617,13.906,4.43,25.311,9.502,36.354l-2.752,0.512C106.025,172.693,101.558,164.093,100.71,143.638L100.71,143.638z
		 M114.896,145.74c0.75,0.586,1.561,1.162,2.324,1.721c2.053,1.457,2.025,4.207,0.03,4.195c-0.212-0.002-0.705-0.031-0.705-0.031
		s0.815,1.805,1.329,2.717c-0.832,0.225-2.569,0.553-2.569,0.553s0.249-1.771,0.199-3.238c0,0-0.333,0.375-0.608,0.506
		c-1.324,0.561-2.443-0.607-2.279-1.988C112.84,148.31,114.896,145.74,114.896,145.74L114.896,145.74z M53.991,146.072l4.487,2.252
		c-3.058,7.035-6.56,13.621-11.624,18.629l0.131-16.256C49.749,150.615,52.585,150.589,53.991,146.072z M84.675,146.327h2.761
		c-1.225,12.979-9.71,30.533-11.303,32.65l-0.524,0.398c0.032-0.018-1.086-3.979-2.358-5.404
		C78.037,167.445,83.052,154.906,84.675,146.327z M104.087,146.327h4.17c1.299,10.34,4.461,21.512,12.478,35.08
		c0,0-0.804,0.082-1.425-0.293c-1.366-0.855-2.315,0.277-3.131,0.232c-1.277-0.068-1.486-0.146-2.804,0.17
		C106.761,167.415,104.884,156.318,104.087,146.327z M59.049,148.648l1.489,0.709c-3.202,7.486-6.07,13.434-13.656,20.736
		l-0.027-2.174C52.184,162.702,55.775,155.827,59.049,148.648z M61.216,149.693c0.705,0.27,1.506,0.709,2.172,1.072
		c0.223,0.09,0.162,0.293,0.164,0.504c-0.281,0.711-1.524,1.021-1.994,1.16c-0.568,0.164-1.129,0.277-1.229,0.303
		c-0.649,0.152-0.443-0.504,0.261-1.943C60.905,150.14,61.03,149.708,61.216,149.693z M64.192,151.281
		c0.445-0.029,2.246,0.977,2.63,1.338c0.137,0.428-0.251,1.1-0.819,2.342c-0.874,1.91-1.048,1.953-1.31,0.383
		c-0.045-0.27-0.305-1.164-0.463-1.758C63.864,152.21,63.83,151.419,64.192,151.281L64.192,151.281z M67.449,152.823
		c0,0,1.046,0.514,1.386,0.74c-4.671,14.139-17.111,25.826-17.045,25.557l-1.941-1.152C58.128,170.407,64.195,161.48,67.449,152.823
		z M62.511,153.025c0.451,0.01,0.059,0.572-0.552,1.932c-0.578,1.332-0.769,1.805-1.31,2.016c-0.775,0.283-1.89,0.293-2.879,0.469
		c-0.424,0.074-0.246-0.254,0.406-1.59c0.764-1.57,0.807-1.896,2.006-2.223C60.876,153.519,61.809,153.019,62.511,153.025z
		 M64.15,155.835c0.481,1.75,0.471,2.096,0.148,2.703c-0.604,1.141-1.394,2.473-1.611,2.834c-0.545,0.9-0.699,0.713-1.022-1.479
		c-0.2-1.359-0.376-1.971-0.228-2.562c0.271-0.67,1.082-2.248,1.54-3.172C63.632,152.189,63.984,155.659,64.15,155.835z
		 M72.749,154.306l2.45,0.812l-1.923,2.346c0,0,0.807-0.146,0.9-0.109c1.928,0.129,1.607,2.066,0.115,3.238
		c-0.619,0.574-3.668,1.975-3.668,1.975c-0.327-1.734-1-2.842-0.839-4.621c0.113-0.957,0.197-1.822,1.359-1.85
		c0.61-0.033,0.858,0.6,1.256,1.107L72.749,154.306z M117.17,156.407c0,0,1.476,0.77,2.845,1.834c1.785,1.389,2.09,3.02,0.306,3.648
		c-0.206,0.072-0.792,0.043-0.792,0.043c0.491,0.865,1.657,2.152,1.657,2.152c-0.584,0.412-1.409,0.736-2.323,1.025
		c0,0-0.228-2.154-0.444-2.984c0,0-0.236,0.471-0.528,0.654c-1.719,1.08-3.068-0.957-2.145-3.533
		C116.307,157.683,117.17,156.407,117.17,156.407z M98.275,156.767c4.292-0.105,1.778,6.998-0.367,6.539
		c-0.037-0.064,1.771-4.201-0.662-4.859C96.129,158.144,97.091,156.753,98.275,156.767L98.275,156.767z M91.237,157.271
		c1.334-0.01,2.304,0.941,1.03,1.539c-2.005,0.941-0.812,3.195-0.766,4.473c0.027,0.781-1.786-0.68-2.171-2.268
		C88.833,158.964,89.064,157.447,91.237,157.271L91.237,157.271z M59.493,158.017c0.296-0.002,0.519,0.023,0.594,0.082
		c0.125,0.334-0.474,1.381-1.348,2.723c-0.465,0.715-0.665,0.916-0.95,1.084c-0.676,0.385-1.625,0.285-2.416,0.34
		c-1.179,0.016-0.972-0.008,0.333-2.062c0.584-0.916,0.951-1.668,1.299-1.906C57.074,158.232,58.606,158.019,59.493,158.017
		L59.493,158.017z M61.04,159.499c0,2.568,0.864,3.41,0.23,4.221c-0.775,1.264-1.766,2.645-2.125,3.08
		c-0.605,0.736-0.539,0.598-0.697-1.326c-0.115-1.395-0.24-2.328-0.062-2.764c0.519-1.258,1.135-1.861,1.776-3.199
		C60.666,158.431,61.04,158.613,61.04,159.499z M94.917,160.788c1.247,0.016,2.017,1.355,1.961,2.584l-0.054,1.176
		c1.61-0.623,3.609-0.018,3.698,1.58c0.15,2.705-1.822,2.393-3.492,2.279c0.169,0.062,0.415,2.445-0.578,3.357
		c-1.558,1.764-4.463-0.037-3.732-2.623c0.151-0.537,0.184-0.875,0.184-0.875s-1.042,0.381-1.409,0.363
		c-3.16-0.135-2.918-4.652,0.257-4.121c0.648,0.109,1.087,0.268,1.087,0.268s-0.068-0.285-0.176-0.689
		C92.2,162.351,93.17,160.763,94.917,160.788z M158.134,161.593l1.703,0.99v1.918l-2.424-1.811L158.134,161.593z M56.002,162.876
		c0.671-0.006,1.198,0.047,1.095,0.209c0,0.344-1.471,2.408-2.34,3.352c-0.74,0.805-0.845,0.689-2.656,0.6
		c-0.711-0.035-1.176-0.041-1.156-0.232c0.834-1.105,1.984-2.529,2.779-3.719C54.036,162.99,55.139,162.886,56.002,162.876z
		 M57.659,163.779c0.126-0.002,0.164,0.273,0.161,0.871c0,0.451,0.062,1.848,0.126,2.453c0.118,1.102,0.119,1.1-0.348,1.756
		c-0.569,0.619-1.15,1.529-1.884,2.236c-1.103,1.234-0.989,1.305-0.973-1.334c0.013-2.062-0.142-2.062,0.271-2.547
		c0.228-0.266,0.928-1.133,1.39-1.811C57.105,164.374,57.477,163.781,57.659,163.779z M68.165,164.142l2.268,1.223l-2.271,2.326
		c0,0,0.568-0.002,0.759,0.035c1.458,0.285,1.349,1.848-0.119,3.014c-0.901,0.576-3.997,1.715-3.997,1.715
		c-0.106-1.314-0.381-2.521-0.329-3.932c0.021-0.65,0.081-1.357,0.574-1.92c0.341-0.381,0.911-0.604,1.712-0.08
		c0.42,0.377,0.639,0.805,0.639,0.805L68.165,164.142z M94.913,164.935c-0.888,0-1.607,0.729-1.607,1.625
		c0,0.898,0.72,1.627,1.607,1.627c0.889,0,1.608-0.729,1.608-1.627C96.522,165.663,95.802,164.935,94.913,164.935z M120.252,165.32
		c0,0,2.967,1.125,4.304,2.363c1.248,1.053,0.66,2.785-0.578,2.82c-0.091,0-0.617-0.076-0.617-0.076
		c0.42,0.645,1.826,2.229,1.826,2.229l-2.293,0.939c0,0-0.367-1.783-0.65-2.785c-0.8,1.865-2.772,0.652-2.902-0.512
		C119.023,168.595,119.739,166.931,120.252,165.32L120.252,165.32z M94.913,165.462c0.617,0,1.118,0.506,1.118,1.129
		c0,0.625-0.501,1.131-1.118,1.131s-1.118-0.506-1.118-1.131C93.795,165.968,94.296,165.462,94.913,165.462z M51.128,167.773
		c0.799-0.008,1.797,0.029,2.243,0.057c0.341,0.264-0.371,1.084-1.745,2.543c-1.103,1.17-1.266,1.008-2.601,1.018
		c-2.239,0.018-2.296,0.033-1.267-1.148c1.126-1.297,1.783-2.131,2.305-2.4C50.238,167.796,50.649,167.777,51.128,167.773
		L51.128,167.773z M53.858,168.909c0.237-0.047,0.173,0.562,0.134,1.947l-0.064,2.344l-1.742,1.695
		c-2.017,1.824-1.775,1.938-1.761,0.232c0.011-1.355,0-2.309,0.287-2.91c0.88-1.072,1.798-2.021,2.799-3.045
		C53.667,169.015,53.779,168.925,53.858,168.909L53.858,168.909z M98.145,169.493c0.485-0.041,1.724,2.1,2.033,3.893
		c0.708,4.096,3.135,6.037,4.843,4.393c0.695-0.967,0.773,0.088,0.739,0.592c-0.358,5.189-6.176,3.029-6.838-2.125
		c-2.042,1.34-3.946-1.365-2.729-1.322C99.07,173.999,98.283,171.327,98.145,169.493L98.145,169.493z M91.406,169.532
		c0.285,1.795-2.917,4.869-4.717,2.713c-0.917-1.098-0.081-3.359,1.083-1.967C89.061,171.243,90.309,170.124,91.406,169.532
		L91.406,169.532z M47.421,171.993c0.658-0.014,1.61,0.111,2.025,0.055c0.588,0.061,0.168,0.346-1.103,1.516
		c-1.094,1.01-1.406,1.459-1.531,1.02c-0.061-0.682-0.034-1.492-0.03-2.455C46.883,172.034,47.122,171.999,47.421,171.993
		L47.421,171.993z M62.346,173.185l1.953,1.439l-1.938,1.805c1.737-0.088,1.892,1.559,1.232,2.477
		c-0.427,0.643-2.074,1.32-3.722,1.59c-0.991,0.162-1.799,0.281-1.799,0.281s-0.038-0.771-0.065-2.055
		c-0.057-2.623,0.12-3.654,1.118-4.166c0.715-0.367,1.924,0.207,2.221,0.877c0.099,0.223,0.356,0.607,0.356,0.607L62.346,173.185z
		 M49.78,173.329c0.008-0.002,0.013,0,0.015,0.004c0.11,0.15-0.287,4.418-0.287,4.418l-2.829-1.609
		C46.679,176.142,49.542,173.38,49.78,173.329L49.78,173.329z M124.662,173.831c2.016,0.959,3.526,0.773,4.882,1.963
		c1.181,0.623,0.831,2.344-0.03,2.727c-0.39,0.121-1.034,0.055-1.034,0.055c0.713,0.889,2.274,2.012,2.274,2.012l-2.48,1.049
		c0,0-0.34-1.689-0.655-2.611c-0.451,1.371-1.98,1.338-2.852,0.693c-0.617-0.479-0.873-2.08-0.578-3.469
		C124.266,175.884,124.663,173.831,124.662,173.831L124.662,173.831z M111.411,213.568c-24.465,5.859-44.337,2.236-46.309,1.545
		l-1.559,2.348c-0.189,0.4-0.307,1.592-1.363,1.916l-1.585,2.391l0.311,0.334l-1.405,1.238l0.341,0.414l-1.022,1.502l-0.402-0.043
		l-2.366,3.633l0.36,0.406l-5.434,8.594l73.501,0.023C120.206,229.724,115.636,221.738,111.411,213.568L111.411,213.568z
		 M110.967,214.624l0.437,1.227c-1.215-0.15-2.635-0.225-4.078-0.289C108.594,215.296,109.864,214.972,110.967,214.624z
		 M106.698,215.693c-2.338,1.084-3.738,2.387-4.812,3.762c-1.338-1.051-3.039-1.795-5.07-2.26L106.698,215.693z M65.394,216.288
		l1.041,0.119c0,0-0.349,0.275-0.597,0.217C65.648,216.581,65.394,216.288,65.394,216.288z M112.216,216.9l0.662,1.324
		c-1.592-0.854-8.402-2.807-10.334,4.035c-2.033-2.777-10.416-6.805-14.668,1.758c-1.209-2.32-8.248-8.994-14.668-0.488
		c-2.529-5.287-4.645-5.729-9.289-5.008c3.301-3.205,7.945,0.131,9.913,2.859c5.539-4.643,10.171-3.246,14.216,0.531
		c5.222-5.746,10.428-4.361,14.09-1.479C104.711,216.607,107.225,215.452,112.216,216.9z M69.452,216.935
		c3.291,0.449,6.583,0.652,9.874,0.816c-1.904,0.707-3.858,1.314-5.409,2.736C72.741,218.829,71.108,217.865,69.452,216.935
		L69.452,216.935z M93.198,217.464c-1.797,0.855-3.732,2.141-5.284,3.49c-1.675-1.377-3.397-2.568-5.275-3.168
		C86.083,217.956,89.9,217.804,93.198,217.464z M114.272,220.181c0,0-0.664,0.113-0.877,0.17c-2.906,0.781-2.273,4.92,0.716,4.918
		c0.284,0,0.992-0.111,0.992-0.111c-0.057,2.803,0.785,3.486,3.617,3.328l4.802,8.676l-71.023-0.311l4.511-7.289
		c2.268,0.268,3.694-1.008,3.189-2.953c0,0,1.396,0.432,1.788,0.434c2.567,0.016,3.231-3.967,0.77-4.656
		c-0.274-0.076-0.962-0.152-1.046-0.178c1.126-2.842,4.219-1.164,5.104,0.016c1.994-1.656,4.197-0.914,5.143,1.23
		c0,0-0.372-0.209-0.486-0.293c-2.335-1.727-4.507,1.85-2.221,3.498c0.225,0.162,0.701,0.301,0.701,0.301s-0.278,0.23-0.533,0.662
		c-1.187,2.018,0.725,4.475,3.033,3.842c1.771-0.701,1.797-2.047,1.795-3.527c0,0,0.612,0.047,1.16,0.053
		c2.127,0.025,2.736-2.727,1.435-4.006c-0.703-0.691-1.622-0.637-2.077-0.727c2.451-2.432,4.113-0.754,5.843,0.367
		c0.262-0.006,3.002-3.332,6.26-0.064c-1.581-0.42-3.2,0.617-3.222,2.281c0.031,1.07,0.788,2.016,2.426,2.092
		c-0.176,0.537-0.293,0.939-0.303,1.461c-0.032,1.748,1.312,2.834,3.017,2.566c1.426-0.184,2.479-1.832,1.972-3.199
		c-0.229-0.619-0.543-0.844-0.543-0.844c3.839,0.484,3.771-4.43,0.787-4.729c-0.708-0.07-1.253,0.24-1.967,0.9
		c1.756-3.627,4.966-2.9,6.168-1.416c1.649-1.211,3.923-2.865,6.643,0.082c-0.447-0.096-1.079-0.119-1.627,0.027
		c-2.152,0.578-2.162,3.346-0.455,4.188c0.48,0.236,1.069,0.375,1.703,0.352c-0.567,2.324,1.987,3.984,3.795,2.871
		c1.296-0.797,1.635-2.682,0.233-4.4c2.36-0.107,2.593-3.078,1.229-4.121c-1.068-0.816-2.327-0.43-3.239,0.65
		c-0.294-0.854,2.039-3.82,5.333-1.684C110.561,219.159,112.292,218.704,114.272,220.181L114.272,220.181z M115.302,222.503
		l0.922,1.695C115.61,224.259,114.731,223.595,115.302,222.503z M103.394,224.226c0.578,0,1.045,0.473,1.045,1.055
		c0,0.584-0.468,1.057-1.045,1.057s-1.045-0.473-1.045-1.057C102.349,224.698,102.817,224.226,103.394,224.226z M60.286,224.286
		c0.139,0.568,0.2,1.133-0.819,1.242L60.286,224.286z M72.293,225.308c0.528,0,0.957,0.434,0.957,0.969
		c0,0.533-0.429,0.967-0.957,0.967s-0.957-0.434-0.957-0.967C71.336,225.741,71.765,225.308,72.293,225.308L72.293,225.308z
		 M88.225,225.611c0.56,0,1.015,0.459,1.015,1.025s-0.455,1.025-1.015,1.025c-0.561,0-1.015-0.459-1.015-1.025
		S87.664,225.611,88.225,225.611z"/>
	<path id="path153-6-3-1-9-0-4-7" d="M55.241,35.291
		c-7.348,10.492-15.209,16.529-15.34,24.715c-0.045,2.651,1.387,7.156,5.87,8.019c2.908,0.557,6.913-1.8,6.997-6.589
		c-0.014-0.953,1.008-0.929,0.998,0.378c-0.137,3.777-1.331,8.175-3.338,11.755c3.209,0,6.417,0,9.625,0
		c-2.007-3.58-3.201-7.978-3.338-11.755c-0.01-1.307,1.012-1.331,0.999-0.378c0.083,4.789,4.088,7.146,6.997,6.589
		c4.482-0.862,5.914-5.367,5.87-8.019C70.451,51.82,62.589,45.783,55.241,35.291z"/>
	<path id="path153-6-3-1-8-6-4-8-4" d="M137.698,231.798
		c-7.348-10.492-15.21-16.531-15.341-24.717c-0.044-2.65,1.388-7.154,5.87-8.018c2.909-0.557,6.913,1.801,6.997,6.59
		c-0.013,0.953,1.009,0.928,0.999-0.379c-0.137-3.777-1.332-8.174-3.339-11.754c3.21,0,6.417,0,9.626,0
		c-2.006,3.58-3.201,7.977-3.338,11.754c-0.01,1.307,1.012,1.332,0.998,0.379c0.084-4.789,4.088-7.146,6.998-6.59
		c4.482,0.863,5.914,5.367,5.869,8.018C152.907,215.267,145.046,221.306,137.698,231.798L137.698,231.798z"/>
</g>
</svg>
