<?xml version="1.0" encoding="utf-8"?>
<!-- Generator: Adobe Illustrator 16.0.0, SVG Export Plug-In . SVG Version: 6.00 Build 0)  -->
<!DOCTYPE svg PUBLIC "-//W3C//DTD SVG 1.1//EN" "http://www.w3.org/Graphics/SVG/1.1/DTD/svg11.dtd">
<svg version="1.1" id="Layer_1" xmlns="http://www.w3.org/2000/svg" xmlns:xlink="http://www.w3.org/1999/xlink" x="0px" y="0px"
	 width="181px" height="252px" viewBox="0 0 181 252" enable-background="new 0 0 181 252" xml:space="preserve">
<g id="g8526-6-2" transform="matrix(0.99553774,0,0,0.99680134,-345.02296,79.60164)">
	<path id="rect7195-8-7" fill="#FFFFFF" stroke="#000000" stroke-width="1.0006" d="M356.726-78.177h161.498
		c4.718,0,8.542,3.82,8.542,8.531v232.387c0,4.71-3.824,8.531-8.542,8.531H356.726c-4.717,0-8.542-3.821-8.542-8.531V-69.646
		C348.184-74.358,352.008-78.177,356.726-78.177z"/>
	<path id="path7225-5-2" d="M396.062-52.021
		c-7.381,10.526-15.278,16.583-15.41,24.795c-0.044,2.659,1.394,7.178,5.896,8.043c2.922,0.558,6.945-1.806,7.028-6.61
		c-0.013-0.956,1.013-0.932,1.004,0.379c-0.138,3.789-1.338,8.201-3.353,11.793c3.222,0,6.445,0,9.668,0
		c-2.016-3.592-3.216-8.003-3.353-11.793c-0.01-1.311,1.016-1.335,1.003-0.379c0.084,4.804,4.106,7.168,7.028,6.61
		c4.504-0.865,5.941-5.384,5.896-8.043C411.34-35.438,403.443-41.496,396.062-52.021z"/>
	<path id="path7227-2-8" d="M361.957-38.199
		c-3.448,4.386-7.137,6.91-7.199,10.331c-0.021,1.108,0.651,2.992,2.755,3.353c1.365,0.232,3.244-0.752,3.283-2.755
		c-0.008-0.398,0.473-0.388,0.469,0.159c-0.064,1.578-0.625,3.417-1.567,4.913c1.506,0,3.011,0,4.517,0
		c-0.943-1.496-1.503-3.335-1.567-4.913c-0.008-0.547,0.475-0.556,0.469-0.159c0.039,2.003,1.918,2.987,3.283,2.755
		c2.104-0.361,2.775-2.244,2.755-3.353C369.095-31.289,365.406-33.813,361.957-38.199L361.957-38.199z"/>
	<path id="path7229-4-8" d="M396.062,92.203
		c-7.381-10.526-15.278-16.582-15.41-24.794c-0.044-2.659,1.394-7.179,5.896-8.043c2.922-0.56,6.945,1.805,7.028,6.609
		c-0.013,0.956,1.013,0.933,1.004-0.378c-0.138-3.789-1.338-8.202-3.353-11.794c3.222,0,6.445,0,9.668,0
		c-2.016,3.592-3.216,8.004-3.353,11.794c-0.01,1.311,1.016,1.334,1.003,0.378c0.084-4.804,4.106-7.169,7.028-6.609
		c4.504,0.864,5.941,5.384,5.896,8.043C411.34,75.621,403.443,81.677,396.062,92.203z"/>
	<path id="path7231-7-8" d="M512.994,131.293
		c-3.449-4.385-7.139-6.909-7.2-10.332c-0.022-1.107,0.651-2.99,2.754-3.351c1.365-0.233,3.245,0.752,3.284,2.755
		c-0.008,0.398,0.473,0.388,0.469-0.159c-0.065-1.579-0.626-3.417-1.568-4.914c1.507,0,3.011,0,4.518,0
		c-0.942,1.497-1.503,3.335-1.568,4.914c-0.008,0.547,0.475,0.556,0.469,0.159c0.039-2.003,1.919-2.988,3.284-2.755
		c2.103,0.361,2.776,2.244,2.755,3.351c-0.061,3.423-3.751,5.947-7.2,10.332H512.994z"/>
	<path id="path7233-8-9" d="M478.888-52.021
		c-7.381,10.526-15.279,16.583-15.411,24.795c-0.043,2.659,1.395,7.178,5.897,8.043c2.921,0.558,6.945-1.806,7.027-6.61
		c-0.012-0.956,1.014-0.932,1.004,0.379c-0.137,3.789-1.338,8.201-3.353,11.793c3.221,0,6.445,0,9.668,0
		c-2.017-3.592-3.216-8.003-3.353-11.793c-0.01-1.311,1.016-1.335,1.003-0.379c0.084,4.804,4.106,7.168,7.027,6.61
		c4.504-0.865,5.943-5.384,5.897-8.043C494.165-35.438,486.269-41.496,478.888-52.021z"/>
	<path id="path7235-9-4" d="M396.062,0.891
		c-7.381,10.526-15.278,16.583-15.41,24.795c-0.044,2.659,1.394,7.178,5.896,8.043c2.922,0.558,6.945-1.806,7.028-6.61
		c-0.013-0.956,1.013-0.932,1.004,0.379c-0.138,3.789-1.338,8.201-3.353,11.793c3.222,0,6.445,0,9.668,0
		c-2.016-3.592-3.216-8.003-3.353-11.793c-0.01-1.311,1.016-1.335,1.003-0.379c0.084,4.804,4.106,7.168,7.028,6.61
		c4.504-0.865,5.941-5.384,5.896-8.043C411.34,17.474,403.443,11.417,396.062,0.891z"/>
	<path id="path7241-7-2" d="M478.888,0.891
		c-7.381,10.526-15.279,16.583-15.411,24.795c-0.043,2.659,1.395,7.178,5.897,8.043c2.921,0.558,6.945-1.806,7.027-6.61
		c-0.012-0.956,1.014-0.932,1.004,0.379c-0.137,3.789-1.338,8.201-3.353,11.793c3.221,0,6.445,0,9.668,0
		c-2.017-3.592-3.216-8.003-3.353-11.793c-0.01-1.311,1.016-1.335,1.003-0.379c0.084,4.804,4.106,7.168,7.027,6.61
		c4.504-0.865,5.943-5.384,5.897-8.043C494.165,17.474,486.269,11.417,478.888,0.891z"/>
	<path id="path7245-1-6" d="M396.062,145.116
		c-7.381-10.526-15.278-16.584-15.41-24.796c-0.044-2.659,1.394-7.177,5.896-8.043c2.922-0.558,6.945,1.807,7.028,6.611
		c-0.013,0.956,1.013,0.931,1.004-0.38c-0.138-3.789-1.338-8.2-3.353-11.792c3.222,0,6.445,0,9.668,0
		c-2.016,3.592-3.216,8.002-3.353,11.792c-0.01,1.311,1.016,1.336,1.003,0.38c0.084-4.804,4.106-7.169,7.028-6.611
		c4.504,0.866,5.941,5.384,5.896,8.043C411.34,128.532,403.443,134.591,396.062,145.116z"/>
	<path id="path7247-0-6" d="M478.888,145.116
		c-7.381-10.526-15.279-16.584-15.411-24.796c-0.043-2.659,1.395-7.177,5.897-8.043c2.921-0.558,6.945,1.807,7.027,6.611
		c-0.012,0.956,1.014,0.931,1.004-0.38c-0.137-3.789-1.338-8.2-3.353-11.792c3.221,0,6.445,0,9.668,0
		c-2.017,3.592-3.216,8.002-3.353,11.792c-0.01,1.311,1.016,1.336,1.003,0.38c0.084-4.804,4.106-7.169,7.027-6.611
		c4.504,0.866,5.943,5.384,5.897,8.043C494.165,128.532,486.269,134.591,478.888,145.116z"/>
	<path id="path7251-3-6" d="M478.888,92.203
		c-7.381-10.526-15.279-16.582-15.411-24.794c-0.043-2.659,1.395-7.179,5.897-8.043c2.921-0.56,6.945,1.805,7.027,6.609
		c-0.012,0.956,1.014,0.933,1.004-0.378c-0.137-3.789-1.338-8.202-3.353-11.794c3.221,0,6.445,0,9.668,0
		c-2.017,3.592-3.216,8.004-3.353,11.794c-0.01,1.311,1.016,1.334,1.003,0.378c0.084-4.804,4.106-7.169,7.027-6.609
		c4.504,0.864,5.943,5.384,5.897,8.043C494.165,75.621,486.269,81.677,478.888,92.203z"/>
	<path id="path7255-7-8" d="M437.475,27.348
		c-7.382,10.525-15.279,16.582-15.41,24.794c-0.044,2.659,1.394,7.179,5.896,8.045c2.921,0.558,6.944-1.807,7.028-6.611
		c-0.013-0.956,1.012-0.931,1.003,0.378c-0.138,3.789-1.338,8.202-3.354,11.794c3.223,0,6.445,0,9.669,0
		c-2.017-3.592-3.216-8.004-3.353-11.794c-0.01-1.309,1.016-1.334,1.003-0.378c0.084,4.804,4.106,7.169,7.029,6.611
		c4.503-0.866,5.941-5.386,5.895-8.045C452.752,43.93,444.856,37.873,437.475,27.348z"/>
	<path id="path29-33-4-4" d="M354.582-45.796l2.415-0.765c0.912,2.435,2.752,3.155,4.7,2.999
		c3.495-0.278,4.657-4.186,4.917-7.64c-1.362,1.444-3.408,2.178-5.151,2.103c-5.573-0.299-6.999-4.758-7.05-9.428
		c-0.153-3.936,1.474-6.788,4.266-8.097c1.478-0.663,4.864-0.663,6.352,0.122c3.416,1.802,4.681,4.914,4.452,12.345
		c0,6.113-1.298,13.233-7.85,13.389C357.849-40.245,354.972-43.19,354.582-45.796L354.582-45.796L354.582-45.796z M364.068-52.495
		c1.137-0.72,1.776-1.396,2.287-2.406c0.418-0.831,0.563-1.265,0.442-2.983c-0.31-4.432-2.632-6.948-6.003-6.449
		c-1.879,0.283-2.908,1.334-3.498,3.291c-1.09,3.617,0.292,7.847,2.88,8.822C361.34-51.779,363.14-51.905,364.068-52.495
		L364.068-52.495z"/>
	<path id="path29-33-3-8-6" d="M520.366,138.892l-2.415,0.764
		c-0.912-2.434-2.753-3.155-4.701-2.998c-3.494,0.278-4.656,4.185-4.916,7.64c1.362-1.446,3.406-2.179,5.15-2.104
		c5.574,0.3,7,4.759,7.051,9.429c0.153,3.936-1.475,6.787-4.267,8.096c-1.479,0.664-4.863,0.664-6.351-0.121
		c-3.416-1.803-4.681-4.914-4.453-12.346c0-6.113,1.299-13.232,7.851-13.389C517.1,133.339,519.976,136.284,520.366,138.892
		L520.366,138.892L520.366,138.892z M510.881,145.589c-1.138,0.721-1.777,1.397-2.288,2.406c-0.418,0.831-0.563,1.266-0.441,2.984
		c0.31,4.43,2.631,6.948,6.001,6.448c1.881-0.282,2.909-1.334,3.5-3.29c1.089-3.617-0.292-7.847-2.882-8.823
		C513.608,144.874,511.809,144.999,510.881,145.589L510.881,145.589z"/>
</g>
</svg>
