<?xml version="1.0" encoding="utf-8"?>
<!-- Generator: Adobe Illustrator 16.0.0, SVG Export Plug-In . SVG Version: 6.00 Build 0)  -->
<!DOCTYPE svg PUBLIC "-//W3C//DTD SVG 1.1//EN" "http://www.w3.org/Graphics/SVG/1.1/DTD/svg11.dtd">
<svg version="1.1" id="Layer_1" xmlns="http://www.w3.org/2000/svg" xmlns:xlink="http://www.w3.org/1999/xlink" x="0px" y="0px"
	 width="181px" height="252px" viewBox="0 0 181 252" enable-background="new 0 0 181 252" xml:space="preserve">
<g id="g8447-5-9" transform="matrix(0.99553774,0,0,0.99680134,-103.31667,79.601599)">
	<g id="g8459-0-4" transform="matrix(-1,0,0,-1,3489.2901,-631.00533)">
		<path id="rect6920-5-5" fill="#FFFFFF" stroke="#000000" stroke-width="1.0006" d="M3213.856-802.278h161.498
			c4.717,0,8.542,3.821,8.542,8.531v232.387c0,4.711-3.825,8.531-8.542,8.531h-161.498c-4.718,0-8.542-3.82-8.542-8.531v-232.387
			C3205.314-798.457,3209.137-802.278,3213.856-802.278z"/>
		<path id="path6950-9-9" d="M3253.19-776.122
			c-7.381,10.526-15.278,16.584-15.409,24.796c-0.044,2.659,1.393,7.177,5.896,8.043c2.921,0.558,6.944-1.807,7.029-6.611
			c-0.013-0.956,1.012-0.931,1.002,0.38c-0.137,3.789-1.337,8.2-3.353,11.792c3.223,0,6.446,0,9.669,0
			c-2.016-3.592-3.215-8.002-3.353-11.792c-0.01-1.311,1.015-1.336,1.002-0.38c0.084,4.804,4.106,7.169,7.029,6.611
			c4.503-0.866,5.94-5.384,5.896-8.043C3268.469-759.538,3260.572-765.596,3253.19-776.122L3253.19-776.122z"/>
		<path id="path6952-6-0" d="M3219.086-762.298
			c-3.447,4.385-7.137,6.909-7.198,10.332c-0.021,1.107,0.651,2.99,2.755,3.351c1.365,0.233,3.245-0.752,3.284-2.753
			c-0.008-0.4,0.473-0.39,0.469,0.157c-0.065,1.579-0.626,3.417-1.568,4.914c1.507,0,3.011,0,4.518,0
			c-0.942-1.497-1.503-3.335-1.568-4.914c-0.008-0.547,0.475-0.556,0.469-0.157c0.039,2.001,1.919,2.986,3.284,2.753
			c2.103-0.361,2.776-2.244,2.754-3.351C3226.225-755.39,3222.535-757.913,3219.086-762.298L3219.086-762.298z"/>
		<path id="path6956-5-0" d="M3370.122-592.806
			c-3.449-4.386-7.138-6.91-7.2-10.331c-0.021-1.108,0.651-2.992,2.755-3.352c1.365-0.233,3.244,0.752,3.283,2.754
			c-0.008,0.399,0.474,0.388,0.469-0.158c-0.064-1.579-0.625-3.417-1.566-4.914c1.506,0,3.011,0,4.517,0
			c-0.942,1.497-1.502,3.335-1.566,4.914c-0.008,0.546,0.475,0.556,0.469,0.158c0.039-2.001,1.919-2.987,3.284-2.754
			c2.103,0.36,2.775,2.244,2.755,3.352C3377.26-599.716,3373.57-597.193,3370.122-592.806L3370.122-592.806z"/>
		<path id="path6958-4-1" d="M3336.017-776.122
			c-7.381,10.526-15.278,16.584-15.41,24.796c-0.044,2.659,1.394,7.177,5.897,8.043c2.921,0.558,6.944-1.807,7.027-6.611
			c-0.013-0.956,1.013-0.931,1.004,0.38c-0.137,3.789-1.337,8.2-3.353,11.792c3.222,0,6.446,0,9.668,0
			c-2.016-3.592-3.216-8.002-3.353-11.792c-0.01-1.311,1.016-1.336,1.003-0.38c0.083,4.804,4.106,7.169,7.028,6.611
			c4.503-0.866,5.941-5.384,5.897-8.043C3351.295-759.538,3343.398-765.596,3336.017-776.122L3336.017-776.122z"/>
		<path id="path6970-5-5" d="M3253.19-578.984
			c-7.381-10.526-15.278-16.583-15.409-24.795c-0.044-2.659,1.393-7.178,5.896-8.043c2.921-0.558,6.944,1.806,7.029,6.61
			c-0.013,0.956,1.012,0.932,1.002-0.379c-0.137-3.789-1.337-8.201-3.353-11.793c3.223,0,6.446,0,9.669,0
			c-2.016,3.592-3.215,8.003-3.353,11.793c-0.01,1.311,1.015,1.335,1.002,0.379c0.084-4.804,4.106-7.168,7.029-6.61
			c4.503,0.865,5.94,5.384,5.896,8.043C3268.469-595.567,3260.572-589.51,3253.19-578.984L3253.19-578.984z"/>
		<path id="path6972-5-8" d="M3336.017-578.984
			c-7.381-10.526-15.278-16.583-15.41-24.795c-0.044-2.659,1.394-7.178,5.897-8.043c2.921-0.558,6.944,1.806,7.027,6.61
			c-0.013,0.956,1.013,0.932,1.004-0.379c-0.137-3.789-1.337-8.201-3.353-11.793c3.222,0,6.446,0,9.668,0
			c-2.016,3.592-3.216,8.003-3.353,11.793c-0.01,1.311,1.016,1.335,1.003,0.379c0.083-4.804,4.106-7.168,7.028-6.61
			c4.503,0.865,5.941,5.384,5.897,8.043C3351.295-595.567,3343.398-589.51,3336.017-578.984L3336.017-578.984z"/>
		<path id="path6980-6-3" d="M3294.604-696.753
			c-7.381,10.526-15.278,16.582-15.41,24.795c-0.043,2.659,1.394,7.179,5.897,8.044c2.921,0.558,6.944-1.807,7.029-6.61
			c-0.013-0.957,1.012-0.932,1.002,0.379c-0.137,3.789-1.337,8.201-3.353,11.792c3.222,0,6.446,0,9.669,0
			c-2.017-3.591-3.216-8.002-3.354-11.792c-0.009-1.311,1.016-1.336,1.003-0.379c0.084,4.803,4.106,7.168,7.029,6.61
			c4.502-0.865,5.94-5.385,5.896-8.044C3309.882-680.17,3301.985-686.227,3294.604-696.753L3294.604-696.753z"/>
		<path id="path21-4-5-5" d="M3210.764-771.641l2.588-0.025c0.494,1.593,1.587,3.213,3.07,3.662
			c4.191,1.003,6.886-1.383,7.773-4.132c1.077-3.335-0.023-8.02-2.907-9.683c-2.392-1.378-5.943-0.216-7.575,2.733l-1.811-1.129
			l0.973-10.992h11.838v2.598h-9.594l-0.151,4.579c2.064-1.477,5.238-1.462,7.302-0.425c3.91,1.901,5.727,6.219,4.968,11.308
			c-1.054,5.063-3.376,7.93-8.615,8.341C3212.796-764.753,3210.74-768.835,3210.764-771.641L3210.764-771.641L3210.764-771.641z"/>
		<path id="path21-4-9-2-8" d="M3378.442-583.463l-2.588,0.024
			c-0.493-1.594-1.586-3.213-3.069-3.663c-4.19-1.002-6.885,1.383-7.773,4.133c-1.077,3.336,0.023,8.02,2.908,9.682
			c2.391,1.378,5.941,0.216,7.573-2.733l1.813,1.13l-0.973,10.991h-11.84v-2.598h9.595l0.152-4.579
			c-2.065,1.477-5.239,1.462-7.304,0.425c-3.909-1.899-5.726-6.217-4.967-11.307c1.053-5.062,3.375-7.931,8.614-8.34
			C3376.409-590.351,3378.467-586.271,3378.442-583.463L3378.442-583.463L3378.442-583.463z"/>
	</g>
</g>
</svg>
