<?xml version="1.0" encoding="utf-8"?>
<!-- Generator: Adobe Illustrator 16.0.0, SVG Export Plug-In . SVG Version: 6.00 Build 0)  -->
<!DOCTYPE svg PUBLIC "-//W3C//DTD SVG 1.1//EN" "http://www.w3.org/Graphics/SVG/1.1/DTD/svg11.dtd">
<svg version="1.1" id="Layer_1" xmlns="http://www.w3.org/2000/svg" xmlns:xlink="http://www.w3.org/1999/xlink" x="0px" y="0px"
	 width="181px" height="252px" viewBox="0 0 181 252" enable-background="new 0 0 181 252" xml:space="preserve">
<g id="g6503" transform="matrix(0.99999718,0,0,1.000002,-4.9738447,-7.5442065)">
	<path id="rect7399-8-3" fill="#FFFFFF" stroke="#000000" stroke-width="0.9967" d="M15.085,9.219h160.777
		c4.697,0,8.504,3.808,8.504,8.504v231.644c0,4.695-3.807,8.504-8.504,8.504H15.085c-4.696,0-8.504-3.809-8.504-8.504V17.722
		C6.581,13.026,10.389,9.219,15.085,9.219z"/>
	<path id="path7431-0-1" d="M20.293,49.069
		c-3.433,4.372-7.105,6.888-7.167,10.298c-0.021,1.104,0.648,2.982,2.743,3.341c1.359,0.232,3.229-0.75,3.269-2.745
		c-0.008-0.397,0.472-0.387,0.467,0.157c-0.063,1.574-0.622,3.406-1.56,4.898c1.499,0,2.998,0,4.497,0
		c-0.938-1.492-1.495-3.324-1.56-4.898c-0.008-0.544,0.473-0.555,0.467-0.157c0.039,1.995,1.91,2.978,3.269,2.745
		c2.095-0.358,2.764-2.236,2.743-3.341C27.4,55.957,23.727,53.441,20.293,49.069z"/>
	<path id="path7435-3-6" d="M170.655,218.019
		c-3.433-4.371-7.105-6.887-7.167-10.297c-0.021-1.105,0.648-2.982,2.743-3.342c1.359-0.232,3.229,0.75,3.269,2.746
		c-0.008,0.396,0.472,0.387,0.467-0.158c-0.064-1.574-0.622-3.406-1.56-4.898c1.499,0,2.998,0,4.497,0
		c-0.938,1.492-1.495,3.324-1.56,4.898c-0.008,0.545,0.473,0.555,0.467,0.158c0.039-1.996,1.91-2.979,3.269-2.746
		c2.095,0.359,2.764,2.236,2.743,3.342C177.761,211.132,174.088,213.648,170.655,218.019L170.655,218.019z"/>
	<path id="path37-0-2-9" d="M14.504,37.861h-2.197v-2.998h2.197c0,0,0.017-1.615,0.08-4.465
		c0.136-6.075,0.287-7.018,2.043-8.689c3.469-3.304,9.276-0.612,9.208,4.356c-0.101,7.012-0.028,13.697-0.232,14.645
		c-0.364,1.668-0.4,1.762-0.252,2.066c0.304,0.612,2.927,0.877,2.927,0.706v2.953c-2.004,0.155-2.836-0.033-4.439-1.179
		c-1,0.967-4.047,1.938-6.471,0.795C15.524,45.183,14.127,42.939,14.504,37.861L14.504,37.861L14.504,37.861z M21.928,43.094
		c-1.089-1.574-2.921-3.724-4.645-4.487c-0.107,1.812,0.049,3.329,0.684,4.146C18.979,44.053,20.614,44.351,21.928,43.094
		L21.928,43.094L21.928,43.094z M22.83,25.775c-0.808-2.291-2.883-3.068-4.4-1.635c-0.947,0.892-1.1,1.831-1.119,6.93
		c-0.013,3.146-0.013,4.468-0.013,4.468c2.952,0.958,5.712,4.404,5.688,4.359l0.072-9.512C23.115,28.842,23.039,27.297,22.83,25.775
		L22.83,25.775L22.83,25.775z"/>
	<path id="path37-0-5-5-3" d="M176.443,229.228h2.196v2.998h-2.196c0,0-0.017,1.615-0.08,4.465
		c-0.136,6.074-0.288,7.018-2.044,8.689c-3.468,3.303-9.275,0.611-9.207-4.357c0.101-7.012,0.027-13.697,0.232-14.645
		c0.363-1.668,0.4-1.762,0.252-2.066c-0.305-0.611-2.928-0.877-2.928-0.705v-2.953c2.004-0.156,2.836,0.033,4.439,1.178
		c1.001-0.967,4.048-1.938,6.472-0.795C175.422,221.906,176.82,224.15,176.443,229.228L176.443,229.228L176.443,229.228z
		 M169.019,223.993c1.089,1.574,2.921,3.725,4.644,4.488c0.107-1.812-0.049-3.33-0.684-4.146
		C171.967,223.034,170.332,222.738,169.019,223.993L169.019,223.993z M168.115,241.314c0.809,2.291,2.884,3.068,4.4,1.635
		c0.948-0.893,1.1-1.832,1.12-6.93c0.012-3.146,0.012-4.469,0.012-4.469c-2.952-0.957-5.712-4.404-5.688-4.359l-0.071,9.512
		C167.83,238.247,167.906,239.792,168.115,241.314L168.115,241.314L168.115,241.314z"/>

		<path id="path4075-4-3-9" fill="#E2CF00" d="
		M87.879,237.423l18.695-34.162c0,0.008,4.459,1.762,9.738,3.137c-5.066,13.242-0.036,30.709-0.036,30.709
		S87.865,237.394,87.879,237.423z M36.647,179.087c-1.061-14.506,0.613-26.809,1.287-40.133c0.044-0.186-6.072-3.98-6.072-3.98
		l14.375-8.123c1.432,0.745,2.254,0.615,2.593-0.764c-1.45-4.941-1.734-9.727,1.587-13.819c2.488-2.991,8.169-1.453,9.822-1.46
		c1.286-0.006,4.348-10.207-0.83-13.215c-1.097-0.637-1.616,5.954-2.364,8.726c-3.332-1.951-9.49-3.595-10.312-7.037
		c-0.421-1.906,5.629-5.576,4.44-7.727c-1.73-3.131-6.199-7.814-8.113-6.529c-1.809,1.639-6.122,4.986-6.093,7.276
		c1.347,4.107,4.772,4.394,6.572,8.278c0.448,0.84,3.759,4.369,3.759,4.369c-1.242,1.905,0.769,5.236,0.862,4.727l-15.682-6.852
		c0,0,3.595,27.124-0.202,31.139c-0.401,0.425,3.359-1.063,3.423-0.832c1.143,1.45,13.808,9.526,17.433,12.428
		c6.438-9.004,8.789-12.965,17.087-20.955c1.82-1.509,5.881-4.267,8.202-7.579c1.865-2.661,2.639-5.659,2.304-7.985
		c-0.433-3.01-0.7-5.068-2.552-7.467c-4.278-5.539-11.083-10.823-10.963-10.92l2.325-1.896c0,0,8.393,6.959,11.946,12.078
		c2.395,3.448,1.32,7.402,3.385,8.11c0.497,0.17,3.889-0.113,5.002,0.101c0.135,0.026,24.688,17.404,20.237,18.407
		c-6.163,1.388-15.991,0.482-15.991,0.482c-7.016-6.868-10.403-9.127-14.585-6.975c0,0-10.597,9.296-16.712,16.573
		c-3.485,4.148-9.011,12.82-9.011,12.82c-0.411-0.18-12.543-9.797-12.037-8.719c0,0,2.909,26.34,1.615,35.98
		c-0.888,8.188-2.104,16.98-2.646,24.533c1.721-0.375,4.26-0.865,4.74,1.768c0.42,3.594-4.196,2.76-4.304,2.449
		c0.008-0.004,2.576,5.545,2.576,5.545s-3.998,6.916-3.887,6.615c0.068-0.186-3.635-6.139-3.635-6.139s2.749-4.998,3.163-6.012
		c0.282-0.691-4.207,1.824-4.383-1.824c-0.182-3.752,4.685-2.855,4.432-2.383C38.84,194.146,37.497,185.849,36.647,179.087
		L36.647,179.087z M96.765,197.14c0.11-0.082-10.611-4.314-20.46-3.914c-3.47-1.355-9.129-2.773-12.906-0.248
		c-4.248-2.885-7.915-6.059-11.642-9.205c1.044-0.014,5.532-25.852,7.509-34.006c-1.141-10.908,9.342-10.9,10.252-2.162
		c11.291,11.707,25.117,23.814,39.369,35.729C106.619,188.048,98.436,191.642,96.765,197.14L96.765,197.14z M121.453,119.969
		c-12.874-13.16-39.816-36.687-39.816-36.687l12.611-12.342c6.621,1.979,13.424,3.632,21.115,3.709
		c0.03,0.03,8.428,3.831,12.902-0.01l11.643,9.249c0,0-4.828,25.464-7.664,34.352c0.061,3.52-1.268,7.808-4.736,8.444
		C124.547,127.229,122.27,123.019,121.453,119.969L121.453,119.969z M147.473,89.484c1.343-8.277,1.619-14.303,2.552-23.961
		c-5.807,1.706-5.729-6.142-0.024-4.077l-2.644-5.842l3.915-6.58l3.594,6.249l-3.095,5.539c6.433,0.317,4.881,6.304-0.659,4.858
		c1.045,9.252,3.345,18.598,3.233,27.744c1.991,14.669-2.449,35.08-1.714,35.563l6.273,4.326l-1.072,31.914l-9.906-4.352
		l-2.948,1.992c0.946,1.879,2.15,3.68,2.557,5.721c0,0,6.822,5.625,5.876,7.379c0.439,0.258-4.855,7.283-6.409,7.107
		c-2.962-0.334-6.396-4.178-7.386-6.904c-0.836-2.748,6.125-5.443,5.247-7.455c-1.05-2.404-3.702-3.562-6.053-4.27
		c-3.241-0.975-4.724-3.547-4.873-3.547c0,0-1.259,10.201-2.472,9.385c-4.879-3.281-1.542-13.689-0.637-13.398
		c0,0,2.13,0.49,4.646,0.727c8.868,0.932,8.268-9.998,6.549-15.289c-0.614-2.068,2.015-1.404,3.133-1.719
		c4.306-1.271,10.966-5.727,10.966-5.727c-6.931-3.854-13.049-8.251-18.537-12.42c0,0-5.095,8.716-11.134,14.762
		c-4.396,4.4-5.112,5.9-12.47,11.566c-0.143,0.111-5.576,6.623-2.989,14.227c2.214,6.506,12.854,13.551,12.776,14.02l-2.095,2.008
		c0.085,0.115-15.062-9.42-14.709-19.678c-0.018-0.387-6.885-0.521-6.885-0.521l-19.959-18.543l16.908-0.072l8.681,7.107
		l5.425,0.281c0.354,0.312,0.551-1.436,5.328-5.008c9.127-6.826,20.437-24.352,20.437-24.352s11.958,8.432,11.97,8.433
		C148.272,114.015,146.235,100.398,147.473,89.484L147.473,89.484z M103.933,29.643c0,0-12.426,23.398-19.239,34.421l-9.653-2.775
		c4.045-10.761,0.172-31.271-0.846-31.787L103.933,29.643z"/>

		<path id="path4073-4-2-4" fill="#131F67" d="
		M30.167,28.282v210.524h130.614V28.282H30.167z M120.455,180.978c6.188-5.766,12.309-10.523,18.031-13.982
		c2.219-1.342,2.893-1.539,3.765-0.742c1.422,1.297,2.308,2.426,1.843,3.334c-0.104,0.205-0.439,0.545-0.439,0.545l-3.419-1.305
		l1.108,3.889c-3.076,1.256-3.021,4.594-0.053,6.361l-2.042,4.713l4.748-2.096c0.183,1.027,3.568,3.512,5.675,0.002l4.287,2.098
		l-1.477-5.264c1.407-1.346,2.229-3.496,0.014-5.477l1.02-4.125l-3.873,1.264c-0.97-1.33-1.533-1.238-1.756-1.602
		c-0.066-0.494-0.078-1.65-0.723-2.713c-0.532-0.881-1.142-1.816-1.711-2.471c-0.302-0.512-0.061-0.555,1.486-1.393
		c0.727-0.395,1.326-0.793,1.326-0.793s7.577,3.834,10.686,5.293v70.539h-41.582c-4.701-14.072-1.324-26.297-0.079-31.416
		c-2.191-0.184-13.497-3.855-13.836-5.119C107.933,193.384,114.012,186.902,120.455,180.978L120.455,180.978z M39.112,201.519
		c-5.452-1.766-5.508,4.818-2.722,5.328c0.722,0.133,1.477,0.24,2.605-0.125c0.28,0.059-3.266,5.52-3.266,5.52s2.84,5.172,4.2,7.371
		l4.293-7.639l-2.807-5.287c4.395,2.246,6.67-4.443,2.056-5.318c-1.115-0.152-2.347,0.408-2.347,0.408l2.426-22.883
		c1.957,1.332,5.525,4.006,5.525,4.006c0.812,12.607,0.217,23.113,7.245,41.455l0.072,12.699h-24.48v-66.566l4.48,3.031
		c0.09,0.375-0.673,0.123-0.262,4.76C36.504,182.468,37.776,189.732,39.112,201.519L39.112,201.519z M125.747,30.238
		c0.192,0.273,0.179,0.692,0.345,1.247c0.977,3.264,4.371,7.183,7.077,8.212c0.947,0.36,1.315,0.908,0.769,1.457
		c-0.691,0.693-3.543-1.202-5.648-3.661c-1.912-2.232-3.188-4.08-3.47-5.482c-0.168-0.832-0.252-1.367-0.128-1.8
		C125.041,29.725,125.476,29.86,125.747,30.238z M129.121,29.885c0.357-0.002,0.839,0.421,1.128,1.189
		c0.694,1.848,1.783,3.229,3.487,4.424c0.451,0.316,0.631,0.791,0.401,1.069c-0.085,0.103-0.196,0.152-0.321,0.188
		c-1.328,0.372-4.826-3.686-5.104-6.205C128.652,30.004,128.843,29.886,129.121,29.885z M133.474,29.935
		c0.706-0.003,1.045,1.476,0.636,2.25c-0.267,0.244-0.853-0.133-1.373-1.104C132.29,30.248,132.469,29.94,133.474,29.935z
		 M131.107,29.959c0.158-0.005,0.485-0.089,0.651,0.142c0.272,1.528,1.421,2.634,2.337,3.519c0.154,0.29,0.226,0.896-0.11,1.055
		c-0.803,0.356-3.221-2.399-3.237-3.994C130.739,30.2,130.889,29.966,131.107,29.959L131.107,29.959z M128.039,30.927
		c0.847,2.789,2.899,5.063,4.736,6.244c1.314,0.839,1.821,1.315,1.212,1.743c-0.151,0.106-0.304,0.188-0.34,0.183
		c-3.076-1.178-6.857-5.646-6.984-8.808C127.333,29.429,127.924,30.392,128.039,30.927z M117.393,43.033
		c-1.618,0.002-3.6,0.371-5.208,1.104c-2.239,1.02-2.8,1.696-2.474,1.942c0.234,0.172,1.676-0.447,2.398-0.542
		c3.898-0.968,6.581-1.205,9.121-0.095c1.965,0.859,1.977,0.465,0.658-0.965C120.932,43.44,119.226,43.03,117.393,43.033
		L117.393,43.033z M131.134,45.177c1.29-0.014,2.607,0.289,3.075,0.893c0.364,1.952-0.607,1.06-1.391,0.67
		c-1.132-0.523-2.428-0.976-3.638-0.789c-0.777,0.119-0.8,0.08-0.358-0.17C129.487,45.375,130.428,45.186,131.134,45.177
		L131.134,45.177z M115.853,45.936c-3.687,0.287-4.964,2.157-7.345,4.086c-0.978,0.746-0.755,1.323,0.437,1.128
		c1.472-0.242,2.064-0.184,4.071,0.503c2.19,0.75,3.76,1.062,4.964,0.598c2.276-0.878,2.081-0.731-1.174,2.43
		c-1.741,1.402-1.038,1.329,0.726,0.114c1.304-1.044,2.2-1.71,2.473-2.282c0.132-0.278,0.144-1.275,0.389-1.275
		c0.828,0.001,0.401-1.035-0.351-1.476c-0.495-0.354-0.384-0.723,0.256-1.402c1.005-1.06,0.663-1.539-0.428-0.879
		c-0.192,0.104-0.287-0.219-0.953-0.622C117.864,46.22,116.976,45.924,115.853,45.936L115.853,45.936z M118.511,47.324
		c0.892,0.753,0.51,0.961-1.435,0.942c-1.645-0.016-3.043,0.157-4.996,0.807c-2.217,0.737-2.352,0.756-1.05-0.356
		C112.822,47.185,116.461,45.649,118.511,47.324z M130.029,46.675c0.895-0.019,1.649,0.108,2.331,0.485
		c1.857,1.026,2.271,1.917,0.203,1.191c-1.298-0.456-3.05-0.392-4.26-0.055c-1.251,0.348-1.467,0.469-1.297-0.207
		C127.213,47.26,128.538,46.707,130.029,46.675z M115.422,49.705c0.44,2.213,2.113,1.49,2.279,0.154l0.611,0.002
		c-0.26,1.777-2.672,3.264-3.609-0.156C114.901,49.699,115.777,49.76,115.422,49.705L115.422,49.705z M128.771,49.742l0.454-0.014
		c0.299,1.696,1.871,2.251,2.555,0.129l0.549,0.012C131.908,53.408,128.173,51.684,128.771,49.742z M114.141,49.908
		c0.302,0.106,0.439,0.937,0.389,1.155c-0.105,0.453-1.582-0.029-1.895-0.473C112.943,50.261,113.672,49.742,114.141,49.908z
		 M134.239,50.285v0.619c-0.683,0.164-0.966,0.549-1.604,0.423c0.036-0.396-0.03-0.94,0.34-1.402
		c0.465-0.246,1.018,0.056,1.268,0.36H134.239z M119.354,51.001c-0.31,0.245-0.734,0.271-0.734,0.271
		c-0.066-0.593-0.166-1.261,0.571-1.266C119.676,50.148,119.642,50.75,119.354,51.001z M127.865,50.017
		c0.26,0.019,0.563,0.665,0.6,1.042c-0.076,0.619-1.596,0.372-1.596-0.243C126.869,50.555,127.504,50.018,127.865,50.017
		L127.865,50.017z M113.963,73.454c-1.173-0.589-10.066-6.009-12.345-15.595l-0.452,0.98c0.965,2.295,2.39,6.022,2.39,6.022
		c-0.059-0.321,0.364,2.497,1.271,7.282c-0.481,0.006-1.013-0.132-1.535-0.271c-1.173-4.381-1.45-7.814-2.436-12.102l-0.429,1.197
		c0,0,1.238,7.691,2.078,10.699c-0.479-0.046-1.363-0.244-1.363-0.244c-0.699-3.244-1.239-5.42-1.897-8.674l-0.605,0.787
		c0.869,2.67,1.208,5.058,1.646,7.615c-0.597-0.09-1.197-0.147-1.766-0.465c0,0-0.897-4.666-1.017-4.734
		c-0.342,0.346-0.482,0.791-0.482,0.791c-0.036-0.042,0.778,2.586,0.721,3.669c-0.572-0.095-1.562-0.381-2.261-0.616
		c-0.365,0.244-0.556,0.649-0.837,1.015c0.345,1.485,20.749,4.699,19.525,3.471c-0.008,0.129,8.997,3.953,14.022,0.703
		c0,0,8.739,6.501,12.153,9.098c0,0.296,1.183,1.673,2.414,2.549l3.46,2.673c1.005,0.783,1.407,0.217,1.56-1.259
		c0.171-1.643,1.361-12.716,1.639-15.076c1.039-7.954,1.037-7.87-0.166-7.504c-1.842,0.56-3.5-0.167-3.5-2.057
		c0-1.156,0.533-2.113,1.762-2.561c0.349-0.12,0.803-0.13,1.324-0.12c0.238,0.043,0.68,0.072,0.727,0.081
		c0.586-0.033-2.271-5.222-2.271-5.222s2.73-4.88,4.044-6.697l3.534,6.422l-2.895,5.666c5.637-0.425,5.084,6.681-0.433,4.302
		c0,0-0.032,2.11-0.021,1.956c0.054-0.604,0.044-1.12,0.235-1.233c5.345,2.031,6.434-5.786,0.674-5.426
		c0.948-1.657,2.004-3.371,2.989-5.197l-4.165-7.614l-4.704,7.85l2.368,4.9c-0.533-0.139-0.96-0.055-1.529,0.004
		c-3.487,0.716-2.737,6.344,1.247,5.57c0.455-0.089,1.14-0.434,1.14-0.434l-2.572,22.988c0,0-0.254,0.206-1.286-0.54
		c-1.192-0.861-3.689-2.733-3.849-2.926c0.893-14.696-2.772-30.159-6.957-39.841c-0.266-0.742-0.108-15.323-0.108-15.323h23.949
		v67.778c-1.241-0.788-2.716-1.825-3.991-2.728c-0.382-0.311-0.619-0.679-0.455-1.271c-0.42,0.9-0.166,1.286-0.166,1.286l5.24,4.199
		l-0.209,66.641c0,0-8.459-4.373-13.666-6.482c-2.35-0.961-2.455-0.684-2.455-0.684c0.008-0.004,1.66,3.736,1.188,4.412
		c1.12,1.078,3.001,3.338,3.093,5.549c1.002,0.871,1.283,0.979,2.035,2.232l3.144-1.139l-0.714,3.283
		c3.342,2.348,0.124,5.506-0.494,5.215c0,0,1.475,3.174,1.811,4.617c-0.527-0.035-3.175-1.475-3.912-1.816
		c-1.918,3.787-5.156,0.609-5.183,0.051l-3.593,1.605l1.272-4.104c-2.313-1.41-3.877-3.545-0.136-5.842l-0.864-3.199l3.077,1.211
		c0,0,0.573-0.924,1.01-1.6c-1.15-5.025-8.717-4.074-11.147-8.596c0,0-0.597,5.645-1.209,7.686
		c-0.239,5.396-4.009-0.062-4.009-5.771c0-1.289,1.616-5.627,2.163-5.838c0.568-0.08,5.97,2.539,9.597-0.062
		c1.651-1.723,4.5-6.568,1.764-14.156c-0.905-1.754,1.721-1.975,2.574-1.383c0,0,7.893-4.141,11.456-6.137
		c-5.978-3.293-18.407-12.059-18.398-12.475c-1.658,2.641-3.558,4.854-6.228,8.589c-4.328,5.111-7.711,9.968-13.204,14.054
		c-7.725,5.641-9.538,11.318-7.384,17.984c0.872,2.881,2.627,5.803,5.502,6.814c1.463,1.482,7.338,7.062,7.338,7.062
		c-9.809,8.959-16.543,16.326-21.266,24.467c3.986,2.104,13.601,5.148,13.601,5.148c-3.571,11.904-1.945,21.359,0.408,30.852
		c0,0-27.908,0.035-42.39-0.42c-0.124,0.121-1.691,0.037-1.712-0.062c-0.057-1.061,2.608-3.979,3.406-3.572
		c0.401-0.395,1.249-0.598,1.097-1.084c-1.998-0.238-5.029,3.225-5.149,4.656h-1.191c-0.244-0.213,2.163-5.85,6.985-6.299
		c-0.05,0.203,0.647-0.438,0.124-0.713c-5.622,0.67-8.241,6.926-8.075,7.012h-0.869c1.912-6.154,6.891-8.096,9.771-8.363
		c0.027-0.012,0.934-0.328,0.69-0.867c-6.366,1.109-9.541,3.873-11.071,9.23h-1.147c0.828-5.436,6.401-10.195,12.702-10.041
		c0.197-0.125,0.438-0.273,0.336-0.891c-6.992,0.791-10.479,3.131-13.352,9.154c-2.568-6.689-9.709-9.863-9.794-9.891
		c0,0-0.173-1.873,0.226-1.797c6.092,2.213,8.418-3.092,8.163-6.176c-0.142-1.715-0.046-2.66-0.618-5.131
		c-0.51-2.205-0.887-3.691-0.847-4.648c0.04-0.947,0.336-1.139,1.033-1.455c1.306-0.594,2.124-2.744,1.833-3.008
		c-0.671,1.564-2.444,1.834-3.262,2.885c-0.652,0.865-0.364,2.244,0.797,7.027c0.708,2.916-0.131,1.576-1.783,0.662l-1.104-0.625
		c0.74,0.762,1.522,1.482,2.276,2.229c0.675,0.619,0.297,1.002-0.671,0.645c-1.394-0.699-4.079-0.406-5.108,0.473
		c-0.401,0.285-0.544,0.256-0.645-0.008c-0.45-7.43,0.328-12.002,2.782-17.586c1.586-3.795,3.947-6.639,7.099-6.84
		c3.174-0.264,7.737,0.852,11.883,3.676c4.868,3.316,9.612,8.359,10.116,14.547c0.02,0.07,0.375-0.529,0.536-0.848
		c0.223-0.734-0.59-2.943-1.858-5.504c-0.234-1.928-0.895-5.305-1.414-7.59c0.395-0.18,1.236-0.078,1.473,0.209
		c0.891,3.777,1.525,6.721,2.29,11.781c0.011,0.492,0.643-0.732,0.645-1.059c-0.109-0.754-2.212-10.656-2.17-10.432
		c0.012-0.336,1.995,0.107,1.722,0.418c0,0,1.508,8.309,1.615,8.051l0.51-0.705c0,0-1.439-6.066-1.26-7.236
		c0.123-0.18,1.238,0.184,1.592,0.375c0.443,0.598,0.728,2.762,0.915,4.238c0.513,0.393,0.614-0.742,0.575-1.041
		c-0.369-0.588-0.761-2.781-0.467-2.895c0.23-0.088,1.508,0.42,1.753,0.639c0.288,0.258,1.402-1.289,1.119-1.557
		c-6.027-2.316-13.632-3.666-19.354-3.758c-1.33,0.006-1.857-0.184-3.896-0.922c-5.194-1.881-9.488-0.008-10.118,0.588
		c-6.342-4.42-13.421-10.594-19.057-14.533c-0.265-0.176-0.897-0.279-0.966-0.279c-0.895,6.857-1.52,14.791-2.281,21.119
		c-0.311,2.506-0.348,2.701-0.232,2.771c0.099,0.062,0.295-0.039,0.372-0.078c1.854-0.686,3.53-0.24,4.418,1.441
		c0.446,2.402-1.648,3.984-3.857,2.842c-0.82-0.422-0.938-0.34-0.564,0.461c0.646,1.443,2.511,5.242,2.511,5.242
		c0,0.002-2.519,5.156-3.793,6.559c-1.242-2.012-2.826-4.047-3.514-6.244c0.976-1.916,2.819-4.383,3.402-6.271
		c-0.083-0.061-0.585-0.01-0.935,0.174c-3.224,1.529-3.741-1.352-3.698-2.387c0.087-2.104,1.914-2.551,4.568-1.57
		c-2.868-19.119-3.48-30.012-2.748-28.832c0,0-3.465-2.486-5.188-4.172l0.195-139.169h41.111c4.226,11.365,3.062,25.033,0.536,32.15
		c4.487,0.823,9.02,1.886,14.141,4.835C79.051,79.722,65.47,93.471,50.76,102.275c-0.834,0.377-3.573-1.337-3.895-3.029
		c-0.074-0.394,0.143-1.169,0.584-1.154c1.08,0.352,2.128,0.835,3.183,1.267c0,0-1.47-3.7-0.761-4.262
		c0.462-0.304,0.84-0.558,1.136-0.871c1.056-1.367,0.971-2.921-0.146-4.112c-0.45-0.474-0.976-0.8-1.238-0.92
		c0,0,1.036-2.887,1.557-4.247L47.098,86.3c-1.322-1.837-3.753-3.267-5.549-0.531c-0.343,0.729-0.271,0.618-2.798-0.504
		c-1.433-0.636-2.315-0.961-2.315-0.961c0.537,1.604,1.24,3.11,1.854,4.968c-2.812,1.798-2.171,4.831,0.196,5.735l-1.247,4.097
		c0,0,2.658-0.994,4.1-1.38c0,0,1.265,1.273,1.639,2.484c0.644,2.075,2.104,3.58,3.026,4.438c-1.538,1.131-2.298,1.512-4.029,2.347
		l5.979,2.423c-0.372-1.269-1.164-2.209-1.243-3.812c-0.071-1.374-0.149-1.399-1.034-2.329c-1.628-1.423-1.801-3.111-2.347-4.227
		c-0.746-0.441-1.225-1.143-1.576-1.882c-0.394-0.827-2.965,1.111-3.354,0.744c-0.477-0.511,0.828-3.127,0.684-3.388
		c-1.05-0.09-3.989-2.389-0.488-4.948l-1.117-4.164c0,0,2.666,1.169,3.943,1.823c0.888-4.161,4.935-2.166,5.589-0.372
		c0,0,3.207-1.058,3.009-0.199c-0.09,0.771-0.61,2.693-0.61,2.693c2.884,2.562,2.287,3.818-0.057,5.498
		c-0.035,1.358,0.533,3.469,0.533,3.469s-1.632-0.727-2.707-1.032c-0.43,0.432-0.919,1.211-0.837,1.613
		c0.729,3.237,4.709,4.139,10.606,7.447c0.203-2.092,1.642-4.95,1.805-7.461c0.102-1.83,0.164-1.858,1.448-1.273
		c3.379,2.447,2.348,9.175,1.116,11.935c-0.729,1.562-0.85,1.522-2.268,1.069c-1.963-0.628-5.436-0.375-7.345,0.274
		c-2.642,1.085-3.888,6.994-3.916,8.79c-0.047,1.705,0.085,3.397,0.977,5.505c0.37,1.348-0.31,2.387-1.521,2.025
		c-0.272-0.081-0.919-0.329-0.919-0.329l-11.4,5.915l2.147,1.268c0,0-1.583-0.948-0.603-1.462l9.775-5.116
		c1.821,0.713,1.577,0.858,2.758-0.376c0.706-0.729,1.053-0.744,2-0.653c5.763,0.555,8.315-0.287,9.312-2.709
		c0.149-0.363,0.093-0.351,0.681-0.649c1.091-0.425,1.604-1.194,1.658-2.159c0.036-0.633,0.311-0.72,0.791-1.162
		c0.896-0.825,1.078-1.86,0.514-2.925c-0.266-0.5-0.469-0.658-0.358-1.178c0.185-0.87-0.136-1.775-0.97-2.734
		c-0.959-1.104-0.953-0.917,0.854-2.605c3.549-3.384,6.676-5.974,10.128-9.035c2.361-2.095,2.106-1.944,3.025-0.986
		c3.383,3.528,4.71,9.029,3.187,13.866c-0.071,0.228-0.104,0.201,0.074,0c0.956-1.088,0.983-6.563,0.166-8.991
		c-0.997-2.983-1.963-4.536-5.26-7.458c-2.059-1.864-7.659-7.245-7.659-7.245C75.29,83.4,84.068,74.59,88.989,66.489
		c-2.525-2.717-14.234-5.222-14.234-5.222c1.458-3.033,4.341-16.657-0.595-31.764c14.49,0.67,29.086-0.394,43.561,0.589
		c0,0,0.226-0.086,0.346-0.117c0.402-0.106,0.604,0.179,0.507,0.631c-0.311,1.153-1.997,3.853-3.188,3.63
		c-0.53-0.207-0.381,0.816-0.618,1.242c1.876-0.244,4.076-2.629,4.627-4.992c0.303-0.496,0.499-0.58,0.8-0.484
		c0.347,0.11,0.26,0.441-0.115,1.585c-1.176,2.858-3.558,5.515-6.326,5.25l-0.359,0.975c3.736-0.061,6.625-3.573,7.479-6.201
		c0.596-1.562,0.619-1.774,1.219-1.624c0.495,0.46,0.188,1.121,0.02,1.664c-1.878,6.02-7.037,7.628-9.605,7.366
		c-0.31-0.039-0.364,0.252-0.271,0.747c5.519,0.366,9.914-4.402,10.535-8.495c0.303-1.136,0.827-1.523,1.13-1.005
		c0.171,0.458,0.113,0.926,0.029,1.362c-1.508,6.459-8.373,10.127-12.567,9.079c-0.194-0.182-0.511,0.711-0.054,1.03
		c8.468-0.32,11.082-4.704,13.014-8.576c2.305,3.485,4.188,7.08,9.709,9.192c0,0,0.551,1.217,0.116,1.489
		c-0.229,0.144-0.578,0.077-1.085-0.006c-6.729-1.09-8.955,5.219-6.091,14.643c0.784,2.581,0.434,2.186-1.243,3.801
		c-0.799,0.77-1.18,2.134-0.97,2.165c0.287-0.162,0.382-0.604,1.081-1.186c0.305-0.253,0.93-0.494,1.391-0.813
		c1.245-0.724,1.234-1.22,0.787-2.931c-0.332-1.273-1.179-5.145-1.18-5.537c0-0.742,0.173-0.664,1.098,0.001
		c1.292,0.96,2.024,0.892,0.461-0.339c-0.604-0.477-0.998-0.848-1.181-1.115c-0.249-0.364-0.095-0.599,0.409-0.44
		c2.318,0.729,4.31,0.676,6.561-0.698c0.257,6.218-0.596,15.649-5.789,22.395C124.411,78.266,116.784,74.871,113.963,73.454
		L113.963,73.454z M120.065,59.167c-0.154,0.008-0.711,0.123-1.055,0.32c-1.529,0.878-1.164,3.995,0.506,4.41
		c0.671,0.167,1.28,0.258,2.409-0.282c0.672-0.321,1.612-0.573,1.877-0.463c0.554,0.232,0.729-0.259,0.848-0.812
		c0.265-1.239-1.761-1.269-3.373,0.012c-2.034,1.616-3.593-0.769-1.677-2.564C120.239,59.374,120.22,59.16,120.065,59.167
		L120.065,59.167z M104.264,65.836l1.709,1.98l1.073,4.719c-0.651,0.111-1.44-0.251-1.44-0.251
		C105.072,70.148,104.552,68.011,104.264,65.836z M127.53,67.023c-0.018,0.002-0.037,0.006-0.058,0.016
		c-0.071,0.031-0.39,0.175-0.83,0.225c-0.254,0.028-0.638-0.152-0.911-0.136c-0.748,0.046-1.447,0.268-1.634,0.345
		c-0.229,0.096-0.456,0.136-0.652,0.02c-0.558-0.33-2.183-0.236-2.677,0.054c-0.585,0.25-1.242,0.253-1.723,0.004
		c-0.207-0.106-0.418-0.378-0.455-0.341c-0.076,0.077-0.389,1.413-0.483,1.93c0,0.182-0.125,0.484-0.05,0.515
		c0.095,0.039,0.401-0.24,0.779-0.434c0.776-0.397,1.644-0.366,3.167,0.008c1.881,0.462,2.612,0.328,3.724-0.24
		c0.883-0.452,1.42-0.561,2.008-0.398c0.145,0.04,0.53,0.24,0.583,0.189c0.104-0.1-0.181-0.659-0.425-1.212
		C127.716,67.166,127.652,67.009,127.53,67.023L127.53,67.023z M107.241,69.153c1.651,1.569,1.527,1.435,2.57,2.211l-0.051,1.513
		c0,0-1.277,0.028-1.903-0.167C107.659,72.121,106.8,69.168,107.241,69.153z M120.827,70.169c0.112,0.077,0.274,0.158,0.499,0.235
		c2.629,0.988-0.121,0.739-0.383,1.682c0,0.084,0.119,0.098,0.249,0.047c0.902-0.355,3.106-0.586,4.108-0.392
		c1.302,0.44,1.383,0.137,0.132-0.519c-0.915-0.362,0.194-0.608,0.568-0.925c0.776-0.5,0.242-0.707-0.746-0.231
		c-0.989,0.476-2.75,0.468-3.553,0.017c-0.355-0.181-0.701-0.349-0.865-0.359C120.501,69.71,120.68,70.062,120.827,70.169
		L120.827,70.169z M110.477,71.863l1.539,1.207l-1.574-0.152L110.477,71.863z M75.621,102.185c-0.311,0-0.563,0.254-0.563,0.565
		s0.253,0.565,0.563,0.565s0.564-0.254,0.564-0.565S75.932,102.185,75.621,102.185z M77.676,102.756l-7.059,3.361l1.865,0.627
		l-0.016,1.937l1.719-0.549l0.728,1.809L77.676,102.756z M77.989,104.339c-0.311,0-0.564,0.254-0.564,0.565
		c0,0.312,0.254,0.566,0.564,0.566s0.564-0.254,0.564-0.566C78.553,104.593,78.299,104.339,77.989,104.339z M69.039,107.779
		c-0.311,0-0.563,0.25-0.563,0.562s0.253,0.565,0.563,0.565c0.312,0,0.564-0.254,0.564-0.565S69.351,107.779,69.039,107.779z
		 M71.209,108.831l-7.924,3.65l2.35,0.716l-0.621,2.426l1.913-0.806l1.068,1.628L71.209,108.831z M71.443,110.568
		c-0.311,0-0.563,0.254-0.563,0.565c0,0.312,0.253,0.565,0.563,0.565s0.56-0.253,0.56-0.565
		C72.002,110.822,71.753,110.568,71.443,110.568z M55.721,110.932c2.979-0.005,6.321,1.133,7.462,3.691
		c0.304,1.279-0.95,2.04-3.627,1.305c-4.424-1.217-5.249-1.354-4.515-0.6c0.098,0.1,0.292,0.343,0.954,0.569
		c1.667,0.569,4.892,1.229,5.762,1.139c1.189-0.158,2.012,0.396,1.715,1.391c-0.337,1.129-1.881,1.591-4.202,1.263
		c-2.403-0.339-3.727-0.617-4.525-0.859c-1.025-0.312-1.062-0.285-0.576,0.438c0.254,0.376,0.278,0.677,0.653,0.748
		c1.587-0.091,3.277,0.214,4.734,0.353c2.616,0.234,3.026,0.979,1.104,2.114c-0.91,0.539-3.635,0.392-5.183-0.167
		c-1.106-0.4-3.643-0.971-2.665-0.197c0.235,0.187,0.155,0.644,0.564,0.787c1.342,0.186,5.134,0.452,5.727,0.99
		c0.382,0.347-0.479,1.227-2.248,1.686c-2.666,0.507-6.65,0.295-7.703-0.426c-1.949-3.98-0.9-10.496,2.15-13.043
		C52.277,111.349,53.934,110.934,55.721,110.932L55.721,110.932z M73.193,113.009c-0.312,0-0.561,0.253-0.561,0.565
		c0,0.312,0.249,0.562,0.561,0.562c0.311,0,0.563-0.25,0.563-0.562C73.756,113.261,73.503,113.009,73.193,113.009z M75.545,113.611
		l-8.181,4.087l2.069,0.617l-0.49,2.388l1.917-0.793l1.161,1.606L75.545,113.611z M75.609,115.611c-0.311,0-0.563,0.254-0.563,0.566
		c0,0.312,0.253,0.565,0.563,0.565c0.312,0,0.563-0.254,0.563-0.565C76.172,115.865,75.92,115.611,75.609,115.611z M80.367,120.43
		c-3.629,3.541-7.717,6.347-11.452,9.786l0.81-0.033l2.035-1.841l57.311-0.181l-1.339,1.961l0.563,0.242
		c0,0,1.719-2.549,1.602-2.665c-12.592,0.036-22.311,0.007-36.124,0.103c-2.518-2.502-5.177-4.845-7.81-7.221L80.367,120.43z
		 M62.947,122.701c-0.312,0-0.564,0.254-0.564,0.566c0,0.312,0.253,0.565,0.564,0.565c0.311,0,0.56-0.254,0.56-0.565
		C63.506,122.955,63.257,122.701,62.947,122.701z M137.767,123.134c4.95,3.686,10.816,8.205,15.685,10.888
		c1.949,0.849,1.76,1.14-0.221,2.078c-1.947,1.215-5.188,2.779-7.89,4.146c-1.171,0.443-1.683-0.135-2.515,0.02
		c-0.599,0.152-0.77,0.266-1.127,0.738c-0.586,0.777-0.426,0.75-3.557,0.609c-3.159-0.143-4.462-0.072-5.141,0.275
		c-0.653,0.334-1.773,1.475-1.773,1.947c0,0.455-0.356,1.041-1.008,1.236c-0.758,0.184-1.632,0.785-1.595,1.719
		c-0.202,0.703-0.631,1.016-1.012,1.4c-0.9,0.912-0.811,1.627-0.55,2.475c0.12,0.379,0.304,0.289,0.21,1.41
		c-0.214,2.568-0.39,2.352,2.349,4.252l-13.992,12.229c-0.324,0.256-0.419,0.23-0.714,0.027c-1.706-1.271-2.894-3.371-3.578-5.473
		c-2.364-6.531,0.522-11.896,4.358-15.18c1.329-1.139,3.115-2.494,3.611-2.836C126.532,138.917,132.815,130.165,137.767,123.134z
		 M65.034,123.612l-7.998,3.788l2.576,0.436l-0.493,2.232l1.866-0.71l0.987,1.882L65.034,123.612z M65.524,125.383
		c-0.311,0-0.563,0.254-0.563,0.565s0.253,0.562,0.563,0.562s0.561-0.25,0.561-0.562S65.834,125.383,65.524,125.383z
		 M138.816,127.866l-0.908-2.153c0,0-2.526,6.242-3.061,8.357c2.141-1.106,8.411-4.309,8.411-4.309l-2.684-0.5l0.303-2.444
		L138.816,127.866z M47.449,128.252c-0.312,0-0.564,0.254-0.564,0.565s0.253,0.565,0.564,0.565c0.311,0,0.563-0.254,0.563-0.565
		S47.76,128.252,47.449,128.252z M49.899,128.766c0,0-5.952,2.802-8.639,4.011l2.509,0.527l-0.44,2.447l2.264-0.887l0.913,2.418
		L49.899,128.766z M50.217,130.615c-0.311,0-0.563,0.254-0.563,0.565s0.253,0.562,0.563,0.562s0.564-0.25,0.564-0.562
		S50.528,130.615,50.217,130.615z M134.443,131.021c-0.311,0-0.563,0.25-0.563,0.562s0.253,0.565,0.563,0.565s0.56-0.254,0.56-0.565
		S134.753,131.021,134.443,131.021z M144.174,131.532l-2.833,7.897l7.661-3.869l-2.08-0.568l0.011-1.955l-1.711,0.5L144.174,131.532
		z M53.631,133.43c-0.311,0-0.563,0.254-0.563,0.565c0,0.312,0.253,0.566,0.563,0.566s0.564-0.253,0.564-0.566
		C54.196,133.684,53.942,133.43,53.631,133.43z M137.427,133.574c-0.312,0-0.561,0.254-0.561,0.566c0,0.312,0.249,0.562,0.561,0.562
		c0.311,0,0.563-0.25,0.563-0.562C137.99,133.828,137.738,133.574,137.427,133.574z M55.981,134.153l-8.118,3.973l2.52,0.592
		l-0.276,2.541l2.049-1.166l1.111,2.318L55.981,134.153z M56.489,135.833c-0.312,0-0.533,0.254-0.533,0.564
		c0,0.312,0.253,0.562,0.564,0.562c0.311,0,0.56-0.25,0.56-0.562C57.079,136.087,56.799,135.833,56.489,135.833z M140.907,136.331
		c-0.311,0-0.563,0.254-0.563,0.566s0.253,0.562,0.563,0.562c0.312,0,0.564-0.25,0.564-0.562S141.219,136.331,140.907,136.331z
		 M129.721,138.929l-0.754-2.125l-3.004,7.795l8.077-3.711l-2.563-0.604l0.046-2.035L129.721,138.929z M121.515,137.251
		c-0.093-0.004-0.174,0.021-0.174,0.082c0,0.18-2.063,2.203-2.063,2.203l-23.84,0.221c0.049,0.002,1.983,0.541,1.983,0.541
		c3.128,2.506,8.028,6.951,8.028,6.951l5.918-0.236c3.277-3.229,8.202-5.682,10.398-9.668
		C121.712,137.29,121.607,137.257,121.515,137.251L121.515,137.251z M143.862,138.859c-0.311,0-0.564,0.254-0.564,0.564
		c0,0.312,0.254,0.562,0.564,0.562s0.56-0.25,0.56-0.562C144.421,139.113,144.172,138.859,143.862,138.859z M125.458,141.579
		c-0.311,0-0.56,0.25-0.56,0.562s0.249,0.564,0.56,0.564c0.312,0,0.564-0.252,0.564-0.564S125.77,141.579,125.458,141.579z
		 M137.561,142.396c1.709-0.008,3.354,0.051,3.781,0.377c2.641,2.23,1.389,12.658-1.94,13.975c-3.653,0.824-6.18,0.977-9.351-1.121
		c-0.899-0.439-2.684-1.768-2.336-2.865c0.475-1.35,1.781-1.25,5.526-0.082c1.367,0.428,2.119,0.342,2.468,0.074
		c0.326-0.25-0.101-0.529-0.799-0.531c-0.281,0-1.492-0.301-2.503-0.611c-1.426-0.439-1.835-0.568-2.757-0.625
		c-1.551-0.092-2.001-0.152-2.001-1.104c0-1.775,2.462-2.01,6.994-0.969c0.542,0.125,1.523,0.264,1.765,0.256
		c0.175,0.068-0.345-0.588-0.433-0.98c-0.163-0.139-0.456-0.205-1.228-0.232c-2.914-0.285-5.334-0.484-5.386-0.867
		c-0.258-1.879,3.512-2.391,7.421-0.883c1.003,0.387,1.023,0.227,1.016-0.066c-0.015-0.541-1.694-1.486-4.173-1.461
		c-2.41,0.025-2.074-1.203-0.093-2.127C134.211,142.238,135.852,142.406,137.561,142.396z M128.239,144.411
		c-0.311,0-0.56,0.254-0.56,0.564c0,0.312,0.249,0.566,0.56,0.566c0.312,0,0.564-0.254,0.564-0.566
		C128.803,144.665,128.55,144.411,128.239,144.411z M119.554,148.312l-0.51-2.105l-3.28,8.197l8.284-4.232l-2.731-0.514l0.239-1.725
		L119.554,148.312z M115.332,151.605c-0.311,0-0.563,0.254-0.563,0.564c0,0.312,0.253,0.566,0.563,0.566s0.561-0.254,0.561-0.566
		C115.893,151.859,115.643,151.605,115.332,151.605z M123.585,153.929l-0.697-1.99l-2.785,7.135l7.068-3.168l-2.088-0.57
		l0.297-2.162L123.585,153.929z M117.959,153.95c-0.312,0-0.564,0.254-0.564,0.566c0,0.311,0.253,0.564,0.564,0.564
		c0.311,0,0.56-0.254,0.56-0.564C118.519,154.204,118.27,153.95,117.959,153.95z M119.768,156.675c-0.311,0-0.563,0.25-0.563,0.562
		s0.253,0.566,0.563,0.566c0.312,0,0.561-0.254,0.561-0.566S120.079,156.675,119.768,156.675z M116.216,158.347l-2.386,6.758
		l6.643-3.225l-1.941-0.641c0,0,0.107-1.521-0.076-1.449c-0.115,0.043-1.365,0.395-1.365,0.395L116.216,158.347z M122.128,159.156
		c-0.311,0-0.563,0.25-0.563,0.561c0,0.312,0.253,0.566,0.563,0.566s0.563-0.254,0.563-0.566
		C122.692,159.406,122.439,159.156,122.128,159.156z M113.322,162.406c-0.311,0-0.564,0.254-0.564,0.566s0.254,0.566,0.564,0.566
		s0.563-0.254,0.563-0.566S113.633,162.406,113.322,162.406z M115.862,165.021c-0.311,0-0.564,0.25-0.564,0.562
		c0,0.311,0.254,0.564,0.564,0.564s0.563-0.254,0.563-0.564C116.425,165.271,116.172,165.021,115.862,165.021z M80.828,196.148
		c-0.305,0.045-1.095-0.68-1.248-1.021c0.45-0.113,0.915-0.029,1.168,0.184C80.957,195.507,81.104,196.017,80.828,196.148z
		 M83.234,195.657c-0.107,0.826,0.402,2.32,0.306,2.674c-0.262,0.129-1.582-1.293-1.908-1.639c-0.068-0.471,0.008-1.07,0.031-1.342
		C82.116,195.271,82.922,195.3,83.234,195.657L83.234,195.657z M85.614,196.07c0.281,1.83,1.084,4.771,0.959,5.764
		c-0.119-0.096-1.138-1.104-1.89-2.172c-0.265-0.639-0.677-2.867-0.642-3.934C84.549,195.659,85.229,195.74,85.614,196.07z
		 M69.673,195.863c-0.812,0.416-1.736,0.715-2.896,0.711c-0.93-0.004-2.531-0.488-2.369-0.369c0.423,0.76,1.529,0.361,1.551,0.857
		c-0.275,0.49-1.011,0.443-1.377,0.914c-0.076,0.125,0.108,0.23,0.627,0.176c1.57-0.715,3.623-0.703,5.501-0.084
		c0.395,0.084,0.136-0.297,0-0.396c-0.244-0.18-0.647-0.367-0.986-0.408c-1.642-0.293-0.921-0.459,0.177-0.951
		C70.707,196.017,70.909,195.29,69.673,195.863L69.673,195.863z M73.228,198.189c-0.218,0.016-0.765,0.295-1.363,0.537
		c-1.011,0.41-1.945,0.314-3.306-0.064c-1.181-0.33-1.611-0.238-2.787,0.355c-0.78,0.502-1.635,0.641-2.252,0.291
		c-0.802-0.457-0.796-0.301-0.399,0.828c0.1,0.283-0.097,1.137,0.252,1.334c0.266,0.148,0.571-0.35,0.776-0.42
		c0.205-0.068,1.494,0.512,2.213-0.127c1.283-0.467,1.668,0.291,2.557,0.217c1.442-0.51,2.345-1.041,3.584-0.057
		c0.073-0.369,0.361-2.383,0.822-2.859C73.313,198.195,73.279,198.185,73.228,198.189L73.228,198.189z M70.601,203.988
		c-1.038,0.012-1.6,0.652-2.938,0.529c-1.068-0.074-1.435,0.875-0.981,1.568c0.318,0.488,0.745,0.578,2.202-0.092
		c0.6-0.275,1.433-0.881,1.92-0.832c1.426,0.143,1.77,1.523,0.583,2.691c-0.577,0.342-0.583,0.711-0.406,0.717
		c0.469,0.02,1.419-0.543,1.635-1.199C73.205,205.575,72.143,203.954,70.601,203.988L70.601,203.988z M75.257,212.257
		c-1.351,0.285-3.297,1.84-3.958,2.846c-0.619,0.982-1.212,2.09-0.779,2.639c0.354,0.449,0.851,0.885,0.894,1.129
		c0.036,0.213-0.253,0.424-0.524,0.727c-1.186,1.332-0.903,1.404,0.76,0.541c0.842-0.438,1.234-0.613,1.784-0.471
		c1.603,0.42,3.598,0.121,4.954-0.379c0.613-0.227,1.213-0.531,1.26-0.375c-2.477,2.732-5.563,2.045-6.666,1.879
		c-0.191-0.051-0.34-0.039-0.34,0.027c0,0.133,0.32,0.42,1,0.723c1.139,0.508,3.871-0.031,5.581-1.281
		c3.38-2.219,5.243-4.338,2.579-3.451c-1.221,0.406-1.679,0.334-3.162-0.338c-2.224-1.008-3.928-1.303-5.77-0.658
		c-2.334,0.816-0.544-1.113,2.081-2.785C75.52,212.665,75.59,212.251,75.257,212.257L75.257,212.257z M62.67,218.023l-0.777,0.012
		c-0.557-1.881-1.902-1.877-2.484,0.012l-0.65-0.047C59.396,215.656,61.801,215.173,62.67,218.023L62.67,218.023z M76.512,218.177
		l-0.584,0.027c-0.354-1.139-1.604-2.141-2.484-0.275l-0.406-0.084C73.757,214.865,76.626,216.523,76.512,218.177L76.512,218.177z
		 M72.614,216.464c0.364,0,0.457,0.416,0.043,1.09c-0.291,0.473-0.638,0.43-0.984,0.072c-0.314-0.314-0.295-0.369,0.046-0.682
		C72.081,216.613,72.396,216.464,72.614,216.464z M76.92,216.476c0.158-0.004,0.459,0.127,0.797,0.24
		c0.887,0.301,1.088,0.551,0.725,0.914c-0.357,0.359-1.035,0.467-1.348,0.264c-0.015-0.449-0.457-0.793-0.472-1.242
		C76.622,216.531,76.762,216.482,76.92,216.476z M63.021,216.491c0.615-0.027,1.44,0.338,1.38,0.693
		c-0.065,0.389-0.672,0.645-1.173,0.686c-0.335,0.045-0.321-0.092-0.409-0.33c-0.078-0.213-0.18-0.484-0.236-0.697
		C62.445,216.433,62.706,216.503,63.021,216.491L63.021,216.491z M58.815,216.626c0,0-0.345,1.029-0.499,1.381
		c-1.287-0.07-1.165-0.639-0.558-1.051C58.085,216.706,58.416,216.702,58.815,216.626z M57.816,219.072
		c0.232,0.004,0.521,0.207,0.927,0.338c1.14,0.367,3.033,0.326,4.511-0.016c0.707-0.164,1.042-0.385,1.197-0.271
		c0.276,0.201-0.01,0.9-1.031,1.352c-1.33,0.492-3.359,0.76-4.896-0.027C57.207,219.775,57.062,219.058,57.816,219.072
		L57.816,219.072z M57.464,220.544c1.206,0.799,2.412,1.051,3.903,0.912c2.234-0.082,2.632-0.359,0.75,0.641
		c-1.738,0.924-4.419,0.754-4.936-0.248C56.886,221.275,57.077,220.591,57.464,220.544z M68.285,221.884
		c-0.008,0-0.014,0.002-0.02,0.004c0.18,1.209,2.203,2.314,3.175,2.576c2.06,0.916,5.335,0.01,7.801-1.059
		c1.8-0.777,2.45-1.953,0.306-1.285c-3.451,1.074-7.783,1.156-9.952,0.322C68.89,222.107,68.406,221.878,68.285,221.884
		L68.285,221.884z M56.93,226.409c4.318,0.979,9.537,7.658,9.518,10.578h-1.395c-2.123-7.43-7.637-9.037-8.176-9.48
		C56.63,226.595,56.941,226.388,56.93,226.409L56.93,226.409z M56.862,228.292c5.131,2.254,6.957,6.277,7.726,8.695h-1.501
		c-1.117-3.328-3.127-5.701-6.236-7.178C56.639,229.347,56.862,228.292,56.862,228.292L56.862,228.292z M56.853,230.57
		c2.63,0.777,4.949,4.25,5.608,6.418l-1.313-0.008c-0.931-2.42-2.249-3.971-4.345-4.865
		C56.716,231.659,56.735,231.144,56.853,230.57L56.853,230.57z M56.811,232.929c1.234,0.248,3.325,2.174,3.626,4.059h-1.204
		c-0.426-1.271-1.739-2.432-2.412-2.906C56.821,233.851,56.811,232.929,56.811,232.929z M56.938,234.941
		c0.133-0.082,1.976,1.582,1.665,2.047h-1.661c-0.019-0.518-0.031-2.053-0.008-2.047H56.938z"/>

		<path id="path4071-9-6-8" fill="#D40000" d="
		M103.965,29.967c-3.131,6.081-19.189,33.466-19.352,34.419l4.112,1.824l19.966-36.104
		C108.692,30.106,104.554,29.971,103.965,29.967z M151.207,52.887l-1.74,2.479l1.412,2.836l1.711-2.704L151.207,52.887z
		 M77.752,80.314c0,0-5.76,5.738-8.01,8.415c4.838,4.841,14.084,10.92,14.152,20.273l6.374,0.024l20.634,18.512
		c0,0,18.686,0.137,19.034,0.056c0.376-0.088,7.015-9.62,7.015-9.62l11.841,8.659c0,0-0.567-9.326-1.015-15.04
		c-0.146-3.822-0.273-6.173,2.512-7.864c-3.826-1.83-3.584-5.193-0.771-7.664c-0.929-1.287-2.315-1.525-2.524-6.09
		c-0.586-0.63-1.141-1-1.873-1.534l-0.765,0.686c-2.456,2.212-4.131,4.469-4.406,5.938c-0.524,2.797,2.307,4.712,3.943,2.669
		c0.461-0.576,0.872-0.414,0.872,0.337c0,1.524-1.912,2.386-3.529,1.593c-0.378-0.186-0.712-0.31-0.745-0.275
		c-0.059,0.059,1.604,4.146,2.054,5.047c0.748,1.5,1.14,3.007,1.197,4.583c0.062,1.684,0.028,1.899-0.756,4.808
		c-0.74,2.74-0.392,4.369,0.93,4.369c0.745,0,0.722,0.718-0.031,0.98c-1.598,0.559-2.589-0.623-2.645-3.146
		c-0.035-1.533-0.062-1.571-0.846-1.201c-2.732,1.288-5.7-1.015-4.415-3.424c0.271-0.507,0.59-0.347,0.757,0.375
		c0.315,1.355,1.023,1.954,2.303,1.949c2.948-0.012,4.184-4.19,2.482-8.398c-0.341-0.845-0.513-0.797-0.961,0.271
		c-0.704,1.676-1.883,2.169-2.854,1.193c-0.325-0.326-0.483-0.856-0.263-0.883c0.051-0.007,0.375-0.021,0.719-0.031
		c1.718-0.055,2.311-1.727,1.506-4.241c-0.707-2.21-0.816-2.61-1.027-3.809c-0.325-1.851-0.099-3.256,0.814-5.051
		c0.162-0.317,1.17-1.447,2.422-2.716c1.279-1.296,2.379-2.289,2.379-2.289c-1.218-1.021-2.323-1.826-3.698-2.853
		c0,0-8.78,24.184-8.158,33.605c-1.114,12.415-10.213,8.98-10.883,0.383L77.752,80.314z M77.36,83.94
		c3.002-0.051,4.98,3.931,6.109,12.19c0.375,2.737,2.038,6.57,3.244,7.477c3.045,2.285,7.809,0.523,7.812-2.891
		c0.008-4.25-5.944-4.88-6.036-0.639c-0.021,1-0.533,1.052-1.023,0.101c-0.437-0.849-0.043-2.434,0.808-3.234
		c0.545-0.514,0.502-0.61-0.537-1.186c-3.619-2.004-5.159-4.992-3.225-6.264c0.846-0.556,2.002,0.146,1.471,0.895
		c-0.828,1.169-0.84,1.354-0.146,2.324c0.787,1.104,1.721,1.653,3.936,2.309c1.859,0.551,2.165,0.653,3.023,1.046
		c2.514,1.149,3.662,3.68,2.785,6.137c-0.207,0.579-0.408,1.15-0.448,1.271c-0.09,0.27,0.058,0.271,1.826,0.034
		c2.815-0.376,5.943,0.633,7.485,2.414c0.828,0.957,1.492,3.108,1.514,4.904c0.008,0.346,0.109,1.126,0.239,1.735
		c0.129,0.608,0.301,1.638,0.378,2.285c0.737,6.145,5.837,9.287,8.041,4.954c1.387-2.727-1.82-5.454-3.452-2.936
		c-0.573,0.884-1.165,0.478-0.835-0.573c0.643-2.043,3.186-2.391,4.917-0.671c0.937,0.931,1.385,3.039,0.931,4.378
		c-0.239,0.702-0.214,0.747,0.305,0.565c1.164-0.407,3.175-0.016,3.896,0.759c1.701,1.825,1.359,4.017-0.733,4.727
		c-0.952,0.319-2.03-0.013-2.383-1.132c-0.155-0.797,0.392-1.026,0.814-0.341c0.792,1.285,2.516,0.25,2.108-1.267
		c-0.463-1.725-1.932-2.091-4.646-1.154c-4.313,1.489-5.705,1.364-7.771-0.693c-1.474-1.469-2.027-2.738-2.425-5.539
		c-0.438-3.094-0.48-3.174-1.243-2.522c-3.65,3.115-8.473-1.592-5.38-4.687c0.956-0.959,1.66-0.124,0.8,0.949
		c-1.257,1.565,0.381,3.746,2.433,3.238c3.735-0.925,2.974-6.408-1.069-7.689c-1.232-0.391-4.618-0.229-7.223,0.345
		c-7.271,1.601-10.483-1.513-11.979-11.599c-0.175-1.178-0.379-2.049-1.069-4.586c-0.819-3.01-3.605-4.645-5.125-3.006
		c-1.212,1.306-0.574,3.063,1.112,3.067c1.682,0.004,1.166,1.161-0.587,1.317c-3.042,0.271-3.571-4.809-0.652-6.264
		C76.072,84.135,76.737,83.95,77.36,83.94L77.36,83.94z M37.604,85.764l0.993,3.665l3.76,1.065l-1.192-3.439L37.604,85.764z
		 M47.299,86.893l-1.01,3.271l2.8-0.978l0.979-3.135L47.299,86.893z M78.225,92.249c0.598,0,1.081,0.485,1.081,1.085
		c0.001,0.599-0.483,1.084-1.081,1.084s-1.081-0.485-1.082-1.084C77.143,92.734,77.627,92.249,78.225,92.249z M42.284,94.15
		l-3.267,1.091l-0.57,2.594l3.002-0.677L42.284,94.15z M49.106,95.322l-2.347-0.721l0.556,2.678l2.564,1.051L49.106,95.322z
		 M154.192,94.815l-1.557,1.216c4.539,3.958-0.361,7.772-0.514,7.514c3.283,2.179,2.697,5.616,2.271,8.763
		c-0.776,5.613-1.079,10.924-1.926,16.677c0,0,3.953,2.736,6.584,3.796c0.049,0.006,0.016-33.756,0.016-33.756L154.192,94.815z
		 M98.168,99.899c0.597,0,1.081,0.486,1.081,1.085c0,0.6-0.484,1.085-1.081,1.085c-0.598,0-1.082-0.485-1.082-1.085
		C97.086,100.385,97.571,99.899,98.168,99.899z M31.787,102.676l0.136,31.505l6.502-11.661l-4.474-5.176l3.867-4.141
		C35.539,109.829,33.678,106.245,31.787,102.676z M95.094,107.476c0.597,0,1.081,0.486,1.081,1.085s-0.483,1.085-1.081,1.085
		s-1.082-0.486-1.082-1.085S94.496,107.476,95.094,107.476z M109.854,110.7c0.598,0,1.082,0.485,1.082,1.084
		c0,0.6-0.484,1.085-1.082,1.085c-0.597,0-1.081-0.485-1.081-1.085C108.773,111.185,109.256,110.7,109.854,110.7z M152.134,145.796
		l4.775,4.916l-3.78,4.658l5.924,9.998l-0.095-30.932L152.134,145.796z M31.728,135.448l0.227,33.885l5.106,3.736l1.296-1.227
		c-3.296-3.529-1.327-6.154,1.157-7.674c-4.383-1.023-3.053-6.854-2.791-9.557c-0.106-5.016,1.726-10.738,1.162-15.562
		L31.728,135.448z M61.139,140.159l-7.319,10.229c0,0-8.042-6.111-12.097-8.867c0.434,4.414,0.829,10.045,1.367,14.793
		c1.315,6.932-2.108,7.051-2.141,7.715c5.442,4.143,0.875,8.016,0.057,7.822c2.897,1.582,2.659,6.391,2.659,6.391l1.374,0.779
		c0,0,0.447-0.273,0.638-0.375c1.47-0.793,3.865-3.621,4.414-5.486c0.931-3.162-1.808-5.789-3.53-3.385
		c-0.846,1.18-1.523,0.391-0.83-0.969c0.633-1.24,2.285-1.863,3.383-1.275c0.639,0.344,0.496-0.545-0.49-3.037
		c-0.331-0.834-0.6-1.746-1.065-3.594c-0.451-1.787-0.276-3.943,0.506-6.137c1.126-3.162,0.727-5.145-1.078-5.318
		c-0.962-0.092-1.066-0.395-0.281-0.84c1.753-0.996,3.452,0.422,3.383,2.824c-0.038,1.299-0.023,1.32,0.66,1.045
		c3.458-1.391,6.19,2.209,3.773,4.971c-0.739,0.844-1.205,0.309-0.719-0.826c0.751-1.752,0.036-3-1.723-3.014
		c-2.551-0.02-3.962,3.516-2.958,7.402c0.313,1.215,0.362,1.23,1.209,0.42c0.752-0.721,1.313-0.949,1.896-0.775
		c1.207,0.361,1.523,1.65,0.366,1.492c-1.988-0.275-2.511,1.814-1.386,5.531c1.492,4.93-0.019,8.949-4.434,11.807
		c-0.224,0.145-0.58,0.422-0.58,0.422c1.703,1.523,2.793,2.387,5.043,3.762l8.035-32.564c0,0-0.136-1.85-0.334-2.721
		c-0.008-8.742,8.125-9.578,10.67-1.643c0.244,0.762,1.537,2.709,1.537,2.709l42.329,37.678c0,0,7.902-7.66,7.794-7.863
		c-6.004-6.07-14.111-10.361-14.406-19.99c-1.438-0.043-6.248,0.047-6.248,0.047l-20.583-18.936
		C73.572,140.423,67.842,139.96,61.139,140.159L61.139,140.159z M72.671,140.868c1.131-0.035,2.271,0.553,2.271,1.5
		c0,0.814-0.545,1.002-0.997,0.34c-0.631-0.926-1.363-0.998-2.108-0.213c-2.065,2.178,1.145,4.168,4.835,2.998
		c2.261-0.717,3.355-0.91,4.183-0.744c3.487,0.703,5.171,3.062,5.469,7.658c0.151,2.338,0.146,2.33,1.154,1.402
		c2.453-2.254,5.998-1,6.55,2.32c0.237,1.426-1.292,3.221-2.746,3.221c-0.569,0-0.479-0.598,0.136-0.893
		c1.478-0.707,1.536-3.045,0.101-3.959c-1.907-1.213-4.418,0.68-4.388,3.305c0.038,3.156,2.388,4.609,7.028,4.344
		c0.68-0.039,2.387-0.121,3.789-0.18c2.217-0.094,4.6-0.514,6.858,1.197c2.366,1.887,3.937,5.639,4.607,11.061
		c1.058,6.672,1.875,8.459,4.109,8.619c1.325,0.096,2.448-1.037,2.448-2.352c0-0.928-1.223-1.744-2.151-1.438
		c-1.12,0.371-1.347-0.848-0.243-1.309c1.529-0.643,3.396,0.594,3.812,2.521c0.242,1.123-1.021,3.279-2.348,3.816
		c-3.458,1.402-5.918-1.463-6.728-7.877c-0.497-2.941-0.77-4.924-1.684-7.438c-1.679-4.627-4.436-6.535-7.438-5.152
		c-3.4,1.568-2.726,6.674,0.876,6.637c1.979,0.156,2.395-1.303,2.436-2.863c0.046-1.152,1.348-0.07,1.459,0.723
		c0.106,0.961-0.753,2.15-1.512,2.715c-1.227,0.822-0.79,0.771,0.464,1.104c3.372,0.623,5.878,5.098,3.862,6.617
		c-1.048,0.641-2.16-0.303-1.435-1.229c1.155-1.473-0.8-3.799-4.356-4.58c-4.658-1.023-6.514-4.502-4.834-8.076
		c0.557-1.184,0.604-1.156-1.668-1.027c-5,0.283-6.775-0.41-8.453-3.316c-0.507-0.877-0.73-2.049-0.838-4.381
		c-0.193-4.172-0.572-6.756-1.098-7.484c-2.596-3.602-7.998-2.523-7.322,1.461c0.355,2.092,2.51,2.764,3.982,1.24
		c1.111-1.15,1.629-0.082,0.544,1.123c-2.61,2.898-7.154-0.484-5.805-4.322c0.31-0.879,0.351-0.852-1.324-0.9
		c-3.727-0.107-5.499-3.305-3.098-5.582C71.492,141.077,72.078,140.888,72.671,140.868L72.671,140.868z M81.662,154.597
		c0.597,0,1.081,0.486,1.081,1.084c0,0.6-0.484,1.086-1.081,1.086c-0.598,0-1.082-0.486-1.082-1.086
		C80.58,155.083,81.065,154.597,81.662,154.597z M96.643,158.447c0.597,0,1.081,0.486,1.081,1.086s-0.484,1.084-1.081,1.084
		c-0.598,0-1.082-0.484-1.082-1.084S96.045,158.447,96.643,158.447z M93.425,165.525c0.598,0,1.081,0.486,1.081,1.084
		c0,0.6-0.483,1.086-1.081,1.086c-0.597,0-1.081-0.486-1.081-1.086C92.344,166.011,92.828,165.525,93.425,165.525z M141.031,169.743
		l0.686,3.207l2.481,0.656l-0.388-2.748L141.031,169.743z M149.713,170.853l-0.053,1.904l2.207,0.26l0.781-3.279L149.713,170.853z
		 M112.65,173.726c0.598,0,1.082,0.484,1.082,1.084s-0.484,1.086-1.082,1.086c-0.597,0-1.081-0.486-1.081-1.086
		S112.053,173.726,112.65,173.726z M144.355,178.144l-2.595,0.723l-1.247,3.615l3.322-1.207L144.355,178.144z M149.431,178.47
		l0.317,2.678l3.197,1.449l-1.081-3.816L149.431,178.47z M102.306,201.302l-19.849,35.992l5.424-0.076l18.734-33.938
		L102.306,201.302z M39.88,210.015l-1.754,2.367l1.665,2.746l1.911-2.758L39.88,210.015z"/>

		<path id="path4069-2-6-0" d="
		M73.609,29.066c3.654,11.114,3.994,22.066,0.822,32.591c1.808,0.092,9.69,2.12,14.03,4.806
		c-0.803,2.072-13.105,17.248-21.456,24.089c2.373,2.357,4.985,4.715,7.731,7.313c4.152,3.952,5.619,6.673,5.893,11.803
		c-0.036,2.478-0.922,5.534-2.494,7.697c-1.189,1.636-2.451,2.894-4.981,4.575c-2.336,1.552-5.749,4.89-10.041,9.812
		c-1.637,1.877-4.398,5.293-6.686,8.553c-0.865,1.184-3.413,4.881-3.413,4.881c-8.5-6.957-17.602-12.323-17.835-12.282
		c0,0,9.183-4.909,11.114-5.909c1.484,0.955,3.499,0.138,2.532-1.964c-1.859-4.783-0.562-9.707,1.72-13.145
		c0.547-0.828,1.864-1.312,3.993-1.46c0.925-0.061,1.902-0.03,2.882-0.043c0.353,0,1.305,0.137,1.826,0.423
		c1.736,0.95,2.084-0.272,3.167-4.39c1.077-4.096-0.656-9.276-3.128-9.293c-0.582-0.004-0.907,0.211-0.788,1.668
		c0.091,1.101-0.173,1.671-0.456,2.365c-0.616,1.514-0.943,2.995-1.14,4.97c0.36,0.073-2.295-2.651-6.479-3.73
		c-2.72-0.323-4.101-3.72-3.986-3.727c0,0,0.408-0.92,0.766-1.278c0.929,0.445,1.841,0.97,2.942,1.294c0,0-0.254-1.364-0.352-1.731
		c-0.505-1.897-0.478-2.187,0.251-2.58c1.808-0.977,1.998-2.723,0.587-4.312c-0.356-0.406-0.656-0.667-1.135-0.872l0.892-3.563
		c0,0-0.816,0.177-1.471,0.376c-1.892,0.576-1.751,0.596-2.557-0.326c-1.756-2.004-4.436-1.623-4.836,0.69
		c-0.044,0.255-0.162,0.662-0.162,0.662l-4.034-1.964c0.118,0.949,1.166,4.164,1.166,4.164c-3.53,2.75-0.547,5.186,0.416,5.443
		c0,0-0.825,2.632-1.108,3.726l3.981-1.141c0.335,0.761,0.747,1.338,1.575,1.871c0.216,2.246,1.941,4.058,3.131,5.147
		c0,0,0.171,0.821,0.067,1.347c-0.257,1.307,1.067,3.375,1.291,3.498c-5.464-2.241-11.159-4.932-16.657-7.573l0.344,67.787
		c0,0,1.28,1.15,3.819,2.975c1.22,0.877,1.22,0.881,0.966,1.891c-0.335,1.332-0.252,2.35,0.88,11.117
		c0.601,4.639,1.254,9.447,1.839,13.76c0.231,1.572,0.264,2.58,0.264,2.58c-1.213-0.564-2.98-0.621-3.895,0.408
		c-1.576,1.799-0.314,4.697,2.021,4.637c0.53-0.033,0.891-0.188,1.348-0.5c0.316-0.17,0.643-0.021,0.643-0.021l-3.484,6.141
		l4.011,6.771l4.001-7.242l-2.909-5.73c0,0,0.283-0.031,0.678,0.166c0.392,0.197,0.917,0.348,1.283,0.369
		c2.029,0.016,2.446-0.914,2.66-2.584c0-2.15-1.706-3.123-4.055-2.312c-0.369,0.127-0.776,0.162-0.776,0.162l2.464-23.641
		l1.32,0.973l0.434-0.236l-1.155-0.988c0.251-3.789-0.995-5.131-2.341-6.047c4.5-2.568,2.55-6.627-0.442-7.875
		c0,0,1.944-1.141,2.334-2.336c0.332-1.068,0.208-2.764-0.169-5.77c-0.281-4.633-1.273-14.209-1.273-14.209
		c3.932,2.975,7.967,6.156,11.763,9.162l7.608-10.605l18.336,0.127c0,0,13.937,12.691,20.951,19.164l6.056,0.055
		c0,0,0.066,0.648,0.127,1.08c0.574,6.268,4.766,10.57,8.581,13.59c1.556,1.4,5.399,5.082,5.399,5.082l-7.125,7.205l-43.632-39.09
		c0,0-0.209-0.57-0.294-0.918c-1.007-4.141-3.742-5.875-6.229-5.582c-2.609,0.305-4.835,2.883-4.723,7.27
		c0.018,0.68,0.263,1.875,0.263,1.875l-7.971,33.303c0,0-3.188-2.439-4.909-3.613l-0.378,0.221l4.665,3.518l0.348-0.152l1.324,1.039
		l0.101,0.709c4.081,2.785,11.003,7.984,11.003,7.984c3.267-2.436,6.701-1.621,10.142-0.705c0,0,2.501,0.838,3.831,0.832
		c6.759,0.152,12.744,1.469,19.027,3.746l-22.901,40.721l43.624,0.09c-2.15-8.523-4.435-17.182-0.352-31.719
		c-4.302-0.871-13.867-4.711-13.867-4.711s-0.046-0.219,0.358-0.717c1.769-2.537,6.24-9.412,10.432-13.387
		c0.511-0.367,7.814-7.477,7.886-7.701c0.04-0.127,0.216-0.605,0.502-0.795c0.674-0.451,2.463-2.148,2.463-2.148l-9.141-7.949
		c0,0-0.402-0.039-0.532-0.113c-1.276-0.715-3.58-4.709-4.147-7.383c-1.306-6.15,1.104-11.014,7.905-16.006
		c6.64-4.561,19.229-22.262,19.271-22.655c6.789,5.638,12.09,8.557,18.062,12.254c-3.608,2.076-6.551,3.463-9.075,4.836
		c-1.639,0.938-1.864,1.135-3.248,0.74c-1.568,0.014-2.104,0.619-1.707,1.977c2.374,3.762,1.354,12.523-1.854,14.211
		c-2.787,1.467-5.496,1.068-7.734,0.238c-1.729-0.557-1.705-0.562-2.476,1.01c-1.695,3.621-1.804,6.67-0.239,10.143
		c1.283,2.787,3.19,4.057,3.426,0.299c0.138-2.207,1.107-4.785,1.077-7.156c1.946,2.156,3.235,3.141,6.43,4.018
		c2.143,0.334,4.418,3.029,4.347,4.129c-0.588,0.596-0.767,1.355-0.862,1.303c-1.043-0.342-3.303-1.307-3.303-1.307l0.962,3.41
		c0,0-0.159,0.154-0.622,0.391c-2.126,1.088-1.989,4.029,0.243,5.207c0.455,0.238,0.487,0.352,0.294,0.979
		c-0.277,1.398-0.888,2.338-1.217,3.723c0,0,0.304,0.012,2.851-1.17l1-0.465l0.603,0.648c1.318,1.414,2.903,1.404,4.286-0.023
		l0.634-0.654l1.769,0.898c1.667,0.848,2.105,1.021,2.105,1.021s-0.962-3.74-1.14-4.168c-0.097-0.23-0.293-0.465-0.437-0.52
		c-0.238-0.088-0.2-0.143,0.433-0.646c1.603-1.273,1.764-3.033,0.397-4.369c-0.521-0.51-0.587-0.615-0.587-0.615l0.83-3.469
		l-3.442,1.145c-0.544-1.158-1.407-1.686-1.953-1.922c-0.058-1.564-0.254-3.174-2.934-5.619c0.902-0.828-0.171-2.82-1.056-4.018
		c1.508,0.508,5.278,2.107,5.278,2.107l0.57-0.021l1.8,0.865l0.211,0.32c0,0,5.664,2.682,8.265,3.936
		c-0.008-0.141-0.027-2.945-0.034-33.836c-0.008-18.418,0.025-33.566-0.012-33.663s-0.659-0.576-1.306-1.065
		c-1.192-0.902-1.437-1.079-2.95-2.092c-1.215-0.812-1.133-0.807-0.88-1.743c0.289-1.076,0.283-2.556-0.102-5.326
		c-0.283-2.046-1.311-9.24-2.027-15.046c-0.502-4.073-0.621-4.978-0.745-5.633c-0.199-1.649,0.015-2.368-0.021-2.392
		c5.688,2.471,6.137-5.724,0.435-4.617c1.092-2.207,2.01-3.231,2.945-5.589c-1.189-2.567-3.822-6.91-3.822-6.91l-4.166,7.278
		l2.452,5.036c-2.821-0.51-4.318,1.55-3.796,3.397c0.566,1.634,2.129,2.092,3.506,1.434c1.062-0.42,1.061-0.526,0.12,7.457
		c-0.278,2.36-1.514,13.398-1.685,15.041c-0.113,1.104-0.185,1.41-0.633,1.166c-0.607-0.262-0.955-0.644-1.564-1.046l-0.34,0.318
		c0.541,0.439,1.183,1.01,1.838,1.613c-0.15,2.924-0.09,4.617,2.336,6.044c-4.397,2.765-1.826,7.019,0.756,7.634
		c-1.539,0.398-3.057,2.385-2.689,6.332l1.247,16.266l-11.921-8.879l-6.998,10.045l-18.438,0.023l-20.796-18.822
		c0,0-4.56-0.062-6.431-0.108c0.213-0.1-0.393-5.818-3.402-9.553c-3.271-3.901-10.717-10.341-10.712-10.344l7.819-7.964
		l43.906,39.64c0,0,0.213,1.123,0.325,1.601c1.468,6.258,8.565,6.638,10.075,0.263c0.244-1.029,0.538-3.426,0.429-3.711
		c-0.035-0.092,0.186-1.137,0.491-2.324c2.359-9.285,4.37-17.295,6.692-26.21c0.32-1.227,0.659-2.594,0.753-3.037
		c0.383-1.809,0.326-1.797,2.213-0.371c1.156,0.872,1.634,1.185,1.634,1.185l0.366-0.383c-1.296-1.007-3.514-2.611-3.514-2.611
		l0.023-0.682c-7.129-5.12-8.598-6.479-12.818-9.835c-3.271,2.889-7.947,1.719-10.879,0.697c-0.755-0.298-2.61-0.783-2.61-0.783
		c-7.301,0.01-13.715-1.404-19.773-3.39l23.357-41.72h-9.021l-0.315,0.355h-4.693l-0.016-0.354L73.609,29.066z M159.744,166.279
		 M100.233,30.009l3.193,0.062l-18.9,33.826l-2.008-0.787c0,0,0.184-0.097,0.182-1.521c0-1.53-0.332-2.185-1.02-3.088
		c-0.576-0.782-0.82-0.825,0.865-0.593c3.446,0.476,5.895-3.283,4.525-6.218c-0.527-1.132-0.453-1.2,0.943-1.34
		c3.843-0.384,5.338-5.275,2.617-7.713c-0.562-0.51-0.311-0.835,0.738-0.607c3.325,0.719,5.901-2.979,4.58-5.877
		c-0.43-0.809-0.043-0.942,0.564-1.022C99.361,34.46,100.329,32.218,100.233,30.009L100.233,30.009z M74.76,30.012l14.795,0.004
		c-1.991,3.055,1.523,4.862,1.969,4.648c-3.189,1.747-2.313,4.21-0.659,5.057c1.604,0.821,4.013,0.082,3.37-3.473l0.792-0.345
		c0.77,0.873,1.534,6.285-4.337,5.532c-1.045-0.134-1.611,0.845-0.737,1.387c4.639,5.35-2.623,7.713-2.938,6.825l-0.024-0.905
		c1.964,0.362,4.477-2.176,2.272-4.432c-1.252-1.283-4.886-0.658-4.264,3.234c-2.146-3.215-4.489-2.245-5.121-0.546
		c-0.489,1.316,0.134,3.119,2.274,3.426c-2.391,2.009-1.229,4.251,0.413,4.745c1.814,0.547,3.667-0.194,3.167-3.5
		c0.028-0.313,0.661-0.211,0.714-0.229c1.876,4.694-2.607,6.419-5.027,5.45c-0.897-0.35-1.366,1.037-0.414,1.743
		c1.445,1.072,0.999,4.157,0.83,4.188c-2.688-1.022-6.539-1.778-6.396-1.721C78.007,50.914,77.84,40.554,74.76,30.012L74.76,30.012z
		 M98.348,30.016l1.336,0.004c0.018,1.919-0.812,4.28-4.078,4.645c0.015-0.515-0.022-1.002-0.154-1.546
		C96.676,32.842,98.301,33.182,98.348,30.016L98.348,30.016z M104.184,30.121l4.267,0.02L88.373,65.887l-3.21-1.654L104.184,30.121z
		 M93.656,32.833c0.755,0,1.367,0.61,1.367,1.367s-0.612,1.371-1.367,1.371c-0.754,0-1.362-0.614-1.362-1.371
		S92.902,32.833,93.656,32.833z M85.098,48.421c0.698,0,1.263,0.566,1.263,1.267s-0.564,1.271-1.263,1.271s-1.263-0.57-1.263-1.271
		S84.4,48.421,85.098,48.421z M151.195,49.431l3.398,5.935l-3.877,6.888l-3.236-6.601L151.195,49.431z M151.133,51.454l-2.391,3.959
		l2.17,4.056l2.469-3.854L151.133,51.454z M151.18,53.15l1.235,2.395l-1.502,2.429l-1.247-2.568L151.18,53.15z M147.885,61.192
		c0.258,0.001,0.532,0.056,0.814,0.175c2.29,0.959,1.561,4.45-0.884,4.233c-0.323-0.033-0.747-0.198-1.054-0.406
		C145.066,63.799,146.086,61.187,147.885,61.192z M153.481,61.259c2.003,0.036,3.209,2.83,1.102,4.137
		c-1.018,0.568-2.538,0.224-3.137-0.786c-0.513-0.867-0.291-2.312,0.857-3.061C152.713,61.339,153.111,61.252,153.481,61.259z
		 M150.7,65.244c0.2,0.018,0.418,0.992,0.618,2.685c0.072,0.614,0.268,2.147,0.433,3.409c0.315,2.697,0.64,5.209,0.919,7.81
		c0.056,0.511,0.193,1.599,0.305,2.417c1.158,8.445,1.422,11.143,1.147,11.861c-0.73,2.519-4.157,2.711-5.589,1.248
		c-1.081-1.106-1.24-2.321-0.814-5.485c0.246-1.828,0.348-2.747,1.07-9.731c0.169-1.636,0.413-3.812,0.544-4.834
		c0.286-2.732,0.626-5.294,0.997-7.988C150.437,65.671,150.564,65.232,150.7,65.244z M94.591,71.519c0,0,10.974,3.628,19.321,3.464
		c1.226-0.001,1.424-0.012,2.95,0.487c0.905,0.297,2.329,0.698,3.163,0.892c2.573,0.5,4.836,0.358,6.839-0.461
		c0.315-0.129,0.777-0.518,1.244-0.376c0.284,0.086,0.698,0.654,0.698,0.654c-7.309,1.947-24.409,1.588-35.055-2.913L94.591,71.519z
		 M150.967,72.674c-0.045,0.009-0.093,0.07-0.146,0.155c-0.179,0.283-0.031,2.142,0.633,8.054
		c1.27,11.293,1.265,11.534-0.273,12.722c-0.756,0.583-0.873,0.817-0.51,1.03c0.271,0.158,0.248,0.157,0.799,0.004
		c1.295-0.36,1.83-1.391,1.819-3.494c-0.008-1.604-0.027-1.797-0.525-5.737c-0.173-1.363-0.407-3.288-0.524-4.276
		C151.405,74.095,151.213,72.634,150.967,72.674L150.967,72.674z M93.487,73.855c10.924,3.924,22.338,5.035,36.098,2.917
		c0,0,1.322,0.86,1.988,1.282l-0.463,0.108l0.208,1.906l2.337-0.376c0,0,1.264,1.008,2.205,1.627
		c-12.268,3.758-32.082,3.11-44.305-2.34c-0.465-0.269-0.737-0.484-0.737-0.484c0.264-0.649,0.583-1.035,0.907-1.398l2.232,0.64
		l0.646-2.041l-1.707-0.624L93.487,73.855z M96.348,76.3l-0.715,2.011l3.121,0.93l0.533-2.053L96.348,76.3z M101.121,77.544
		l-0.413,2.289l3.132,0.581l0.391-2.228L101.121,77.544z M106.304,78.616l-0.247,2.208l3.321,0.353l0.205-2.234L106.304,78.616z
		 M129.132,78.651l-2.827,0.31l0.178,1.945l2.857-0.337L129.132,78.651z M124.147,79.213l-2.804,0.187l0.097,2.037l2.818-0.178
		L124.147,79.213z M111.514,79.256v2.165l2.873,0.108l0.035-2.211L111.514,79.256z M119.415,79.527l-2.649,0.012l-0.011,2.061
		l2.677,0.012L119.415,79.527z M88.697,79.891c0.286-0.009,0.939,0.629,1.209,1.344c0.531,1.405,0.287,2.963-0.545,3.479
		c-1.132,0.702-2.463-0.397-1.684-1.391c0.139-0.176,0.359-0.353,0.494-0.396c0.583-0.185,0.719-1.104,0.402-2.695
		C88.528,79.997,88.586,79.894,88.697,79.891z M92.934,80.429c11.825,3.883,25.244,5.188,39.067,2.348
		c0,0-6.551,26.836-6.692,26.849L92.934,80.429z M87.137,80.51c0.623,0,0.736,1.06,0.174,1.623c-0.717,0.72-2.084,0.143-1.799-0.759
		C85.594,81.113,86.727,80.51,87.137,80.51z M90.535,81.135c0.129-0.01,0.374,0.247,0.762,0.771
		c1.328,1.794,1.432,3.798,0.243,4.711c-1.395,1.07-2.413-0.591-1.251-2.042c0.301-0.375,0.345-1.069,0.166-2.606
		C90.391,81.42,90.406,81.144,90.535,81.135z M136.389,81.781c0.152-0.005,0.423,0.113,0.965,0.38
		c0.848,0.417,1.143,1.025,0.734,1.519c-0.594,0.717-2.218-0.702-1.912-1.67C136.223,81.863,136.27,81.785,136.389,81.781
		L136.389,81.781z M135.114,82.715c0.212,0.021,0.552,0.412,0.946,1.205c0.253,0.51,0.399,0.655,0.826,0.81
		c1.011,0.366,1.198,1.417,0.309,1.728c-0.966,0.338-1.686-0.358-2.128-2.061C134.777,83.273,134.841,82.687,135.114,82.715z
		 M92.815,83.467c0.146-0.009,0.428,0.32,0.873,0.98c1.321,1.956,0.865,5.712-0.8,6.589c-0.734,0.387-1.245,0.304-1.835-0.287
		c-0.86-0.863-0.648-1.546,0.63-2.018c1.089-0.401,1.44-1.645,1.104-3.905C92.654,83.923,92.649,83.476,92.815,83.467L92.815,83.467
		z M99.11,84.087c8.075,6.679,15.365,13.84,24.763,22.2c2.231-6.887,5.484-21.185,5.495-21.232
		C129.012,85.348,113.582,87.545,99.11,84.087z M129.367,85.054c0.008-0.006,0.01-0.011,0-0.016V85.054z M134.376,84.105
		c0.135,0,0.524,1.005,0.745,1.922c0.201,0.83,1.001,2.222,1.31,2.273c1.591,0.271,2.269,1.16,1.483,1.949
		c-0.578,0.578-1.827,0.25-2.43-0.636C134.353,87.949,133.58,84.105,134.376,84.105L134.376,84.105z M44.27,85.027
		c0.961,0.009,1.883,0.615,2.116,1.867c0.271,1.457-0.55,2.517-1.244,2.348c-0.755-0.283-1.012-1.483-1.012-1.483
		s-0.18,0.979-0.489,1.472c-0.678,1.037-2.102-0.502-1.847-1.994C42.043,85.778,43.182,85.018,44.27,85.027z M101.746,85.411
		c8.795,1.325,16.361,1.669,26.853,0.527l-4.943,19.252L101.746,85.411z M95.105,85.442c0.13,0.009,0.397,0.243,0.814,0.686
		c1.366,1.449,1.761,3.461,0.873,4.459c-0.541,0.607-0.904,0.677-1.479,0.282c-0.733-0.504-0.789-1.262-0.115-1.611
		c0.618-0.321,0.675-1.026,0.185-2.363C95.018,85.898,94.914,85.429,95.105,85.442L95.105,85.442z M37.732,85.938l3.213,1.336
		l1.151,2.724l-3.205-0.829L37.732,85.938z M49.881,86.299l-0.953,2.711l-2.473,0.926l0.962-2.932L49.881,86.299z M133.697,86.868
		c0.119-0.002,0.296,0.341,0.51,1.05c0.53,1.754,0.756,2.197,1.239,2.429c0.789,0.377,0.847,1.336,0.101,1.677
		c-0.473,0.217-0.628,0.172-0.965-0.271c-0.524-0.69-0.947-2.011-1.023-3.196C133.486,87.445,133.544,86.87,133.697,86.868z
		 M97.928,88.092c0.093-0.006,0.229,0.131,0.432,0.372c1.249,1.488,1.385,3.771,0.267,4.455c-1.082,0.662-2.597-0.704-1.652-1.492
		c0.085-0.07,0.28-0.229,0.437-0.349c0.263-0.201,0.285-0.318,0.309-1.611C97.737,88.507,97.773,88.102,97.928,88.092z
		 M107.411,88.25l15.383,14.022l3.531-13.871C120.25,88.948,113.903,88.786,107.411,88.25z M69.623,88.956
		c4.86,5.146,11.219,9.308,12.729,14.426c2.707,7.045,0.723,15.219-5.615,19.896c-3.497,2.655-6.926,5.449-9.777,8.824
		c-4.68,4.998-7.803,10.457-10.93,14.417c-0.529,0.666-1.927,2.762-1.927,2.762s-0.685,0.785-2.97-1.139
		c-6.064-5.408-12.43-9.332-18.908-13.07l2.742-1.537c5.408,3.093,12.133,7.496,18.182,12.628c0,0,4.811-7.047,6.345-9.064
		c2.227-2.898,3.79-4.764,5.862-7.004c5.294-6.556,10.76-8.724,13.034-12.043c3.331-4.863,3.474-10.628,0.733-15.55
		c-2.702-4.695-7.957-7.915-11.446-11.803L69.623,88.956z M115.75,89.335h6.014c0,0-0.884,0.739-1.561,1.193
		c-0.425,0.285-0.922,0.246-1.857-0.147C117.436,90,115.75,89.335,115.75,89.335L115.75,89.335z M122.636,89.335l1.402,0.043
		c-1.048,1.32-2.123,2.173-3.53,3.347c-0.182,0.079-0.283,0.111-0.706-0.026c-2.874-0.954-5.512-2.166-8.312-3.312l2.495-0.012
		c0,0,1.2,0.385,3.005,1.135c2.068,0.86,2.604,1.126,3.402,0.601C121.161,90.596,121.799,89.824,122.636,89.335L122.636,89.335z
		 M125.475,89.335l-0.502,1.849c-0.839,1.05-2.535,2.261-3.951,3.455c-0.332,0.174-0.32,0.205-1.772-0.36
		c-5.345-2.082-7.929-3.437-7.929-3.437l-1.085-0.972c0,0,1.394,0.399,2.313,0.763c0.627,0.248,1.695,0.654,2.375,0.906
		s2.183,0.894,3.186,1.29c2.314,0.916,2.186,0.944,4.403-1.019C124.913,89.685,125.475,89.335,125.475,89.335L125.475,89.335z
		 M44.502,89.506l2.332,2.681l-3.108,2.622l-2.349-2.773L44.502,89.506z M133.007,89.508c0.536,1.008,0.896,2.198,1.768,3.046
		c0.655,0.628,0.818,1.111,0.43,1.465c-1.015,0.629-1.189-0.387-1.504-1.051C133.147,91.798,132.472,90.218,133.007,89.508
		L133.007,89.508z M48.657,89.776c0.06-0.001,0.12-0.001,0.182,0c2.487,0.038,3.074,3.725,0.733,4.61
		c-0.839,0.316-1.805,0.173-2.324-0.349c-0.506-0.507-0.576-0.935-0.229-1.2c0.539-0.385,1.823-0.411,1.823-0.411
		s-1.166-0.396-1.686-0.688C46.134,91.154,47.02,89.842,48.657,89.776L48.657,89.776z M99.87,89.78
		c0.141,0.009,0.383,0.295,0.726,0.864c1.256,2.078,1.189,6.033-0.119,7.035c-0.681,0.52-1.528,0.445-2.098-0.187
		c-0.75-0.833-0.52-1.675,0.596-2.169c1.075-0.478,1.295-1.544,0.857-4.18C99.679,90.225,99.69,89.77,99.87,89.78z M39.512,89.846
		c0.743-0.026,1.459,0.265,1.815,0.852c0.264,0.435,0.136,0.754-0.361,0.97c-0.604,0.24-1.751,0.457-1.751,0.457
		s1.112,0.184,1.784,0.457c0.841,0.373,0.776,1.057-0.456,1.644c-2.373,1.131-4.614-1.959-2.656-3.732
		C38.342,90.08,38.935,89.867,39.512,89.846L39.512,89.846z M101.898,91.338c0.018-0.003,0.037-0.002,0.058,0
		c0.218,0.026,0.62,0.343,1.023,0.879c1.414,1.88,1.66,4.703,0.456,5.253c-1.272,0.581-2.187-0.617-1.271-1.665
		c0.648-0.742,0.568-1.829-0.294-3.979C101.745,91.513,101.775,91.357,101.898,91.338L101.898,91.338z M132.442,91.427
		c0.111-0.009,0.314,0.443,0.642,1.356c0.719,2.008,1.334,2.851,2.073,2.851c0.93,0,1.418,1.278,0.684,1.794
		c-1.449,1.018-3.348-1.477-3.487-4.587C132.312,91.906,132.33,91.435,132.442,91.427L132.442,91.427z M124.78,92.43l-0.429,1.638
		c0,0-0.988,0.964-1.695,1.577c-1.123,0.974-1.399,1.167-2.286,0.864c-1.365-0.473-2.715-0.901-4.137-1.333l-3.286-2.728l7.5,2.937
		c0,0,0.649,0.192,0.876-0.035C122.305,94.366,123.384,93.603,124.78,92.43z M131.855,93.964c0.095-0.021,0.188,0.1,0.255,0.399
		c0.34,1.543,0.833,2.662,1.248,2.836c0.525,0.22,0.727,0.677,0.506,1.143c-0.639,1.343-2.317-1.029-2.317-3.273
		C131.545,94.431,131.697,94,131.855,93.964L131.855,93.964z M104.786,94.072c0.092-0.005,0.239,0.132,0.472,0.364
		c1.036,1.04,1.35,3.914,0.518,4.75c-1.204,1.207-2.489-0.588-1.321-1.845c0.31-0.332,0.31-0.355,0.235-1.828
		C104.639,94.488,104.634,94.082,104.786,94.072z M41.961,94.359l-0.812,2.696l-2.591,0.67l0.605-2.22L41.961,94.359z
		 M45.066,94.635c0.206-0.009,0.438,0.069,0.684,0.248c1.056,0.767,1.143,2.077,0.649,3.044c-0.473,0.944-1.438,1.216-2.372,1.12
		c-1.211-0.136-2.126-0.982-2.062-2.278c0.021-0.649,0.303-1.369,0.741-1.677c0.308-0.217,0.562-0.128,0.828,0.316
		c0.249,0.435,0.675,1.419,0.675,1.419s0.014-1.01,0.156-1.529C44.482,94.884,44.738,94.647,45.066,94.635z M47.043,94.871
		l1.877,0.643l0.741,2.557l-2.101-0.817L47.043,94.871z M154.057,95.347c0,0,0.539,0.229,3.102,2.27
		c0.641,0.511,1.723,1.487,1.723,1.487l-0.062,33.365l-6.084-3.793l0.318-2.921c0,0,0.836-8.825,1.476-13.449
		c0.446-5.154,1.435-6.634-2.005-8.819c3.701-2.332,2.656-5.96,0.334-7.471L154.057,95.347z M123.872,95.474l-0.34,1.526
		c-1.219,2.093-2.31,1.985-4.175,1.016l-2.24-1.91c1.449,0.303,2.229,0.769,3.646,1.216c0.703,0.195,0.961,0.07,1.455-0.375
		C122.788,96.427,123.217,96.039,123.872,95.474L123.872,95.474z M107.266,96.277c0.76,0.83,0.957,1.649,0.893,3.672
		c-0.146,1.438-0.082,2.51-1.26,3.316c-0.574,0.377-1.568,0.378-2.012,0.004c-1.065-0.716-0.479-2.146,0.918-2.217
		c0.88-0.016,1.242-2.902,0.742-4.706c-0.077-0.28-0.057-0.464,0.081-0.477C106.767,95.856,107.025,96.012,107.266,96.277
		L107.266,96.277z M131.067,96.168c0.172-0.001,0.474,0.438,0.653,1.154c0.26,1.039,0.625,1.621,1.197,1.914
		c0.733,0.375,0.971,1.097,0.502,1.522c-0.934,0.848-1.888-0.169-2.193-2.336C131.211,98.177,130.782,96.191,131.067,96.168z
		 M151.103,96.524c2.081,0.033,3.259,1.494,3.257,3.265c-0.023,1.277-0.719,2.575-1.999,3.114c-3.058,0.902-4.726-1.15-4.696-3.147
		C147.687,98.144,149.022,96.492,151.103,96.524z M109.085,97.682c1.751,1.757,1.829,5.513,0.116,5.513
		c-2.057-0.683-0.453-1.899-0.413-2.216c0.16-1.294-0.136-2.123-0.437-3.331C108.219,96.933,108.893,97.473,109.085,97.682z
		 M151.215,97.512c-0.367-0.011-0.342,0.359,0.332,0.941c1.221,1.055,0.623,3.001-0.924,3.01c-0.713,0.004-0.888,0.485-0.266,0.736
		c2.4,0.967,4.04-2.694,1.889-4.219C151.797,97.663,151.436,97.519,151.215,97.512z M59.395,98.004
		c1.932,0.661,2.598,4.354,2.672,5.656c0.087,2.267-0.966,5.973-1.904,6.713c-2.43,1.918-3.569-4.86-1.49-9.223
		c0.182-0.358,0.409-0.841,0.324-1.732C58.911,98.534,59.061,98.01,59.395,98.004L59.395,98.004z M123.242,98.361
		c0,0-0.243,1.106-0.502,1.712c-0.299,0.7-0.52,0.723-1.216,0.124c-0.389-0.333-1.031-1.022-1.031-1.022
		c0.606,0.095,1.149,0.41,1.664,0.154C122.707,99.056,123.151,98.545,123.242,98.361z M130.576,98.419
		c0.138,0.005,0.312,0.391,0.545,1.154c0.636,2.092,1.192,2.878,2.035,2.878c1.381,0,1.682,1.668,0.379,2.096
		c-0.483,0.159-0.646,0.157-1.264-0.008c-0.93-0.248-2.201-3.396-2.02-4.997C130.338,98.789,130.44,98.414,130.576,98.419
		L130.576,98.419z M45.537,99.635c0.507-0.013,0.706,0.237,1.004,0.855c0.339,0.704,1.229,1.598,1.98,1.987
		c1.814,0.895,3.726,1.594,5.52,2.491c2.324,1.171,4.408,4.759,2.981,5.133c-0.518,0.119-1.112,0.126-1.642,0.077
		c-0.173-0.091-0.51-0.482-0.749-0.875c-1.061-1.741-3.044-3.445-6.103-4.242c-2.156-0.562-4.088-3.227-4.503-4.479
		c-0.107-0.324-0.112-0.578,0.178-0.662C44.819,99.745,45.233,99.642,45.537,99.635L45.537,99.635z M111.097,99.852
		c0.097-0.017,0.238,0.107,0.452,0.337c1.283,1.376,1.442,3.902,0.289,4.617c-1.25,0.775-2.344-0.507-1.363-1.596
		c0.433-0.48,0.433-0.48,0.433-1.922C110.907,100.296,110.937,99.879,111.097,99.852L111.097,99.852z M129.781,101.456
		c0.153,0.007,0.385,0.434,0.664,1.274c0.396,1.193,0.45,1.287,0.903,1.522c0.767,0.397,0.892,0.993,0.328,1.558
		c-1.049,1.052-2.104-0.642-2.108-3.378C129.569,101.774,129.646,101.45,129.781,101.456L129.781,101.456z M113.004,101.645
		c0.095,0.009,0.361,0.219,0.568,0.465c1.572,1.87,1.256,6.25-0.498,6.907c-0.586,0.22-0.764,0.231-1.128,0.073
		c-1.308-0.567-1.148-1.952,0.464-2.831C113.615,105.601,112.756,101.662,113.004,101.645z M32.612,103.025l6.492,3.23
		c0,0,1.779,3.758,2.599,5.167c0.562,0.978,1.688,1.921,0.525,2.572c-1.953,1.328-3.061,2.085-3.044,2.909
		c0.015,0.668,0.842,1.348,1.955,2.661c1.598,1.888,1.582,1.453,0.131,4.331c-1.112,2.019-2.059,6.59-2.059,6.59l-6.558,3.389
		c1.951-4.675,4.249-8.653,6.824-11.497c-1.913-1.425-3.521-2.907-5.198-4.877c1.237-1.662,2.871-3.005,4.379-4.451
		C35.596,109.578,33.678,106.247,32.612,103.025L32.612,103.025z M114.716,103.083c0.01-0.002,0.022-0.001,0.034,0
		c0.272,0.018,0.894,0.696,1.44,1.786c0.706,1.406,0.774,3.179,0.146,3.808c-1.081,1.085-2.489-0.31-1.479-1.465
		c0.713-0.52,0.519-1.812-0.043-3.156C114.556,103.41,114.561,103.108,114.716,103.083L114.716,103.083z M31.893,103.715
		c1.689,3.6,3.578,6.527,5.515,9.301l-4.225,4.446c1.301,1.515,2.877,3.141,5.09,5.028c-2.717,3.03-4.499,7.274-6.283,11.28
		L31.893,103.715z M129.059,103.792c0.146,0.011,0.354,0.447,0.568,1.324c0.269,1.106,0.453,1.39,1.097,1.666
		c1.022,0.439,1.045,1.43,0.042,1.786c-0.367,0.131-1.056-0.24-1.34-0.725c-0.375-0.692-0.568-1.623-0.564-2.476
		C128.803,104.313,128.893,103.779,129.059,103.792z M152.485,104.459c1.596,0.448,2.174,2.054,1.862,5.027
		c-0.417,3.977-0.907,8.401-1.306,12.055c-0.459,4.215-0.839,6.895-0.839,6.895l-0.393-0.304c0,0,0.113-2.279,0.263-3.678
		c0.357-3.147,0.555-5.903,0.857-9.049c0.678-6.997,0.512-9.209-0.75-9.854c-0.976-0.5-1.396-0.205-0.676,0.477
		c1.374,1.062,1.33,1.506-0.139,18.737c-0.15,1.782-0.213,3.044-0.213,3.044l-1.865-1.162c0,0-0.138-1.477-0.312-3.707
		c-0.421-4.2-0.667-8.679-0.945-12.705c-0.301-4.296,0.502-5.8,3.158-5.904C151.613,104.314,152.084,104.347,152.485,104.459
		L152.485,104.459z M118.211,106.955c0.203,0.568,1.13,4.806-1.24,3.59c-0.632-0.358-0.667-0.918-0.201-1.462
		c0.521-0.608,0.644-1.482,0.383-2.73c-0.159-0.76-0.352-1.39-0.352-1.39C117.258,105.131,118.157,106.806,118.211,106.955
		L118.211,106.955z M47.735,105.626c2.005,0.382,4.207,1.556,5.627,3.022c0.881,0.938,0.836,1.695-0.541,1.783
		c-1.325,0.195-1.354,0.411-1.987-0.139c-0.284-0.223-0.838-0.771-1.469-0.869C47.364,109.114,46.343,105.361,47.735,105.626z
		 M128.665,106.736c0.211,0.341,0.233,1.011,0.409,1.491c0.299,1.343,1.218,2.336,2.043,2.212c0.555-0.067,1.32,0.101,1.402,0.767
		c0.16,0.563-0.134,1.097-0.742,1.341c-0.687,0.275-1.461,0.105-2.047-0.446C128.496,110.937,127.743,107.141,128.665,106.736
		L128.665,106.736z M119.021,106.788c0.719,0.277,1.637,2.587,1.735,4.418c0,1.312-0.205,2.962-1.333,3.587
		c-0.716,0.372-1.456,0.187-1.78-0.441c-0.396-0.77-0.102-1.565,0.719-1.937c1.004-0.454,1.33-2.496,0.719-4.49
		C119.045,107.593,118.543,106.65,119.021,106.788z M42.432,107.747l5.291,2.688c-0.77,1.054-1.375,2.032-1.792,3.146
		C44.249,111.668,43.367,109.718,42.432,107.747z M121.009,108.667c0.091-0.002,0.396,0.289,0.662,0.548
		c1.32,1.283,1.89,3.611,1.093,4.463c-0.637,0.681-1.752,0.633-1.938-0.081c-0.067-0.351,0.304-1.007,0.467-1.321
		c0.244-0.469,0.288-1.807-0.081-2.785C121.046,109.052,120.893,108.67,121.009,108.667z M84.252,109.195l5.979,0.206l20.028,18.094
		l-1.881-0.042l-18.402-16.82l-5.728,0.016L84.252,109.195z M49.81,112.455c-2.282,3.639-2.905,8.226-1.504,12.302
		c1.064,2.891-1.259,3.063-2.212,1.158c-0.732-1.424-1.154-3.903-0.932-6.543c0.312-4.269,2.276-8.554,3.85-9.068
		C50.609,109.781,50.258,111.874,49.81,112.455z M131.874,121.212c-0.607,2.846-1.732,4.263-3.329,4.854
		c-6.539,2.423-9.387-10.805-3.321-13.969C131.005,110.17,132.677,117.453,131.874,121.212L131.874,121.212z M83.89,112.569
		l5.638,0.116c5.141,4.689,10.666,9.065,16.166,14.768h-2.66c0,0-0.777-0.742-0.962-0.919c-4.972-4.454-8.654-8.09-13.447-12.229
		l-5.032-0.139L83.89,112.569z M126.907,113.442c-3.048,0.123-3.297,4.267-3.205,5.836c0.222,2.261,1.12,5.603,3.981,5.339
		c2.1-0.21,3.071-2.704,2.88-5.699C130.383,116.099,129.237,113.439,126.907,113.442L126.907,113.442z M83.376,114.816l4.946,0.112
		c4.359,3.812,8.968,7.954,13.548,12.524h-2.158c0,0-0.564-0.54-0.734-0.713c-3.708-3.362-7.477-7.109-11.071-10.13l-5.133-0.202
		L83.376,114.816z M126.989,114.979c0.866,0.321,1.011,2.437,0.255,3.312c-0.518,0.601-1.708-0.536-1.814-1.969
		C125.364,115.45,126.21,114.689,126.989,114.979z M45.224,115.242c-0.397,1.368-0.659,2.905-0.822,4.567l-2.07-2.638
		L45.224,115.242z M128.561,117.788c0.506,0,0.915,0.41,0.915,0.918c0,0.507-0.409,0.918-0.915,0.918s-0.915-0.411-0.915-0.918
		C127.646,118.198,128.055,117.788,128.561,117.788z M86.994,118.249l9.859,9.297l-2.807,0.03l-8.088-7.352l-5.132-0.194
		l1.004-1.755L86.994,118.249z M125.34,118.407c0.506,0,0.915,0.411,0.915,0.918c0,0.508-0.409,0.918-0.915,0.918
		s-0.916-0.41-0.916-0.918C124.424,118.818,124.834,118.407,125.34,118.407z M137.076,118.427
		c5.558,4.333,13.403,10.082,21.553,14.743c0-0.016-1.343,1.059-2.579,1.398c-6.343-3.506-13.89-8.454-18.564-12.464
		c-4.413,6.516-12.89,18.371-20.426,23.843c-4.755,3.412-7.15,7.617-7.137,12.535c0.015,5.086,1.805,8.396,6.793,12.562
		c3.218,2.688,6.735,6.115,6.735,6.115l-1.85,1.602c-0.308-0.039-5.397-4.438-10.547-9.623c-2.83-2.85-4.089-9.105-3.607-12.48
		c0.655-4.592,2.181-7.881,6.52-11.424c1.666-1.295,3.348-2.299,4.815-3.77C132.262,127.002,137.076,118.427,137.076,118.427
		L137.076,118.427z M128.055,120.79c0.51,1.051,0.789,2.429-0.808,2.521c-0.946,0.055-1.487-1.524-0.668-2.933
		C127.199,119.271,127.752,120.214,128.055,120.79L128.055,120.79z M80.553,120.51l5.322,0.159c0,0,5.248,4.588,7.896,7.132h17.827
		c9.804,0,17.862,0.039,17.908,0.085c0.122,0.122-1.267,1.991-1.267,1.991l-58.795,0.034c0.013-0.009,3.632-3.241,4.929-4.148
		C76.669,124.158,78.773,122.663,80.553,120.51z M44.526,122.73c0.384,1.424,0.706,2.876,1.371,4.188l-4.082,2.173
		C42.565,126.924,43.423,124.839,44.526,122.73L44.526,122.73z M157.88,134.568c-0.811,2.217-2.933,6.738-5.495,10.166
		c-0.51,0.656-0.857,1.17-0.857,1.17l5.001,4.803l-4.341,4.629c2.438,2.545,4.5,6.441,5.584,9.545
		c-1.969-0.779-3.074-1.252-5.503-2.607c-0.687-1.727-1.387-3.559-2.159-5.137c-1.771-3.6-1.747-3.248-0.301-4.307
		c2.117-1.551,2.748-1.91,2.197-2.691c-0.387-0.551-2.885-3.525-3.035-3.619c-0.229-0.143-0.127-0.582,0.297-1.285
		c1.447-2.607,2.634-5.48,3.372-8.035L157.88,134.568z M158.826,134.751l0.131,30.27c-1.791-3.617-3.654-7.311-5.73-9.619
		c-0.078-0.156,4.529-4.672,4.529-4.672c-1.688-1.57-2.676-2.508-5.035-4.688C155.018,142.722,156.837,138.378,158.826,134.751z
		 M31.997,135.8l5.733,3.34c-0.304,4.27-0.686,9.873-1.273,15.561c-0.492,4.438-0.695,6.48,0.089,7.713
		c0.664,0.9,2.455,1.875,2.455,1.875c-3.016,1.225-4.179,4.836-0.798,7.537c0,0-0.821,0.648-1.186,1.039l-4.704-3.529L31.997,135.8z
		 M121.744,137.331c-1.43,1.605-3.672,3.988-5.392,5.129c-2.294,1.52-5.515,4.438-5.36,4.48c0,0-3.375-0.016-5.661-0.107
		l-7.886-7.059c0,0,0.281-0.104-10.451-0.016c-13.87,0.115-25.109-0.039-25.109-0.039l1.575-2.219L121.744,137.331z
		 M149.856,138.718c-0.777,2.502-1.981,4.814-3.508,6.984c-0.353-1.539-0.547-3.172-1.285-4.479L149.856,138.718z M38.458,139.519
		l0.687,0.492c0,0-0.409,5.223-0.544,6.752c-0.242,2.824-0.36,5.369-0.606,8.248c-0.494,5.713-0.411,6.555,0.707,7.438
		c0.859,0.645,1.446,0.352,0.684-0.465c-0.503-0.648-0.5-0.635-0.653-1.588c-0.105-0.664-0.089-1.652,0.062-4.332
		c0.852-15.094,1.028-15.602,1.047-15.607l1.714,1.111c-0.095,0.232,1.57,15.215,1.401,18.939c-0.197,4.355-6.041,3.393-6.318,0.16
		c-0.115-0.742,0.994-12.971,0.994-12.971L38.458,139.519z M86.125,140.398l2.295,0.066l14.149,13.047l4.823,0.105l-0.421,1.646
		l-4.661-0.012L86.125,140.398z M94.9,140.398h2.221l8.099,7.365l4.986,0.076l-0.95,1.418l-4.959-0.143L94.9,140.398z
		 M92.135,140.406l11.972,10.828l4.082,0.213l-0.629,1.48l-4.839-0.137L89.27,140.433L92.135,140.406z M80.592,140.445h2.486
		l18.715,16.902l4.905,0.088l-0.073,1.523l-5.905-0.027L80.592,140.445z M143.572,140.925c0.986,0.248,1.474,1.209,2.17,4.77
		c0.812,4.15-0.947,10.891-3.151,12.156c-1.141,0.898-2.382-0.055-1.575-1.229c2.629-3.832,2.977-10.1,1.421-13.605
		C141.944,141.89,142.451,140.722,143.572,140.925z M64.171,141.55c5.979,0.07,7.525,12.391,1.643,14.117
		c-3.821,0.566-5.789-2.902-6.344-6.033C58.817,145.743,60.526,141.505,64.171,141.55z M60.884,148.939
		c0.357,2.469,1.884,5.297,4.103,5.055c2.918-0.318,3.285-4.225,2.996-6.193c-0.35-2.373-1.654-4.525-3.738-4.643
		C61.136,142.98,60.609,147.034,60.884,148.939z M64.09,144.144c0.834-0.014,1.448,1.105,1.22,2.492
		c-0.147,0.896-0.488,2.002-1.494,1.252c-0.469-0.43-0.889-1.688-0.776-2.627C63.114,144.642,63.418,144.161,64.09,144.144z
		 M146.549,146.991l2.808,3.258l-3.19,2.244C146.615,150.779,146.764,148.954,146.549,146.991z M66.125,147.286
		c0.505,0,0.915,0.414,0.915,0.922s-0.41,0.918-0.915,0.918c-0.506,0-0.916-0.41-0.916-0.918S65.619,147.286,66.125,147.286z
		 M62.85,147.851c0.506,0,0.915,0.412,0.915,0.92c0,0.506-0.409,0.918-0.915,0.918s-0.919-0.412-0.919-0.918
		C61.931,148.263,62.344,147.851,62.85,147.851z M64.703,149.036c0.46,0.141,0.754,0.564,1,0.934
		c0.613,0.914,0.692,2.061,0.258,2.541c-0.88,1.047-2.254-0.074-2.088-1.691C63.994,149.632,64.309,148.917,64.703,149.036
		L64.703,149.036z M72.543,152.632c1.312,0,1.684,1.553,0.552,2.312c-0.735,0.494-0.898,2.1-0.444,4.322
		c0.369,1.607,0.176,1.855-0.779,0.408C70.239,157.05,70.66,152.632,72.543,152.632z M69.473,153.476
		c1.151-0.043,1.521,0.84,0.85,1.516c-0.394,0.438-0.354,1.594,0.085,2.545c0.621,1.377,0.476,1.793-0.688,0.469
		C68.113,156.282,68.138,153.527,69.473,153.476z M145.607,154.146c1.307,1.744,2.465,4.018,3.522,6.594l-5.666-2.611
		L145.607,154.146z M62.816,161.154c-0.4-0.467-0.595-1.975-0.924-2.617c-0.255-0.773-0.478-1.225-0.894-1.199
		c-2.395,0.205-2.293-2.092-0.918-2.525C62.924,153.915,63.961,160.802,62.816,161.154z M74.694,158.835
		c-0.406,1.203-0.111,1.924-0.027,3.209c0.072,0.584,0.102,0.738-0.377,0.289c-1.135-0.992-1.738-4.385-0.716-5.014
		C74.948,156.476,75.365,157.902,74.694,158.835z M131.453,157.226c0.555-0.025,1.186,0.408,1.498,1.205
		c0.449,1.146,0.408,3.957,0.182,5.455c-0.348,2.289-0.898,4.395-1.124,5.969c-0.802,0.955-2.776-2.426-2.962-5.094
		c-0.311-2.117,0.416-6.514,2.039-7.441C131.201,157.263,131.324,157.232,131.453,157.226L131.453,157.226z M139.102,157.587
		c0.496-0.023,0.384,0.145,0.751,0.529c0.558,0.586,0.784,0.729,1.571,0.977c1.625,0.514,3.412,2.785,2.724,3.477
		c-0.544,0.432-2.024-0.385-2.53-0.559c-0.544-0.188-1.223-0.422-1.51-0.52c-1.362-0.461-3.32-2.979-2.711-3.486
		C137.722,157.734,138.715,157.605,139.102,157.587z M135.141,158.005c1.007,0.01,1.281,0.262,1.857,1.348
		c0.854,1.611,2.439,2.746,4.742,3.4c2.94,0.9,5.477,2.611,5.354,5.777c-0.701,0.006-1.402,0.053-2.104,0.268
		c-0.813-2.297-2.839-3.613-4.581-4.01c-4.02-0.916-7.75-5.006-6.688-6.629C134.184,157.923,134.681,157.999,135.141,158.005
		L135.141,158.005z M65.808,158.206l34.723,30.332c-14.653-5.453-28.097-5.336-41.095-3.32L65.808,158.206z M80.615,160.214
		c-0.064,0.945-1.356,1.146-1.623,1.379c-0.649,0.566-0.563,2.203-0.285,4.109c0.212,1.145-0.072,1.094-0.673,0.197
		c-1.062-1.588-1.041-4.342-0.337-5.965C78.606,157.845,80.707,158.892,80.615,160.214z M60.649,158.73
		c1.331,0.139,1.698,1.955,1.753,3.16c0,1.66-0.47,1.598-0.733,0c-0.126-0.707-0.346-0.982-0.916-1.154
		C59.457,160.347,59.373,158.73,60.649,158.73z M76.783,160.585c-0.342,0.377-0.35,2.137-0.039,3.32
		c0.172,0.654-0.145,0.703-0.586,0.186c-1.437-1.689-1.568-4.557-0.236-5.109C77.008,158.698,77.289,160.027,76.783,160.585
		L76.783,160.585z M61.761,163.974c0.032,1.688-0.352,1.842-0.857,0.225c-0.13-0.375-0.36-0.754-0.525-0.867
		c-0.945-0.648-1.112-1.154-0.563-1.705C61.159,160.525,61.742,163.472,61.761,163.974z M66.835,162.488l-4.708,20.139
		c11.588-0.975,16.852-1.178,29.231,1.248L66.835,162.488z M80.873,162.82c0.709,0.178,0.953,1.105,0.127,1.984
		c-0.271,0.348-0.523,0.885-0.192,2.307c0.452,1.949-0.31,1.326-1.236-0.514C78.978,165.419,79.25,162.411,80.873,162.82z
		 M58.709,162.882c1.26,0,2.427,2.049,2.445,4.293c0.014,1.811-0.244,1.68-0.915-0.051c-0.473-1.146-0.854-1.561-1.711-1.859
		C56.94,164.71,57.078,162.882,58.709,162.882z M67.217,163.462l21.805,19.113c-8.929-1.43-17.694-1.541-26.207-0.469
		L67.217,163.462z M85.364,164.183c1.71,0,2.384,2.119,0.286,2.861c-1.25,0.441-0.717,2.979-0.486,4.484
		c0.086,0.568-0.092,0.607-0.452,0.1C83.395,169.679,82.658,164.761,85.364,164.183L85.364,164.183z M83.055,166.566
		c-0.31,0.49-0.345,1.018-0.131,1.969c0.555,2.043,0.698,2.422-0.46,1.383c-1.219-1.293-1.751-3.852-0.729-4.609
		C82.881,164.456,83.914,165.4,83.055,166.566L83.055,166.566z M39.968,164.988c2.023-0.014,3.495,1.301,3.417,3.133
		c-0.086,2.018-1.346,3.291-3.197,3.398c-2.066,0.104-3.343-1.549-3.389-3.264C36.758,166.743,37.719,165.005,39.968,164.988
		L39.968,164.988z M39.934,165.798c-2.316-0.006-3.185,3.057-1.268,4.471c0.822,0.607,1.472,0.436,0.796-0.209
		c-1.273-1.215-0.762-3.221,0.915-3.59C41.206,166.286,40.885,165.802,39.934,165.798L39.934,165.798z M68.137,166.318
		l-2.788,13.566c5.704-0.889,12.604-0.617,17.931-0.117L68.137,166.318z M58.744,166.833c1.388-0.07,1.793,2.021,1.804,2.855
		c0,1.076-0.126,1.637-0.323,1.062c-0.467-1.359-0.928-2.105-1.429-2.105c-0.272-0.07-0.504-0.18-0.724-0.426
		C57.58,167.566,58.058,166.861,58.744,166.833z M68.396,167.376l1.839,1.564c-1.184-0.52-2.19,0.824-2.19,0.824L68.396,167.376z
		 M87.315,169.937c-0.533,0.672-0.529,2.092-0.115,3.746c0.115,0.461-0.314,0.119-0.749-0.432c-0.823-1.039-1.209-2.258-1.06-3.258
		C85.556,167.468,88.752,167.96,87.315,169.937z M58.235,168.728c1.19,0.135,1.639,2.627,1.611,3.381
		c-0.04,0.791-0.219,1.322-0.375,0.844c-0.306-1.043-0.939-2.537-1.487-2.881C57.044,169.484,57.31,168.81,58.235,168.728
		L58.235,168.728z M149.324,171.519c0.042,0.879-0.322,1.779-0.862,2.068c-0.552,0.297-0.888-0.105-1.218-1.117
		c-0.242-0.746-0.328-1.031-0.328-1.031s-0.203,0.932-0.269,1.127c-0.43,1.293-1.83,1.305-2.417-0.141
		c-0.624-1.684,1.119-3.41,2.46-3.348C148.177,169.146,149.245,170.107,149.324,171.519L149.324,171.519z M69.864,169.638
		c0.418,0,2.039,0.729,2.039,0.729l1.614,1.434c0,0-1.485-0.648-2.009-0.834c-1.25-0.443-1.223-0.447-2.232,0.381
		c-1.039,0.852-1.892,1.475-1.892,1.475l0.32-1.84C67.704,170.982,69.225,169.638,69.864,169.638L69.864,169.638z M59.27,174.159
		c0.238,1.943-0.304,2.107-0.83,0.25c-0.451-1.59-0.895-2.168-1.66-2.168c-1.411,0.211-1.886-1.889-0.618-2.309
		C58.553,169.259,59.168,173.392,59.27,174.159z M141.22,169.894l2.205,1.025l0.468,2.291l-2.032-0.504L141.22,169.894z
		 M91.796,170.105c2.122-0.59,2.385,2.059,0.758,2.451c-0.993,0.238-0.987,1.781-0.705,4.023c0.065,0.512,0.202,1.131,0.17,1.217
		c-0.151,0.406-0.656-0.215-1.336-1.65C89.668,173.527,89.985,170.609,91.796,170.105L91.796,170.105z M152.462,170.072l-0.614,2.65
		l-1.865-0.129l-0.07-1.623L152.462,170.072z M89.617,171.794c-1.021,1.484-0.104,2.854,0.123,4.016
		c0.041,0.676-0.828,0.014-1.328-0.969c-1.043-2.053-1.104-3.709-0.166-4.447C89.561,169.62,90.164,171.001,89.617,171.794z
		 M70.482,171.431c0.36,0.004,0.85,0.201,1.877,0.598c0.778,0.299,2.579,1.033,2.579,1.033l2.383,2.111c0,0-2.092-0.773-3.549-1.391
		c-3.28-1.391-2.81-1.436-5.402,0.547c-0.749,0.57-1.529,1.225-1.529,1.225l0.316-1.697c0,0,0.979-0.977,2.201-1.859
		C69.884,171.616,70.12,171.427,70.482,171.431z M39.964,172.234c1.679-0.047,2.782,1.293,3.187,2.789
		c0.233,0.867,0.032,1.666-0.016,2.498c-1.158,8.906-1.668,17.172-2.734,25.42c-0.131,0.393-0.273,0.248-0.443-0.461
		c-1.234-7.479-2.037-15.686-3.074-23.096c-0.237-2.768-0.949-6.385,2.541-7.092C39.61,172.255,39.791,172.238,39.964,172.234
		L39.964,172.234z M39.864,173.222c-0.74,0.029-1.615,0.539-1.927,1.195c-0.635,1.344-0.469,4.076,0.737,12.266
		c0.101,0.682,0.24,1.82,0.31,2.529c0.212,2.174,0.499,3.9,0.706,4.223c0.396,0.609,0.446-0.047,0.163-2.174
		c-0.146-1.086-0.342-2.746-0.437-3.688c-0.543-3.885-0.66-6.648-0.996-10.191c-0.169-1.742,0.53-3.027,1.842-3.375
		c0.71-0.188,0.748-0.508,0.085-0.725C40.198,173.236,40.035,173.214,39.864,173.222z M150.895,173.329
		c2.451,0.006,3.354,3.449,0.953,4.664c-0.891,0.451-2.384,0.238-2.755-0.48c-0.18-0.561,0.021-0.887,0.466-1.125
		c0.541-0.289,1.336-0.537,1.336-0.537s-1.299-0.252-1.664-0.869C148.442,173.654,149.889,173.355,150.895,173.329L150.895,173.329z
		 M58.633,177.044c-0.027,0.648-0.358,0.381-0.44,0c-0.265-0.863-0.815-1.801-1.278-2.174c-0.559-0.449-0.691-1.061-0.312-1.439
		C58.025,172.169,58.625,176.64,58.633,177.044z M141.828,173.322c0.628-0.02,1.481,0.195,2.021,0.736
		c0.697,0.699,0.66,0.961-0.508,1.389c-0.567,0.211-0.958,0.375-0.958,0.375s0.526,0.209,0.918,0.318
		c1.12,0.375,1.061,1.025,0.032,1.797c-1.4,1.049-3.65-0.344-3.624-2.189C139.731,174.282,140.631,173.355,141.828,173.322
		L141.828,173.322z M147.005,173.31l2.239,2.477l-2.617,2.719l-2.465-2.713L147.005,173.31z M70.887,173.542
		c0.032-0.002,0.063,0,0.097,0c0.694,0.014,1.802,0.482,4.519,1.58c1.492,0.604,3.217,1.291,3.217,1.291l2.444,2.168
		c0,0-3.349-1.053-4.515-1.645c-0.253-0.129-0.81-0.367-1.236-0.527c-0.426-0.16-1.484-0.576-2.352-0.926
		c-1.864-0.752-1.885-0.758-2.51-0.229c-0.268,0.227-0.923,0.742-1.456,1.146s-1.312,0.998-1.73,1.316
		c-0.493,0.377-1.116,0.945-1.116,0.945l0.395-2.092c0,0,0.352-0.346,0.98-0.828c0.51-0.393,1.379-1.061,1.932-1.484
		C70.115,173.827,70.407,173.566,70.887,173.542z M94.927,175.378c0.069,0.436,0.028,0.52-0.471,1.031
		c-0.631,0.645-0.717,1.703-0.255,3.076c0.127,0.377,0.282,0.826,0.248,0.859c-0.667,0.67-2.42-3.551-2.002-4.807
		C92.948,174.034,94.595,174.011,94.927,175.378L94.927,175.378z M56.482,175.56c0.459-0.021,0.992,0.328,1.259,1.055
		c0.725,2.031,0.281,4.521-0.459,2.199c-0.192-0.49-0.524-1.018-0.776-1.285c-0.26-0.277-0.844-0.598-0.83-1.049
		C55.732,175.886,56.076,175.579,56.482,175.56L56.482,175.56z M71.47,175.618c0.294,0.01,0.686,0.156,1.39,0.445
		c0.637,0.262,2.43,0.861,3.449,1.256c1.583,0.613,3.236,1.422,3.236,1.422l-3.584-0.201c0,0-1.218-0.406-1.942-0.705
		c-2.625-1.082-2.479-1.076-3.785-0.082c-0.467,0.355-1.054,0.93-1.054,0.93l-1.823,0.102c0,0,0.856-0.918,2.093-1.838
		c0.405-0.299,0.957-0.729,1.225-0.951C70.982,175.738,71.176,175.609,71.47,175.618z M99.508,176.327
		c0.998-0.189,1.544,0.764,1.48,1.359c-0.068,0.652-0.673,1.303-1.603,1.484c-0.195,0.729-0.752,2.395-0.427,4.877
		c0.262,1.164-0.229,1.189-0.73,0.074C97.417,182.314,96.235,176.95,99.508,176.327z M96.661,178.32
		c-0.423,0.906-0.57,1.637-0.336,2.781c0.26,1.27,0.314,1.584-0.405,0.789c-1.396-1.865-1.599-4.834-0.313-5.176
		C96.848,176.386,97.119,177.736,96.661,178.32z M54.852,176.929c2.178,0.344,2.818,4.064,2.515,5.654
		c-0.577,1.926-0.548,0.625-0.749-0.178c-0.536-1.938-1.156-2.992-1.819-3.104C53.013,179.005,53.263,176.677,54.852,176.929
		L54.852,176.929z M71.535,177.659c0.038-0.002,0.07,0.004,0.104,0.01c0.716,0.119,2.635,0.713,1.808,0.914l-2.831,0.016
		c-0.55,0.02,0.357-0.898,0.919-0.938V177.659z M147.762,178.269c0.274-0.025,0.648,0.297,1.089,0.748
		c1.007,1.029,0.565,2.65-0.796,3.451c-2.136,1.256-4.566-1.111-3.394-3.285c0.644-1.193,1.417-0.98,2.077,0.703
		c0.12,0.205,0-0.211,0.225-0.723C147.188,178.654,147.488,178.294,147.762,178.269L147.762,178.269z M144.178,178.388l-0.641,2.588
		l-2.604,1.256l0.95-3.189L144.178,178.388z M149.592,178.829l2.074,0.168l1.15,3.361l-2.988-1.277L149.592,178.829z
		 M100.588,180.73c1.509,0.062,1.662,1.492,0.796,2.117c-0.485,0.467-0.653,1.141-0.552,2.221c0.044,0.479,0.139,1.066,0.135,1.135
		c-0.015,0.229-0.205,0.193-0.464-0.09C98.91,184.37,99.123,180.669,100.588,180.73z M54.96,181.29c0.956,0,2.04,2.746,1.507,3.797
		c-0.337,0.617-0.661,0.465-0.783-0.25c-0.092-0.521-0.39-1.234-1.16-1.363C53.404,183.116,53.768,181.29,54.96,181.29z
		 M103.346,182.952c0.73,0.379,0.799,1.221,0.139,1.691c-0.512,0.367-0.646,0.676-0.726,1.666c0.167,2.256-1.097,0.824-1.215-1.227
		C101.479,183.966,102.081,182.308,103.346,182.952z M54.156,183.646c0.687,0,1.501,1.234,1.32,1.957
		c-0.096,0.572-0.395,0.471-0.814,0.045c-0.162-0.127-0.525-0.258-0.695-0.309C52.94,185.027,53.113,183.646,54.156,183.646
		L54.156,183.646z M73.656,184.595c9.273-0.045,18.919,1.432,26.937,4.645l-0.66,1.189l-2.104-0.725l-0.723,1.912l1.734,0.664
		l-0.815,1.766c-9.462-3.121-19.667-5.445-36.626-2.928c-0.842-0.588-2.363-1.748-2.363-1.748l1.355-0.299l-0.178-1.889
		l-3.426,0.611l-1-1.051C61.141,185.366,67.311,184.624,73.656,184.595L73.656,184.595z M104.759,185.009
		c0.888,0.002,1.439,1.002,0.788,1.43c-0.456,0.299-1.469,0.381-1.672,0.135C103.454,186.066,104.051,185.007,104.759,185.009z
		 M72.346,186.179l-0.038,1.959l2.796-0.088l0.058-1.859L72.346,186.179z M77.231,186.222l0.013,1.924l2.715,0.09l0.128-1.887
		L77.231,186.222z M70.129,186.353l-2.746,0.182l0.085,1.799l2.723-0.121L70.129,186.353z M82.406,186.652l-0.07,1.855l2.762,0.307
		l0.201-1.887L82.406,186.652z M65.02,186.74l-2.762,0.354l0.236,1.848l2.684-0.299L65.02,186.74z M87.743,187.341l-0.271,1.938
		l2.576,0.383l0.332-1.84L87.743,187.341z M92.849,188.425l-0.255,1.957l2.618,0.557l0.352-1.816L92.849,188.425z M74.316,190.681
		c8.694-0.012,16.617,1.49,23.291,4.035c0,0-0.865,1.871-1.17,2.072c-4.789-1.916-12.95-3.699-18.464-3.795
		c-2.021-0.076-2.469-0.131-3.213-0.389c-4.203-1.387-7.913-1.984-11.335,0.062l-1.398-0.992
		C66.252,191.001,70.364,190.685,74.316,190.681L74.316,190.681z M37.596,201.861c1.988,0.021,2.936,3.08,0.835,4.365
		c-0.563,0.318-1.305,0.277-1.9,0.008c-1.702-0.812-1.829-3.354,0.154-4.184C37.006,201.915,37.313,201.857,37.596,201.861
		L37.596,201.861z M102.577,201.96c0.712,0.436,3.341,1.604,3.341,1.604l-18.465,33.48l-4.468,0.035L102.577,201.96z M43.024,202.04
		c1.106-0.125,1.892,0.828,2.177,1.625c0.39,1.086-0.309,3.016-2.259,2.904C40.704,206.443,39.701,202.411,43.024,202.04z
		 M106.52,203.781c0.496,0.273,2.289,0.572,2.445,0.918c0.066,0.174-0.068,0.516-0.108,0.957c-0.097,1.064,0.169,2.244,0.812,3.189
		c1.052,1.465-0.088,0.791-1.14,0.781c-2.374-0.607-5.397,2.635-4.248,5.973c0.265,0.74,0.213,0.799-1.059,1.186
		c-2.887,0.883-4.146,3.955-2.759,6.699c0.723,1.43,0.744,1.357-0.527,1.463c-3.533,0.295-5.584,3.438-4.102,6.652
		c0.229,0.496,0.084,0.633-0.688,0.777c-2.411,0.445-3.491,2.467-3.796,4.688l-3.19,0.031L106.52,203.781z M109.578,204.962
		l6.129,1.678c-2.545,8.68-2.896,18.764,0.166,30.428l-14.092,0.012c1.957-1.762,1.184-4.195-1.104-4.732
		c2.22-1.277,2.221-4.68-0.439-5.088c-2.339-0.359-3.547,1.871-2.508,4.105l-0.999,0.273c0,0-0.447-0.564-0.55-0.865
		c-0.883-2.58,0.965-5.141,4.113-5.133c1.941,0.006,2.344-0.545,1.27-1.742c-1.918-2.141-1.314-5.148,1.19-6.332
		c1.153-0.545,1.833-0.184,1.833-0.184l0.061,1.418c0,0-0.468,0.045-0.832,0.104c-2.767,0.443-2.254,4.867,0.559,4.828
		c1.548-0.02,2.654-1.197,2.655-2.889c0-0.475,0-1.176,0-1.176c1.421,2.439,3.862,2.613,4.902,0.629
		c1.224-2.336-0.997-3.803-3.224-3.562c0,0,0.468-0.305,0.763-0.457c2.37-1.223,1.555-4.717-1.067-4.717
		c-1.799,0-2.849,1.678-2.269,3.455c0.093,0.285,0.313,0.742,0.313,0.742l-1.07,0.273c0,0-0.243-0.188-0.352-0.357
		c-1.836-2.879,1.112-6.049,4.827-5.33c1.36,0.428,1.316-0.516,0.552-1.367c-0.82-1.229-1.434-2.619-0.83-4.014H109.578z
		 M40.315,206.218l3.218,5.686l-3.604,6.551l-3.572-6.135L40.315,206.218z M39.998,209.177l-2.232,3.084l2.187,3.541l2.073-3.584
		L39.998,209.177z M39.902,210.335l1.452,1.953l-1.463,2.396l-1.434-2.25L39.902,210.335z M106.381,216.48
		c0.677,0,1.229,0.549,1.229,1.227c0,0.68-0.552,1.229-1.229,1.229s-1.225-0.549-1.225-1.229
		C105.156,217.029,105.704,216.48,106.381,216.48z M97.721,231.896c0.7,0,1.27,0.568,1.27,1.271s-0.569,1.275-1.27,1.275
		c-0.701,0-1.268-0.572-1.268-1.275S97.02,231.896,97.721,231.896z M95.8,232.763c-0.116,0.049,0,1.154,0.28,1.611
		c-1.83,0.113-2.314,1.518-2.492,2.703l-1.639-0.006C92.223,233.064,95.684,232.974,95.8,232.763L95.8,232.763z"/>
	<path id="path153-6-3-1-9-55-1-6" d="M54.246,35.291
		c-7.348,10.492-15.21,16.529-15.341,24.715c-0.044,2.651,1.388,7.156,5.87,8.019c2.909,0.557,6.913-1.8,6.997-6.589
		c-0.013-0.953,1.008-0.929,0.999,0.378c-0.138,3.777-1.332,8.175-3.339,11.755c3.209,0,6.417,0,9.626,0
		c-2.007-3.58-3.201-7.978-3.338-11.755c-0.01-1.307,1.011-1.331,0.998-0.378c0.084,4.789,4.088,7.146,6.997,6.589
		c4.483-0.862,5.914-5.367,5.87-8.019C69.455,51.82,61.594,45.783,54.246,35.291L54.246,35.291z"/>
	<path id="path153-6-3-1-8-6-8-8-0" d="M136.702,231.798
		c-7.348-10.492-15.21-16.531-15.341-24.717c-0.044-2.65,1.388-7.154,5.871-8.018c2.908-0.557,6.913,1.801,6.996,6.59
		c-0.013,0.953,1.009,0.928,0.999-0.379c-0.137-3.777-1.331-8.174-3.338-11.754c3.208,0,6.417,0,9.625,0
		c-2.007,3.58-3.201,7.977-3.338,11.754c-0.01,1.307,1.012,1.332,0.999,0.379c0.083-4.789,4.088-7.146,6.996-6.59
		c4.483,0.863,5.914,5.367,5.871,8.018C151.912,215.267,144.05,221.306,136.702,231.798L136.702,231.798z"/>
</g>
</svg>
