<?xml version="1.0" encoding="utf-8"?>
<!-- Generator: Adobe Illustrator 16.0.0, SVG Export Plug-In . SVG Version: 6.00 Build 0)  -->
<!DOCTYPE svg PUBLIC "-//W3C//DTD SVG 1.1//EN" "http://www.w3.org/Graphics/SVG/1.1/DTD/svg11.dtd">
<svg version="1.1" id="Layer_1" xmlns="http://www.w3.org/2000/svg" xmlns:xlink="http://www.w3.org/1999/xlink" x="0px" y="0px"
	 width="181px" height="252px" viewBox="0 0 181 252" enable-background="new 0 0 181 252" xml:space="preserve">
<g id="g8497-6-8" transform="matrix(0.99553774,0,0,0.99680134,-224.16988,79.60164)">
	<path id="rect7056-4-2" fill="#FFFFFF" stroke="#000000" stroke-width="1.0006" d="M235.331-78.177h161.498
		c4.718,0,8.542,3.82,8.542,8.531V162.74c0,4.712-3.824,8.531-8.542,8.531H235.331c-4.718,0-8.542-3.819-8.542-8.531V-69.646
		C226.789-74.358,230.613-78.177,235.331-78.177z"/>
	<path id="path7086-8-0" d="M274.667-52.021
		c-7.381,10.526-15.278,16.583-15.409,24.795c-0.044,2.659,1.393,7.178,5.896,8.043c2.922,0.558,6.944-1.806,7.028-6.61
		c-0.013-0.956,1.012-0.932,1.003,0.379c-0.137,3.789-1.337,8.201-3.353,11.793c3.223,0,6.446,0,9.669,0
		c-2.016-3.592-3.216-8.003-3.354-11.793c-0.009-1.311,1.016-1.335,1.003-0.379c0.084,4.804,4.106,7.168,7.028,6.61
		c4.503-0.865,5.941-5.384,5.896-8.043C289.945-35.438,282.048-41.496,274.667-52.021z"/>
	<path id="path7088-9-3" d="M240.563-38.199
		c-3.448,4.386-7.138,6.91-7.199,10.331c-0.021,1.108,0.651,2.992,2.754,3.353c1.365,0.232,3.245-0.752,3.284-2.755
		c-0.008-0.398,0.473-0.388,0.469,0.159c-0.065,1.578-0.625,3.417-1.568,4.913c1.507,0,3.012,0,4.518,0
		c-0.943-1.496-1.503-3.335-1.567-4.913c-0.009-0.547,0.474-0.556,0.468-0.159c0.039,2.003,1.919,2.987,3.284,2.755
		c2.103-0.361,2.775-2.244,2.754-3.353C247.701-31.289,244.011-33.813,240.563-38.199L240.563-38.199z"/>
	<path id="path7092-7-0" d="M391.599,131.294
		c-3.449-4.387-7.138-6.911-7.2-10.332c-0.021-1.107,0.651-2.992,2.755-3.353c1.364-0.231,3.244,0.754,3.283,2.755
		c-0.008,0.398,0.473,0.388,0.469-0.157c-0.065-1.579-0.625-3.419-1.567-4.914c1.506,0,3.012,0,4.517,0
		c-0.942,1.495-1.503,3.335-1.567,4.914c-0.008,0.545,0.475,0.555,0.469,0.157c0.039-2.001,1.918-2.986,3.283-2.755
		c2.104,0.361,2.776,2.245,2.755,3.353c-0.062,3.421-3.752,5.945-7.2,10.332H391.599z"/>
	<path id="path7094-3-5" d="M357.494-52.021
		c-7.381,10.526-15.278,16.583-15.41,24.795c-0.044,2.659,1.394,7.178,5.897,8.043c2.921,0.558,6.944-1.806,7.027-6.61
		c-0.013-0.956,1.013-0.932,1.004,0.379c-0.137,3.789-1.337,8.201-3.353,11.793c3.222,0,6.446,0,9.668,0
		c-2.016-3.592-3.216-8.003-3.353-11.793c-0.01-1.311,1.016-1.335,1.004-0.379c0.083,4.804,4.106,7.168,7.027,6.61
		c4.504-0.865,5.942-5.384,5.897-8.043C372.772-35.438,364.874-41.496,357.494-52.021z"/>
	<path id="path7098-7-3" d="M316.08-12.337
		c-7.381,10.526-15.278,16.582-15.41,24.794c-0.044,2.66,1.394,7.179,5.897,8.044c2.921,0.558,6.944-1.807,7.028-6.61
		c-0.014-0.956,1.012-0.932,1.003,0.379c-0.137,3.789-1.337,8.201-3.353,11.793c3.223,0,6.446,0,9.668,0
		c-2.016-3.592-3.216-8.003-3.353-11.793c-0.01-1.311,1.016-1.335,1.003-0.379c0.083,4.803,4.106,7.168,7.028,6.61
		c4.503-0.865,5.941-5.384,5.896-8.044C331.358,4.245,323.461-1.811,316.08-12.337z"/>
	<path id="path7105-0-7" d="M274.667,27.348
		c-7.381,10.525-15.278,16.582-15.409,24.794c-0.044,2.659,1.393,7.179,5.896,8.045c2.922,0.558,6.944-1.807,7.028-6.611
		c-0.013-0.956,1.012-0.931,1.003,0.378c-0.137,3.789-1.337,8.202-3.353,11.794c3.223,0,6.446,0,9.669,0
		c-2.016-3.592-3.216-8.004-3.354-11.794c-0.009-1.309,1.016-1.334,1.003-0.378c0.084,4.804,4.106,7.169,7.028,6.611
		c4.503-0.866,5.941-5.386,5.896-8.045C289.945,43.93,282.048,37.873,274.667,27.348z"/>
	<path id="path7107-6-3" d="M274.667,145.116
		c-7.381-10.526-15.278-16.582-15.409-24.794c-0.044-2.659,1.393-7.179,5.896-8.043c2.922-0.56,6.944,1.805,7.028,6.609
		c-0.013,0.956,1.012,0.933,1.003-0.378c-0.137-3.789-1.337-8.202-3.353-11.794c3.223,0,6.446,0,9.669,0
		c-2.016,3.592-3.216,8.004-3.354,11.794c-0.009,1.311,1.016,1.334,1.003,0.378c0.084-4.804,4.106-7.169,7.028-6.609
		c4.503,0.864,5.941,5.384,5.896,8.043C289.945,128.533,282.048,134.59,274.667,145.116z"/>
	<path id="path7109-5-0" d="M357.494,145.116
		c-7.381-10.526-15.278-16.582-15.41-24.794c-0.044-2.659,1.394-7.179,5.897-8.043c2.921-0.56,6.944,1.805,7.027,6.609
		c-0.013,0.956,1.013,0.933,1.004-0.378c-0.137-3.789-1.337-8.202-3.353-11.794c3.222,0,6.446,0,9.668,0
		c-2.016,3.592-3.216,8.004-3.353,11.794c-0.01,1.311,1.016,1.334,1.004,0.378c0.083-4.804,4.106-7.169,7.027-6.609
		c4.504,0.864,5.942,5.384,5.897,8.043C372.772,128.533,364.874,134.59,357.494,145.116z"/>
	<path id="path7119-1-9" d="M357.494,27.348
		c-7.381,10.525-15.278,16.582-15.41,24.794c-0.044,2.659,1.394,7.179,5.897,8.045c2.921,0.558,6.944-1.807,7.027-6.611
		c-0.013-0.956,1.013-0.931,1.004,0.378c-0.137,3.789-1.337,8.202-3.353,11.794c3.222,0,6.446,0,9.668,0
		c-2.016-3.592-3.216-8.004-3.353-11.794c-0.01-1.309,1.016-1.334,1.004-0.378c0.083,4.804,4.106,7.169,7.027,6.611
		c4.504-0.866,5.942-5.386,5.897-8.045C372.772,43.93,364.874,37.873,357.494,27.348z"/>
	<path id="path25-4-6-4" d="M236.503-40.71c1.736-9.179,3.584-16.069,8.437-23.548h-9.863v3.219
		h-2.619v-6.068h14.428l1.779,2.849c-5.154,5.626-9.871,23.814-9.035,23.548H236.503L236.503-40.71z"/>
	<path id="path25-4-1-9-1" d="M395.655,133.804c-1.736,9.18-3.584,16.069-8.437,23.548h9.864
		v-3.219h2.618v6.068h-14.427l-1.779-2.849c5.154-5.625,9.87-23.812,9.035-23.548H395.655z"/>
</g>
</svg>
