<?xml version="1.0" encoding="utf-8"?>
<!-- Generator: Adobe Illustrator 16.0.0, SVG Export Plug-In . SVG Version: 6.00 Build 0)  -->
<!DOCTYPE svg PUBLIC "-//W3C//DTD SVG 1.1//EN" "http://www.w3.org/Graphics/SVG/1.1/DTD/svg11.dtd">
<svg version="1.1" id="Layer_1" xmlns="http://www.w3.org/2000/svg" xmlns:xlink="http://www.w3.org/1999/xlink" x="0px" y="0px"
	 width="181px" height="252px" viewBox="0 0 181 252" enable-background="new 0 0 181 252" xml:space="preserve">
<g id="g8409-3-3" transform="matrix(0.99553774,0,0,0.99680134,138.38974,79.60164)">
	<path id="rect6355-6-85-62-9-7" fill="#FFFFFF" stroke="#000000" stroke-width="1.0006" d="M-128.853-78.177H32.645
		c4.718,0,8.542,3.82,8.542,8.531v232.387c0,4.71-3.824,8.531-8.542,8.531h-161.498c-4.718,0-8.542-3.821-8.542-8.531V-69.646
		C-137.395-74.358-133.572-78.177-128.853-78.177z"/>
	<path id="path153-0-1-2-5-5-5-3-4" d="M-123.622-38.199
		c-3.448,4.386-7.138,6.91-7.199,10.331c-0.021,1.108,0.651,2.992,2.754,3.353c1.365,0.232,3.245-0.752,3.284-2.755
		c-0.008-0.398,0.473-0.388,0.469,0.159c-0.065,1.578-0.625,3.417-1.567,4.913c1.506,0,3.011,0,4.517,0
		c-0.942-1.496-1.503-3.335-1.567-4.913c-0.008-0.547,0.475-0.556,0.468-0.159c0.039,2.003,1.919,2.987,3.284,2.755
		c2.104-0.361,2.776-2.244,2.755-3.353C-116.484-31.289-120.173-33.813-123.622-38.199z"/>
	<path id="path153-0-1-2-5-6-5-9-1-9" d="M27.414,131.293
		c-3.449-4.385-7.138-6.909-7.2-10.332c-0.021-1.107,0.651-2.99,2.755-3.351c1.364-0.233,3.244,0.752,3.283,2.755
		c-0.008,0.398,0.474,0.388,0.469-0.159c-0.064-1.579-0.625-3.417-1.567-4.914c1.506,0,3.011,0,4.517,0
		c-0.942,1.497-1.502,3.335-1.567,4.914c-0.008,0.547,0.475,0.556,0.469,0.159c0.039-2.003,1.919-2.988,3.283-2.755
		c2.104,0.361,2.776,2.244,2.755,3.351C34.552,124.384,30.862,126.908,27.414,131.293L27.414,131.293z"/>
	<path id="path153-6-3-1-6-92-7-2-9-8" d="M-48.104,27.348
		c-7.381,10.525-15.278,16.582-15.41,24.794c-0.044,2.659,1.394,7.179,5.897,8.045c2.921,0.558,6.944-1.807,7.027-6.611
		c-0.013-0.956,1.013-0.931,1.004,0.378c-0.137,3.789-1.337,8.202-3.353,11.794c3.222,0,6.446,0,9.668,0
		c-2.016-3.592-3.216-8.004-3.353-11.794c-0.01-1.309,1.016-1.334,1.004-0.378c0.083,4.804,4.106,7.169,7.027,6.611
		c4.503-0.866,5.942-5.386,5.897-8.045C-32.826,43.93-40.724,37.873-48.104,27.348z"/>
	<path id="path41-4-9-2" d="M-131.697-40.707v-2.257h2.154l4.589-24.143h2.611l5.054,24.143h1.739
		v2.257h-5.926v-2.257h1.599l-0.639-3.7h-5.979l-0.462,3.7h1.6v2.257H-131.697z M-121.025-49.3l-2.599-12.922l-2.434,12.922
		H-121.025z"/>
	<path id="path41-4-2-4-0" d="M19.339,133.801v2.257h2.154l4.588,24.144h2.611l5.055-24.144h1.739
		v-2.257H29.56v2.257h1.6l-0.64,3.701h-5.979l-0.461-3.701h1.599v-2.257H19.339L19.339,133.801z M30.01,142.395l-2.599,12.92
		l-2.435-12.92H30.01L30.01,142.395z"/>
</g>
</svg>
