<?xml version="1.0" encoding="utf-8"?>
<!-- Generator: Adobe Illustrator 16.0.0, SVG Export Plug-In . SVG Version: 6.00 Build 0)  -->
<!DOCTYPE svg PUBLIC "-//W3C//DTD SVG 1.1//EN" "http://www.w3.org/Graphics/SVG/1.1/DTD/svg11.dtd">
<svg version="1.1" id="Layer_1" xmlns="http://www.w3.org/2000/svg" xmlns:xlink="http://www.w3.org/1999/xlink" x="0px" y="0px"
	 width="181px" height="252px" viewBox="0 0 181 252" enable-background="new 0 0 181 252" xml:space="preserve">
<g id="g8484-9-4" transform="matrix(0.99553774,0,0,0.99680134,-163.74334,79.60164)">
	<path id="rect6988-1-0" fill="#FFFFFF" stroke="#000000" stroke-width="1.0006" d="M174.633-78.177h161.498
		c4.718,0,8.542,3.82,8.542,8.531v232.387c0,4.71-3.824,8.531-8.542,8.531H174.633c-4.717,0-8.542-3.821-8.542-8.531V-69.646
		C166.091-74.358,169.916-78.177,174.633-78.177z"/>
	<path id="path7018-7-4" d="M213.97-52.021
		c-7.382,10.526-15.279,16.583-15.41,24.795c-0.044,2.659,1.393,7.178,5.896,8.043c2.921,0.558,6.944-1.806,7.028-6.61
		c-0.013-0.956,1.012-0.932,1.003,0.379c-0.138,3.789-1.338,8.201-3.354,11.793c3.223,0,6.446,0,9.669,0
		c-2.016-3.592-3.216-8.003-3.353-11.793c-0.01-1.311,1.015-1.335,1.003-0.379c0.084,4.804,4.106,7.168,7.028,6.61
		c4.503-0.865,5.941-5.384,5.896-8.043C229.248-35.438,221.351-41.496,213.97-52.021L213.97-52.021z"/>
	<path id="path7020-0-8" d="M179.865-38.199
		c-3.448,4.386-7.137,6.91-7.199,10.331c-0.021,1.108,0.651,2.992,2.755,3.353c1.364,0.232,3.244-0.752,3.283-2.755
		c-0.008-0.398,0.474-0.388,0.469,0.159c-0.064,1.578-0.625,3.417-1.567,4.913c1.506,0,3.011,0,4.517,0
		c-0.942-1.496-1.502-3.335-1.567-4.913c-0.008-0.547,0.475-0.556,0.469-0.159c0.039,2.003,1.919,2.987,3.283,2.755
		c2.104-0.361,2.776-2.244,2.755-3.353C187.003-31.289,183.314-33.813,179.865-38.199L179.865-38.199z"/>
	<path id="path7024-7-1" d="M330.901,131.293
		c-3.449-4.385-7.139-6.909-7.2-10.332c-0.022-1.107,0.651-2.99,2.754-3.351c1.365-0.233,3.245,0.752,3.284,2.755
		c-0.008,0.398,0.473,0.388,0.469-0.159c-0.065-1.579-0.626-3.417-1.568-4.914c1.507,0,3.011,0,4.518,0
		c-0.942,1.497-1.503,3.335-1.568,4.914c-0.008,0.547,0.475,0.556,0.469,0.159c0.039-2.003,1.919-2.988,3.284-2.755
		c2.103,0.361,2.774,2.244,2.754,3.351c-0.061,3.423-3.751,5.947-7.2,10.332H330.901z"/>
	<path id="path7026-2-6" d="M296.796-52.021
		c-7.381,10.526-15.279,16.583-15.411,24.795c-0.043,2.659,1.395,7.178,5.897,8.043c2.921,0.558,6.945-1.806,7.027-6.61
		c-0.012-0.956,1.014-0.932,1.004,0.379c-0.137,3.789-1.338,8.201-3.353,11.793c3.221,0,6.445,0,9.668,0
		c-2.017-3.592-3.216-8.003-3.353-11.793c-0.01-1.311,1.016-1.335,1.003-0.379c0.084,4.804,4.106,7.168,7.027,6.61
		c4.504-0.865,5.943-5.384,5.897-8.043C312.073-35.438,304.177-41.496,296.796-52.021z"/>
	<path id="path7036-9-6" d="M213.97,27.348
		c-7.382,10.525-15.279,16.582-15.41,24.794c-0.044,2.659,1.393,7.179,5.896,8.045c2.921,0.558,6.944-1.807,7.028-6.611
		c-0.013-0.956,1.012-0.931,1.003,0.378c-0.138,3.789-1.338,8.202-3.354,11.794c3.223,0,6.446,0,9.669,0
		c-2.016-3.592-3.216-8.004-3.353-11.794c-0.01-1.309,1.015-1.334,1.003-0.378c0.084,4.804,4.106,7.169,7.028,6.611
		c4.503-0.866,5.941-5.386,5.896-8.045C229.248,43.93,221.351,37.873,213.97,27.348L213.97,27.348z"/>
	<path id="path7038-9-6" d="M213.97,145.116
		c-7.382-10.526-15.279-16.584-15.41-24.796c-0.044-2.659,1.393-7.177,5.896-8.043c2.921-0.558,6.944,1.807,7.028,6.611
		c-0.013,0.956,1.012,0.931,1.003-0.38c-0.138-3.789-1.338-8.2-3.354-11.792c3.223,0,6.446,0,9.669,0
		c-2.016,3.592-3.216,8.002-3.353,11.792c-0.01,1.311,1.015,1.336,1.003,0.38c0.084-4.804,4.106-7.169,7.028-6.611
		c4.503,0.866,5.941,5.384,5.896,8.043C229.248,128.532,221.351,134.591,213.97,145.116L213.97,145.116z"/>
	<path id="path7040-0-9" d="M296.796,145.116
		c-7.381-10.526-15.279-16.584-15.411-24.796c-0.043-2.659,1.395-7.177,5.897-8.043c2.921-0.558,6.945,1.807,7.027,6.611
		c-0.012,0.956,1.014,0.931,1.004-0.38c-0.137-3.789-1.338-8.2-3.353-11.792c3.221,0,6.445,0,9.668,0
		c-2.017,3.592-3.216,8.002-3.353,11.792c-0.01,1.311,1.016,1.336,1.003,0.38c0.084-4.804,4.106-7.169,7.027-6.611
		c4.504,0.866,5.943,5.384,5.897,8.043C312.073,128.532,304.177,134.591,296.796,145.116z"/>
	<path id="path7050-2-9" d="M296.796,27.348
		c-7.381,10.525-15.279,16.582-15.411,24.794c-0.043,2.659,1.395,7.179,5.897,8.045c2.921,0.558,6.945-1.807,7.027-6.611
		c-0.012-0.956,1.014-0.931,1.004,0.378c-0.137,3.789-1.338,8.202-3.353,11.794c3.221,0,6.445,0,9.668,0
		c-2.017-3.592-3.216-8.004-3.353-11.794c-0.01-1.309,1.016-1.334,1.003-0.378c0.084,4.804,4.106,7.169,7.027,6.611
		c4.504-0.866,5.943-5.386,5.897-8.045C312.073,43.93,304.177,37.873,296.796,27.348z"/>
	<path id="path23-1-9-8" d="M172.111-48.83c-0.326-2.222-0.317-7.966-0.051-9.665
		c0.819-5.205,2.807-7.588,6.138-8.366c3.235-0.757,7.779,0.086,8.775,4.437l-2.703,0.053c-1.463-2.942-5.164-2.156-7.248-0.876
		c-1.664,1.019-2.415,5.276-2.093,5.537c0,0,3.145-2.33,5.625-2.157c5.299,0.552,7.486,5.147,7.3,9.486
		c-0.169,5.221-1.824,9.395-7.44,9.673C175.073-40.914,172.625-43.824,172.111-48.83L172.111-48.83L172.111-48.83z M185.282-50.208
		c0.029-3.621-1.615-6.336-4.728-6.634c-3.11-0.3-6.249,2.736-6.031,6.429c0.217,3.707,1.652,6.826,5.425,6.809
		C184.004-43.62,185.262-47.629,185.282-50.208L185.282-50.208z"/>
	<path id="path23-1-5-6-4" d="M338.653,141.925c0.324,2.222,0.316,7.965,0.051,9.664
		c-0.82,5.206-2.807,7.589-6.139,8.367c-3.235,0.756-7.779-0.086-8.775-4.438l2.703-0.053c1.464,2.943,5.164,2.157,7.249,0.876
		c1.664-1.019,2.415-5.275,2.093-5.537c0,0-3.145,2.33-5.625,2.157c-5.299-0.551-7.487-5.147-7.3-9.485
		c0.169-5.222,1.823-9.395,7.439-9.674c5.34,0.206,7.789,3.117,8.303,8.122l0,0V141.925z M325.483,143.302
		c-0.029,3.621,1.615,6.337,4.728,6.634c3.11,0.298,6.247-2.737,6.031-6.429c-0.218-3.707-1.652-6.827-5.425-6.809
		C326.76,136.715,325.502,140.724,325.483,143.302L325.483,143.302z"/>
</g>
</svg>
