<?xml version="1.0" encoding="utf-8"?>
<!-- Generator: Adobe Illustrator 16.0.0, SVG Export Plug-In . SVG Version: 6.00 Build 0)  -->
<!DOCTYPE svg PUBLIC "-//W3C//DTD SVG 1.1//EN" "http://www.w3.org/Graphics/SVG/1.1/DTD/svg11.dtd">
<svg version="1.1" id="Layer_1" xmlns="http://www.w3.org/2000/svg" xmlns:xlink="http://www.w3.org/1999/xlink" x="0px" y="0px"
	 width="181px" height="252px" viewBox="0 0 181 252" enable-background="new 0 0 181 252" xml:space="preserve">
<g id="g8542-3-6" transform="matrix(0.99553774,0,0,0.99680134,-405.44958,79.60161)">
	<g id="g8587-4-9" transform="translate(-4.1467285e-5,2.9626465e-5)">
		<path id="rect7263-6-4" fill="#FFFFFF" stroke="#000000" stroke-width="1.0006" d="M417.423-78.177h161.498
			c4.718,0,8.542,3.82,8.542,8.531v232.387c0,4.71-3.824,8.531-8.542,8.531H417.423c-4.718,0-8.542-3.821-8.542-8.531V-69.646
			C408.881-74.358,412.705-78.177,417.423-78.177z"/>
		<path id="path7293-3-2" d="M456.759-52.021
			c-7.381,10.526-15.278,16.583-15.409,24.795c-0.045,2.659,1.393,7.178,5.896,8.043c2.921,0.558,6.944-1.806,7.028-6.61
			c-0.014-0.956,1.012-0.932,1.003,0.379c-0.137,3.789-1.337,8.201-3.353,11.793c3.223,0,6.446,0,9.668,0
			c-2.016-3.592-3.216-8.003-3.353-11.793c-0.01-1.311,1.016-1.335,1.004-0.379c0.083,4.804,4.106,7.168,7.028,6.61
			c4.503-0.865,5.941-5.384,5.896-8.043C472.037-35.438,464.14-41.496,456.759-52.021z"/>
		<path id="path7295-4-8" d="M422.655-38.199
			c-3.448,4.386-7.138,6.91-7.199,10.331c-0.022,1.108,0.651,2.992,2.754,3.353c1.365,0.232,3.245-0.753,3.284-2.755
			c-0.008-0.398,0.473-0.388,0.468,0.158c-0.064,1.579-0.625,3.417-1.567,4.914c1.507,0,3.011,0,4.518,0
			c-0.943-1.497-1.503-3.335-1.568-4.914c-0.008-0.546,0.475-0.555,0.469-0.158c0.039,2.002,1.919,2.987,3.284,2.755
			c2.103-0.361,2.775-2.244,2.754-3.353C429.793-31.289,426.103-33.813,422.655-38.199L422.655-38.199z"/>
		<path id="path7297-5-1" d="M456.759,92.203
			c-7.381-10.526-15.278-16.582-15.409-24.794c-0.045-2.659,1.393-7.179,5.896-8.043c2.921-0.56,6.944,1.805,7.028,6.609
			c-0.014,0.956,1.012,0.933,1.003-0.378c-0.137-3.789-1.337-8.202-3.353-11.794c3.223,0,6.446,0,9.668,0
			c-2.016,3.592-3.216,8.004-3.353,11.794c-0.01,1.311,1.016,1.334,1.004,0.378c0.083-4.804,4.106-7.169,7.028-6.609
			c4.503,0.864,5.941,5.384,5.896,8.043C472.037,75.621,464.14,81.677,456.759,92.203z"/>
		<path id="path7299-3-5" d="M573.691,131.293
			c-3.449-4.385-7.139-6.909-7.2-10.332c-0.021-1.107,0.651-2.99,2.755-3.351c1.365-0.233,3.245,0.752,3.284,2.755
			c-0.008,0.398,0.473,0.388,0.469-0.159c-0.065-1.579-0.626-3.417-1.568-4.914c1.507,0,3.011,0,4.518,0
			c-0.942,1.497-1.503,3.335-1.568,4.914c-0.008,0.547,0.475,0.556,0.469,0.159c0.039-2.003,1.919-2.988,3.284-2.755
			c2.103,0.361,2.774,2.244,2.754,3.351c-0.061,3.423-3.751,5.947-7.2,10.332H573.691z"/>
		<path id="path7301-4-0" d="M539.586-52.021
			c-7.381,10.526-15.278,16.583-15.41,24.795c-0.044,2.659,1.394,7.178,5.896,8.043c2.922,0.558,6.945-1.806,7.028-6.61
			c-0.013-0.956,1.013-0.932,1.003,0.379c-0.137,3.789-1.337,8.201-3.353,11.793c3.222,0,6.446,0,9.668,0
			c-2.016-3.592-3.216-8.003-3.353-11.793c-0.01-1.311,1.016-1.335,1.003-0.379c0.084,4.804,4.107,7.168,7.028,6.61
			c4.503-0.865,5.942-5.384,5.897-8.043C554.864-35.438,546.966-41.496,539.586-52.021z"/>
		<path id="path7303-7-8" d="M456.759,0.891
			c-7.381,10.526-15.278,16.583-15.409,24.795c-0.045,2.659,1.393,7.178,5.896,8.043c2.921,0.558,6.944-1.806,7.028-6.61
			c-0.014-0.956,1.012-0.932,1.003,0.379c-0.137,3.789-1.337,8.201-3.353,11.793c3.223,0,6.446,0,9.668,0
			c-2.016-3.592-3.216-8.003-3.353-11.793c-0.01-1.311,1.016-1.335,1.004-0.379c0.083,4.804,4.106,7.168,7.028,6.61
			c4.503-0.865,5.941-5.384,5.896-8.043C472.037,17.474,464.14,11.417,456.759,0.891z"/>
		<path id="path7305-6-7" d="M498.172-17.909
			c-7.381,10.526-15.278,16.583-15.41,24.795c-0.044,2.659,1.394,7.178,5.896,8.043c2.922,0.559,6.945-1.806,7.028-6.61
			c-0.013-0.956,1.013-0.932,1.004,0.379c-0.137,3.789-1.337,8.201-3.353,11.793c3.222,0,6.446,0,9.668,0
			c-2.016-3.592-3.216-8.003-3.353-11.793c-0.01-1.311,1.016-1.335,1.003-0.379c0.084,4.804,4.107,7.169,7.028,6.61
			c4.503-0.865,5.942-5.384,5.897-8.043C513.451-1.326,505.553-7.384,498.172-17.909z"/>
		<path id="path7309-8-5" d="M539.586,0.891
			c-7.381,10.526-15.278,16.583-15.41,24.795c-0.044,2.659,1.394,7.178,5.896,8.043c2.922,0.558,6.945-1.806,7.028-6.61
			c-0.013-0.956,1.013-0.932,1.003,0.379c-0.137,3.789-1.337,8.201-3.353,11.793c3.222,0,6.446,0,9.668,0
			c-2.016-3.592-3.216-8.003-3.353-11.793c-0.01-1.311,1.016-1.335,1.003-0.379c0.084,4.804,4.107,7.168,7.028,6.61
			c4.503-0.865,5.942-5.384,5.897-8.043C554.864,17.474,546.966,11.417,539.586,0.891z"/>
		<path id="path7313-6-8" d="M456.759,145.116
			c-7.381-10.526-15.278-16.584-15.409-24.796c-0.045-2.659,1.393-7.177,5.896-8.043c2.921-0.558,6.944,1.807,7.028,6.611
			c-0.014,0.956,1.012,0.931,1.003-0.38c-0.137-3.789-1.337-8.2-3.353-11.792c3.223,0,6.446,0,9.668,0
			c-2.016,3.592-3.216,8.002-3.353,11.792c-0.01,1.311,1.016,1.336,1.004,0.38c0.083-4.804,4.106-7.169,7.028-6.611
			c4.503,0.866,5.941,5.384,5.896,8.043C472.037,128.532,464.14,134.591,456.759,145.116z"/>
		<path id="path7315-7-3" d="M539.586,145.116
			c-7.381-10.526-15.278-16.584-15.41-24.796c-0.044-2.659,1.394-7.177,5.896-8.043c2.922-0.558,6.945,1.807,7.028,6.611
			c-0.013,0.956,1.013,0.931,1.003-0.38c-0.137-3.789-1.337-8.2-3.353-11.792c3.222,0,6.446,0,9.668,0
			c-2.016,3.592-3.216,8.002-3.353,11.792c-0.01,1.311,1.016,1.336,1.003,0.38c0.084-4.804,4.107-7.169,7.028-6.611
			c4.503,0.866,5.942,5.384,5.897,8.043C554.864,128.532,546.966,134.591,539.586,145.116z"/>
		<path id="path7317-0-2" d="M498.172,111.003
			c-7.381-10.526-15.278-16.582-15.41-24.794c-0.044-2.659,1.394-7.179,5.896-8.045c2.922-0.558,6.945,1.807,7.028,6.611
			c-0.013,0.956,1.013,0.931,1.004-0.38c-0.137-3.788-1.337-8.2-3.353-11.792c3.222,0,6.446,0,9.668,0
			c-2.016,3.592-3.216,8.004-3.353,11.792c-0.01,1.311,1.016,1.336,1.003,0.38c0.084-4.804,4.107-7.169,7.028-6.611
			c4.503,0.866,5.942,5.386,5.897,8.045C513.451,94.421,505.553,100.478,498.172,111.003z"/>
		<path id="path7319-5-6" d="M539.586,92.203
			c-7.381-10.526-15.278-16.582-15.41-24.794c-0.044-2.659,1.394-7.179,5.896-8.043c2.922-0.56,6.945,1.805,7.028,6.609
			c-0.013,0.956,1.013,0.933,1.003-0.378c-0.137-3.789-1.337-8.202-3.353-11.794c3.222,0,6.446,0,9.668,0
			c-2.016,3.592-3.216,8.004-3.353,11.794c-0.01,1.311,1.016,1.334,1.003,0.378c0.084-4.804,4.107-7.169,7.028-6.609
			c4.503,0.864,5.942,5.384,5.897,8.043C554.864,75.621,546.966,81.677,539.586,92.203z"/>
		<path id="path31-5-4-7" d="M414.639-40.707v-26.4h2.559v26.4H414.639z"/>
		<path id="path33-4-6-8" d="M424.783-67.107c-2.463,0-4.444,2.249-4.444,5.044v16.311
			c0,2.795,1.981,5.043,4.444,5.043h1.438c2.463,0,4.447-2.248,4.447-5.043v-16.311c0-2.795-1.984-5.044-4.447-5.044H424.783z
			 M425.527-64.611c1.455,0,2.624,1.115,2.624,2.511v16.527c0,1.395-1.169,2.521-2.624,2.521s-2.628-1.126-2.628-2.521V-62.1
			C422.899-63.494,424.072-64.611,425.527-64.611L425.527-64.611z"/>
		<g id="g8583-6-9" transform="matrix(-1,0,0,1,6929.1386,0)">
			<path id="path31-5-5-6-7" d="M6347.435,133.801v26.401h2.558v-26.401H6347.435z"/>
			<path id="path33-4-3-7-9" d="M6357.578,160.202c-2.462,0-4.442-2.251-4.442-5.045v-16.31
				c0-2.796,1.979-5.045,4.442-5.045h1.438c2.464,0,4.448,2.249,4.448,5.045v16.31c0,2.794-1.986,5.045-4.448,5.045H6357.578z
				 M6358.322,157.706c1.455,0,2.624-1.117,2.624-2.512v-16.526c0-1.395-1.169-2.522-2.624-2.522c-1.454,0-2.627,1.127-2.627,2.522
				v16.526C6355.695,156.589,6356.868,157.706,6358.322,157.706L6358.322,157.706z"/>
		</g>
	</g>
</g>
</svg>
