<?xml version="1.0" encoding="utf-8"?>
<!-- Generator: Adobe Illustrator 16.0.0, SVG Export Plug-In . SVG Version: 6.00 Build 0)  -->
<!DOCTYPE svg PUBLIC "-//W3C//DTD SVG 1.1//EN" "http://www.w3.org/Graphics/SVG/1.1/DTD/svg11.dtd">
<svg version="1.1" id="Layer_1" xmlns="http://www.w3.org/2000/svg" xmlns:xlink="http://www.w3.org/1999/xlink" x="0px" y="0px"
	 width="181px" height="252px" viewBox="0 0 181 252" enable-background="new 0 0 181 252" xml:space="preserve">
<g id="g8426-7-4" transform="matrix(0.99553774,0,0,0.99680134,17.536569,79.60164)">
	<path id="rect6784-5-9" fill="#FFFFFF" stroke="#000000" stroke-width="1.0006" d="M-7.459-78.177h161.498
		c4.718,0,8.542,3.82,8.542,8.531v232.387c0,4.71-3.824,8.531-8.542,8.531H-7.459c-4.717,0-8.542-3.821-8.542-8.531V-69.646
		C-16.001-74.358-12.176-78.177-7.459-78.177z"/>
	<path id="path6816-2-4" d="M-2.227-38.199
		c-3.448,4.386-7.137,6.91-7.199,10.331c-0.021,1.108,0.651,2.992,2.755,3.353c1.364,0.232,3.244-0.752,3.283-2.755
		c-0.008-0.398,0.474-0.388,0.469,0.159c-0.064,1.578-0.625,3.417-1.567,4.913c1.506,0,3.011,0,4.517,0
		c-0.942-1.496-1.502-3.335-1.567-4.913c-0.008-0.547,0.475-0.556,0.469-0.159c0.039,2.003,1.919,2.987,3.283,2.755
		c2.104-0.361,2.776-2.244,2.755-3.353C4.911-31.289,1.222-33.813-2.227-38.199L-2.227-38.199z"/>
	<path id="path6820-0-2" d="M148.809,131.293
		c-3.449-4.385-7.139-6.909-7.2-10.332c-0.022-1.107,0.651-2.99,2.754-3.351c1.365-0.233,3.245,0.752,3.284,2.755
		c-0.008,0.398,0.473,0.388,0.469-0.159c-0.065-1.579-0.626-3.417-1.568-4.914c1.507,0,3.011,0,4.518,0
		c-0.942,1.497-1.503,3.335-1.568,4.914c-0.008,0.547,0.475,0.556,0.469,0.159c0.039-2.003,1.919-2.988,3.284-2.755
		c2.105,0.361,2.776,2.244,2.754,3.351C155.946,124.384,152.256,126.908,148.809,131.293L148.809,131.293z"/>
	<path id="path6828-8-3" d="M73.29-52.021
		C65.91-41.496,58.012-35.438,57.882-27.226c-0.044,2.659,1.393,7.178,5.896,8.043c2.921,0.558,6.944-1.806,7.028-6.61
		c-0.013-0.956,1.012-0.932,1.003,0.379c-0.137,3.789-1.337,8.201-3.353,11.793c3.223,0,6.446,0,9.669,0
		c-2.016-3.592-3.216-8.003-3.353-11.793c-0.01-1.311,1.015-1.335,1.003-0.379c0.084,4.804,4.106,7.168,7.028,6.61
		c4.503-0.865,5.941-5.384,5.896-8.043C88.57-35.438,80.672-41.496,73.29-52.021L73.29-52.021z"/>
	<path id="path6842-0-7" d="M73.29,145.116
		c-7.381-10.526-15.278-16.584-15.409-24.796c-0.044-2.659,1.393-7.177,5.896-8.043c2.921-0.558,6.944,1.807,7.028,6.611
		c-0.013,0.956,1.012,0.931,1.003-0.38c-0.137-3.789-1.337-8.2-3.353-11.792c3.223,0,6.446,0,9.669,0
		c-2.016,3.592-3.216,8.002-3.353,11.792c-0.01,1.311,1.015,1.336,1.003,0.38c0.084-4.804,4.106-7.169,7.028-6.611
		c4.503,0.866,5.941,5.384,5.896,8.043C88.57,128.532,80.672,134.591,73.29,145.116L73.29,145.116z"/>
	<path id="path6844-7-0" d="M73.29,27.348
		C65.91,37.873,58.012,43.93,57.882,52.141c-0.044,2.659,1.393,7.179,5.896,8.045c2.921,0.558,6.944-1.807,7.028-6.611
		c-0.013-0.956,1.012-0.931,1.003,0.378c-0.137,3.789-1.337,8.202-3.353,11.794c3.223,0,6.446,0,9.669,0
		c-2.016-3.592-3.216-8.004-3.353-11.794c-0.01-1.309,1.015-1.334,1.003-0.378c0.084,4.804,4.106,7.169,7.028,6.611
		c4.503-0.866,5.941-5.386,5.896-8.045C88.57,43.93,80.672,37.873,73.29,27.348L73.29,27.348z"/>
	<path id="path17-9-11-4" d="M-10.796-46.494l2.033-1.495c1.764,2.872,3.736,4.764,6.754,4.44
		c4.528-0.312,6.405-5.058,5.457-8.634c-0.916-3.209-4.665-4.771-7.646-3.061c-0.703,0.406-1.382,0.736-1.515,0.736
		c-0.313,0-1.02-1.408-0.924-1.837c2-2.921,6.859-8.039,6.859-8.039h-7.59v3.427h-2.913v-6.15H4.552v2.087
		c0,0-3.974,4.122-5.287,6.379c3.234,0.119,5.841,2.168,6.777,5.41c0.546,1.706,0.302,5.609-0.413,7.292
		c-1.194,2.804-4.455,5.079-7.437,5.21C-6.814-40.393-9.47-43.901-10.796-46.494L-10.796-46.494L-10.796-46.494z"/>
	<path id="path17-9-1-0-8" d="M157.375,139.589l-2.033,1.495c-1.764-2.872-3.735-4.765-6.755-4.44
		c-4.526,0.312-6.404,5.057-5.456,8.633c0.916,3.209,4.665,4.771,7.647,3.061c0.702-0.406,1.381-0.735,1.515-0.735
		c0.312,0,1.02,1.407,0.924,1.836c-2.001,2.921-6.859,8.039-6.859,8.039h7.589v-3.427h2.913v6.151h-14.834v-2.087
		c0,0,3.975-4.123,5.287-6.38c-3.233-0.118-5.84-2.169-6.776-5.41c-0.547-1.707-0.302-5.608,0.412-7.291
		c1.195-2.804,4.455-5.079,7.437-5.21C153.394,133.487,156.05,136.995,157.375,139.589L157.375,139.589z"/>
</g>
</svg>
