<?xml version="1.0" encoding="utf-8"?>
<!-- Generator: Adobe Illustrator 16.0.0, SVG Export Plug-In . SVG Version: 6.00 Build 0)  -->
<!DOCTYPE svg PUBLIC "-//W3C//DTD SVG 1.1//EN" "http://www.w3.org/Graphics/SVG/1.1/DTD/svg11.dtd">
<svg version="1.1" id="Layer_1" xmlns="http://www.w3.org/2000/svg" xmlns:xlink="http://www.w3.org/1999/xlink" x="0px" y="0px"
	 width="181px" height="252px" viewBox="0 0 181 252" enable-background="new 0 0 181 252" xml:space="preserve">
<g id="g8417-9-8" transform="matrix(0.99553774,0,0,0.99680134,77.963108,79.60164)">
	<path id="rect6716-2-0" fill="#FFFFFF" stroke="#000000" stroke-width="1.0006" d="M-68.156-78.177H93.342
		c4.718,0,8.542,3.82,8.542,8.531v232.387c0,4.71-3.824,8.531-8.542,8.531H-68.156c-4.717,0-8.542-3.821-8.542-8.531V-69.646
		C-76.698-74.358-72.874-78.177-68.156-78.177z"/>
	<path id="path6748-4-0" d="M-62.924-38.199
		c-3.449,4.386-7.138,6.91-7.2,10.331c-0.021,1.108,0.651,2.992,2.755,3.353c1.365,0.232,3.245-0.752,3.284-2.755
		c-0.009-0.398,0.473-0.388,0.468,0.159c-0.064,1.578-0.624,3.417-1.567,4.913c1.506,0,3.011,0,4.517,0
		c-0.942-1.496-1.502-3.335-1.567-4.913c-0.008-0.547,0.475-0.556,0.469-0.159c0.039,2.003,1.919,2.987,3.284,2.755
		c2.104-0.361,2.775-2.244,2.754-3.353C-55.787-31.289-59.476-33.813-62.924-38.199L-62.924-38.199z"/>
	<path id="path6752-9-1" d="M88.112,131.293
		c-3.449-4.385-7.139-6.909-7.2-10.332c-0.02-1.107,0.651-2.99,2.754-3.351c1.365-0.233,3.245,0.752,3.284,2.755
		c-0.008,0.398,0.473,0.388,0.469-0.159c-0.065-1.579-0.624-3.417-1.566-4.914c1.505,0,3.011,0,4.516,0
		c-0.942,1.497-1.503,3.335-1.566,4.914c-0.008,0.547,0.475,0.556,0.469,0.159c0.037-2.003,1.917-2.988,3.282-2.755
		c2.105,0.361,2.776,2.244,2.756,3.351C95.249,124.384,91.561,126.908,88.112,131.293L88.112,131.293z"/>
	<path id="path6760-2-4" d="M12.594-52.021
		C5.212-41.496-2.685-35.438-2.816-27.226c-0.044,2.659,1.394,7.178,5.896,8.043c2.922,0.558,6.944-1.806,7.028-6.61
		c-0.013-0.956,1.012-0.932,1.003,0.379c-0.138,3.789-1.337,8.201-3.354,11.793c3.223,0,6.445,0,9.669,0
		c-2.015-3.592-3.216-8.003-3.353-11.793c-0.01-1.311,1.016-1.335,1.003-0.379c0.084,4.804,4.108,7.168,7.029,6.61
		c4.503-0.865,5.941-5.384,5.895-8.043C27.872-35.438,19.974-41.496,12.594-52.021z"/>
	<path id="path6774-6-2" d="M12.594,145.116
		c-7.382-10.526-15.278-16.584-15.41-24.796c-0.044-2.659,1.394-7.177,5.896-8.043c2.922-0.558,6.944,1.807,7.028,6.611
		c-0.013,0.956,1.012,0.931,1.003-0.38c-0.138-3.789-1.337-8.2-3.354-11.792c3.223,0,6.445,0,9.669,0
		c-2.015,3.592-3.216,8.002-3.353,11.792c-0.01,1.311,1.016,1.336,1.003,0.38c0.084-4.804,4.108-7.169,7.029-6.611
		c4.503,0.866,5.941,5.384,5.895,8.043C27.872,128.532,19.974,134.591,12.594,145.116z"/>
	<path id="path15-3-8-9" d="M-70.439-40.764l0.129-1.628c0.406-5.03,1.487-6.728,7.619-11.979
		c2.976-2.546,3.952-3.802,4.09-5.259c0.389-3.438-2.651-4.511-4.633-4.526c-2.567-0.023-5.472,1.539-4.086,5.17l-2.881,0.862
		c-0.579-3.387,0.017-6.564,2.712-7.974c3.6-1.839,8.216-1.118,10.547,1.779c1.567,1.943,1.925,4.632,1.084,6.736
		c-2.455,5.377-10.783,7.743-11.47,13.963h9.204v-3.463h2.712v6.376L-70.439-40.764L-70.439-40.764z"/>
	<path id="path15-3-5-1-4" d="M95.624,133.858l-0.129,1.628c-0.406,5.03-1.487,6.729-7.618,11.98
		c-2.976,2.545-3.953,3.801-4.089,5.259c-0.39,3.437,2.65,4.511,4.632,4.526c2.568,0.022,5.472-1.54,4.085-5.171l2.882-0.862
		c0.579,3.388-0.018,6.564-2.713,7.975c-3.6,1.838-8.214,1.117-10.545-1.779c-1.568-1.944-1.925-4.632-1.085-6.736
		c2.454-5.377,10.782-7.744,11.471-13.963h-9.205v3.462h-2.713v-6.376L95.624,133.858L95.624,133.858z"/>
</g>
</svg>
