<?xml version="1.0" encoding="utf-8"?>
<!-- Generator: Adobe Illustrator 16.0.0, SVG Export Plug-In . SVG Version: 6.00 Build 0)  -->
<!DOCTYPE svg PUBLIC "-//W3C//DTD SVG 1.1//EN" "http://www.w3.org/Graphics/SVG/1.1/DTD/svg11.dtd">
<svg version="1.1" id="Layer_1" xmlns="http://www.w3.org/2000/svg" xmlns:xlink="http://www.w3.org/1999/xlink" x="0px" y="0px"
	 width="181px" height="252px" viewBox="0 0 181 252" enable-background="new 0 0 181 252" xml:space="preserve">
<g id="g8511-1-4" transform="matrix(0.99553774,0,0,0.99680134,-284.59654,79.60164)">
	<path id="rect7125-2-7" fill="#FFFFFF" stroke="#000000" stroke-width="1.0006" d="M296.028-78.177h161.498
		c4.718,0,8.542,3.82,8.542,8.531v232.387c0,4.71-3.824,8.531-8.542,8.531H296.028c-4.717,0-8.542-3.821-8.542-8.531V-69.646
		C287.486-74.358,291.311-78.177,296.028-78.177z"/>
	<path id="path7155-4-0" d="M335.365-52.021
		c-7.381,10.526-15.278,16.583-15.41,24.795c-0.044,2.659,1.394,7.178,5.897,8.043c2.921,0.558,6.944-1.806,7.027-6.61
		c-0.013-0.956,1.013-0.932,1.004,0.379c-0.138,3.789-1.337,8.201-3.354,11.793c3.223,0,6.447,0,9.669,0
		c-2.016-3.592-3.216-8.003-3.353-11.793c-0.01-1.311,1.016-1.335,1.004-0.379c0.083,4.804,4.106,7.168,7.027,6.61
		c4.504-0.865,5.941-5.384,5.897-8.043C350.643-35.438,342.746-41.496,335.365-52.021z"/>
	<path id="path7157-2-9" d="M301.261-38.199
		c-3.449,4.386-7.138,6.91-7.2,10.331c-0.021,1.108,0.651,2.992,2.755,3.353c1.365,0.232,3.244-0.752,3.283-2.755
		c-0.008-0.398,0.474-0.388,0.469,0.159c-0.064,1.578-0.625,3.417-1.567,4.913c1.506,0,3.011,0,4.517,0
		c-0.942-1.496-1.502-3.335-1.567-4.913c-0.008-0.547,0.475-0.556,0.469-0.159c0.039,2.003,1.919,2.987,3.283,2.755
		c2.104-0.361,2.776-2.244,2.755-3.353C308.398-31.289,304.709-33.813,301.261-38.199L301.261-38.199z"/>
	<path id="path7162-7-0" d="M452.296,131.293
		c-3.449-4.385-7.139-6.909-7.2-10.332c-0.02-1.107,0.651-2.99,2.754-3.351c1.365-0.233,3.245,0.752,3.284,2.755
		c-0.008,0.398,0.473,0.388,0.469-0.159c-0.065-1.579-0.626-3.417-1.568-4.914c1.507,0,3.011,0,4.518,0
		c-0.942,1.497-1.503,3.335-1.568,4.914c-0.008,0.547,0.475,0.556,0.469,0.159c0.039-2.003,1.919-2.988,3.284-2.755
		c2.103,0.361,2.776,2.244,2.754,3.351C459.434,124.384,455.743,126.908,452.296,131.293L452.296,131.293z"/>
	<path id="path7164-8-3" d="M418.191-52.021
		c-7.381,10.526-15.277,16.583-15.409,24.795c-0.045,2.659,1.393,7.178,5.895,8.043c2.923,0.558,6.945-1.806,7.029-6.61
		c-0.014-0.956,1.012-0.932,1.003,0.379c-0.137,3.789-1.336,8.201-3.353,11.793c3.223,0,6.445,0,9.668,0
		c-2.015-3.592-3.216-8.003-3.353-11.793c-0.01-1.311,1.016-1.335,1.003-0.379c0.084,4.804,4.108,7.168,7.029,6.61
		c4.503-0.865,5.941-5.384,5.895-8.043C433.47-35.438,425.572-41.496,418.191-52.021z"/>
	<path id="path7168-3-2" d="M376.778-12.337
		c-7.382,10.526-15.278,16.582-15.41,24.794c-0.044,2.66,1.394,7.179,5.896,8.044c2.922,0.558,6.944-1.807,7.028-6.61
		c-0.013-0.956,1.012-0.932,1.003,0.379c-0.138,3.789-1.337,8.201-3.354,11.793c3.223,0,6.447,0,9.669,0
		c-2.015-3.592-3.216-8.003-3.353-11.793c-0.01-1.311,1.016-1.335,1.003-0.379c0.084,4.803,4.108,7.168,7.029,6.61
		c4.503-0.865,5.941-5.384,5.895-8.044C392.057,4.245,384.158-1.811,376.778-12.337z"/>
	<path id="path7174-5-0" d="M335.365,27.348
		c-7.381,10.525-15.278,16.582-15.41,24.794c-0.044,2.659,1.394,7.179,5.897,8.045c2.921,0.558,6.944-1.807,7.027-6.611
		c-0.013-0.956,1.013-0.931,1.004,0.378c-0.138,3.789-1.337,8.202-3.354,11.794c3.223,0,6.447,0,9.669,0
		c-2.016-3.592-3.216-8.004-3.353-11.794c-0.01-1.309,1.016-1.334,1.004-0.378c0.083,4.804,4.106,7.169,7.027,6.611
		c4.504-0.866,5.941-5.386,5.897-8.045C350.643,43.93,342.746,37.873,335.365,27.348z"/>
	<path id="path7176-7-0" d="M335.365,145.116
		c-7.381-10.526-15.278-16.584-15.41-24.796c-0.044-2.659,1.394-7.177,5.897-8.043c2.921-0.558,6.944,1.807,7.027,6.611
		c-0.013,0.956,1.013,0.931,1.004-0.38c-0.138-3.789-1.337-8.2-3.354-11.792c3.223,0,6.447,0,9.669,0
		c-2.016,3.592-3.216,8.002-3.353,11.792c-0.01,1.311,1.016,1.336,1.004,0.38c0.083-4.804,4.106-7.169,7.027-6.611
		c4.504,0.866,5.941,5.384,5.897,8.043C350.643,128.532,342.746,134.591,335.365,145.116z"/>
	<path id="path7178-9-4" d="M418.191,145.116
		c-7.381-10.526-15.277-16.584-15.409-24.796c-0.045-2.659,1.393-7.177,5.895-8.043c2.923-0.558,6.945,1.807,7.029,6.611
		c-0.014,0.956,1.012,0.931,1.003-0.38c-0.137-3.789-1.336-8.2-3.353-11.792c3.223,0,6.445,0,9.668,0
		c-2.015,3.592-3.216,8.002-3.353,11.792c-0.01,1.311,1.016,1.336,1.003,0.38c0.084-4.804,4.108-7.169,7.029-6.611
		c4.503,0.866,5.941,5.384,5.895,8.043C433.47,128.532,425.572,134.591,418.191,145.116z"/>
	<path id="path7180-5-1" d="M376.778,105.431
		c-7.382-10.526-15.278-16.582-15.41-24.794c-0.044-2.659,1.394-7.179,5.896-8.043c2.922-0.558,6.944,1.805,7.028,6.609
		c-0.013,0.956,1.012,0.933,1.003-0.378c-0.138-3.789-1.337-8.202-3.354-11.794c3.223,0,6.447,0,9.669,0
		c-2.015,3.592-3.216,8.004-3.353,11.794c-0.01,1.311,1.016,1.334,1.003,0.378c0.084-4.804,4.108-7.167,7.029-6.609
		c4.503,0.864,5.941,5.384,5.895,8.043C392.057,88.849,384.158,94.905,376.778,105.431z"/>
	<path id="path7189-7-7" d="M418.191,27.348
		c-7.381,10.525-15.277,16.582-15.409,24.794c-0.045,2.659,1.393,7.179,5.895,8.045c2.923,0.558,6.945-1.807,7.029-6.611
		c-0.014-0.956,1.012-0.931,1.003,0.378c-0.137,3.789-1.336,8.202-3.353,11.794c3.223,0,6.445,0,9.668,0
		c-2.015-3.592-3.216-8.004-3.353-11.794c-0.01-1.309,1.016-1.334,1.003-0.378c0.084,4.804,4.108,7.169,7.029,6.611
		c4.503-0.866,5.941-5.386,5.895-8.045C433.47,43.93,425.572,37.873,418.191,27.348z"/>
	<path id="path27-43-30-7" d="M292.683-48.44c0.126-3.545,1.408-4.874,3.931-6.729
		c-2.013-1.452-2.861-3.592-2.689-5.414c0.414-4.412,3.821-6.617,7.539-6.522c3.72,0.098,6.922,3.047,7.172,6.252
		c0.217,2.787-0.611,4.132-2.588,5.598c2.346,1.981,3.844,3.282,3.789,6.773c-0.056,3.491-3.025,7.645-8.201,7.771
		C296.461-40.583,292.555-44.896,292.683-48.44L292.683-48.44L292.683-48.44z M307.132-48.427c0.221-3.209-2.615-5.374-5.818-5.405
		c-3.117-0.033-5.905,2.628-5.905,5.509c0,3.093,3.628,4.774,5.97,4.782C304.227-43.528,306.939-45.665,307.132-48.427
		L307.132-48.427z M306.107-59.906c0.061-2.699-2.431-4.637-5.002-4.559c-2.287,0.07-4.705,1.813-4.708,4.072
		c0,2.827,2.753,4.239,5.103,4.294C303.633-56.051,306.059-57.864,306.107-59.906L306.107-59.906L306.107-59.906z"/>
	<path id="path27-43-3-4-8" d="M443.719,141.535c0.126,3.545,1.407,4.873,3.93,6.727
		c-2.013,1.454-2.86,3.594-2.688,5.416c0.414,4.411,3.82,6.615,7.538,6.521c3.722-0.098,6.922-3.047,7.173-6.252
		c0.218-2.786-0.61-4.132-2.588-5.598c2.346-1.981,3.845-3.282,3.788-6.772c-0.055-3.492-3.025-7.646-8.201-7.771
		C447.496,133.678,443.591,137.99,443.719,141.535L443.719,141.535L443.719,141.535z M458.166,141.521
		c0.222,3.21-2.615,5.375-5.817,5.406c-3.117,0.033-5.905-2.628-5.905-5.51c0-3.092,3.628-4.775,5.97-4.781
		C455.263,136.623,457.974,138.758,458.166,141.521L458.166,141.521z M457.142,153.001c0.061,2.698-2.431,4.636-5.001,4.558
		c-2.288-0.069-4.705-1.812-4.709-4.072c0-2.827,2.753-4.24,5.103-4.293C454.668,149.145,457.095,150.959,457.142,153.001
		L457.142,153.001L457.142,153.001z"/>
</g>
</svg>
